<svg width="215" height="215" viewBox="0 0 215 215" fill="none" xmlns="http://www.w3.org/2000/svg">
<g clip-path="url(#clip0_249_10232)">
<path d="M178.556 178.554C217.798 139.312 217.798 75.6884 178.556 36.4464C139.314 -2.79553 75.6903 -2.79553 36.4484 36.4464C-2.79359 75.6884 -2.79358 139.312 36.4484 178.554C75.6903 217.796 139.314 217.796 178.556 178.554Z" fill="#F7EADF"/>
<path d="M48.0738 60.0904C45.3899 63.6773 45.2261 68.8772 47.4228 72.7791C48.1914 74.1442 49.2456 75.7193 48.5316 77.1263C48.0864 77.9916 47.0951 78.3864 46.1921 78.7728C42.4455 80.3017 38.7914 82.2464 35.91 85.0941C33.0287 87.9418 30.9706 91.785 30.916 95.8382C30.916 97.0184 31.9451 98.0181 33.0959 98.2785C34.2468 98.5389 35.4522 98.2239 36.5359 97.7576C40.5891 96.0146 43.4662 92.4066 46.6667 89.3573C49.8673 86.3079 54.0675 83.6114 58.402 84.4178C59.6621 84.6489 60.9012 83.7332 61.464 82.5866C62.0268 81.4399 62.073 80.1169 62.1024 78.84L62.3418 69.5156C62.43 65.9496 62.7996 59.0151 59.3597 56.6C55.9197 54.1849 50.2117 57.2342 48.0738 60.0904Z" fill="#DBCDBD"/>
<path d="M181.795 106.914C178.494 95.1788 168.749 95.6493 168.401 91.1761C168.22 88.8996 171.572 85.5184 172.269 79.8356C173.302 71.41 166.456 66.5798 164.158 72.7288C163.558 74.3333 163.633 76.089 163.402 77.7943C162.44 84.7456 153.477 94.721 159.698 101.437C161.798 103.701 165.133 104.356 167.506 106.33C170.085 108.477 171.185 111.854 172.676 114.857C173.768 117.053 177.557 122.602 180.447 120.603C183.496 118.498 182.61 109.821 181.795 106.914Z" fill="#DBCDBD"/>
<path d="M135.253 45.9693C131.993 45.8013 128.637 47.347 125.546 46.2885C123.215 45.4905 121.627 43.3988 119.796 41.7481C117.965 40.0974 115.26 38.808 113.101 40.005C111.24 41.0257 110.652 43.4576 110.85 45.5703C111.047 47.683 111.828 49.7159 111.921 51.8328C111.994 53.6295 111.57 55.4116 110.694 56.9822C110.379 57.5492 109.989 58.1288 110.014 58.7757C110.047 59.7333 111.013 60.4558 111.967 60.5398C112.92 60.6238 113.849 60.2793 114.739 59.9265L125.214 55.7935C127.365 54.9535 129.755 54.0841 131.935 54.8821C133.132 55.3021 134.098 56.2178 135.169 56.9192C137.744 58.6203 145.4 61.3336 144.783 55.5121C144.619 53.9917 143.746 52.6518 142.897 51.3791C140.944 48.46 139.075 46.1541 135.253 45.9693Z" fill="#DBCDBD"/>
<path d="M91.2308 170.816C89.523 171.769 87.5828 172.227 85.6288 172.137C83.6748 172.048 81.7848 171.414 80.1717 170.307C77.5172 168.43 75.9253 165.448 74.094 162.747C73.3884 161.718 72.5904 160.681 71.4563 160.172C69.2092 159.16 66.6681 160.534 64.2152 160.739C61.6951 160.949 59.0237 159.731 57.7973 157.518C56.5708 155.304 57.0875 152.188 59.1371 150.705C61.6573 148.882 65.3114 149.97 67.7559 151.902C68.5582 152.536 69.3184 153.267 70.2761 153.624C73.4556 154.813 76.3999 151.524 79.6131 150.424C81.0576 149.965 82.6064 149.948 84.0602 150.377C85.514 150.806 86.806 151.661 87.7698 152.83C88.9375 154.305 89.5045 156.165 90.521 157.749C91.865 159.849 95.5612 160.899 96.187 163.071C96.9935 165.792 93.2427 169.652 91.2308 170.816Z" fill="#DBCDBD"/>
<path d="M31.9322 114.869C33.7341 119.489 39.2279 118.994 43.2727 118.788C45.272 118.687 56.5369 118.868 50.4383 123.429C46.3389 126.5 42.4579 126.852 40.8408 132.854C40.0008 135.879 40.0554 140.033 42.9115 142.036C46.2045 144.346 52.1309 142.397 55.7683 138.945C59.309 135.824 60.1407 133.514 63.9335 130.939C70.5446 126.458 80.478 129.679 87.4965 120.968C90.0796 117.767 91.2431 113.294 89.9242 109.396C88.4458 105.024 84.3338 102.176 80.4738 99.6477C75.2026 96.1952 73.2747 94.6075 70.9394 94.7335C67.6548 94.9057 61.4931 100.988 51.8327 103.84C42.7939 103.197 28.6519 106.423 31.9322 114.869Z" fill="#DBCDBD"/>
<mask id="mask0_249_10232" style="mask-type:luminance" maskUnits="userSpaceOnUse" x="135" y="53" width="35" height="36">
<path d="M135.715 66.3822L136.311 65.1222C139.155 59.1747 144.01 55.0963 149.412 54.0211C162.088 51.501 172.357 65.664 169.237 81.0493C168.817 83.1807 168.139 85.2527 167.216 87.2194L166.616 88.4794C172.853 75.4378 167.393 58.8471 155.615 55.5541C147.391 53.2524 139.537 58.3893 135.715 66.3822Z" fill="white"/>
</mask>
<g mask="url(#mask0_249_10232)">
<path d="M135.715 66.3822L136.311 65.1222C139.155 59.1747 144.01 55.0963 149.412 54.0211C162.088 51.501 172.357 65.664 169.237 81.0493C168.817 83.1807 168.139 85.2527 167.216 87.2194L166.616 88.4794C172.853 75.4378 167.393 58.8471 155.615 55.5541C147.412 53.265 139.558 58.4019 135.736 66.3948L135.715 66.3822Z" fill="#CEBBA7"/>
</g>
<path d="M153.494 99.5678C140.818 102.088 130.544 87.9291 133.669 72.5354C136.029 60.9093 145.606 52.7525 155.594 55.5415C165.254 58.2422 171.093 70.2421 168.64 82.3093C166.766 91.5371 160.601 98.1524 153.494 99.5678Z" fill="#FBFBFB"/>
<mask id="mask1_249_10232" style="mask-type:luminance" maskUnits="userSpaceOnUse" x="74" y="30" width="44" height="24">
<path d="M74.2197 46.9942L74.8162 45.7342C78.4073 38.2284 86.5557 32.7136 94.9014 31.0545C111.156 27.8204 122.232 39.1945 115.902 52.4125L115.302 53.6725C121.661 40.3747 110.455 29.1014 94.3008 32.3146C85.9467 33.9736 77.8025 39.5011 74.2197 46.9942Z" fill="white"/>
</mask>
<g mask="url(#mask1_249_10232)">
<path d="M74.22 46.9942L74.8165 45.7342C78.4076 38.2284 86.556 32.7136 94.9017 31.0545C111.156 27.8204 122.232 39.1945 115.903 52.4125L115.302 53.6725C121.657 40.3789 110.459 29.1014 94.3011 32.3146C85.9427 33.9946 77.7986 39.5053 74.2158 47.0152L74.22 46.9942Z" fill="#CEBBA7"/>
</g>
<path d="M76.0721 63.6227C69.3518 56.4824 72.292 44.7218 82.6202 37.3757C86.124 34.8853 90.1122 33.1595 94.3261 32.3103C101.781 30.8276 109.144 32.3943 113.513 37.0397C120.233 44.18 117.293 55.9405 106.965 63.2825C96.128 70.9604 82.4606 70.4438 76.0721 63.6227Z" fill="#F1F1F1"/>
<mask id="mask2_249_10232" style="mask-type:luminance" maskUnits="userSpaceOnUse" x="123" y="73" width="40" height="44">
<path d="M123.664 74.833L124.979 74.5138C127.669 73.8832 130.442 73.6833 133.194 73.9215C150.915 75.3328 165.956 91.8395 161.617 105.402C159.857 110.904 155.224 114.596 149.26 116.045L147.945 116.364C153.91 114.92 158.538 111.223 160.298 105.721C163.658 95.2795 155.384 82.2799 141.851 76.6895C136.193 74.35 129.666 73.3755 123.664 74.833Z" fill="white"/>
</mask>
<g mask="url(#mask2_249_10232)">
<path d="M123.664 74.833L124.978 74.5138C127.668 73.8832 130.441 73.6833 133.194 73.9215C150.914 75.3328 165.955 91.8395 161.617 105.402C159.857 110.904 155.224 114.596 149.26 116.045L147.945 116.364C153.909 114.92 158.538 111.223 160.298 105.721C163.658 95.2795 155.383 82.2799 141.85 76.6895C136.184 74.35 129.67 73.3755 123.655 74.833H123.664Z" fill="#CEBBA7"/>
</g>
<path d="M139.73 116.961C121.967 115.545 106.968 99.0093 111.307 85.4805C113.827 77.6387 122.156 73.4637 131.888 74.2408C149.604 75.652 164.65 92.163 160.307 105.721C157.799 113.563 149.457 117.738 139.73 116.961Z" fill="#F1F1F1"/>
<mask id="mask3_249_10232" style="mask-type:luminance" maskUnits="userSpaceOnUse" x="79" y="102" width="46" height="24">
<path d="M79.8945 118.88L80.491 117.62C84.0821 110.106 92.4153 104.843 100.652 103.205C108.888 101.567 117.012 103.436 121.397 108.645C125.03 112.954 125.299 118.612 122.766 123.912L122.169 125.172C124.69 119.872 124.429 114.214 120.8 109.905C116.411 104.696 108.284 102.832 100.055 104.444C91.8273 106.057 83.4773 111.379 79.8945 118.88Z" fill="white"/>
</mask>
<g mask="url(#mask3_249_10232)">
<path d="M79.8945 118.88L80.491 117.62C84.0821 110.106 92.4153 104.843 100.652 103.205C108.888 101.567 117.012 103.436 121.397 108.645C125.03 112.954 125.299 118.612 122.766 123.912L122.169 125.172C124.69 119.872 124.429 114.214 120.8 109.905C116.411 104.696 108.284 102.832 100.055 104.444C91.8273 106.057 83.4899 111.358 79.8945 118.859V118.88Z" fill="#CEBBA7"/>
</g>
<path d="M102.004 139.604C93.78 141.242 85.6484 139.377 81.2592 134.165C74.9842 126.718 78.7391 115.264 89.6596 108.544C92.8521 106.585 96.3657 105.206 100.038 104.47C108.266 102.836 116.394 104.701 120.783 109.93C127.058 117.381 123.303 128.831 112.383 135.551C109.189 137.504 105.675 138.876 102.004 139.604Z" fill="#FBFBFB"/>
<mask id="mask4_249_10232" style="mask-type:luminance" maskUnits="userSpaceOnUse" x="44" y="117" width="36" height="33">
<path d="M44.793 131.842L45.3894 130.582C50.0096 120.951 60.0565 115.239 69.0911 118.88C78.4407 122.661 82.5695 134.997 78.3063 146.463C77.714 148.055 76.7396 150 76.7606 149.953C82.3259 138.315 78.7641 124.261 68.4946 120.132C59.313 116.44 49.3124 122.383 44.793 131.842Z" fill="white"/>
</mask>
<g mask="url(#mask4_249_10232)">
<path d="M44.793 131.842L45.3894 130.582C50.0096 120.951 60.0565 115.239 69.0911 118.88C78.4407 122.661 82.5695 134.997 78.3063 146.463C77.714 148.055 76.7396 150 76.7606 149.953C82.3259 138.315 78.7641 124.261 68.4946 120.132C59.313 116.432 49.3124 122.375 44.793 131.834V131.842Z" fill="#CEBBA7"/>
</g>
<path d="M53.0594 161.668C43.7056 157.887 39.581 145.551 43.8442 134.085C47.9309 123.085 58.7884 116.226 68.4951 120.14C77.8447 123.921 81.9735 136.256 77.7103 147.723C73.6193 158.727 62.766 165.582 53.0594 161.668Z" fill="#FBFBFB"/>
<mask id="mask5_249_10232" style="mask-type:luminance" maskUnits="userSpaceOnUse" x="77" y="140" width="51" height="24">
<path d="M77.0088 152.003L77.6052 150.743C79.7641 146.219 85.2832 142.666 92.5957 141.213C107.914 138.164 125.643 145.182 127.55 155.914C127.927 157.983 127.633 160.118 126.71 162.008L126.113 163.268C127.034 161.378 127.328 159.243 126.953 157.174C125.025 146.333 107.183 139.457 91.9993 142.473C84.6867 143.926 79.1677 147.48 77.0088 152.003Z" fill="white"/>
</mask>
<g mask="url(#mask5_249_10232)">
<path d="M77.0088 152.003L77.6052 150.743C79.7641 146.219 85.2832 142.666 92.5957 141.213C107.914 138.164 125.643 145.182 127.55 155.914C127.927 157.983 127.633 160.118 126.71 162.008L126.113 163.268C127.034 161.378 127.328 159.243 126.953 157.174C125.025 146.333 107.183 139.457 91.9993 142.473C84.6867 143.926 79.1677 147.48 77.0088 152.003Z" fill="#CEBBA7"/>
</g>
<path d="M111.119 172.786C96.0443 175.785 78.1011 168.968 76.169 158.085C74.8711 150.802 81.6292 144.523 91.9995 142.46C107.318 139.411 125.047 146.43 126.953 157.161C128.251 164.448 121.489 170.728 111.119 172.786Z" fill="#FBFBFB"/>
<mask id="mask6_249_10232" style="mask-type:luminance" maskUnits="userSpaceOnUse" x="116" y="117" width="40" height="40">
<path d="M116.91 125.076L117.507 123.816C118.223 122.255 119.305 120.89 120.662 119.836C122.018 118.782 123.608 118.071 125.298 117.763C133.774 116.083 145.123 123.018 151.511 134.119C156.132 142.137 156.972 150.281 154.393 155.678L153.792 156.938C156.375 151.537 155.527 143.393 150.915 135.375C144.535 124.282 133.194 117.343 124.702 119.023C123.012 119.332 121.422 120.043 120.066 121.097C118.71 122.15 117.627 123.515 116.91 125.076Z" fill="white"/>
</mask>
<g mask="url(#mask6_249_10232)">
<path d="M116.91 125.076L117.507 123.816C118.223 122.255 119.305 120.89 120.662 119.836C122.018 118.782 123.608 118.071 125.298 117.763C133.774 116.083 145.123 123.018 151.511 134.119C156.132 142.137 156.972 150.281 154.393 155.678L153.792 156.938C156.375 151.537 155.527 143.393 150.915 135.375C144.535 124.282 133.194 117.343 124.702 119.023C123.013 119.332 121.423 120.042 120.067 121.095C118.71 122.148 117.628 123.512 116.91 125.072V125.076Z" fill="#CEBBA7"/>
</g>
<path d="M146.005 162.995C137.534 164.675 126.18 157.745 119.792 146.639C112.958 134.761 114.386 122.614 122.98 119.506C123.541 119.304 124.117 119.144 124.702 119.027C133.195 117.343 144.535 124.282 150.915 135.404C158.014 147.723 156.296 160.941 146.005 162.995Z" fill="#FBFBFB"/>
<mask id="mask7_249_10232" style="mask-type:luminance" maskUnits="userSpaceOnUse" x="147" y="94" width="35" height="36">
<path d="M147.056 107.351L147.652 106.091C150.491 100.143 155.351 96.0651 160.752 94.9898C173.408 92.4697 183.711 106.603 180.577 122.018C180.151 124.147 179.464 126.215 178.532 128.176L177.935 129.436C184.135 116.47 178.775 99.8242 166.939 96.5145C158.703 94.2128 150.861 99.3916 147.056 107.351Z" fill="white"/>
</mask>
<g mask="url(#mask7_249_10232)">
<path d="M147.056 107.351L147.652 106.091C150.491 100.143 155.351 96.0651 160.752 94.9898C173.408 92.4697 183.711 106.603 180.577 122.018C180.151 124.147 179.464 126.215 178.532 128.176L177.935 129.436C184.135 116.47 178.775 99.8242 166.939 96.5145C158.703 94.2128 150.861 99.3916 147.056 107.351Z" fill="#CEBBA7"/>
</g>
<path d="M164.835 140.537C152.18 143.057 141.881 128.923 145.01 113.509C147.383 101.824 156.989 93.734 166.939 96.5146C176.6 99.2111 182.434 111.215 179.96 123.282C178.108 132.506 171.942 139.121 164.835 140.537Z" fill="#FBFBFB"/>
<mask id="mask8_249_10232" style="mask-type:luminance" maskUnits="userSpaceOnUse" x="105" y="47" width="44" height="24">
<path d="M105.653 63.816L106.254 62.5559C109.866 54.9956 118.014 49.4597 126.285 47.8133C142.367 44.6127 153.372 56.0372 146.983 69.3938L146.387 70.6539C152.8 57.2385 141.704 45.8728 125.688 49.0733C117.431 50.7156 109.278 56.2346 105.653 63.816Z" fill="white"/>
</mask>
<g mask="url(#mask8_249_10232)">
<path d="M105.653 63.816L106.254 62.5559C109.866 54.9956 118.014 49.4597 126.285 47.8133C142.367 44.6127 153.372 56.0372 146.983 69.3938L146.387 70.6539C152.8 57.2385 141.704 45.8728 125.688 49.0733C117.431 50.7156 109.278 56.2346 105.653 63.816Z" fill="#CEBBA7"/>
</g>
<path d="M126.357 85.3966C119.124 86.8331 111.983 85.3546 107.632 80.873C100.777 73.8167 103.453 61.9721 113.609 54.4538C117.192 51.7964 121.316 49.9596 125.689 49.0734C132.921 47.6369 140.062 49.1154 144.409 53.5928C151.264 60.6533 148.609 72.4936 138.436 80.0119C134.854 82.6721 130.73 84.5106 126.357 85.3966Z" fill="#FBFBFB"/>
<mask id="mask9_249_10232" style="mask-type:luminance" maskUnits="userSpaceOnUse" x="50" y="50" width="50" height="22">
<path d="M50.0303 63.4925L50.6267 62.2325C53.1468 56.9613 59.6151 52.4964 68.3053 50.766C81.6493 48.1114 95.1865 52.9081 98.5467 61.4807C99.1082 62.9025 99.3633 64.4268 99.2953 65.954C99.2272 67.4812 98.8376 68.9768 98.1518 70.3431L97.5512 71.6031C98.2387 70.2375 98.6296 68.7419 98.6984 67.2146C98.7671 65.6872 98.5122 64.1626 97.9502 62.7407C94.5901 54.1681 81.0445 49.3715 67.7089 52.026C59.0313 53.7523 52.5504 58.2171 50.0303 63.4925Z" fill="white"/>
</mask>
<g mask="url(#mask9_249_10232)">
<path d="M50.0303 63.4925L50.6267 62.2325C53.1468 56.9613 59.6151 52.4964 68.3053 50.766C81.6493 48.1114 95.1865 52.9081 98.5467 61.4807C99.1082 62.9025 99.3633 64.4268 99.2953 65.954C99.2272 67.4812 98.8376 68.9768 98.1518 70.3431L97.5512 71.6031C98.2387 70.2375 98.6296 68.7419 98.6984 67.2146C98.7671 65.6872 98.5122 64.1626 97.9502 62.7407C94.5901 54.1681 81.0445 49.3715 67.7089 52.026C59.0313 53.7523 52.5504 58.2171 50.0303 63.4925Z" fill="#CEBBA7"/>
</g>
<path d="M79.8981 83.0654C66.5583 85.7199 53.0168 80.9233 49.6567 72.3507C46.2965 63.7782 54.3903 54.6763 67.7175 52.0218C81.0447 49.3673 94.5987 54.1639 97.9589 62.7365C101.319 71.3091 93.242 80.4109 79.8981 83.0654Z" fill="#FBFBFB"/>
<mask id="mask10_249_10232" style="mask-type:luminance" maskUnits="userSpaceOnUse" x="29" y="80" width="46" height="23">
<path d="M29.6475 96.5733L30.2481 95.3133C33.8308 87.8117 42.1094 82.4943 50.409 80.8478C66.8863 77.5675 78.5713 88.593 72.3256 101.656L71.7292 102.916C74.3081 97.5226 74.0141 91.7641 70.2885 87.4211C65.8993 82.3095 57.9021 80.4992 49.8126 82.1079C41.513 83.7417 33.2302 89.0844 29.6475 96.5733Z" fill="white"/>
</mask>
<g mask="url(#mask10_249_10232)">
<path d="M29.6475 96.5733L30.2481 95.3133C33.8308 87.8117 42.1094 82.4943 50.409 80.8478C66.8863 77.5675 78.5713 88.593 72.3256 101.656L71.7292 102.916C74.3081 97.5226 74.0141 91.7641 70.2885 87.4211C65.8993 82.3095 57.9021 80.4992 49.8126 82.1079C41.5298 83.7543 33.247 89.0844 29.6517 96.5733H29.6475Z" fill="#CEBBA7"/>
</g>
<path d="M51.5644 117.381C43.4748 118.994 35.4819 117.179 31.0927 112.072C24.7378 104.671 28.3584 93.1501 39.1739 86.3416C42.4286 84.2979 46.0279 82.8633 49.7961 82.1078C57.8857 80.4991 65.8829 82.3094 70.2721 87.421C76.6227 94.8218 73.0022 106.322 62.1867 113.143C58.9339 115.191 55.3339 116.628 51.5644 117.381Z" fill="#F1F1F1"/>
<mask id="mask11_249_10232" style="mask-type:luminance" maskUnits="userSpaceOnUse" x="74" y="65" width="37" height="32">
<path d="M74.5596 80.8561L75.156 79.596C78.5792 72.3885 84.724 67.5709 91.1167 66.2982C94.4968 65.5841 98.0175 65.9895 101.147 67.4533C110.261 71.7921 113.399 84.254 108.161 95.2921L107.565 96.5522C112.802 85.5141 109.665 73.0522 100.55 68.7176C97.4221 67.2503 93.9007 66.8433 90.5203 67.5583C84.1276 68.831 77.9827 73.6612 74.5596 80.8561Z" fill="white"/>
</mask>
<g mask="url(#mask11_249_10232)">
<path d="M74.5596 80.8561L75.156 79.596C78.5792 72.3885 84.724 67.5709 91.1167 66.2982C94.4968 65.5841 98.0175 65.9895 101.147 67.4533C110.261 71.7921 113.399 84.254 108.161 95.2921L107.565 96.5522C112.802 85.5141 109.665 73.0522 100.55 68.7176C97.4221 67.2503 93.9007 66.8433 90.5203 67.5583C84.1318 68.8184 77.9869 73.6486 74.5596 80.8561Z" fill="#CEBBA7"/>
</g>
<path d="M91.6128 109.85C88.2327 110.564 84.712 110.159 81.5827 108.695C72.4725 104.36 69.335 91.8942 74.5726 80.8561C77.9958 73.6486 84.1406 68.831 90.5333 67.5583C93.9138 66.8434 97.4352 67.2504 100.563 68.7176C109.678 73.0522 112.815 85.5184 107.578 96.5522C104.138 103.76 97.9929 108.577 91.6128 109.85Z" fill="#FBFBFB"/>
<path d="M104.503 113.185L103.688 112.358L93.8643 91.4954L94.6791 92.3228L104.503 113.185Z" fill="#CFAE13"/>
<path d="M94.6791 92.3227L93.8643 91.4953L109.716 64.8577L110.531 65.6809L94.6791 92.3227Z" fill="#CFAE13"/>
<path d="M121.762 86.3626L104.503 113.185L94.6787 92.3227L110.53 65.6809L121.762 86.3626Z" fill="#EDE99F"/>
<path d="M74.8244 173.109L74.2825 172.084L70.8174 149.285L71.3634 150.306L74.8244 173.109Z" fill="#CEBBA7"/>
<path d="M71.3634 150.306L70.8174 149.285L93.616 128.276L94.1578 129.301L71.3634 150.306Z" fill="#CEBBA7"/>
<path d="M99.0215 152.331L74.8242 173.109L71.3633 150.306L94.1577 129.301L99.0215 152.331Z" fill="#F1F1F1"/>
<path d="M108.242 112.799L108.027 111.66L111.581 88.8701L111.791 90.0126L108.242 112.799Z" fill="#CFAE13"/>
<path d="M111.791 90.0126L111.581 88.8701L139.638 75.6899L139.848 76.8282L111.791 90.0126Z" fill="#CFAE13"/>
<path d="M137.567 100.253L108.241 112.799L111.79 90.0125L139.848 76.8281L137.567 100.253Z" fill="#EDE99F"/>
<path d="M108.124 119.956L108.376 118.822L120.557 99.2402L120.305 100.374L108.124 119.956Z" fill="#CFAE13"/>
<path d="M120.305 100.374L120.557 99.2403L151.533 98.0811L151.281 99.2109L120.305 100.374Z" fill="#CFAE13"/>
<path d="M140.02 119.88L108.124 119.956L120.305 100.374L151.281 99.2109L140.02 119.88Z" fill="#EDE99F"/>
<path d="M104.803 110.739L101.655 113.157L131.479 151.982L134.627 149.564L104.803 110.739Z" fill="#A0C47E"/>
<path d="M117.524 104.277L113.784 105.606L130.175 151.738L133.915 150.409L117.524 104.277Z" fill="#A0C47E"/>
<path d="M103.417 118.239L100.317 120.718L130.901 158.947L134 156.468L103.417 118.239Z" fill="#A0C47E"/>
<path d="M108.914 103.775L105.406 105.632L128.307 148.902L131.815 147.046L108.914 103.775Z" fill="#81A14E"/>
<path d="M123.067 105.503L119.329 106.837L135.792 152.944L139.53 151.609L123.067 105.503Z" fill="#81A14E"/>
<path d="M104.613 116.153L101.135 118.065L124.713 160.971L128.191 159.059L104.613 116.153Z" fill="#81A14E"/>
<path d="M106.728 122.383L102.854 123.243L113.467 171.037L117.341 170.176L106.728 122.383Z" fill="#81A14E"/>
<path d="M48.1572 137.865L48.5058 136.761L62.3035 118.284L61.959 119.389L48.1572 137.865Z" fill="#CEBBA7"/>
<path d="M61.959 119.389L62.3034 118.284L93.2714 119.762L92.9228 120.867L61.959 119.389Z" fill="#CEBBA7"/>
<path d="M79.9443 140.503L48.1572 137.865L61.959 119.389L92.9228 120.867L79.9443 140.503Z" fill="#F1F1F1"/>
<path d="M53.3914 100.542C68.9403 105.707 85.055 108.979 101.387 110.287C103.067 111.786 102.693 117.205 95.1371 117.049C89.3408 116.936 75.3542 115.419 61.5902 112.093C56.991 110.971 48.7124 110.48 46.9399 106.96C44.844 102.827 49.4012 99.19 53.3914 100.542Z" fill="#825D4B"/>
<path d="M90.5125 109.119C87.8327 111.144 85.6108 113.97 83.0781 115.986C85.1236 116.226 84.3886 116.709 87.4169 113.66C92.9108 108.149 93.5828 109.514 90.5125 109.119Z" fill="#A0715F"/>
<path d="M71.8715 114.273C67.3353 110.299 69.1204 107.107 72.0059 105.742C76.1389 106.67 73.8792 105.772 71.6993 107.384C70.0738 108.59 69.8134 110.115 71.3717 111.967C74.1354 115.268 76.8361 115.151 71.8715 114.273Z" fill="#A0715F"/>
<path d="M67.2806 104.6C69.8385 105.238 68.4945 104.478 67.247 106.7C66.365 108.292 66.2012 110.686 67.6082 113.42C65.966 113.076 66.0374 113.42 65.5837 111.635C64.9369 109.115 65.3737 106.498 67.2806 104.6Z" fill="#A0715F"/>
<path d="M58.7124 102.222C58.4772 103.268 58.2084 105.885 56.8938 108.279C55.2137 111.358 53.7394 110.593 56.3645 111.118C58.5864 108.842 59.4013 105.717 59.9305 102.588L58.7124 102.222Z" fill="#A0715F"/>
<path d="M55.5498 101.223L56.2428 101.441C56.3184 103.079 50.7531 107.347 47.7668 108.061C47.7416 108.019 47.9348 108.283 46.9268 106.96C51.4966 106.154 55.0709 101.067 55.5498 101.223Z" fill="#A0715F"/>
<path d="M95.1367 117.049C96.0061 114.376 97.5857 111.989 99.7065 110.144C103.881 110.509 99.0639 109.686 96.4724 117.028L95.1367 117.049Z" fill="#A0715F"/>
<path d="M53.4959 85.7116C55.1046 85.8082 55.9068 88.0847 67.8395 99.232C75.2907 106.267 78.6046 108.892 85.0603 113.126C91.852 117.57 96.4512 119.964 93.8303 122.929C91.0792 126.033 88.013 124.609 84.9763 122.682C74.6018 116.159 59.5652 103.848 52.4375 96.9555C51.085 95.6954 47.1116 92.8771 47.4434 91.029C47.6954 89.2019 51.7108 85.6107 53.4959 85.7116Z" fill="#8E6352"/>
<path d="M88.7058 115.491C88.752 115.52 90.7135 116.793 90.7135 116.835C91.6291 120.157 89.3484 122.997 84.9802 122.682L81.7881 120.582C82.749 121.01 83.7707 121.286 84.8164 121.401C86.3873 121.573 88.3698 121.249 89.2308 119.842C90.0247 118.545 89.6004 116.81 88.7058 115.491Z" fill="#A0715F"/>
<path d="M81.1917 110.51C82.54 111.459 83.842 112.324 85.0643 113.126C86.1143 114.579 87.45 116.461 86.358 117.893C85.8791 118.523 85.1315 118.733 84.3965 118.855C82.8501 119.119 81.2807 119.221 79.7133 119.162L77.6846 117.734C79.8474 118.015 82.0399 117.974 84.1907 117.612C84.6238 117.59 85.036 117.419 85.3583 117.129C85.7489 116.625 85.2533 115.68 84.9383 115.168C83.862 113.484 82.6058 111.922 81.1917 110.51Z" fill="#A0715F"/>
<path d="M71.0869 112.811C72.2294 112.08 72.4856 111.442 72.578 110.094C72.7166 108.191 72.5402 106.313 73.628 104.532L74.5899 105.373C73.4306 107.473 74.3169 110.48 73.3298 112.307C73.0375 112.827 72.6328 113.274 72.1454 113.617L71.0869 112.811Z" fill="#A0715F"/>
<path d="M65.0928 108.014C65.1852 104.885 66.42 102.004 69.146 100.454L70.1246 101.353C67.2223 102.819 66.1764 105.914 66.3654 109.06L65.0928 108.014Z" fill="#A0715F"/>
<path d="M50.8369 95.5735C55.9737 96.8839 57.8974 99.1226 60.1445 99.7737C62.3916 100.425 64.7017 99.5763 66.8648 98.3414L67.8309 99.2361C65.3108 100.723 62.5722 101.79 59.7875 100.988C57.6874 100.378 56.398 98.9546 53.189 97.6694L50.8369 95.5735Z" fill="#A0715F"/>
<path d="M47.9313 89.8655C49.0863 90.4703 50.3296 91.2389 51.6778 91.827C54.6447 93.1067 57.9381 93.424 61.0946 92.7342L62.1405 93.7717C58.5003 94.7506 54.6362 94.4723 51.1738 92.982C49.9138 92.4234 48.6999 91.722 47.4482 91.0247L47.9313 89.8655Z" fill="#A0715F"/>
<path d="M89.8364 118.78C79.9122 105.747 68.4542 93.9578 55.7099 83.6662C55.1638 81.4779 58.5324 77.2189 64.6899 81.6039C69.4109 84.964 80.1087 94.1036 89.6012 104.612C92.7639 108.132 99.3288 113.202 98.808 117.108C98.2074 121.703 92.3943 122.14 89.8364 118.78Z" fill="#825D4B"/>
<path d="M64.0341 90.7602C67.3942 90.6006 70.8174 89.5212 74.0473 89.2818C72.4932 87.9293 73.3711 87.9461 69.1499 88.7609C61.5056 90.21 61.724 88.7063 64.0341 90.7602Z" fill="#A0715F"/>
<path d="M82.3722 97.0268C83.8759 102.865 80.6039 104.499 77.4496 103.995C74.5599 100.899 75.9207 102.915 78.6299 102.81C80.6543 102.735 81.7254 101.622 81.4818 99.2109C81.0282 94.9141 78.7307 93.4902 82.3722 97.0268Z" fill="#A0715F"/>
<path d="M80.692 107.59C78.9363 105.62 79.621 107.006 81.9017 105.877C83.5313 105.057 85.014 103.172 85.4088 100.105C86.5681 101.315 86.7025 100.988 86.0725 102.718C85.1568 105.188 83.3213 107.099 80.692 107.59Z" fill="#A0715F"/>
<path d="M86.4048 114.403C87.186 113.668 88.8829 111.656 91.319 110.421C94.4397 108.825 95.2294 110.291 93.3561 108.376C90.2395 109.006 87.8034 111.123 85.6025 113.416L86.4048 114.403Z" fill="#A0715F"/>
<path d="M88.4589 116.994L88.0137 116.423C88.8537 115.029 95.8722 114.638 98.7452 115.734C98.7452 115.781 98.7452 115.457 98.8082 117.108C94.587 115.205 88.7739 117.398 88.4589 116.994Z" fill="#A0715F"/>
<path d="M64.69 81.6037C62.4645 83.3229 59.8134 84.4045 57.0205 84.7328C53.7779 82.0783 57.2893 85.4721 63.5728 80.8687L64.69 81.6037Z" fill="#A0715F"/>
<path d="M97.1528 117.104C95.5946 116.684 95.2628 114.302 85.8123 100.996C79.9321 92.6165 77.1893 89.3866 71.7081 83.9474C65.937 78.2351 61.9091 74.9716 65.0676 72.6068C68.3857 70.1119 71.1033 72.1238 73.6948 74.6145C82.5572 83.0779 94.8343 98.1356 100.446 106.313C101.517 107.842 104.848 111.375 104.159 113.122C103.529 114.861 98.8917 117.566 97.1528 117.104Z" fill="#8E6352"/>
<path d="M68.5913 80.9022C68.5535 80.8644 66.886 79.2222 66.8902 79.1844C66.6592 75.7444 69.4607 73.4175 73.6777 74.5978L76.3869 77.2901C75.5311 76.677 74.5843 76.2022 73.5811 75.883C72.0775 75.4042 70.0698 75.3202 68.9609 76.5298C67.9109 77.6429 67.9823 79.4322 68.5913 80.9022Z" fill="#A0715F"/>
<path d="M74.963 87.2825C73.8289 86.0813 72.7285 84.9766 71.6911 83.9476C70.9476 82.3137 70.011 80.2052 71.3718 79.0123C71.9641 78.4915 72.7411 78.4411 73.4719 78.4663C75.0459 78.5228 76.6097 78.7424 78.1384 79.1215L79.8394 80.9234C77.7772 80.2158 75.6215 79.818 73.4425 79.7432C73.0075 79.6751 72.5623 79.7597 72.1825 79.9826C71.6995 80.4026 71.9935 81.4274 72.2161 81.9945C72.9355 83.8524 73.8566 85.6257 74.963 87.2825Z" fill="#A0715F"/>
<path d="M85.3127 87.0431C84.0526 87.5303 83.6704 88.1057 83.3134 89.4078C82.7967 91.2475 82.5909 93.1376 81.1713 94.6496L80.3984 93.6332C81.9483 91.8103 81.6837 88.6854 83.0236 87.0893C83.4143 86.6389 83.9008 86.2816 84.4474 86.0435L85.3127 87.0431Z" fill="#A0715F"/>
<path d="M90.239 92.9401C89.525 95.9895 87.7189 98.5642 84.7578 99.547L83.9766 98.4676C87.1141 97.6275 88.7564 94.7882 89.1974 91.6675L90.239 92.9401Z" fill="#A0715F"/>
<path d="M101.727 107.977C96.9516 105.667 95.5151 103.088 93.4444 102.004C91.3737 100.921 88.9376 101.29 86.5603 102.067L85.7959 100.996C88.5512 100.043 91.4578 99.5428 94.0241 100.887C95.9604 101.899 96.9432 103.554 99.8287 105.453L101.727 107.977Z" fill="#A0715F"/>
<path d="M103.432 114.147C102.42 113.307 101.362 112.324 100.156 111.48C97.5039 109.634 94.3399 108.666 91.1091 108.712L90.29 107.485C94.05 107.245 97.7811 108.281 100.879 110.425C102.021 111.228 103.05 112.169 104.142 113.088L103.432 114.147Z" fill="#A0715F"/>
<path d="M93.2462 128.835C91.7425 129.415 90.0751 127.671 74.6058 122.438C64.9159 119.103 60.8166 118.082 53.1848 116.885C45.1625 115.625 39.9878 115.352 41.1513 111.572C42.3777 107.607 45.7715 107.645 49.3164 108.145C61.4592 109.825 80.234 114.823 89.571 118.158C91.3351 118.767 96.1023 119.679 96.5685 121.497C97.102 123.282 94.9263 128.192 93.2462 128.835Z" fill="#8E6352"/>
<path d="M48.8925 116.234C48.8379 116.234 46.5278 115.877 46.5068 115.84C44.3059 113.185 45.2089 109.661 49.3167 108.145L53.0969 108.741C52.0454 108.747 51.0011 108.915 50.0014 109.241C48.4977 109.737 46.8218 110.845 46.6202 112.479C46.4312 113.983 47.5359 115.398 48.8925 116.234Z" fill="#A0715F"/>
<path d="M57.7928 117.671C56.1715 117.364 54.6301 117.112 53.1726 116.885C51.6143 115.995 49.6234 114.836 50.0224 113.076C50.2544 112.357 50.7537 111.756 51.4169 111.396C52.718 110.518 54.1058 109.776 55.5583 109.182L57.9902 109.648C55.9031 110.284 53.9215 111.225 52.1099 112.441C51.6899 112.714 51.3203 113.013 51.2447 113.366C51.0977 113.987 51.9377 114.626 52.4502 114.974C54.1269 116.066 55.9185 116.97 57.7928 117.671Z" fill="#A0715F"/>
<path d="M66.046 111.408C65.311 112.542 65.3362 113.231 65.8108 114.496C66.4702 116.289 67.4111 117.94 67.1465 119.998L65.9242 119.628C66.1132 117.242 64.0677 114.865 64.2189 112.786C64.2734 112.193 64.4569 111.62 64.7566 111.106L66.046 111.408Z" fill="#A0715F"/>
<path d="M73.4843 113.303C74.694 116.192 74.7444 119.326 72.9173 121.871L71.6572 121.451C73.6985 118.931 73.3709 115.667 71.9008 112.878L73.4843 113.303Z" fill="#A0715F"/>
<path d="M91.6123 118.759C86.3915 119.683 83.716 118.435 81.4017 118.759C79.0874 119.082 77.3317 120.821 75.8616 122.845L74.6016 122.425C76.2816 120.035 78.3397 117.927 81.2043 117.511C83.3674 117.2 85.1314 117.969 88.5882 117.813L91.6123 118.759Z" fill="#A0715F"/>
<path d="M96.6067 122.761C95.3046 122.686 93.8556 122.497 92.3855 122.518C89.1543 122.576 86.0227 123.645 83.4307 125.575L82.0488 125.059C84.9606 122.665 88.5955 121.324 92.3645 121.253C93.759 121.253 95.145 121.392 96.5647 121.497L96.6067 122.761Z" fill="#A0715F"/>
<path d="M92.0789 118.817C89.907 102.58 85.7848 86.6641 79.8018 71.414C80.4108 69.2425 85.4468 67.2138 88.6222 74.0685C91.0583 79.3271 95.8339 92.5493 98.8832 106.385C99.8913 111.005 103.083 118.666 100.698 121.804C97.913 125.5 92.6375 123.001 92.0789 118.817Z" fill="#825D4B"/>
<path d="M83.5275 81.7004C86.518 83.2209 90.0336 83.9769 92.9569 85.3714C92.2765 83.4267 93.0325 83.8761 88.9625 82.4943C81.6038 79.9615 82.5362 78.7687 83.5275 81.7004Z" fill="#A0715F"/>
<path d="M96.3419 96.212C94.7626 102.029 91.1126 101.828 88.6177 99.8283C87.6391 95.7121 87.8239 98.1482 90.2306 99.3873C92.0241 100.32 93.5109 99.8829 94.4896 97.6694C96.2327 93.7212 94.9474 91.3439 96.3419 96.212Z" fill="#A0715F"/>
<path d="M89.6559 104.558C89.1099 101.979 89.0174 103.52 91.5586 103.667C93.3772 103.764 95.5992 102.857 97.4598 100.387C97.8799 102.017 98.1487 101.798 96.7458 102.991C94.7423 104.688 92.2012 105.44 89.6559 104.558Z" fill="#A0715F"/>
<path d="M91.264 113.311C92.3099 113.063 94.7754 112.156 97.5055 112.286C101.008 112.441 100.966 114.109 100.29 111.517C97.2703 110.522 94.1033 111.156 91.0498 112.055L91.264 113.311Z" fill="#A0715F"/>
<path d="M91.7681 116.583L91.6631 115.865C93.0996 115.079 99.3746 118.208 101.324 120.577C101.298 120.619 101.45 120.329 100.698 121.804C97.976 118.061 91.8395 117.087 91.7681 116.583Z" fill="#A0715F"/>
<path d="M88.6261 74.0811C85.8422 74.4741 83.0037 74.1024 80.4148 73.0059C78.9069 69.0955 80.2804 73.7829 88.0213 72.8925L88.6261 74.0811Z" fill="#A0715F"/>
<path d="M84.9845 152.058C85.8791 152.007 92.444 147.017 95.1028 140.1C97.7909 133.111 98.8493 123.496 92.0534 126.731C88.6597 128.348 85.4675 130.364 83.653 133.741C79.9821 140.642 81.952 152.23 84.9845 152.058ZM83.212 138.495C83.674 136.248 85.0181 134.266 86.6562 132.67C88.2943 131.074 90.2389 129.826 92.1626 128.591C92.3259 128.45 92.5181 128.347 92.7256 128.288C92.9331 128.229 93.151 128.217 93.3639 128.251C93.5407 128.34 93.6963 128.466 93.8202 128.62C93.9441 128.775 94.0335 128.954 94.0821 129.146C94.9222 131.317 94.8549 133.745 94.3425 136.013C94.4181 141.28 89.2267 144.787 85.8035 147.773C85.3373 148.193 84.8039 148.614 84.1865 148.584C83.0818 146.438 82.9642 143.93 82.9768 141.519C82.9568 140.506 83.0355 139.493 83.212 138.495Z" fill="#C1272D"/>
<path d="M97.8669 151.688C98.4927 151.386 101.718 145.829 101.559 140.053C101.399 134.278 99.274 126.991 95.3552 131.355C93.4021 133.531 91.7094 135.941 91.428 138.915C90.8442 144.976 95.7248 152.725 97.8669 151.688ZM92.5326 142.448C92.25 140.673 92.5045 138.855 93.2635 137.227C94.02 135.611 94.9375 134.076 96.002 132.644C96.191 132.367 96.422 132.065 96.7622 132.04C96.9157 132.049 97.0653 132.091 97.2009 132.164C97.3364 132.236 97.4547 132.337 97.5477 132.46C98.7544 133.826 99.5355 135.515 99.7948 137.319C101.429 141.099 98.7405 145.161 97.1823 148.345C97.023 148.805 96.694 149.186 96.2624 149.411C94.8218 148.202 93.9859 146.434 93.2719 144.695C92.9547 143.975 92.7072 143.227 92.5326 142.46V142.448Z" fill="#AA1A25"/>
<path d="M103.987 143.46C104.499 143.149 106.83 138.121 106.234 133.169C105.638 128.217 103.231 122.131 100.211 126.193C98.7073 128.217 97.443 130.422 97.4346 132.993C97.422 138.252 102.227 144.522 103.987 143.46ZM98.6695 135.958C98.2863 134.456 98.3609 132.873 98.8837 131.414C99.4043 129.966 100.07 128.574 100.87 127.26C101.009 127.008 101.19 126.726 101.475 126.68C101.608 126.677 101.739 126.703 101.861 126.755C101.982 126.807 102.092 126.885 102.181 126.982C103.328 128.06 104.134 129.45 104.499 130.981C106.205 134.085 104.222 137.802 103.134 140.642C103.031 141.048 102.779 141.402 102.429 141.633C101.097 140.704 100.236 139.255 99.4885 137.815C99.1568 137.224 98.8826 136.602 98.6695 135.958Z" fill="#C1272D"/>
<path d="M73.5728 133.594C73.9424 133.947 78.6131 134.732 82.5486 133.119C86.4842 131.506 90.949 128.159 86.9378 126.588C84.9301 125.807 82.8301 125.265 80.709 125.84C76.3786 127.004 72.2918 132.384 73.5728 133.594ZM78.5501 127.525C79.6981 126.874 81.0146 126.581 82.3302 126.684C83.6395 126.789 84.9352 127.022 86.1986 127.382C86.438 127.445 86.711 127.529 86.8118 127.751C86.8452 127.86 86.8543 127.975 86.8383 128.087C86.8223 128.2 86.7818 128.307 86.7194 128.402C86.0906 129.589 85.1285 130.566 83.9515 131.212C81.78 133.312 78.2728 132.523 75.6729 132.271C75.3146 132.279 74.9664 132.152 74.6985 131.914C75.1605 130.607 76.1644 129.574 77.1766 128.629C77.596 128.216 78.0562 127.846 78.5501 127.525Z" fill="#AA1A25"/>
<path d="M105.02 92.6797L106.653 93.8725C100.273 102.652 96.9757 113.295 97.2744 124.143L95.2541 124.202C94.9404 112.905 98.374 101.821 105.02 92.6797Z" fill="#2D2D2D"/>
<path d="M99.4416 87.3623C104.56 101.707 103.908 117.478 97.6229 131.351L95.7412 130.511C101.804 117.133 102.434 101.922 97.4969 88.0889L99.4416 87.3623Z" fill="#444444"/>
<path d="M97.0987 95.1956L98.9972 95.8886C95.3556 105.839 91.2226 117.112 91.8568 128.369L89.8366 128.486C89.1813 116.81 93.3857 105.326 97.0987 95.1956Z" fill="#2D2D2D"/>
<path d="M115.776 98.2112C117.229 103.73 116.478 109.972 113.651 115.852C111.316 120.691 107.678 125.197 102.533 129.633L101.21 128.1C106.145 123.849 109.61 119.557 111.828 114.974C114.445 109.556 115.15 103.789 113.819 98.7404L115.776 98.2112Z" fill="#2D2D2D"/>
<path d="M104.343 105.818C108.238 105.219 112.199 105.182 116.104 105.709L115.822 107.758C106.384 106.509 96.8112 108.685 88.8404 113.891L87.7021 112.168C92.7268 108.877 98.4034 106.711 104.343 105.818Z" fill="#444444"/>
<path d="M109.484 102.605L111.416 103.205C109.924 108.117 109.485 113.29 110.129 118.383C110.773 123.476 112.486 128.376 115.155 132.762L113.433 133.825C110.614 129.192 108.806 124.016 108.126 118.636C107.445 113.256 107.908 107.793 109.484 102.605Z" fill="#2D2D2D"/>
<path d="M106.057 107.956L107.964 108.628C105.034 117.111 105.305 126.372 108.724 134.669L106.859 135.45C103.25 126.689 102.965 116.912 106.057 107.956Z" fill="#2D2D2D"/>
<path d="M116.608 111.883L118.645 112.231C117.171 120.784 112.952 128.624 106.624 134.564L105.213 133.056C111.211 127.424 115.211 119.991 116.608 111.883Z" fill="#444444"/>
<path d="M88.4416 107.044L90.4661 107.464C88.9498 114.659 87.0639 123.618 89.9326 131.321L87.9964 132.044C84.9176 123.786 86.8749 114.504 88.4416 107.044Z" fill="#444444"/>
<path d="M84.6954 93.843L86.619 94.4604C82.8456 106.172 82.2399 118.674 84.8634 130.695L82.8851 131.115C80.1893 118.749 80.8138 105.89 84.6954 93.843Z" fill="#2D2D2D"/>
<path d="M77.5928 106.062C79.3179 112.284 80.4044 118.666 80.8354 125.109C80.9656 127.088 81.037 129.192 80.4154 131.225L78.4875 130.616C79.0209 128.936 78.9495 127.029 78.8319 125.244C78.4114 118.938 77.3459 112.692 75.6523 106.603L77.5928 106.062Z" fill="#2D2D2D"/>
<path d="M145.484 114.445C148.425 112.143 150.319 108.476 151.302 104.927C151.415 104.507 150.835 104.272 150.68 104.684C149.336 108.199 147.32 111.097 145.22 114.176C145.191 114.215 145.177 114.263 145.181 114.311C145.186 114.36 145.208 114.405 145.243 114.438C145.278 114.471 145.324 114.49 145.373 114.491C145.421 114.493 145.468 114.476 145.505 114.445H145.484Z" fill="white"/>
<path d="M188.074 111.274C189.154 107.032 187.843 101.193 184.643 98.0853C184.261 97.7115 183.509 98.0475 183.778 98.6145C184.781 100.715 186.004 102.609 186.604 104.894C187.146 106.952 187.238 109.094 187.394 111.194C187.419 111.53 187.99 111.614 188.074 111.27V111.274Z" fill="white"/>
<path d="M71.2883 49.1573C66.7353 48.4348 61.0776 50.3375 57.6377 53.3364C57.585 53.4045 57.5545 53.4871 57.5503 53.5731C57.5461 53.6591 57.5684 53.7443 57.6143 53.8172C57.6601 53.89 57.7272 53.9471 57.8065 53.9805C57.8858 54.014 57.9735 54.0223 58.0577 54.0043C60.12 53.1642 62.1445 52.2024 64.2572 51.4842C66.5589 50.7071 68.9698 50.4425 71.3093 49.8041C71.3882 49.7915 71.4601 49.7512 71.512 49.6903C71.5639 49.6295 71.5924 49.5522 71.5924 49.4723C71.5924 49.3923 71.5639 49.315 71.512 49.2542C71.4601 49.1934 71.3882 49.1531 71.3093 49.1405L71.2883 49.1573Z" fill="white"/>
<path d="M44.7727 152.369C43.3895 148.708 42.7498 144.808 42.891 140.898C42.891 140.507 42.3114 140.28 42.1728 140.717C41.5546 142.73 41.4283 144.862 41.8047 146.934C42.1811 149.006 43.0491 150.958 44.3359 152.625C44.5207 152.864 44.8693 152.625 44.7559 152.36L44.7727 152.369Z" fill="white"/>
<path d="M82.0196 167.182C81.4946 164.142 81.2929 161.067 80.7931 158.018C80.7852 157.956 80.755 157.899 80.7082 157.858C80.6614 157.817 80.6013 157.794 80.539 157.794C80.4767 157.794 80.4166 157.817 80.3698 157.858C80.3231 157.899 80.2929 157.956 80.2849 158.018C79.8649 161.243 80.3563 164.171 81.1249 167.313C81.2593 167.867 82.1204 167.758 82.0196 167.174V167.182Z" fill="white"/>
<path d="M118.52 170.61C118.461 169.139 118.098 167.696 117.453 166.372C117.422 166.302 117.368 166.245 117.298 166.212C117.229 166.179 117.15 166.173 117.077 166.194C117.003 166.215 116.94 166.262 116.899 166.327C116.857 166.391 116.841 166.468 116.852 166.544C116.941 167.99 117.33 169.402 117.995 170.69C118.108 170.9 118.524 170.912 118.52 170.61Z" fill="white"/>
<path d="M89.0461 152.86C90.2641 153.003 91.1083 152.138 91.3016 150.987C91.3562 150.651 90.8437 150.428 90.6631 150.735C90.2303 151.378 89.6424 151.903 88.9536 152.259C88.8932 152.29 88.844 152.338 88.813 152.398C88.782 152.458 88.7708 152.527 88.7811 152.593C88.7913 152.66 88.8225 152.722 88.8701 152.77C88.9178 152.818 88.9794 152.849 89.0461 152.86Z" fill="white"/>
<path d="M116.012 48.3088C116.759 43.8524 111.06 37.8755 106.435 39.5262C106.271 39.6025 106.133 39.7247 106.038 39.878C105.942 40.0313 105.893 40.2091 105.897 40.3898C105.9 40.5704 105.956 40.7461 106.058 40.8955C106.159 41.045 106.302 41.1617 106.469 41.2314C108.451 41.8657 110.199 41.8279 111.908 43.2559C113.525 44.6042 114.34 46.5111 114.999 48.46C115.18 48.9934 115.936 48.7834 116.012 48.3088Z" fill="white"/>
<path d="M111.165 177.582C107.501 178.279 103.721 178.036 100.177 176.877C100.13 176.864 100.08 176.869 100.037 176.891C99.9936 176.913 99.9599 176.95 99.9423 176.995C99.9246 177.041 99.9242 177.091 99.9411 177.136C99.9581 177.182 99.9912 177.219 100.034 177.242C103.594 178.65 107.531 178.782 111.177 177.616C111.198 177.616 111.177 177.578 111.177 177.582H111.165Z" fill="white"/>
<path d="M42.219 79.9153C39.8669 80.2513 37.5988 82.49 36.112 84.1869C34.3269 86.203 32.987 88.6265 32.7896 91.3482C32.7829 91.4095 32.7985 91.4712 32.8336 91.522C32.8687 91.5727 32.9209 91.6091 32.9807 91.6244C33.0404 91.6398 33.1037 91.633 33.1589 91.6054C33.2141 91.5778 33.2575 91.5312 33.281 91.4742C34.4235 89.3321 35.4819 87.1438 37.015 85.2369C38.6027 83.2628 40.77 82.2716 42.4963 80.5411C42.5548 80.4912 42.5957 80.4237 42.6128 80.3487C42.6299 80.2737 42.6223 80.1951 42.5911 80.1248C42.56 80.0544 42.5069 79.996 42.4399 79.9583C42.3728 79.9205 42.2954 79.9054 42.219 79.9153Z" fill="white"/>
<path d="M151.503 49.3002C149.382 46.0072 145.014 43.6677 141.045 44.6464C140.532 44.7724 140.44 45.667 141.045 45.6586C144.989 45.5998 148.353 46.5574 150.936 49.7454C151.226 50.1108 151.726 49.6782 151.486 49.3002H151.503Z" fill="white"/>
</g>
<defs>
<clipPath id="clip0_249_10232">
<rect width="201" height="201" fill="white" transform="translate(7 7)"/>
</clipPath>
</defs>
</svg>
