<svg width="215" height="215" viewBox="0 0 215 215" fill="none" xmlns="http://www.w3.org/2000/svg">
<g clip-path="url(#clip0_246_1698)">
<path fill-rule="evenodd" clip-rule="evenodd" d="M105.42 15.0236C120.529 14.7356 135.477 18.1345 148.943 24.92C140.956 28.9304 126.675 32.9055 115.875 26.2175C107.53 21.0275 105.539 17.3709 105.42 15.0236Z" fill="#F7C35B"/>
<path fill-rule="evenodd" clip-rule="evenodd" d="M18.0988 108.102C14.7014 93.7937 16.1438 87.4124 17.467 82.6588C21.3652 82.8711 27.5879 83.5317 27.5879 83.5317L25.6687 96.141C24.9653 96.0938 18.0988 108.102 18.0988 108.102Z" fill="#BF9A76"/>
<path fill-rule="evenodd" clip-rule="evenodd" d="M103.584 15.0707H103.667C105.893 14.9993 108.086 15.615 109.942 16.8325C111.799 18.0499 113.226 19.8087 114.026 21.8649C114.766 23.705 115.683 25.84 116.804 28.3289C129.297 55.7415 136.366 72.8685 153.02 90.6089C169.673 108.349 184.467 111.357 187.829 121.36C191.191 131.362 188.83 129.121 178.817 147.31C168.803 165.498 96.3358 185.161 96.3358 185.161C96.3358 185.161 86.1672 190.127 75.1761 186.07C64.1849 182.012 62.1465 184.689 55.5065 180.172C48.8665 175.654 42.2981 170.606 44.3485 165.321C46.3989 160.037 79.8848 147.911 78.5855 126.845C77.2861 105.778 51.2865 98.1108 53.3369 75.8056C55.3873 53.5004 64.2326 45.5974 72.0766 30.7233L72.1481 30.6054C74.1902 26.7712 77.1098 23.4625 80.674 20.9435C84.2382 18.4244 88.3483 16.7647 92.676 16.0969C96.2876 15.5347 99.9301 15.1881 103.584 15.059V15.0707Z" fill="#452508"/>
<path fill-rule="evenodd" clip-rule="evenodd" d="M130.477 121.43C130.477 121.43 130.942 140.433 120.821 145.021C110.7 149.61 104.287 137.437 100.829 128.767C97.3724 120.098 113.466 103.832 116.72 103.749C119.975 103.666 130.477 121.442 130.477 121.442V121.43Z" fill="#BF8B24"/>
<path fill-rule="evenodd" clip-rule="evenodd" d="M93.7602 66.6641C93.7602 66.6641 84.5811 78.0467 83.7585 82.7885C82.936 87.5303 80.516 96.1882 85.8805 102.935C91.2449 109.682 94.9761 112.655 98.4332 111.664C101.89 110.673 105.943 109.305 110.831 103.254C115.719 97.2025 117.602 87.3769 119.569 83.3311C121.536 79.2852 133.421 71.5356 133.612 67.5724C133.803 63.6091 132.575 61.0141 129.094 61.1438C125.613 61.2736 93.7602 66.6641 93.7602 66.6641Z" fill="#C44918"/>
<path fill-rule="evenodd" clip-rule="evenodd" d="M42.4889 40.95C50.1833 33.5436 59.1172 27.5133 68.8938 23.1271C73.1138 26.536 72.3867 38.8858 73.2926 42.8491C74.3298 47.4021 72.5297 52.4388 66.4619 57.0036C60.3942 61.5685 52.4548 65.8384 47.3884 58.1832C43.9671 52.9696 42.8346 45.4205 42.4531 40.9264L42.4889 40.95Z" fill="#C44918"/>
<path fill-rule="evenodd" clip-rule="evenodd" d="M34.1914 164.956C26.0973 154.827 20.2448 143.129 17.0133 130.619C16.5837 128.923 16.5922 127.147 17.038 125.454C17.4838 123.762 18.3526 122.208 19.5644 120.935C23.8798 116.288 27.9091 117.774 34.9663 119.248C42.0235 120.723 48.1986 122.858 50.4635 132.223C52.7285 141.589 51.0715 145.352 47.6264 149.822C44.1812 154.293 39.6155 155.826 34.704 164.319C34.5648 164.566 34.4011 164.799 34.2153 165.015L34.1914 164.956Z" fill="#C44918"/>
<path fill-rule="evenodd" clip-rule="evenodd" d="M197.413 85.8081C198.855 91.7981 199.697 97.9141 199.928 104.067C200.395 116.391 198.368 128.683 193.967 140.221C191.357 139.041 188.007 132.896 183.239 128.567C176.277 122.244 176.324 122.48 177.421 116.252C178.518 110.024 178.53 89.2878 185.658 86.4097C189.437 84.8881 194.003 85.2301 197.424 85.8081H197.413Z" fill="#E6AC37"/>
<path fill-rule="evenodd" clip-rule="evenodd" d="M183.991 129.322L183.18 128.567C176.218 122.244 176.266 122.48 177.363 116.252C178.459 110.024 178.471 89.2878 185.6 86.4097C188.192 85.476 190.959 85.1176 193.706 85.3599C193.527 86.2681 193.313 87.5067 193.062 89.1816C191.763 97.7216 187.281 109.741 188.83 112.773C190.189 115.415 187.388 124.202 183.991 129.369V129.322Z" fill="#BF8B24"/>
<path fill-rule="evenodd" clip-rule="evenodd" d="M110.485 199.941C95.738 200.501 81.0702 197.552 67.7129 191.342C68.5354 189.596 71.0269 187.509 76.9874 185.291C92.4846 179.499 91.5667 177.978 101.282 166.112C110.998 154.245 127.091 151.179 146.308 151.709C165.524 152.24 165.703 147.227 179.555 144.243C185.242 143.004 146.391 198.573 110.485 199.941Z" fill="#522C0B"/>
<path fill-rule="evenodd" clip-rule="evenodd" d="M126.078 16.9227C136.507 19.0889 146.478 23.0279 155.547 28.5648C157.184 29.7443 158.901 30.971 160.697 32.245C162.39 33.4245 163.927 34.4979 165.334 35.4297C170.746 39.7641 175.648 44.6861 179.949 50.1033C181.305 51.8539 182.217 53.9006 182.609 56.072C183.001 58.2433 182.862 60.476 182.202 62.5829C180.748 67.6078 176.242 73.2578 170.532 80.4176C164.821 87.5775 160.291 73.7886 150.087 68.0442C139.883 62.2998 124.576 70.7925 119.844 70.4033C115.111 70.014 109.961 70.7336 105.765 67.5842C101.569 64.4348 99.8998 58.9499 99.8045 52.1557C99.7091 45.3615 103.56 47.3432 106.587 43.7573C109.615 40.1715 109.127 34.1087 116.851 24.8846C119.49 21.7582 122.593 19.0459 126.054 16.8401L126.078 16.9227Z" fill="#522C0B"/>
<path fill-rule="evenodd" clip-rule="evenodd" d="M132.861 18.6212L134.541 19.1284C134.208 19.5766 134.065 19.7654 133.349 19.4823C133.259 19.4592 133.174 19.4183 133.1 19.3621C133.027 19.3058 132.965 19.2353 132.919 19.1549C132.874 19.0745 132.845 18.9857 132.835 18.894C132.825 18.8023 132.833 18.7095 132.861 18.6212ZM147.833 24.3774C148.823 24.8492 149.8 25.3446 150.754 25.8636L149.478 26.9606C146.427 29.5792 148.358 26.9606 147.368 26.9606C146.379 26.9606 146.403 27.916 145.27 29.3197C144.138 30.7234 142.028 28.9187 140.037 27.8453C138.046 26.7719 141.372 30.4049 142.779 32.1978C144.185 33.9907 142.469 33.2122 141.038 31.5726C140.01 30.1934 138.615 29.1235 137.009 28.4822C135.817 28.1637 135.733 30.4402 134.136 29.6617C132.908 29.4178 131.647 29.378 130.405 29.5438C128.906 29.6331 127.413 29.8064 125.934 30.0628C124.552 30.2162 127.806 32.1152 127.687 33.342C127.568 34.5687 125.112 31.1244 124.564 30.9829C124.015 30.8413 124.158 31.6316 124.826 32.9291C125.731 34.2337 126.783 35.4327 127.961 36.5031C127.782 37.6827 122.775 32.3393 121.559 32.8465C120.344 33.3537 124.325 36.916 125.47 38.9684C126.614 41.0208 122.084 36.916 121.452 36.279C120.82 35.6421 122.001 34.4979 119.259 33.5897C116.517 32.6814 119.652 31.9619 119.461 30.3459C119.271 28.7299 121.524 30.7941 122.012 30.169C122.501 29.5438 122.322 28.7535 123.276 29.1899C124.23 29.6264 125.028 28.4232 125.028 28.4232C125.028 28.4232 125.565 28.034 128.009 28.6592C130.452 29.2843 133.23 28.1991 133.29 27.4796C133.349 26.7601 131.275 26.9842 130.274 27.7037C129.272 28.4233 127.889 27.2673 127.889 27.2673C127.889 27.2673 126.423 25.8046 124.313 23.7286C122.203 21.6526 124.802 21.9947 124.802 21.9947C126.002 22.9567 126.978 24.1638 127.663 25.5333C128.223 27.1965 131.68 25.9934 132.574 24.9672C133.468 23.941 133.659 24.0235 134.291 26.878C134.923 29.7325 139.155 26.359 140.18 26.5832C141.205 26.8073 140.454 24.2241 143.458 26.8073C146.462 29.3905 144.734 26.3708 146.164 25.3682C146.7 24.9983 147.258 24.6596 147.833 24.3538V24.3774ZM126.304 42.5188C130.381 42.6368 129.32 43.0024 132.264 40.8911C135.209 38.7797 136.818 41.0916 139.059 40.3956C141.301 39.6997 141.014 40.8203 143.196 38.6499C145.378 36.4796 143.482 35.9959 147.714 34.8518C151.946 33.7076 155.641 34.7692 154.771 33.6722C153.901 32.5753 152.709 32.9291 150.539 32.6814C145.938 33.3537 143.124 38.237 139.882 38.5791C136.639 38.9212 133.314 37.5883 131.203 39.1335C129.093 40.6787 129.415 42.0116 128.068 41.6813C126.721 41.3511 121.607 42.1178 126.28 42.5306L126.304 42.5188Z" fill="#452508"/>
<path fill-rule="evenodd" clip-rule="evenodd" d="M24.7509 85.4779C21.0642 91.1532 18.8264 97.6299 18.2301 104.351C17.3838 115.179 21.0077 118.635 20.6143 122.869C20.2209 127.104 16.3466 128.366 20.0541 132.577C23.7615 136.788 27.9577 139.1 32.7856 138.298C37.6136 137.496 41.1303 133.651 44.8496 130.784C48.569 127.918 55.5785 112.525 66.3074 109.399C77.0362 106.273 87.7651 111.912 88.2777 103.666C88.7903 95.4215 89.0526 88.9339 87.4313 84.8527C85.8101 80.7715 86.8472 71.6654 80.5291 72.6444C74.211 73.6234 73.6864 76.4897 54.9944 80.0402C36.3023 83.5906 24.7628 85.5015 24.7628 85.5015L24.7509 85.4779Z" fill="#522C0B"/>
<path fill-rule="evenodd" clip-rule="evenodd" d="M52.6337 111.994C52.9198 110.095 53.7185 108.455 54.7437 108.904C55.7689 109.352 52.7052 113.999 50.631 116.406C48.5568 118.812 47.2335 119.767 45.8626 119.814C44.4917 119.862 42.2029 119.814 42.7155 118.375C43.2281 116.936 43.5738 118.234 46.1368 117.467C48.6998 116.7 52.6933 111.994 52.6933 111.994H52.6337ZM20.8525 106.332C23.5347 102.9 22.5452 103.49 26.1096 102.687C29.674 101.885 29.0541 98.7949 31.0925 97.4974C33.131 96.1999 32.0939 95.563 35.1814 95.4568C38.269 95.3506 37.3391 97.2615 41.0465 94.6783C44.754 92.0951 46.4825 88.238 46.6852 89.795C46.8878 91.352 45.8388 92.0479 44.5513 94.0296C40.975 97.2851 35.4199 95.8107 32.9999 98.2405C30.5799 100.67 29.2686 104.398 26.7056 104.929C24.1426 105.459 23.3678 104.162 22.7002 105.53C22.0326 106.898 17.9318 110.484 20.8525 106.332ZM26.4434 109.623C26.4299 111.425 26.6016 113.223 26.956 114.99C27.4567 116.535 27.9931 117.349 28.2315 116.712C28.4699 116.075 27.5878 111.44 28.5653 112.289C29.5428 113.138 28.756 117.278 29.7574 116.252C30.9572 115.23 32.0994 114.143 33.1787 112.997C34.1332 112.071 34.9374 111.004 35.5629 109.835C36.0636 107.925 37.7802 109.647 38.3763 108.396C38.9978 106.563 39.1494 104.605 38.8173 102.699C38.5789 100.258 39.1511 98.2405 39.5326 100.788C39.9141 103.336 40.3432 108.88 40.8916 106.415C41.4399 103.95 41.5472 100.824 43.3473 100.977C45.1474 101.13 45.8269 101.885 46.5183 101.083C47.2097 100.281 43.9553 99.8447 47.9607 99.3611C51.9662 98.8775 51.9065 99.1016 52.6099 96.6246C53.3132 94.1475 52.8006 92.272 53.7424 94.2655C54.6841 96.2589 55.8882 97.8631 57.0922 95.3743C58.2962 92.8854 60.3347 88.0139 59.8101 91.3756C59.2856 94.7373 55.0418 98.7831 54.4576 98.2523C53.8735 97.7216 53.1702 98.2523 52.5145 99.9981C51.8589 101.744 48.6044 102.923 46.8878 103.313C45.1712 103.702 44.0983 99.9745 43.9791 104.433C43.8599 108.892 42.4651 106.261 41.9287 107.288C41.3923 108.314 36.0398 109.175 37.7206 111.9C39.4015 114.624 39.3419 114.837 37.9709 114.778C36.6 114.719 33.3695 116.618 34.2278 118.375C34.7788 120.016 35.0133 121.745 34.9192 123.471C34.9192 123.471 33.3575 125.83 33.2979 122.527C33.2383 119.225 33.1668 116.854 33.1668 116.854C33.1668 116.854 33.1668 114.849 34.4423 114.577C35.7179 114.306 37.2557 112.808 36.6596 112.218C36.0636 111.628 33.3814 113.126 32.1774 115.615C30.9733 118.104 30.3415 118.246 30.3415 118.246C30.3415 118.246 28.8872 117.963 28.5772 119.095C28.2673 120.227 27.8024 119.449 27.0037 119.366C26.205 119.284 26.193 122.74 25.1321 121.336C24.0711 119.932 21.4247 121.914 22.6048 118.977C23.785 116.04 22.1399 116.099 22.1041 115.096C22.0684 114.094 22.1041 107.193 22.8313 109.729C23.5585 112.265 23.5108 118.269 24.7148 117.679C25.9189 117.09 25.3943 108.856 26.348 109.6L26.4434 109.623Z" fill="#452508"/>
<path fill-rule="evenodd" clip-rule="evenodd" d="M16.752 85.3953C19.0248 76.166 22.7284 67.3407 27.7312 59.233C30.1343 57.672 32.8512 56.6457 35.6944 56.2252C41.5475 55.7534 51.7996 58.4427 55.4951 58.714C59.1906 58.9853 64.6027 58.8792 65.1034 62.3352C65.604 65.7913 66.2955 78.5422 61.4555 81.5736C56.6156 84.6051 47.7107 80.7126 37.8521 83.8148C29.7577 86.3508 20.3282 86.3508 16.752 85.3953Z" fill="#F7C35B"/>
<path fill-rule="evenodd" clip-rule="evenodd" d="M16.752 85.3953C17.5944 81.961 18.6372 78.5779 19.8752 75.263C22.8363 73.6306 26.2072 72.8694 29.5908 73.0691C39.4614 73.5763 36.2666 74.9328 45.5053 75.2159C54.7441 75.4989 61.0026 77.2447 61.0979 76.8672C61.1933 76.4898 62.6953 72.7742 61.1814 70.8515C59.6674 68.9289 58.6541 61.5803 59.9893 59.4807C60.1323 59.233 60.4542 59.1504 60.8833 59.1976L61.5628 59.3391C62.4324 59.6208 63.2711 59.9883 64.0662 60.4361C64.6573 60.9091 65.0416 61.5892 65.1391 62.3352C65.6398 65.7913 66.3312 78.5422 61.4913 81.5736C56.6514 84.605 47.7465 80.7125 37.8878 83.8147C29.7935 86.3507 20.364 86.3507 16.7877 85.3953H16.752Z" fill="#E6AC37"/>
<path fill-rule="evenodd" clip-rule="evenodd" d="M171.353 174.274C162.093 183.129 151.07 189.978 138.988 194.385C126.924 197.806 121.047 185.633 122.298 178.155C123.55 170.676 127.257 140.409 127.257 140.409C127.257 140.409 129.201 135.691 142.361 137.496C155.522 139.301 165.5 139.501 167.801 147.605C169.906 156.363 171.104 165.311 171.377 174.309L171.353 174.274Z" fill="#E6551C"/>
<path fill-rule="evenodd" clip-rule="evenodd" d="M171.353 174.274C162.093 183.129 151.07 189.978 138.988 194.385C126.924 197.806 121.047 185.633 122.298 178.155C123.55 170.677 127.257 140.409 127.257 140.409C127.257 140.409 128.45 137.461 135.602 137.13C132.169 148.419 127.877 168.506 135.304 172.753C142.457 176.846 160.338 172.092 171.198 169.898C171.305 171.467 171.365 172.953 171.377 174.31L171.353 174.274Z" fill="#C44918"/>
<path fill-rule="evenodd" clip-rule="evenodd" d="M89.0756 71.9249L92.1273 76.6431C92.1273 76.6431 74.4128 79.8986 64.1488 92.1895C53.8849 104.48 52.9908 120.77 52.9908 120.77L48.5801 116.217C48.5801 116.217 49.3549 93.6049 63.9343 83.2721C78.5136 72.9393 89.0756 71.9131 89.0756 71.9131V71.9249Z" fill="#EDD4A1"/>
<path fill-rule="evenodd" clip-rule="evenodd" d="M114.146 32.0445C113.728 30.8649 124.708 27.6801 105.646 24.6605C86.5844 21.6409 76.8927 26.2175 72.0766 30.7352C67.2605 35.2528 69.6924 30.9475 63.9107 42.4599C58.1291 53.9722 58.6298 64.4938 59.9887 67.537C61.3477 70.5802 70.7176 65.7795 80.8862 69.4951C91.0548 73.2106 104.37 74.2132 106.385 71.1582C108.4 68.1032 109.032 68.5868 110.426 59.1033C111.821 49.6197 118.306 39.8295 114.146 32.0445Z" fill="#784212"/>
<path fill-rule="evenodd" clip-rule="evenodd" d="M169.148 167.905C169.41 168.27 170.912 168.376 169.053 170.264C167.193 172.151 160.768 174.015 149.753 174.545C138.738 175.076 134.995 174.852 133.063 172.009C131.132 169.167 130.763 164.024 131.871 164.932C132.98 165.84 132.014 170.393 137.295 171.502C142.576 172.611 152.793 172.41 160.148 170.653C167.503 168.895 167.3 167.716 169.148 167.905Z" fill="#F77745"/>
<path fill-rule="evenodd" clip-rule="evenodd" d="M91.0058 98.8776C91.0058 98.8776 99.2075 104.528 110.771 127.187C122.334 149.846 128.128 151.108 121.13 164.272C114.133 177.435 110.401 171.856 99.6724 172.257C88.9435 172.658 77.2014 178.296 61.6088 174.616C46.0161 170.936 40.7113 169.438 40.3656 160.025C40.0199 150.612 47.089 153.314 43.5127 137.614C39.9365 121.914 38.0649 118.458 45.0386 111.746C52.0124 105.035 65.3996 89.1581 90.9462 98.8894L91.0058 98.8776Z" fill="#784212"/>
<path fill-rule="evenodd" clip-rule="evenodd" d="M114.335 172.387C113.636 172.717 112.887 172.932 112.118 173.024C112.261 172.316 112.929 171.49 112.619 171.042C112.13 170.323 111.558 170.028 108.816 170.252C106.074 170.476 102.105 170.688 100.638 169.756C99.172 168.825 98.5283 170.146 97.1693 170.5C95.8103 170.853 89.1584 171.172 86.2377 171.526C83.3171 171.88 84.3423 172.646 80.2773 174.097C76.2122 175.548 71.6226 174.604 70.3233 174.652C69.0239 174.699 67.9391 173.189 66.4966 172.446C65.0542 171.703 62.3243 172.599 60.6792 172.163C59.0341 171.726 58.7123 169.568 56.0181 169.037C54.2866 168.74 52.5164 168.74 50.7848 169.037C49.4735 169.037 50.3557 167.622 47.9476 166.595C45.5396 165.569 43.5011 166.076 43.0123 164.673C42.186 162.005 42.186 159.154 43.0123 156.487C44.1329 153.031 46.5052 152.877 46.5052 152.877C46.5052 152.877 44.8005 155.673 44.3356 156.616C43.8707 157.56 44.0852 159.978 44.1925 162.833C44.2998 165.687 47.7688 164.932 48.2576 164.909C48.7463 164.885 48.4364 164.72 48.1622 162.243C47.9579 160.879 48.187 159.486 48.8179 158.256C48.8179 158.256 49.3424 162.207 49.3901 165.062C49.4377 167.916 51.8935 167.138 52.8948 167.279C53.8962 167.421 57.0314 167.751 57.6632 167.975C58.295 168.199 60.5004 170.476 61.5733 170.688C62.6462 170.901 64.9469 170.936 66.139 171.137C67.3311 171.337 68.7855 171.844 69.1908 172.764C69.5961 173.684 72.9697 173.743 74.4718 173.873C75.9738 174.003 82.5542 171.585 82.5542 171.585C81.5202 171.069 80.3737 170.814 79.2163 170.842C76.7248 170.688 76.4387 169.768 73.4466 169.933C70.4544 170.099 70.2398 169.12 70.2398 169.12L73.1485 168.648C73.7073 168.778 74.2722 168.88 74.8413 168.954C75.4135 168.954 79.109 169.414 79.9196 169.568C80.7303 169.721 82.4826 169.721 84.7476 170.134C87.0126 170.547 88.3239 169.886 90.7796 169.922C92.2213 169.945 93.661 169.806 95.0712 169.509C95.0712 169.509 99.1481 168.553 99.7084 168.471C100.673 168.413 101.634 168.634 102.474 169.108C103.809 169.745 107.958 168.966 110.819 168.742C113.68 168.518 113.608 165.097 113.608 165.097C113.608 165.097 114.002 163.977 113.298 163.434C112.595 162.892 113.549 161.075 113.549 161.075C114.078 161.819 114.481 162.644 114.741 163.517C115.17 164.979 114.192 167.162 114.467 166.961C114.741 166.76 118.687 163.328 118.937 160.745C119.187 158.162 116.29 158.386 116.553 157.206C116.815 156.027 118.377 155.956 118.377 155.956C118.149 156.313 117.942 156.683 117.757 157.065C117.673 157.324 120.046 159.931 120.057 160.308C120.035 161.391 119.887 162.467 119.616 163.517C119.306 164.425 119.104 164.696 117.232 166.737C115.361 168.777 116.04 168.082 114.848 168.494C113.656 168.907 113.656 170.099 113.787 170.96C113.913 171.447 114.114 171.913 114.383 172.34L114.335 172.387Z" fill="#66380F"/>
<path fill-rule="evenodd" clip-rule="evenodd" d="M70.7417 96.1527L71.2663 96.0819C71.4744 96.2944 71.7461 96.435 72.0411 96.483C72.518 96.5656 72.8637 96.2943 73.2332 95.8814C73.9723 95.8343 74.7233 95.8107 75.4863 95.8107C74.4134 96.2471 73.7339 96.8487 73.9008 97.6626C74.5088 100.611 75.9393 99.0662 75.3313 102.687C74.5841 105.48 74.7809 108.438 75.8916 111.109C77.1672 115.037 79.2414 117.432 80.1593 121.867C81.0772 126.302 79.0983 130.218 81.4587 133.108C83.819 135.998 84.9038 135.467 86.9304 139.607C88.957 143.747 90.3517 144.196 92.0922 147.487C93.465 149.667 95.49 151.369 97.8858 152.358C97.8858 152.358 96.5625 153.715 94.1426 152.252C91.7226 150.789 91.0908 150.872 90.5663 149.091C90.0418 147.31 89.8868 145.764 87.9437 144.101C86.0006 142.438 84.9873 141.424 79.4679 143.913C73.9485 146.401 72.3153 146.048 70.2768 146.555C68.2383 147.062 67.8926 145.835 67.8926 145.835C67.8926 145.835 68.4052 146.13 70.9921 145.281C73.5789 144.432 76.44 144.337 78.0731 143.04C79.7063 141.742 79.2652 141.011 81.0534 140.881C82.8415 140.751 83.974 140.881 83.9621 140.339C83.4432 139.258 82.7991 138.241 82.0428 137.307C82.0428 137.307 79.8136 136.128 78.6334 136.446C77.4532 136.764 78.2162 136.953 74.8426 136.765C72.9931 136.717 71.1821 136.232 69.5616 135.349C69.5616 135.349 70.1457 134.394 72.8518 134.983C74.602 135.453 76.4257 135.593 78.2281 135.396C79.4202 135.231 80.4573 135.007 80.4573 135.007C79.4651 134.016 78.8251 132.733 78.6334 131.35C78.1685 128.826 78.7049 124.71 78.55 122.362C78.395 120.015 77.0837 118.257 76.7976 117.09C76.5115 115.922 74.4134 114.506 74.4134 113.209C74.4134 111.911 72.9471 112.147 71.4451 112.195C69.2748 112.345 67.119 112.657 64.9958 113.126C64.1971 113.398 59.4884 115.934 59.4884 115.934C59.0831 117.382 58.5975 118.808 58.034 120.204C57.2967 121.774 56.3893 123.262 55.3279 124.639C56.3569 122.724 57.157 120.697 57.7121 118.6C58.0102 116.795 58.2128 115.485 58.2128 115.485C58.2128 115.485 55.4591 116.818 54.7557 116.476C54.0524 116.134 54.2789 113.516 54.2789 113.516C54.2789 113.516 54.3504 115.379 55.2803 115.273C56.4523 114.947 57.5838 114.492 58.6539 113.917C58.6539 113.917 59.7625 115.096 60.3467 114.223C60.9308 113.351 64.0064 111.864 65.6753 111.546C67.0772 111.202 68.5115 111.004 69.955 110.956C72.0054 110.814 73.4716 111.499 73.6266 110.697C73.9433 109.467 73.8726 108.17 73.424 106.981C72.8843 105.454 72.8843 103.79 73.424 102.263C73.8174 101.26 74.0439 100.505 74.0439 100.505L71.7789 98.3585C71.7789 98.3585 71.6239 99.0426 71.1351 97.7569C70.9431 97.2169 70.8033 96.66 70.7179 96.0937L70.7417 96.1527Z" fill="#66380F"/>
<path fill-rule="evenodd" clip-rule="evenodd" d="M50.5477 159.754C50.5477 159.754 50.5477 167.822 69.9192 167.728C89.2908 167.633 116.733 165.876 110.725 162.007C104.716 158.138 85.0588 155.873 73.8293 155.425C62.5998 154.977 46.4111 154.08 50.5477 159.754Z" fill="#BF9A76"/>
<path fill-rule="evenodd" clip-rule="evenodd" d="M55.4939 158.704C59.0702 158.197 73.1131 156.439 81.8154 159.093C90.5177 161.747 102.653 159.565 100.746 161.877C98.8385 164.189 89.874 161.287 85.5705 162.809C81.267 164.331 66.497 165.369 60.6438 163.234C54.7906 161.099 53.6343 159.023 55.4939 158.704Z" fill="#66380F"/>
<path fill-rule="evenodd" clip-rule="evenodd" d="M86.2389 144.231C86.2389 144.231 86.5847 144.833 87.7172 146.968C88.8496 149.103 91.5557 149.551 88.3966 150.046C85.2376 150.542 80.3858 149.162 76.1061 149.94C71.8265 150.719 67.5946 152.299 63.8395 152.134C60.0844 151.969 57.116 149.032 54.6365 149.244C52.1569 149.456 53.6113 146.885 57.1399 148.065C60.6685 149.244 62.85 150.53 65.6991 150.046C68.5482 149.563 85.1899 142.485 86.2389 144.266V144.231Z" fill="#995B25"/>
<path fill-rule="evenodd" clip-rule="evenodd" d="M92.3662 116.087C92.3662 116.087 94.3332 128.673 96.9439 131.669C99.2045 134.374 101.999 136.593 105.157 138.192C108.603 140.055 113.609 143.96 112.644 144.868C111.678 145.776 110.26 149.421 104.299 143.688C98.3386 137.956 96.5267 139.253 93.7014 133.898C90.8761 128.543 92.402 129.109 91.5675 123.565C90.7331 118.022 91.0311 115.639 89.2787 112.348C87.5263 109.057 91.8775 111.64 92.4139 116.087H92.3662Z" fill="#995B25"/>
<path fill-rule="evenodd" clip-rule="evenodd" d="M51.5135 127.269C51.5135 127.269 52.2407 129.97 58.2011 129.51C64.1616 129.05 69.5141 128.59 69.5141 128.59C69.5141 128.59 68.322 130.749 63.7563 131.291C59.1906 131.834 55.9838 130.336 55.3043 132.094C54.6248 133.851 51.3585 133.356 52.5864 135.915C53.8142 138.475 62.2185 140.28 60.5138 141.211C58.8091 142.143 53.5758 139.112 51.2035 139.065C48.8313 139.017 47.9849 143.04 47.2696 140.586C46.5544 138.133 46.2921 137.885 48.6524 134.323C51.0128 130.761 48.414 124.403 51.5135 127.246V127.269Z" fill="#995B25"/>
<path fill-rule="evenodd" clip-rule="evenodd" d="M114.849 75.2394C114.849 75.2394 122.61 69.0114 147.703 64.3522C172.797 59.693 175.67 54.5265 186.387 64.9066C197.104 75.2866 190.702 77.2564 188.068 87.5892C185.433 97.9221 187.555 110.744 179.652 124.603C171.748 138.463 168.803 143.134 159.624 140.775C150.445 138.416 155.059 132.459 138.858 131.445C122.657 130.43 118.855 131.256 114.349 122.693C109.842 114.129 98.3029 96.8959 114.885 75.2394H114.849Z" fill="#784212"/>
<path fill-rule="evenodd" clip-rule="evenodd" d="M192.334 73.7179C192.459 74.4756 192.459 75.2485 192.334 76.0062C191.69 75.6759 191.142 74.8266 190.57 74.98C189.735 75.2395 189.294 75.7113 188.746 78.3771C188.197 81.0428 187.268 84.9117 185.944 86.0559C184.621 87.2001 185.73 88.1791 185.694 89.5945C185.658 91.01 184.085 97.4385 183.596 100.328C183.107 103.218 184.156 102.452 184.407 106.733C184.657 111.015 182.463 115.132 182.142 116.394C181.82 117.656 180.067 118.234 178.923 119.425C177.779 120.617 177.898 123.448 177.016 124.887C176.133 126.326 173.964 126.066 172.7 128.425C171.928 130.002 171.432 131.697 171.234 133.438C170.912 134.7 169.744 133.438 168.075 135.455C166.406 137.472 166.322 139.548 164.832 139.619C162.02 139.646 159.267 138.823 156.941 137.26C153.925 135.219 154.437 132.919 154.437 132.919C154.437 132.919 156.655 135.337 157.441 136.045C158.228 136.753 160.612 137.225 163.402 137.932C166.191 138.64 166.442 135.054 166.549 134.63C166.656 134.205 166.418 134.405 163.95 133.981C162.577 133.782 161.299 133.168 160.29 132.223C160.29 132.223 164.248 132.837 167.014 133.592C169.78 134.347 169.72 131.787 170.149 130.867C170.578 129.947 171.758 127.057 172.176 126.455C172.593 125.854 175.382 124.45 175.883 123.495C176.384 122.539 177.075 120.334 177.612 119.26C178.148 118.187 179.042 116.901 179.996 116.807C180.949 116.712 182.01 113.469 182.559 112.088C183.107 110.708 182.63 103.726 182.63 103.726C181.836 104.564 181.267 105.586 180.973 106.698C180.115 109.057 179.149 109.057 178.47 111.947C177.79 114.837 176.837 114.825 176.837 114.825L177.194 111.912C177.194 111.912 177.767 110.897 177.969 110.378C178.172 109.859 179.614 106.438 179.996 105.66C180.377 104.881 180.866 103.301 181.903 101.213C182.94 99.1253 182.654 97.757 183.381 95.3861C183.818 94.0183 184.094 92.6054 184.204 91.1752C184.204 91.1752 184.43 87.0114 184.502 86.457C184.721 85.5183 185.21 84.6622 185.909 83.9917C186.886 82.9065 187.315 78.7191 187.899 75.9236C188.484 73.1281 185.17 72.2316 185.17 72.2316C185.17 72.2316 184.192 71.5357 183.489 72.0665C182.785 72.5973 181.271 71.1583 181.271 71.1583C182.136 70.8731 183.042 70.7335 183.954 70.7454C185.491 70.7454 187.315 72.2906 187.196 71.9839C187.077 71.6772 184.895 66.9237 182.428 65.9565C179.96 64.9892 179.436 67.8201 178.351 67.2893C177.266 66.7586 177.659 65.2015 177.659 65.2015C177.943 65.5182 178.245 65.8176 178.565 66.098C178.78 66.2513 181.963 64.7179 182.332 64.8123C183.368 65.1424 184.364 65.5855 185.301 66.1334C186.087 66.6878 186.338 66.9709 187.685 69.3417C189.032 71.7126 188.639 70.8633 188.71 72.1255C188.782 73.3876 189.902 73.6825 190.784 73.8358C191.291 73.8543 191.798 73.7946 192.286 73.6589L192.334 73.7179Z" fill="#66380F"/>
<path fill-rule="evenodd" clip-rule="evenodd" d="M106.504 93.8173L106.575 93.2865C106.755 93.2104 106.913 93.0918 107.035 92.9412C107.158 92.7905 107.241 92.6124 107.277 92.4225C107.314 92.2326 107.303 92.0367 107.245 91.8521C107.187 91.6675 107.084 91.4998 106.945 91.3638C107.1 90.6443 107.291 89.913 107.505 89.1817C107.624 90.3612 108.018 91.1633 108.84 91.2341C111.856 91.4818 110.784 89.6771 114.098 91.2341C116.575 92.733 119.484 93.3761 122.371 93.0624C126.519 92.9562 129.416 91.647 133.946 92.0244C138.476 92.4019 141.706 95.3861 145.152 93.9588C148.597 92.5316 148.394 91.3167 152.972 90.55C157.549 89.7833 158.348 88.5919 162.008 87.8488C164.502 87.1483 166.714 85.6972 168.338 83.6968C168.338 83.6968 169.28 85.3363 167.146 87.2354C165.012 89.1345 164.964 89.7597 163.105 89.7361C161.245 89.7125 159.707 89.453 157.549 90.8212C155.392 92.1895 154.128 92.9091 154.986 98.8776C155.845 104.846 154.986 106.309 154.986 108.396C154.986 110.484 153.639 110.425 153.639 110.425C153.639 110.425 154.057 110.012 153.973 107.311C153.89 104.61 154.605 101.838 153.806 99.9155C153.008 97.9929 152.185 98.217 152.614 96.4595C153.043 94.702 153.449 93.664 152.912 93.5342C151.72 93.7209 150.555 94.0496 149.443 94.5132C149.443 94.5132 147.703 96.3062 147.655 97.5093C147.607 98.7124 148.025 98.0519 146.904 101.225C146.34 102.978 145.359 104.572 144.043 105.872C144.043 105.872 143.292 105.047 144.615 102.629C145.561 101.088 146.212 99.389 146.534 97.6154C146.701 96.4359 146.785 95.3743 146.785 95.3743C145.55 96.0361 144.133 96.2843 142.744 96.082C140.181 95.8225 136.366 94.1476 134.053 93.6286C131.741 93.1096 129.678 93.8763 128.474 93.8173C127.27 93.7583 125.327 95.3271 124.052 94.9968C122.776 94.6666 122.621 96.1056 122.252 97.5447C121.78 99.6576 121.469 101.803 121.322 103.961C121.322 104.811 122.514 110.012 122.514 110.012C123.799 110.811 125.037 111.681 126.221 112.619C127.528 113.765 128.707 115.046 129.738 116.441C128.188 114.914 126.459 113.575 124.588 112.454C122.931 111.652 121.727 111.098 121.727 111.098C121.727 111.098 122.24 114.105 121.727 114.636C121.214 115.167 118.735 114.271 118.735 114.271C118.735 114.271 120.547 114.719 120.714 113.811C120.725 112.598 120.601 111.387 120.344 110.201C120.344 110.201 121.81 109.482 121.119 108.668C120.428 107.854 119.927 104.528 120.046 102.829C120.109 101.392 120.32 99.9651 120.678 98.5709C121.119 96.5774 122.204 95.3743 121.465 95.0322C120.368 94.3806 119.093 94.0838 117.817 94.183C116.218 94.2718 114.636 93.8274 113.323 92.9208C112.464 92.2485 111.797 91.8239 111.797 91.8239L109.091 93.3809C109.091 93.3809 109.711 93.7347 108.328 93.8291C107.755 93.8579 107.18 93.8342 106.611 93.7583L106.504 93.8173Z" fill="#66380F"/>
<path fill-rule="evenodd" clip-rule="evenodd" d="M162.175 131.067C162.175 131.067 169.971 133.285 175.288 114.813C180.605 96.3415 186.684 69.5894 181.249 74.2368C175.813 78.8842 168.135 97.0139 164.559 107.618C160.983 118.222 155.547 133.356 162.175 131.067Z" fill="#BF9A76"/>
<path fill-rule="evenodd" clip-rule="evenodd" d="M162.533 126.042C163.058 122.504 165.311 108.585 170.33 101.024C175.348 93.4634 176.66 81.2551 178.34 83.7322C180.021 86.2092 174.705 93.9353 174.967 98.4765C175.229 103.018 172.058 117.444 168.351 122.398C164.643 127.352 162.319 127.906 162.533 126.042Z" fill="#66380F"/>
<path fill-rule="evenodd" clip-rule="evenodd" d="M157.24 92.6613L160.304 92.0244C162.688 91.5408 163.88 89.0873 163.463 92.2485C163.046 95.4096 160.352 99.6442 159.887 103.95C159.422 108.255 159.755 112.749 158.54 116.276C157.324 119.803 153.652 121.82 153.163 124.25C152.674 126.679 150.636 124.58 152.698 121.513C154.761 118.446 156.68 116.795 157.026 113.905C157.371 111.015 155.226 93.1685 157.228 92.6731L157.24 92.6613Z" fill="#995B25"/>
<path fill-rule="evenodd" clip-rule="evenodd" d="M131.847 78.8252C131.847 78.8252 144.531 80.5002 148.167 78.8252C151.417 77.4168 154.346 75.3703 156.774 72.8095C159.527 70.0494 164.713 66.3692 165.309 67.5488C165.905 68.7283 169.04 71.0874 161.804 75.2276C154.568 79.3678 155.379 81.4438 149.418 82.6234C143.458 83.8029 144.424 82.5172 138.845 81.7387C133.266 80.9602 131.048 80.0283 127.389 80.7715C123.729 81.5146 127.389 78.0939 131.871 78.8252H131.847Z" fill="#995B25"/>
<path fill-rule="evenodd" clip-rule="evenodd" d="M131.12 120.994C131.12 120.994 133.933 121.065 135.161 115.226C136.389 109.387 137.498 104.209 137.498 104.209C137.498 104.209 139.25 105.931 138.475 110.461C137.7 114.99 135.376 117.609 136.878 118.718C138.38 119.826 136.985 122.834 139.799 122.398C142.612 121.961 146.713 114.412 147.13 116.311C147.547 118.21 143.148 122.339 142.445 124.568C141.742 126.797 145.366 128.767 142.803 128.755C140.24 128.744 139.93 128.921 137.152 125.665C134.375 122.41 127.52 123.105 131.192 120.947L131.12 120.994Z" fill="#995B25"/>
<path fill-rule="evenodd" clip-rule="evenodd" d="M132.254 73.0454C133.088 72.4438 137.976 70.356 140.598 70.8397C143.221 71.3233 144.604 70.9694 145.367 69.9904C146.13 69.0114 145.152 69.3299 146.75 68.4216C148.347 67.5134 148.216 66.7467 150.791 66.6523C153.366 66.5579 153.902 68.2447 157.002 66.9944C160.101 65.744 160.304 65.8148 162.748 64.6942C164.748 63.9137 166.852 63.4212 168.994 63.2316C170.699 62.8777 174.013 62.1818 173.667 63.0546C173.321 63.9275 169.888 66.8056 172.475 69.6483C175.062 72.4911 176.6 75.3927 175.491 76.2892C174.382 77.1856 169.221 80.335 168.78 82.0336C168.338 83.7321 163.189 80.394 163.189 80.394C163.189 80.394 160.506 79.2144 158.945 80.9838L154.737 85.7963C154.737 85.7963 155.929 80.2407 157.931 79.2144C159.934 78.1882 160.447 77.7046 162.855 78.0349C165.263 78.3652 166.097 80.394 166.848 80.0755C168.406 79.125 169.84 77.988 171.116 76.6902C172.773 75.1096 174.216 75.3338 173.298 73.8475C172.38 72.3613 170.15 71.4059 170.103 70.3089C170.055 69.2119 169.841 65.6615 169.841 65.6615L164.869 65.4727C164.869 65.4727 160.649 67.7139 159.994 67.9262C159.338 68.1385 155.059 68.8698 155.059 68.8698L150.684 71.8895C149.658 72.5854 146.964 75.5225 149.17 72.2197C151.375 68.917 151.554 66.9236 150.028 68.1149C148.502 69.3063 147.763 70.3797 146.368 71.3823C144.973 72.3849 142.875 72.3613 141.6 72.4085L138.834 72.5146C137.867 72.3347 136.867 72.4713 135.985 72.9039C135.055 73.5998 133.756 74.7911 133.756 74.7911C132.442 75.0632 131.104 75.2055 129.762 75.2158C128.904 75.0625 127.688 73.3993 128.141 72.6208C128.504 71.8786 129.017 71.2182 129.649 70.6805C130.28 70.1428 131.017 69.7393 131.813 69.495C134.023 68.9312 136.282 68.5758 138.56 68.4334C138.56 68.4334 132.087 71.0756 131.145 71.9721C130.203 72.8685 132.17 73.0572 132.17 73.0572L132.254 73.0454Z" fill="#66380F"/>
<path fill-rule="evenodd" clip-rule="evenodd" d="M107.375 71.63C107.375 71.63 119.415 80.2407 140.825 75.723C162.235 71.2054 167.266 65.8148 167.421 66.5579C167.576 67.3011 170.091 68.0678 166.503 72.0429C162.915 76.0179 150.469 83.685 132.981 82.8357C115.493 81.9864 106.35 74.1424 106.35 74.1424L107.375 71.63Z" fill="#EDD4A1"/>
<path fill-rule="evenodd" clip-rule="evenodd" d="M76.2238 88.3442C78.9657 88.2499 119.056 103.395 136.007 103.266C152.959 103.136 156.607 103.737 155.081 105.625C153.555 107.512 154.771 110.85 136.866 108.904C118.96 106.957 97.3478 102.546 86.9885 98.7124C76.6291 94.8789 73.5059 91.6352 73.5059 91.6352L76.2477 88.3088L76.2238 88.3442Z" fill="#ED4605"/>
<path fill-rule="evenodd" clip-rule="evenodd" d="M84.307 73.7061C86.2501 74.8856 101.7 98.2878 121.548 110.036C141.396 121.784 146.022 120.959 145.39 122.339C144.758 123.719 143.435 126.632 142.434 126.396C129.62 121.922 117.712 115.228 107.267 106.627C96.8992 97.8322 87.9117 87.5599 80.5996 76.1477L84.2474 73.7061H84.307Z" fill="#FF4F0C"/>
<path fill-rule="evenodd" clip-rule="evenodd" d="M172.069 117.019C172.069 117.019 159.802 132.495 156.023 134.712C152.244 136.93 158.205 139.595 159.6 138.18C160.994 136.765 171.366 129.428 175.657 120.841C179.949 112.254 178.518 113.763 178.518 113.763L173.523 113.693L172.069 117.019Z" fill="#EDD4A1"/>
<path fill-rule="evenodd" clip-rule="evenodd" d="M56.6739 60.153C54.9811 60.153 43.2032 58.5959 39.3885 58.3011C35.5738 58.0062 29.4703 59.7283 29.4703 59.7283C29.4703 59.7283 24.8688 68.3272 25.0357 69.5657C25.2026 70.8043 28.2305 64.8476 30.9962 62.4885C33.7618 60.1294 46.4934 59.7401 52.4539 61.132C58.4144 62.5239 59.6065 60.436 56.662 60.1176L56.6739 60.153Z" fill="#FAD58C"/>
<path fill-rule="evenodd" clip-rule="evenodd" d="M112.739 188.299C113.049 187.237 113.931 186.329 114.896 186.541C115.862 186.754 112.775 189.42 110.665 190.8C109.264 191.907 107.572 192.595 105.789 192.781C104.346 192.781 102.117 192.852 102.666 192.026C103.214 191.201 103.524 191.932 106.099 191.46C108.674 190.988 112.739 188.299 112.739 188.299ZM81.0767 185.669C83.8066 183.699 82.8052 184.053 86.3815 183.545C89.9578 183.038 89.3975 181.328 91.4479 180.561C93.4983 179.794 92.485 179.476 95.5726 179.382C98.6601 179.287 97.6945 180.361 101.45 178.851C105.205 177.341 106.993 175.171 107.16 176.043C107.327 176.916 106.278 177.306 104.954 178.403C101.295 180.278 95.7991 179.582 93.3434 180.939C90.8876 182.295 89.5167 184.477 86.9418 184.772C84.3669 185.067 83.6158 184.406 82.9244 185.173C82.233 185.94 78.156 188.016 81.0767 185.657V185.669ZM86.608 187.402C86.5667 188.415 86.7121 189.426 87.0372 190.387C87.5021 191.248 88.0266 191.661 88.2293 191.33C88.4319 191 87.6809 188.405 88.6465 188.853C89.6121 189.302 88.7538 191.637 89.8386 191.047C91.0263 190.481 92.1841 189.855 93.3076 189.172C94.2314 188.707 95.0761 188.102 95.811 187.379C96.3474 186.306 98.0283 187.226 98.6482 186.53C98.9578 186.065 99.1647 185.542 99.2551 184.993C99.3455 184.444 99.3174 183.882 99.1727 183.345C98.982 181.988 99.5899 180.844 99.9237 182.26C100.257 183.675 100.603 186.766 101.199 185.374C101.795 183.982 101.938 182.248 103.738 182.307C105.538 182.366 106.206 182.767 106.897 182.307C107.589 181.847 104.358 181.658 108.376 181.328C112.393 180.998 112.322 181.115 113.061 179.724C113.8 178.332 113.335 177.294 114.253 178.379C115.171 179.464 116.339 180.349 117.579 178.945C118.818 177.541 120.952 174.781 120.368 176.669C119.784 178.556 115.504 180.88 114.908 180.585C114.312 180.29 113.621 180.585 112.941 181.587C112.262 182.59 108.972 183.286 107.255 183.545C105.538 183.805 104.537 181.717 104.334 184.206C104.132 186.695 102.797 185.256 102.236 185.834C101.676 186.412 96.2759 187.013 97.9568 188.476C99.6376 189.939 99.5303 190.092 98.1594 190.08C96.7885 190.068 93.5341 191.177 94.3566 192.144C94.8735 192.994 95.0876 193.991 94.9646 194.975C94.9646 194.975 93.3672 196.343 93.3672 194.48C93.3672 192.616 93.3672 191.319 93.3672 191.319C93.4075 190.988 93.5586 190.681 93.7963 190.446C94.034 190.21 94.3447 190.061 94.6785 190.021C95.8706 189.856 97.5157 188.995 96.9316 188.7C96.3474 188.405 93.6533 189.254 92.4016 190.67C91.1499 192.085 90.5181 192.168 90.5181 192.168C90.5181 192.168 89.0756 192.026 88.7419 192.663C88.4081 193.3 87.9551 192.876 87.1683 192.84C86.3815 192.805 86.31 194.739 85.2729 194.02C84.2357 193.3 81.4701 194.362 82.6622 192.675C83.8543 190.988 82.2449 191.071 82.2211 190.517C82.1973 189.962 82.3403 186.105 83.0436 187.509C83.747 188.912 83.5801 192.227 84.7841 191.908C85.9881 191.59 85.6066 186.978 86.5603 187.379L86.608 187.402Z" fill="#452508"/>
<path fill-rule="evenodd" clip-rule="evenodd" d="M149.897 55.2933C150.219 54.2317 151.089 53.3353 152.066 53.5476C153.044 53.7599 149.944 56.4139 147.834 57.7939C146.431 58.904 144.734 59.5918 142.947 59.7756C141.516 59.7756 139.287 59.8464 139.835 59.0207C140.384 58.195 140.694 58.9263 143.269 58.4545C145.844 57.9827 149.897 55.2933 149.897 55.2933ZM118.247 52.6629C120.977 50.6931 119.975 51.0469 123.551 50.5397C127.128 50.0325 126.556 48.3222 128.618 47.5673C130.68 46.8124 129.655 46.4703 132.742 46.3878C135.83 46.3052 134.864 47.3668 138.62 45.8569C142.375 44.3471 144.163 42.1886 144.33 43.0496C144.497 43.9107 143.448 44.3235 142.124 45.4087C138.465 47.2842 132.969 46.5882 130.501 47.9447C128.034 49.3012 126.687 51.4834 124.112 51.7783C121.537 52.0731 120.786 51.4126 120.094 52.1793C119.403 52.946 115.326 55.022 118.247 52.6629ZM123.778 54.3968C123.738 55.4121 123.879 56.4263 124.195 57.3929C124.672 58.2422 125.197 58.6668 125.387 58.3248C125.578 57.9827 124.839 55.3995 125.804 55.8477C126.77 56.2959 125.912 58.6314 126.997 58.0534C128.081 57.4755 129.381 56.8739 130.466 56.178C131.382 55.7026 132.222 55.0943 132.957 54.3733C133.494 53.2999 135.186 54.2317 135.806 53.524C136.116 53.0599 136.323 52.5361 136.413 51.9872C136.503 51.4383 136.475 50.8766 136.331 50.3392C136.14 48.9827 136.748 47.8386 137.082 49.254C137.415 50.6695 137.761 53.7599 138.357 52.368C138.953 50.9762 139.096 49.2423 140.896 49.3012C142.696 49.3602 143.352 49.7731 144.055 49.3012C144.759 48.8294 141.516 48.6407 145.534 48.3104C149.551 47.9801 149.48 48.0981 150.219 46.7062C150.958 45.3144 150.481 44.2881 151.411 45.3615C152.341 46.4349 153.497 47.3314 154.737 45.9277C155.976 44.5241 158.11 41.7639 157.526 43.6512C156.942 45.5385 152.65 47.8622 152.066 47.5791C151.482 47.296 150.779 47.5791 150.099 48.5817C149.42 49.5843 146.13 50.2802 144.413 50.5279C142.696 50.7756 141.683 48.6996 141.492 51.1885C141.302 53.6773 139.955 52.2383 139.394 52.8163C138.834 53.3942 133.434 53.9958 135.115 55.4585C136.796 56.9211 136.688 57.0744 135.317 57.0626C133.946 57.0508 130.68 58.1714 131.515 59.1268C132.031 59.9767 132.246 60.9734 132.123 61.9577C132.123 61.9577 130.513 63.326 130.525 61.4624C130.537 59.5987 130.525 58.3011 130.525 58.3011C130.565 57.9709 130.717 57.6635 130.954 57.4283C131.192 57.193 131.503 57.0435 131.836 57.0037C133.029 56.8385 134.674 55.9774 134.09 55.6825C133.505 55.3877 130.799 56.237 129.56 57.6524C128.32 59.0679 127.676 59.1504 127.676 59.1504C127.676 59.1504 126.234 59.0207 125.9 59.6458C125.566 60.271 125.113 59.8582 124.326 59.8346C123.539 59.811 123.456 61.7218 122.431 60.9551C121.406 60.1884 118.7 61.3444 119.939 59.6812C121.179 58.0181 119.51 58.0889 119.498 57.5227C119.486 56.9565 119.618 53.1229 120.321 54.5148C121.024 55.9067 120.857 59.233 122.061 58.9263C123.265 58.6196 122.884 53.9958 123.838 54.3851L123.778 54.3968Z" fill="#452508"/>
<path fill-rule="evenodd" clip-rule="evenodd" d="M79.6095 31.3956L81.2903 31.8911C80.9446 32.3393 80.8135 32.528 80.0982 32.2567C80.007 32.2352 79.9213 32.1952 79.8465 32.1393C79.7717 32.0834 79.7094 32.0129 79.6635 31.932C79.6176 31.8511 79.5891 31.7617 79.5798 31.6694C79.5705 31.5771 79.5806 31.4839 79.6095 31.3956ZM94.5822 37.14C95.5597 37.6237 96.5372 38.119 97.5028 38.6263L96.2154 39.735C93.1636 42.3536 95.1067 39.735 94.1054 39.735C93.104 39.735 93.1398 40.6905 92.0073 42.0941C90.8748 43.4978 88.7648 41.6931 86.774 40.6197C84.7832 39.5463 88.121 43.1793 89.5277 44.984C90.9344 46.7887 89.2058 45.9866 87.7753 44.3471C86.7536 42.9665 85.3621 41.896 83.758 41.2567C82.5659 40.9382 82.4824 43.2147 80.885 42.4362C79.6518 42.1984 78.3879 42.1585 77.1418 42.3182C75.6429 42.4126 74.1504 42.5898 72.6715 42.849C71.3006 42.9906 74.555 44.8896 74.4358 46.1164C74.3166 47.3431 71.8608 43.8988 71.3125 43.7573C70.7641 43.6157 70.8952 44.4178 71.5628 45.7035C72.4709 47.0202 73.5311 48.2276 74.7219 49.3012C74.555 50.4807 69.5363 45.1374 68.3203 45.6446C67.1044 46.1518 71.086 49.714 72.2304 51.7664C73.3748 53.8188 68.8448 49.714 68.2249 49.0888C67.6051 48.4637 68.7614 47.2959 66.0315 46.3995C63.3016 45.503 66.413 44.7599 66.2222 43.1439C66.0315 41.528 68.2965 43.5921 68.7852 42.967C69.274 42.3418 69.0833 41.5515 69.9773 41.9998C70.8714 42.448 71.7416 41.2213 71.7416 41.2213C71.7416 41.2213 72.2662 40.832 74.7219 41.4572C77.1776 42.0823 79.9433 40.9971 80.0029 40.2776C80.0625 39.5581 77.9763 39.7822 76.9749 40.5017C75.9736 41.2212 74.5907 40.0653 74.5907 40.0653C74.5907 40.0653 73.1245 38.6027 71.0144 36.5267C68.9044 34.4507 71.5032 34.781 71.5032 34.781C72.7013 35.7419 73.6735 36.9494 74.3523 38.3196C74.9126 39.9828 78.3697 38.7796 79.2638 37.7534C80.1578 36.7272 80.3605 36.8098 80.9804 39.6643C81.6003 42.5188 85.8441 39.1453 86.9409 39.3694C88.0376 39.5935 87.215 37.0103 90.2072 39.5935C93.1994 42.1767 91.4947 39.1571 92.9252 38.1544C93.4576 37.7793 94.0152 37.4404 94.5941 37.14H94.5822ZM73.041 55.2814C77.1299 55.4112 76.0689 55.7651 79.0015 53.6537C81.934 51.5423 83.5672 53.8542 85.8084 53.1583C88.0495 52.4623 87.7515 53.5829 89.9449 51.4125C92.1384 49.2422 90.231 48.7586 94.463 47.6262C98.6949 46.4938 102.39 47.5318 101.508 46.4466C100.626 45.3615 99.4579 45.7035 97.2763 45.4558C92.6748 46.1282 89.8615 51.0115 86.619 51.3536C83.3765 51.6956 80.0505 50.3627 77.9405 51.908C75.8305 53.4532 76.1643 54.786 74.8172 54.4558C73.4702 54.1255 68.3561 54.8922 73.0172 55.3051L73.041 55.2814Z" fill="#995B25"/>
<path fill-rule="evenodd" clip-rule="evenodd" d="M109.032 31.9854C109.032 31.9854 113.347 30.452 112.453 40.1715C111.559 49.8909 108.46 53.347 107.375 61.073C106.29 68.7991 101.951 72.8685 100.711 62.807C99.4714 52.7454 99.8887 47.4729 103.012 41.009C106.135 34.5451 109.032 31.9854 109.032 31.9854Z" fill="#BF9A76"/>
<path fill-rule="evenodd" clip-rule="evenodd" d="M109.973 37.1519C110.271 38.3904 111.856 40.8085 109.484 47.355C107.112 53.9014 107.1 66.2985 105.133 61.1557C103.166 56.0128 104.441 49.2776 106.039 45.1256C107.636 40.9736 108.804 35.6893 109.973 37.1519Z" fill="#522C0B"/>
<path fill-rule="evenodd" clip-rule="evenodd" d="M97.1453 62.2644C97.1453 62.2644 96.9069 62.6418 92.6392 61.8043C90.2214 61.2622 87.7152 61.2301 85.284 61.71C83.7593 62.0634 82.1695 62.035 80.6587 61.6274C78.8348 60.9551 78.191 60.4479 76.689 60.4479C75.187 60.4479 74.1975 60.5422 73.2677 60.5186C72.1405 60.2764 71.0531 59.8793 70.0371 59.3391C69.2924 59.0248 68.5713 58.6582 67.8794 58.2421C67.8794 58.2421 63.2302 55.6235 64.3031 54.0311C64.6109 53.5781 64.8012 53.057 64.8574 52.5139C64.9135 51.9709 64.8337 51.4225 64.625 50.9171L63.7309 48.6524C63.5879 48.2867 62.5388 48.5698 62.8368 49.8319C63.02 50.8514 63.08 51.8888 63.0156 52.9223L61.2871 55.0337C61.6409 55.057 61.9849 55.1579 62.2943 55.3294C62.6036 55.5008 62.8704 55.7382 63.0753 56.0246C63.5998 56.9328 62.5626 58.1242 64.6369 58.2775C66.7111 58.4308 66.9138 58.6196 66.9376 59.3627C66.9615 60.1058 64.3508 61.8751 63.7547 62.6418C63.1587 63.4085 62.3838 65.9209 62.6461 66.3456C62.9084 66.7702 63.5521 65.5671 64.0647 64.246C64.5773 62.9249 65.6979 62.9367 66.4489 61.8869C67.1999 60.8371 67.1403 63.5973 67.1522 64.0337C67.1641 64.4701 67.1522 64.5291 67.2714 65.5789C67.3906 66.6287 68.535 66.0861 68.4635 64.7296C68.392 63.3731 67.1045 61.7926 67.7006 61.0966C68.2966 60.4007 67.6052 60.0468 68.8212 60.8607C70.0371 61.6746 69.3457 61.7808 71.5987 61.9459C73.0717 62.0983 74.5525 62.1653 76.0333 62.1464C77.285 62.1464 79.1566 62.1464 80.1222 62.9957C81.0878 63.845 81.1474 65.3548 81.6958 66.723C82.2796 67.6984 83.16 68.4662 84.2111 68.917C83.4286 68.1466 82.8723 67.1804 82.6018 66.1215C82.4945 64.824 82.3514 64.2106 82.6972 63.7624C83.0429 63.3142 82.9236 63.0665 83.7343 63.1608C84.2943 63.2443 84.8619 63.268 85.4271 63.2316C86.2745 63.2132 87.1127 63.0537 87.9066 62.7598C88.9437 62.4177 91.912 63.4203 91.912 63.4203C91.912 63.4203 94.7373 62.0167 94.4155 63.5147C94.0936 65.0127 92.1743 66.1451 92.4247 67.0533C92.675 67.9616 91.9478 70.9104 93.2591 70.934C94.5704 70.9576 95.4883 70.592 94.332 69.5893C93.9907 69.2737 93.7256 68.8861 93.5564 68.4553C93.3871 68.0244 93.3181 67.5614 93.3545 67.1005L95.4049 65.1425C96.3506 65.721 97.2162 66.4189 97.9798 67.2185C99.0885 68.398 99.458 70.1437 100.662 70.474C101.866 70.8043 102.307 71.2171 103.535 70.6155C104.203 70.3277 104.754 69.8247 105.097 69.1883C104.246 69.4084 103.376 69.5428 102.498 69.5893C101.306 69.5893 99.2434 67.5487 98.5759 66.3928C97.9083 65.2368 95.5003 64.3286 95.8579 63.8803C96.2155 63.4321 99.3388 63.4439 97.1096 62.229L97.1453 62.2644Z" fill="#66380F"/>
<path fill-rule="evenodd" clip-rule="evenodd" d="M57.6288 102.593C59.8342 102.971 82.6628 119.449 105.372 123.448C128.082 127.446 132.159 125.028 132.111 126.526C132.063 128.024 131.813 131.244 130.8 131.362C117.227 131.698 103.703 129.633 90.8644 125.264C78.0482 120.698 65.9939 114.261 55.1016 106.167L57.6526 102.629L57.6288 102.593Z" fill="#FF4F0C"/>
<path fill-rule="evenodd" clip-rule="evenodd" d="M88.4087 74.6261C88.5518 74.0599 87.7531 73.3639 86.6206 73.0926C85.4881 72.8213 84.4748 73.0926 84.3318 73.6352C84.1887 74.1778 84.9874 74.8973 86.108 75.1686C87.2286 75.4399 88.2657 75.1686 88.4087 74.6261ZM120.166 86.5159C120.309 85.9497 119.511 85.2656 118.378 84.9825C117.246 84.6994 116.232 84.9825 116.089 85.525C115.946 86.0676 116.745 86.7871 117.865 87.0584C118.986 87.3297 120.023 87.0585 120.166 86.5159ZM132.862 105.625C133.279 106.037 134.293 105.707 135.103 104.893C135.914 104.079 136.236 103.077 135.818 102.652C135.401 102.227 134.388 102.569 133.577 103.383C132.767 104.197 132.385 105.212 132.862 105.625ZM108.412 112.702C108.829 113.115 109.831 112.784 110.653 111.97C111.476 111.157 111.845 110.142 111.368 109.729C110.892 109.316 109.938 109.647 109.127 110.461C108.317 111.275 107.935 112.277 108.412 112.702ZM101.987 124.143C102.166 124.698 101.426 125.441 100.33 125.807C99.233 126.172 98.1839 125.995 97.9455 125.429C97.7071 124.863 98.5058 124.132 99.6144 123.766C100.723 123.4 101.76 123.577 101.999 124.143H101.987ZM81.9953 127.128C82.3886 126.691 83.4138 126.939 84.2841 127.694C85.1543 128.449 85.5596 129.428 85.1662 129.876C84.7728 130.324 83.7476 130.065 82.8774 129.31C82.0072 128.555 81.6138 127.576 81.9953 127.128ZM91.9612 107.748C92.5334 107.866 92.8195 108.927 92.5811 110.001C92.3427 111.074 91.687 111.947 91.1029 111.829C90.5187 111.711 90.2446 110.649 90.483 109.564C90.7214 108.479 91.3771 107.618 91.9612 107.748ZM125.507 72.3613C125.65 71.7833 124.851 71.0992 123.731 70.8161C122.61 70.533 121.573 70.8161 121.43 71.3587C121.287 71.9013 122.085 72.6208 123.218 72.8921C124.35 73.1634 125.364 72.8921 125.507 72.3613ZM96.968 94.8316C97.3971 95.2445 98.3985 94.9142 99.2091 94.1003C100.02 93.2865 100.401 92.272 99.9244 91.8592C99.4475 91.4464 98.5058 91.7766 97.6832 92.5905C96.8607 93.4044 96.5507 94.407 96.968 94.8316ZM86.4299 93.3101C87.0021 93.1567 87.2047 92.1305 86.8828 91.0099C86.561 89.8894 85.8457 89.1344 85.2735 89.2996C84.7013 89.4647 84.4987 90.4791 84.8205 91.5997C85.1424 92.7203 85.8576 93.4752 86.4299 93.3101Z" fill="#FFF3DA"/>
<path fill-rule="evenodd" clip-rule="evenodd" d="M108.531 88.1437C108.674 87.5775 107.875 86.8816 106.755 86.6103C105.634 86.339 104.597 86.6103 104.454 87.1529C104.311 87.6955 105.109 88.415 106.242 88.6863C107.374 88.9576 108.388 88.6863 108.531 88.1437ZM140.288 100.034C140.431 99.4555 139.633 98.7714 138.512 98.4883C137.391 98.2052 136.354 98.4883 136.211 99.0309C136.068 99.5735 136.867 100.293 137.999 100.564C139.132 100.836 140.145 100.564 140.288 100.034ZM152.996 119.13C153.413 119.543 154.415 119.213 155.225 118.399C156.036 117.585 156.417 116.583 155.94 116.17C155.464 115.757 154.522 116.075 153.699 116.889C152.877 117.703 152.507 118.718 152.996 119.13ZM128.534 126.208C128.963 126.62 129.965 126.29 130.775 125.476C131.586 124.662 131.908 123.66 131.491 123.235C131.073 122.811 130.072 123.153 129.249 123.967C128.427 124.78 128.057 125.783 128.534 126.208ZM122.121 137.649C122.3 138.204 121.56 138.947 120.452 139.312C119.343 139.678 118.306 139.501 118.127 138.947C117.948 138.392 118.687 137.637 119.784 137.272C120.881 136.906 121.93 137.083 122.168 137.649H122.121ZM102.129 140.645C102.523 140.197 103.548 140.445 104.418 141.2C105.288 141.955 105.682 142.934 105.3 143.382C104.919 143.83 103.882 143.571 103.011 142.816C102.141 142.061 101.736 141.082 102.129 140.645ZM112.083 121.218C112.667 121.336 112.942 122.398 112.715 123.471C112.489 124.544 111.809 125.417 111.237 125.299C110.665 125.181 110.367 124.12 110.605 123.046C110.843 121.973 111.499 121.1 112.083 121.218ZM145.641 85.8318C145.784 85.2538 144.985 84.5697 143.853 84.2866C142.72 84.0035 141.707 84.2866 141.564 84.8292C141.421 85.3718 142.219 86.0913 143.34 86.3626C144.461 86.6339 145.498 86.3626 145.641 85.8318ZM117.102 108.302C117.519 108.715 118.521 108.385 119.343 107.571C120.166 106.757 120.476 105.743 120.058 105.33C119.641 104.917 118.628 105.247 117.817 106.061C117.007 106.875 116.625 107.878 117.102 108.302ZM106.504 106.84C107.076 106.674 107.279 105.66 106.957 104.48C106.635 103.301 105.92 102.605 105.348 102.77C104.776 102.935 104.573 103.95 104.895 105.07C105.217 106.191 105.932 106.946 106.504 106.792V106.84Z" fill="#FFF3DA"/>
<path fill-rule="evenodd" clip-rule="evenodd" d="M62.9456 70.9341C63.0887 70.3562 62.29 69.672 61.1694 69.3889C60.0488 69.1058 59.0117 69.3889 58.8806 69.9315C58.7495 70.4741 59.5243 71.1936 60.6568 71.4649C61.7893 71.7362 62.8026 71.4649 62.9456 70.9341ZM94.7031 82.8121C94.8461 82.2342 94.0593 81.55 92.9269 81.2787C91.7944 81.0074 90.7811 81.2788 90.638 81.8095C90.495 82.3403 91.2937 83.0717 92.4142 83.3548C93.5348 83.6378 94.5719 83.3547 94.7031 82.8121ZM107.411 101.909C107.828 102.334 108.829 102.003 109.652 101.178C110.475 100.352 110.844 99.3612 110.367 98.9484C109.89 98.5355 108.937 98.854 108.126 99.6797C107.315 100.505 106.934 101.496 107.411 101.909ZM82.9609 108.986C83.3782 109.399 84.3795 109.081 85.1901 108.255C86.0008 107.429 86.3822 106.438 85.9054 106.026C85.4286 105.613 84.4868 105.931 83.6643 106.757C82.8417 107.583 82.4722 108.573 82.9609 108.986ZM76.5355 120.428C76.7143 120.994 75.9753 121.737 74.8666 122.091C73.758 122.445 72.7328 122.292 72.4824 121.725C72.2321 121.159 73.0427 120.416 74.1394 120.062C75.2362 119.708 76.2852 119.862 76.5236 120.428H76.5355ZM56.5441 123.424C56.9375 122.976 57.9627 123.235 58.8329 123.99C59.7031 124.745 60.1085 125.712 59.7151 126.16C59.3217 126.609 58.2965 126.361 57.4262 125.606C56.556 124.851 56.1626 123.872 56.5441 123.424ZM66.4981 103.997C67.0822 104.115 67.3683 105.176 67.1299 106.262C66.8915 107.347 66.2358 108.208 65.6517 108.09C65.0676 107.972 64.7934 106.91 65.0199 105.825C65.2464 104.74 65.9259 103.879 66.4981 103.997ZM100.056 68.6104C100.199 68.0324 99.3999 67.3483 98.2794 67.077C97.1588 66.8057 96.1217 67.077 95.9786 67.6078C95.8356 68.1386 96.6343 68.8699 97.7548 69.153C98.8754 69.4361 99.9125 69.153 100.056 68.6104ZM71.5168 91.0808C71.946 91.4936 72.9473 91.1751 73.7579 90.3495C74.5686 89.5238 74.8904 88.5329 74.4732 88.1201C74.056 87.7073 73.0546 88.0257 72.2321 88.8396C71.4095 89.6535 71.0996 90.6679 71.5168 91.0808ZM60.9668 89.5709C61.539 89.4058 61.7416 88.3914 61.4317 87.2709C61.1217 86.1503 60.3826 85.3954 59.8223 85.5605C59.2621 85.7256 59.0475 86.7401 59.3574 87.8606C59.6674 88.9812 60.4065 89.7361 60.9668 89.5709Z" fill="#FFF3DA"/>
<path fill-rule="evenodd" clip-rule="evenodd" d="M80.6351 102.522C80.7782 101.944 79.9794 101.26 78.8589 100.977C77.7383 100.694 76.7131 100.977 76.5701 101.52C76.427 102.062 77.2138 102.782 78.3463 103.053C79.4788 103.324 80.4921 103.053 80.6351 102.522ZM112.393 114.4C112.536 113.822 111.749 113.138 110.616 112.855C109.484 112.572 108.471 112.855 108.327 113.398C108.184 113.94 108.983 114.66 110.104 114.931C111.224 115.202 112.261 114.931 112.393 114.4ZM125.1 133.497C125.518 133.91 126.519 133.592 127.341 132.766C128.164 131.94 128.534 130.949 128.057 130.537C127.58 130.124 126.626 130.442 125.816 131.268C125.005 132.094 124.623 133.084 125.1 133.497ZM100.65 140.574C101.068 140.987 102.069 140.657 102.88 139.843C103.69 139.029 104.072 138.027 103.595 137.614C103.118 137.201 102.176 137.519 101.354 138.333C100.531 139.147 100.162 140.162 100.65 140.574ZM94.225 152.016C94.4038 152.57 93.6647 153.325 92.5561 153.679C91.4474 154.033 90.4222 153.868 90.1719 153.314C89.9215 152.759 90.7322 152.004 91.8289 151.65C92.9256 151.297 93.9747 151.45 94.2131 152.016H94.225ZM74.2335 155.012C74.6269 154.564 75.6521 154.812 76.5224 155.566C77.3926 156.321 77.7979 157.3 77.4045 157.749C77.0111 158.197 75.9859 157.937 75.1157 157.182C74.2455 156.428 73.8521 155.46 74.2335 155.012ZM84.1875 135.585C84.7717 135.703 85.0578 136.765 84.8194 137.85C84.5809 138.935 83.9253 139.796 83.3412 139.666C82.757 139.536 82.4828 138.487 82.7093 137.413C82.9358 136.34 83.6153 135.467 84.1875 135.585ZM117.745 100.199C117.888 99.6206 117.089 98.9365 115.969 98.6534C114.848 98.3703 113.811 98.6534 113.668 99.196C113.525 99.7386 114.324 100.458 115.444 100.741C116.565 101.024 117.602 100.741 117.745 100.199ZM89.2063 122.669C89.6354 123.082 90.6368 122.752 91.4474 121.938C92.258 121.124 92.5799 120.121 92.1627 119.696C91.7454 119.272 90.7441 119.614 89.9215 120.428C89.099 121.242 88.7294 122.256 89.2063 122.669ZM78.6562 121.159C79.2284 120.994 79.4311 119.98 79.1211 118.8C78.8112 117.62 78.0721 116.925 77.5118 117.078C76.9515 117.231 76.7369 118.257 77.0469 119.437C77.3568 120.617 78.0959 121.312 78.6562 121.147V121.159Z" fill="#FFF3DA"/>
<path fill-rule="evenodd" clip-rule="evenodd" d="M100.592 83.3311L108.555 75.7231L123.051 75.0389L113.717 83.803L100.592 83.3311Z" fill="#358541"/>
<path fill-rule="evenodd" clip-rule="evenodd" d="M123.432 105.023L129.511 84.6639L134.947 91.8002L128.653 112.206C128.653 112.206 123.455 105.129 123.432 105.023Z" fill="#00C36C"/>
<path fill-rule="evenodd" clip-rule="evenodd" d="M67.3203 127.246L73.4119 106.887L78.8359 114.023L72.5417 134.429C72.5417 134.429 67.3561 127.352 67.3203 127.246Z" fill="#00C36C"/>
<path fill-rule="evenodd" clip-rule="evenodd" d="M85.3926 138.711L93.3558 131.115L107.864 130.419L98.5176 139.183L85.3926 138.711Z" fill="#358541"/>
<path fill-rule="evenodd" clip-rule="evenodd" d="M147.262 90.9509L164.237 98.7359L157.347 102.522L140.348 94.5603C140.348 94.5603 147.19 91.0217 147.262 90.9509Z" fill="#00C36C"/>
<path fill-rule="evenodd" clip-rule="evenodd" d="M82.7929 95.9523L99.7683 103.737L92.878 107.524L75.8906 99.5617L82.7929 95.9523Z" fill="#00C36C"/>
<path fill-rule="evenodd" clip-rule="evenodd" d="M163.724 39.334C163.724 39.334 170.209 41.5633 170.877 42.7665C171.545 43.9696 171.104 46.0928 172.963 47.3549C174.823 48.617 173.13 49.2422 175.777 51.1413C178.423 53.0403 178.411 52.7572 179.615 54.326C180.819 55.8948 181.427 56.6851 180.807 56.7559C178.789 56.8614 176.766 56.7427 174.775 56.402C174 56.0482 169.327 53.5711 169.28 52.3326C169.232 51.094 167.289 50.2212 166.967 49.2775C166.645 48.3339 163.915 46.6354 163.391 46.8477C162.866 47.06 165.155 42.79 166.562 44.7363C167.968 46.6825 169.506 49.3837 169.506 49.3837C169.506 49.3837 170.782 45.3379 169.113 43.887C167.444 42.4362 161.96 43.3916 160.911 41.811C159.862 40.2304 163.724 39.334 163.724 39.334Z" fill="#66380F"/>
<path fill-rule="evenodd" clip-rule="evenodd" d="M52.1325 87.2826C52.1325 87.2826 51.8464 91.2341 48.9138 93.0977C45.9813 94.9614 43.7044 96.9549 42.5719 97.3323C41.4394 97.7098 39.6989 97.1436 38.4472 97.9575C37.1955 98.7714 36.4445 99.4083 36.4207 99.9745C36.3968 100.541 36.9452 100.328 39.2221 99.6089C41.499 98.8893 45.7071 99.255 46.6608 98.1226C47.6144 96.9903 50.1417 94.006 52.4544 90.8802C54.767 87.7544 52.1325 87.2826 52.1325 87.2826Z" fill="#66380F"/>
<path fill-rule="evenodd" clip-rule="evenodd" d="M110.783 27.7627C109.106 28.2291 107.544 29.0321 106.194 30.1218C103.81 31.9737 102.856 32.7168 102.427 34.0143C101.95 35.1158 101.275 36.1229 100.436 36.9867C100.922 36.0248 101.321 35.0222 101.628 33.9907C101.878 33.0353 101.497 32.009 102.617 31.0654C103.647 30.2136 104.752 29.4556 105.92 28.8007C106.529 28.4582 107.09 28.0378 107.588 27.5504C107.588 27.5504 106.396 27.5504 106.063 27.5504C105.729 27.5504 102.689 26.8191 102.689 26.8191C102.689 26.8191 100.96 27.7863 100.209 28.2345C99.6186 28.7297 98.8735 29.0088 98.0994 29.0248C96.9073 29.1192 96.0609 29.3905 95.7152 30.452C95.3695 31.5136 95.2145 32.4101 94.3204 32.8701C93.6197 33.2244 92.8993 33.5395 92.1627 33.8138C93.1307 33.2641 93.8732 32.3959 94.2608 31.3603C94.4635 30.6526 94.535 30.0746 94.6304 29.6146C94.2966 29.8269 93.9509 30.0746 93.6052 30.3341C91.221 32.186 90.2673 32.9291 89.8382 34.2266C89.3612 35.3282 88.6868 36.3352 87.8474 37.1991C88.3315 36.2404 88.7303 35.2419 89.0395 34.2148C89.2898 33.2476 88.9202 32.2214 90.0289 31.2777C91.0584 30.4259 92.1636 29.6679 93.331 29.013C93.9403 28.6705 94.5015 28.2501 94.9999 27.7627C94.9999 27.7627 93.8078 27.7627 93.4741 27.7627C93.1403 27.7627 90.1004 27.0314 90.1004 27.0314C90.1004 27.0314 88.3719 27.9986 87.6328 28.4586C87.0308 28.9428 86.2861 29.2202 85.5109 29.2489C84.3188 29.3315 83.4724 29.6028 83.1267 30.6644C82.781 31.7259 82.626 32.6342 81.7319 33.0942C81.0294 33.4415 80.3092 33.7526 79.5742 34.0261C80.5467 33.4785 81.2936 32.6101 81.6842 31.5726C82.1014 30.0392 81.9703 29.1428 82.6737 28.7299C83.2934 28.2774 84.0197 27.9891 84.7837 27.8924C85.7373 27.8098 86.4169 28.0222 86.9175 27.338C87.4182 26.6539 87.1202 26.3354 87.4897 26.1585C88.8023 25.8035 90.1844 25.7833 91.5071 26.0995C93.4485 26.4917 95.3572 27.028 97.2172 27.7037H97.3364C98.2901 27.6212 98.9696 27.8335 99.4703 27.1493C99.971 26.4652 99.673 26.1467 100.043 25.9698C101.354 25.608 102.738 25.5877 104.06 25.9108C106.322 26.3956 108.545 27.0421 110.712 27.8453L110.783 27.7627Z" fill="#995B25"/>
<path fill-rule="evenodd" clip-rule="evenodd" d="M87.4313 180.762C87.4313 180.762 69.5499 177.294 67.5472 177.648C65.5445 178.002 65.6756 178.827 63.7205 181.505C61.7655 184.182 61.4317 185.15 62.2662 186.022C63.1006 186.895 68.9777 189.726 68.9777 189.726C71.539 187.707 74.435 186.142 77.5369 185.102C82.2338 183.663 87.6936 181.375 87.4313 180.762Z" fill="#BF9A76"/>
<path fill-rule="evenodd" clip-rule="evenodd" d="M195.506 99.9391C195.506 99.9391 196.401 100.576 196.913 106.733C197.426 112.891 196.019 113.61 195.84 119.036C195.82 122.968 195.457 126.891 194.755 130.761C194.1 133.922 193.814 136.304 192.896 134.913C191.978 133.521 186.22 132.306 188.318 129.947C190.416 127.588 188.652 131.657 191.108 129.381C193.563 127.104 193.015 122.457 193.957 117.196C194.898 111.935 196.091 107.901 194.91 104.15C193.73 100.399 194.362 97.4149 195.506 99.9391Z" fill="#FAD58C"/>
<path fill-rule="evenodd" clip-rule="evenodd" d="M120.046 120.227C120.189 119.649 119.391 118.965 118.258 118.682C117.126 118.399 116.112 118.682 115.969 119.225C115.826 119.767 116.625 120.487 117.745 120.758C118.866 121.029 119.903 120.758 120.046 120.227ZM151.804 132.105C151.947 131.527 151.148 130.843 150.027 130.56C148.907 130.277 147.87 130.56 147.727 131.103C147.584 131.645 148.382 132.365 149.503 132.648C150.623 132.931 151.661 132.648 151.804 132.105ZM164.499 151.202C164.917 151.615 165.93 151.297 166.741 150.471C167.551 149.645 167.873 148.654 167.456 148.242C167.039 147.829 166.025 148.147 165.215 148.973C164.404 149.799 164.082 150.789 164.499 151.202ZM140.05 158.279C140.467 158.692 141.468 158.374 142.291 157.548C143.113 156.722 143.423 155.732 143.006 155.319C142.589 154.906 141.575 155.224 140.765 156.038C139.954 156.852 139.573 157.867 140.05 158.279ZM133.624 169.721C133.815 170.287 133.064 171.03 131.967 171.384C130.87 171.738 129.821 171.585 129.583 171.019C129.345 170.452 130.143 169.709 131.252 169.355C132.361 169.002 133.398 169.155 133.576 169.721H133.624ZM113.657 172.717C114.038 172.269 115.063 172.517 115.933 173.283C116.804 174.05 117.209 175.005 116.816 175.454C116.422 175.902 115.409 175.654 114.527 174.887C113.645 174.121 113.263 173.165 113.657 172.717ZM123.611 153.29C124.183 153.408 124.469 154.47 124.23 155.555C123.992 156.64 123.336 157.501 122.752 157.383C122.168 157.265 121.894 156.203 122.132 155.118C122.371 154.033 123.026 153.172 123.611 153.29ZM157.156 117.904C157.299 117.326 156.5 116.642 155.38 116.37C154.259 116.099 153.222 116.37 153.079 116.901C152.936 117.432 153.735 118.163 154.867 118.446C156 118.729 157.013 118.446 157.156 117.904ZM128.617 140.421C129.035 140.834 130.036 140.504 130.847 139.69C131.657 138.876 132.039 137.873 131.562 137.46C131.085 137.048 130.143 137.366 129.321 138.18C128.498 138.994 128.188 140.008 128.617 140.421ZM118.067 138.911C118.64 138.746 118.842 137.732 118.52 136.611C118.198 135.491 117.483 134.736 116.911 134.901C116.339 135.066 116.136 136.08 116.458 137.26C116.78 138.44 117.495 139.135 118.067 138.97V138.911Z" fill="#FFF3DA"/>
<path fill-rule="evenodd" clip-rule="evenodd" d="M25.3111 142.768C26.8571 144.577 29.0291 145.751 31.4027 146.059C35.3366 146.578 38.6507 140.846 40.5103 139.265C42.37 137.685 45.6602 141.73 40.5103 151.332C35.3605 160.933 35.3605 160.603 32.0107 158.869C28.6609 157.135 19.8394 139.383 25.3945 142.768H25.3111Z" fill="#E6551C"/>
<path fill-rule="evenodd" clip-rule="evenodd" d="M68.6067 26.1821C68.6067 26.1821 62.1694 33.9789 53.9797 37.0811C45.79 40.1833 43.4892 41.5633 44.6575 41.9408C45.8257 42.3182 47.3278 52.25 48.5199 53.347C49.712 54.444 49.5212 46.9421 48.6629 44.5004C47.8046 42.0588 51.4643 42.7901 59.1057 37.7534C66.747 32.7168 73.4108 23.1624 68.6425 26.1821H68.6067Z" fill="#F77745"/>
<path fill-rule="evenodd" clip-rule="evenodd" d="M150.611 146.85C150.611 146.85 150.147 154.835 152.686 156.357C155.225 157.878 155.642 152.075 158.241 155.708C160.84 159.341 161.221 160.426 163.009 160.12C164.797 159.813 167.205 164.956 163.367 165.522C159.528 166.088 158.599 156.628 156.024 158.044C153.449 159.459 153.151 165.416 150.778 160.969C148.406 156.522 152.209 154.753 148.692 150.86C145.176 146.968 148.907 140.633 150.564 146.85H150.611Z" fill="#F77745"/>
<path fill-rule="evenodd" clip-rule="evenodd" d="M115.231 104.964C119.618 106.25 122.92 114.294 122.61 122.94C122.3 131.586 118.473 137.567 114.075 136.293C109.676 135.019 106.374 126.963 106.695 118.305C107.017 109.647 110.832 103.69 115.231 104.964ZM115.052 110.567C117.627 111.322 119.546 115.651 119.308 121.985C119.069 128.319 117.007 131.775 114.432 131.02C111.857 130.265 109.759 125.606 109.998 119.225C110.236 112.843 112.489 109.788 115.052 110.52V110.567Z" fill="#00C36C"/>
</g>
<defs>
<clipPath id="clip0_246_1698">
<rect width="184" height="185" fill="white" transform="translate(16 15)"/>
</clipPath>
</defs>
</svg>
