<svg width="215" height="215" viewBox="0 0 215 215" fill="none" xmlns="http://www.w3.org/2000/svg">
<g clip-path="url(#clip0_76_15170)">
<path fill-rule="evenodd" clip-rule="evenodd" d="M108.808 14.4026C127.086 14.2993 144.983 19.6075 160.231 29.6546C175.478 39.7016 187.391 54.0351 194.457 70.8382C201.523 87.6413 203.426 106.157 199.924 124.04C196.422 141.922 187.673 158.365 174.785 171.285C161.897 184.205 145.452 193.02 127.533 196.613C109.614 200.205 91.0279 198.414 74.1314 191.466C57.2348 184.517 42.7881 172.725 32.6225 157.583C22.4568 142.441 17.0299 124.631 17.0296 106.412C16.9621 82.079 26.5933 58.7162 43.8047 41.4616C61.0162 24.2069 84.3984 14.4737 108.808 14.4026Z" fill="#F5DEB6"/>
<path d="M58.7616 28.1793C58.9411 28.0899 119.683 -1.64049 167.951 25.3614C172.776 28.0586 177.235 31.3607 181.218 35.187C195.921 49.2769 203.475 69.6139 204.761 91.0395C206.015 112.623 201.208 134.128 190.881 153.139C187.193 159.861 182.67 166.093 177.419 171.687C162.865 186.94 145.036 191.875 128.628 191.875C118.315 191.794 108.086 190.015 98.3539 186.612C89.8581 183.63 83.5162 180.052 81.0482 177.666C80.5319 177.244 80.1058 176.723 79.7949 176.134C79.4841 175.545 79.2948 174.9 79.2383 174.237C79.2311 173.096 79.455 171.965 79.8965 170.912C80.2739 170.016 80.8428 169.213 81.5636 168.559C82.2843 167.905 83.1396 167.415 84.0696 167.125C86.3438 166.498 88.7532 166.555 90.9949 167.289C96.1493 168.993 100.982 171.543 105.294 174.833C106.212 175.488 107.183 176.066 108.196 176.563C116.408 180.678 128.957 181.707 141.102 179.545C153.248 177.383 164.585 171.956 170.703 163.233C171.445 162.192 172.105 161.095 172.677 159.953L173.35 158.581C184.299 136.47 192.885 119.309 193.124 91.3377C193.052 84.1738 191.611 77.0893 188.876 70.4638C185.879 62.9903 181.73 56.0283 176.581 49.8286C171.458 43.5242 165.242 38.1866 158.229 34.0688C152.289 30.5393 145.583 28.4932 138.679 28.1048C123.381 27.4715 108.058 28.2702 92.9094 30.4904C81.2277 32.3392 71.969 35.1572 68.3344 38.8697C64.3108 42.9103 61.0501 47.2044 59.9133 50.0969L59.7638 50.5143C60.429 50.3574 61.0835 50.1582 61.7232 49.918C65.162 48.4336 68.4355 46.5947 71.4904 44.4312C79.702 39.1083 90.1573 32.3392 108.316 30.0132C123.273 28.1048 140.339 28.0154 154.429 33.3233C165.528 37.4981 174.742 44.9978 179.558 57.4773C184.838 71.1348 187.635 80.7815 188.831 89.5783C190.028 98.3752 189.609 106.292 188.487 116.416C187.44 125.958 183.626 135.963 178.481 145.148C172.951 155.103 165.885 164.13 157.54 171.896L154.025 167.975C161.952 160.617 168.67 152.064 173.934 142.628C178.765 133.98 182.325 124.736 183.297 115.879C184.374 106.188 184.793 98.6734 183.656 90.3686C182.519 82.0638 179.827 72.7152 174.682 59.4603C170.479 48.5761 162.387 42.0157 152.59 38.333C139.442 33.368 123.213 33.4873 108.989 35.351C92.0269 37.5279 82.0653 43.9391 74.3622 48.9787C70.9857 51.3526 67.3595 53.3524 63.548 54.9426C61.709 55.7755 59.6675 56.0603 57.6697 55.7627C56.8306 55.6094 56.0628 55.1923 55.4787 54.5725C54.8947 53.9527 54.525 53.1629 54.424 52.3185C54.2659 50.9413 54.4775 49.5468 55.0372 48.2779C56.4432 44.7293 60.1377 39.7345 64.6249 35.2317C69.1122 30.7289 79.3879 27.4189 92.1017 25.3763C107.588 23.119 123.251 22.3054 138.889 22.946C146.632 23.3535 154.161 25.6249 160.831 29.566C168.404 33.9865 175.113 39.7347 180.635 46.5334C186.134 53.1573 190.56 60.5978 193.752 68.5851C196.746 75.8548 198.315 83.6288 198.374 91.4868C198.135 120.591 189.295 138.304 177.957 161.012L177.284 162.368C176.595 163.751 175.805 165.081 174.921 166.349C174.368 167.125 173.784 167.84 173.156 168.616L173.59 168.168C178.567 162.881 182.849 156.984 186.334 150.619C196.175 132.481 200.754 111.969 199.556 91.3825C198.344 71.1944 191.299 52.1098 177.628 39.0039C173.965 35.5154 169.868 32.509 165.438 30.058C119.519 4.36824 61.1997 32.9356 61.0202 33.04L58.7616 28.3135V28.1793ZM128.568 186.597C139.905 186.773 151.076 183.877 160.891 178.218C154.955 181.344 148.566 183.527 141.955 184.689C128.792 187.089 115.031 185.896 105.788 181.289C104.546 180.672 103.351 179.964 102.213 179.172C96.6937 175.266 92.5654 173.208 89.559 172.388C88.3054 171.947 86.9533 171.865 85.6551 172.149C85.4348 172.216 85.2314 172.329 85.0586 172.481C84.8857 172.633 84.7474 172.82 84.6529 173.029C84.5174 173.355 84.4463 173.705 84.4435 174.058L84.5333 173.968C86.5675 175.922 92.1466 179.038 99.9245 181.722C109.108 184.93 118.762 186.603 128.493 186.672L128.568 186.597ZM84.4435 174.073V173.983L84.3538 174.073H84.4435ZM84.4435 173.983V174.073V174.267C84.4435 174.535 84.4435 174.162 84.5333 173.983H84.4435Z" fill="#FFF3DA"/>
<path d="M109.138 200.985C108.943 200.985 41.9938 191.562 17.0448 142.061C14.5429 137.125 12.688 131.888 11.5255 126.48C7.20278 106.561 12.3033 85.463 23.1923 66.9897C34.1702 48.4057 50.1638 33.2689 69.3509 23.3037C76.1779 19.8028 83.4263 17.1873 90.9195 15.5208C111.486 11.0478 129.016 17.0118 142.612 26.1664C151.151 32.0136 158.665 39.222 164.854 47.5025C170.254 54.704 173.485 61.2494 174.217 64.6041C174.416 65.2416 174.482 65.9125 174.412 66.5762C174.343 67.24 174.139 67.8828 173.814 68.4658C173.179 69.4139 172.36 70.2252 171.405 70.8514C170.591 71.3834 169.669 71.7312 168.705 71.8702C167.742 72.0093 166.759 71.9364 165.826 71.6565C163.591 70.895 161.63 69.4951 160.187 67.6309C157.779 64.8278 155.177 60.2803 152.544 53.3621C152.129 52.2998 151.629 51.2727 151.048 50.2907C146.561 42.284 136.704 34.3967 125.426 29.4168C114.148 24.4369 101.719 22.5284 91.787 26.3155C90.5949 26.7787 89.4356 27.3217 88.3169 27.9406L87.0007 28.6861C65.5218 40.8228 48.7844 50.2757 33.0193 73.2668C29.066 79.2642 26.2991 85.9596 24.8675 92.9925C23.185 100.873 22.736 108.965 23.5363 116.983C24.2676 125.09 26.4457 133.002 29.968 140.346C32.924 146.591 37.3405 152.036 42.8463 156.225C55.1716 165.319 68.3155 173.255 82.1096 179.932C92.8341 184.927 102.018 187.76 107.163 186.761C112.757 185.673 117.858 183.928 120.416 182.169L120.775 181.915C120.133 181.663 119.473 181.458 118.8 181.304C115.129 180.601 111.394 180.291 107.657 180.38C97.8747 180.186 85.4301 179.932 69.0817 171.672C55.62 164.888 41.4254 155.376 32.7052 143.075C25.8397 133.384 22.3846 122.007 25.3611 108.961C28.5919 94.6774 31.6731 85.1052 35.592 77.1582C39.5108 69.2113 44.2673 62.8597 50.8187 55.1364C57.026 47.8156 65.7761 41.7174 75.1544 36.9313C85.3022 31.7709 96.2071 28.2481 107.462 26.4944L108.195 31.698C97.5115 33.3723 87.1588 36.7133 77.5177 41.5982C68.6928 46.0711 60.541 51.7667 54.8272 58.5059C48.5302 65.9609 43.9981 71.9248 40.2886 79.3798C36.5792 86.8348 33.6176 96.1684 30.4616 110.02C27.874 121.396 30.9253 131.386 36.983 139.929C45.1199 151.41 58.6414 160.415 71.3851 166.886C86.6566 174.594 98.4281 174.833 107.687 175.012C111.817 174.928 115.944 175.288 119.997 176.085C121.991 176.436 123.843 177.347 125.337 178.71C125.949 179.306 126.353 180.083 126.49 180.925C126.627 181.768 126.491 182.632 126.099 183.391C125.465 184.617 124.508 185.647 123.332 186.373C120.191 188.535 114.358 190.608 108.106 191.815C101.853 193.023 91.5178 190.026 79.8361 184.569C65.7329 177.759 52.2978 169.653 39.7053 160.356C33.5078 155.676 28.5356 149.574 25.2115 142.568C21.4256 134.695 19.0756 126.213 18.2713 117.519C17.437 108.95 17.9416 100.304 19.767 91.8892C21.355 84.1942 24.4009 76.8719 28.7415 70.3146C45.1947 46.3246 62.4106 36.6034 84.4729 24.0939L85.7891 23.3485C87.1292 22.5901 88.5241 21.9322 89.9622 21.3803C90.8597 21.0374 91.7721 20.7392 92.6994 20.4708L92.0862 20.605C85.0277 22.1875 78.1979 24.6522 71.759 27.9406C53.457 37.4778 38.206 51.9417 27.7393 69.6884C17.4785 87.0882 12.6623 106.859 16.6858 125.392C17.76 130.358 19.4639 135.168 21.7564 139.705C45.4788 186.746 109.766 195.781 110.005 195.811L109.242 201L109.138 200.985ZM139.696 30.535C130.432 24.0464 119.577 20.1819 108.285 19.3526C114.957 20.0981 121.471 21.8737 127.595 24.6158C139.845 29.9982 150.615 38.7205 155.67 47.6963C156.33 48.9107 156.9 50.1715 157.375 51.4685C159.784 57.8052 162.042 61.816 164.076 64.1867C164.871 65.254 165.949 66.0799 167.187 66.5722C167.408 66.6425 167.641 66.6643 167.871 66.6359C168.101 66.6076 168.322 66.53 168.519 66.4083C168.842 66.2074 169.122 65.9437 169.341 65.6329H169.222C169.222 65.6329 169.132 65.6329 169.117 65.6329C168.519 62.8597 165.632 57.1641 160.696 50.5739C154.866 42.7693 147.792 35.9698 139.756 30.4456L139.696 30.535ZM169.222 65.6329H169.341L169.446 65.4689C169.596 65.2602 169.371 65.5435 169.222 65.6628V65.6329Z" fill="#FFF3DA"/>
<path d="M115.495 30.6096C115.674 30.6096 181.786 36.9612 183.79 89.9212C184.733 115.029 180.545 135.173 172.647 149.784C164.106 165.589 151.243 174.952 135.792 177.189C120.067 179.302 104.062 177.62 89.1248 172.284C74.789 167.422 62.0041 158.855 52.0753 147.459C42.2931 135.814 36.011 127.062 32.7951 117.639C29.5793 108.216 29.4896 98.1664 32.2118 84.2554C34.8294 70.8365 44.8957 59.5348 57.8788 51.2896C72.3875 42.0753 90.6654 36.7227 106.146 36.8718C121.627 37.0209 139.95 41.3447 153.786 49.2022C154.414 49.5501 155.027 49.908 155.626 50.2758C137.437 38.0049 115.061 35.843 114.956 35.843L115.495 30.6096ZM178.555 90.115C178.397 85.4763 177.601 80.8812 176.192 76.4576L176.372 77.5907C178.053 89.4956 178.524 101.539 177.778 113.538C178.618 105.761 178.878 97.9313 178.555 90.115ZM143.749 169.749C151.634 166.673 158.459 161.392 163.403 154.541C157.872 160.799 151.204 165.959 143.749 169.749ZM90.8748 167.319C92.2659 167.811 93.6868 168.273 95.0928 168.705C82.9553 162.281 71.6656 154.377 61.4835 145.177C50.9086 135.545 42.8017 125.213 40.5431 116.476C38.105 106.904 38.6435 94.1109 42.0388 82.4811C44.5666 73.7738 48.7099 65.7224 54.4086 60.1163C45.6735 67.0196 39.2268 75.5779 37.3572 85.2246C34.8144 98.1813 34.8294 107.336 37.7461 115.909C40.6628 124.482 46.7205 132.862 56.0689 144.014C65.3978 154.699 77.4031 162.725 90.8599 167.274L90.8748 167.319ZM102.766 42.1797C91.645 42.8262 80.7502 45.5841 70.6674 50.3055C78.5536 47.0359 86.7887 44.6749 95.2125 43.2681C97.7553 42.8357 100.298 42.4928 102.826 42.2543L102.766 42.1797ZM145.619 50.902C141.359 48.9482 136.954 47.3281 132.442 46.0563C134.805 46.9658 137.048 47.7709 139.217 48.5462C141.386 49.3215 143.57 50.1118 145.619 50.902ZM171.166 78.2915C170.442 73.4692 168.398 68.9396 165.258 65.2006C167.606 69.4511 169.128 74.1047 169.745 78.9177C170.254 82.1382 170.882 85.5078 171.495 88.8029C171.899 91.0096 172.318 93.1864 172.692 95.3335C172.423 89.459 171.869 83.6888 171.121 78.2915H171.166ZM161.579 148.517C165.139 143.815 167.773 138.482 169.342 132.802C167.132 136.768 164.423 140.436 161.279 143.716C151.783 153.88 139.853 161.473 126.608 165.783C118.456 168.258 110.559 168.765 103.903 167.065C113.18 170.965 123.547 171.44 133.145 168.407C144.45 164.786 154.4 157.855 161.698 148.517H161.579ZM65.0135 141.286C74.0822 149.47 84.0527 156.603 94.7339 162.547C92.7146 161.056 90.1719 159.163 87.4047 157.165C71.2357 145.416 47.6628 128.314 47.4086 111.496C47.2739 102.073 47.8423 90.1449 51.4919 79.8123C55.2911 69.0474 62.351 59.997 75.1995 57.015C88.9304 53.8094 108.36 51.4387 124.724 53.213C137.348 54.5847 148.281 58.4464 153.801 66.3039C159.529 74.4597 164.585 83.5398 167.068 93.1418L166.44 89.7721C165.841 86.5516 165.228 83.2714 164.675 79.7079C161.953 62.2782 151.617 58.5656 137.512 53.4814C134.431 52.378 131.185 51.2151 127.939 49.903C119.354 46.4439 107.657 46.4141 96.08 48.412C82.3641 50.738 68.9772 55.867 61.1395 61.4433C54.5732 66.1101 49.8765 74.5789 47.1393 83.9721C44.0282 94.6774 43.5196 106.471 45.7333 115.283C47.6778 122.962 55.2014 132.4 65.0733 141.39L65.0135 141.286ZM157.376 140.182C168.848 128.016 170.089 115.969 168.594 103.191C169.034 111.52 167.066 119.8 162.925 127.047L162.177 128.389C159.043 134.318 155.547 140.049 151.707 145.55C153.651 143.85 155.536 142.046 157.331 140.153L157.376 140.182ZM124.978 160.818C127.528 160.043 130.026 159.107 132.456 158.015C129.043 158.497 125.588 158.606 122.151 158.343C111.92 157.687 98.7873 152.125 87.1205 145.237C73.27 137.037 61.2741 126.793 58.5518 120.516C55.8296 114.239 54.5133 100.94 56.2634 89.5484C57.6694 80.3788 61.0348 72.1635 67.1075 68.8386C74.4965 64.7981 90.9197 59.7585 107.493 59.6839C119.07 59.6839 130.781 62.0098 139.786 68.7789C147.698 74.7429 154.115 79.6036 158.438 84.6879C155.933 79.3153 152.928 74.1887 149.463 69.3754C144.976 62.9343 135.373 59.7138 124.14 58.4912C108.405 56.7765 89.6334 59.0875 76.2764 62.1888C65.5669 64.6787 59.6138 72.3872 56.3531 81.5717C52.9578 91.2035 52.4343 102.446 52.5689 111.391C52.7783 125.541 75.005 141.733 90.3962 152.856C93.3129 154.973 95.9753 156.896 98.3835 158.82C104.681 163.68 114.448 163.964 124.933 160.788L124.978 160.818ZM158.348 124.497C161.303 119.327 163.018 113.545 163.359 107.604C162.146 111.31 160.536 114.874 158.557 118.235C157.226 120.546 156.074 122.604 154.982 124.572C143.884 144.387 137.841 155.182 118.935 148.219C115.27 146.877 111.621 145.759 107.986 144.641C91.8471 139.69 75.8875 134.8 69.9644 115.79C66.4494 104.518 64.2656 95.5125 64.819 88.4153C65.4023 80.6622 69.037 75.2498 77.2337 71.9249C85.8342 68.4509 104.247 67.0494 120.087 70.4339C132.053 72.9984 142.672 78.2914 147.13 87.4908C152.126 97.7936 154.982 107.351 153.935 115.119L153.831 115.894L153.995 115.611C159.978 105.249 160.621 98.39 157.54 92.4857C154.294 86.2534 146.756 80.5578 136.6 72.8941C128.627 66.9301 118.023 64.8129 107.463 64.8427C91.8321 64.8427 76.4559 69.599 69.5755 73.3712C65.0882 75.7717 62.6053 82.5408 61.4237 90.2343C59.8232 100.671 60.8702 112.599 63.3382 118.339C65.6566 123.677 76.7999 132.921 89.753 140.615C100.792 147.13 113.102 152.394 122.45 153.005C141.7 154.242 147.115 144.521 157.585 125.765L158.333 124.408L158.348 124.497ZM120.73 143.358C133.877 148.204 139.486 141.181 147.444 127.271C144.185 129.814 140.391 131.588 136.345 132.459C125.972 135.131 115.098 135.223 104.681 132.728C95.377 130.327 87.4646 125.511 82.5884 118.19C79.7306 113.951 77.4944 109.327 75.9473 104.458C74.5967 100.413 74.1925 96.114 74.7657 91.8893C75.0395 89.9318 75.7229 88.0536 76.7716 86.3763C77.8204 84.6991 79.211 83.2603 80.8534 82.1532C82.1655 81.281 83.6028 80.6123 85.1162 80.1701C96.3989 77.0847 108.184 76.2637 119.788 77.7547C128.762 79.1563 136.48 82.6601 139.486 89.6081C141.888 95.1424 142.914 101.173 142.478 107.187C142.247 110.623 141.224 113.961 139.486 116.938C138.681 118.31 137.592 119.497 136.293 120.419C134.993 121.342 133.512 121.98 131.948 122.291C129.642 122.659 127.28 122.417 125.097 121.59C120.34 120.262 115.483 119.32 110.574 118.772C100.627 117.281 89.8877 115.7 85.3705 111.317C81.7209 107.783 81.6162 103.191 87.6441 96.9587C95.1462 89.4634 104.735 84.3883 115.166 82.3917C105.607 81.6872 95.9974 82.6047 86.7466 85.1053C85.7238 85.4097 84.7512 85.8619 83.8598 86.4472C82.8212 87.1635 81.946 88.0901 81.2913 89.1667C80.6366 90.2432 80.2173 91.4453 80.0606 92.6945C79.623 96.1121 79.9709 99.5842 81.0777 102.848C82.4737 107.221 84.4883 111.373 87.0607 115.179C91.189 121.366 98.0095 125.481 106.072 127.554C115.657 129.831 125.657 129.728 135.194 127.256C143.959 125.094 148.027 120.531 148.835 114.448C149.717 107.813 147.085 99.2399 142.493 89.7721C138.858 82.3172 129.6 77.8442 119.085 75.5778C104.127 72.3871 87.1355 73.6098 79.2828 76.8005C73.2999 79.2457 70.5776 83.167 70.1438 88.7284C69.6502 95.0204 71.7293 103.459 75.0648 114.15C80.1653 130.551 94.7937 135.024 109.602 139.497C113.431 140.674 117.275 141.852 120.835 143.164L120.73 143.358ZM137.258 106.755C137.555 102.727 137.083 98.6791 135.867 94.8266C135.099 97.6291 133.692 100.216 131.753 102.386C128.789 105.606 124.998 107.957 120.79 109.185C116.859 110.411 112.683 110.632 108.644 109.826C106.16 109.333 103.847 108.209 101.928 106.561C97.8001 102.893 99.3557 97.9577 103.035 93.7978C104.188 92.516 105.471 91.3567 106.864 90.3387C101.021 92.6791 95.7253 96.1967 91.3086 100.671C87.9582 104.145 87.5693 106.277 88.9304 107.589C92.221 110.78 102.093 112.241 111.247 113.553C116.478 114.15 121.651 115.177 126.713 116.625C128.057 117.152 129.517 117.316 130.946 117.102C131.81 116.927 132.626 116.571 133.34 116.057C134.055 115.543 134.651 114.882 135.089 114.12C136.381 111.836 137.123 109.284 137.258 106.665V106.755ZM126.653 87.5207C124.194 87.0127 121.668 86.9069 119.174 87.2076C119.99 87.6879 120.654 88.3872 121.09 89.2255C121.527 90.0639 121.718 91.0076 121.642 91.949C122.001 103.877 113.221 103.43 113.206 103.43L113.341 98.1813C113.341 98.1813 116.587 98.3453 116.332 92.0831C116.332 91.8893 116.198 91.8148 116.003 91.8297C114.474 92.0313 113.012 92.5769 111.725 93.4251C109.92 94.4731 108.29 95.7962 106.894 97.3464C105.099 99.3741 104.067 101.536 105.399 102.684C106.652 103.714 108.142 104.416 109.736 104.727C112.914 105.337 116.194 105.148 119.279 104.175C122.552 103.233 125.505 101.418 127.82 98.9268C129.364 97.1914 130.44 95.0928 130.946 92.8286C131.22 91.8724 131.135 90.8492 130.706 89.951C130.225 89.2964 129.617 88.7441 128.918 88.3268C128.22 87.9095 127.444 87.6354 126.638 87.5207H126.653Z" fill="#FFF3DA"/>
<path d="M116.781 195.573C124.939 193.719 132.812 190.785 140.19 186.851C130.98 188.772 121.475 188.813 112.249 186.97C97.9798 184.39 82.1698 178.024 66.5243 167.676C50.6884 157.328 38.2154 142.61 30.6265 125.317C23.776 109.17 22.3102 91.6807 27.635 75.4289C33.1094 58.864 42.8916 48.8445 57.0264 42.5377C70.8171 36.4097 88.6314 33.9346 110.589 32.3542C127.41 31.3257 144.16 35.2897 158.722 43.7453C178.167 54.7339 191.434 70.9858 194.44 79.8273C197.282 88.2067 198.239 102.386 194.695 119.04C191.49 133.712 185.669 147.69 177.508 160.311C156.344 193.411 117.843 200.717 117.679 200.747L116.677 195.573H116.781ZM177.912 149.352C183.288 139.493 187.226 128.919 189.609 117.952C192.945 102.297 192.107 89.1609 189.519 81.5122C186.797 73.5354 174.562 58.6553 156.209 48.3376C142.537 40.3856 126.808 36.65 111.008 37.6025C89.5737 39.0935 72.268 41.5237 59.1952 47.3386C46.4515 53.0193 37.6266 62.0696 32.6757 77.0839C27.7248 92.0981 29.1158 108.26 35.4727 123.305C42.65 139.653 54.4482 153.563 69.4261 163.338C84.4583 173.342 99.5952 179.396 113.177 181.841C127.491 184.42 140.1 183.019 148.865 178.054C156.705 173.544 163.187 167.02 167.637 159.163C172.822 149.966 176.107 139.826 177.299 129.343C177.823 125.213 178.645 120.829 179.498 116.282C182.863 98.4795 186.722 78.053 172.573 70.8665C161.055 65.0218 134.326 55.8075 108.749 51.4836C91.2789 48.5016 74.4667 47.95 63.7722 52.3484C61.0513 53.478 58.5035 54.9838 56.2037 56.8214C47.6331 63.5606 41.9642 74.5492 39.3168 86.0746C36.6693 97.5999 37.0432 109.617 40.6031 118.34C41.4666 120.474 42.619 122.481 44.0284 124.304C49.2028 131.104 54.761 137.605 60.676 143.776C58.7573 141.507 56.9886 139.117 55.381 136.619C48.502 125.967 44.4798 113.733 43.6993 101.089V99.5979C42.7719 80.4237 41.6651 57.6115 78.3108 55.8074C80.3749 55.7179 82.5138 55.7179 84.7425 55.8074C102.602 56.6275 125.023 63.8588 143.076 73.0433C161.594 82.4663 175.669 94.2005 176.132 103.668C176.132 103.996 176.132 104.324 176.132 104.667C175.5 118.033 172.832 131.225 168.22 143.791C164.346 153.81 158.812 162.92 151.109 168.66C142.134 175.31 136.824 178.993 129.69 179.903C122.555 180.812 114.538 178.889 99.9691 174.371C86.8074 170.294 74.6636 163.48 64.3406 154.377C54.8127 146.117 47.1545 136.738 39.9898 127.539C38.28 125.32 36.8858 122.877 35.8466 120.278C31.8829 110.572 31.3594 97.4061 34.3509 84.837C37.3424 72.268 43.5348 60.1463 53.1075 52.6168C55.7923 50.4899 58.7628 48.7483 61.9324 47.443C73.6441 42.6271 91.4584 43.1788 109.796 46.2502C135.882 50.6039 163.269 60.0567 175.115 66.0654C192.78 75.0114 188.577 97.5403 184.838 117.147C183.985 121.62 183.162 126.093 182.669 129.895C181.858 136.503 180.323 143.003 178.092 149.278L177.912 149.352ZM76.845 157.478C84.3929 162.637 92.6776 166.633 101.42 169.331C115.256 173.625 122.899 175.459 128.942 174.684C134.984 173.909 139.666 170.554 147.908 164.411C154.713 159.357 159.694 150.992 163.239 141.882C167.665 129.845 170.228 117.205 170.837 104.399V103.892C170.478 96.4369 157.615 86.3281 140.653 77.6952C123.198 68.7493 101.6 61.8161 84.4882 61.0259C82.439 60.9364 80.4497 60.9215 78.5052 61.0259C47.0946 62.5169 48.0818 82.526 48.8895 99.3146V100.806C49.609 112.521 53.3325 123.856 59.7037 133.727C65.6279 143.084 74.0778 150.587 84.0844 155.376C96.5439 161.34 105.847 164.739 113.865 165.44C121.598 166.111 128.239 164.173 135.598 159.327C142.444 154.529 148.215 148.365 152.545 141.226C157.914 132.713 161.145 123.976 161.414 118.638C161.742 111.662 159.364 104.828 154.773 99.5531C150.48 94.4241 143.705 89.474 133.264 85.5378L131.664 84.9265C107.119 75.6674 78.4155 64.8279 66.3448 72.8942C65.443 73.5115 64.5881 74.1942 63.7871 74.9368C58.6477 80.0337 55.5159 86.8012 54.9622 94.0067C54.1671 103.234 56.6327 112.448 61.9324 120.054C63.4706 122.373 65.1964 124.562 67.0927 126.6C77.2039 137.544 86.1485 145.983 94.6892 151.261C102.901 156.345 110.739 158.477 118.965 157.076C125.854 155.722 132.137 152.231 136.914 147.101C142.491 141.586 146.462 134.665 148.401 127.077C149.433 121.888 150.091 116.342 148.88 111.406C147.668 106.471 144.752 102.356 138.559 99.1953C136.346 98.0621 133.309 96.3027 129.869 94.3197C113.865 85.0756 88.1378 70.2253 76.9646 80.9008C74.6014 83.1671 72.4774 85.001 70.6825 86.656C61.3042 95.0205 57.9986 97.9726 69.8 113.315C71.9688 116.133 73.5244 118.205 75.0052 120.174C86.6121 135.516 92.8045 143.716 105.982 145.893C111.965 146.892 120.506 143.582 127.61 138.304C130.802 135.975 133.639 133.198 136.031 130.059C138.084 127.48 139.498 124.457 140.16 121.232C140.425 119.786 140.387 118.3 140.05 116.869C139.713 115.437 139.083 114.09 138.2 112.912C137.539 112.035 136.83 111.193 136.076 110.393C129.405 103.176 117.275 95.7511 105.832 90.8159C94.8686 86.1044 84.892 83.6294 81.6912 85.9851L81.5565 86.1043C80.0724 87.4378 78.5144 88.6872 76.8898 89.8467C71.4752 93.8873 66.8983 97.3017 76.6356 109.722L77.7574 111.213C90.546 127.614 101.958 142.18 113.894 135.963C119.977 133.01 125.619 129.232 130.662 124.736C132.109 123.421 133.283 121.835 134.117 120.069C134.334 119.602 134.446 119.093 134.446 118.578C134.446 118.063 134.334 117.554 134.117 117.087C133.896 116.67 133.614 116.288 133.279 115.954C129.809 112.405 117.095 102.982 105.219 97.0632C101.246 94.9366 96.9906 93.3805 92.5802 92.4411C89.7083 91.9788 87.5246 92.2473 86.5972 93.6339C86.2494 94.1807 86.0249 94.7962 85.9391 95.438C85.8493 95.93 85.7745 96.4369 85.7147 96.9289C84.8741 103.805 86.5007 110.755 90.3066 116.55L90.6806 117.102C90.3493 116.127 90.0845 115.131 89.8878 114.12C89.4004 111.212 89.1254 108.271 89.0652 105.323C88.9904 103.832 88.9306 102.341 88.781 101.059C88.6514 100.157 88.8139 99.2381 89.2447 98.4349C90.2618 96.6159 92.2362 96.0493 94.8836 96.4221C97.0479 96.8206 99.1602 97.4607 101.181 98.3305C109.437 101.685 120.939 108.767 124.948 112.987C126.115 114.137 126.876 115.633 127.117 117.251C127.243 118.426 127.115 119.615 126.74 120.736C126.366 121.858 125.755 122.886 124.948 123.752C123.311 125.603 121.33 127.122 119.115 128.225C114.18 130.826 108.594 131.94 103.035 131.43C102.744 131.4 102.455 131.356 102.168 131.296C96.1849 130.238 90.1272 125.869 85.954 119.532C81.4532 112.697 79.5245 104.494 80.5095 96.3773C80.5095 95.7958 80.674 95.1994 80.7788 94.603C80.9871 93.2266 81.4979 91.9131 82.2745 90.7562C84.563 87.4015 88.5417 86.5367 93.4327 87.327C98.3659 88.34 103.127 90.0574 107.568 92.4261C119.952 98.5839 133.354 108.559 137.049 112.346C137.751 113.05 138.346 113.854 138.814 114.731C139.402 115.881 139.725 117.147 139.758 118.437C139.792 119.727 139.536 121.008 139.008 122.186C137.917 124.642 136.334 126.849 134.356 128.672C130.019 132.936 123.348 137.171 116.333 140.824C100.552 149.039 87.9135 132.817 73.659 114.627L72.5372 113.136C59.4644 96.4369 66.0307 91.5614 73.8086 85.7764C75.273 84.7287 76.6763 83.5987 78.0116 82.3918C78.1911 82.2278 78.3856 82.0787 78.595 81.9147C83.4113 78.3363 95.4221 80.7368 107.941 86.1342C119.907 91.3079 132.771 99.2102 139.95 107.008C140.838 107.951 141.667 108.947 142.433 109.99C143.759 111.722 144.709 113.71 145.224 115.828C145.738 117.945 145.807 120.146 145.425 122.291C144.63 126.355 142.877 130.173 140.309 133.428C137.611 136.971 134.412 140.105 130.811 142.732C122.689 148.786 112.668 152.528 105.219 151.29C89.9776 148.771 83.3215 139.989 70.9069 123.543C69.1568 121.232 67.2722 118.742 65.7316 116.744C50.9536 97.4956 55.2614 93.7084 67.2273 82.9285C69.1269 81.2437 71.2359 79.3651 73.3599 77.3225C87.375 63.9036 115.241 79.9317 132.502 89.9362C135.717 91.785 138.485 93.4251 140.967 94.6626C148.745 98.6286 152.5 104.19 154.01 110.318C155.521 116.446 154.743 122.484 153.592 128.21C151.487 136.795 147.083 144.649 140.848 150.933C135.267 156.879 127.933 160.899 119.907 162.413C110.32 164.038 101.315 161.638 92.0118 155.883C83.0373 150.321 73.7488 141.599 63.3234 130.312C61.2454 128.067 59.3451 125.664 57.6396 123.126C51.6703 114.501 48.9039 104.072 49.8169 93.6339C50.5191 85.1727 54.2326 77.2405 60.2871 71.2691C61.2862 70.3424 62.3564 69.4949 63.488 68.7344C77.8022 59.1473 107.867 70.4937 133.578 80.2001L135.164 80.8113C146.547 85.1054 154.04 90.6071 158.871 96.3624C164.302 102.666 167.111 110.8 166.724 119.1C166.395 125.228 162.88 134.979 157.032 144.223C152.306 152.004 146.004 158.717 138.529 163.934C130.123 169.451 122.465 171.672 113.476 170.882C104.77 170.122 94.9285 166.499 81.9155 160.326C80.1506 159.491 78.4454 158.581 76.83 157.627L76.845 157.478ZM96.9627 123.424C98.7564 124.684 100.794 125.557 102.946 125.988L103.559 126.078C108.065 126.478 112.59 125.566 116.587 123.454C118.188 122.661 119.624 121.573 120.82 120.248C121.141 119.939 121.396 119.569 121.568 119.158C121.74 118.748 121.827 118.307 121.822 117.863C121.717 117.346 121.449 116.876 121.059 116.521C118.651 113.986 113.087 110.244 107.343 107.098C108.459 108.085 109.356 109.293 109.976 110.646C110.735 112.238 110.965 114.029 110.634 115.76C110.233 117.684 109.143 119.396 107.568 120.576C105.627 121.995 103.377 122.935 101.001 123.319C99.6488 123.611 98.2534 123.647 96.8879 123.424H96.9627ZM106.595 106.635C104.168 105.323 101.672 104.144 99.1166 103.102C97.4917 102.386 95.7907 101.855 94.046 101.521C94.046 102.565 94.1806 103.743 94.2404 104.995C94.3038 107.678 94.5487 110.352 94.9734 113.002C95.6165 116.237 96.9328 118.772 100.044 118.161C101.599 117.932 103.079 117.345 104.367 116.446C104.94 116.033 105.348 115.431 105.518 114.746C105.624 114.09 105.519 113.417 105.219 112.823C104.823 111.991 104.233 111.265 103.499 110.706L106.491 106.65L106.595 106.635Z" fill="#F5DEB6"/>
<path d="M38.3895 87.4014C37.4081 95.726 37.5338 104.143 38.7635 112.435C40.0405 103.098 43.1783 94.11 47.9922 85.9999C55.1867 73.3861 66.4048 60.5487 81.4071 49.247C96.3833 37.7693 114.397 30.9029 133.235 29.4914C150.705 28.4328 167.637 32.8908 181.098 43.3874C194.844 54.0778 201.007 66.6767 202.188 82.1532C203.355 97.2271 199.735 114.955 193.872 136.157C189.25 152.394 179.933 166.914 167.083 177.905C150.226 192.665 130.527 199.703 121.209 199.584C112.384 199.479 98.7727 195.647 84.264 186.731C71.5053 178.748 60.2969 168.535 51.1781 156.583C27.2463 125.541 33.2292 86.7305 33.2292 86.6261L38.4195 87.4014H38.3895ZM61.409 160.609C68.8917 168.973 77.5347 176.227 87.076 182.154C100.687 190.533 113.311 194.082 121.358 194.231C129.779 194.35 147.863 187.73 163.688 173.864C175.721 163.558 184.449 149.952 188.786 134.74C194.5 113.971 198.045 96.8394 196.953 82.5557C195.876 68.6298 190.312 57.2089 177.853 47.5771C165.393 37.9453 149.733 33.7854 133.489 34.7694C115.679 36.1129 98.6526 42.6169 84.5033 53.4814C70.0843 64.3507 59.3299 76.6066 52.4944 88.6389C45.2849 101.297 42.3981 113.613 44.1182 123.603C45.7481 132.497 49.7349 140.796 55.6654 147.637C62.5655 155.607 71.0112 162.104 80.4947 166.737C84.2042 168.601 87.9734 170.852 92.0418 173.193C107.657 182.318 125.561 192.785 137.049 181.811C146.397 172.865 163.972 150.709 176.551 127.971C185.137 112.45 191.329 96.7648 190.776 85.1948C190.621 82.255 190.063 79.3503 189.116 76.562C185.63 66.125 177.15 57.179 167.248 50.8125C157.346 44.446 145.859 40.808 136.48 41.2553C134.171 41.3492 131.886 41.7606 129.69 42.4778C121.544 45.1025 113.554 48.1838 105.758 51.7071C108.531 50.6522 111.368 49.7757 114.254 49.083C126.56 46.1565 139.418 46.4595 151.572 49.9626L153.068 50.3951C171.406 55.9267 193.229 62.5168 182.669 97.734C182.071 99.717 181.353 101.745 180.515 103.802C173.769 120.412 159.47 139.169 144.827 153.124C129.809 167.468 113.999 176.846 105.025 174.117L104.083 173.789C91.7204 168.71 80.2099 161.776 69.9497 153.229C61.8278 146.221 55.097 137.946 52.285 128.762C49.0243 118.071 47.3341 111.809 48.8747 104.742C50.4153 97.6743 54.8577 90.786 63.9967 78.5301C72.2069 67.4747 82.6722 58.2773 94.7043 51.5431C105.668 45.2958 117.036 41.1956 128.029 37.4831C130.69 36.6136 133.458 36.1119 136.256 35.9921C146.726 35.4851 159.246 39.4363 170.09 46.429C180.934 53.4217 190.282 63.307 194.111 74.8771C195.21 78.1283 195.854 81.5149 196.026 84.9413C196.639 97.6147 190.163 114.254 181.158 130.521C168.34 153.721 150.301 176.428 140.683 185.688C126.339 199.39 106.61 187.849 89.4243 177.815C85.4456 175.489 81.6016 173.238 78.1464 171.493C72.1871 168.512 66.5743 164.887 61.409 160.684V160.609ZM87.5546 62.3975C80.17 67.8144 73.6453 74.3083 68.1997 81.6611C59.5394 93.3057 55.2615 99.9108 53.9752 105.86C52.6888 111.809 54.2743 117.385 57.2808 127.226C59.7637 135.337 65.8963 142.822 73.3451 149.233C83.1704 157.421 94.1976 164.059 106.042 168.914L106.521 169.078C113.625 171.225 127.461 162.458 141.237 149.322C155.416 135.799 169.222 117.728 175.639 101.834C176.396 99.9951 177.06 98.119 177.628 96.2132C186.677 66.0355 167.592 60.2654 151.528 55.4197L150.032 54.9873C138.771 51.7559 126.863 51.4838 115.465 54.1971C104.702 56.7071 94.8649 62.1838 87.076 70.0016C77.3686 79.7974 70.9967 87.4461 67.6313 94.7818C64.4155 101.849 64.0266 108.767 66.1356 117.355C68.3474 125.41 72.2132 132.919 77.4883 139.407C83.6956 147.324 90.8303 153.303 95.7662 155.346C102.22 157.983 109.448 158.02 115.929 155.45C122.181 153.109 129.106 148.353 136.286 139.81L137.393 138.498C154.31 118.399 174.083 94.9011 170.538 80.8112C170.266 79.7516 169.91 78.7147 169.476 77.71C166.424 71.1738 161.115 65.9504 154.519 62.9939C146.103 59.1609 136.601 58.4112 127.685 60.8767C124.994 61.5565 122.363 62.454 119.818 63.5605C106.147 69.5244 95.2278 75.0858 87.405 81.4524C79.9263 87.5058 75.2596 94.2153 73.8237 102.446C72.7688 109.417 73.941 116.542 77.1742 122.812C80.523 129.851 85.7231 135.854 92.2213 140.182C96.7086 142.896 101.749 145.371 106.805 145.878C111.636 146.355 116.692 144.998 121.762 140.212C123.572 138.483 126.249 136.216 129.241 133.622C143.271 121.59 165.842 102.311 159.5 88.1171C158.154 85.1351 157.107 82.5557 156.179 80.2596C151.453 68.6 149.778 64.4849 131.41 70.5085C128.044 71.6119 125.561 72.3872 123.228 73.1327C104.92 78.9625 95.138 82.0786 88.6914 93.7978C85.6999 99.1654 86.014 108.305 88.5867 116.774C89.7179 120.561 91.3796 124.17 93.5226 127.494C95.2648 130.282 97.6362 132.625 100.448 134.338C101.717 135.077 103.128 135.541 104.59 135.7C106.051 135.859 107.529 135.71 108.929 135.262C109.976 134.935 111.004 134.551 112.01 134.114C120.984 130.208 132.053 121.232 140.519 112.062C148.626 103.295 154.295 94.6625 153.128 90.8754V90.7114C152.346 88.8513 151.667 86.9499 151.094 85.0158C149.104 78.53 147.444 73.0879 132.487 78.1125L130.767 78.6941C111.098 85.3141 93.5675 91.2184 95.4222 104.578C96.4393 112.033 98.0547 119.16 100.373 124.154C101.098 125.959 102.17 127.605 103.529 129C103.904 129.37 104.355 129.653 104.851 129.831C105.347 130.009 105.876 130.076 106.401 130.029C106.86 129.945 107.307 129.805 107.732 129.611C112.219 127.509 125.352 118.653 134.88 109.408C138.218 106.352 141.104 102.837 143.451 98.9715C144.842 96.4219 145.32 94.2749 144.333 92.9031C143.928 92.3975 143.418 91.9854 142.837 91.6954C142.403 91.442 141.955 91.2035 141.506 90.9798C135.32 87.8828 128.226 87.0947 121.508 88.7582L120.865 88.9222C121.921 88.9475 122.975 89.0371 124.021 89.1906C126.915 89.7105 129.769 90.4329 132.562 91.3525C134.057 91.8148 135.448 92.2323 136.66 92.5156C137.557 92.6935 138.372 93.1596 138.978 93.8425C140.354 95.3335 140.235 97.4805 138.978 99.8064C137.881 101.716 136.571 103.497 135.074 105.114C129.166 111.779 118.621 120.293 113.356 122.678C111.882 123.383 110.222 123.603 108.615 123.304C107.467 123.025 106.393 122.503 105.466 121.772C104.539 121.041 103.782 120.119 103.245 119.07C102.041 116.903 101.274 114.523 100.986 112.062C100.182 106.526 101.003 100.877 103.35 95.7957C103.469 95.5422 103.619 95.2739 103.753 95.0204C106.745 89.6827 112.878 85.4631 120.207 83.6292C128.173 81.6507 136.587 82.5926 143.914 86.2831C144.438 86.5515 144.976 86.8348 145.5 87.133C146.726 87.796 147.792 88.7168 148.626 89.8317C151.019 93.1119 150.495 97.1674 148.117 101.521C145.511 105.838 142.303 109.763 138.589 113.181C128.658 122.812 114.807 132.131 110.006 134.368C109.115 134.803 108.161 135.094 107.179 135.232C105.91 135.404 104.619 135.287 103.402 134.892C102.185 134.497 101.073 133.834 100.149 132.951C98.2218 131.091 96.695 128.859 95.6615 126.391C93.1038 120.859 91.3538 113.136 90.2619 105.293C87.8089 87.6399 107.298 81.0796 129.151 73.729L130.871 73.1475C150.929 66.3784 153.307 74.2061 156.164 83.4801C156.665 85.2136 157.254 86.9205 157.929 88.5943C158.028 88.8227 158.113 89.0566 158.184 89.295C159.949 95.0502 153.696 105.592 144.423 115.611C135.538 125.243 123.826 134.711 114.134 138.9C112.949 139.419 111.735 139.872 110.499 140.257C108.431 140.916 106.248 141.137 104.09 140.906C101.932 140.675 99.8453 139.997 97.965 138.915C94.4056 136.799 91.4054 133.864 89.2149 130.357C86.7805 126.618 84.8966 122.551 83.6208 118.28C80.6293 108.573 80.4797 97.8682 84.1294 91.2332C91.6081 77.6652 102.078 74.3255 121.687 68.0931L129.824 65.4839C152.859 57.9395 154.998 63.2325 161.085 78.2468C162.043 80.6025 163.105 83.2266 164.316 85.9104C172.273 103.638 147.863 124.572 132.681 137.573C129.869 139.989 127.386 142.046 125.412 143.999C119.085 149.963 112.593 151.693 106.341 151.082C100.089 150.47 94.6444 147.712 89.5888 144.685C82.213 139.802 76.3043 133.015 72.4925 125.049C68.7385 117.774 67.3829 109.504 68.6185 101.417C70.2937 91.8297 75.5588 84.1212 84.0845 77.2477C92.326 70.6128 103.634 64.7682 117.724 58.6998C120.521 57.4768 123.412 56.4797 126.369 55.7178C136.461 52.9562 147.206 53.8273 156.718 58.178C164.477 61.6889 170.709 67.8649 174.278 75.5778C174.821 76.8326 175.261 78.129 175.594 79.4545C179.812 96.1834 159.141 120.785 141.386 141.837L140.28 143.135C132.442 152.453 124.769 157.702 117.739 160.326C110.037 163.345 101.462 163.281 93.8068 160.147C88.1379 157.791 80.1507 151.201 73.4198 142.598C67.6673 135.52 63.4594 127.324 61.065 118.533C58.6868 108.737 59.1654 100.776 62.9048 92.5304C66.5394 84.5536 73.2254 76.4724 83.3815 66.2442C84.7576 64.8576 86.1785 63.5605 87.6144 62.3378L87.5546 62.3975ZM112.848 92.7988C111.024 94.0845 109.495 95.7411 108.36 97.6594L108.061 98.1962C106.188 102.327 105.534 106.904 106.177 111.391C106.378 113.168 106.922 114.889 107.777 116.461C107.959 116.867 108.222 117.232 108.552 117.532C108.881 117.832 109.269 118.061 109.692 118.205C110.206 118.281 110.732 118.187 111.187 117.937C114.373 116.446 119.758 112.495 124.649 108.141C123.345 108.853 121.911 109.295 120.431 109.438C118.682 109.615 116.923 109.234 115.405 108.35C113.737 107.327 112.494 105.739 111.905 103.877C111.213 101.565 111.079 99.1228 111.516 96.7499C111.694 95.3806 112.125 94.056 112.788 92.8435L112.848 92.7988ZM125.412 107.5C127.551 105.547 129.57 103.534 131.23 101.685C132.434 100.378 133.497 98.949 134.401 97.4209C133.399 97.1525 132.277 96.8095 131.081 96.4368C128.538 95.5994 125.939 94.9418 123.303 94.4688C120.042 93.9767 117.23 94.3793 116.752 97.4507C116.454 98.9939 116.511 100.584 116.916 102.103C117.115 102.782 117.55 103.368 118.143 103.758C118.722 104.075 119.385 104.206 120.042 104.13C120.958 104.037 121.837 103.719 122.6 103.206L125.397 107.44L125.412 107.5Z" fill="#FFF3DA"/>
<path d="M47.6928 155.316C53.2578 161.567 59.6364 167.048 66.6589 171.613C60.5193 164.455 55.8763 156.147 53.0027 147.175C48.3211 133.413 46.1373 116.506 47.6181 97.7341C48.9135 78.8882 55.6682 60.8222 67.0627 45.7283C77.8321 31.877 92.3707 22.1111 109.138 18.8905C126.234 15.6402 139.741 19.3526 152.081 28.6862C164.136 37.7962 174.951 52.1992 186.976 70.6726C196.053 84.9197 200.734 101.51 200.438 118.384C200.333 140.749 192.556 160.266 186.303 167.199C180.32 173.76 168.474 181.483 152.245 186.463C137.924 190.766 122.941 192.458 108.016 191.458C68.8726 188.983 43.8189 158.79 43.6992 158.656L47.7228 155.271L47.6928 155.316ZM117.679 186.403C128.886 186.321 140.023 184.633 150.75 181.394C166.021 176.712 177.06 169.615 182.474 163.621C188.113 157.374 195.128 139.407 195.233 118.325C195.536 102.479 191.162 86.8938 182.654 73.5055C170.912 55.4645 160.427 41.4641 149 32.8312C137.871 24.4221 125.681 21.0823 110.2 24.0195C94.719 26.9568 81.2723 36.0369 71.3106 48.8892C60.5191 63.1659 54.1175 80.2585 52.8831 98.0919C51.3873 116.118 53.5263 132.385 57.9836 145.416C62.6802 159.208 69.9495 169.525 78.6099 174.848C86.3264 179.529 95.1692 182.043 104.202 182.124C114.741 182.221 125.192 180.192 134.925 176.16C138.784 174.669 143.002 173.178 147.384 171.687C164.54 165.992 184.224 159.461 183.626 143.582C183.132 130.64 178.181 102.744 169.491 78.2617C163.508 61.5328 155.94 46.4887 146.905 39.2574C144.63 37.4311 142.114 35.9259 139.427 34.7844C129.375 30.55 116.991 30.9227 105.698 34.188C94.4049 37.4533 84.0693 43.6409 78.191 50.9915C76.7305 52.8065 75.5276 54.8133 74.6162 56.9554C71.1956 64.7977 68.2242 72.8272 65.7166 81.0051C66.7585 78.2195 67.9827 75.5051 69.3811 72.8792C75.3469 61.6933 84.1045 52.2292 94.8088 45.4003L96.0951 44.6101C112.369 34.4863 131.724 22.439 151.079 53.6753C152.17 55.4346 153.218 57.3282 154.19 59.3112C162.147 75.3841 166.724 98.5243 167.472 118.772C168.25 139.646 164.839 157.612 156.807 162.607C156.527 162.785 156.237 162.95 155.94 163.099C143.972 169.027 131.165 173.095 117.963 175.161C107.358 176.652 96.7233 176.205 88.048 172.179C77.8919 167.572 72.0884 164.724 67.8256 158.865C63.5627 153.005 61.364 145.088 58.2229 130.133C55.3853 116.633 55.4311 102.687 58.3575 89.2056C60.9451 76.8304 65.4025 65.5734 69.9046 54.9128C71.0113 52.3419 72.4657 49.934 74.2273 47.7561C80.7787 39.5556 92.0267 32.7567 104.382 29.1783C116.736 25.5999 130.378 25.257 141.596 29.9835C144.755 31.309 147.715 33.0652 150.391 35.202C160.277 43.134 168.429 59.0578 174.652 76.5322C183.521 101.521 188.562 130.118 189.07 143.403C189.833 163.248 168.13 170.45 149.254 176.727C144.886 178.218 140.668 179.575 137.078 181.021C130.832 183.525 124.325 185.33 117.679 186.403ZM61.5285 101.76C60.6891 110.909 61.2337 120.132 63.1439 129.119C66.1354 143.329 68.2444 150.918 71.8341 155.823C75.4239 160.728 80.6441 163.278 89.9925 167.468C97.7254 170.971 107.373 171.314 117.095 169.972C129.731 167.99 141.988 164.093 153.442 158.417L153.891 158.164C160.188 154.243 162.79 138.05 162.087 118.996C161.354 99.389 156.972 77.054 149.358 61.6819C148.446 59.833 147.474 58.0886 146.472 56.4634C129.884 29.6256 112.952 40.2265 98.6977 49.0979L97.3964 49.9031C87.5183 56.2414 79.4418 65.006 73.9431 75.3543C68.6569 85.1167 66.2165 96.1588 66.8982 107.232C67.7956 121.023 69.3063 130.864 72.582 138.214C75.753 145.312 80.659 150.142 88.4668 154.302C95.9657 157.975 104.155 160.037 112.503 160.356C122.525 160.937 131.724 159.521 136.525 157.18C142.787 154.056 147.606 148.655 149.987 142.091C152.38 135.829 153.397 127.479 151.752 116.431L151.512 114.731C147.668 88.7285 143.181 58.3123 130.288 51.6475C129.324 51.1546 128.324 50.736 127.296 50.3951C120.365 48.3542 112.926 48.8838 106.356 51.8861C97.9049 55.6881 91.0605 62.326 87.0159 70.6427C85.754 73.1223 84.684 75.6943 83.8151 78.3363C79.1783 92.5156 76.1718 104.444 75.7081 114.493C75.2594 124.169 77.2039 132.072 82.424 138.602C86.9347 143.999 93.0461 147.83 99.8793 149.546C107.381 151.704 115.332 151.771 122.869 149.74C127.895 148.129 133.055 146.012 136.764 142.553C140.474 139.094 142.658 134.532 142.418 127.569C142.329 125.079 142.418 121.605 142.418 117.594C142.702 99.0759 143.166 69.3158 128.403 64.7385C125.277 63.7693 122.659 62.8449 120.326 62.0249C108.48 57.865 104.307 56.4038 96.6485 74.1913C95.2425 77.4566 94.1955 79.8273 93.1933 82.0787C85.4454 99.6873 81.3022 109.11 85.7894 121.709C87.8535 127.494 94.8686 133.324 102.916 136.977C106.49 138.646 110.289 139.786 114.194 140.361C117.437 140.911 120.765 140.681 123.901 139.69C125.294 139.221 126.574 138.466 127.658 137.475C128.743 136.484 129.608 135.278 130.198 133.935C130.644 132.927 131.038 131.897 131.38 130.849C134.371 121.5 135.014 107.276 133.758 94.8416C132.561 82.9136 129.854 72.9836 126.279 71.3435H126.13C124.245 70.6892 122.397 69.9326 120.595 69.0772C114.433 66.2741 109.243 63.9184 103.125 78.5003L102.422 80.1851C94.36 99.3443 87.1655 116.431 98.3836 123.871C104.591 127.986 111.038 131.535 116.332 133.1C118.175 133.743 120.13 134.002 122.076 133.861C122.603 133.826 123.116 133.674 123.577 133.416C124.037 133.158 124.434 132.8 124.739 132.37C124.994 131.975 125.186 131.542 125.307 131.088C126.728 126.316 128.777 110.601 128.164 97.3166C128.093 92.8016 127.383 88.3192 126.055 84.002C125.068 81.2586 123.781 79.529 122.106 79.3203C121.464 79.2839 120.821 79.3856 120.221 79.6185C119.743 79.7825 119.264 79.9614 118.8 80.1553C112.356 82.7558 107.053 87.5612 103.843 93.7084L103.559 94.3047C104.265 93.5225 105.024 92.7902 105.832 92.113C108.134 90.2833 110.563 88.6191 113.102 87.1331C114.433 86.2981 115.674 85.5377 116.677 84.8071C117.403 84.2543 118.29 83.951 119.204 83.9424C121.283 83.9424 122.749 85.4334 123.692 87.8935C124.391 89.9831 124.858 92.1432 125.083 94.3346C126.16 103.281 125.546 116.699 123.841 122.291C123.406 123.864 122.472 125.255 121.179 126.257C120.216 126.936 119.117 127.399 117.958 127.615C116.799 127.831 115.607 127.795 114.463 127.509C112.044 126.953 109.754 125.941 107.717 124.527C103.051 121.449 99.3748 117.095 97.1272 111.988L96.813 111.168C94.8087 105.383 95.7062 97.9875 99.2062 91.2333C102.967 83.9961 109.185 78.3262 116.751 75.235L118.441 74.5939C119.751 74.115 121.15 73.9267 122.54 74.0422C126.578 74.415 129.256 77.4864 130.931 82.1532C132.45 86.9822 133.266 92.0032 133.354 97.0631C133.997 110.914 131.858 127.494 130.363 132.579C130.085 133.532 129.672 134.44 129.136 135.277C128.43 136.342 127.491 137.235 126.39 137.888C125.29 138.541 124.055 138.938 122.779 139.049C120.111 139.28 117.424 138.965 114.882 138.125C109.048 136.395 102.108 132.593 95.5267 128.225C80.7039 118.384 88.6912 99.389 97.6507 78.0977L98.3537 76.4278C106.565 56.8809 114.014 60.2506 122.824 64.2613C124.45 65.034 126.118 65.7159 127.82 66.304C128.061 66.3816 128.296 66.4763 128.523 66.5873C133.982 69.0623 137.722 80.7517 139.098 94.3346C140.414 107.396 139.741 122.455 136.465 132.519C136.074 133.753 135.61 134.963 135.074 136.142C134.204 138.13 132.927 139.916 131.325 141.384C129.723 142.853 127.831 143.972 125.771 144.67C121.84 145.945 117.66 146.262 113.58 145.595C109.176 144.947 104.888 143.666 100.852 141.793C91.6378 137.603 83.5009 130.655 80.9582 123.528C75.768 108.931 80.1954 98.8374 88.5117 79.9763C89.6784 77.3075 90.9348 74.4597 91.9369 72.1337C101.54 49.7689 106.894 51.7221 122.166 57.0897C124.559 57.9246 127.221 58.8639 130.048 59.7436C148.566 65.4839 147.997 97.6744 147.758 117.698C147.758 121.411 147.638 124.676 147.758 127.405C148.072 136.157 145.036 142.136 140.429 146.43C135.822 150.724 130.183 152.99 124.574 154.779C116.055 157.11 107.057 157.064 98.5631 154.645C90.6596 152.635 83.5998 148.177 78.4004 141.912C72.4175 134.308 70.0542 125.243 70.5628 114.284C71.0564 103.713 74.1525 91.3526 78.9389 76.726C79.8851 73.8223 81.0553 70.9959 82.439 68.2721C87.0384 58.8715 94.7972 51.3747 104.367 47.0851C112.106 43.5785 120.857 42.9852 129.001 45.4152C130.297 45.8067 131.558 46.3054 132.771 46.9062C148.072 54.7935 152.769 86.656 156.792 113.896L157.032 115.581C158.812 127.643 157.66 136.887 154.968 143.91C152.145 151.707 146.412 158.117 138.963 161.802C133.459 164.501 123.243 166.141 112.354 165.514C103.257 165.154 94.3386 162.888 86.1783 158.865C77.2039 154.183 71.6397 148.547 67.9452 140.287C64.3854 132.28 62.7699 121.903 61.8276 107.485C61.708 105.532 61.6631 103.609 61.7229 101.715L61.5285 101.76ZM100.986 102.863C100.768 105.075 101.007 107.308 101.689 109.423L101.914 109.99C103.738 114.135 106.731 117.662 110.529 120.144C111.992 121.161 113.637 121.89 115.375 122.291C115.8 122.424 116.249 122.467 116.691 122.418C117.134 122.37 117.562 122.23 117.948 122.007C118.352 121.668 118.635 121.208 118.756 120.695C119.788 117.355 120.356 110.661 120.251 104.101C119.927 105.558 119.306 106.933 118.427 108.141C117.403 109.563 115.96 110.632 114.298 111.198C112.417 111.774 110.389 111.641 108.6 110.825C106.413 109.792 104.501 108.26 103.02 106.352C102.105 105.311 101.394 104.107 100.926 102.803L100.986 102.863ZM120.311 103.161C120.277 100.411 120.103 97.6638 119.788 94.931C119.627 93.1616 119.265 91.4159 118.711 89.7274C117.843 90.294 116.841 90.9203 115.719 91.5763C113.41 92.9143 111.196 94.4088 109.093 96.0493C106.58 98.1814 105.01 100.522 107.059 102.997C108.007 104.255 109.236 105.276 110.649 105.979C111.289 106.278 112.015 106.342 112.698 106.158C113.306 105.928 113.828 105.517 114.194 104.98C114.732 104.225 115.076 103.349 115.196 102.431L120.221 103.146L120.311 103.161Z" fill="#F5DEB6"/>
<path fill-rule="evenodd" clip-rule="evenodd" d="M58.4326 168.824C58.4326 168.824 61.4989 153.512 79.373 149.62C97.2471 145.729 148.372 138.587 156.06 145.908C163.748 153.229 165.558 160.609 160.891 164.322C156.224 168.034 59.9882 173.268 58.4775 168.795L58.4326 168.824Z" fill="#DBDBDB"/>
<path fill-rule="evenodd" clip-rule="evenodd" d="M58.4323 168.824V168.69C61.1545 164.799 66.5242 157.821 71.4751 155.42C78.4902 152.021 142.269 145.371 149.478 147.101C156.134 148.696 161.01 153.497 162.79 161.832C162.337 162.805 161.661 163.658 160.816 164.322C156.134 168.034 59.913 173.268 58.4023 168.795L58.4323 168.824Z" fill="#FDFEFF"/>
<path fill-rule="evenodd" clip-rule="evenodd" d="M64.325 161.295L64.4447 161.191L64.5494 161.071L64.6541 160.952L64.7588 160.833L64.8785 160.728L64.9832 160.609L65.0879 160.505H65.1627L65.2674 160.4H65.3422L65.4468 160.281L65.5516 160.177L66.1349 159.565L66.2246 159.476L66.3294 159.357H66.4191L66.5238 159.252L66.6136 159.163L66.7332 159.058L66.8379 158.969L66.9576 158.865L67.0623 158.775L67.1819 158.671L67.2866 158.566L67.511 158.373L67.6306 158.074L67.7503 157.985L67.84 157.895L67.9597 157.806H68.0644L68.1691 157.717H68.2589L68.6029 157.448H68.7225L68.8272 157.359L69.0366 157.21L69.2012 157.09H69.3208H69.3956L69.5003 157.016H69.5751L69.964 156.777H70.0537L70.2631 156.673L70.4725 156.554L70.6969 156.434L70.9213 156.33C77.9363 152.93 141.715 146.281 148.924 148.01L149.238 148.1H149.478H149.597H149.822H150.031H150.196H150.315H150.45H150.659H150.824H150.944H151.093L151.303 148.189H151.437H151.557L151.751 148.279L151.961 148.383H152.095H152.23L152.424 148.487L152.634 148.592H152.738L152.903 148.681L153.097 148.8L153.262 148.905L153.397 148.994H153.516H153.621L153.8 149.113L153.965 149.233L154.1 149.337H154.189L154.309 149.427L154.488 149.561L154.638 149.68L154.758 149.77H154.832L155.266 150.127H155.356L155.476 150.232L155.625 150.351L155.79 150.5C156.059 150.768 156.328 151.037 156.582 151.32C156.732 151.469 156.867 151.633 157.016 151.797L157.136 151.946C157.889 152.872 158.545 153.871 159.095 154.928L159.2 155.137C149.508 158.298 81.7505 162.219 62.7246 160.445L64.325 161.295Z" fill="#FDFEFF"/>
<path fill-rule="evenodd" clip-rule="evenodd" d="M64.3252 161.295C66.349 158.927 68.7803 156.938 71.5048 155.42C78.5198 152.021 142.298 145.371 149.508 147.101C151.943 147.651 154.223 148.741 156.178 150.29C158.133 151.839 159.713 153.806 160.801 156.047C151.108 159.208 83.351 163.129 64.3252 161.355V161.295Z" fill="#F2F2F2"/>
<path fill-rule="evenodd" clip-rule="evenodd" d="M59.374 157.031C59.374 157.031 62.4403 141.718 80.3144 137.827C98.1886 133.935 149.313 126.779 157.001 134.114C164.689 141.45 166.499 148.815 161.817 152.528C157.136 156.241 60.9146 161.474 59.4039 157.001L59.374 157.031Z" fill="#DBDBDB"/>
<path fill-rule="evenodd" clip-rule="evenodd" d="M59.3746 157.031V156.897C62.0969 153.005 67.4666 146.012 72.4325 143.612C79.4326 140.227 143.226 133.577 150.435 135.307C157.092 136.902 161.953 141.688 163.733 150.023C163.295 151.009 162.616 151.87 161.758 152.528C157.077 156.241 60.8554 161.474 59.3447 157.001L59.3746 157.031Z" fill="#FDFEFF"/>
<path fill-rule="evenodd" clip-rule="evenodd" d="M68.2295 146.564C69.5062 145.393 70.9289 144.391 72.4624 143.582C79.4625 140.197 143.256 133.548 150.465 135.277C154.093 136.096 157.342 138.101 159.694 140.973C150.181 143.955 91.7725 147.444 68.2295 146.534V146.564Z" fill="#F2F2F2"/>
<path fill-rule="evenodd" clip-rule="evenodd" d="M58.4326 142.016C58.4326 142.016 61.4989 126.704 79.373 122.827C97.2471 118.951 148.372 111.779 156.06 119.1C163.748 126.421 165.558 133.816 160.891 137.528C156.224 141.241 59.9882 146.474 58.4775 142.001L58.4326 142.016Z" fill="#DBDBDB"/>
<path fill-rule="evenodd" clip-rule="evenodd" d="M58.4323 142.016V141.882C61.1545 137.991 66.5242 131.013 71.4751 128.612C78.4902 125.213 142.269 118.578 149.478 120.308C156.134 121.903 161.01 126.689 162.79 135.024C162.338 136.001 161.662 136.859 160.816 137.528C156.134 141.241 59.913 146.474 58.4023 142.001L58.4323 142.016Z" fill="#FDFEFF"/>
<path fill-rule="evenodd" clip-rule="evenodd" d="M64.3255 134.487L64.4452 134.368L64.6396 134.219L64.7443 134.114L64.849 133.995L64.9687 133.876L65.0734 133.771L65.1781 133.652H65.2529L65.3576 133.533H65.4324L65.5371 133.428L65.6418 133.324L66.1354 132.728L66.2251 132.653L66.3298 132.549L66.4196 132.459L66.5243 132.355L66.614 132.265L66.7337 132.161L66.8384 132.057L66.958 131.952L67.0627 131.848L67.1824 131.744L67.2871 131.639L67.5115 131.445L67.6311 131.237L67.7508 131.132L67.8405 131.058L67.9602 130.953H68.0649L68.1696 130.864H68.2593L68.6033 130.595L68.723 130.506H68.8277L69.0371 130.372L69.2017 130.267L69.3213 130.178H69.3961L69.5008 130.103H69.5756L69.9645 129.865H70.0542L70.2636 129.746L70.473 129.626L70.6974 129.507L70.9218 129.388C77.9368 125.988 141.715 119.353 148.925 121.083L149.239 121.157H149.478H149.703H149.912H150.076H150.196H150.331H150.54H151.393H151.557H151.677H151.826L152.036 121.247H152.171H152.29L152.485 121.336L152.694 121.426H152.829L152.963 121.5L153.158 121.605L153.367 121.709H153.472L153.636 121.799L153.831 121.903L153.995 122.007L154.13 122.082H154.25L154.354 122.156L154.534 122.276L154.698 122.38L154.833 122.47H154.923H155.042L155.222 122.604L155.371 122.723L155.491 122.827H155.566L156 123.185L156.089 123.275L156.209 123.379L156.359 123.498L156.523 123.662C156.792 123.916 157.062 124.184 157.316 124.468L157.75 124.959L157.869 125.109C158.623 126.033 159.279 127.033 159.829 128.091L159.933 128.299C150.241 131.475 82.4839 135.382 63.458 133.607L64.3255 134.487Z" fill="#FDFEFF"/>
<path fill-rule="evenodd" clip-rule="evenodd" d="M64.3252 134.487C66.3531 132.123 68.7835 130.134 71.5048 128.612C78.5198 125.213 142.298 118.578 149.508 120.308C151.943 120.857 154.224 121.947 156.179 123.495C158.134 125.044 159.714 127.012 160.801 129.253C151.108 132.429 83.351 136.336 64.3252 134.561V134.487Z" fill="#F2F2F2"/>
<path fill-rule="evenodd" clip-rule="evenodd" d="M59.374 130.223C59.374 130.223 62.4403 114.91 80.3144 111.034C98.1886 107.157 149.313 99.9855 157.001 107.306C164.689 114.627 166.499 122.022 161.817 125.72C157.136 129.418 60.9146 134.666 59.4039 130.193L59.374 130.223Z" fill="#DBDBDB"/>
<path fill-rule="evenodd" clip-rule="evenodd" d="M59.374 130.223V130.088C62.0963 126.197 67.466 119.219 72.4319 116.819C79.432 113.419 143.225 106.769 150.435 108.514C157.091 110.109 161.952 114.895 163.732 123.23C163.319 124.198 162.678 125.052 161.862 125.72C157.181 129.432 60.9595 134.666 59.4488 130.193L59.374 130.223Z" fill="#FDFEFF"/>
<path fill-rule="evenodd" clip-rule="evenodd" d="M173.545 92.4709C175.609 103.579 149.538 117.818 115.301 124.184C81.0632 130.551 51.6419 126.779 49.5778 115.671C47.5136 104.563 73.5097 90.3239 107.807 83.9424C142.104 77.561 171.466 81.363 173.545 92.4709Z" fill="#6F952E"/>
<path fill-rule="evenodd" clip-rule="evenodd" d="M166.186 93.7979C168.011 103.579 145.021 116.163 114.852 121.739C84.6829 127.315 58.7467 124.02 56.9219 114.284C55.097 104.548 78.0866 91.9192 108.256 86.3429C138.425 80.7666 164.361 84.0617 166.186 93.7979Z" fill="#D4E2A5"/>
<path fill-rule="evenodd" clip-rule="evenodd" d="M136.794 92.5901C137.228 94.8863 136.69 96.914 135.613 97.0631C134.536 97.2122 133.309 95.5721 132.89 93.2611C132.472 90.9501 132.98 88.9223 134.057 88.7881C135.134 88.6539 136.361 90.2791 136.794 92.5901Z" fill="#C8D384"/>
<path fill-rule="evenodd" clip-rule="evenodd" d="M138.858 103.668C139.292 105.964 138.754 107.992 137.677 108.141C136.6 108.29 135.373 106.65 134.939 104.354C134.506 102.058 135.044 100.015 136.121 99.881C137.198 99.7468 138.424 101.372 138.858 103.683V103.668Z" fill="#C8D384"/>
<path fill-rule="evenodd" clip-rule="evenodd" d="M131.125 93.6487C131.559 95.9448 131.02 97.9726 129.943 98.1217C128.866 98.2708 127.64 96.6307 127.206 94.3197C126.772 92.0086 127.311 89.9958 128.388 89.8467C129.465 89.6976 130.691 91.3377 131.125 93.6487Z" fill="#C8D384"/>
<path fill-rule="evenodd" clip-rule="evenodd" d="M133.189 104.727C133.608 107.023 133.085 109.051 132.008 109.2C130.931 109.349 129.704 107.709 129.27 105.398C128.837 103.087 129.375 101.059 130.452 100.925C131.529 100.791 132.756 102.416 133.189 104.727Z" fill="#C8D384"/>
<path fill-rule="evenodd" clip-rule="evenodd" d="M127.715 106.859C128.149 109.17 127.625 111.198 126.533 111.332C125.441 111.466 124.23 109.841 123.811 107.53C123.392 105.219 123.901 103.206 124.993 103.057C126.085 102.908 127.296 104.548 127.715 106.844V106.859Z" fill="#C8D384"/>
<path fill-rule="evenodd" clip-rule="evenodd" d="M125.008 94.4986C125.442 96.7947 124.918 98.8224 123.826 98.9715C122.734 99.1206 121.523 97.4806 121.104 95.1844C120.685 92.8883 121.194 90.8457 122.286 90.7115C123.378 90.5773 124.589 92.2024 125.008 94.5135V94.4986Z" fill="#C8D384"/>
<path fill-rule="evenodd" clip-rule="evenodd" d="M118.8 95.9299C119.294 98.5988 118.8 100.925 117.753 101.119C116.706 101.312 115.39 99.3293 114.897 96.6455C114.403 93.9618 114.897 91.6508 115.944 91.4569C116.991 91.2631 118.307 93.2461 118.8 95.9299Z" fill="#C8D384"/>
<path fill-rule="evenodd" clip-rule="evenodd" d="M121.478 107.962C121.957 110.542 121.478 112.808 120.401 113.002C119.324 113.196 118.053 111.272 117.574 108.693C117.096 106.113 117.574 103.847 118.651 103.653C119.728 103.459 120.999 105.383 121.478 107.962Z" fill="#C8D384"/>
<path fill-rule="evenodd" clip-rule="evenodd" d="M113.535 96.9437C114.028 99.6126 113.535 101.939 112.488 102.147C111.441 102.356 110.125 100.343 109.631 97.6743C109.137 95.0054 109.631 92.6944 110.678 92.4857C111.725 92.2769 113.041 94.2749 113.535 96.9586V96.9437Z" fill="#C8D384"/>
<path fill-rule="evenodd" clip-rule="evenodd" d="M116.183 109.021C116.662 111.6 116.183 113.866 115.106 114.075C114.029 114.284 112.758 112.346 112.279 109.751C111.801 107.157 112.279 104.906 113.356 104.712C114.433 104.518 115.705 106.441 116.183 109.021Z" fill="#C8D384"/>
<path fill-rule="evenodd" clip-rule="evenodd" d="M107.837 97.8533C108.33 100.522 107.837 102.848 106.775 103.057C105.713 103.266 104.411 101.253 103.918 98.5838C103.424 95.915 103.918 93.604 104.98 93.3952C106.042 93.1865 107.343 95.1844 107.837 97.8682V97.8533Z" fill="#C8D384"/>
<path fill-rule="evenodd" clip-rule="evenodd" d="M110.469 109.886C110.963 112.465 110.469 114.731 109.392 114.94C108.315 115.149 107.044 113.21 106.565 110.616C106.087 108.022 106.565 105.77 107.657 105.577C108.749 105.383 109.99 107.306 110.469 109.886Z" fill="#C8D384"/>
<path fill-rule="evenodd" clip-rule="evenodd" d="M102.167 99.5232C102.676 102.192 102.167 104.518 101.12 104.712C100.073 104.906 98.7571 102.923 98.2635 100.239C97.7699 97.5551 98.2635 95.244 99.3255 95.0502C100.387 94.8564 101.674 96.8394 102.167 99.5232Z" fill="#C8D384"/>
<path fill-rule="evenodd" clip-rule="evenodd" d="M104.815 111.555C105.294 114.135 104.815 116.401 103.738 116.595C102.661 116.789 101.39 114.865 100.911 112.286C100.432 109.707 100.911 107.44 101.988 107.246C103.065 107.053 104.336 108.976 104.815 111.555Z" fill="#C8D384"/>
<path fill-rule="evenodd" clip-rule="evenodd" d="M98.6376 111.496C99.0564 113.792 98.5329 115.82 97.4559 115.969C96.379 116.118 95.1525 114.478 94.7187 112.167C94.285 109.856 94.8234 107.843 95.9003 107.694C96.9773 107.545 98.2038 109.185 98.6376 111.496Z" fill="#C8D384"/>
<path fill-rule="evenodd" clip-rule="evenodd" d="M96.245 100.791C96.6638 103.087 96.1403 105.114 95.0634 105.264C93.9864 105.413 92.7599 103.773 92.3261 101.462C91.8924 99.1505 92.4309 97.1228 93.5078 96.9886C94.5847 96.8544 95.8112 98.4795 96.245 100.791Z" fill="#C8D384"/>
<path fill-rule="evenodd" clip-rule="evenodd" d="M92.6848 112.704C93.1186 115.015 92.5951 117.042 91.5032 117.177C90.4113 117.311 89.1997 115.686 88.7809 113.375C88.3621 111.064 88.8856 109.051 89.9625 108.902C91.0395 108.753 92.266 110.393 92.6848 112.704Z" fill="#C8D384"/>
<path fill-rule="evenodd" clip-rule="evenodd" d="M90.5155 103.176C90.9343 105.472 90.4108 107.5 89.3339 107.649C88.2569 107.798 87.0304 106.158 86.5966 103.847C86.1629 101.536 86.7014 99.5232 87.7783 99.3741C88.8552 99.225 90.0817 100.865 90.5155 103.176Z" fill="#C8D384"/>
<path fill-rule="evenodd" clip-rule="evenodd" d="M84.6971 106.695C85.116 109.006 84.5924 111.034 83.5155 111.168C82.4386 111.302 81.2121 109.677 80.7783 107.366C80.3445 105.055 80.883 103.042 81.9599 102.893C83.0369 102.744 84.2634 104.384 84.6971 106.695Z" fill="#C8D384"/>
<path fill-rule="evenodd" clip-rule="evenodd" d="M87.8236 114.836C88.2574 117.132 87.7189 119.16 86.642 119.309C85.5651 119.458 84.3385 117.818 83.9197 115.507C83.5009 113.196 84.0095 111.183 85.0864 111.034C86.1633 110.885 87.3898 112.525 87.8236 114.836Z" fill="#C8D384"/>
<path fill-rule="evenodd" clip-rule="evenodd" d="M81.0929 111.615C81.5267 113.926 81.0032 115.954 79.9113 116.088C78.8194 116.222 77.6079 114.597 77.1891 112.286C76.7702 109.975 77.2788 107.962 78.3707 107.813C79.4626 107.664 80.6741 109.304 81.0929 111.6V111.615Z" fill="#C8D384"/>
<path fill-rule="evenodd" clip-rule="evenodd" d="M143.45 101.685C143.884 103.996 143.345 106.024 142.268 106.158C141.191 106.292 139.965 104.667 139.531 102.371C139.097 100.075 139.636 98.0322 140.713 97.898C141.79 97.7638 143.016 99.389 143.45 101.685Z" fill="#C8D384"/>
<path fill-rule="evenodd" clip-rule="evenodd" d="M142.149 92.0385C142.583 94.3496 142.045 96.3773 140.968 96.5115C139.891 96.6457 138.664 95.0205 138.23 92.7094C137.797 90.3984 138.335 88.3856 139.412 88.2365C140.489 88.0874 141.716 89.7275 142.149 92.0385Z" fill="#C8D384"/>
<path fill-rule="evenodd" clip-rule="evenodd" d="M148.79 95.6168C149.223 97.9279 148.7 99.9556 147.608 100.09C146.516 100.224 145.319 98.5988 144.886 96.2878C144.452 93.9768 144.99 91.9639 146.067 91.8148C147.144 91.6657 148.371 93.3058 148.79 95.6168Z" fill="#C8D384"/>
<path fill-rule="evenodd" clip-rule="evenodd" d="M173.545 68.2124C175.609 79.3203 149.538 93.5593 115.301 99.9258C81.0632 106.292 51.6419 102.52 49.5778 91.3974C47.5136 80.2746 73.5097 66.0505 107.807 59.684C142.104 53.3174 171.466 57.1045 173.545 68.2124Z" fill="#6F952E"/>
<path fill-rule="evenodd" clip-rule="evenodd" d="M166.186 69.5842C168.011 79.38 145.021 91.949 114.852 97.5402C84.6829 103.131 58.7467 99.8214 56.9219 90.0853C55.097 80.3491 78.0866 67.7204 108.256 62.1292C138.425 56.538 164.361 59.848 166.186 69.5842Z" fill="#D4E2A5"/>
<path fill-rule="evenodd" clip-rule="evenodd" d="M136.794 68.3913C137.228 70.6874 136.69 72.7151 135.613 72.8642C134.536 73.0133 133.309 71.3733 132.89 69.0771C132.472 66.781 132.98 64.7384 134.057 64.6042C135.134 64.47 136.361 66.0951 136.794 68.4062V68.3913Z" fill="#C8D384"/>
<path fill-rule="evenodd" clip-rule="evenodd" d="M138.858 79.4546C139.292 81.7656 138.754 83.7933 137.677 83.9275C136.6 84.0617 135.373 82.4365 134.939 80.1254C134.506 77.8144 135.044 75.8016 136.121 75.6525C137.198 75.5034 138.424 77.1435 138.858 79.4546Z" fill="#C8D384"/>
<path fill-rule="evenodd" clip-rule="evenodd" d="M131.125 69.4499C131.559 71.746 131.02 73.7738 129.943 73.9229C128.866 74.072 127.64 72.4319 127.206 70.1208C126.772 67.8098 127.311 65.7821 128.388 65.6479C129.465 65.5137 130.691 67.1388 131.125 69.4499Z" fill="#C8D384"/>
<path fill-rule="evenodd" clip-rule="evenodd" d="M133.189 80.5429C133.608 82.8539 133.085 84.8816 132.008 85.0158C130.931 85.15 129.704 83.5249 129.27 81.2288C128.837 78.9326 129.375 76.89 130.452 76.7558C131.529 76.6216 132.756 78.2467 133.189 80.5429Z" fill="#C8D384"/>
<path fill-rule="evenodd" clip-rule="evenodd" d="M127.715 82.6602C128.149 84.9563 127.625 86.9989 126.533 87.1331C125.441 87.2673 124.23 85.6422 123.811 83.3311C123.392 81.0201 123.901 79.0073 124.993 78.8582C126.085 78.7091 127.296 80.3491 127.715 82.6602Z" fill="#C8D384"/>
<path fill-rule="evenodd" clip-rule="evenodd" d="M125.008 70.2849C125.442 72.596 124.918 74.6237 123.826 74.7579C122.734 74.8921 121.523 73.2669 121.104 70.9559C120.685 68.6448 121.194 66.632 122.286 66.4829C123.378 66.3338 124.589 67.9739 125.008 70.2849Z" fill="#C8D384"/>
<path fill-rule="evenodd" clip-rule="evenodd" d="M118.8 71.7312C119.294 74.4 118.8 76.726 117.753 76.9198C116.706 77.1136 115.39 75.1306 114.897 72.4468C114.403 69.763 114.897 67.452 115.944 67.2582C116.991 67.0644 118.307 69.0474 118.8 71.7312Z" fill="#C8D384"/>
<path fill-rule="evenodd" clip-rule="evenodd" d="M121.478 83.7634C121.957 86.3428 121.478 88.6091 120.401 88.803C119.324 88.9968 118.053 87.0735 117.574 84.4941C117.096 81.9147 117.574 79.6483 118.651 79.4396C119.728 79.2309 120.999 81.1691 121.478 83.7634Z" fill="#C8D384"/>
<path fill-rule="evenodd" clip-rule="evenodd" d="M113.535 72.7898C114.028 75.4586 113.535 77.7846 112.488 77.9785C111.441 78.1723 110.125 76.1893 109.631 73.5055C109.137 70.8217 109.631 68.5106 110.678 68.3168C111.725 68.123 113.041 70.106 113.535 72.7898Z" fill="#C8D384"/>
<path fill-rule="evenodd" clip-rule="evenodd" d="M116.183 84.8221C116.662 87.4015 116.183 89.6678 115.106 89.8616C114.029 90.0555 112.758 88.1321 112.279 85.5526C111.801 82.9732 112.279 80.7069 113.356 80.5131C114.433 80.3193 115.705 82.2427 116.183 84.8221Z" fill="#C8D384"/>
<path fill-rule="evenodd" clip-rule="evenodd" d="M107.837 73.6545C108.33 76.3234 107.837 78.6493 106.775 78.8431C105.713 79.037 104.411 77.0539 103.918 74.3702C103.424 71.6864 103.918 69.3754 104.98 69.1815C106.042 68.9877 107.343 70.9707 107.837 73.6545Z" fill="#C8D384"/>
<path fill-rule="evenodd" clip-rule="evenodd" d="M110.469 85.6868C110.963 88.2662 110.469 90.5325 109.392 90.7264C108.315 90.9202 107.044 88.9968 106.565 86.4174C106.087 83.838 106.565 81.5717 107.657 81.3778C108.749 81.184 109.99 83.1074 110.469 85.6868Z" fill="#C8D384"/>
<path fill-rule="evenodd" clip-rule="evenodd" d="M102.167 75.3244C102.676 77.9933 102.167 80.3192 101.12 80.513C100.073 80.7069 98.7571 78.7239 98.2635 76.0401C97.7699 73.3563 98.2635 71.0453 99.3255 70.8515C100.387 70.6576 101.674 72.6406 102.167 75.3244Z" fill="#C8D384"/>
<path fill-rule="evenodd" clip-rule="evenodd" d="M104.815 87.3568C105.294 89.9362 104.815 92.2025 103.738 92.3963C102.661 92.5901 101.39 90.6667 100.911 88.0873C100.432 85.5079 100.911 83.2416 101.988 83.0329C103.065 82.8241 104.336 84.7624 104.815 87.3568Z" fill="#C8D384"/>
<path fill-rule="evenodd" clip-rule="evenodd" d="M98.6376 87.2971C99.0564 89.5933 98.5329 91.621 97.4559 91.7701C96.379 91.9192 95.1525 90.279 94.7187 87.968C94.285 85.657 94.8234 83.6292 95.9003 83.495C96.9773 83.3609 98.2038 84.9861 98.6376 87.2971Z" fill="#C8D384"/>
<path fill-rule="evenodd" clip-rule="evenodd" d="M96.245 76.5769C96.6638 78.8879 96.1403 80.9157 95.0634 81.0499C93.9864 81.1841 92.7599 79.5588 92.3261 77.2627C91.8924 74.9666 92.4309 72.9239 93.5078 72.7897C94.5847 72.6555 95.8112 74.2808 96.245 76.5769Z" fill="#C8D384"/>
<path fill-rule="evenodd" clip-rule="evenodd" d="M92.6848 88.5049C93.1186 90.801 92.5951 92.8287 91.5032 92.9778C90.4113 93.1269 89.1997 91.4868 88.7809 89.1757C88.3621 86.8647 88.8856 84.8519 89.9625 84.7028C91.0395 84.5537 92.266 86.1938 92.6848 88.5049Z" fill="#C8D384"/>
<path fill-rule="evenodd" clip-rule="evenodd" d="M90.5155 79.0519C90.9343 81.3481 90.4108 83.3758 89.3339 83.5249C88.2569 83.674 87.0304 82.0339 86.5966 79.7229C86.1629 77.4119 86.7014 75.3841 87.7783 75.2499C88.8552 75.1157 90.0817 76.7409 90.5155 79.0519Z" fill="#C8D384"/>
<path fill-rule="evenodd" clip-rule="evenodd" d="M84.6971 82.4961C85.116 84.7922 84.5924 86.82 83.5155 86.9691C82.4386 87.1182 81.2121 85.4781 80.7783 83.1671C80.3445 80.856 80.883 78.8432 81.9599 78.6941C83.0369 78.545 84.2634 80.1851 84.6971 82.4961Z" fill="#C8D384"/>
<path fill-rule="evenodd" clip-rule="evenodd" d="M87.8236 90.637C88.2574 92.9331 87.7189 94.9609 86.642 95.11C85.5651 95.2591 84.3385 93.6189 83.9197 91.3079C83.5009 88.9968 84.0095 86.9691 85.0864 86.8349C86.1633 86.7007 87.3898 88.3259 87.8236 90.637Z" fill="#C8D384"/>
<path fill-rule="evenodd" clip-rule="evenodd" d="M81.0929 87.4164C81.5267 89.7125 81.0032 91.7403 79.9113 91.8894C78.8194 92.0385 77.6079 90.3984 77.1891 88.0874C76.7702 85.7763 77.2788 83.7635 78.3707 83.6144C79.4626 83.4653 80.6741 85.1054 81.0929 87.4164Z" fill="#C8D384"/>
<path fill-rule="evenodd" clip-rule="evenodd" d="M143.45 77.5609C143.884 79.857 143.345 81.8997 142.268 82.0339C141.191 82.1681 139.965 80.5429 139.531 78.2319C139.097 75.9208 139.636 73.908 140.713 73.7589C141.79 73.6098 143.016 75.2499 143.45 77.5609Z" fill="#C8D384"/>
<path fill-rule="evenodd" clip-rule="evenodd" d="M142.149 67.8396C142.583 70.1357 142.045 72.1635 140.968 72.3126C139.891 72.4617 138.664 70.8216 138.23 68.5106C137.797 66.1995 138.335 64.1867 139.412 64.0376C140.489 63.8885 141.716 65.5286 142.149 67.8396Z" fill="#C8D384"/>
<path fill-rule="evenodd" clip-rule="evenodd" d="M148.79 71.4181C149.223 73.7142 148.7 75.742 147.608 75.8911C146.516 76.0402 145.319 74.4001 144.886 72.0891C144.452 69.778 144.99 67.7652 146.067 67.6161C147.144 67.467 148.371 69.1071 148.79 71.4181Z" fill="#C8D384"/>
<path fill-rule="evenodd" clip-rule="evenodd" d="M173.545 46.9508C175.609 58.0587 149.538 72.2977 115.301 78.6642C81.0632 85.0307 51.6419 81.2586 49.5778 70.1358C47.5136 59.013 73.5097 44.7889 107.807 38.4224C142.104 32.0559 171.466 35.8429 173.545 46.9508Z" fill="#6F952E"/>
<path fill-rule="evenodd" clip-rule="evenodd" d="M166.186 48.3226C168.011 58.1184 145.021 70.6875 114.852 76.2787C84.6829 81.8699 58.7467 78.5599 56.9219 68.8237C55.097 59.0876 78.0866 46.4589 108.256 40.8677C138.425 35.2764 164.361 38.6013 166.186 48.3226Z" fill="#D4E2A5"/>
<path fill-rule="evenodd" clip-rule="evenodd" d="M136.794 47.1299C137.228 49.426 136.69 51.4538 135.613 51.6029C134.536 51.752 133.309 50.1118 132.89 47.8008C132.472 45.4897 132.98 43.462 134.057 43.3278C135.134 43.1936 136.361 44.8189 136.794 47.1299Z" fill="#C8D384"/>
<path fill-rule="evenodd" clip-rule="evenodd" d="M138.858 58.1781C139.292 60.4891 138.754 62.5169 137.677 62.6511C136.6 62.7853 135.373 61.1601 134.939 58.8491C134.506 56.538 135.044 54.5252 136.121 54.3761C137.198 54.227 138.424 55.8671 138.858 58.1632V58.1781Z" fill="#C8D384"/>
<path fill-rule="evenodd" clip-rule="evenodd" d="M131.125 48.1884C131.559 50.4845 131.02 52.5123 129.943 52.6614C128.866 52.8105 127.64 51.1704 127.206 48.8594C126.772 46.5483 127.311 44.5206 128.388 44.3864C129.465 44.2522 130.691 45.8774 131.125 48.1884Z" fill="#C8D384"/>
<path fill-rule="evenodd" clip-rule="evenodd" d="M133.189 59.2664C133.608 61.5625 133.085 63.5902 132.008 63.7393C130.931 63.8884 129.704 62.2484 129.27 59.9523C128.837 57.6561 129.375 55.6135 130.452 55.4793C131.529 55.3451 132.756 56.9703 133.189 59.2813V59.2664Z" fill="#C8D384"/>
<path fill-rule="evenodd" clip-rule="evenodd" d="M127.715 61.3986C128.149 63.7096 127.625 65.7373 126.533 65.8715C125.441 66.0057 124.23 64.3806 123.811 62.0695C123.392 59.7585 123.901 57.7457 124.993 57.5966C126.085 57.4475 127.296 59.0875 127.715 61.3986Z" fill="#C8D384"/>
<path fill-rule="evenodd" clip-rule="evenodd" d="M125.008 49.0233C125.442 51.3344 124.918 53.3621 123.826 53.4963C122.734 53.6305 121.523 52.0053 121.104 49.6943C120.685 47.3833 121.194 45.3704 122.286 45.2213C123.378 45.0722 124.589 46.7123 125.008 49.0084V49.0233Z" fill="#C8D384"/>
<path fill-rule="evenodd" clip-rule="evenodd" d="M118.8 50.4696C119.294 53.1384 118.8 55.4644 117.753 55.6582C116.706 55.852 115.39 53.869 114.897 51.1852C114.403 48.5014 114.897 46.1904 115.944 45.9966C116.991 45.8028 118.307 47.7858 118.8 50.4696Z" fill="#C8D384"/>
<path fill-rule="evenodd" clip-rule="evenodd" d="M121.478 62.5019C121.957 65.0813 121.478 67.3476 120.401 67.5415C119.324 67.7353 118.053 65.8119 117.574 63.2325C117.096 60.6531 117.574 58.3868 118.651 58.178C119.728 57.9693 120.999 59.9225 121.478 62.5019Z" fill="#C8D384"/>
<path fill-rule="evenodd" clip-rule="evenodd" d="M113.535 51.5282C114.028 54.197 113.535 56.523 112.488 56.7169C111.441 56.9107 110.125 54.9277 109.631 52.2439C109.137 49.5601 109.631 47.249 110.678 47.0552C111.725 46.8614 113.041 48.8444 113.535 51.5282Z" fill="#C8D384"/>
<path fill-rule="evenodd" clip-rule="evenodd" d="M116.183 63.5605C116.662 66.1399 116.183 68.4062 115.106 68.6C114.029 68.7939 112.758 66.8705 112.279 64.291C111.801 61.7116 112.279 59.4453 113.356 59.2515C114.433 59.0577 115.705 60.9811 116.183 63.5605Z" fill="#C8D384"/>
<path fill-rule="evenodd" clip-rule="evenodd" d="M107.837 52.3929C108.33 55.0618 107.837 57.3877 106.775 57.5815C105.713 57.7754 104.411 55.7923 103.918 53.1086C103.424 50.4248 103.918 48.1138 104.98 47.9199C106.042 47.7261 107.343 49.7091 107.837 52.3929Z" fill="#C8D384"/>
<path fill-rule="evenodd" clip-rule="evenodd" d="M110.469 64.4252C110.963 67.0046 110.469 69.2709 109.392 69.4648C108.315 69.6586 107.044 67.7352 106.565 65.1558C106.087 62.5764 106.565 60.3101 107.657 60.1162C108.749 59.9224 109.99 61.8458 110.469 64.4252Z" fill="#C8D384"/>
<path fill-rule="evenodd" clip-rule="evenodd" d="M102.167 54.0628C102.676 56.7317 102.167 59.0576 101.12 59.2514C100.073 59.4453 98.7571 57.4623 98.2635 54.7785C97.7699 52.0947 98.2635 49.7837 99.3255 49.5899C100.387 49.396 101.674 51.379 102.167 54.0628Z" fill="#C8D384"/>
<path fill-rule="evenodd" clip-rule="evenodd" d="M104.815 66.0952C105.294 68.6746 104.815 70.9409 103.738 71.1347C102.661 71.3285 101.39 69.4051 100.911 66.8257C100.432 64.2463 100.911 61.98 101.988 61.7713C103.065 61.5625 104.336 63.5008 104.815 66.0952Z" fill="#C8D384"/>
<path fill-rule="evenodd" clip-rule="evenodd" d="M98.6376 66.0355C99.0564 68.3317 98.5329 70.3594 97.4559 70.5085C96.379 70.6576 95.1525 69.0175 94.7187 66.7064C94.285 64.3954 94.8234 62.3676 95.9003 62.2334C96.9773 62.0993 98.2038 63.7245 98.6376 66.0355Z" fill="#C8D384"/>
<path fill-rule="evenodd" clip-rule="evenodd" d="M96.245 55.3303C96.6638 57.6264 96.1403 59.6542 95.0634 59.8033C93.9864 59.9524 92.7599 58.3122 92.3261 56.0161C91.8924 53.72 92.4309 51.6773 93.5078 51.5431C94.5847 51.4089 95.8112 53.0341 96.245 55.3451V55.3303Z" fill="#C8D384"/>
<path fill-rule="evenodd" clip-rule="evenodd" d="M92.6848 67.2433C93.1186 69.5394 92.5951 71.5672 91.5032 71.7163C90.4113 71.8654 89.1997 70.2253 88.7809 67.9143C88.3621 65.6032 88.8856 63.5904 89.9625 63.4413C91.0395 63.2922 92.266 64.9323 92.6848 67.2433Z" fill="#C8D384"/>
<path fill-rule="evenodd" clip-rule="evenodd" d="M90.5155 57.7158C90.9343 60.012 90.4108 62.0397 89.3339 62.1888C88.2569 62.3379 87.0304 60.6978 86.5966 58.3868C86.1629 56.0758 86.7014 54.0629 87.7783 53.9138C88.8552 53.7647 90.0817 55.4048 90.5155 57.7158Z" fill="#C8D384"/>
<path fill-rule="evenodd" clip-rule="evenodd" d="M84.6971 61.2346C85.116 63.5308 84.5924 65.5585 83.5155 65.7076C82.4386 65.8567 81.2121 64.2166 80.7783 61.9056C80.3445 59.5946 80.883 57.5817 81.9599 57.4326C83.0369 57.2835 84.2634 58.9236 84.6971 61.2346Z" fill="#C8D384"/>
<path fill-rule="evenodd" clip-rule="evenodd" d="M87.8236 69.3754C88.2574 71.6715 87.7189 73.6992 86.642 73.8483C85.5651 73.9974 84.3385 72.3574 83.9197 70.0463C83.5009 67.7353 84.0095 65.7225 85.0864 65.5734C86.1633 65.4243 87.3898 67.0643 87.8236 69.3754Z" fill="#C8D384"/>
<path fill-rule="evenodd" clip-rule="evenodd" d="M81.0929 66.1548C81.5267 68.4509 81.0032 70.4936 79.9113 70.6278C78.8194 70.762 77.6079 69.1368 77.1891 66.8258C76.7702 64.5147 77.2788 62.5019 78.3707 62.3528C79.4626 62.2037 80.6741 63.8438 81.0929 66.1548Z" fill="#C8D384"/>
<path fill-rule="evenodd" clip-rule="evenodd" d="M143.45 56.2249C143.884 58.5359 143.345 60.5636 142.268 60.6978C141.191 60.832 139.965 59.2069 139.531 56.8958C139.097 54.5848 139.636 52.572 140.713 52.4229C141.79 52.2738 143.016 53.9138 143.45 56.2249Z" fill="#C8D384"/>
<path fill-rule="evenodd" clip-rule="evenodd" d="M142.149 46.5781C142.583 48.8743 142.045 50.902 140.968 51.0511C139.891 51.2002 138.664 49.5601 138.23 47.2491C137.797 44.9381 138.335 42.9252 139.412 42.7761C140.489 42.627 141.716 44.2671 142.149 46.5781Z" fill="#C8D384"/>
<path fill-rule="evenodd" clip-rule="evenodd" d="M148.79 50.1565C149.223 52.4526 148.7 54.4804 147.608 54.6295C146.516 54.7786 145.319 53.1385 144.886 50.8275C144.452 48.5164 144.99 46.5036 146.067 46.3545C147.144 46.2054 148.371 47.8455 148.79 50.1565Z" fill="#C8D384"/>
<path fill-rule="evenodd" clip-rule="evenodd" d="M110.2 51.081C122.345 51.081 132.202 64.6937 132.202 81.4823C132.202 98.2708 122.345 111.854 110.2 111.854C98.0542 111.854 88.1973 98.2559 88.1973 81.4674C88.1973 64.6788 98.0393 51.066 110.2 51.066V51.081Z" fill="#F8FDFF"/>
<path fill-rule="evenodd" clip-rule="evenodd" d="M110.693 53.1086C114.656 53.082 118.537 54.2287 121.845 56.4033C125.153 58.5778 127.739 61.6823 129.275 65.3235C130.812 68.9646 131.229 72.9784 130.474 76.8562C129.72 80.7339 127.828 84.3012 125.037 87.1058C122.247 89.9104 118.684 91.8261 114.8 92.6101C110.916 93.3942 106.886 93.0113 103.221 91.51C99.5558 90.0087 96.4202 87.4565 94.2115 84.1769C92.0028 80.8973 90.8206 77.038 90.8145 73.0879C90.8067 70.4779 91.3146 67.8919 92.3093 65.4775C93.3041 63.0632 94.7661 60.8679 96.612 59.0168C98.4579 57.1657 100.651 55.6951 103.067 54.6891C105.483 53.683 108.075 53.1612 110.693 53.1534V53.1086Z" fill="#F7D981"/>
<path fill-rule="evenodd" clip-rule="evenodd" d="M110.693 53.1086C111.549 53.1103 112.403 53.1652 113.251 53.2727C117.625 54.9151 121.285 58.0306 123.597 62.0798C125.909 66.129 126.728 70.8566 125.911 75.4441C125.094 80.0316 122.694 84.1898 119.125 87.1987C115.556 90.2075 111.044 91.8774 106.371 91.9192C105.515 91.9249 104.661 91.8701 103.813 91.7552C99.439 90.1128 95.779 86.9973 93.4669 82.9481C91.1547 78.8989 90.3362 74.1712 91.1529 69.5837C91.9696 64.9962 94.3702 60.838 97.9389 57.8291C101.508 54.8203 106.02 53.1504 110.693 53.1086Z" fill="#FDE396"/>
<path fill-rule="evenodd" clip-rule="evenodd" d="M92.5346 99.4636C92.7141 100.075 91.8765 100.85 90.6799 101.193C89.4833 101.536 88.3615 101.327 88.182 100.701C88.0025 100.075 88.8401 99.3145 90.0367 98.9716C91.2333 98.6287 92.3551 98.8374 92.5346 99.4636ZM126.279 85.2843C126.458 85.9105 125.62 86.6858 124.424 87.0287C123.227 87.3717 122.105 87.1481 121.926 86.5368C121.746 85.9255 122.584 85.1352 123.781 84.7923C124.977 84.4493 126.099 84.673 126.279 85.2843ZM139.202 64.0377C139.636 63.5755 140.698 63.8886 141.64 64.7533C142.582 65.6181 142.941 66.6768 142.492 67.139C142.044 67.6012 140.997 67.3029 140.054 66.4382C139.112 65.5734 138.753 64.5148 139.202 64.0377ZM112.503 57.3432C112.937 56.881 113.999 57.194 114.941 58.0439C115.883 58.8938 116.242 59.9822 115.808 60.4445C115.375 60.9067 114.313 60.5935 113.355 59.7436C112.398 58.8938 112.069 57.8054 112.503 57.3432ZM105.129 45.1767C105.293 44.5654 104.471 43.7901 103.259 43.4471C102.048 43.1042 100.941 43.313 100.776 43.9392C100.612 44.5654 101.419 45.3258 102.631 45.6687C103.842 46.0116 104.949 45.8029 105.129 45.1767ZM83.4704 42.7315C83.9042 43.1937 84.9661 42.8805 85.9085 42.0307C86.8508 41.1808 87.2097 40.0924 86.761 39.6302C86.3123 39.168 85.2653 39.4811 84.323 40.331C83.3807 41.1809 83.0217 42.2693 83.4704 42.7315ZM94.9727 63.4264C95.6009 63.2624 95.8552 62.159 95.556 60.9364C95.2569 59.7138 94.509 58.864 93.8957 59.0131C93.2825 59.1622 93.0132 60.2804 93.3124 61.503C93.6115 62.7256 94.3445 63.5755 94.9727 63.4264ZM132.546 100.433C132.725 101.059 131.888 101.834 130.691 102.177C129.494 102.52 128.373 102.311 128.193 101.685C128.014 101.059 128.851 100.299 130.063 99.9408C131.274 99.5829 132.381 99.8215 132.546 100.433ZM100.896 77.1882C101.33 76.726 102.392 77.0391 103.334 77.889C104.276 78.7388 104.635 79.8273 104.201 80.2895C103.768 80.7517 102.706 80.4386 101.763 79.5887C100.821 78.7389 100.462 77.6654 100.896 77.1882ZM89.588 79.2458C90.2162 79.4098 90.4705 80.5131 90.1713 81.7357C89.8722 82.9584 89.1243 83.8083 88.5111 83.6592C87.8978 83.5101 87.6286 82.3918 87.9277 81.1841C88.2269 79.9764 88.9747 79.0967 89.588 79.2458Z" fill="#E7A96E"/>
<path fill-rule="evenodd" clip-rule="evenodd" d="M74.706 129.492C74.8855 130.103 74.0479 130.879 72.8513 131.222C71.6547 131.565 70.5329 131.356 70.3534 130.73C70.1739 130.103 71.0115 129.343 72.2081 128.985C73.4047 128.627 74.5265 128.866 74.706 129.492ZM108.45 115.313C108.629 115.924 107.792 116.714 106.595 117.057C105.399 117.4 104.277 117.176 104.097 116.565C103.918 115.954 104.755 115.164 105.952 114.821C107.149 114.478 108.27 114.701 108.45 115.313ZM121.373 94.0662C121.807 93.604 122.869 93.917 123.811 94.7669C124.754 95.6167 125.113 96.7052 124.679 97.1674C124.245 97.6297 123.183 97.3314 122.226 96.4666C121.268 95.6019 120.939 94.5433 121.373 94.0662ZM94.734 87.3716C95.1677 86.8945 96.2297 87.2225 97.172 88.0724C98.1144 88.9222 98.4733 89.9957 98.0396 90.4728C97.6058 90.9499 96.5438 90.622 95.6015 89.7721C94.6592 88.9222 94.3002 87.8338 94.734 87.3716ZM87.36 75.2051C87.5245 74.5938 86.7018 73.8185 85.5052 73.4607C84.3086 73.1028 83.1868 73.3414 83.0073 73.9527C82.8279 74.564 83.6655 75.3542 84.8621 75.6971C86.0587 76.0401 87.1805 75.8313 87.36 75.2051ZM65.7016 72.7599C66.1354 73.2222 67.1973 72.909 68.1397 72.0591C69.082 71.2093 69.441 70.1209 69.0072 69.6587C68.5734 69.1965 67.5114 69.5095 66.5542 70.3594C65.5969 71.2092 65.2529 72.2828 65.7016 72.7599ZM77.2039 93.44C77.8321 93.2909 78.0863 92.1875 77.7872 90.9649C77.488 89.7423 76.7402 88.8924 76.1269 89.0415C75.5137 89.1906 75.2444 90.3088 75.5436 91.5165C75.8427 92.7242 76.5906 93.604 77.2039 93.44ZM114.777 130.461C114.956 131.087 114.134 131.863 112.922 132.206C111.711 132.549 110.604 132.325 110.439 131.714C110.275 131.102 111.082 130.312 112.294 129.969C113.506 129.626 114.612 129.85 114.777 130.461ZM83.127 107.217C83.5608 106.754 84.6228 107.068 85.58 107.917C86.5373 108.767 86.8664 109.856 86.4326 110.318C85.9988 110.78 84.9369 110.467 83.9945 109.617C83.0522 108.767 82.6932 107.679 83.127 107.217ZM71.8192 109.274C72.4474 109.438 72.7017 110.542 72.4025 111.764C72.1034 112.987 71.3705 113.837 70.7423 113.688C70.114 113.538 69.8598 112.42 70.1589 111.198C70.4581 109.975 71.2059 109.125 71.8192 109.274Z" fill="#E7A96E"/>
<path fill-rule="evenodd" clip-rule="evenodd" d="M100.238 48.5314C99.6699 48.8296 98.7425 48.1586 98.1741 47.0404C97.6057 45.9222 97.5908 44.7741 98.1741 44.4908C98.7574 44.2075 99.6699 44.8635 100.238 45.9818C100.807 47.1 100.807 48.2481 100.238 48.5314ZM120.67 78.9625C120.102 79.2607 119.174 78.5897 118.606 77.4715C118.038 76.3532 118.023 75.22 118.606 74.9218C119.189 74.6236 120.102 75.2946 120.67 76.4128C121.238 77.5311 121.253 78.6643 120.67 78.9625ZM143.914 87.5357C144.467 87.8637 144.363 89.0267 143.705 90.0704C143.046 91.1141 142.074 91.7254 141.521 91.3824C140.967 91.0395 141.087 89.8914 141.745 88.8477C142.403 87.804 143.375 87.1927 143.914 87.5357ZM145.29 60.0418C145.843 60.3698 145.739 61.5328 145.081 62.5765C144.422 63.6202 143.45 64.2315 142.897 63.8886C142.343 63.5456 142.463 62.3976 143.121 61.3539C143.779 60.3102 144.752 59.6989 145.29 60.0418ZM155.76 50.41C156.403 50.41 157.002 49.5005 157.106 48.2481C157.211 46.9957 156.777 45.952 156.134 45.8923C155.491 45.8327 154.893 46.8167 154.788 48.0543C154.683 49.2918 155.117 50.3652 155.76 50.41ZM153.95 28.6415C153.576 29.1634 154.1 30.1326 155.102 30.9079C156.104 31.6832 157.256 31.8024 157.615 31.2955C157.974 30.7885 157.48 29.8045 156.463 29.0143C155.446 28.2241 154.324 28.1197 153.95 28.6415ZM136.001 43.9838C136.271 44.5653 137.407 44.61 138.544 44.0733C139.681 43.5365 140.369 42.5823 140.04 42.0605C139.711 41.5386 138.634 41.4342 137.497 41.971C136.36 42.5078 135.672 43.462 136.001 43.9838ZM107.089 88.1321C106.52 88.4303 105.593 87.7593 105.025 86.6411C104.456 85.5229 104.441 84.3897 105.025 84.0915C105.608 83.7933 106.52 84.4642 107.104 85.5825C107.687 86.7007 107.672 87.8339 107.104 88.1321H107.089ZM123.677 52.4825C124.215 52.8254 124.125 53.9735 123.467 55.0321C122.809 56.0907 121.837 56.6722 121.283 56.3442C120.73 56.0161 120.835 54.8531 121.493 53.7945C122.151 52.7359 123.138 52.1544 123.677 52.4825ZM119.444 41.7772C119.444 42.4183 118.382 42.8805 117.14 42.8358C115.899 42.7911 114.897 42.2095 114.926 41.5684C114.956 40.9273 115.988 40.4502 117.245 40.5099C118.501 40.5695 119.473 41.136 119.444 41.7772Z" fill="#E7A96E"/>
<path fill-rule="evenodd" clip-rule="evenodd" d="M116.153 125.124C116.332 125.735 115.494 126.51 114.298 126.868C113.101 127.226 111.979 126.987 111.8 126.361C111.62 125.735 112.458 124.974 113.655 124.632C114.851 124.289 115.973 124.497 116.153 125.124ZM149.896 110.944C150.076 111.57 149.238 112.346 148.042 112.689C146.845 113.032 145.723 112.808 145.544 112.197C145.364 111.585 146.202 110.795 147.399 110.452C148.595 110.109 149.717 110.333 149.896 110.944ZM162.82 89.6976C163.253 89.2354 164.315 89.5485 165.258 90.4133C166.2 91.2781 166.559 92.3366 166.11 92.7988C165.662 93.261 164.615 92.9629 163.672 92.0981C162.73 91.2333 162.371 90.1748 162.82 89.6976ZM136.181 83.0031C136.614 82.5409 137.676 82.854 138.619 83.7038C139.561 84.5537 139.92 85.6421 139.486 86.1043C139.052 86.5665 137.99 86.2535 137.033 85.4036C136.076 84.5537 135.747 83.4802 136.181 83.0031ZM128.792 70.8366C128.971 70.2253 128.148 69.45 126.937 69.1071C125.725 68.7641 124.618 68.9728 124.454 69.599C124.289 70.2253 125.097 70.9857 126.309 71.3286C127.52 71.6716 128.627 71.4628 128.792 70.8366ZM107.148 68.3913C107.582 68.8535 108.644 68.5405 109.586 67.6906C110.529 66.8408 110.887 65.7673 110.439 65.2901C109.99 64.813 108.943 65.141 108.001 65.9909C107.058 66.8407 106.699 67.9291 107.148 68.3913ZM118.65 89.0863C119.279 88.9223 119.533 87.819 119.234 86.5964C118.935 85.3738 118.187 84.5239 117.573 84.673C116.96 84.8221 116.691 85.9403 116.99 87.1629C117.289 88.3856 118.022 89.2354 118.65 89.0863ZM156.223 126.093C156.403 126.719 155.565 127.494 154.369 127.837C153.172 128.18 152.05 127.971 151.871 127.345C151.691 126.719 152.529 125.958 153.726 125.601C154.922 125.243 156.044 125.481 156.223 126.093ZM124.574 102.908C125.007 102.446 126.069 102.759 127.012 103.609C127.954 104.458 128.313 105.547 127.879 106.009C127.445 106.471 126.383 106.158 125.441 105.308C124.499 104.458 124.14 103.385 124.574 102.908ZM113.266 104.98C113.894 105.129 114.148 106.233 113.849 107.455C113.55 108.678 112.802 109.528 112.189 109.379C111.576 109.23 111.306 108.111 111.605 106.904C111.905 105.696 112.652 104.816 113.266 104.98Z" fill="#BA7E47"/>
<path fill-rule="evenodd" clip-rule="evenodd" d="M64.4449 31.2359C64.4449 31.2359 69.9193 27.1506 73.4194 24.8396C76.9194 22.5285 74.0326 22.454 78.101 21.6488C82.1695 20.8437 83.5904 22.0961 86.2528 20.5902C88.9153 19.0843 87.9281 18.1897 92.52 17.6082C97.1119 17.0267 94.7337 16.6242 99.7744 16.5347C104.815 16.4453 104.471 16.5347 108.749 16.6242C110.546 16.5566 112.345 16.6164 114.133 16.8031C118.92 17.1609 115.629 16.5347 119.354 17.2504C123.078 17.9661 123.841 17.8766 123.841 18.5774C123.841 19.2782 124.02 20.0684 121.627 20.0684C119.234 20.0684 122.599 18.2046 114.986 19.3676C107.373 20.5305 109.945 22.0215 106.146 21.1418C102.347 20.2622 102.347 19.1887 102.347 19.1887C100.867 18.8617 99.3685 18.6228 97.8598 18.473C96.5332 18.397 95.206 18.6107 93.9709 19.0992C90.9794 19.8894 90.7849 19.3676 89.4836 20.4262C88.1824 21.4848 88.6011 22.5584 85.5947 23.0802C82.5883 23.6021 79.7613 22.7373 78.5198 23.0802C78.0181 23.0922 77.5257 23.2178 77.0799 23.4478C76.6342 23.6777 76.2468 24.0058 75.9472 24.4071C75.0647 25.4657 76.1266 25.3763 74.6309 27.7768C73.1352 30.1773 70.8168 29.6406 71.1757 28.567C71.5347 27.4935 69.9343 29.4617 65.6116 31.7578C61.2889 34.0539 54.573 32.3094 64.3701 31.4148L64.4449 31.2359Z" fill="#F5DEB6"/>
</g>
<defs>
<clipPath id="clip0_76_15170">
<rect width="195" height="187" fill="white" transform="translate(10 14)"/>
</clipPath>
</defs>
</svg>
