<svg width="215" height="215" viewBox="0 0 215 215" fill="none" xmlns="http://www.w3.org/2000/svg">
<path fill-rule="evenodd" clip-rule="evenodd" d="M106.994 20C155.051 20 194 59.1741 194 107.506C194 155.838 155.051 195 106.994 195C58.9371 195 20 155.826 20 107.506C20 59.1861 58.9491 20 106.994 20Z" fill="#865334"/>
<path d="M125.958 22.9037C120.235 23.4041 54.1656 29.6724 37.7205 57.3531C23.9987 80.451 24.0382 80.8724 24.5645 90.0115C24.7355 92.6453 24.946 95.9901 24.946 100.467C24.946 111.081 25.538 122.196 28.3929 133.297C31.4602 145.418 37.2512 156.678 45.3247 166.219C54.3893 177.044 61.954 183.628 69.0846 187.46C75.509 190.88 82.7339 192.508 90.0027 192.174C92.634 192.174 95.3441 192.174 98.028 192.174C110.5 192.253 123.498 192.333 142.456 185.314C151.779 181.88 160.261 176.492 167.334 169.511C174.873 162.031 179.411 153.893 180.688 147.585C181.431 143.545 183.523 139.877 186.621 137.182C189.252 134.548 191.476 132.323 189.252 122.538C187.371 114.176 189.752 108.751 191.462 104.866C191.914 103.949 192.28 102.993 192.554 102.008C192.778 100.823 190.976 99.9407 182.622 98.3736C176.05 97.0139 169.261 97.1083 162.73 98.6502C155.533 100.086 149.968 101.192 137.286 93.6593C122.722 85.0206 122.13 78.8708 125.998 72.2601C127.332 70.1491 128.822 68.1417 130.458 66.2551C131.773 64.7012 133.089 63.0683 134.273 61.3827C136.088 58.8148 135.852 57.5111 134.76 56.7341C132.917 55.6726 130.939 54.8663 128.879 54.3374C125.669 53.3103 122.459 52.2831 120.525 50.2288C118.854 48.4642 119.209 46.7654 120.959 45.0798C122.709 43.3942 125.774 42.0773 129.458 40.3522C135.207 37.7185 142.193 34.4 142.943 31.5687C143.522 29.3695 139.483 26.5909 125.84 22.9169L125.958 22.9037ZM33.4974 54.7983C51.9159 23.6806 125.774 17.9259 125.985 17.9259H126.392L126.8 18.0444C144.35 22.7193 149.166 27.8683 147.85 32.8724C146.534 37.8765 138.364 41.7745 131.655 44.9086C129.274 46.0148 127.103 47.0288 125.708 47.8584C127.264 48.5636 128.869 49.1534 130.51 49.623C133.065 50.295 135.507 51.3376 137.759 52.7177C141.193 55.1802 142.443 58.6173 138.43 64.3062C137.115 66.2156 135.707 67.8881 134.404 69.4683C132.933 71.1585 131.588 72.9542 130.379 74.8411C128.037 78.7918 128.866 82.8477 139.93 89.4189C150.994 95.9901 155.717 95.0288 161.914 93.8041C169.052 92.1257 176.47 92.0313 183.648 93.5276C195.962 95.8453 198.382 98.3737 197.541 102.93C197.218 104.297 196.741 105.622 196.12 106.881C193.793 111.341 193.113 116.48 194.199 121.393C196.988 133.85 193.817 137.024 190.252 140.632C187.894 142.684 186.288 145.464 185.687 148.533C184.227 155.71 179.214 164.81 170.952 173.014C163.352 180.515 154.231 186.295 144.206 189.962C124.472 197.297 110.974 197.205 98.0543 197.126C95.4231 197.126 92.7919 197.126 90.1607 197.126C82.0572 197.509 74.0013 195.689 66.8481 191.858C59.1518 187.737 51.0608 180.77 41.6279 169.472C33.055 159.36 26.9077 147.418 23.6567 134.561C20.6571 122.894 20.0388 111.411 20.0388 100.481C20.0388 96.0164 19.8414 92.856 19.6836 90.3407C19.0126 79.7399 18.9731 79.2395 33.4974 54.7852V54.7983Z" fill="#BD8F4F"/>
<path d="M158.809 50.9004C152.573 50.0181 84.1348 40.958 71.0708 69.7053C66.0715 80.7144 67.9265 83.8749 71.5313 85.5078C72.7954 86.044 74.0864 86.5144 75.3991 86.9169C83.0691 89.4716 91.6863 92.3292 88.7394 109.857C86.4765 123.276 79.1486 132.731 73.6494 139.829C70.7419 143.582 68.3869 146.598 67.9659 148.731C67.4528 151.207 70.5972 153.182 81.4641 155.434C100.027 159.292 100.383 158.502 101.974 154.933C103.75 150.983 106.526 144.82 119.077 137.142C136.378 126.607 144.653 135.141 151.678 142.41C155.98 146.874 159.664 150.693 165.229 146.11C172.925 139.776 179.595 133.416 179.529 128.411C179.529 123.658 172.754 119.444 153.757 116.467C146.85 115.388 140.719 114.558 135.457 113.834C108.592 110.173 103.001 109.409 103.001 91.4469C102.789 84.6698 101.863 77.9339 100.238 71.3514C99.1458 66.2156 98.2512 62.028 98.6854 59.0782C99.2248 55.3251 101.317 53.4683 105.816 54.1399C109.842 54.7325 115.091 57.5374 120.84 60.5926C130.049 65.4913 140.666 71.1275 146.955 68.1251C152.546 65.4913 158.861 62.2255 161.861 58.907C163.926 56.5629 163.782 53.8897 158.809 50.9136V50.9004ZM66.5846 67.6378C81.8193 34.1234 159.769 46.0148 159.993 46.0411L160.44 46.107L160.848 46.344C170.215 51.7169 170.057 57.1424 165.558 62.1465C161.953 66.2156 155.033 69.7317 149.06 72.6815C140.548 76.7506 128.773 70.4823 118.538 65.0436C113.197 62.1992 108.302 59.5917 105.106 59.1177C104.093 58.9728 103.658 59.2494 103.579 59.842C103.277 61.9226 104.093 65.7152 105.079 70.377C106.776 77.3056 107.733 84.395 107.934 91.5259C107.934 105.116 112.789 105.774 136.101 108.948C141.272 109.659 147.284 110.476 154.52 111.582C176.569 115.032 184.371 121.09 184.463 128.372C184.568 135.417 177.043 142.858 168.373 149.982C159.309 157.449 154.165 152.128 148.152 145.886C142.39 139.921 135.588 132.876 121.669 141.396C110.434 148.27 108.039 153.603 106.513 157.001C103.579 163.585 102.935 164.968 80.5037 160.306C66.032 157.29 61.9931 153.458 63.164 147.756C63.8349 144.477 66.4925 141.04 69.742 136.774C74.8992 130.123 81.7798 121.235 83.8322 109.04C86.0818 95.7267 79.5959 93.5802 73.8204 91.6708C72.3372 91.2026 70.8792 90.6576 69.4526 90.0378C63.2955 87.1934 59.8092 82.479 66.5583 67.651L66.5846 67.6378Z" fill="#BD8F4F"/>
<path d="M49.2057 136.339C57.5056 139.035 66.2499 140.091 74.9522 139.447C85.2928 139.026 91.3578 138.789 98.9489 153.063C101.651 158.246 104.024 163.595 106.053 169.077C107.049 171.942 108.258 174.728 109.671 177.412C111.802 181.007 114.776 181.442 122.485 176.807C129.879 172.369 138.378 165.587 143.824 158.489C146.404 155.42 148.209 151.775 149.087 147.862C149.368 146.353 149.269 144.799 148.798 143.338C148.327 141.878 147.499 140.559 146.39 139.5C143.937 137.26 141.022 135.588 137.851 134.601C126.432 130.519 121.183 133.429 116.973 135.76C109.868 139.71 105.027 142.344 89.2134 123.592C75.61 107.421 73.1366 90.433 71.3606 78.1861C71.0054 75.7894 70.6896 73.5902 70.3344 71.7334C69.2161 65.847 67.6243 62.5153 62.5329 63.4635C55.8355 64.6124 49.3672 66.8358 43.3776 70.0478C40.8386 71.3636 38.6749 73.3029 37.089 75.684C36.5655 76.5998 36.2695 77.6281 36.226 78.6823C36.1825 79.7365 36.3928 80.7858 36.839 81.7417C37.8276 83.7833 39.2039 85.6126 40.8911 87.1277C44.3643 90.4462 47.9691 93.5803 51.2449 96.4116C58.5597 102.772 64.401 107.829 64.401 111.701C64.401 115.006 61.5067 116.81 54.4682 116.744C50.0214 116.744 45.4563 116.31 41.049 115.941C33.2737 115.296 25.9195 114.624 22.0121 116.02C20.0782 116.678 19.2494 118.153 20.2229 121.037C23.9198 131.941 43.1408 135.246 47.8507 136.063C48.3398 136.134 48.8233 136.24 49.2978 136.379L49.2057 136.339ZM75.1495 144.412C65.8714 145.094 56.5493 143.958 47.7059 141.067L47.1139 140.882L46.9692 140.724V140.869C41.7068 139.947 20.1177 136.234 15.4867 122.525C13.3423 116.204 15.4867 112.846 20.3544 111.2C25.2222 109.554 33.0895 110.173 41.4042 110.871C45.8509 111.253 50.4293 111.635 54.4682 111.674C56.1216 111.785 57.7817 111.746 59.428 111.556C59.428 109.989 54.3893 105.59 48.0217 100.072C44.6932 97.1754 41.0227 93.9886 37.4969 90.6174C35.3196 88.6566 33.5571 86.2789 32.3134 83.6248C31.528 81.9627 31.1616 80.1332 31.2465 78.2966C31.3314 76.46 31.8648 74.6722 32.8001 73.0898C34.8061 69.9338 37.5993 67.3558 40.9043 65.61C47.3829 62.1339 54.3799 59.7281 61.6251 58.4857C70.8343 56.7211 73.4655 61.7778 75.189 70.7326C75.5837 72.8132 75.8994 74.9992 76.2415 77.3169C77.9518 88.9844 80.3067 105.156 92.9892 120.234C106.145 135.918 109.592 134.035 114.591 131.256C119.591 128.477 125.985 124.935 139.496 129.768C143.361 130.991 146.903 133.066 149.863 135.839C151.542 137.442 152.795 139.438 153.51 141.648C154.224 143.857 154.377 146.21 153.954 148.494C152.97 153.231 150.837 157.654 147.745 161.373C141.89 168.998 132.865 176.214 125.024 180.928C113.96 187.579 109.316 186.328 105.448 179.822C103.899 176.896 102.579 173.854 101.501 170.723C99.5587 165.426 97.2825 160.258 94.6863 155.249C88.5687 143.727 83.6352 143.924 75.2416 144.267L75.1495 144.412ZM46.7061 140.461C46.2851 140.026 46.8377 140.659 46.9429 140.869V140.724L46.6798 140.461H46.7061Z" fill="#BD8F4F"/>
<path d="M75.6626 61.791C74.8338 67.7827 69.2425 72.2074 63.1644 77.0272C53.0737 85.0206 41.4306 94.2519 55.126 112.583C66.4403 127.687 76.2942 126.66 84.6088 125.751C93.6865 124.803 101.238 124.013 107.185 138.104C112.381 150.403 118.499 161.807 123.88 167.536C125.088 169.021 126.648 170.18 128.418 170.907C128.802 171.02 129.211 171.013 129.59 170.886C129.969 170.759 130.299 170.518 130.537 170.196C131.681 168.879 132.642 166.403 133.365 162.466C135.352 151.812 127.195 144.859 118.894 137.801C109.316 129.636 99.6067 121.353 102.264 106.92C104.619 94.107 103.04 90.4856 98.7252 89.6824C95.8534 89.3326 92.9552 89.2532 90.0686 89.4453C87.1874 89.5243 83.9773 89.6165 80.4646 89.4453C71.5711 89.0239 68.5584 87.3778 68.7162 84.0461C68.8083 81.9391 70.5318 79.9902 72.8341 77.4618C75.4443 74.7123 77.7066 71.6517 79.57 68.349C81.7934 64.1482 81.8855 60.4478 80.8856 58.3408C80.7038 57.8953 80.4035 57.5081 80.0173 57.2214C79.8257 57.1128 79.6004 57.08 79.3858 57.1293C78.2939 57.3795 76.9651 58.8017 75.6495 61.8305L75.6626 61.791ZM60.1122 73.1161C65.4667 68.8757 70.3871 64.9778 70.808 60.8823V60.5136L70.9528 60.1712C73.0051 55.2725 75.7021 52.8494 78.2544 52.27C78.984 52.094 79.7412 52.0651 80.4821 52.1849C81.2229 52.3048 81.9325 52.5709 82.5696 52.9679C83.793 53.7474 84.7552 54.8757 85.3324 56.2074C86.8979 59.5391 86.9374 64.9251 83.9115 70.693C81.864 74.342 79.3764 77.7253 76.5046 80.7671C75.4106 81.8338 74.4478 83.0274 73.6366 84.3227C73.6366 84.4149 75.4522 84.3227 80.6883 84.5202C84.0299 84.6782 87.1347 84.5992 89.8975 84.5202C93.132 84.3039 96.38 84.4097 99.5935 84.8362C107.145 86.2453 110.118 91.1441 107.093 107.868C104.948 119.47 113.565 126.818 122.064 134.061C131.431 142.054 140.68 149.942 138.167 163.427C137.259 168.286 135.904 171.565 134.22 173.528C133.389 174.589 132.251 175.37 130.961 175.763C129.672 176.156 128.293 176.144 127.011 175.727C124.39 174.763 122.068 173.128 120.275 170.986C114.473 164.77 108.04 152.879 102.646 140.105C98.1201 129.386 92.213 130.005 85.1219 130.742C75.5442 131.743 64.1642 132.942 51.166 115.572C34.5631 93.3827 48.2454 82.5449 60.099 73.1556L60.1122 73.1161Z" fill="#BD8F4F"/>
<path d="M159.269 44.2896C156.02 43.4073 105.632 30.1069 80.8457 43.8551C66.2819 51.9275 62.9666 59.3678 60.0986 65.8073C57.7173 71.0748 55.6255 75.8419 48.8501 79.8847C42.5221 83.6641 40.6408 88.181 41.2723 93.4617C41.9564 99.2559 45.4953 106.169 49.6921 113.952C53.639 121.287 52.2444 129.623 50.8893 137.656C49.2185 147.598 47.6266 157.067 58.2962 161.742C67.9265 165.969 75.4912 159.608 83.5559 152.826C91.8705 145.847 100.659 138.459 113.131 139.868C122.879 140.961 131.023 146.097 137.917 150.403C141.798 152.853 145.271 155.025 148.113 155.908C152.06 157.119 155.256 155.42 157.848 146.887C161.4 135.206 158.23 124.5 155.375 114.769C151.783 102.535 148.639 91.8682 158.427 82.1761C162.156 78.6076 165.213 74.3968 167.452 69.7448C169.267 66.0358 170.035 61.9016 169.675 57.7876C169.295 54.2346 167.723 50.9155 165.216 48.3719C163.498 46.6474 161.483 45.2467 159.269 44.237V44.2896ZM78.6487 39.8123C105.869 24.7209 160.466 39.8123 160.624 39.8781H160.782L160.979 39.9703C163.771 41.2265 166.308 42.9851 168.465 45.1587C171.699 48.4287 173.731 52.6995 174.228 57.274C174.675 62.2221 173.766 67.1987 171.596 71.6674C169.136 76.8315 165.762 81.5072 161.637 85.4682C153.809 93.2246 156.585 102.653 159.769 113.491C162.795 123.789 166.163 135.233 162.216 148.23C158.585 160.188 153.441 162.36 146.797 160.319C143.311 159.239 139.64 156.922 135.509 154.328C129.01 150.245 121.34 145.412 112.631 144.425C102.106 143.239 94.0807 149.969 86.4897 156.355C77.2804 164.072 68.7027 171.302 56.4675 165.942C42.5221 159.819 44.4034 148.639 46.3768 136.892C47.6003 129.597 48.8633 122.051 45.6664 116.112C41.2459 107.908 37.5096 100.586 36.7202 93.9621C35.8651 86.8378 38.299 80.7933 46.5215 75.8814C52.0471 72.5761 53.8758 68.4937 55.9281 63.8979C59.0856 56.7999 62.743 48.5958 78.6487 39.7727V39.8123Z" fill="#BD8F4F"/>
<path d="M65.2692 28.0658C68.9134 28.4214 80.4118 31.6346 51.2316 59.842C37.0362 73.5506 30.103 82.7292 28.1164 90.8675C26.1956 98.7687 28.9847 106.051 34.234 116.072C39.7332 126.607 38.7991 133.679 37.9571 140.039C37.1152 146.4 36.3258 151.681 44.2194 159.411C51.7184 166.825 58.5727 167.47 65.5718 168.115C73.4654 168.853 81.5695 169.616 91.0287 178.4C94.39 181.59 97.5742 184.962 100.567 188.5C109.592 198.825 114.486 204.435 134.036 187.71C151.415 172.856 158.283 165.416 164.387 158.805C167.794 155.118 170.965 151.667 175.583 147.348C181.608 141.699 185.647 137.524 186.581 131.677C187.555 125.567 185.424 117.192 179.082 103.022C175.079 93.7246 171.964 84.0683 169.781 74.1827C166.4 60.5136 163.887 50.3605 151.928 43.8156C142.587 38.7193 133.839 38.9169 125.919 39.088C116.709 39.2987 108.5 39.4831 101.041 32.3062C94.1073 25.6428 80.3592 24.4049 71.5841 25.8271C69.8188 26.0821 68.0968 26.5784 66.4664 27.302C66.0089 27.4747 65.589 27.734 65.2297 28.0658H65.2692ZM47.7716 56.2601C72.2682 32.5564 64.3877 32.9909 64.3746 32.9909H63.4668L62.7695 32.4247C60.6909 30.7259 59.9936 28.8954 60.3751 27.065C60.6645 26.1012 61.1707 25.2167 61.8549 24.4794C62.5391 23.742 63.3831 23.1715 64.3219 22.8115C66.3774 21.8718 68.5574 21.2332 70.7947 20.9152C80.6618 19.2691 96.2912 20.9152 104.448 28.6979C110.434 34.4526 117.683 34.2946 125.813 34.1103C134.352 33.9259 143.785 33.7152 154.283 39.3778C168.163 46.9629 170.886 58.0247 174.57 72.9185C176.695 82.509 179.716 91.8781 183.595 100.902C190.357 116.033 192.594 125.238 191.489 132.375C190.304 139.802 185.766 144.556 178.977 150.917C174.517 155.105 171.386 158.489 168.044 162.11C161.835 168.826 154.888 176.385 137.272 191.424C114.012 211.309 108 204.421 96.8832 191.7C93.9884 188.299 90.9143 185.055 87.6739 181.982C79.4251 174.318 72.1893 173.646 65.1113 172.988C57.2177 172.25 49.495 171.526 40.7462 162.874C31.1423 153.379 31.9975 146.874 33.0105 139.315C33.7472 133.705 34.5892 127.463 29.8135 118.311C24.0117 107.249 20.9727 99.0321 23.2355 89.6033C25.4589 80.4642 32.8 70.5876 47.719 56.1811L47.7716 56.2601Z" fill="#CEA265"/>
<path d="M97.7514 52.5466C97.6067 52.5466 46.7979 38.6272 43.18 60.4478C41.404 71.2066 46.1138 76.5268 50.087 81.0041C55.4152 87.0223 59.6909 91.8289 51.7709 102.812C46.1796 110.568 38.4175 114.282 32.0368 117.297C29.5124 118.37 27.1016 119.694 24.8405 121.248C22.2092 123.315 21.9593 126.252 26.8928 132.573C33.3656 140.869 40.3646 141.58 46.7716 142.239C55.5731 143.147 63.4535 143.951 68.6502 158.779C71.5566 167.249 75.6304 175.272 80.7538 182.614C83.7796 187.122 87.6594 190.992 92.1733 194.005C95.7517 196.178 99.3301 196.942 102.632 195.77C103.663 195.395 104.634 194.872 105.514 194.216C108.039 192.385 110.276 190.634 112.46 188.948C123.603 180.296 133.194 172.869 148.35 174.463C153.269 175.013 158.249 174.565 162.992 173.146C166.436 172.121 169.566 170.246 172.096 167.694C174.534 165.085 176.026 161.732 176.333 158.173C176.608 154.373 176.111 150.556 174.872 146.953C169.505 130.031 172.807 123.605 177.004 115.454C179.363 111.2 181.175 106.664 182.398 101.956C183.2 98.6239 184.239 95.5819 185.226 92.7375C186.094 90.2091 186.91 87.8124 187.436 85.6659C189.489 77.2774 187.147 70.6931 164.703 65.1359C141.64 59.4338 137.943 52.2437 134.378 45.3038C132.352 41.3531 130.431 37.5211 123.472 34.2025C117.814 31.4898 116.275 31.7663 115.578 33.2149C115.188 34.1363 114.859 35.082 114.591 36.0461C112.973 41.3136 110.763 48.5301 99.1197 52.4807L98.4224 52.7178L97.712 52.5334L97.7514 52.5466ZM38.3123 59.6972C42.5354 34.1498 91.6865 45.8569 98.2777 47.5425C106.908 44.3556 108.645 38.7194 109.908 34.5976C110.237 33.4005 110.655 32.2297 111.157 31.0947C113.197 26.7754 116.288 25.2346 125.629 29.7778C134.023 33.8074 136.378 38.3902 138.785 43.0914C141.837 49.0437 145.008 55.2067 165.887 60.382C192.462 66.9663 195.001 75.6577 192.199 86.9169C191.594 89.3795 190.752 91.842 189.87 94.4231C188.91 97.2412 187.884 100.217 187.147 103.233C185.848 108.326 183.898 113.231 181.345 117.824C177.675 124.961 174.767 130.584 179.53 145.544C180.974 149.775 181.543 154.255 181.2 158.713C180.797 163.373 178.837 167.762 175.635 171.17C172.531 174.329 168.68 176.653 164.44 177.926C159.068 179.564 153.42 180.097 147.837 179.493C134.602 178.176 125.748 185.011 115.446 193.004C113.131 194.808 110.736 196.652 108.382 198.377C107.113 199.309 105.717 200.054 104.237 200.589C99.4091 202.301 94.4229 201.327 89.5815 198.403C84.4985 195.041 80.1228 190.715 76.7017 185.669C71.2993 177.937 67.0081 169.483 63.9535 160.556C59.7962 148.705 53.4286 148.046 46.2454 147.322C38.8254 146.558 30.7212 145.728 22.9723 135.786C15.6181 126.357 16.6837 121.458 21.7488 117.468C24.2891 115.66 27.0146 114.129 29.8793 112.899C35.7074 110.12 42.8248 106.71 47.6926 99.9671C53.2708 92.2371 50.1791 88.7474 46.3112 84.3885C41.6276 79.121 36.0626 72.8132 38.2334 59.7103L38.3123 59.6972Z" fill="#CEA265"/>
<path d="M166.834 45.4617C163.321 44.5135 108.881 30.1333 82.1086 44.9876C66.3213 53.7185 62.7823 61.7514 59.6775 68.6913C57.1252 74.4329 54.8492 79.5292 47.5344 83.9012C40.6932 87.9703 38.6672 92.8691 39.3382 98.5712C40.0881 104.826 43.9165 112.293 48.4553 120.708C52.7179 128.609 51.205 137.63 49.7709 146.347C47.9554 157.08 46.2451 167.299 57.7698 172.356C68.1763 176.925 76.3462 170.064 85.0555 162.742C94.0411 155.183 103.54 147.203 117.012 148.731C127.536 149.916 136.338 155.447 143.797 160.148C147.994 162.782 151.691 165.139 154.809 166.087C159.085 167.404 162.518 165.56 165.334 156.342C169.175 143.727 165.742 132.099 162.703 121.643C158.756 108.474 155.414 96.8987 165.992 86.4296C170.021 82.5777 173.319 78.0268 175.727 72.9975C177.692 68.9914 178.529 64.5253 178.148 60.079C177.732 56.2377 176.031 52.6501 173.32 49.8995C171.459 48.0443 169.286 46.5329 166.899 45.4354L166.834 45.4617ZM79.7405 40.6288C109.144 24.3259 168.136 40.6288 168.307 40.7078H168.478L168.689 40.8131C171.709 42.1678 174.455 44.0646 176.793 46.4098C180.277 49.948 182.465 54.5606 183.002 59.4996C183.493 64.8462 182.51 70.225 180.161 75.0518C177.501 80.6297 173.855 85.68 169.399 89.9588C160.94 98.3341 163.939 108.527 167.386 120.247C170.662 131.374 174.293 143.74 170.017 157.778C166.071 170.696 160.545 173.053 153.349 170.828C149.599 169.682 145.613 167.18 141.166 164.362C134.141 159.951 125.853 154.736 116.446 153.669C105.066 152.352 96.3961 159.661 88.1998 166.548C78.2801 174.884 68.9788 182.706 55.7701 176.912C40.7064 170.328 42.7324 158.212 44.8637 145.518C46.1793 137.616 47.5607 129.504 44.1007 123.131C39.325 114.268 35.2861 106.354 34.431 99.2032C33.51 91.4995 36.1281 84.9679 45.0216 79.6609C50.9944 76.1053 52.9152 71.6938 55.1781 66.716C58.5986 59.0518 62.5455 50.1893 79.7273 40.6551L79.7405 40.6288Z" fill="#CEA265"/>
<path d="M127.945 55.3515C123.893 59.8157 116.788 60.2897 109.079 60.8033C96.2649 61.6725 81.4512 62.6601 82.5037 85.5605C83.3589 104.458 92.0813 109.264 99.4224 113.215C107.448 117.6 114.118 121.235 111.118 136.26C108.487 149.363 107.171 162.203 108.382 170.038C108.551 171.919 109.184 173.729 110.224 175.305C110.474 175.62 110.817 175.849 111.203 175.96C111.59 176.071 112.002 176.059 112.381 175.924C114.039 175.503 116.236 173.989 119.038 171.17C126.655 163.506 123.827 153.116 120.972 142.607C117.644 130.413 114.289 118.061 124.577 107.658C133.707 98.4396 134.431 94.4889 131.326 91.4338C129.154 89.5106 126.806 87.7956 124.314 86.3111C121.893 84.7441 119.196 82.9795 116.42 80.8593C109.303 75.4601 107.75 72.3787 109.75 69.7186C111 68.0461 113.526 67.414 116.867 66.5844C120.561 65.7958 124.144 64.5575 127.537 62.8971C131.734 60.6848 133.878 57.7087 134.247 55.391C134.343 54.9162 134.306 54.4241 134.141 53.9687C134.101 53.8689 134.041 53.7786 133.964 53.7037C133.887 53.6288 133.795 53.571 133.694 53.5342C132.642 53.126 130.747 53.5342 127.971 55.2988L127.945 55.3515ZM108.75 55.8387C115.552 55.391 121.801 54.9696 124.432 51.8223L124.682 51.5457L124.985 51.3482C129.418 48.4774 133.01 48.0033 135.444 48.9515C136.149 49.219 136.794 49.6247 137.34 50.1448C137.887 50.6648 138.325 51.2889 138.628 51.9803C139.193 53.3181 139.353 54.7926 139.088 56.2206C138.509 59.8552 135.523 64.3325 129.787 67.3482C126.051 69.2018 122.1 70.5863 118.025 71.47C116.521 71.7281 115.054 72.1703 113.657 72.7869C113.657 72.8527 115.183 73.7745 119.367 76.9482C121.998 78.9893 124.629 80.6749 126.984 82.2157C129.778 83.8789 132.4 85.8154 134.812 87.9968C140.246 93.4486 139.996 99.2165 128.076 111.266C119.801 119.628 122.814 130.584 125.721 141.396C128.971 153.248 132.181 165.1 122.538 174.779C119.078 178.268 116.104 180.204 113.592 180.849C112.305 181.252 110.926 181.249 109.642 180.842C108.357 180.434 107.228 179.642 106.408 178.571C104.784 176.288 103.786 173.618 103.514 170.828C102.198 162.4 103.58 148.928 106.29 135.272C108.566 123.855 103.356 121.011 97.0806 117.587C88.6081 112.965 78.5569 107.473 77.5702 85.7581C76.2546 58.0116 93.6863 56.7869 108.75 55.8255V55.8387Z" fill="#CEA265"/>
<path d="M62.0195 120.234C64.6784 112.864 69.334 106.38 75.465 101.508C83.8718 94.9235 97.212 89.656 118.604 90.8017C138.035 91.9079 152.546 89.8799 160.993 85.1787C163.257 83.9891 165.233 82.3169 166.781 80.2799C168.032 78.5363 168.758 76.4709 168.873 74.3276C168.874 70.4822 167.808 66.7119 165.795 63.4371L170.097 61.014C172.833 65.9786 174.043 70.5219 173.794 74.6042C173.646 77.7029 172.599 80.6913 170.781 83.2033C168.818 85.839 166.292 88.0029 163.387 89.5375C154.178 94.6996 138.693 96.9515 118.328 95.7926C98.3697 94.6601 86.1083 99.4536 78.5041 105.445C73.0985 109.767 68.9992 115.507 66.6636 122.025L62.059 120.26L62.0195 120.234Z" fill="#CEA265"/>
<path d="M107.566 25.2609C107.382 25.2609 44.838 39.5753 62.7039 72.4971C66.9533 80.3193 71.2817 87.4436 75.2022 93.8963C89.5818 117.6 98.8831 132.797 83.7273 148.099L80.2278 144.596C92.6077 132.059 84.1746 118.14 71.0186 96.4905C67.0717 90.0247 62.7697 82.9136 58.4019 74.8675C37.3522 36.1514 106.277 20.4675 106.474 20.4148L107.592 25.2609H107.566Z" fill="#CEA265"/>
<path d="M34.2733 157.593C34.2733 157.449 36.6677 107.223 89.5288 118.68C104.4 121.911 118.972 126.395 133.089 132.086C146.245 137.156 151.612 139.249 157.559 132.086C161.861 126.923 163.769 117.192 165.518 108.303C167.058 100.402 168.492 93.1589 171.544 89.2872C174.596 85.4156 179.043 84.5597 185.437 89.6823L182.371 93.6329C178.806 90.7885 176.727 90.7753 175.412 92.4346C173.109 95.358 171.794 102.048 170.373 109.304C168.505 118.798 166.426 129.202 161.348 135.325C153.138 145.175 146.758 142.7 131.326 136.734C117.449 131.141 103.123 126.735 88.5027 123.565C41.2724 113.333 39.1542 157.804 39.1542 157.909L34.2207 157.607L34.2733 157.593Z" fill="#CEA265"/>
<path d="M45.535 91.8025C45.535 91.9736 41.9302 149.613 79.0961 157.646C98.8302 161.913 114.907 158.792 127.774 156.329C140.64 153.867 150.534 151.905 158.427 158.146C159.375 158.955 160.482 159.554 161.677 159.906C162.871 160.258 164.126 160.354 165.36 160.188C168.155 159.615 170.697 158.173 172.623 156.066C175.167 153.416 177.153 150.281 178.464 146.848C179.962 143.272 180.734 139.433 180.734 135.556C180.734 131.678 179.962 127.839 178.464 124.263L182.95 122.209C184.726 126.391 185.652 130.886 185.675 135.43C185.697 139.975 184.816 144.478 183.082 148.678C181.518 152.741 179.156 156.449 176.135 159.582C173.47 162.45 169.957 164.389 166.11 165.113C164.211 165.388 162.275 165.258 160.43 164.731C158.584 164.204 156.87 163.293 155.401 162.058C149.271 157.225 140.364 158.95 128.721 161.215C115.446 163.849 98.8302 167.022 78.1094 162.532C36.7599 153.59 40.6409 91.7234 40.6409 91.5522L45.5744 91.8156L45.535 91.8025Z" fill="#CEA265"/>
<path fill-rule="evenodd" clip-rule="evenodd" d="M146.837 70.5481C146.837 70.5481 159.059 69.995 161.032 71.3119C163.005 72.6288 161.387 77.7251 160.611 79.8979C159.835 82.0707 158.046 83.8485 157.861 87.5753C157.677 91.302 159.006 96.7276 158.927 100.546C158.848 104.365 162.216 110.41 158.756 110.186C155.296 109.962 149.889 111.503 145.271 110.186C140.653 108.869 143.613 105.156 142.798 97.7679C141.982 90.3802 142.035 86.1267 143.89 81.0699C145.745 76.0131 144.758 71.944 146.837 70.535V70.5481Z" fill="#A66A44"/>
<path fill-rule="evenodd" clip-rule="evenodd" d="M156.046 92.5926C155.914 93.1457 156.046 101.455 157.269 104.339C158.493 107.223 158.861 109.133 157.875 108.698C156.888 108.263 156.098 105.814 155.559 102.983C155.02 100.151 155.559 96.8198 155.401 94.6338C155.243 92.4477 155.941 91.6181 156.046 92.5926ZM151.875 96.1218C151.875 96.1218 153.02 105.735 153.257 107.434C153.494 109.133 152.428 109.738 152.388 109.172C152.334 107.128 152.172 105.088 151.902 103.062C151.369 100.722 151.148 98.3221 151.244 95.9243C151.546 94.3046 151.875 96.1218 151.875 96.1218ZM149.06 72.6683C149.105 76.3459 148.397 79.9938 146.981 83.3877C144.692 88.4445 145.666 96.5564 145.455 100.968C145.245 105.379 144.495 107.552 144.745 107.368C144.995 107.184 146.547 107.078 146.521 102.588C146.495 98.0971 146.192 89.2346 147.06 87.2593C147.929 85.284 151.007 72.484 149.06 72.6683ZM153.125 77.2642C151.513 80.5146 150.354 83.9706 149.678 87.5358C148.923 90.5691 148.631 93.699 148.81 96.8198C149.02 99.8354 147.679 106.459 148.06 106.63C148.442 106.802 149.573 106.051 149.678 102.153C149.784 98.2552 149.297 94.0675 149.955 90.8807C150.54 87.4559 151.38 84.0798 152.467 80.7803C153.283 79.0683 154.809 74.2881 153.125 77.2642ZM156.783 72.6947C156.808 75.4369 156.399 78.1659 155.572 80.7803C154.062 84.8701 153.201 89.1712 153.02 93.5276C153.02 97.5836 153.178 98.6897 153.559 98.7951C153.941 98.9004 153.888 97.6494 153.993 95.1737C154.099 92.698 154.27 87.6412 155.309 84.8362C156.348 82.0313 157.243 80.1482 157.282 77.5408C157.322 74.9334 157.703 71.3251 156.783 72.6947Z" fill="#865334"/>
<path fill-rule="evenodd" clip-rule="evenodd" d="M83.2139 178.084C83.2139 178.084 85.4109 161.873 87.5948 159.648C89.7787 157.422 96.0015 160.701 98.6459 162.281C101.29 163.862 103.145 166.588 107.934 167.72C112.723 168.853 120.09 168.405 125.037 169.419C129.984 170.433 138.614 167.444 137.509 171.947C136.404 176.451 137.075 183.918 134.325 189.686C131.576 195.453 127.405 190.647 117.617 189.962C107.829 189.277 102.316 188.184 96.212 184.537C90.1076 180.889 84.5821 181.218 83.227 178.15L83.2139 178.084Z" fill="#A66A44"/>
<path fill-rule="evenodd" clip-rule="evenodd" d="M114.012 171.21C114.71 171.539 125.537 173.251 129.55 172.421C133.562 171.592 136.128 171.473 135.351 172.672C134.575 173.87 131.194 174.305 127.458 174.357C123.721 174.41 119.459 172.882 116.578 172.553C113.697 172.224 112.789 171.131 114.078 171.236L114.012 171.21ZM117.604 177.557C117.604 177.557 130.339 178.334 132.602 178.426C134.865 178.519 135.404 180.072 134.654 179.993C131.991 179.575 129.308 179.303 126.616 179.177C124.077 179.177 119.235 179.111 117.196 178.334C115.157 177.557 117.604 177.557 117.604 177.557ZM86.5029 175.727C91.2911 176.537 95.8598 178.331 99.9221 180.994C105.921 185.235 116.578 185.919 122.366 187.236C128.155 188.553 130.615 190.041 130.497 189.686C130.378 189.33 130.497 187.249 124.721 186.222C118.946 185.195 107.316 183.457 104.987 181.837C102.659 180.217 86.766 173.08 86.5687 175.74L86.5029 175.727ZM93.4362 171.473C93.6335 171.961 100.093 176.188 105.948 178.453C111.802 180.718 113.841 181.363 117.788 181.811C121.735 182.258 130.036 185.603 130.339 185.142C130.642 184.682 129.957 183.009 124.919 181.942C119.88 180.876 114.394 180.52 110.368 178.887C106.342 177.254 99.8432 174.66 97.8566 173.172C95.87 171.684 89.963 168.55 93.4493 171.473H93.4362ZM88.3842 165.587C91.9489 166.198 95.3918 167.381 98.5802 169.09C103.521 172.053 108.898 174.217 114.512 175.503C119.775 176.477 121.248 176.517 121.485 176.043C121.722 175.569 120.064 175.345 116.88 174.607C113.697 173.87 107.184 172.448 103.724 170.42C100.264 168.392 98.0934 166.746 94.7123 166.074C91.3312 165.402 86.8186 164.033 88.3184 165.587H88.3842Z" fill="#865334"/>
<path fill-rule="evenodd" clip-rule="evenodd" d="M109.539 45.014C109.539 45.014 124.287 38.1663 128.76 55.0618C133.233 71.9573 143.048 58.4461 145.863 68.5597C148.678 78.6733 137.456 74.5647 132.023 83.5326C126.589 92.5005 123.866 109.751 115.657 100.323C107.447 90.8939 109.184 80.2141 99.6326 84.8626C90.0813 89.5112 79.6354 78.7787 84.9768 71.0354C90.3181 63.2922 81.5825 54.219 87.2791 50.2947C92.9757 46.3704 101.948 38.1663 109.539 45.1325V45.014Z" fill="#542E17"/>
<path fill-rule="evenodd" clip-rule="evenodd" d="M110.907 46.6995C110.907 46.6995 115.433 45.7645 117.288 46.9761C119.143 48.1876 116.196 49.6098 115.223 54.9958C114.249 60.3818 113.999 66.6633 113.46 67.6378C112.92 68.6123 112.144 64.1086 111.999 60.158C111.855 56.2074 110.842 54.3506 110.578 52.0855C110.315 49.8205 110.197 47.1868 110.907 46.6995ZM110.526 74.6568C111.394 74.6568 111.841 78.6074 116.906 77.7909C121.972 76.9745 131.76 69.995 132.904 72.9053C134.049 75.8156 126.51 77.1851 125.366 80.1613C124.221 83.1374 124.221 93.33 120.459 93.014C116.696 92.6979 114.183 84.1646 109.434 81.8601C104.685 79.5555 104.632 73.3399 110.526 74.6568ZM90.2654 55.2197C90.2654 55.2197 93.4229 58.0773 97.9618 61.5934C102.501 65.1094 110.618 66.0312 108.868 68.1777C107.118 70.3242 100.409 68.6255 98.4485 71.865C96.4883 75.1045 100.304 77.9621 95.9883 79.1736C91.6732 80.3851 85.4635 81.4781 87.3185 75.6576C89.1735 69.837 91.3969 69.9292 89.7392 65.4782C88.0815 61.0271 86.1213 51.8617 90.2654 55.2197Z" fill="#663B20"/>
<path d="M57.5069 106.578C57.5069 106.723 74.0441 156.105 81.4115 160.451L78.083 166.166C68.5712 160.556 51.3104 108.83 51.2578 108.672L57.5069 106.578Z" fill="#519A48"/>
<path d="M43.0615 67.4667C43.1667 67.4667 79.438 60.6189 100.948 64.2272L99.8562 70.8115C79.4775 67.4008 44.3508 73.9852 44.2192 73.9852L43.0352 67.4798L43.0615 67.4667Z" fill="#519A48"/>
<path d="M138.628 84.5201C138.628 84.6387 135.115 128.319 141.772 136.642L136.641 140.803C128.313 130.387 132.05 84.1778 132.063 83.9934L138.641 84.5201H138.628Z" fill="#519A48"/>
<path d="M104 178.11C104.145 178.044 151.191 154.565 153.677 154.565V161.215C152.677 161.215 107.052 183.997 106.921 184.063L104 178.11Z" fill="#519A48"/>
<path d="M106.644 30.3046C106.763 30.3046 147.428 46.028 159.637 64.6486L154.138 68.3095C143.074 51.4536 104.395 36.5202 104.276 36.4807L106.644 30.3046Z" fill="#519A48"/>
<path fill-rule="evenodd" clip-rule="evenodd" d="M94.7252 122.709C87.8183 122.38 73.8991 115.941 69.005 120.905C64.111 125.87 75.2936 127.319 69.3602 132.678C63.4269 138.038 47.7711 144.293 63.3348 149.429C78.8984 154.565 66.8869 139.355 83.503 149.165C100.119 158.976 107.039 152.984 101.922 142.278C96.8038 131.572 107.934 119.812 94.712 122.709H94.7252Z" fill="#542E17"/>
<path fill-rule="evenodd" clip-rule="evenodd" d="M98.291 127.398C97.0411 131.263 96.9815 135.415 98.12 139.315C100.08 145.412 101.014 149.007 96.9754 149.244C92.9365 149.482 91.713 143.384 85.135 142.66C78.5569 141.936 77.465 144.899 72.9919 144.122C68.5188 143.345 70.9659 138.196 77.5702 138.196C84.1746 138.196 91.9761 142.528 92.6865 139.513C93.397 136.497 90.7789 133.64 90.6737 131.111C90.5684 128.583 85.4112 128.188 82.0959 126.66C78.7806 125.133 85.8717 123.302 91.542 125.83C97.2122 128.359 96.6991 122.393 98.3173 127.371L98.291 127.398Z" fill="#663B20"/>
<path fill-rule="evenodd" clip-rule="evenodd" d="M172.912 79.1079C172.912 79.1079 186.384 76.3951 189.002 78.4889C191.62 80.5828 194.593 96.9251 192.054 106.617C189.515 116.31 183.463 123.368 178.753 123.447C174.043 123.526 165.663 120.813 166.584 117.561C167.505 114.308 177.648 109.804 172.912 79.1079Z" fill="#F5DEB6"/>
<path d="M178.24 79.8322C178.24 79.8322 182.187 93.0009 178.319 103.536C174.451 114.071 170.425 119.022 170.425 119.035L169.109 118.008C169.109 118.008 173.056 113.057 176.779 102.956C180.503 92.856 176.687 80.3852 176.674 80.3457L178.253 79.8717L178.24 79.8322Z" fill="#FFF3DA"/>
<path d="M181.766 83.0452C181.766 83.0452 186.634 83.809 189.594 82.4526L190.265 83.967C186.871 85.5209 181.529 84.6913 181.503 84.6913L181.766 83.0452ZM175.307 116.349C175.307 116.349 180.174 117.113 183.134 115.756L183.819 117.258C180.411 118.825 175.07 117.982 175.057 117.982L175.307 116.349ZM178.359 109.975C178.359 109.975 183.227 110.739 186.252 109.383L186.937 110.884C183.529 112.451 178.188 111.608 178.175 111.608L178.425 109.975H178.359ZM181.306 104.076C181.306 104.076 186.187 104.839 189.134 103.483L189.818 104.997C186.41 106.551 181.069 105.722 181.056 105.722L181.306 104.076ZM182.845 95.4238C182.845 95.4238 187.713 96.1876 190.673 94.8312L191.357 96.3325C187.95 97.8996 182.608 97.0567 182.595 97.0567L182.845 95.4238ZM182.424 88.642C182.424 88.642 187.305 89.4057 190.252 88.0493L190.936 89.5506C187.542 91.1177 182.187 90.2749 182.174 90.2749L182.424 88.642Z" fill="#FFF3DA"/>
<path fill-rule="evenodd" clip-rule="evenodd" d="M70.1892 163.533C70.1892 163.533 65.203 176.425 62.0455 177.531C58.8881 178.637 43.627 172.329 36.8517 164.968C30.0763 157.607 27.4583 148.652 29.9316 144.622C32.4049 140.593 39.2197 134.956 41.4037 137.458C43.5876 139.961 41.9431 151.035 70.1892 163.533Z" fill="#F5DEB6"/>
<path d="M66.7025 167.72C66.7025 167.72 53.5465 163.954 46.8632 155.039C40.1799 146.123 38.167 139.987 38.167 139.96L39.7194 139.434C39.7194 139.434 41.7323 145.452 48.1788 154.038C54.6253 162.624 67.1235 166.127 67.163 166.127L66.7025 167.72Z" fill="#FFF3DA"/>
<path d="M62.1243 168.971C62.1243 168.971 58.8616 172.698 58.4011 175.938L56.7698 175.7C57.296 171.974 60.8745 167.891 60.8877 167.878L62.1243 168.971ZM37.733 145.57C37.733 145.57 34.4702 149.284 34.0098 152.524L32.3916 152.3C32.9047 148.573 36.4831 144.491 36.4963 144.477L37.733 145.57ZM41.4166 151.589C41.4166 151.589 38.1539 155.315 37.7066 158.555L36.0753 158.318C36.6015 154.591 40.18 150.509 40.18 150.496L41.4166 151.589ZM44.7583 157.264C44.7583 157.264 41.4956 160.991 41.0483 164.231L39.4169 163.993C39.9432 160.267 43.5216 156.184 43.5348 156.171L44.7583 157.264ZM51.1785 163.23C51.1785 163.23 47.9158 166.956 47.4684 170.196L45.8371 169.959C46.3634 166.232 49.9418 162.15 49.9549 162.137L51.1785 163.23ZM57.0855 166.535C57.0855 166.535 53.8228 170.249 53.3624 173.488L51.731 173.264C52.2572 169.524 55.8357 165.442 55.8489 165.429L57.0855 166.535Z" fill="#FFF3DA"/>
<path d="M87.2657 96.3721C87.2657 96.4774 110.736 133.429 121.051 136.01L119.445 142.463C106.566 139.223 81.7796 100.086 81.7139 99.9671L87.2657 96.3853V96.3721Z" fill="#FA692F"/>
<path d="M41.1671 125.027C41.2329 125.146 64.6376 162.084 74.9388 164.678L73.3469 171.105C60.4671 167.865 35.681 128.728 35.6152 128.622L41.1671 125.027Z" fill="#FA692F"/>
<path d="M112.828 72.6683C112.933 72.6683 149.192 65.8206 170.715 69.4288L169.636 76.0132C149.244 72.5893 114.117 79.2 114.012 79.2264L112.828 72.7078V72.6683Z" fill="#FA692F"/>
<path d="M144.205 97.8337C144.324 97.8337 184.989 113.557 197.198 132.191L191.633 135.878C180.569 119.009 141.89 104.089 141.771 104.036L144.14 97.8601L144.205 97.8337Z" fill="#FA692F"/>
<path d="M89.5421 33.3465C89.4763 33.4519 66.4006 70.614 68.4924 81.0963L62.0459 82.4131C59.4147 69.3103 83.8455 29.9621 83.9244 29.8436L89.5289 33.3465H89.5421Z" fill="#FA692F"/>
<path d="M67.6367 180.178C67.6367 180.178 80.1745 161.373 99.4218 159.253C115.512 157.475 129.931 145.676 129.97 145.636L135.127 152.102C135.127 152.102 118.827 165.455 100.29 167.483C84.8843 169.182 74.4779 184.813 74.4779 184.853L67.6762 180.178H67.6367Z" fill="#EFD05C"/>
<path d="M34.9043 81.2017C34.9701 81.2017 56.9539 76.6584 72.136 88.7473C84.8447 98.8609 103.329 100.599 103.382 100.599L102.553 108.843C102.553 108.843 81.6346 106.841 67.0314 95.1868C54.8883 85.521 36.5751 89.2741 36.5093 89.2872L34.9306 81.1622L34.9043 81.2017Z" fill="#EFD05C"/>
<path d="M96.9746 51.098C96.9746 51.098 119.024 46.568 134.206 58.6437C146.915 68.7573 165.399 70.4956 165.452 70.4956L164.623 78.7392C164.623 78.7392 143.705 76.7375 129.102 65.0964C116.959 55.4174 98.6323 59.1836 98.5797 59.1968L97.0009 51.0585L96.9746 51.098Z" fill="#EFD05C"/>
<path d="M132.602 101.85C132.602 101.85 151.27 114.519 153.322 133.877C155.046 150.087 166.755 164.626 166.781 164.665L160.361 169.84C160.361 169.84 147.126 153.406 145.139 134.746C143.482 119.233 128.036 108.711 127.944 108.685L132.602 101.85Z" fill="#EFD05C"/>
<path fill-rule="evenodd" clip-rule="evenodd" d="M54.8752 76.316C54.8752 76.316 53.9017 85.06 65.2027 96.7012C76.5038 108.342 80.5427 115.928 78.9245 118.983C77.3063 122.038 66.663 129.07 64.3213 130.084C61.9795 131.098 51.8493 122.815 48.705 114.966C45.5607 107.118 46.0738 104.721 40.1799 99.8354C34.2859 94.9498 32.1678 86.4296 37.4171 81.3991C42.6664 76.3687 54.1779 73.0107 54.8752 76.3424V76.316Z" fill="#A66A44"/>
<path fill-rule="evenodd" clip-rule="evenodd" d="M36.562 91.1045C38.0881 92.0922 48.0341 100.323 49.9285 104.273C51.823 108.224 52.665 114.163 56.2303 117.942C59.7956 121.722 62.0058 121.814 60.8086 122.393C59.6114 122.973 53.7175 118.732 50.1522 111.305C46.5869 103.878 47.3631 101.877 42.2586 98.1366C37.154 94.3967 34.8912 89.5243 36.5883 91.0255L36.562 91.1045ZM41.285 82.479C41.285 82.479 43.9951 96.3325 51.8888 100.507C58.5895 104.019 64.5313 108.821 69.3732 114.637C73.32 119.391 74.6356 121.959 73.32 121.011C72.0044 120.063 68.8075 116.099 64.8212 112.793C60.8349 109.488 58.2432 107.012 57.467 107.671C56.6908 108.329 61.8874 115.137 64.9001 118.298C67.9129 121.458 69.268 125.185 68.0181 124.632C66.7683 124.079 61.3217 117.139 59.0194 114.097C56.7171 111.055 56.3882 108.83 55.4015 106.354C54.4148 103.878 51.5467 103.47 47.863 99.8881C44.1793 96.3062 37.7723 79.4765 41.285 82.4658V82.479ZM47.4552 78.6469C48.0998 80.5696 48.7708 89.8667 53.4412 94.9761C58.1116 100.086 56.5592 100.481 54.1385 98.321C50.9863 95.1648 48.6085 91.3197 47.1921 87.0881C45.8765 82.7556 45.1002 77.5934 47.4552 78.6469ZM50.2311 78.6469C50.2311 78.6469 52.8623 90.4988 62.0716 97.9391C71.2809 105.379 77.8589 117.692 76.3459 118.258C74.833 118.825 69.7679 107.091 65.6501 103.839C61.5322 100.586 55.4409 96.214 52.6387 90.5909C49.8364 84.9679 48.6129 77.1589 50.2837 78.6469H50.2311Z" fill="#865334"/>
<path fill-rule="evenodd" clip-rule="evenodd" d="M106.474 103.47C106.474 103.47 110.513 102.482 121.866 106.551C133.22 110.621 134.496 102.877 141.824 106.551C149.152 110.226 155.441 115.111 147.008 119.496C138.575 123.881 141.509 126.739 137.904 133.231C134.299 139.723 127.3 148.823 121.959 137.998C116.617 127.174 115.052 131.756 108.237 129.702C101.422 127.648 107.776 118.285 109.197 114.321C110.618 110.357 104.395 112.464 102.974 107.96C101.554 103.457 106.474 103.444 106.474 103.444V103.47Z" fill="#542E17"/>
<path fill-rule="evenodd" clip-rule="evenodd" d="M111.631 108.777C111.631 108.777 115.249 112.267 124.787 112.043C134.325 111.819 138.101 108.527 139.746 111.279C141.39 114.031 133.628 114.466 128.287 115.888C122.945 117.31 128.392 118.719 120.393 122.354C112.394 125.989 104.369 124.026 109.71 119.957C115.052 115.888 113.407 112.596 111.026 111.358C108.645 110.12 106.566 104.853 111.618 108.724L111.631 108.777ZM135.707 124.171C135.707 124.171 134.246 134.403 130.971 137.156C127.695 139.908 128.642 130.479 125.274 129.017C121.906 127.556 131.063 116.757 135.707 124.171Z" fill="#663B20"/>
</svg>
