<svg width="215" height="215" viewBox="0 0 215 215" fill="none" xmlns="http://www.w3.org/2000/svg">
<g clip-path="url(#clip0_76_15165)">
<path fill-rule="evenodd" clip-rule="evenodd" d="M59.4808 179.375C49.7524 171.75 41.9211 161.975 36.6002 150.816C31.2793 139.657 28.6133 127.417 28.811 115.055L28.9714 114.916L29.2064 114.702L29.4523 114.489L29.7087 114.264L29.9759 114.018L30.243 113.762L30.5316 113.495L30.8201 113.206L31.1193 112.907L31.4292 112.597L31.7498 112.276L32.0703 111.944L32.3803 111.613L32.7009 111.282L33.0214 110.94L33.342 110.598L33.6627 110.245L33.9832 109.903L34.3038 109.55L34.6244 109.197L34.945 108.844L35.2656 108.492L35.5862 108.128L35.9068 107.765L36.238 107.401L36.5586 107.038L36.8899 106.674L37.2212 106.311L37.5524 105.948L37.8837 105.584L38.215 105.221L38.5142 104.836L38.8455 104.472L39.1768 104.109L39.5829 103.767L39.9141 103.414L40.2561 103.061L40.5981 102.709L40.9401 102.356L41.282 102.014L41.6239 101.672L41.9659 101.33L42.3079 100.987L42.6605 100.656L43.0132 100.335L43.3552 100.004L43.7078 99.694L44.0604 99.3734L44.4238 99.074L44.7764 98.7747L45.1291 98.4861L45.4924 98.1975L45.8557 97.9195L46.2191 97.6416L46.5824 97.3744L46.9458 97.1071L47.3198 96.8506L47.6831 96.6047L48.0571 96.3695L48.4312 96.145L48.8052 95.9313L49.1899 95.7175C49.311 95.6434 49.4359 95.5756 49.5639 95.5144L49.9486 95.3219L50.3333 95.1295L50.718 94.9585L51.1028 94.7981L51.4874 94.6485L51.8828 94.4988L52.2782 94.3705L52.6736 94.253L53.069 94.1461C53.2018 94.1039 53.3375 94.0718 53.4751 94.0499L53.8705 93.975L54.2766 93.9002L54.672 93.8254L55.0673 93.7612L55.452 93.6971H55.8368L56.2215 93.6436L56.5955 93.5902H56.9695H57.3435H57.7069H58.0702H58.4336H58.7862H59.1388H61.8211H62.1417H62.4623H62.7722H63.0821H63.392H63.7019H64.0011H64.3003L64.5995 93.6436L64.8988 93.6971H65.1873L65.4758 93.7612L65.7644 93.8254L66.0422 93.8895L66.3201 93.9537L66.5979 94.0285L66.8757 94.114L67.1429 94.1888L67.41 94.2743L67.6772 94.3705L67.9443 94.4561L68.2115 94.5523L68.4787 94.6592L68.7352 94.7554L68.9917 94.8623L69.2481 94.9692L69.5046 95.0761L69.761 95.1937L70.0068 95.3112L70.2633 95.4288L70.5091 95.5571L71.0007 95.8137L71.2358 95.9419L71.4815 96.0809L71.7167 96.2199L71.9517 96.3588L72.4326 96.6475L72.6571 96.7971L72.8921 96.9468L73.1273 97.1071H73.1914L73.3303 97.2033H73.4371L73.5547 97.2782L73.6723 97.3423L73.7791 97.3958L73.8966 97.4492L74.057 97.524H74.1211L74.3348 97.6202H74.4524L74.6127 97.6844H74.7088L74.8691 97.7378H74.9867L75.1576 97.7913H75.2431L75.4889 97.8554H75.6385H75.8095H75.895H76.0767H76.2156H76.4507H76.7178H76.782C76.9957 97.8554 77.1988 97.9302 77.4125 97.9516C78.0857 98.0478 78.7803 98.1226 79.5497 98.2082C82.7556 98.5716 86.421 98.9244 89.4132 100.902C91.553 102.357 93.1766 104.453 94.051 106.888C94.5765 108.432 95.3061 109.899 96.2204 111.25L96.4448 111.549L96.6906 111.87C97.0424 112.316 97.4169 112.744 97.8126 113.152L98.0905 113.43L98.3576 113.687L98.6462 113.954C99.1912 114.457 99.7148 114.906 100.313 115.333L100.463 115.451C101.083 115.91 101.702 116.349 102.312 116.787H102.376C102.867 117.14 103.348 117.492 103.829 117.856L104.096 118.07L104.641 118.529L105.208 119.032L105.485 119.288C107.623 121.309 109.29 124.077 110.081 129.016C112.303 142.806 108.371 139.706 109.771 145.19C111.171 150.673 109.3 152.416 105.785 156.649C102.269 160.882 103.786 164.805 99.2018 167.595C96.7735 169.306 94.4537 171.166 92.2557 173.165L92.0527 173.325L91.9673 173.4L91.8283 173.517L91.5719 173.721L91.294 173.934L91.1444 174.052L91.0269 174.137L90.8665 174.255L90.781 174.319H90.7169L90.5673 174.426L90.4925 174.479L90.2574 174.661L90.1506 174.736L89.9902 174.854L89.8086 175.388L89.6483 175.495L89.3598 175.698L89.1354 175.848H89.0819L88.9216 175.955L88.8362 176.008L88.7614 176.062L88.2698 176.382L88.0347 176.532H87.9706H87.8958L87.6606 176.671L87.4149 176.81L87.1584 176.96L86.8592 177.12L86.6134 177.259L86.3462 177.387L86.0257 177.547L85.7157 177.697L85.4165 177.825L85.1173 177.943L84.8394 178.05L84.5723 178.157L84.2517 178.274L83.9204 178.381L83.6105 178.477L83.3006 178.574C83.0869 178.627 82.8625 178.691 82.638 178.734L82.2961 178.809L81.9328 178.873L81.5694 178.948L81.2168 179.012L80.8748 179.065L80.5222 179.119L80.1802 179.172H79.8382L79.4963 179.226H79.165H78.8337H78.5131H78.1819H77.872H77.5514H77.2415H76.9316H72.8601H72.5822H71.7701H71.5029H71.2465H70.9793H70.7121H70.4557H70.1992H69.9321H69.6755H69.4191H69.1626H68.9061H68.6497H68.4039H68.1474H62.0669H61.8211H61.5967H61.3723H61.2975H61.1051H60.87H60.6028H60.4105L59.4808 179.375ZM105.314 119.246L104.769 118.732L105.336 119.235L105.314 119.246Z" fill="#C8CED4"/>
<path fill-rule="evenodd" clip-rule="evenodd" d="M134.692 41.2532C141.997 43.866 148.878 47.5399 155.113 52.1568C158.618 58.3141 160.595 55.0964 163.545 64.1507V64.2896L163.63 64.5782V64.7172L163.705 64.9845V65.1234L163.769 65.412V65.5617V65.7007V65.8503V65.9145V66.1176V66.3741V66.5345V66.6841V66.7376V66.9086V66.9727V67.1224V67.1758V67.3041V67.5821V67.7103V68.0417V68.1272V68.4693C163.769 68.5976 163.769 68.7259 163.769 68.8541C163.769 68.9824 163.769 69.1 163.769 69.2283V70.1155C163.769 70.2438 163.769 70.3721 163.769 70.5111V70.8852C163.769 71.0135 163.769 71.1524 163.769 71.2807C163.769 71.409 163.769 71.5373 163.769 71.6655V71.7404L163.705 72.1145C163.705 72.2535 163.652 72.3818 163.63 72.51V72.5635L163.534 72.959C163.534 73.098 163.459 73.2369 163.427 73.3759L163.31 73.7821L163.192 74.1776L163.085 74.5518L162.978 74.9152L162.871 75.2573L162.775 75.5887L162.668 75.8987L162.572 76.198L162.476 76.4759L162.38 76.7539L162.284 77.0104L162.188 77.2456L162.102 77.4808L162.006 77.7052L161.92 77.9083L161.835 78.1115L161.739 78.3039L161.653 78.4856L161.568 78.6566L161.482 78.817L161.397 78.9773L161.301 79.127L161.215 79.2659L161.13 79.4049L161.033 79.5332L160.948 79.6615L160.852 79.7898L160.766 79.9073L160.67 80.0249L160.574 80.1425L160.478 80.2601L160.382 80.367L160.285 80.4846L160.179 80.5915L160.072 80.7091L159.965 80.816L159.858 80.9336L159.751 81.0511L159.634 81.1687L159.516 81.297L159.398 81.4253L159.27 81.5536L159.153 81.6925L159.014 81.8422L158.886 81.9918L159.27 82.3874L159.131 82.5584L158.982 82.7294L158.832 82.9111L158.682 83.0929L158.522 83.296L158.351 83.4991L158.191 83.7129L158.009 83.948L157.838 84.1832L157.657 84.4398L157.475 84.7177L157.283 84.9957L157.09 85.295L156.876 85.605L156.663 85.9257L156.449 86.2784L156.225 86.6312L155.989 87.0053L155.754 87.4008L155.519 87.7857L155.284 88.1812L155.06 88.5874L154.825 88.9936L154.59 89.3998L154.355 89.806L154.13 90.2229L153.895 90.6398L153.66 91.0567L153.425 91.4843L153.19 91.9119L152.955 92.3288L152.73 92.7564L152.495 93.184L152.26 93.6223L152.025 94.0499L151.779 94.4774L151.544 94.905L151.309 95.3433L151.063 95.7709L150.828 96.1985L150.582 96.6261L150.336 97.0644L150.091 97.4813L149.845 97.9088L149.599 98.3365L149.353 98.7533L149.097 99.1703L148.84 99.5871L148.584 100.004L148.327 100.421L148.071 100.827L147.804 101.223L147.537 101.629L147.269 102.024L147.002 102.409L146.735 102.794L146.457 103.179L146.179 103.553L145.902 103.927L145.613 104.291L145.325 104.654L145.036 105.007L144.737 105.349L144.448 105.691C144.341 105.798 144.245 105.915 144.149 106.022L143.839 106.354L143.529 106.664C143.431 106.772 143.328 106.876 143.219 106.974L142.909 107.284L142.589 107.572L142.268 107.861L141.937 108.139L141.606 108.406L141.274 108.663L140.932 108.909L140.591 109.154L140.238 109.379L139.885 109.593L139.533 109.807L139.169 109.999L138.795 110.191L138.421 110.362L138.047 110.533L137.684 110.694L137.31 110.843L136.946 110.993L136.583 111.143L136.23 111.282L135.867 111.41L135.515 111.538L135.162 111.667L134.82 111.784L134.467 111.891L134.125 112.009L133.783 112.105L133.452 112.201L133.11 112.297L132.779 112.383L132.448 112.468L132.127 112.543L131.796 112.618L131.475 112.693L131.154 112.757L130.834 112.81L130.513 112.864L130.203 112.917H129.894H129.573H129.274H128.964H128.654H128.355H128.055H127.756H125.427H125.138H124.86H124.582H124.294H124.016H123.738H123.471H123.193L122.915 112.864H122.648L122.37 112.81L122.103 112.746L121.836 112.682L121.569 112.618L121.302 112.543L121.034 112.479L120.799 112.319L120.532 112.244L120.276 112.158L120.009 112.073L119.752 111.987L119.485 111.902L119.229 111.806L118.961 111.709L118.726 111.624H118.651L118.459 111.57H118.256H118.181H117.978H117.893H117.658H117.551H117.401H115.349H115.082H114.997L114.377 111.624L113.693 111.688H113.447H113.319H112.956H112.849H112.592H112.304C109.098 112.094 105.465 112.575 102.098 111.357C101.581 111.171 101.081 110.942 100.602 110.672C98.8452 109.678 97.3477 108.282 96.2316 106.6C95.435 105.428 94.5063 104.352 93.4638 103.393L93.1432 103.104C91.0156 101.431 88.625 100.123 86.0689 99.2344H85.962L85.791 99.1596H85.7269L85.0964 98.8923H85.043L84.7545 98.764L84.4552 98.6358L84.156 98.4968C84.0706 98.4968 79.1121 97.2675 75.7993 89.2074C70.4562 76.2942 75.0299 78.3787 72.4224 73.3973C69.815 68.4159 71.2362 66.2565 73.6834 61.3179C76.1306 56.3792 73.7689 52.9264 77.6053 49.1422C79.5776 46.9191 81.4119 44.5772 83.098 42.1298L83.2049 41.9801V41.916L83.2691 41.8305L83.3866 41.6808L83.5896 41.4136L83.6965 41.2746L83.8141 41.1356L84.2415 40.6012C100.742 35.2978 118.534 35.606 134.841 41.4777L134.692 41.2532Z" fill="#C8CED4"/>
<path fill-rule="evenodd" clip-rule="evenodd" d="M152.281 48.9391C149.792 44.072 146.405 39.7196 142.3 36.1114C136.027 30.959 133.857 32.8404 128.963 28.34C124.069 23.8396 111.437 23.1982 106.244 24.8017C101.05 26.4052 95.8568 25.9562 88.6115 29.3234C81.3661 32.6907 77.7435 40.7828 73.9178 44.5563C70.0921 48.3298 72.4431 51.7933 69.9959 56.732C67.5487 61.6706 66.1275 63.8193 68.7349 68.8007C71.3424 73.7821 66.8007 71.7083 72.1118 84.6215C77.4229 97.5347 85.8116 92.2647 92.6722 102.131C99.5329 111.998 109.963 105.242 115.509 107.337C121.055 109.432 126.997 109.614 135.001 106.012C143.005 102.409 147.547 90.875 152.569 82.6546C157.592 74.4342 158.051 78.2611 160.541 69.2603C163.031 60.2596 155.679 50.3716 152.281 48.9498V48.9391Z" fill="#FDD657"/>
<path fill-rule="evenodd" clip-rule="evenodd" d="M125.073 26.0204C124.806 28.8852 123.78 31.8035 120.66 31.3652C114.718 30.5849 111.63 22.9417 108.531 29.1632C105.432 35.3846 114.654 34.7005 106.298 39.7033C97.9409 44.7061 93.0893 43.1774 90.0117 46.9402C86.934 50.703 82.0396 51.5475 82.9694 55.7272C83.8991 59.9069 85.1066 53.9848 87.6072 62.6221C90.1078 71.2594 85.2776 70.9601 89.8727 72.4673C94.4679 73.9746 99.3301 74.5198 96.7226 79.9501C94.1152 85.3805 92.0635 82.6226 92.2237 87.3688C92.384 92.1151 95.7075 88.2668 92.5229 94.392C91.7535 95.8779 90.8666 97.4386 89.9369 98.9031C86.2714 95.5892 82.3602 95.0761 78.8231 92.9596C78.4063 90.2444 78.0109 87.6147 77.4766 85.6157C76.066 80.4632 66.7903 71.4945 72.1335 71.0135C77.4766 70.5325 82.6916 70.5966 79.5498 64.9524C76.408 59.3083 70.6801 62.8145 75.9698 55.663C81.2596 48.5116 83.4502 46.2347 80.2444 45.9354C77.0385 45.6361 72.7639 43.1988 78.0216 41.5312C81.7175 40.4662 85.3347 39.1445 88.8468 37.576C92.0804 36.2757 95.2223 34.7579 98.2508 33.0328C98.2508 33.0328 91.5185 30.5421 86.2822 33.9415C84.1243 35.3207 81.8459 36.5014 79.475 37.4691C81.8901 34.2622 84.754 31.0553 88.6866 29.2487C95.9319 25.8814 101.115 26.3197 106.319 24.7269C110.433 23.4548 119.228 23.5938 125.127 25.9456L125.073 26.0204ZM97.054 106.193C103.466 109.689 111.064 105.638 115.531 107.327C121.066 109.465 127.018 109.603 135.022 106.001C143.027 102.399 147.568 90.8644 152.591 82.6439C157.613 74.4235 158.073 78.2505 160.563 69.2497C161.354 66.1035 161.198 62.7935 160.114 59.7358C158.546 59.8158 157.018 60.2664 155.658 61.0507C148.851 64.6745 148.177 63.691 141.766 66.5559C135.354 69.4207 128.034 70.7463 132.062 72.5315C136.091 74.3166 144.704 65.1555 146.767 70.7142C148.829 76.2729 139.949 86.3319 137.245 91.7944C134.542 97.2568 130.182 103.435 131.656 97.4706C133.131 91.5057 139.254 79.0201 132.96 86.0326C126.666 93.0451 131.988 94.702 125.255 96.0489C118.523 97.3958 122.113 99.9186 123.503 100.902C124.892 101.885 114.954 105.37 113.329 101.501C111.705 97.631 107.324 99.6941 110.946 94.1033C114.569 88.5126 121.023 90.6399 116.77 88.0744C112.517 85.5088 105.763 83.4029 106.533 79.266C107.302 75.1291 98.86 82.9967 105.603 91.1316C112.346 99.2665 104.417 95.0548 98.9882 103.339C98.3257 104.355 97.6631 105.306 97.0219 106.193H97.054ZM151.554 47.5923C149.166 43.2465 146.029 39.3564 142.289 36.1008C136.145 31.0553 133.932 32.7549 129.263 28.618C127.189 31.6646 123.791 37.5225 121.301 36.9132C118.395 36.2077 115.125 35.0212 108.082 40.9754C101.04 46.9295 110.07 42.6643 112.987 46.4806C115.905 50.2968 115.007 51.3123 117.144 48.1589C119.282 45.0054 122.37 50.1792 125.822 45.5078C129.273 40.8364 132.832 36.956 134.125 35.096C135.418 33.236 139.137 35.1708 139.137 35.1708C139.137 35.1708 141.274 39.6819 136.871 41.9802C132.468 44.2785 136.871 43.7974 135.803 47.9664C134.734 52.1354 136.465 52.2423 143.358 48.4688C145.884 47.2106 148.778 46.9033 151.511 47.603L151.554 47.5923Z" fill="#F0C330"/>
<path fill-rule="evenodd" clip-rule="evenodd" d="M83.7073 70.8959C83.7073 70.8959 88.0567 70.789 93.6349 71.1097C94.8318 73.0125 96.4561 76.5187 97.6102 76.7859C99.1597 77.1387 103.295 73.2369 106.159 73.6966C109.023 74.1562 113.255 75.2359 115.072 75.6849C116.888 76.1339 121.035 77.5449 125.94 78.8918C127.177 79.2357 128.443 79.4647 129.723 79.5759C135.312 81.4039 139.533 82.8577 139.533 82.8577L137.395 86.8664C137.395 86.8664 122.381 82.0667 110.391 79.3835C98.401 76.7004 83.5684 77.0318 83.5684 77.0318L83.6325 70.9173L83.7073 70.8959Z" fill="#315E38"/>
<path fill-rule="evenodd" clip-rule="evenodd" d="M82.6492 65.8076C82.6492 65.8076 85.8551 64.7387 91.1341 63.4666C91.8744 63.9665 92.7419 64.2446 93.6347 64.2683C97.4391 64.4607 98.5397 62.6328 101.361 62.4938C104.182 62.3549 107.067 63.3704 109.183 61.938C111.299 60.5055 112.122 61.5104 118.395 60.7086C120.219 60.5604 121.978 59.9617 123.514 58.9662C130.176 58.8438 136.839 59.133 143.465 59.8321L143.262 63.5949C143.262 63.5949 122.605 60.9438 110.134 63.5414C97.6635 66.139 84.2201 69.1001 84.2201 69.1001L82.6064 65.8076H82.6492ZM87.1802 49.5592C89.435 47.8382 96.7979 46.5127 106.416 41.7985C111.846 39.1692 117.139 36.265 122.274 33.097L123.011 36.5391C123.011 36.5391 108.457 43.7333 102.707 46.3844C96.9582 49.0354 95.8575 46.2668 92.4913 49.8906C89.1251 53.5144 90.0869 53.6427 88.7725 53.6427C87.4581 53.6427 87.2336 49.5592 87.2336 49.5592H87.1802Z" fill="#358541"/>
<path fill-rule="evenodd" clip-rule="evenodd" d="M106.031 79.6721C113.562 84.0837 120.167 89.9138 125.48 96.8399L121.323 99.7261C121.323 99.7261 110.84 86.2356 99.6511 81.4146C92.2711 78.3304 84.6279 75.919 76.8145 74.2097L76.964 72.339C77.4235 73.4935 77.9258 74.4769 77.9258 74.4769C78.9143 73.5633 80.0932 72.8806 81.3775 72.478C82.959 72.1893 87.2549 73.5469 88.4411 73.3759C89.6273 73.2049 93.6454 75.0221 96.146 76.3583C99.3737 77.6602 102.674 78.7738 106.031 79.6935V79.6721Z" fill="#358541"/>
<path fill-rule="evenodd" clip-rule="evenodd" d="M115.756 44.4281C115.756 44.4281 115.905 47.913 108.382 52.4133C100.859 56.9137 96.082 56.1975 96.082 56.1975V58.763C100.358 58.7523 104.542 57.5251 108.147 55.2247C112.291 52.4389 116.044 49.1097 119.303 45.326L115.788 44.4281H115.756Z" fill="#99AE4C"/>
<path fill-rule="evenodd" clip-rule="evenodd" d="M147.739 49.4309C146.109 50.8877 144.277 52.1011 142.3 53.0333C139.521 54.1985 140.568 52.6164 135.963 51.7185C131.357 50.8206 121.333 50.8954 121.333 50.8954C121.333 50.8954 121.547 54.252 121.793 54.1023C122.038 53.9527 131.848 53.0333 135.685 54.6795C139.521 56.3258 142.706 57.2558 145.644 54.9682C147.285 53.7183 148.777 52.2836 150.09 50.6923L147.739 49.4523V49.4309Z" fill="#99AE4C"/>
<path fill-rule="evenodd" clip-rule="evenodd" d="M128.899 84.9422C128.536 85.5408 132.33 88.5233 129.572 91.4202C126.815 94.3171 122.755 94.0392 123.802 91.5805C124.849 89.1219 127.638 83.3494 128.899 84.9422ZM82.0503 52.873C84.038 54.7864 89.6483 58.6882 85.2562 62.9961C80.8642 67.3041 78.7376 65.6899 78.2246 69.1427C77.7117 72.5955 73.6509 64.6851 77.2415 63.0389C80.8321 61.3927 83.9632 57.694 82.0289 56.7854C80.0947 55.8768 78.5986 52.0392 82.0289 52.873H82.0503ZM106.971 35.4487C103.562 36.7528 101.767 40.5691 97.4494 40.7401C93.1321 40.9111 89.5629 40.3339 91.1658 38.0997C92.7688 35.8656 94.7457 37.4691 97.973 36.229C101.2 34.989 108.2 30.8842 106.971 35.4487ZM136.593 66.8017C136.593 66.8017 131.827 69.7627 129.647 68.0738C127.467 66.3848 126.057 67.4965 121.803 67.5927C117.55 67.689 123.663 63.2527 126.933 64.792C130.203 66.3314 136.102 66.5024 136.551 66.8017H136.593Z" fill="#FCE38F"/>
<path fill-rule="evenodd" clip-rule="evenodd" d="M19.2152 142.4C20.5275 147.722 22.8334 152.749 26.0117 157.216C30.9487 163.629 33.4921 162.336 37.211 167.852C40.9298 173.368 53.1015 176.895 58.5836 176.543C64.0657 176.19 68.9494 177.804 76.7504 176.201C84.5514 174.597 89.9372 167.553 94.5324 164.763C99.1275 161.973 97.6101 158.049 101.126 153.816C104.642 149.583 106.469 147.809 105.101 142.357C103.733 136.905 107.644 139.973 105.422 126.183C103.199 112.394 93.8164 115.579 89.3922 104.398C84.9681 93.2161 73.2666 97.3745 68.3509 94.0606C63.4352 90.7468 57.6645 89.1968 49.1155 90.8537C40.5664 92.5106 33.4493 102.698 26.6742 109.539C19.8991 116.381 20.3265 112.554 15.8489 120.742C11.3714 128.931 16.2764 140.24 19.2579 142.421L19.2152 142.4Z" fill="#FDD657"/>
<path fill-rule="evenodd" clip-rule="evenodd" d="M40.4911 170.984C41.4102 168.258 43.0773 165.639 46.016 166.772C51.6263 168.91 52.8873 177.056 57.3221 171.711C61.7569 166.366 52.6308 164.912 61.9066 161.973C71.1823 159.033 75.5423 161.63 79.4001 158.68C83.2578 155.73 88.2056 156.04 88.259 151.753C88.3125 147.467 85.8012 152.961 85.3203 143.982C84.8394 135.002 89.488 136.403 85.3203 133.869C81.1526 131.336 76.5896 129.689 80.3725 124.965C84.1555 120.24 85.5126 123.436 86.4423 118.775C87.372 114.115 83.2365 117.108 87.7461 111.87C88.8147 110.608 90.0544 109.293 91.294 108.086C94.1045 112.158 97.7912 113.548 100.751 116.423C100.505 118.91 100.387 121.408 100.399 123.906C100.591 129.251 107.601 140.123 102.279 139.353C96.9577 138.583 91.9138 137.322 93.677 143.554C95.4402 149.786 101.831 147.67 95.0449 153.41C88.2591 159.15 85.5981 160.893 88.7078 161.898C91.8176 162.903 95.312 166.28 89.8727 166.708C86.0309 166.896 82.2067 167.349 78.4276 168.066C74.9862 168.583 71.5837 169.333 68.2436 170.31C68.2436 170.31 74.2279 174.287 80.0947 172.181C82.5269 171.337 85.0306 170.714 87.5751 170.321C84.4974 172.855 80.971 175.335 76.7285 176.201C68.9168 177.804 63.969 176.201 58.5617 176.543C54.2872 176.821 45.7382 174.661 40.5232 171.005L40.4911 170.984ZM86.0363 99.3627C80.629 94.4881 72.2723 96.6689 68.3184 94.0178C63.4027 90.704 57.632 89.154 49.083 90.8109C40.5339 92.4678 33.4168 102.655 26.6417 109.497C19.8666 116.338 20.294 112.511 15.8165 120.699C14.331 123.582 13.7288 126.84 14.0853 130.064C15.6299 130.343 17.2187 130.255 18.7231 129.807C26.2035 127.851 26.6417 128.973 33.4703 127.669C40.2988 126.365 47.7899 126.75 44.2741 124.088C40.7583 121.426 30.2857 128.364 29.5484 122.463C28.811 116.562 39.7432 108.834 43.6223 104.141C47.5014 99.4482 53.1438 94.4347 50.3547 99.8651C47.5655 105.295 38.7493 116.071 46.4755 110.704C54.2017 105.338 49.4035 102.484 56.2535 102.73C63.1034 102.976 60.1967 99.6834 59.064 98.4006C57.9312 97.1178 68.4039 96.0275 69.1198 100.164C69.8358 104.301 74.5485 103.318 69.7503 107.925C64.9521 112.532 59.1495 108.994 62.6974 112.447C66.2452 115.9 72.3151 119.524 70.6587 123.383C69.0023 127.242 78.9726 121.512 74.2707 112.041C69.5687 102.57 76.3224 108.502 83.4823 101.682C84.3692 100.849 85.2348 100.079 86.0469 99.3627H86.0363ZM19.6101 143.832C20.9499 148.61 23.1203 153.115 26.0219 157.141C30.8521 163.48 33.3848 162.325 36.9968 167.456C39.7004 164.955 44.3489 160.038 46.6144 161.203C49.2753 162.571 52.1927 164.474 60.4105 160.305C68.6282 156.136 58.8503 158.167 56.884 153.816C54.9177 149.465 56.0184 148.642 53.2186 151.219C50.4188 153.795 48.5914 148.012 44.1672 151.796C39.7431 155.58 35.3831 158.552 33.716 160.016C32.049 161.481 28.8431 158.798 28.8431 158.798C28.8431 158.798 27.7744 153.891 32.6046 152.683C37.4348 151.475 33 150.909 34.9663 147.092C36.9326 143.276 35.2976 142.816 27.7317 144.858C24.9805 145.49 22.0939 145.111 19.5994 143.789L19.6101 143.832Z" fill="#F0C330"/>
<path fill-rule="evenodd" clip-rule="evenodd" d="M87.3619 141.181C87.3619 141.181 83.0873 140.283 77.7442 138.69C77.0175 136.552 76.2374 132.768 75.1687 132.276C73.7475 131.582 68.8318 134.414 66.1068 133.345C63.3817 132.276 59.556 130.213 57.889 129.358C56.2219 128.503 52.5458 126.151 48.0361 123.735C46.9091 123.118 45.7289 122.602 44.5097 122.196C39.4871 119.128 35.7148 116.744 35.7148 116.744L38.675 113.323C38.675 113.323 52.1932 121.458 63.2535 126.846C74.3139 132.234 88.8152 135.323 88.8152 135.323L87.3619 141.181Z" fill="#315E38"/>
<path fill-rule="evenodd" clip-rule="evenodd" d="M90.8779 142.047C90.8779 142.047 87.5759 142.325 82.0938 142.367C81.4886 141.707 80.7056 141.236 79.8389 141.01C76.1842 139.941 74.6881 141.459 71.9097 140.946C69.1312 140.433 66.5665 138.808 64.1728 139.695C61.779 140.582 61.2233 139.428 54.9184 138.754C53.1215 138.482 51.285 138.662 49.5752 139.278C43.0583 137.859 36.6345 136.042 30.3398 133.837L31.4085 130.213C31.4085 130.213 50.9003 137.568 63.5957 137.899C76.291 138.231 90.0764 138.455 90.0764 138.455L90.8993 142.047H90.8779ZM82.7776 156.809C80.1809 157.964 72.7432 157.568 62.3134 159.941C56.4299 161.251 50.6162 162.856 44.8946 164.752L44.9694 161.235C44.9694 161.235 60.7639 157.59 66.9833 156.328C73.2027 155.067 73.6302 158.028 77.6696 155.259C81.709 152.491 80.8755 152.17 82.1472 152.48C83.4189 152.79 82.7242 156.756 82.7242 156.756L82.7776 156.809Z" fill="#358541"/>
<path fill-rule="evenodd" clip-rule="evenodd" d="M71.2362 123.147C64.9333 117.113 59.8535 109.92 56.2754 101.96L60.9774 100.111C60.9774 100.111 68.1158 115.654 77.9045 122.923C84.3829 127.632 91.2754 131.743 98.4971 135.205L97.9093 136.991C97.8007 136.224 97.6508 135.464 97.4605 134.714C96.2892 135.375 94.9866 135.769 93.6455 135.868C92.0426 135.783 88.1634 133.495 86.9772 133.356C85.791 133.217 82.2859 130.555 80.1487 128.674C77.304 126.663 74.3461 124.818 71.2897 123.147H71.2362Z" fill="#358541"/>
<path fill-rule="evenodd" clip-rule="evenodd" d="M53.7429 155.217C53.7429 155.217 54.3948 151.785 62.7408 149.145C71.0868 146.504 75.5644 148.3 75.5644 148.3L76.1735 145.81C72.0138 144.831 67.6613 145.061 63.6278 146.472C58.959 148.227 54.5485 150.603 50.5156 153.538L53.7215 155.217H53.7429Z" fill="#99AE4C"/>
<path fill-rule="evenodd" clip-rule="evenodd" d="M23.7568 142.977C25.6734 141.931 27.7327 141.171 29.8694 140.721C32.8402 140.23 31.4617 141.523 35.7362 143.458C40.0108 145.393 49.778 147.595 49.778 147.595C49.778 147.595 50.3444 144.27 50.0666 144.388C49.7887 144.506 40.0214 143.116 36.6659 140.625C33.3104 138.134 30.4251 136.499 27.0482 138.049C25.1509 138.876 23.3575 139.924 21.7051 141.17L23.7141 142.923L23.7568 142.977Z" fill="#99AE4C"/>
<path fill-rule="evenodd" clip-rule="evenodd" d="M50.1841 112.746C50.6757 112.255 47.6515 108.47 50.9963 106.332C54.3411 104.194 58.2416 105.349 56.6493 107.508C55.0571 109.668 51.0497 114.628 50.1841 112.789V112.746ZM88.4839 154.736C86.9772 152.427 82.4034 147.328 87.6825 144.153C92.9615 140.978 94.6392 143.084 95.9323 139.781C97.2253 136.477 99.3626 145.179 95.4942 145.949C91.6257 146.718 90.3754 148.867 92.0531 150.224C93.7309 151.582 91.6578 156.36 88.4839 154.746V154.736ZM60.2507 165.949C63.8734 165.468 66.4915 162.165 70.7233 162.999C74.9551 163.833 78.3106 165.212 76.2481 167.018C74.1856 168.825 73.0422 170.567 69.5905 171.027C66.1388 171.486 58.0173 170.118 60.2507 165.949ZM16.7039 131.988C16.7039 131.988 22.047 130.203 23.7462 132.341C25.4453 134.479 27.1124 133.741 31.2266 134.628C35.3408 135.515 28.4375 138.423 25.6056 136.167C22.7737 133.912 17.0565 132.394 16.6611 131.988H16.7039Z" fill="#FCE38F"/>
<path fill-rule="evenodd" clip-rule="evenodd" d="M39.6367 154.009C40.7054 152.801 47.737 148.439 56.8417 149.53C65.9465 150.62 78.567 150.802 78.567 150.802C78.567 150.802 81.6874 152.854 77.9579 153.218C74.2283 153.581 52.5565 152.149 52.5565 152.149C52.5565 152.149 49.0087 150.417 47.0851 152.469C45.4131 154.45 43.888 156.551 42.522 158.755L39.6367 154.041V154.009Z" fill="#315E38"/>
<path fill-rule="evenodd" clip-rule="evenodd" d="M171.612 107.861C171.612 107.861 171.078 107.679 170.159 107.433H170.063H169.934H169.817H169.753H169.667H169.55H169.4H169.272H169.197H169.112H168.973H168.802H168.663H168.567H168.492H168.331H168.15H168.011H167.904H167.819H167.637H167.434H167.284H167.156H167.081H166.878H166.664H166.6H166.451H166.301H166.226H166.002H165.778H165.703H165.553H165.393H165.094H164.869H164.773H164.634H164.452H164.388H164.142H163.907H163.544H163.394H163.213H163.149H162.892H162.657H162.411H162.198H161.941H161.877H161.225H157.132H156.78H156.438H156.363H156.085H155.999H155.658H155.294L154.952 107.487H154.632L154.311 107.54L154.012 107.594L153.734 107.647H153.467H153.381L152.879 107.754H152.655H152.441H152.377H152.174H152.11L151.917 107.808H151.853H151.789L151.597 107.861H151.426H151.351H151.287H151.137L150.966 107.915H150.902L150.71 107.979C150.272 108.128 149.855 108.289 149.47 108.46H149.374H149.267L148.893 108.62H148.818H148.711L148.348 108.78H148.284L148.166 108.834H148.113L147.824 108.973L147.173 109.272C145.234 109.991 143.167 110.301 141.103 110.181H140.707C139.183 110.302 137.694 110.704 136.315 111.367L136.08 111.474L135.802 111.602L135.589 111.709H135.503L135.279 111.827L135.033 111.955L134.798 112.084L134.52 112.244L134.296 112.372H134.231L134.007 112.5H133.932L132.864 113.152L132.607 113.334L132.34 113.505L132.073 113.698L131.848 113.858H131.795L131.603 113.997L131.496 114.082L131.303 114.221L131.218 114.286L131.004 114.446L130.748 114.638L130.534 114.809L130.47 114.863L130.267 115.023L130.203 115.077L129.978 115.258L129.743 115.451L129.487 115.665L129.305 115.825L129.209 115.9L129.017 116.071L128.557 116.488L128.311 116.701L128.119 116.883L127.905 117.086L127.702 117.279L127.478 117.493L127.253 117.717H127.2L127.029 117.888L126.869 118.048L126.708 118.219V118.273L126.495 118.497L126.292 118.711L126.142 118.882V118.936L126.035 119.064L125.832 119.288L125.64 119.513L125.458 119.727V119.791L125.287 119.994L125.212 120.09L125.063 120.272L124.86 120.518L124.678 120.742L124.582 120.87L124.486 121.009L124.315 121.245L124.176 121.448L124.037 121.64L123.876 121.875L123.716 122.121C123.566 122.367 123.428 122.602 123.31 122.827L123.192 123.051L123.075 123.286L122.947 123.511L122.829 123.735L122.701 123.949L122.583 124.174L122.455 124.387L122.316 124.601L122.188 124.826L122.06 125.039L121.921 125.253L121.782 125.456L121.654 125.67L121.515 125.884L121.376 126.098L121.237 126.301L120.959 126.728L120.82 126.932L120.671 127.145L120.532 127.359L120.382 127.573L120.232 127.787L120.083 127.99L119.933 128.204L119.784 128.417L119.634 128.642L119.484 128.856L119.324 129.07L119.174 129.294L119.025 129.508L118.875 129.732L118.715 129.957L118.565 130.181L118.416 130.416L118.255 130.641L118.106 130.876L117.956 131.111L117.796 131.357L117.646 131.592L117.497 131.838L117.347 132.084L117.197 132.341L117.037 132.586L116.888 132.843L116.738 133.11L116.588 133.367L116.439 133.634L116.3 133.912L116.15 134.19L116.001 134.468L115.862 134.746L115.712 135.034L115.573 135.334L115.434 135.622L115.285 135.922L115.146 136.232L115.017 136.542L114.879 136.852L114.74 137.172L114.611 137.493L114.472 137.835L114.344 138.166L114.216 138.519L114.088 138.861C114.002 139.078 113.927 139.3 113.863 139.524L113.767 139.845V139.898L113.682 140.219C113.596 140.572 113.511 140.924 113.447 141.288V141.609V141.951L113.393 142.293C113.393 142.517 113.329 142.752 113.308 142.977V143.319C113.308 143.543 113.308 143.779 113.308 144.003V144.751V145.457V146.237C113.308 146.43 113.308 146.622 113.308 146.814V146.879V147.199V147.552V147.894V148.183V148.279V148.471V148.664V148.856V149.049C113.308 149.337 113.372 149.626 113.415 149.915V149.989V150.182V150.363V150.556V150.663V150.738V150.919C113.982 153.847 114.367 156.806 114.569 159.781C114.569 165.126 118.672 165.896 120.467 171.112C122.263 176.329 121.867 180.188 127.211 181.802C132.554 183.416 127.926 185.223 140.804 190.439C145.431 192.31 148.669 192.257 151.49 191.508L151.81 191.423L152.174 191.316L152.516 191.198L152.858 191.081L153.168 190.963L153.339 190.899L153.478 190.846L153.766 190.728L154.739 190.322H154.803L154.974 190.247L155.08 190.193H155.145L155.326 190.119L155.754 189.926H155.839L156.021 189.851H156.096C157.8 189.052 159.594 188.459 161.439 188.088C161.824 188.023 162.23 187.959 162.636 187.917H162.967H163.202C164.596 187.837 165.994 187.916 167.37 188.152C169.345 188.528 171.382 188.429 173.311 187.863C173.838 187.695 174.352 187.492 174.85 187.254C177.949 185.747 180.087 182.978 182.01 180.455L182.074 180.37L182.234 180.156L182.662 179.6L182.769 179.45L182.876 179.311L183.324 178.755L183.474 178.552L183.538 178.478C183.666 178.306 183.805 178.146 183.944 177.986L184.35 177.526L184.543 177.334L184.724 177.152L184.927 176.96L185.13 176.767L185.195 176.714L185.355 176.575H185.408L185.579 176.436L185.793 176.275L185.996 176.126L186.092 176.062L186.231 175.976H186.295L186.477 175.88L186.712 175.762L186.958 175.645L187.214 175.527L187.46 175.399L187.706 175.271L187.952 175.142L188.187 175.014L188.432 174.875L188.668 174.736L188.913 174.597L189.148 174.458L189.384 174.308L189.619 174.159L189.843 174.009L190.078 173.849L190.303 173.699L190.527 173.539L190.751 173.378L190.976 173.207L191.2 173.036L191.425 172.865L191.638 172.684L191.852 172.502L192.066 172.32L192.28 172.128L192.493 171.935L192.707 171.732L192.91 171.54L193.124 171.337L193.327 171.134L193.53 170.92L193.733 170.706L193.925 170.492L194.118 170.268L194.31 170.033L194.513 169.797L194.705 169.562L194.898 169.316L195.079 169.071L195.272 168.825L195.453 168.568L195.646 168.312L195.827 168.044L196.009 167.777L196.18 167.499L196.351 167.221L196.533 166.933L196.704 166.644L196.875 166.345L197.046 166.045L197.217 165.735L197.377 165.425L197.548 165.115L197.708 164.784L197.869 164.463L198.029 164.132L198.189 163.79L198.339 163.448L198.499 163.095L198.649 162.742L198.798 162.379L198.948 162.015L199.097 161.641L199.247 161.256L199.386 160.872L199.525 160.487L199.653 160.091L199.76 159.696C199.76 159.557 199.835 159.428 199.867 159.289C199.867 159.15 199.931 159.022 199.952 158.883C199.952 158.744 200.016 158.605 200.038 158.466C200.038 158.338 200.091 158.199 200.113 158.06C200.113 157.921 200.113 157.782 200.113 157.643C200.113 157.494 200.113 157.355 200.166 157.216C200.166 157.077 200.166 156.938 200.166 156.788V156.36C200.166 156.221 200.166 156.072 200.166 155.933C200.166 155.783 200.166 155.644 200.166 155.495V155.056V154.009V153.56C200.166 153.421 200.166 153.271 200.166 153.121C200.166 152.972 200.166 152.822 200.166 152.672V152.223V151.775V151.326V150.877L200.113 150.417L200.038 149.957L199.974 149.498L199.888 149.038L199.803 148.568L199.717 148.097L199.621 147.638L199.525 147.178L199.418 146.708L199.322 146.237L199.204 145.767L199.087 145.297L198.969 144.826L198.852 144.345L198.723 143.875L198.595 143.394L198.467 142.923L198.339 142.453L198.21 141.983L198.072 141.512L197.933 141.031L197.794 140.561L197.655 140.091L197.516 139.62L197.377 139.139L197.238 138.669L197.099 138.199L196.96 137.739L196.821 137.269L196.682 136.798L196.543 136.339L196.404 135.879L196.266 135.419L196.137 134.96L195.998 134.5L195.87 134.04L195.742 133.591L195.624 133.142L195.507 132.693L195.379 132.244L195.272 131.806L195.154 131.368L195.058 130.93L194.951 130.523L194.866 130.128L194.78 129.743L194.705 129.38L194.631 129.027L194.566 128.685L194.513 128.364V128.054V127.755V127.466V127.188V126.921V126.675V126.429V126.194V125.969V125.756V125.542V125.339V124.783V124.601V124.27V123.639V123.04V122.891V122.741V122.592V122.431V122.282V122.121V121.961V121.8V121.629V121.458L194.449 121.277V121.095L194.385 120.913L194.321 120.71L194.235 120.507L194.15 120.293L194.053 120.079L193.957 119.855L193.85 119.609L193.733 119.363L193.605 119.107L193.476 118.839L193.338 118.561L193.188 118.273L193.028 117.974L192.857 117.653L192.675 117.321L192.483 116.979L192.28 116.627L192.066 116.253L191.863 115.91L191.66 115.6V115.536L191.457 115.248L191.403 115.173L191.2 114.884L191.147 114.82L190.922 114.531L190.677 114.243C190.602 114.147 190.516 114.061 190.431 113.965L190.196 113.698H190.132L189.886 113.441V113.388L189.629 113.142L189.373 112.907L189.148 112.704L189.042 112.618L188.796 112.426L188.732 112.361L188.475 112.169L188.39 112.105L188.155 111.934L187.994 111.816L187.877 111.731L187.717 111.613L187.546 111.496L187.417 111.421L187.3 111.335L187.171 111.26L186.926 111.111L186.797 111.036L186.669 110.961L186.541 110.886L186.306 110.758L186.178 110.683C180.835 107.786 174.551 107.348 172.285 108.331L171.612 107.861Z" fill="#D6E0E8"/>
<path fill-rule="evenodd" clip-rule="evenodd" d="M167.093 105.167C161.892 103.545 156.43 102.931 150.999 103.361C142.952 104.269 142.77 107.145 136.156 107.508C129.541 107.872 120.233 116.498 117.732 121.405C115.232 126.311 111.321 129.679 108.606 137.236C105.892 144.794 109.141 153.068 109.141 158.466C109.141 163.865 113.255 164.581 115.05 169.797C116.845 175.014 117.369 177.537 122.734 179.151C128.098 180.765 123.45 182.572 136.327 187.788C149.204 193.005 151.352 183.288 163.16 185.265C174.968 187.243 177.469 175.014 182.833 172.491C188.198 169.968 192.451 165.842 195.529 157.526C198.606 149.209 193.563 137.921 191.254 128.567C188.946 119.213 191.97 121.544 187.322 113.452C182.673 105.36 170.512 103.735 167.114 105.178L167.093 105.167Z" fill="#FDD657"/>
<path fill-rule="evenodd" clip-rule="evenodd" d="M131.763 108.695C133.612 110.897 134.969 113.676 132.49 115.633C127.777 119.353 120.19 116.22 122.445 122.805C124.7 129.39 130.663 122.282 128.354 131.785C126.046 141.288 121.59 143.714 122.114 148.546C122.637 153.378 119.805 157.504 123.417 159.76C127.029 162.015 123.663 157.023 131.56 161.256C139.458 165.489 135.835 168.739 140.109 166.516C144.384 164.292 148.178 161.171 150.24 166.858C152.302 172.545 148.883 172.074 152.377 175.281C155.872 178.488 155.444 173.411 157.571 179.985C158.084 181.578 158.575 183.299 158.96 184.988C154.044 185.308 150.956 187.767 146.97 188.825C144.991 187.326 142.932 185.934 140.804 184.656C136.166 182.059 123.278 182.518 126.698 178.242C130.118 173.966 133.783 170.364 127.574 168.622C121.366 166.879 119.859 173.507 118.48 164.698C117.102 155.89 117.027 152.715 114.537 154.853C112.047 156.991 107.399 158.274 109.846 153.367C111.673 149.963 113.265 146.438 114.612 142.817C115.952 139.585 117.073 136.267 117.967 132.886C117.967 132.886 111.491 135.986 110.241 142.122C109.707 144.636 108.949 147.097 107.976 149.476C107.409 145.532 107.131 141.213 108.585 137.108C111.267 129.551 115.2 126.13 117.711 121.277C119.688 117.428 125.939 111.207 131.742 108.609L131.763 108.695ZM169.101 184.934C176.048 182.796 178.516 174.48 182.833 172.448C188.176 169.936 192.451 165.799 195.529 157.483C198.606 149.166 193.562 137.878 191.254 128.524C188.946 119.171 191.97 121.501 187.322 113.409C185.646 110.642 183.183 108.438 180.247 107.081C179.225 108.268 178.493 109.677 178.11 111.196C175.919 118.626 174.712 118.455 172.307 125.018C169.903 131.582 165.682 137.846 169.775 136.167C173.868 134.489 173.376 121.918 178.773 124.334C184.169 126.75 185.088 140.155 187.076 145.927C189.063 151.7 190.399 159.14 187.193 153.912C183.987 148.685 179.414 135.537 179.98 144.965C180.546 154.394 185.462 151.732 181.711 157.515C177.96 163.298 182.256 162.486 183.923 162.165C185.59 161.844 181.123 171.433 177.234 169.904C173.344 168.376 171.741 172.951 170.309 166.441C168.877 159.931 174.893 156.767 170.106 158.039C165.318 159.311 159.088 162.678 156.684 159.225C154.279 155.772 153.97 167.349 164.464 168.205C174.957 169.06 166.408 171.796 168.503 181.492C168.759 182.679 168.962 183.822 169.155 184.902L169.101 184.934ZM165.639 104.761C160.879 103.439 155.922 102.972 150.999 103.382C143.112 104.269 142.781 107.049 136.551 107.498C137.277 111.121 139.051 117.664 136.882 119.032C134.339 120.614 131.208 122.132 130.47 131.368C129.733 140.604 133.056 131.122 137.812 131.688C142.567 132.255 142.663 133.623 141.915 129.882C141.167 126.141 147.002 127.541 146.115 121.79C145.228 116.039 144.908 110.737 144.523 108.534C144.138 106.332 148.081 104.986 148.081 104.986C148.081 104.986 152.805 106.589 151.287 111.399C149.77 116.21 152.591 112.661 154.824 116.327C157.058 119.994 158.319 118.839 160.467 111.25C161.347 108.575 163.15 106.302 165.554 104.836L165.639 104.761Z" fill="#F0C330"/>
<path fill-rule="evenodd" clip-rule="evenodd" d="M134.691 169.808C134.691 169.808 137.662 166.601 141.787 162.817C143.978 163.298 147.601 164.581 148.605 163.939C149.93 163.074 150.058 157.365 152.42 155.601C154.782 153.838 158.479 151.582 160.061 150.588C161.642 149.594 165.564 147.606 169.935 145.019C171.05 144.37 172.102 143.619 173.077 142.774C178.281 140.037 182.267 138.017 182.267 138.017L183.645 142.293C183.645 142.293 169.753 149.711 159.43 156.457C149.107 163.202 138.966 174.127 138.966 174.127L134.691 169.851V169.808Z" fill="#315E38"/>
<path fill-rule="evenodd" clip-rule="evenodd" d="M123.107 157.376C123.107 157.376 125.597 155.152 129.979 151.839C130.858 152.005 131.767 151.916 132.597 151.582C136.166 150.246 136.465 148.129 139.009 146.879C141.552 145.628 144.587 145.403 145.965 143.244C147.344 141.085 148.498 141.694 153.948 138.455C155.563 137.588 156.939 136.336 157.956 134.81C164.025 132.042 170.26 129.654 176.625 127.658L177.907 131.197C177.907 131.197 157.902 136.98 147.515 144.324C137.128 151.668 125.907 159.76 125.907 159.76L123.118 157.376H123.107Z" fill="#358541"/>
<path fill-rule="evenodd" clip-rule="evenodd" d="M160.338 147.424C168.728 145.099 177.49 144.431 186.135 145.457L185.28 150.47C185.28 150.47 168.364 148.568 157.111 153.239C149.752 156.389 142.692 160.196 136.016 164.613L134.798 163.18C135.496 163.485 136.209 163.752 136.935 163.982C136.979 162.632 137.319 161.307 137.929 160.102C138.837 158.766 142.781 156.606 143.507 155.655C144.234 154.703 148.316 153.057 150.988 152.202C154.168 150.784 157.268 149.193 160.274 147.434L160.338 147.424Z" fill="#358541"/>
<path fill-rule="evenodd" clip-rule="evenodd" d="M127.051 122.132C127.051 122.132 129.626 124.462 127.564 133.014C125.501 141.566 121.644 144.495 121.644 144.495L123.45 146.312C126.425 143.228 128.469 139.367 129.348 135.173C130.278 130.242 130.54 125.209 130.128 120.208L127.03 122.11L127.051 122.132Z" fill="#99AE4C"/>
<path fill-rule="evenodd" clip-rule="evenodd" d="M149.845 124.505C149.742 126.691 149.324 128.852 148.605 130.919C147.536 133.72 147.098 131.87 143.262 134.543C139.425 137.215 132.447 144.484 132.447 144.484C132.447 144.484 134.98 146.686 135.023 146.376C135.065 146.066 141.295 138.391 145.153 136.755C149.011 135.12 151.896 133.548 152.324 129.807C152.588 127.758 152.617 125.684 152.409 123.628L149.877 124.452L149.845 124.505Z" fill="#99AE4C"/>
<path fill-rule="evenodd" clip-rule="evenodd" d="M174.786 152.02C174.872 152.619 179.242 151.582 178.986 155.227C178.73 158.873 175.727 161.641 175.043 159.503C174.359 157.365 172.98 152.074 174.786 152.074V152.02ZM123.492 167.478C125.982 167.136 132.159 165.34 131.56 170.931C130.962 176.521 128.557 177.152 130.182 179.482C131.806 181.813 124.411 180.241 125.982 176.724C127.553 173.207 127.606 168.857 125.715 169.723C123.823 170.588 120.585 169.487 123.492 167.478ZM130.876 139.684C129.241 142.891 130.182 146.333 127.264 149.53C124.347 152.726 121.515 154.971 121.344 152.555C121.173 150.139 123.481 149.615 125.031 146.601C126.58 143.586 129.092 136.21 130.876 139.684ZM169.689 136.221C169.689 136.221 168.054 141.331 165.564 141.929C163.074 142.528 161.097 141.074 158.18 144.174C155.262 147.274 156.972 140.379 160.157 138.904C163.341 137.429 169.165 136.403 169.689 136.221Z" fill="#FCE38F"/>
</g>
<defs>
<clipPath id="clip0_76_15165">
<rect width="187" height="168" fill="white" transform="translate(14 24)"/>
</clipPath>
</defs>
</svg>
