<svg width="215" height="215" viewBox="0 0 215 215" fill="none" xmlns="http://www.w3.org/2000/svg">
<g clip-path="url(#clip0_246_1700)">
<path d="M174.394 174.326C211.2 137.417 211.2 77.576 174.394 40.667C137.588 3.75797 77.9128 3.75796 41.1065 40.667C4.30026 77.576 4.30026 137.417 41.1065 174.326C77.9128 211.235 137.588 211.235 174.394 174.326Z" fill="#921A1D"/>
<path d="M67.8461 156.086C68.7385 159.299 60.0665 185.571 56.1537 182.267C55.4224 181.716 54.6583 181.21 53.8656 180.753C48.9461 177.724 40.3199 173.869 38.0775 169.142C35.8351 164.416 30.7097 155.375 34.5537 152.278C39.8935 148.634 45.8472 145.991 52.1266 144.476C53.1994 144.175 54.3274 144.128 55.4215 144.339C59.2656 145.486 66.9308 152.851 67.8461 156.086Z" fill="#5B381A"/>
<path d="M67.8464 156.086C68.7388 159.299 60.0668 185.571 56.1541 182.267C55.4228 181.716 54.6586 181.21 53.866 180.753C53.1766 179.665 52.7476 178.432 52.6126 177.15C52.4776 175.868 52.6404 174.572 53.088 173.364C55.1931 169.142 62.0346 155.765 60.3414 153.746C58.6481 151.727 52.9049 148.377 52.127 144.568C53.1998 144.267 54.3278 144.219 55.4219 144.43C59.2659 145.486 66.9312 152.851 67.8464 156.086Z" fill="#542C15"/>
<path d="M90.7724 134.931C93.9529 134.472 117.704 146.679 114.043 150.121C113.421 150.74 112.84 151.399 112.304 152.094C108.757 156.546 103.975 164.622 99.147 166.182C94.319 167.743 85.1207 171.643 82.6495 167.399C79.9239 161.555 78.2285 155.283 77.6385 148.859C77.5029 147.755 77.6123 146.634 77.9589 145.578C79.4919 141.998 87.5919 135.413 90.7724 134.931Z" fill="#663E1A"/>
<path d="M90.7724 134.931C93.9529 134.472 117.704 146.679 114.043 150.121C113.421 150.74 112.84 151.399 112.304 152.094C111.18 152.623 109.948 152.878 108.707 152.838C107.466 152.798 106.252 152.465 105.165 151.865C101.458 149.18 89.697 140.553 87.5461 141.975C85.3953 143.398 81.4597 148.629 77.6385 148.859C77.5029 147.755 77.6123 146.634 77.9589 145.578C79.4919 141.998 87.5919 135.413 90.7724 134.931Z" fill="#532915"/>
<path d="M128.825 134.679C130.816 132.109 156.283 124.239 155.917 129.31C155.851 130.196 155.851 131.085 155.917 131.971C156.352 137.707 158.205 146.931 155.917 151.452C153.629 155.972 149.419 165.219 144.774 163.957C138.889 161.636 133.464 158.279 128.757 154.045C127.914 153.331 127.241 152.437 126.789 151.429C125.508 147.78 126.835 137.272 128.825 134.679Z" fill="#663E1A"/>
<path d="M128.825 134.679C130.816 132.109 156.283 124.239 155.917 129.31C155.851 130.196 155.851 131.085 155.917 131.971C155.468 133.14 154.751 134.187 153.825 135.028C152.899 135.869 151.79 136.48 150.585 136.813C146.009 137.501 131.754 139.52 131.136 142.067C130.518 144.614 131.136 151.245 128.596 154.045C127.753 153.331 127.081 152.437 126.628 151.429C125.507 147.78 126.834 137.272 128.825 134.679Z" fill="#532915"/>
<path d="M184.175 113.179C187.333 113.821 205.821 133.348 201.245 135.367C200.453 135.732 199.688 136.154 198.957 136.629C194.152 139.658 187.058 145.669 182.002 145.509C176.945 145.348 166.991 145.945 165.985 141.08C165.286 134.663 165.704 128.172 167.22 121.898C167.454 120.815 167.923 119.796 168.593 118.915C171.27 116.047 181.018 112.559 184.175 113.179Z" fill="#9B5032"/>
<path d="M184.176 113.179C187.333 113.821 205.821 133.348 201.245 135.367C200.453 135.732 199.689 136.154 198.957 136.629C197.723 136.757 196.476 136.586 195.322 136.131C194.167 135.676 193.138 134.95 192.321 134.013C189.69 130.25 181.361 118.135 178.867 118.732C176.373 119.328 170.973 122.977 167.289 121.898C167.523 120.815 167.991 119.796 168.662 118.915C171.27 116.047 181.018 112.559 184.176 113.179Z" fill="#62341F"/>
<path d="M47.1164 53.2689C50.2512 53.9113 68.7393 73.4607 64.1631 75.457C63.376 75.8401 62.612 76.2691 61.8749 76.7419C57.0927 79.7477 49.9766 85.7593 44.9198 85.5987C39.8631 85.4381 29.9097 86.0347 28.9029 81.1933C28.2038 74.7757 28.6219 68.2851 30.1385 62.011C30.3671 60.926 30.8363 59.9065 31.5114 59.0282C34.1656 56.16 43.9588 52.6494 47.1164 53.2689Z" fill="#9B5032"/>
<path d="M47.1158 53.2689C50.2505 53.9113 68.7387 73.4607 64.1624 75.457C63.3753 75.8401 62.6113 76.2691 61.8743 76.7419C60.6375 76.8622 59.3898 76.688 58.2327 76.2334C57.0757 75.7789 56.042 75.0569 55.2158 74.1261C52.5844 70.3401 44.2556 58.2251 41.7616 58.8217C39.2675 59.4182 33.8675 63.0665 30.1836 62.011C30.4122 60.926 30.8814 59.9065 31.5565 59.0282C34.165 56.16 43.9582 52.6494 47.1158 53.2689Z" fill="#62341F"/>
<path d="M111.985 44.7791C110.338 41.9798 111.985 14.8356 116.561 16.9466C117.357 17.2908 118.175 17.582 119.01 17.8185C124.432 19.4017 133.539 20.7555 136.834 24.702C140.129 28.6486 147.245 35.7617 144.385 39.7542C140.224 44.5794 135.242 48.6267 129.672 51.7086C128.73 52.2663 127.674 52.6035 126.583 52.6953C122.785 52.6494 113.678 47.6014 111.985 44.7791Z" fill="#9B5032"/>
<path d="M111.985 44.7791C110.338 41.9798 111.985 14.8356 116.561 16.9466C117.357 17.2908 118.175 17.582 119.01 17.8185C119.947 18.6832 120.67 19.7564 121.119 20.9519C121.568 22.1474 121.731 23.4318 121.595 24.702C120.634 29.2911 117.477 43.7007 119.582 45.1692C121.687 46.6377 127.979 48.2898 129.672 51.8004C128.73 52.3581 127.674 52.6953 126.583 52.7871C122.785 52.6494 113.678 47.6014 111.985 44.7791Z" fill="#62341F"/>
<path d="M137.612 77.935C137.246 77.3384 139.9 63.9384 142.188 55.9994C148.484 55.7317 154.762 55.142 160.997 54.2326C166.488 53.5901 166.694 57.1926 170.149 58.8217C171.896 59.5694 173.831 59.7538 175.687 59.3494C175.893 63.709 175.984 67.7473 174.382 69.3994C171.66 72.1528 169.806 82.8912 168.571 84.1073C167.335 85.3234 147.199 83.5566 145.689 84.1073C144.179 84.658 138.093 78.7381 137.612 77.935Z" fill="#9B5032"/>
<path d="M142.164 55.9994C142.585 54.0437 143.246 52.1477 144.132 50.3549C145.917 48.0604 176.166 43.8614 175.548 50.6073C175.343 53.4947 175.343 56.3931 175.548 59.2806C173.692 59.685 171.757 59.5006 170.011 58.7529C166.624 57.1926 166.418 53.5902 160.858 54.1638C154.662 55.0924 148.422 55.705 142.164 55.9994Z" fill="#62341F"/>
<path d="M46.978 74.6997C46.6316 67.8154 46.7616 60.9153 47.367 54.049C53.8196 52.6494 61.5763 49.9189 64.139 49.0928C69.0127 47.5096 69.8136 50.7449 73.1543 51.548C74.8752 51.9246 76.671 51.7396 78.2797 51.0202C79.2178 54.9439 79.9958 58.6152 78.806 60.4049C76.8153 63.3648 76.9755 73.4837 76.0831 74.7915C75.1907 76.0994 56.5653 78.1416 55.1696 78.8988C53.7738 79.656 47.55 75.3422 46.978 74.6997Z" fill="#663E1A"/>
<path d="M47.3672 53.9572C47.4033 52.1103 47.6724 50.2755 48.168 48.4963C49.4265 46.2018 76.2434 36.8172 76.7468 43.0812C77.0675 45.7308 77.5799 48.3535 78.2799 50.9285C76.6712 51.6479 74.8753 51.8328 73.1544 51.4562C69.8138 50.6531 69.0129 47.4179 64.1392 49.0011C61.5765 49.8272 53.8197 52.5576 47.3672 53.9572Z" fill="#532915"/>
<path d="M98.6909 136.606C98.3445 129.722 98.4745 122.822 99.0799 115.955C105.532 114.556 113.289 111.825 115.852 110.999C120.726 109.416 121.549 112.651 124.867 113.454C126.588 113.831 128.384 113.646 129.993 112.927C130.931 116.85 131.709 120.521 130.542 122.311C128.551 125.271 128.688 135.39 127.796 136.698C126.904 138.006 108.278 140.048 106.882 140.805C105.487 141.562 99.2629 137.249 98.6909 136.606Z" fill="#663E1A"/>
<path d="M99.0801 115.864C99.1285 114.018 99.3973 112.184 99.8809 110.403C101.139 108.108 127.956 98.7234 128.46 104.987C128.791 107.635 129.303 110.257 129.993 112.835C128.384 113.554 126.588 113.739 124.867 113.362C121.55 112.559 120.726 109.324 115.852 110.907C113.289 111.733 105.533 114.464 99.0801 115.864Z" fill="#532915"/>
<path d="M142.989 123.619C142.615 116.697 142.737 109.758 143.355 102.854C149.808 101.454 157.587 98.7234 160.127 97.8974C165.024 96.3142 165.825 99.5494 169.165 100.353C170.886 100.727 172.682 100.543 174.291 99.8248C175.206 103.748 175.984 107.42 174.817 109.209C172.826 112.169 172.964 122.288 172.071 123.596C171.179 124.904 152.554 126.946 151.181 127.703C149.808 128.46 143.561 124.239 142.989 123.619Z" fill="#663E1A"/>
<path d="M143.354 102.854C143.393 101.005 143.67 99.1698 144.177 97.3926C145.413 95.0981 172.23 85.7134 172.756 91.9775C173.077 94.627 173.589 97.2497 174.289 99.8248C172.68 100.543 170.885 100.727 169.164 100.352C165.823 99.5494 165.022 96.3142 160.126 97.8974C157.54 98.7234 149.806 101.454 143.354 102.854Z" fill="#532915"/>
<path d="M56.0155 131.329C55.249 123.998 54.9891 116.622 55.2376 109.255C61.0962 108.125 66.8929 106.693 72.6045 104.965C77.6613 103.565 78.6909 107.076 82.2376 108.108C84.0071 108.62 85.8949 108.54 87.6147 107.879C88.8045 112.123 89.9029 116.07 88.713 117.883C86.7681 120.934 87.5003 131.65 86.6308 133.073C85.7613 134.495 66.2893 135.367 64.8706 136.193C63.452 137.019 56.6562 132.04 56.0155 131.329Z" fill="#663E1A"/>
<path d="M55.2378 109.255C55.1658 107.312 55.3504 105.368 55.787 103.473C56.9539 101.064 84.6403 92.7119 85.5327 99.4119C86.0201 102.279 86.7082 105.108 87.592 107.879C85.8723 108.54 83.9844 108.62 82.2149 108.108C78.6683 107.076 77.6386 103.519 72.5819 104.965C66.8777 106.692 61.0887 108.124 55.2378 109.255Z" fill="#532915"/>
<path d="M112.19 123.619C111.816 116.697 111.938 109.758 112.556 102.854C119.009 101.454 126.789 98.7234 129.329 97.8974C134.225 96.3142 135.026 99.5494 138.367 100.353C140.088 100.727 141.883 100.543 143.492 99.8248C144.407 103.748 145.185 107.42 144.018 109.209C142.028 112.169 142.165 122.288 141.273 123.596C140.38 124.904 121.755 126.946 120.382 127.703C119.009 128.46 112.762 124.239 112.19 123.619Z" fill="#835028"/>
<path d="M112.557 102.854C112.596 101.005 112.873 99.1698 113.38 97.3926C114.616 95.0981 141.433 85.7134 141.959 91.9775C142.28 94.627 142.792 97.2497 143.492 99.8248C141.883 100.543 140.088 100.727 138.367 100.352C135.026 99.5494 134.225 96.3142 129.329 97.8974C126.789 98.7234 119.009 101.454 112.557 102.854Z" fill="#62341F"/>
<path d="M113.724 127.864C113.406 127.509 113.123 127.125 112.877 126.717C112.877 126.717 128.711 115.841 131.891 112.95C134.637 110.471 152.279 113.615 157.816 115.909C158.731 116.277 159.326 116.621 159.463 116.919C160.562 119.053 158.937 131.03 149.098 139.382C139.877 147.23 119.009 134.013 113.724 127.864Z" fill="#DA782B"/>
<path d="M113.724 127.864C113.406 127.509 113.123 127.125 112.877 126.717C112.877 126.717 128.711 115.841 131.891 112.95C134.637 110.471 152.279 113.615 157.816 115.909C156.672 120.017 154.704 127.635 149.624 126.487C143.652 125.156 137.085 126.35 133.996 126.487C130.907 126.625 118.117 126.671 115.966 127.336C115.228 127.55 114.479 127.726 113.724 127.864Z" fill="#E3602F"/>
<path d="M43.1351 153.563C43.0904 153.082 43.0904 152.598 43.1351 152.117C43.1351 152.117 62.1953 153.035 66.4283 152.622C70.0893 152.301 82.4453 165.563 85.5572 170.794C85.9592 171.322 86.2121 171.948 86.2893 172.607C85.9232 174.902 77.6631 183.621 64.8953 184.355C52.8597 185.043 43.73 161.754 43.1351 153.563Z" fill="#C17737"/>
<path d="M43.1351 153.563C43.0904 153.082 43.0904 152.598 43.1351 152.117C43.1351 152.117 62.1953 153.035 66.4283 152.622C70.0893 152.301 82.4453 165.563 85.5572 170.794C82.2394 173.41 78.1894 171.116 74.7572 167.1C70.7529 162.397 65.2614 159.735 62.7216 157.922C60.1817 156.11 47.3682 155.215 45.2631 154.434C44.7826 154.343 44.0046 153.999 43.1351 153.563Z" fill="#CC8C30"/>
<path d="M57.5043 153.631C54.9416 155.697 27.873 157.303 29.3831 152.369C29.6264 151.496 29.8099 150.607 29.9323 149.708C30.8476 143.903 31.0535 134.289 34.5086 130.388C37.9637 126.487 44.1645 118.25 48.4662 120.728C53.8162 124.469 58.4641 129.13 62.195 134.495C62.8561 135.413 63.3162 136.461 63.5451 137.57C63.9569 141.493 60.0899 151.543 57.5043 153.631Z" fill="#C17737"/>
<path d="M57.5043 153.631C54.9416 155.696 27.873 157.303 29.3831 152.369C29.6264 151.496 29.8099 150.607 29.9323 149.708C30.6477 148.657 31.6013 147.79 32.7149 147.18C33.8286 146.57 35.0705 146.233 36.3391 146.197C40.9154 146.61 55.6509 148.102 56.9323 145.738C58.2137 143.375 58.9916 136.56 62.2636 134.449C62.9248 135.367 63.3849 136.415 63.6137 137.524C63.9569 141.493 60.0899 151.543 57.5043 153.631Z" fill="#BB5F28"/>
<path d="M80.431 91.7481C81.5979 88.6276 103.999 73.0019 105.189 77.981C105.417 78.8498 105.708 79.701 106.058 80.5279C108.186 85.9889 112.922 94.2951 111.824 99.5036C110.726 104.712 109.65 115.015 104.708 115.152C98.2744 114.762 91.9643 113.207 86.0827 110.563C85.0464 110.138 84.1223 109.479 83.3827 108.636C81.003 105.538 79.264 95.0063 80.431 91.7481Z" fill="#835028"/>
<path d="M80.431 91.7481C81.5979 88.6276 103.999 73.0019 105.189 77.981C105.417 78.8498 105.708 79.701 106.058 80.5279C105.972 81.8113 105.59 83.0572 104.943 84.1679C104.296 85.2786 103.401 86.2239 102.328 86.9297C98.164 88.9718 84.8013 95.4424 84.9615 98.104C85.1217 100.766 87.7759 106.961 86.0827 110.563C85.0464 110.138 84.1223 109.479 83.3827 108.636C81.003 105.538 79.264 95.0063 80.431 91.7481Z" fill="#62341F"/>
<path d="M133.219 102.073C131.48 99.2511 132.693 71.5333 137.36 73.5754C138.177 73.9206 139.019 74.2043 139.877 74.4244C145.415 75.9388 154.75 77.1549 158.182 81.1015C161.615 85.0481 168.982 92.184 166.145 96.3142C161.988 101.307 156.984 105.525 151.364 108.773C150.417 109.351 149.354 109.712 148.252 109.829C144.339 109.875 134.958 104.896 133.219 102.073Z" fill="#C17737"/>
<path d="M133.219 102.073C131.48 99.2511 132.693 71.5333 137.36 73.5754C138.177 73.9206 139.019 74.2043 139.877 74.4244C140.833 75.2824 141.577 76.35 142.054 77.5439C142.53 78.7379 142.725 80.0261 142.623 81.308C141.731 85.897 138.779 100.766 140.953 102.211C143.127 103.657 149.556 105.24 151.364 108.796C150.417 109.374 149.354 109.735 148.252 109.852C144.339 109.875 134.958 104.896 133.219 102.073Z" fill="#BB5F28"/>
<path d="M126.147 105.194C123.584 107.259 96.5155 108.865 98.0257 103.909C98.2822 103.047 98.4659 102.164 98.5749 101.27C99.4902 95.4652 99.6961 85.8512 103.151 81.9505C106.606 78.0498 112.807 69.8124 117.109 72.2676C122.457 76.0107 127.105 80.6713 130.838 86.0347C131.499 86.9527 131.959 88.0005 132.188 89.1094C132.599 93.056 128.733 103.106 126.147 105.194Z" fill="#DF4A27"/>
<path d="M126.147 105.194C123.584 107.259 96.5155 108.865 98.0257 103.909C98.2822 103.046 98.4659 102.164 98.5749 101.27C99.2862 100.215 100.239 99.346 101.353 98.7353C102.468 98.1246 103.712 97.7901 104.982 97.7597C109.558 98.1728 124.294 99.6642 125.575 97.3008C126.856 94.9375 127.611 88.1227 130.883 86.0117C131.545 86.9297 132.005 87.9776 132.233 89.0864C132.599 93.056 128.733 103.106 126.147 105.194Z" fill="#AA2C23"/>
<path d="M127.933 153.976C131.159 153.173 156.809 162.649 153.377 166.504C152.787 167.179 152.251 167.9 151.775 168.661C148.526 173.525 144.362 182.129 139.534 184.24C134.706 186.351 125.622 191.285 122.647 187.315C119.307 181.802 116.982 175.732 115.783 169.395C115.533 168.308 115.533 167.178 115.783 166.091C116.973 162.351 124.684 154.825 127.933 153.976Z" fill="#DF4A27"/>
<path d="M127.933 153.976C131.159 153.173 156.809 162.649 153.377 166.504C152.787 167.179 152.251 167.9 151.775 168.661C150.672 169.325 149.43 169.723 148.147 169.823C146.864 169.922 145.576 169.721 144.384 169.234C140.311 166.94 127.338 159.735 125.278 161.387C123.219 163.039 119.627 168.729 115.691 169.395C115.442 168.308 115.442 167.178 115.691 166.091C116.972 162.351 124.683 154.825 127.933 153.976Z" fill="#AA2C23"/>
<path d="M59.5631 64.7185C57.0233 65.8887 34.1877 61.6209 36.4301 57.835C36.8201 57.1701 37.1494 56.4713 37.414 55.747C39.336 51.158 41.3953 43.173 45.0563 40.649C48.7174 38.125 55.4902 32.5723 58.5792 35.5093C62.2752 39.7121 65.2031 44.5356 67.2284 49.7583C67.6008 50.6505 67.7727 51.6141 67.7318 52.5806C67.3199 55.9994 62.1029 63.5024 59.5631 64.7185Z" fill="#DA782B"/>
<path d="M59.5631 64.7186C57.0233 65.8888 34.1877 61.621 36.4301 57.835C36.8201 57.1701 37.1494 56.4714 37.414 55.747C38.2243 55.0231 39.1943 54.5021 40.2444 54.2268C41.2945 53.9516 42.3947 53.93 43.4547 54.1638C47.1843 55.4717 59.1284 59.7395 60.5699 58.0186C62.0114 56.2977 64.0936 50.9056 67.2284 49.7583C67.6008 50.6506 67.7727 51.6142 67.7318 52.5806C67.3199 55.9994 62.1029 63.5025 59.5631 64.7186Z" fill="#AA2C23"/>
<path d="M131.342 73.8279C128.39 72.5429 114.158 49.5747 119.009 48.5881C119.86 48.4056 120.694 48.1523 121.503 47.8309C126.789 45.8576 134.934 41.4522 139.808 42.6683C144.682 43.8844 154.567 45.3529 154.544 50.2861C153.971 56.7104 152.283 62.9847 149.556 68.8258C149.111 69.8393 148.446 70.7407 147.611 71.4645C144.567 73.6902 134.316 75.0899 131.342 73.8279Z" fill="#E3602F"/>
<path d="M131.342 73.8279C128.39 72.5429 114.158 49.5747 119.009 48.5881C119.86 48.4056 120.694 48.1523 121.503 47.8309C122.742 47.9674 123.931 48.3962 124.973 49.0822C126.015 49.7681 126.88 50.6918 127.498 51.7775C129.328 56.0224 135.094 69.606 137.634 69.5371C140.174 69.4683 146.215 67.0131 149.624 68.8258C149.179 69.8393 148.515 70.7407 147.679 71.4645C144.567 73.6902 134.316 75.0899 131.342 73.8279Z" fill="#AA2C23"/>
<path d="M42.3787 101.339C41.0058 104.047 18.4447 118.112 17.7354 113.844C17.6107 113.117 17.4192 112.403 17.1634 111.71C15.6074 107.121 11.9007 100.238 13.3193 95.6488C14.738 91.0597 16.7286 82.3635 21.3964 82.0881C27.3001 82.1573 33.1464 83.26 38.6718 85.3464C39.5427 85.6856 40.3252 86.2192 40.96 86.9067C43.1337 89.5912 43.7515 98.6317 42.3787 101.339Z" fill="#DF5227"/>
<path d="M42.3794 101.339C41.0065 104.047 18.4454 118.112 17.7361 113.844C17.6114 113.117 17.4199 112.402 17.1641 111.71C17.404 110.542 17.8919 109.44 18.5947 108.478C19.2975 107.515 20.1987 106.716 21.2369 106.135C25.3556 104.23 38.581 98.2645 38.6497 96.0159C38.7183 93.7672 36.7505 88.5587 38.6497 85.4152C39.5206 85.7544 40.3031 86.2879 40.9378 86.9754C43.1344 89.5912 43.7522 98.6316 42.3794 101.339Z" fill="#C72B1C"/>
<path d="M48.8783 70.845C55.4452 65.7512 71.6452 62.7683 74.7799 58.7758C77.2053 55.6782 83.063 54.485 85.5571 54.1867C86.2664 54.072 86.7012 54.0491 86.7012 54.0491C86.7012 54.0491 95.8536 67.6786 92.4443 73.7361C89.035 79.7937 90.1562 91.0138 88.3714 92.9642C86.5867 94.9145 74.9401 112.238 71.5537 108.659C68.7851 105.768 62.0579 98.1728 59.7469 95.557L58.969 94.6622L59.3579 88.0998V87.0443L53.2715 81.5145L52.2647 80.5738C52.2647 80.5738 42.3342 75.9389 48.8783 70.845Z" fill="#BB5F28"/>
<path d="M48.878 70.8449C55.4449 65.7511 71.6449 62.7682 74.7796 58.7757C77.205 55.6781 83.0627 54.4849 85.5568 54.1866C85.5568 58.3168 84.7559 65.797 82.1932 67.6326C79.1042 69.8124 69.2653 78.1874 66.4051 78.0268C61.9891 78.9143 57.633 80.0792 53.3627 81.5144L52.3559 80.5737C52.3559 80.5737 42.3339 75.9388 48.878 70.8449Z" fill="#EAB24B"/>
<path d="M58.9688 94.5933L59.3577 88.0309C65.8789 89.3617 80.2713 81.698 82.7653 80.0689C85.2594 78.4398 79.3789 86.2412 75.6721 88.5357C72.606 90.4401 64.0941 93.446 59.6552 95.4193L58.9688 94.5933Z" fill="#CC8C30"/>
<path d="M186.028 93.1477C190.055 97.7367 193.098 109.829 196.141 111.963C198.43 113.638 199.688 117.974 200.1 119.833C200.1 120.361 200.26 120.705 200.26 120.705C200.26 120.705 190.947 128.3 186.394 126.097C181.841 123.894 173.855 125.34 172.345 124.101C170.835 122.862 157.747 115.037 160.126 112.307C162.048 110.012 167.151 104.574 168.89 102.693L169.508 102.05H174.244H174.999L178.66 97.1631L179.278 96.36C179.278 96.36 182.001 88.4898 186.028 93.1477Z" fill="#DE3627"/>
<path d="M186.028 93.1477C190.055 97.7368 193.098 109.829 196.141 111.963C198.43 113.638 199.688 117.974 200.1 119.833C197.125 119.994 191.703 119.833 190.238 118.043C188.499 115.749 181.932 108.865 181.886 106.731C181.001 103.458 179.924 100.24 178.66 97.0943L179.278 96.2912C179.278 96.2912 182.001 88.4898 186.028 93.1477Z" fill="#E94E3B"/>
<path d="M169.508 102.051H174.245C173.65 107.03 179.942 117.447 181.269 119.237C182.597 121.026 176.693 116.942 174.771 114.372C173.238 112.078 170.607 105.905 168.891 102.762L169.508 102.051Z" fill="#E94E3B"/>
<path d="M183.604 155.123C185.892 163.177 175.755 169.831 174.451 172.699C173.559 175.338 168.525 176.003 166.397 176.141H165.39C164.978 175.039 157.519 172.699 158.709 170.886C159.304 167.766 154.659 165.999 153.927 164.943C155.048 162.511 140.198 157.165 140.632 155.765C141.822 153.471 148.389 148.721 151.707 147.78L152.737 147.413C155.285 147.711 157.799 148.256 160.242 149.042L161.409 149.432C164.006 148.898 166.652 148.644 169.303 148.675H170.767C170.218 148.583 180.904 146.977 183.604 155.123Z" fill="#AA2C23"/>
<path d="M183.603 155.123C185.891 163.177 175.754 169.831 174.45 172.699C173.558 175.338 168.524 176.003 166.396 176.141C166.259 174.144 165.275 170.84 166.121 169.257C168.158 167.559 167.677 158.886 168.204 157.417C169.267 154.707 169.644 151.774 169.302 148.882H170.766C170.217 148.583 180.903 146.977 183.603 155.123Z" fill="#DA782B"/>
<path d="M152.713 147.551C155.262 147.848 157.775 148.394 160.218 149.18C158.823 152.53 161.912 162.947 160.722 164.599C160.722 166.481 159.074 160.997 157.427 158.358C156.197 154.541 154.247 150.997 151.684 147.918L152.713 147.551Z" fill="#DA782B"/>
<path d="M88.0271 121.967C88.0271 122.885 76.2661 135.918 68.6466 143.237C60.6381 138.648 50.044 134.059 46.6118 132.384C40.0678 129.355 42.1958 125.202 39.45 121.187C38.0114 119.149 35.9702 117.616 33.6152 116.804C36.2466 111.825 38.7864 107.259 41.6466 106.525C46.4288 105.332 55.5356 94.6391 57.6636 94.1114C59.7915 93.5836 81.0711 109.324 83.222 109.852C85.3728 110.38 88.0042 120.751 88.0271 121.967Z" fill="#EAB24B"/>
<path d="M68.6463 143.191C66.9263 145.093 64.9646 146.759 62.8116 148.148C59.3794 149.364 22.8378 133.463 28.0319 126.441C30.1189 123.35 31.9846 120.114 33.6149 116.758C35.97 117.57 38.0111 119.103 39.4497 121.141C42.1955 125.156 40.0675 129.309 46.6115 132.338C49.998 134.013 60.6378 138.602 68.6463 143.191Z" fill="#A45F2E"/>
<path d="M121.32 19.4935C122.213 19.6771 132.555 34.4538 138.161 43.7925C131.892 51.0432 125.164 60.9556 122.922 64.1221C118.598 70.2026 114.959 67.1738 110.452 69.1471C108.138 70.2202 106.217 71.9936 104.96 74.218C100.613 70.4779 96.6772 66.9443 96.5399 63.8467C96.3568 58.684 87.7763 47.1426 87.7305 44.8251C87.6848 42.5076 107.5 23.9679 108.461 21.8799C109.422 19.7918 120.153 19.287 121.32 19.4935Z" fill="#EAB24B"/>
<path d="M138.16 43.7925C139.662 45.9664 140.878 48.3265 141.775 50.8137C142.278 54.5767 119.077 88.7423 113.265 81.9734C110.688 79.1889 107.912 76.5968 104.959 74.2179C106.216 71.9935 108.136 70.2202 110.451 69.147C115.027 67.1737 118.596 70.2025 122.921 64.122C125.163 60.9556 131.89 51.0432 138.16 43.7925Z" fill="#AA5326"/>
<path d="M190.49 120.246C190.49 121.026 179.049 131.352 171.91 137.111C165.16 132.522 156.099 127.933 153.17 126.464C147.61 123.481 149.761 120.085 147.587 116.483C146.434 114.654 144.737 113.233 142.736 112.422C145.391 108.337 147.953 104.62 150.516 104.161C154.841 103.45 163.604 94.9833 165.526 94.6391C167.448 94.2949 185.204 109.049 187.058 109.645C188.911 110.242 190.535 119.145 190.49 120.246Z" fill="#EAB24B"/>
<path d="M171.911 137.042C170.25 138.547 168.405 139.835 166.42 140.874C163.308 141.7 132.098 125.845 137.154 120.223C139.204 117.747 141.07 115.124 142.738 112.376C144.738 113.188 146.435 114.608 147.588 116.437C149.877 120.04 147.588 123.435 153.171 126.418C156.1 127.956 165.161 132.545 171.911 137.042Z" fill="#AA5326"/>
<path d="M156.764 45.8575C154.357 45.6168 151.98 45.1326 149.67 44.412C148.389 40.9014 146.467 36.6106 145.849 35.2339C144.705 32.5493 145.689 32.3199 145.552 30.6449C145.429 29.6851 145.143 28.7536 144.705 27.8914C145.918 27.639 146.993 27.4555 147.817 28.1897C149.098 29.4288 152.508 29.9565 153.057 30.4843C153.606 31.012 156.695 41.0391 157.13 41.8192C157.309 43.1759 157.184 44.5556 156.764 45.8575Z" fill="#D81F26"/>
<path d="M149.671 44.5268C148.989 44.3716 148.333 44.1165 147.726 43.7696C146.765 42.9665 140.175 28.1668 142.234 28.2586C143.07 28.2575 143.901 28.1417 144.705 27.9144C145.143 28.7766 145.43 29.708 145.552 30.6678C145.689 32.4117 144.705 32.6411 145.849 35.2569C146.467 36.6106 148.389 40.9014 149.671 44.5268Z" fill="#8E191B"/>
<path d="M63.8421 126.028C64.1247 127.732 64.068 129.475 63.6753 131.157C63.2826 132.838 62.5615 134.425 61.5539 135.826C59.7463 138.625 56.9777 139.566 53.7972 140.782C50.7094 140.581 47.7171 139.628 45.0794 138.006C42.4788 135.726 40.8085 132.564 40.3887 129.126C40.3887 128.185 43.1802 130.227 46.4751 128.323C49.9531 127.841 54.3463 127.543 57.7785 126.831C61.2107 126.12 63.7277 125.868 63.8421 126.028Z" fill="#FFCC40"/>
<g style="mix-blend-mode:multiply">
<path d="M61.4385 135.826C60.315 137.483 58.7205 138.762 56.8622 139.497C57.2474 139.107 57.5994 138.684 57.9147 138.235C60.1582 135.202 61.1869 131.436 60.7978 127.68C60.7978 127.52 58.1664 127.864 54.6656 127.956C51.883 128.237 49.0878 128.375 46.291 128.369C49.769 127.887 54.1622 127.589 57.5944 126.877C61.0266 126.166 63.6808 125.914 63.7037 126.074C63.9833 127.769 63.9272 129.503 63.5386 131.176C63.1499 132.849 62.4362 134.429 61.4385 135.826Z" fill="#FFCD03"/>
<path d="M40.3418 129.103C40.3418 128.736 40.8452 128.874 41.6689 129.103C41.2282 129.158 40.7824 129.158 40.3418 129.103Z" fill="#FFCD03"/>
</g>
<path d="M135.575 152.576C132.41 158.69 128.817 164.572 124.82 170.175C118.574 167.995 110.542 166.251 107.934 165.586C102.969 164.347 103.907 161.157 101.436 158.702C100.186 157.477 98.5861 156.675 96.8594 156.408C98.0492 152.53 99.1475 148.996 101.115 148.079C104.319 146.564 109.284 137.822 110.725 137.18C112.167 136.537 129.031 144.568 130.701 144.637C132.371 144.706 135.392 151.75 135.575 152.576Z" fill="#E16636"/>
<path d="M124.821 170.175C123.871 171.751 122.708 173.187 121.365 174.443C119.077 175.774 91.4366 169.693 94.1366 164.071C95.1956 161.623 96.075 159.1 96.768 156.522C98.4947 156.79 100.095 157.592 101.344 158.817C103.815 161.249 102.877 164.439 107.843 165.701C110.543 166.251 118.643 167.995 124.821 170.175Z" fill="#DF5227"/>
<path d="M121.916 187.063C117.705 187.407 81.5528 173.296 85.5342 169.739C86.1915 169.117 86.7962 168.442 87.3418 167.72C90.8656 163.131 95.0071 154.687 101.071 153.218C107.134 151.75 118.643 148.01 123.288 152.691C128.5 158.641 132.691 165.418 135.69 172.745C136.175 173.847 136.357 175.059 136.216 176.256C135.255 180.019 126.126 186.787 121.916 187.063Z" fill="#EAB24B"/>
<path d="M121.916 187.063C117.705 187.407 81.5528 173.295 85.5342 169.739C86.1915 169.117 86.7962 168.442 87.3418 167.72C90.5723 166.689 94.0687 166.893 97.1579 168.293C103.038 171.322 121.71 181.097 124.249 179.766C126.789 178.435 130.588 172.882 135.69 172.882C136.175 173.985 136.357 175.197 136.216 176.393C135.255 180.018 126.126 186.787 121.916 187.063Z" fill="#AA5326"/>
<path d="M77.64 103.404L77.1595 101.546L71.8739 108.429C71.8739 108.429 71.1874 111.71 72.4917 112.766C74.3958 109.753 76.1151 106.627 77.64 103.404Z" fill="#FAAF64"/>
<path d="M55.9242 109.186C55.9055 109.588 56.0065 109.985 56.2144 110.329C56.4223 110.672 56.7275 110.945 57.0912 111.114C62.0106 113.018 72.4903 112.858 72.4903 112.858C72.1522 111.434 71.9454 109.983 71.8725 108.521C70.6827 108.246 55.9699 103.014 55.9699 103.014C55.8187 105.068 55.8034 107.13 55.9242 109.186Z" fill="#DFA761"/>
<path d="M64.1852 92.3905C59.3572 95.2816 55.9707 103.014 55.9707 103.014L71.8733 108.521C71.8733 108.521 76.5868 102.188 77.1589 101.638C72.6276 98.8577 68.2928 95.768 64.1852 92.3905Z" fill="#FECF8C"/>
<path d="M81.2538 123.206C78.4852 118.755 80.5673 75.3881 88.0038 78.6234C89.3036 79.1664 90.6421 79.6113 92.008 79.9542C100.863 82.3635 115.759 84.2909 121.205 90.4861C126.65 96.6813 138.411 107.879 133.858 114.326C130.243 119.443 118.116 129.837 110.222 133.807C108.69 134.71 106.979 135.266 105.211 135.436C99.0097 135.482 84.0453 127.634 81.2538 123.206Z" fill="#B05F22"/>
<path d="M81.2538 123.206C78.4852 118.755 80.5673 75.3881 88.0038 78.6234C89.3036 79.1664 90.6421 79.6113 92.008 79.9542C95.2114 83.4649 97.0877 87.1361 96.3783 90.7385C94.9368 98.0122 90.1546 121.187 93.6097 123.481C96.6758 125.501 107.339 128.254 110.222 133.807C108.69 134.71 106.979 135.266 105.211 135.436C99.0097 135.482 84.0453 127.634 81.2538 123.206Z" fill="#7E3116"/>
<path d="M86.4724 77.5679C86.7358 76.8803 87.0494 76.2131 87.4105 75.5717C87.4105 75.5717 112.58 89.7289 118.575 92.0693C123.746 94.0655 131.526 120.705 132.304 129.998C132.508 131 132.437 132.039 132.098 133.004C129.993 136.032 113.015 142.319 95.2359 134.679C78.4867 127.543 81.8275 89.2929 86.4724 77.5679Z" fill="#DA782B"/>
<path d="M86.4707 77.5679C86.7341 76.8803 87.0477 76.2131 87.4088 75.5717C87.4088 75.5717 112.578 89.7289 118.573 92.0693C123.744 94.0655 131.524 120.705 132.302 129.998C126.078 131.352 122.12 125.409 120.198 117.607C117.91 108.429 112.327 101.041 110.038 96.9566C107.75 92.8724 91.1156 82.8453 88.7817 80.3442C88.2097 79.7706 87.386 78.784 86.4707 77.5679Z" fill="#7E3116"/>
<path d="M121.87 92.0234C123.39 94.2799 124.441 96.8204 124.96 99.4934C125.479 102.166 125.455 104.917 124.89 107.58C124.089 112.766 120.566 116.001 116.836 119.833C112.222 121.621 107.247 122.274 102.329 121.737C97.0878 120.242 92.5868 116.849 89.6987 112.215C88.8978 110.93 94.4808 111.894 98.0503 106.984C102.787 103.955 108.988 100.605 113.518 97.2549C118.323 94.3409 121.733 91.794 121.87 92.0234Z" fill="#FFCC40"/>
<g style="mix-blend-mode:multiply">
<path d="M124.891 107.58C124.315 110.724 122.818 113.624 120.589 115.909C120.901 115.091 121.138 114.246 121.299 113.385C122.618 107.586 121.668 101.5 118.644 96.383C118.507 96.1535 114.938 98.4021 109.881 100.972C106.403 103.129 102.032 105.194 97.9824 107.167H98.0968C102.833 104.138 109.034 100.788 113.565 97.4384C118.37 94.5244 121.779 91.9774 121.916 92.2069C123.404 94.4433 124.434 96.9544 124.945 99.5937C125.455 102.233 125.437 104.948 124.891 107.58Z" fill="#FFCD03"/>
<path d="M89.6756 112.169C89.4468 111.664 90.2477 111.504 91.5519 111.16C90.9667 111.567 90.3372 111.905 89.6756 112.169Z" fill="#FFCD03"/>
</g>
<path d="M115.85 86.3559L112.35 86.0347L118.322 100.536C118.322 100.536 122.898 103.978 125.987 102.28C125.987 102.28 118.894 89.4535 115.85 86.3559Z" fill="#FCB555"/>
<path d="M103.335 130.732C104.062 131.011 104.854 131.075 105.616 130.916C106.378 130.757 107.08 130.383 107.636 129.837C115.668 121.921 125.941 102.303 125.941 102.303C123.334 101.986 120.765 101.401 118.276 100.559C116.629 102.601 93.3125 126.579 93.3125 126.579C96.5486 128.205 99.8981 129.593 103.335 130.732Z" fill="#F7901E"/>
<path d="M84.3199 104.185C84.1826 115.129 93.2665 126.602 93.2665 126.602L118.23 100.582C118.23 100.582 112.739 87.5721 112.258 86.0807C112.35 86.0348 90.9555 101.408 84.3199 104.185Z" fill="#D9671D"/>
<path d="M128.391 105.814C123.952 105.997 107.431 103.221 99.377 92.2988C104.113 87.5032 106.539 84.658 106.539 84.658L113.609 82.8912L119.741 86.2872L130.564 104.093L128.391 105.814Z" fill="#A83924"/>
<path d="M92.4426 114.395C91.1841 112.422 91.7333 109.599 93.6096 106.662C100.892 105.354 107.373 101.235 111.663 95.1898C115.095 94.708 117.887 95.4193 119.145 97.4843C121.433 101.201 117.452 108.039 109.993 112.766C102.533 117.493 94.8223 118.135 92.4426 114.395Z" fill="#BF6B2B"/>
<path d="M94.9383 122.311C98.8053 124.261 103.061 124.468 113.495 117.951C123.929 111.435 125.371 107.259 125.256 102.922C125.16 101.391 124.717 99.9025 123.963 98.5683C123.208 97.234 122.16 96.0892 120.9 95.2206C119.639 94.3519 118.198 93.7821 116.685 93.5542C115.172 93.3262 113.628 93.4461 112.168 93.9048C109.88 94.5244 108.667 95.3504 108.278 96.1994C108.016 96.602 107.877 97.0724 107.877 97.5531C107.877 98.0339 108.016 98.5043 108.278 98.907C108.654 99.4601 109.233 99.8424 109.888 99.9712C110.543 100.1 111.222 99.965 111.779 99.5953C112.093 99.3982 112.365 99.1409 112.58 98.8381C114.868 99.6183 115.806 103.106 111.482 108.131C109.193 104.161 106.905 99.3658 106.905 96.6583C106.905 91.4956 103.153 88.3292 97.4552 91.9546L97.1578 92.184L96.8375 92.3676C91.14 95.9929 92.4442 100.72 97.0891 102.945C99.5145 104.093 102.855 108.2 105.532 111.894C99.1485 113.707 96.3799 111.366 96.6544 108.98C97.0189 108.915 97.368 108.783 97.6841 108.59C98.2596 108.242 98.6742 107.68 98.8372 107.026C99.0002 106.372 98.8982 105.681 98.5536 105.102C98.2883 104.698 97.9107 104.38 97.4675 104.189C97.0243 103.997 96.5348 103.94 96.0595 104.024C95.1671 104.024 93.9315 104.712 92.3756 106.617C91.3398 107.744 90.5735 109.092 90.1347 110.56C89.696 112.029 89.5963 113.577 89.8432 115.09C90.0902 116.602 90.6774 118.039 91.5602 119.29C92.443 120.541 93.5982 121.574 94.9383 122.311Z" fill="#D58C51"/>
<path d="M98.3471 94.8457C98.452 94.7738 98.5679 94.7195 98.6903 94.6851C98.7711 94.5965 98.8634 94.5194 98.9649 94.4557C102.191 92.3906 104.777 92.5053 106.424 93.9279C105.303 90.532 101.985 89.0177 97.2717 91.9546L96.9742 92.184L96.6539 92.3676C92.0776 95.3046 92.0776 98.9529 94.6403 101.408C94.1598 99.2971 95.1437 96.9108 98.3471 94.8457Z" fill="#BF6B2B"/>
<path d="M177.379 63.1354C175.388 61.208 173.443 55.9994 172.047 51.4562C170.743 47.2573 169.896 43.609 169.896 43.609L166.533 44.435L163.146 45.2611C163.146 45.2611 164.107 48.8864 164.885 53.2231C165.663 57.5597 166.441 63.4108 165.572 66.0495C163.902 71.1662 166.51 75.5488 173.352 73.8738L173.718 73.7361H174.084C180.925 72.0611 181.223 66.8984 177.379 63.1354Z" fill="#A15417"/>
<path d="M186.714 51.6627C187.95 56.7566 181.085 60.8409 171.818 63.2501L171.177 63.4108C161.59 65.7053 153.261 65.4299 151.98 60.2213C150.699 55.0128 155.733 41.8651 165.32 39.5706L165.983 39.433C175.388 37.6432 185.455 46.5459 186.714 51.6627Z" fill="#FAAA5C"/>
<path d="M186.714 51.6627C187.95 56.7566 181.085 60.8409 171.818 63.2501L171.178 63.4108C161.59 65.7053 153.262 65.4299 151.98 60.2213C151.832 59.5437 151.77 58.8497 151.797 58.1563C154.268 61.8275 161.796 61.8505 170.285 59.7625L170.926 59.6018C179.118 57.4909 185.433 54.0261 185.936 49.7354C186.268 50.3462 186.529 50.9928 186.714 51.6627Z" fill="#D17530"/>
<path d="M130.083 116.208L130.426 112.376L114.409 118.961C114.409 118.961 110.611 124.101 112.487 127.428C112.625 127.428 126.743 119.604 130.083 116.208Z" fill="#FCB555"/>
<path d="M81.3002 102.303C80.999 103.116 80.9337 103.998 81.1118 104.847C81.29 105.696 81.7044 106.476 82.307 107.098C91.0019 115.978 112.625 127.428 112.625 127.428C112.967 124.546 113.611 121.708 114.547 118.961C112.259 117.126 85.9223 91.2892 85.9223 91.2892C84.1288 94.8485 82.5843 98.5286 81.3002 102.303Z" fill="#F7901E"/>
<path d="M110.611 81.4228C98.5752 81.2392 85.9219 91.2893 85.9219 91.2893L114.546 118.961C114.546 118.961 128.87 112.904 130.563 112.376C130.495 112.376 113.631 88.6505 110.611 81.4228Z" fill="#D9671D"/>
<path d="M108.713 130.09C108.507 125.179 111.596 106.892 123.631 97.9663C135.667 89.0406 132.029 105.928 132.029 105.928L133.974 113.753L130.221 120.521L110.612 132.499L108.713 130.09Z" fill="#A83924"/>
<path d="M166.51 91.1286C165.457 89.3389 166.029 86.8149 167.791 84.245C171.04 83.8163 174.16 82.6978 176.944 80.9639C179.842 79.3139 182.354 77.0606 184.311 74.3556C187.423 74.0344 189.894 74.7457 190.97 76.6501C192.983 80.046 189.139 86.0806 182.389 90.0731C175.639 94.0656 168.523 94.5474 166.51 91.1286Z" fill="#D17530"/>
<path d="M168.524 98.3104C171.933 100.169 175.754 100.467 185.273 94.9374C194.792 89.4076 196.256 85.7593 196.279 81.8128C196.239 80.4404 195.888 79.095 195.253 77.8789C194.617 76.6628 193.714 75.6078 192.611 74.794C191.509 73.9801 190.235 73.4288 188.889 73.1819C187.542 72.935 186.157 72.999 184.838 73.3689C182.687 73.8508 181.658 74.5621 181.269 75.2734C181.02 75.625 180.876 76.0396 180.852 76.4697C180.827 76.8998 180.924 77.3281 181.131 77.7055C181.456 78.2135 181.967 78.5729 182.553 78.706C183.14 78.8392 183.755 78.7353 184.266 78.4168C184.546 78.2382 184.794 78.0133 184.998 77.7515C186.989 78.5087 187.767 81.6751 183.717 86.0576C181.864 82.4094 179.919 78.0498 179.987 75.6635C180.102 71.0744 176.853 68.0686 171.636 71.0744L171.384 71.2579L171.086 71.4186C165.87 74.4932 166.899 78.784 171.086 80.895C173.214 81.9963 176.097 85.8052 178.363 89.2011C172.62 90.6237 170.217 88.4439 170.514 86.31C170.836 86.2587 171.146 86.1499 171.43 85.9888C171.955 85.6939 172.343 85.2034 172.51 84.6236C172.677 84.0439 172.609 83.4214 172.322 82.8912C172.082 82.5143 171.738 82.2158 171.332 82.0324C170.925 81.8489 170.474 81.7885 170.034 81.8586C169.233 81.8586 168.112 82.4093 166.647 84.1532C165.707 85.1463 165.001 86.3379 164.579 87.6405C164.158 88.9432 164.033 90.3238 164.213 91.6813C164.392 93.0388 164.873 94.3387 165.619 95.4858C166.365 96.6329 167.357 97.598 168.524 98.3104Z" fill="#E7A563"/>
<path d="M172.413 73.7819C172.5 73.7134 172.602 73.6662 172.711 73.6442L172.962 73.4377C175.914 71.6939 178.225 71.8774 179.667 73.2083C178.751 70.1107 175.823 68.6192 171.612 71.1661L171.361 71.3497L171.063 71.5103C166.853 74.0114 166.716 77.2695 168.981 79.5641C168.501 77.6596 169.462 75.5257 172.413 73.7819Z" fill="#D17530"/>
<path d="M113.791 100.49C111.915 102.073 107.201 103.358 103.105 104.184C99.0097 105.01 96.0352 105.4 96.0352 105.4L96.4928 108.452L96.9276 111.504C96.9276 111.504 100.177 110.976 104.044 110.632C107.911 110.288 113.082 110.15 115.347 111.137C119.672 113.041 123.744 111.137 122.829 104.942C122.853 104.836 122.853 104.726 122.829 104.62C122.841 104.506 122.841 104.391 122.829 104.276C121.845 98.1039 117.406 97.4156 113.791 100.49Z" fill="#A15417"/>
<path d="M104.525 91.2892C109.101 90.6238 112.099 97.0255 113.403 105.401C113.416 105.592 113.416 105.783 113.403 105.974C114.661 114.602 113.655 122.036 108.987 122.609C104.319 123.183 93.2903 117.722 92.0318 109.095V108.498C91.1852 100.077 99.9487 91.9546 104.525 91.2892Z" fill="#FAAA5C"/>
<path d="M104.524 91.2892C109.1 90.6238 112.098 97.0255 113.402 105.378C113.413 105.576 113.413 105.775 113.402 105.974C114.661 114.602 113.654 122.036 108.986 122.587C108.379 122.679 107.762 122.679 107.156 122.587C110.588 120.705 111.251 114.12 110.13 106.525C110.13 106.341 110.13 106.158 110.13 105.951C108.986 98.5628 106.492 92.7118 102.785 91.9087C103.332 91.6197 103.918 91.4111 104.524 91.2892Z" fill="#D17530"/>
<path d="M85.5101 175.131C85.5751 175.213 85.6105 175.314 85.6105 175.418C85.6105 175.522 85.5751 175.623 85.5101 175.705C85.2085 176.037 84.9991 176.443 84.9027 176.882C84.8064 177.321 84.8265 177.777 84.961 178.206C84.9746 178.327 84.9421 178.448 84.8699 178.546C84.7978 178.644 84.6913 178.711 84.572 178.734C84.4574 178.747 84.3418 178.717 84.2484 178.649C84.1551 178.581 84.0909 178.48 84.0686 178.366C83.9044 177.799 83.8897 177.198 84.026 176.623C84.1624 176.048 84.4451 175.518 84.8466 175.085C84.9321 175.001 85.0471 174.954 85.1669 174.954C85.2867 174.954 85.4017 175.001 85.4873 175.085L85.5101 175.131Z" fill="#5BA841"/>
<path d="M86.0366 174.741C86.064 174.795 86.0804 174.854 86.0849 174.915C86.0894 174.975 86.0818 175.036 86.0627 175.094C86.0435 175.152 86.0131 175.205 85.9733 175.251C85.9335 175.296 85.885 175.334 85.8306 175.36C84.9601 175.937 84.2512 176.726 83.7713 177.655C83.7543 177.775 83.6931 177.883 83.5999 177.96C83.5067 178.036 83.3882 178.075 83.2679 178.068C83.2077 178.062 83.1492 178.045 83.0959 178.016C83.0425 177.988 82.9953 177.949 82.957 177.902C82.9187 177.855 82.89 177.801 82.8727 177.743C82.8554 177.685 82.8497 177.624 82.856 177.563C83.3896 176.338 84.2838 175.305 85.4188 174.603C85.5209 174.547 85.6398 174.53 85.7535 174.556C85.8671 174.581 85.9677 174.647 86.0366 174.741Z" fill="#5BA841"/>
<path d="M86.6089 174.81C86.6489 174.884 86.6699 174.967 86.6699 175.051C86.6699 175.135 86.6489 175.218 86.6089 175.292C86.5469 175.394 86.4494 175.469 86.3352 175.503C86.2211 175.537 86.0985 175.527 85.9911 175.475C85.3047 175.131 83.5656 176.393 82.7877 177.196C82.702 177.266 82.594 177.303 82.4835 177.299C82.373 177.295 82.2677 177.252 82.1868 177.176C82.1059 177.101 82.055 176.999 82.0435 176.888C82.032 176.778 82.0606 176.667 82.1242 176.577C82.1242 176.577 84.8241 173.846 86.403 174.672C86.4716 174.695 86.6089 174.764 86.6089 174.81Z" fill="#5BA841"/>
<path d="M85.4874 173.754C85.514 173.812 85.5278 173.875 85.5278 173.938C85.5278 174.001 85.514 174.064 85.4874 174.122C85.4766 174.179 85.4542 174.234 85.4216 174.283C85.3889 174.332 85.3467 174.374 85.2976 174.406C85.2484 174.438 85.1932 174.46 85.1354 174.471C85.0776 174.481 85.0183 174.479 84.9611 174.466C84.5221 174.378 84.0678 174.405 83.6426 174.546C83.2175 174.687 82.836 174.936 82.5357 175.269C82.4923 175.317 82.4391 175.355 82.3798 175.382C82.3204 175.408 82.2562 175.421 82.1914 175.42C82.1266 175.42 82.0626 175.405 82.0037 175.378C81.9449 175.351 81.8925 175.311 81.8501 175.262C81.8076 175.213 81.776 175.155 81.7575 175.093C81.7389 175.031 81.7337 174.965 81.7423 174.901C81.7509 174.836 81.773 174.774 81.8072 174.719C81.8414 174.664 81.8869 174.617 81.9408 174.58C82.3483 174.151 82.8595 173.835 83.4247 173.662C83.9899 173.489 84.5901 173.466 85.167 173.594C85.2877 173.613 85.3996 173.669 85.4874 173.754Z" fill="#5BA841"/>
<path d="M86.0832 174.007C86.1423 174.092 86.1712 174.194 86.1649 174.297C86.1587 174.401 86.1178 174.499 86.0489 174.576C85.98 174.653 85.8871 174.705 85.7853 174.722C85.6835 174.739 85.5789 174.722 85.4883 174.672C84.5598 174.206 83.5282 173.985 82.4908 174.03C82.3814 174.077 82.258 174.079 82.1469 174.036C82.0359 173.993 81.9459 173.909 81.8959 173.8C81.8696 173.746 81.8546 173.688 81.852 173.628C81.8493 173.568 81.8591 173.508 81.8805 173.452C81.902 173.396 81.9348 173.345 81.9768 173.302C82.0188 173.26 82.0692 173.226 82.1247 173.204C83.4463 173.028 84.7896 173.269 85.9688 173.892L86.0832 174.007Z" fill="#5BA841"/>
<path d="M86.0816 173.915C86.2477 174.161 86.3499 174.445 86.3791 174.741C86.3856 174.799 86.3797 174.858 86.3619 174.913C86.3442 174.969 86.3149 175.02 86.276 175.063C86.2371 175.107 86.1894 175.141 86.1362 175.165C86.083 175.188 86.0254 175.2 85.9673 175.2C85.9083 175.206 85.8487 175.2 85.7921 175.183C85.7355 175.165 85.6831 175.136 85.6381 175.097C85.5931 175.059 85.5564 175.011 85.5304 174.958C85.5044 174.905 85.4896 174.846 85.4868 174.787C85.4868 174.007 83.4503 173.158 82.3749 172.905C82.3064 172.904 82.239 172.888 82.1776 172.857C82.1163 172.827 82.0626 172.783 82.0205 172.729C81.9784 172.674 81.9489 172.611 81.9343 172.544C81.9197 172.477 81.9204 172.408 81.9361 172.341C81.9519 172.274 81.9825 172.212 82.0255 172.158C82.0686 172.105 82.1231 172.062 82.185 172.032C82.2469 172.003 82.3145 171.987 82.3831 171.988C82.4516 171.988 82.5191 172.004 82.5808 172.034C83.8951 172.334 85.1044 172.984 86.0816 173.915Z" fill="#5BA841"/>
<path d="M90.4295 171.621V171.758C90.4655 171.874 90.4543 171.999 90.3986 172.106C90.3429 172.214 90.2471 172.295 90.1321 172.332C88.7134 172.814 88.027 173.387 87.7066 174.42C87.6698 174.535 87.589 174.631 87.4819 174.687C87.3747 174.743 87.2499 174.754 87.1346 174.718C87.0196 174.681 86.9237 174.6 86.868 174.493C86.8123 174.385 86.8012 174.26 86.8371 174.144C87.0685 173.475 87.4679 172.876 87.9969 172.406C88.5259 171.936 89.1666 171.61 89.8575 171.46C89.957 171.419 90.0674 171.412 90.1712 171.441C90.2749 171.47 90.3659 171.533 90.4295 171.621Z" fill="#5BA841"/>
<path d="M89.3311 170.359C89.3922 170.46 89.4121 170.58 89.3865 170.696C89.3609 170.811 89.2919 170.912 89.1938 170.978C88.487 172.064 88.0622 173.311 87.9582 174.603C87.9582 174.725 87.91 174.842 87.8242 174.928C87.7384 175.014 87.622 175.062 87.5006 175.062C87.4416 175.065 87.3826 175.056 87.3272 175.036C87.2718 175.015 87.2211 174.984 87.1783 174.943C87.1355 174.902 87.1014 174.853 87.0781 174.799C87.0548 174.744 87.0429 174.686 87.043 174.626C87.1256 173.03 87.7014 171.498 88.6904 170.244C88.7399 170.209 88.7958 170.184 88.8549 170.171C88.914 170.158 88.975 170.156 89.0346 170.167C89.0942 170.178 89.1511 170.2 89.202 170.233C89.2529 170.266 89.2968 170.309 89.3311 170.359Z" fill="#5BA841"/>
<path d="M87.9596 170.106C87.9937 170.17 88.0115 170.241 88.0115 170.313C88.0115 170.385 87.9937 170.456 87.9596 170.519C87.6811 171.26 87.5596 172.05 87.603 172.84C87.6463 173.63 87.8535 174.403 88.2114 175.108C88.2591 175.221 88.262 175.348 88.2195 175.463C88.1769 175.579 88.0922 175.673 87.9825 175.728C87.8726 175.769 87.7513 175.768 87.6416 175.726C87.532 175.684 87.4417 175.603 87.3876 175.498C86.979 174.682 86.7436 173.789 86.6964 172.877C86.6491 171.965 86.791 171.052 87.113 170.198C87.1545 170.086 87.236 169.993 87.3417 169.938C87.4474 169.883 87.5698 169.869 87.6851 169.9C87.7948 169.94 87.8903 170.012 87.9596 170.106Z" fill="#5BA841"/>
<path d="M86.9975 174.947C87.5301 175.742 87.9678 176.597 88.3016 177.494V177.632C88.3469 177.745 88.3459 177.871 88.2987 177.983C88.2515 178.094 88.1621 178.183 88.05 178.229C87.9948 178.255 87.9348 178.268 87.8739 178.27C87.8131 178.271 87.7526 178.259 87.6965 178.235C87.6404 178.211 87.5899 178.176 87.5483 178.131C87.5067 178.087 87.475 178.034 87.455 177.976V177.839C87.2222 176.943 86.7847 176.114 86.177 175.417C85.5694 174.72 84.8084 174.174 83.9542 173.823C83.8981 173.807 83.8458 173.781 83.8002 173.744C83.7547 173.708 83.7169 173.662 83.6892 173.611C83.6615 173.56 83.6443 173.503 83.6387 173.445C83.6331 173.387 83.6392 173.328 83.6567 173.272C83.6782 173.208 83.7137 173.149 83.7608 173.1C83.8078 173.05 83.8652 173.012 83.9287 172.988C83.9923 172.964 84.0603 172.954 84.1281 172.96C84.1958 172.965 84.2615 172.986 84.3203 173.02C85.3984 173.353 86.3386 174.029 86.9975 174.947Z" fill="#5BA841"/>
<path d="M88.0727 173.02C88.1076 173.124 88.1076 173.237 88.0727 173.341C87.9696 174.177 88.0161 175.024 88.21 175.842C88.3607 176.499 88.3607 177.182 88.21 177.839C88.1764 177.948 88.1036 178.04 88.0058 178.098C87.9079 178.156 87.792 178.176 87.6807 178.153C87.5693 178.13 87.4704 178.066 87.4033 177.974C87.3362 177.882 87.3056 177.769 87.3176 177.655C87.4298 177.11 87.4298 176.548 87.3176 176.003C87.0866 175.097 87.0322 174.154 87.1574 173.227C87.1744 173.109 87.2365 173.002 87.3305 172.93C87.4244 172.857 87.5428 172.824 87.6608 172.837C87.7382 172.838 87.8147 172.854 87.8855 172.886C87.9563 172.918 88.02 172.963 88.0727 173.02Z" fill="#5BA841"/>
<path d="M132.371 154.916C131.112 154.618 131.113 153.54 131.318 152.438C131.318 151.979 130.929 151.52 130.54 151.658L117.841 156.087C117.635 156.087 117.841 159.551 119.054 159.138C118.642 159.253 133.973 156.247 132.371 154.916Z" fill="#9BA730"/>
<path d="M118.344 111.068C117.772 110.15 118.344 109.301 119.237 108.521C119.58 108.2 119.58 107.58 119.237 107.465L108.871 104.253C108.711 104.253 106.698 107.053 107.704 107.374C107.315 107.328 118.436 113.041 118.344 111.068Z" fill="#AECA36"/>
<path d="M112.374 38.8823C111.952 38.0389 111.807 37.0828 111.962 36.1518C111.962 35.7388 111.825 35.1422 111.688 35.1652L107.111 35.7847C107.111 35.7847 107.111 39.2035 107.592 39.1347C107.317 39.1576 112.969 40.6262 112.374 38.8823Z" fill="#9BA730"/>
<path d="M172.117 54.095C171.98 55.0128 170.996 55.5175 169.966 55.9076C169.509 56.0682 169.142 56.573 169.325 56.7565L174.931 62.6765C174.931 62.6765 178.158 61.0703 177.609 60.3819C177.837 60.7261 173.17 52.5117 172.117 54.095Z" fill="#9BA730"/>
<path d="M91.0015 127.749C90.6515 127.444 90.3778 127.061 90.2029 126.631C90.028 126.2 89.9567 125.734 89.9948 125.271C89.9948 124.858 89.6287 124.353 89.4227 124.422L82.9473 126.717C82.9473 126.717 83.5422 129.998 84.16 129.791C83.9083 129.814 92.1227 129.241 91.0015 127.749Z" fill="#719C3A"/>
<path d="M178.339 105.607C177.767 104.689 178.339 103.84 179.255 103.06C179.575 102.739 179.598 102.119 179.255 102.005L168.867 98.7922C168.706 98.7922 166.716 101.592 167.7 101.913C167.311 101.89 178.431 107.488 178.339 105.607Z" fill="#719C3A"/>
<path d="M85.9443 68.4587C84.9604 68.1374 84.6858 67.1049 84.5714 66.0494C84.5714 65.5905 84.0681 65.1316 83.8164 65.2463L75.5791 69.1929C75.4418 69.1929 76.4486 72.5659 77.2265 72.1988C76.9062 72.3364 87.4087 69.7665 85.9443 68.4587Z" fill="#719C3A"/>
<path d="M56.8637 65.4298C56.443 64.5941 56.2988 63.6458 56.4519 62.7223C56.4519 62.2863 56.3146 61.7127 56.1544 61.7357L51.5781 62.3551C51.5781 62.3551 51.5781 65.7511 52.0586 65.7052C51.8069 65.7282 57.4586 67.1966 56.8637 65.4298Z" fill="#B2BE27"/>
<path d="M35.3776 122.931C34.9658 121.967 35.5607 121.095 36.27 120.315C36.5675 119.994 36.5904 119.351 36.27 119.236L28.1014 115.496C27.9641 115.496 26.1793 118.342 26.9573 118.686C26.7056 118.548 35.3319 124.835 35.3776 122.931Z" fill="#9BA730"/>
<path d="M184.496 137.019C185.114 136.147 186.166 136.422 187.173 136.858C187.608 137.065 188.18 136.858 188.157 136.491L187.059 125.661C187.059 125.478 183.649 124.743 183.741 125.776C183.718 125.363 182.711 137.845 184.496 137.019Z" fill="#AECA36"/>
<path d="M128.619 92.7118C129.213 92.008 130.014 91.5102 130.907 91.2892C131.296 91.1286 131.776 90.7385 131.708 90.6238L129.305 86.5625C129.305 86.5625 126.193 87.9392 126.422 88.3293C126.376 88.1228 127.223 93.8361 128.619 92.7118Z" fill="#9BA730"/>
<path d="M176.945 152.369C176.052 152.622 175.206 151.888 174.451 151.084C174.13 150.74 173.535 150.603 173.421 150.832L170.172 158.312C170.172 158.427 172.918 160.607 173.238 159.941C173.101 160.24 178.821 152.714 176.945 152.369Z" fill="#9BA730"/>
<path style="mix-blend-mode:multiply" d="M104.89 138.35C124.25 138.35 139.944 122.612 139.944 103.198C139.944 83.7838 124.25 68.0457 104.89 68.0457C85.5303 68.0457 69.8359 83.7838 69.8359 103.198C69.8359 122.612 85.5303 138.35 104.89 138.35Z" fill="url(#paint0_radial_246_1700)"/>
<path d="M126.606 91.4039C129.024 95.1002 130.284 99.4379 130.223 103.859C130.162 108.279 128.783 112.58 126.263 116.208C123.743 119.836 120.198 122.624 116.084 124.213C111.97 125.803 107.476 126.121 103.18 125.127C98.8841 124.133 94.9834 121.872 91.9801 118.636C88.9768 115.399 87.0085 111.335 86.3286 106.967C85.6487 102.598 86.2884 98.1262 88.1653 94.1258C90.0422 90.1253 93.0703 86.7799 96.8598 84.5203C101.722 81.5057 107.574 80.5376 113.145 81.8267C118.715 83.1157 123.552 86.5575 126.606 91.4039Z" fill="#FDB913"/>
<path d="M125.003 91.4498C126.337 93.5462 127.231 95.8925 127.633 98.3462C128.035 100.8 127.935 103.31 127.34 105.724C126.745 108.138 125.668 110.405 124.173 112.389C122.677 114.372 120.796 116.031 118.642 117.263C118.303 117.481 117.904 117.586 117.501 117.564C117.099 117.542 116.714 117.393 116.4 117.14C116.087 116.886 115.861 116.54 115.754 116.15C115.647 115.761 115.665 115.347 115.805 114.969C116.993 112.372 117.535 109.525 117.384 106.672C117.233 103.819 116.393 101.046 114.937 98.5901C113.48 96.1345 111.451 94.0703 109.024 92.5747C106.597 91.0791 103.843 90.1971 101.001 90.0042C100.582 89.9728 100.185 89.8081 99.8662 89.5341C99.5476 89.26 99.3249 88.891 99.2303 88.481C99.1357 88.071 99.1743 87.6413 99.3406 87.2549C99.5068 86.8684 99.7919 86.5454 100.154 86.333L101.39 85.6446C105.358 83.5763 109.941 83.0248 114.286 84.0927C118.63 85.1606 122.439 87.7753 125.003 91.4498Z" fill="#FFD800"/>
<path d="M123.493 93.2396C124.805 95.4788 125.463 98.0419 125.395 100.638C125.326 103.234 124.532 105.758 123.104 107.925C123.588 106.149 123.712 104.293 123.468 102.469C123.225 100.644 122.619 98.8866 121.686 97.3009C120.37 95.0906 118.447 93.3065 116.148 92.1611L118.78 88.5587C120.724 89.6897 122.347 91.3012 123.493 93.2396Z" fill="#FEF2DE"/>
<path d="M50.6163 100.421C48.9002 100.307 48.0307 98.7693 47.39 97.1631C47.1383 96.4748 46.2002 95.947 45.8341 96.2224L34.2561 105.676C34.0731 105.813 37.0476 110.632 38.1688 109.737C37.7112 110.104 53.5222 101.89 50.6163 100.421Z" fill="#39742E"/>
<path d="M99.0563 131.535C97.0199 130.939 97.1114 129.241 97.5691 127.359C97.7521 126.602 97.0428 125.776 96.3564 125.959L74.8936 132.017C74.5504 132.017 74.5275 137.799 76.5868 137.226C75.7402 137.455 101.459 134.013 99.0563 131.535Z" fill="#39742E"/>
<path d="M79.0113 105.423C78.1647 103.886 79.3546 102.509 80.7732 101.316C81.3681 100.811 81.4368 99.7789 80.9105 99.5724L64.047 93.2166C63.7724 93.2166 60.18 97.645 61.7588 98.2416C61.141 97.9892 78.9884 108.567 79.0113 105.423Z" fill="#AECA36"/>
<path d="M66.3351 137.18C64.7334 136.56 64.3672 134.885 64.2757 133.027C64.2757 132.292 63.5436 131.489 63.1088 131.65L49.0825 137.34C48.8537 137.34 50.1808 143.031 51.5308 142.48C50.9817 142.709 68.6232 139.543 66.3351 137.18Z" fill="#39742E"/>
<path d="M127.589 91.1745C127.932 92.7347 126.559 94.0197 125.026 95.0752C124.386 95.5341 124.065 96.5436 124.454 96.7731L137.428 104.184C137.634 104.299 142.004 100.1 140.654 99.4119C141.158 99.5954 128.413 88.1227 127.589 91.1745Z" fill="#16893A"/>
<path d="M66.4506 122.541C65.1692 121.485 65.4437 119.718 65.9929 117.952C66.2217 117.24 65.8556 116.254 65.3751 116.277L50.1132 117.401C49.8844 117.401 49.1294 123.114 50.5709 123C49.9989 123.022 67.7548 125.386 66.4506 122.541Z" fill="#39742E"/>
<path d="M99.605 45.3299C98.9802 43.8841 98.8359 42.2752 99.1931 40.7408C99.1931 40.0295 99.0558 39.0428 98.8041 39.0428L91.0474 39.6165C90.9101 39.6165 90.75 45.284 91.505 45.2151C91.1847 45.284 100.337 48.2898 99.605 45.3299Z" fill="#417A34"/>
<path d="M111.183 59.074C110.908 60.5655 109.215 61.3686 107.453 61.8275C106.698 62.034 106.035 62.837 106.309 63.1583L115.027 73.5296C115.164 73.6902 120.519 71.235 119.603 70.2025C120.038 70.6155 113.105 56.55 111.183 59.074Z" fill="#417A34"/>
<path d="M160.057 128.483C159.504 127.947 159.087 127.287 158.84 126.556C158.594 125.826 158.524 125.047 158.638 124.285C158.638 123.596 158.112 122.724 157.769 122.816L146.832 125.891C146.649 125.891 147.495 131.375 148.525 131.099C148.113 131.214 161.75 131.076 160.057 128.483Z" fill="#719C3A"/>
<path d="M116.836 154.435C115.989 152.897 117.179 151.52 118.597 150.327C119.192 149.823 119.261 148.79 118.735 148.606L101.871 142.251C101.597 142.251 98.0042 146.656 99.583 147.276C98.9652 147.023 116.813 157.601 116.836 154.435Z" fill="#719C3A"/>
<path d="M110.2 61.2768C108.576 60.6572 108.233 58.9823 108.141 57.1466C108.141 56.3895 107.386 55.5864 106.951 55.747L92.9478 61.4604C92.719 61.4604 94.0461 67.1278 95.3732 66.6001C94.824 66.8066 112.488 63.6401 110.2 61.2768Z" fill="#719C3A"/>
<path d="M52.9953 70.386C53.3385 71.9463 51.9656 73.2313 50.4326 74.3097C49.7919 74.7457 49.4716 75.7552 49.8834 75.9847L62.8571 83.396C63.0402 83.5107 67.319 79.3117 66.0834 78.6233C66.5868 78.9446 53.819 67.2884 52.9953 70.386Z" fill="#B0AE29"/>
<path d="M127.201 73.6213C126.491 74.1175 125.664 74.4206 124.802 74.501C123.94 74.5814 123.071 74.4365 122.282 74.0802C121.504 73.8508 120.428 74.2179 120.474 74.6539L121.641 88.6963C121.641 88.9258 127.842 89.5912 127.727 88.2374C127.796 88.7881 130.382 72.4052 127.201 73.6213Z" fill="#A8C631"/>
<path d="M150.676 112.238C150.047 110.794 149.902 109.183 150.265 107.649C150.265 106.938 150.127 105.928 149.876 105.951L142.119 106.525C142.119 106.525 141.844 112.169 142.576 112.123C142.325 112.215 151.523 115.221 150.676 112.238Z" fill="#B2BE27"/>
<path d="M64.254 85.8282C65.0777 89.9354 62.6065 93.1477 60.7073 92.9183C58.6367 92.414 56.7785 91.2654 55.3988 89.6371C54.209 88.3292 54.6895 85.8282 56.9776 83.3042C59.2658 80.7802 63.3616 81.6521 64.254 85.8282ZM64.5285 85.6905C63.476 80.8261 58.831 79.8854 56.4971 82.8224C54.1632 85.7594 53.7514 88.3292 55.1242 89.7059C56.6084 91.4527 58.5151 92.7879 60.6616 93.5837C62.5836 93.9508 65.4438 90.4861 64.5285 85.6447V85.6905Z" fill="#24573C"/>
<path d="M64.2547 85.8282C63.3623 81.6522 59.2436 80.7573 56.9783 83.3042C54.7131 85.8511 54.2097 88.3293 55.3995 89.6371C56.7792 91.2655 58.6374 92.414 60.708 92.9183C62.6072 93.056 65.0784 89.8436 64.2547 85.8282ZM56.1089 89.5224C55.2165 88.3063 55.7657 86.2642 57.7335 84.5203C58.1838 84.0956 58.7428 83.8044 59.3482 83.6793C59.9537 83.5542 60.582 83.6001 61.163 83.8118C61.7441 84.0234 62.2551 84.3926 62.6394 84.8783C63.0236 85.3639 63.2659 85.9469 63.3393 86.5625C63.98 89.5683 62.2182 92.0464 60.5478 92.0235C59.6661 91.9344 58.8138 91.6569 58.048 91.2097C57.2823 90.7624 56.6211 90.1558 56.1089 89.4306V89.5224Z" fill="#61AB55"/>
<path d="M82.6044 113.638C80.3162 114.257 76.9985 113.087 76.701 111.573C76.4036 110.058 78.2569 108.154 79.973 107.213C80.9748 106.796 82.0872 106.727 83.1325 107.018C84.1777 107.31 85.0955 107.944 85.7391 108.819C86.8603 110.632 84.8468 112.927 82.6044 113.638ZM82.6044 113.844C85.0984 112.995 87.5238 110.54 86.2196 108.59C85.4751 107.648 84.4393 106.981 83.2752 106.694C82.111 106.408 80.8849 106.518 79.7899 107.007C77.8908 108.108 75.8086 110.058 75.9459 111.596C76.0832 113.133 79.973 114.464 82.6044 113.776V113.844Z" fill="#24573C"/>
<path d="M82.6049 113.638C84.893 112.926 86.8608 110.632 85.7396 108.819C85.096 107.944 84.1783 107.309 83.133 107.018C82.0878 106.727 80.9754 106.796 79.9736 107.213C78.2575 108.154 76.4727 110.035 76.7015 111.573C76.9304 113.11 80.2939 114.257 82.6049 113.638ZM79.9964 107.741C80.7862 107.416 81.6644 107.378 82.4791 107.633C83.2939 107.889 83.994 108.422 84.4583 109.141C85.282 110.609 83.9778 112.445 82.1701 112.995C80.3625 113.546 77.8685 112.582 77.5939 111.297C77.3193 110.012 78.532 108.452 79.9964 107.741Z" fill="#61AB55"/>
<path d="M51.0963 89.0405C52.9497 86.9066 55.6725 86.9295 56.3361 88.0309C56.916 89.3504 57.0681 90.8191 56.7709 92.2299C56.542 93.4231 55.009 94.1802 52.7209 93.9967C52.1708 93.9451 51.6478 93.7337 51.2159 93.3883C50.784 93.0429 50.462 92.5785 50.2895 92.0523C50.117 91.526 50.1014 90.9607 50.2448 90.4257C50.3881 89.8907 50.6841 89.4092 51.0963 89.0405ZM50.9132 89.0405C48.7395 91.5874 50.1582 94.4785 52.6751 94.5473C55.1921 94.6162 56.7251 93.7443 56.931 92.4364C57.2618 90.9148 57.1908 89.333 56.7251 87.8474C56.1531 86.6542 53.1098 86.5395 50.9132 89.0176V89.0405Z" fill="#24573C"/>
<path d="M51.0971 89.0406C50.6849 89.4093 50.3889 89.8908 50.2456 90.4258C50.1023 90.9608 50.1178 91.5261 50.2903 92.0523C50.4628 92.5786 50.7848 93.043 51.2167 93.3884C51.6486 93.7338 52.1717 93.9452 52.7217 93.9967C55.0098 94.1803 56.5428 93.4231 56.7717 92.23C57.0553 90.8185 56.9036 89.3539 56.3369 88.031C55.6962 86.9296 52.9505 86.9066 51.0971 89.0406ZM56.4056 91.9087C56.131 92.8724 54.8039 93.4231 53.0649 93.0789C52.6606 92.9984 52.2855 92.8098 51.9793 92.533C51.673 92.2563 51.447 91.9017 51.3251 91.5068C51.2032 91.112 51.19 90.6914 51.2868 90.2896C51.3836 89.8878 51.5869 89.5197 51.8751 89.2242C53.2022 87.6639 55.2615 87.595 55.9251 88.4899C56.2382 88.9948 56.4427 89.5597 56.5254 90.1484C56.6082 90.7371 56.5674 91.3367 56.4056 91.9087Z" fill="#61AB55"/>
<path d="M67.6408 79.6559C67.0001 81.9505 63.8882 84.0844 62.1493 83.5107C61.2731 82.9962 60.5527 82.2526 60.0651 81.3595C59.5775 80.4664 59.3409 79.4573 59.3806 78.4398C59.5883 77.294 60.199 76.2609 61.1017 75.5283C62.0044 74.7956 63.1393 74.4121 64.3001 74.4474C66.8399 74.4474 68.1213 77.3844 67.6408 79.6559ZM67.8925 79.6559C68.3959 77.109 67.1832 73.7361 64.3917 73.782C63.1111 73.7855 61.8745 74.2512 60.9082 75.0938C59.9419 75.9365 59.3103 77.0998 59.1289 78.371C59.1289 80.6655 60.1128 83.3501 61.8747 84.0844C63.6366 84.8186 67.1374 82.2258 67.8925 79.6559Z" fill="#61AB55"/>
<path d="M67.6394 79.656C68.1199 77.3614 66.8386 74.4704 64.2988 74.4474C63.138 74.4122 62.0031 74.7957 61.1004 75.5283C60.1976 76.2609 59.5869 77.2941 59.3793 78.4399C59.3396 79.4573 59.5761 80.4665 60.0638 81.3596C60.5514 82.2527 61.2717 82.9962 62.1479 83.5108C63.8869 84.0844 66.9988 81.9505 67.6394 79.656ZM59.9513 78.6923C60.133 77.7956 60.6362 76.9968 61.3657 76.4471C62.0952 75.8974 63.0003 75.6349 63.9098 75.7094C64.3728 75.7484 64.8215 75.8903 65.2232 76.1245C65.6248 76.3588 65.9695 76.6797 66.2323 77.0641C66.4951 77.4484 66.6694 77.8865 66.7426 78.3467C66.8158 78.8068 66.7861 79.2776 66.6555 79.7248C66.373 80.6394 65.7888 81.4306 64.9989 81.9684C64.2089 82.5063 63.2601 82.7589 62.3081 82.6848C61.5516 82.3456 60.9186 81.7795 60.4965 81.0644C60.0744 80.3493 59.8839 79.5205 59.9513 78.6923Z" fill="#92BF85"/>
<path d="M99.3316 63.5485C101.093 66.0724 101.139 70.5697 99.4688 71.5793C97.7985 72.5889 94.7095 71.2122 92.8104 69.5831C91.8674 68.5645 91.2919 67.2584 91.1758 65.8734C91.0597 64.4885 91.4096 63.1044 92.1697 61.9423C93.84 59.7854 97.4782 61.1851 99.3316 63.5485ZM99.5375 63.3878C97.4095 60.7491 93.4053 58.7988 91.6435 61.3228C90.8381 62.635 90.495 64.1802 90.6693 65.7111C90.8435 67.242 91.5249 68.6701 92.6044 69.7666C94.7782 71.5793 98.0273 73.2313 99.8807 72.3135C101.734 71.3957 101.528 66.233 99.5375 63.3878Z" fill="#24573C"/>
<path d="M99.3299 63.5484C97.4765 61.2539 93.8384 59.7854 92.168 61.9422C91.4079 63.1044 91.058 64.4884 91.1742 65.8734C91.2903 67.2583 91.8657 68.5644 92.8087 69.583C94.7079 71.2121 97.7282 72.5429 99.4672 71.5792C101.206 70.6155 101.092 66.0724 99.3299 63.5484ZM93.4723 69.3306C92.7147 68.5341 92.2679 67.491 92.2133 66.3917C92.1587 65.2924 92.4999 64.21 93.1748 63.3419C94.5935 61.6898 97.3392 62.447 98.8036 64.4432C100.268 66.4395 100.222 69.7666 98.8036 70.7073C97.385 71.6481 94.9138 70.7532 93.4723 69.3306Z" fill="#61AB55"/>
<path d="M57.5265 121.577C59.4714 120.2 63.2239 120.499 64.2078 122.059C64.5685 123.013 64.6611 124.048 64.4755 125.052C64.2899 126.055 63.8332 126.988 63.1553 127.749C62.276 128.505 61.1559 128.921 59.9977 128.921C58.8394 128.921 57.7193 128.505 56.84 127.749C56.4452 127.317 56.1472 126.805 55.9661 126.248C55.785 125.69 55.725 125.101 55.79 124.518C55.855 123.936 56.0436 123.374 56.3431 122.87C56.6426 122.367 57.0462 121.934 57.5265 121.6V121.577ZM57.3663 121.393C55.3527 123.045 54.1858 126.418 56.3824 128.139C57.3674 128.922 58.5963 129.33 59.8522 129.292C61.1081 129.254 62.3104 128.773 63.2468 127.933C64.5511 126.166 65.5349 123.344 64.7112 121.76C63.8875 120.177 59.4714 119.856 57.2748 121.393H57.3663Z" fill="#61AB55"/>
<path d="M57.5275 121.577C57.0472 121.911 56.6437 122.344 56.3442 122.848C56.0447 123.351 55.8561 123.913 55.7911 124.495C55.726 125.078 55.786 125.667 55.9672 126.225C56.1483 126.782 56.4463 127.294 56.8411 127.726C57.7204 128.482 58.8404 128.898 59.9987 128.898C61.157 128.898 62.2771 128.482 63.1563 127.726C63.8343 126.965 64.2909 126.032 64.4765 125.029C64.6621 124.025 64.5695 122.99 64.2089 122.036C63.225 120.499 59.4725 120.246 57.5275 121.577ZM62.8818 127.176C62.1784 127.767 61.2812 128.075 60.3639 128.042C59.4467 128.008 58.5746 127.634 57.9165 126.992C57.5884 126.666 57.3358 126.271 57.1764 125.836C57.017 125.401 56.9547 124.936 56.994 124.475C57.0333 124.013 57.1731 123.566 57.4037 123.164C57.6342 122.762 57.9499 122.416 58.3284 122.151C59.1226 121.615 60.0757 121.369 61.0291 121.452C61.9825 121.536 62.8786 121.944 63.5682 122.609C63.9325 123.342 64.0621 124.169 63.9392 124.979C63.8163 125.788 63.447 126.539 62.8818 127.13V127.176Z" fill="#92BF85"/>
<path d="M156.602 100.949C157.174 99.32 158.89 98.8841 160.583 98.6546C161.316 98.6546 162.094 97.8286 161.91 97.4156L155.984 83.6484C155.984 83.4419 150.47 85.0022 151.019 86.3101C150.79 85.8282 154.337 103.335 156.602 100.949Z" fill="#417A34"/>
<path d="M92.9471 77.6367C94.0911 75.8469 95.7844 76.3976 97.3861 77.3384C97.5417 77.4251 97.7157 77.4734 97.8937 77.4793C98.0717 77.4852 98.2485 77.4486 98.4095 77.3723C98.5705 77.2961 98.711 77.1825 98.8196 77.0409C98.9281 76.8994 99.0014 76.7339 99.0335 76.5582V54.1637C99.0335 53.8196 93.5877 52.2822 93.5877 54.4161C93.5877 53.5212 90.0183 79.3117 92.9471 77.6367Z" fill="#417A34"/>
<path d="M102.625 58.294C104.341 57.881 105.348 59.3954 106.103 61.0933C106.423 61.8046 107.407 62.1488 107.727 61.6899L118.413 47.1426C118.573 46.9132 115.21 42.2094 114.203 43.609C114.546 42.9436 99.5587 57.3073 102.625 58.294Z" fill="#3B923B"/>
<path d="M101.688 47.0048C103.06 46.0641 104.685 46.8213 106.264 47.8079C106.905 48.2209 107.934 48.1291 108.049 47.6473L111.092 32.6412C111.092 32.4117 105.898 30.1172 105.6 31.5627C105.6 30.9662 98.507 47.4867 101.688 47.0048Z" fill="#417A34"/>
<path d="M165.595 132.912C167.169 132.689 168.773 132.979 170.171 133.738C170.835 134.013 171.841 134.059 171.887 133.738L173.443 126.097C173.443 125.959 168.112 124.284 167.952 125.019C167.906 124.835 162.529 132.866 165.595 132.912Z" fill="#417A34"/>
<path d="M147.405 138.809C148.435 137.432 150.22 137.547 151.982 137.96C152.714 138.12 153.675 137.639 153.629 137.18L151.959 122.105C151.959 121.875 146.216 121.623 146.376 123.068C146.261 122.541 144.522 140.369 147.405 138.809Z" fill="#719C3A"/>
<path d="M167.54 108.062C165.938 108.062 165.092 106.295 164.474 104.529C164.222 103.794 163.33 103.198 163.01 103.542L152.37 114.051C152.21 114.211 155.07 119.466 156.099 118.456C155.688 118.869 170.286 109.691 167.54 108.062Z" fill="#B0AE29"/>
<path d="M110.131 70.0878C109.847 69.2673 109.782 68.3867 109.943 67.5334C110.104 66.6801 110.484 65.8837 111.046 65.2233C111.458 64.512 111.389 63.3877 111.046 63.3189L97.3174 60.6343C97.1114 60.6343 94.8004 66.3706 96.1276 66.623C95.4182 66.5312 110.451 73.4837 110.131 70.0878Z" fill="#3C8F37"/>
<path d="M151.112 112.009C148.023 111.756 146.238 109.347 146.765 108.039C147.545 106.659 148.737 105.56 150.174 104.896C151.364 104.322 153.034 105.148 154.384 107.305C154.706 107.823 154.868 108.425 154.852 109.035C154.836 109.645 154.642 110.237 154.294 110.738C153.945 111.239 153.458 111.626 152.893 111.852C152.327 112.078 151.708 112.132 151.112 112.009ZM151.112 112.215C154.773 112.445 156.375 109.301 154.773 107.053C153.171 104.804 151.387 103.978 150.197 104.758C148.657 105.472 147.325 106.57 146.33 107.947C145.689 109.255 147.588 112.009 151.204 112.307L151.112 112.215Z" fill="#24573C"/>
<path d="M151.111 112.009C151.707 112.132 152.326 112.078 152.892 111.852C153.457 111.626 153.944 111.239 154.292 110.738C154.641 110.237 154.835 109.645 154.851 109.035C154.867 108.425 154.704 107.823 154.383 107.305C153.033 105.148 151.362 104.322 150.173 104.896C148.736 105.56 147.543 106.659 146.763 108.039C146.237 109.347 148.022 111.756 151.111 112.009ZM150.104 105.423C151.157 105.033 152.507 105.836 153.353 107.603C153.568 108.011 153.665 108.471 153.633 108.931C153.601 109.391 153.442 109.833 153.174 110.208C152.905 110.582 152.537 110.874 152.112 111.05C151.687 111.227 151.221 111.28 150.768 111.206C148.479 111.045 147.106 109.278 147.45 108.085C147.688 107.483 148.046 106.937 148.503 106.479C148.959 106.022 149.504 105.662 150.104 105.423Z" fill="#61AB55"/>
<path d="M100.338 53.1312C100.338 51.3874 101.826 49.2994 102.947 49.4141C104.068 49.5288 105.006 51.1579 105.235 52.5346C105.333 53.3229 105.159 54.121 104.743 54.797C104.327 55.4729 103.693 55.9861 102.947 56.2518C101.459 56.6877 100.27 54.8292 100.201 53.1312H100.338ZM100.178 53.1312C100.292 55.0586 101.505 57.2384 103.13 56.7107C103.917 56.3587 104.567 55.7572 104.981 54.9986C105.394 54.24 105.548 53.3663 105.418 52.5117C105.029 50.9744 104.068 49.1388 102.924 48.9323C101.78 48.7258 100.155 51.2268 100.109 53.1312H100.178Z" fill="#24573C"/>
<path d="M100.338 53.1313C100.338 54.8292 101.596 56.6877 103.084 56.2518C103.83 55.9861 104.464 55.4729 104.88 54.797C105.296 54.1211 105.47 53.3229 105.372 52.5347C105.051 51.158 104.09 49.5289 103.084 49.4141C102.077 49.2994 100.338 51.4104 100.338 53.1313ZM104.914 52.4429C104.989 53.0601 104.844 53.684 104.505 54.2046C104.166 54.7251 103.654 55.1089 103.061 55.2881C101.871 55.5864 100.773 54.3015 100.773 52.9936C100.773 51.6857 101.894 50.0796 102.855 50.1254C103.816 50.1713 104.777 51.4104 104.914 52.4429Z" fill="#61AB55"/>
<path d="M166.876 104.414C168.272 106.571 167.586 109.003 166.465 109.255C165.175 109.425 163.865 109.192 162.712 108.59C161.751 108.108 161.454 106.571 162.186 104.62C162.357 104.146 162.665 103.734 163.07 103.435C163.475 103.137 163.96 102.966 164.462 102.944C164.965 102.922 165.462 103.049 165.892 103.311C166.322 103.573 166.664 103.957 166.876 104.414ZM167.014 104.276C165.321 101.752 162.437 102.28 161.797 104.46C161.156 106.639 161.499 108.2 162.575 108.705C163.814 109.359 165.201 109.683 166.602 109.645C167.769 109.439 168.615 106.8 167.014 104.276Z" fill="#24573C"/>
<path d="M166.877 104.414C166.665 103.957 166.322 103.573 165.892 103.311C165.462 103.049 164.965 102.922 164.463 102.944C163.96 102.966 163.476 103.137 163.07 103.435C162.665 103.734 162.357 104.146 162.186 104.62C161.454 106.571 161.751 108.108 162.712 108.59C163.866 109.192 165.176 109.425 166.465 109.255C167.586 108.934 168.273 106.479 166.877 104.414ZM163.101 108.36C162.323 107.879 162.163 106.594 162.895 105.148C163.054 104.805 163.305 104.512 163.62 104.303C163.935 104.094 164.302 103.977 164.679 103.965C165.057 103.953 165.43 104.047 165.757 104.236C166.085 104.424 166.354 104.7 166.534 105.033C167.563 106.594 167.128 108.406 166.167 108.773C165.655 108.919 165.119 108.957 164.592 108.886C164.064 108.815 163.557 108.636 163.101 108.36Z" fill="#61AB55"/>
<path d="M154.682 119.672C152.645 118.433 151.433 114.877 152.394 113.34C153.121 112.631 154.029 112.137 155.017 111.91C156.006 111.684 157.037 111.734 158 112.055C159.043 112.558 159.87 113.423 160.328 114.49C160.787 115.556 160.845 116.753 160.494 117.86C160.261 118.397 159.914 118.878 159.479 119.269C159.043 119.659 158.528 119.951 157.969 120.123C157.411 120.295 156.821 120.344 156.242 120.266C155.663 120.189 155.107 119.986 154.613 119.672H154.682ZM154.567 119.902C156.856 121.095 160.425 120.82 161.134 118.135C161.487 116.9 161.383 115.579 160.84 114.415C160.298 113.251 159.354 112.323 158.183 111.802C156.055 111.297 153.126 111.412 151.959 112.927C150.792 114.441 152.302 118.502 154.567 119.81V119.902Z" fill="#61AB55"/>
<path d="M154.681 119.672C155.175 119.986 155.731 120.189 156.31 120.266C156.89 120.344 157.479 120.295 158.038 120.123C158.596 119.951 159.111 119.659 159.547 119.269C159.983 118.878 160.329 118.397 160.562 117.86C160.914 116.753 160.855 115.556 160.397 114.49C159.938 113.423 159.111 112.558 158.068 112.055C157.106 111.733 156.074 111.684 155.085 111.91C154.097 112.137 153.189 112.631 152.462 113.34C151.432 114.877 152.645 118.433 154.681 119.672ZM157.679 112.514C158.477 112.935 159.099 113.63 159.431 114.472C159.762 115.314 159.782 116.247 159.486 117.103C159.316 117.53 159.055 117.916 158.722 118.233C158.389 118.55 157.991 118.791 157.557 118.939C157.122 119.088 156.66 119.14 156.203 119.092C155.746 119.044 155.305 118.898 154.91 118.663C154.114 118.137 153.518 117.357 153.219 116.449C152.92 115.541 152.935 114.559 153.263 113.661C153.797 113.044 154.505 112.604 155.293 112.4C156.082 112.195 156.913 112.235 157.679 112.514Z" fill="#92BF85"/>
<path d="M147.679 126.717C145.391 127.497 142.234 126.602 141.845 125.179C141.456 123.757 143.08 121.783 144.636 120.751C145.559 120.255 146.624 120.092 147.652 120.288C148.681 120.484 149.611 121.028 150.288 121.829C151.5 123.481 149.761 125.845 147.679 126.717ZM147.679 126.9C149.967 125.891 152.256 123.344 150.768 121.577C149.982 120.728 148.936 120.168 147.796 119.985C146.655 119.802 145.487 120.007 144.476 120.567C142.737 121.761 140.883 123.803 141.158 125.317C141.433 126.831 145.231 127.772 147.679 126.9Z" fill="#24573C"/>
<path d="M147.679 126.717C149.761 125.845 151.5 123.481 150.287 121.829C149.611 121.028 148.68 120.484 147.652 120.288C146.623 120.092 145.559 120.255 144.636 120.751C143.08 121.783 141.501 123.711 141.844 125.179C142.188 126.648 145.482 127.497 147.679 126.717ZM144.705 121.233C145.44 120.864 146.28 120.764 147.082 120.948C147.883 121.132 148.596 121.59 149.098 122.242C149.99 123.619 148.892 125.455 147.153 126.12C145.414 126.786 143.011 126.12 142.576 124.835C142.142 123.55 143.355 122.036 144.705 121.233Z" fill="#61AB55"/>
<path d="M104.914 38.6528C105.715 40.9473 104.411 44.435 102.626 44.9627C101.614 45.0497 100.598 44.8586 99.6872 44.4098C98.7761 43.961 98.0042 43.2716 97.4545 42.4158C96.9676 41.3582 96.8754 40.1605 97.1945 39.0404C97.5136 37.9204 98.223 36.9524 99.1936 36.3124C99.711 36.0433 100.28 35.8894 100.863 35.8612C101.445 35.833 102.026 35.9312 102.567 36.1491C103.108 36.3669 103.596 36.6993 103.997 37.1235C104.398 37.5476 104.703 38.0537 104.891 38.6069L104.914 38.6528ZM105.143 38.5381C104.113 36.2435 101.184 34.1096 98.919 35.7616C97.8789 36.5028 97.1384 37.5934 96.8319 38.8355C96.5254 40.0775 96.6733 41.3885 97.2486 42.5305C98.5757 44.2744 100.91 46.0411 102.786 45.6052C104.662 45.1692 106.035 41.0162 105.074 38.5381H105.143Z" fill="#61AB55"/>
<path d="M104.914 38.6529C104.726 38.0996 104.421 37.5936 104.02 37.1694C103.619 36.7453 103.131 36.4129 102.591 36.1951C102.05 35.9772 101.468 35.879 100.886 35.9072C100.304 35.9354 99.7345 36.0893 99.217 36.3583C98.2464 36.9983 97.537 37.9664 97.2179 39.0865C96.8988 40.2065 96.9911 41.4042 97.478 42.4618C98.0276 43.3176 98.7995 44.007 99.7107 44.4558C100.622 44.9045 101.638 45.0957 102.649 45.0087C104.434 44.5268 105.738 40.8786 104.914 38.6529ZM98.05 42.2323C97.6754 41.3929 97.6223 40.4445 97.9009 39.5684C98.1795 38.6922 98.7702 37.9497 99.5602 37.4826C99.9631 37.2467 100.413 37.1031 100.878 37.0624C101.343 37.0217 101.811 37.0849 102.248 37.2472C102.686 37.4096 103.082 37.6671 103.409 38.0014C103.735 38.3357 103.984 38.7385 104.136 39.1806C104.432 40.0918 104.409 41.0765 104.072 41.973C103.735 42.8694 103.104 43.6244 102.283 44.1139C101.47 44.2855 100.623 44.1962 99.8636 43.8585C99.1039 43.5208 98.4693 42.9518 98.05 42.2323Z" fill="#92BF85"/>
<path d="M106.972 153.241C106.628 154.74 105.828 156.095 104.684 157.119C104.181 157.647 103.792 158.588 103.998 158.702L110.565 162.901C110.565 162.901 114.157 158.542 113.516 158.129C113.699 158.312 108.116 150.373 106.972 153.241Z" fill="#417A34"/>
<path d="M122.212 133.508C123.127 134.977 122.372 136.583 121.388 138.097C120.976 138.717 121.068 139.795 121.525 139.91L136.146 143.742C136.375 143.742 138.641 138.533 137.268 138.166C137.817 138.281 121.8 130.227 122.212 133.508Z" fill="#719C3A"/>
<path d="M131.479 134.541C132.142 133.072 133.996 132.866 135.872 132.912C136.65 132.912 137.519 132.338 137.314 131.902L131.341 118.135C131.341 117.906 125.324 118.709 125.896 120.017C125.667 119.558 128.985 136.514 131.479 134.541Z" fill="#B0AE29"/>
<path d="M134.66 114.579C135.941 111.825 138.779 111.045 139.785 111.986C140.765 113.185 141.349 114.661 141.456 116.208C141.57 117.493 140.22 118.732 137.795 119.214C137.218 119.317 136.624 119.251 136.084 119.024C135.544 118.797 135.081 118.418 134.75 117.934C134.419 117.449 134.235 116.879 134.219 116.292C134.203 115.705 134.356 115.126 134.66 114.625V114.579ZM134.454 114.579C132.944 117.86 135.255 120.43 137.863 119.741C140.472 119.053 141.845 117.722 141.662 116.3C141.557 114.659 141.02 113.075 140.106 111.71C139.168 110.655 135.987 111.412 134.454 114.625V114.579Z" fill="#24573C"/>
<path d="M134.659 114.579C134.355 115.08 134.202 115.66 134.218 116.247C134.234 116.834 134.418 117.403 134.749 117.888C135.08 118.372 135.544 118.751 136.084 118.978C136.624 119.205 137.217 119.271 137.794 119.168C140.219 118.686 141.569 117.447 141.455 116.162C141.348 114.615 140.764 113.14 139.785 111.94C138.869 111.068 136.032 111.825 134.659 114.579ZM140.997 115.955C140.997 117.057 139.785 118.02 137.886 118.25C137.447 118.282 137.009 118.195 136.616 117.997C136.224 117.798 135.893 117.497 135.658 117.125C135.423 116.753 135.293 116.324 135.282 115.883C135.272 115.443 135.381 115.008 135.597 114.624C136.513 112.605 138.618 111.917 139.602 112.651C140.06 113.072 140.429 113.582 140.684 114.15C140.94 114.718 141.078 115.332 141.089 115.955H140.997Z" fill="#61AB55"/>
<path d="M117.91 118.892C119.786 117.447 123.539 117.584 124.591 119.099C124.998 120.032 125.138 121.06 124.997 122.069C124.855 123.078 124.438 124.027 123.791 124.812C122.942 125.604 121.838 126.065 120.68 126.111C119.521 126.158 118.384 125.786 117.475 125.065C117.06 124.651 116.738 124.152 116.532 123.602C116.326 123.052 116.241 122.464 116.282 121.878C116.323 121.293 116.49 120.723 116.771 120.207C117.052 119.692 117.441 119.243 117.91 118.892ZM117.727 118.709C115.805 120.453 114.775 123.871 117.041 125.592C118.058 126.34 119.308 126.699 120.565 126.607C121.823 126.514 123.007 125.976 123.905 125.087C125.141 123.275 126.193 120.498 125.118 118.846C124.042 117.194 119.786 117.171 117.658 118.846L117.727 118.709Z" fill="#61AB55"/>
<path d="M117.911 118.892C117.442 119.243 117.053 119.692 116.773 120.207C116.492 120.723 116.325 121.293 116.284 121.879C116.242 122.464 116.328 123.052 116.533 123.602C116.739 124.152 117.061 124.651 117.477 125.065C118.386 125.786 119.522 126.158 120.681 126.111C121.839 126.065 122.943 125.604 123.792 124.812C124.439 124.027 124.857 123.078 124.998 122.069C125.14 121.06 124.999 120.032 124.593 119.099C123.54 117.584 119.788 117.447 117.911 118.892ZM123.494 124.261C122.813 124.877 121.929 125.218 121.012 125.218C120.095 125.218 119.21 124.877 118.529 124.261C118.185 123.951 117.912 123.568 117.732 123.141C117.551 122.713 117.466 122.25 117.484 121.786C117.501 121.322 117.62 120.867 117.833 120.454C118.045 120.042 118.345 119.681 118.712 119.397C119.486 118.833 120.428 118.549 121.384 118.591C122.339 118.633 123.253 118.998 123.975 119.627C124.386 120.353 124.56 121.19 124.474 122.021C124.388 122.852 124.045 123.635 123.494 124.261Z" fill="#92BF85"/>
<path d="M135.826 85.8282C135.826 82.7536 138.549 79.1283 140.517 79.3348C142.484 79.5413 144.109 82.4553 144.658 84.9104C144.803 86.2908 144.482 87.6799 143.748 88.8567C143.014 90.0334 141.909 90.9301 140.608 91.4039C138 92.1382 135.895 88.857 135.826 85.8282ZM135.574 85.8282C135.689 89.2012 137.862 93.1019 140.677 92.184C142.103 91.6137 143.297 90.5805 144.068 89.2494C144.84 87.9184 145.144 86.3665 144.933 84.8416C144.269 82.1111 142.645 78.83 140.631 78.4628C138.617 78.0957 135.666 82.3635 135.574 85.8282Z" fill="#24573C"/>
<path d="M135.826 85.8282C135.826 88.8569 138 92.1381 140.608 91.4039C141.909 90.93 143.015 90.0334 143.749 88.8566C144.483 87.6799 144.803 86.2907 144.658 84.9104C144.109 82.4552 142.37 79.5871 140.517 79.3347C138.663 79.0823 135.918 82.7994 135.826 85.8282ZM143.995 84.7497C144.128 85.8406 143.866 86.943 143.257 87.8568C142.649 88.7705 141.733 89.4348 140.677 89.7289C138.572 90.1878 136.81 87.9391 136.81 85.461C136.81 82.983 138.846 80.3443 140.563 80.4131C142.279 80.482 143.652 82.7305 143.995 84.7956V84.7497Z" fill="#61AB55"/>
<path d="M145.779 130.709C143.788 131.489 142.782 130.021 142.05 128.3C141.979 128.135 141.869 127.989 141.729 127.877C141.589 127.764 141.424 127.688 141.248 127.654C141.072 127.62 140.89 127.629 140.719 127.682C140.548 127.735 140.392 127.829 140.265 127.956L126.925 145.876C126.719 146.174 130.151 150.671 131.501 148.951C130.906 149.662 149.143 131.122 145.779 130.709Z" fill="#417A34"/>
<path d="M112.258 141.149C110.656 140.438 110.748 138.625 111.137 136.812C111.32 136.055 110.748 135.183 110.199 135.367L92.9689 140.621C92.6943 140.621 92.6028 146.495 94.2502 145.991C93.4723 146.197 114.065 143.65 112.258 141.149Z" fill="#AECA36"/>
<path d="M106.309 150.648C104.639 150.648 103.792 148.996 103.198 147.321C102.946 146.61 102.031 146.059 101.687 146.381L90.2467 156.591C90.0636 156.752 92.9238 161.731 93.9993 160.744C93.6103 161.157 109.124 152.163 106.309 150.648Z" fill="#417A34"/>
<path d="M78.6004 51.4104C78.3945 53.0624 76.7241 54.0261 74.9623 54.7603C74.2301 55.0816 73.6123 55.9994 73.8868 56.3436L83.3826 66.7378C83.5199 66.8984 88.8055 63.6631 87.9589 62.6535C88.2792 62.883 80.3851 48.3586 78.6004 51.4104Z" fill="#A8C631"/>
<path d="M111.367 144.453C109.811 146.495 106.264 147.643 105.051 146.541C103.839 145.44 104.159 142.664 105.051 140.736C105.643 139.752 106.543 138.992 107.612 138.577C108.68 138.162 109.856 138.114 110.955 138.442C113.06 139.245 112.877 142.48 111.435 144.545L111.367 144.453ZM111.573 144.568C113.128 142.274 113.586 138.579 111.229 137.684C109.989 137.37 108.679 137.482 107.509 138.002C106.34 138.522 105.378 139.42 104.777 140.553C103.884 142.709 103.381 145.715 104.571 146.954C105.761 148.193 109.811 146.771 111.573 144.476V144.568Z" fill="#24573C"/>
<path d="M111.366 144.453C112.807 142.388 112.99 139.153 110.885 138.35C109.787 138.022 108.611 138.07 107.542 138.485C106.474 138.901 105.573 139.66 104.982 140.644C104.158 142.572 103.86 145.233 104.982 146.45C106.103 147.666 109.81 146.495 111.366 144.453ZM105.325 141.172C105.784 140.382 106.504 139.778 107.361 139.463C108.217 139.149 109.156 139.145 110.016 139.451C111.663 140.163 111.755 142.549 110.519 144.224C109.283 145.899 106.652 146.656 105.554 145.784C105.062 145.126 104.777 144.335 104.736 143.513C104.696 142.691 104.901 141.876 105.325 141.172Z" fill="#61AB55"/>
<path d="M98.7134 155.398C99.4227 153.104 102.557 151.062 104.296 151.681C105.158 152.219 105.858 152.981 106.321 153.886C106.784 154.791 106.994 155.805 106.928 156.821C106.689 157.962 106.049 158.978 105.125 159.686C104.201 160.393 103.054 160.745 101.894 160.676C101.318 160.579 100.769 160.359 100.286 160.03C99.8025 159.701 99.3958 159.271 99.0936 158.77C98.7915 158.269 98.6011 157.708 98.5355 157.126C98.4699 156.544 98.5306 155.954 98.7134 155.398ZM98.4617 155.398C97.8668 157.945 99.0109 161.341 101.802 161.364C103.078 161.396 104.324 160.969 105.314 160.161C106.304 159.354 106.974 158.218 107.202 156.958C107.202 154.779 106.356 151.956 104.594 151.176C102.832 150.396 99.2854 152.874 98.4846 155.421L98.4617 155.398Z" fill="#61AB55"/>
<path d="M98.7133 155.398C98.5305 155.955 98.4698 156.544 98.5354 157.126C98.6011 157.708 98.7914 158.269 99.0936 158.77C99.3957 159.271 99.8024 159.701 100.286 160.03C100.769 160.359 101.318 160.579 101.894 160.676C103.054 160.745 104.201 160.393 105.125 159.686C106.049 158.978 106.688 157.962 106.928 156.821C106.994 155.805 106.784 154.791 106.321 153.886C105.857 152.981 105.158 152.219 104.296 151.681C102.626 151.062 99.3998 153.127 98.7133 155.398ZM106.356 156.545C106.158 157.445 105.634 158.239 104.886 158.773C104.137 159.307 103.218 159.543 102.306 159.437C101.847 159.38 101.405 159.223 101.013 158.977C100.621 158.731 100.288 158.401 100.037 158.012C99.786 157.622 99.6234 157.182 99.5607 156.723C99.498 156.263 99.5368 155.795 99.6743 155.352C99.9882 154.447 100.597 153.674 101.402 153.158C102.207 152.642 103.162 152.413 104.113 152.507C104.859 152.864 105.475 153.444 105.877 154.168C106.278 154.891 106.446 155.722 106.356 156.545Z" fill="#92BF85"/>
</g>
<defs>
<radialGradient id="paint0_radial_246_1700" cx="0" cy="0" r="1" gradientUnits="userSpaceOnUse" gradientTransform="translate(104.89 103.198) scale(35.0542 35.1521)">
<stop offset="0.33"/>
<stop offset="1" stop-color="white"/>
</radialGradient>
<clipPath id="clip0_246_1700">
<rect width="189" height="189" fill="white" transform="translate(13 13)"/>
</clipPath>
</defs>
</svg>
