<svg width="215" height="215" viewBox="0 0 215 215" fill="none" xmlns="http://www.w3.org/2000/svg">
<g clip-path="url(#clip0_76_15169)">
<path fill-rule="evenodd" clip-rule="evenodd" d="M108.54 15.0117C159.616 15.5873 200.564 57.6881 200 108.987C199.436 160.285 157.548 201.505 106.46 200.929C55.3721 200.354 14.4359 158.265 14.9999 106.955C15.5639 55.6442 57.4518 14.4361 108.54 15.0117Z" fill="#D23508"/>
<path fill-rule="evenodd" clip-rule="evenodd" d="M21.0633 102.526C21.0633 102.526 16.9744 107.33 23.5308 118.784C30.0871 130.237 41.9191 136.533 46.431 151.24C50.9429 165.947 50.4142 170.529 61.4355 181.03C72.4568 191.532 83.6543 190.005 83.6543 190.005C83.6543 190.005 62.9747 123.905 21.0633 102.526Z" fill="#BA2D06"/>
<path fill-rule="evenodd" clip-rule="evenodd" d="M188.415 153.108C180.364 167.754 168.489 179.942 154.057 188.374C139.625 196.805 123.175 201.165 106.46 200.988C104.204 200.988 101.972 200.859 99.7508 200.671L99.8918 200.448C100.288 199.461 100.388 198.379 100.179 197.336C99.9705 196.293 99.4623 195.333 98.7168 194.574C97.0484 193.106 96.9426 193.881 94.9922 192.096C93.0417 190.31 96.7664 189.1 97.0954 187.186C97.4244 185.271 95.2272 186.246 93.7702 182.804C92.3132 179.362 109.339 174.581 122.075 170.129C134.812 165.677 135.082 164.984 142.579 159.322C150.075 153.66 170.155 141.854 179.003 142.066C182.892 142.16 185.959 147.199 188.403 153.049L188.415 153.108Z" fill="#B52E1A"/>
<path fill-rule="evenodd" clip-rule="evenodd" d="M186.335 156.738C181.804 164.124 176.268 170.845 169.885 176.707C170.355 176.05 170.802 175.333 171.331 174.534C173.575 171.116 166.513 173.982 159.428 177.353C152.343 180.725 144.153 184.402 140.053 183.685C135.952 182.969 152.684 177.882 157.795 175.533C162.906 173.183 165.338 171.327 166.795 168.614C168.252 165.9 166.102 166.194 163.987 167.721C161.872 169.248 154.399 172.972 140.37 177.612C126.341 182.252 134.342 177.917 136.716 177.307C143.008 175.26 149.01 172.414 154.576 168.837C161.79 164.138 162.401 162.964 162.518 162.318C162.636 161.671 160.497 161.742 154.693 165.912C148.889 170.082 138.067 173.019 137.174 172.96C136.281 172.901 142.25 170.611 148.313 166.065C154.376 161.519 164.763 155.833 163.341 155.493C161.919 155.152 156.42 158.617 146.257 164.573C136.093 170.529 127.727 172.373 125.636 172.267C123.544 172.161 133.637 168.438 138.561 165.454C143.484 162.47 148.289 159.839 152.79 156.89C157.29 153.942 166.137 148.503 171.754 146.401C177.37 144.298 178.052 144.873 181.036 147.693C182.328 148.867 184.361 152.556 186.323 156.726L186.335 156.738ZM164.915 180.972C163.075 182.444 161.171 183.846 159.205 185.177C155.257 186.786 151.415 188.313 149.535 188.419C145.892 188.63 155.292 185.153 161.743 182.452C162.824 182.012 163.883 181.518 164.915 180.972Z" fill="#E69B4C"/>
<path fill-rule="evenodd" clip-rule="evenodd" d="M99.2694 181.03C101.925 180.232 116.624 174.417 121.124 173.313C125.624 172.208 112.558 180.361 99.2694 181.03ZM137.092 196.137C134.953 196.865 132.78 197.523 130.571 198.087C136.175 195.35 141.522 193.271 142.708 192.014C140.927 193.507 139.051 194.884 137.092 196.137ZM119.115 200.272C117.54 200.471 115.954 200.624 114.415 200.742C115.012 200.547 115.593 200.307 116.154 200.025C120.102 197.993 138.643 191.99 138.643 191.99C138.643 191.99 131.957 194.751 122.311 198.862C121.218 199.32 120.172 199.802 119.173 200.272H119.115ZM102.665 198.521C111.207 196.748 117.752 195.632 126.259 192.108C134.765 188.584 138.69 187.656 138.232 187.268C137.773 186.88 126.082 191.003 121.183 192.061C116.283 193.118 102.959 195.667 102.665 198.521ZM100.033 193.494C101.396 193.412 118.163 191.144 125.283 188.337C132.404 185.529 134.566 181.218 134.237 181.806C133.908 182.393 125.119 187.961 119.162 188.595C113.205 189.23 102.642 191.238 100.057 191.344C97.4717 191.45 100.057 193.494 100.057 193.494H100.033ZM98.6114 188.219C99.5279 187.961 121.97 183.45 126.435 180.384C130.9 177.318 129.032 177.612 123.885 179.08C118.739 180.549 102.736 184.308 98.2824 183.579C93.8293 182.851 100.35 185.318 99.7746 186.011C99.2955 186.697 98.901 187.439 98.5997 188.219H98.6114Z" fill="#D23508"/>
<path fill-rule="evenodd" clip-rule="evenodd" d="M174.174 43.5449C177.61 47.1377 180.753 50.999 183.574 55.092C187.169 72.912 186.993 75.0618 193.244 86.6559C194.417 89.0345 196.319 90.9767 198.672 92.2004C199.441 96.7359 199.877 101.322 199.977 105.921C199.048 109.292 197.721 113.591 195.911 119.124C192.694 128.81 190.871 138.904 190.494 149.102C186.813 156.608 182.133 163.583 176.583 169.836C154.881 176.014 141.204 157.689 117.282 174.875C93.3592 192.061 94.4872 202.75 77.779 188.619C61.0709 174.487 81.5742 179.08 57.2639 163.034C32.9537 146.988 25.7393 153.919 20.1347 134.724C14.5301 115.53 21.6504 120.123 21.3684 107.236C21.0864 94.3501 14.5301 75.3436 29.5933 63.6085C44.6564 51.8734 41.5545 53.8704 50.1083 41.7358C58.6622 29.6013 70.6117 39.5392 89.893 28.9905C89.893 28.9905 101.643 9.13832 138.89 29.7541C157.83 40.244 168.123 42.0061 174.139 43.5449H174.174Z" fill="#EB7538"/>
<path fill-rule="evenodd" clip-rule="evenodd" d="M79.3301 189.911C78.8249 189.5 78.3079 189.077 77.7791 188.619C61.0592 174.523 81.5743 179.08 57.264 163.034C53.9859 160.873 51.0132 159.122 48.3107 157.678C47.7702 155.751 47.1357 153.625 46.4308 151.24C41.8718 136.533 30.0986 130.237 23.5305 118.784C22.4578 116.943 21.5646 115.004 20.8633 112.992C21.2759 111.103 21.4457 109.169 21.3685 107.236C21.3685 105.745 21.2158 104.159 21.063 102.538C62.9744 123.917 83.654 190.017 83.654 190.017C82.2138 190.15 80.7631 190.119 79.3301 189.923V189.911Z" fill="#DB662C"/>
<path fill-rule="evenodd" clip-rule="evenodd" d="M103.018 164.784C106.437 166.311 120.113 188.842 128.468 185.788C136.822 182.734 151.262 164.408 156.197 156.421C161.132 148.433 161.144 147.634 171.389 138.8C181.635 129.967 195.77 119.336 193.174 116.657C190.577 113.979 188.873 115.706 188.474 113.791C188.074 111.876 191.129 109.398 188.662 108.446C186.194 107.495 186.382 108.258 184.302 107.495C183.341 107.068 182.524 106.371 181.95 105.489C181.377 104.607 181.072 103.578 181.071 102.526C181.259 100.999 183.163 98.3206 180.308 99.8477C177.452 101.375 173.657 101.95 174.797 99.6597C175.937 97.369 177.276 92.7878 174.233 93.939C171.19 95.0901 167.583 96.6055 168.358 94.1269C169.133 91.6484 170.825 89.9216 169.533 88.2535C168.241 86.5855 167.254 84.8117 165.35 87.302C163.447 89.7924 163.458 87.302 161.367 87.302C159.275 87.302 158.136 92.8348 153.765 98.7552C149.394 104.676 146.433 111.818 139.089 122.19C131.746 132.563 125.084 139.811 116.166 144.768C107.248 149.725 100.339 158.488 103.018 164.784Z" fill="#DB5128"/>
<path fill-rule="evenodd" clip-rule="evenodd" d="M107.553 155.998C106.895 156.103 103.664 158.77 106.037 163.163C108.411 167.557 120.76 179.867 124.555 181.406C128.35 182.945 129.255 183.227 133.673 179.21C138.09 175.192 144.4 166.899 147.537 162.506C150.674 158.112 154.188 153.919 157.701 149.326C161.214 144.733 169.286 137.579 167.289 138.26C165.291 138.941 158.171 143.699 150.839 152.955C143.507 162.212 139.724 167.474 138.208 167.662C136.692 167.85 144.377 158.782 148.372 152.286C152.366 145.79 157.102 141.502 156.244 141.784C155.386 142.066 146.374 148.762 142.473 154.776C138.572 160.791 136.598 161.625 136.493 160.978C136.387 160.332 136.493 158.97 141.533 152.004C145.432 146.647 149.992 141.805 155.104 137.59C157.102 136.157 162.988 129.191 151.579 138.636C140.17 148.08 134.589 154.294 133.156 156.491C131.722 158.688 129.842 159.733 130.218 156.679C130.594 153.625 132.216 151.052 136.093 146.941C139.97 142.829 153.718 132.046 149.676 132.915C145.634 133.784 139.289 140.163 133.908 145.837C128.526 151.51 122.992 156.82 123.838 152.803C124.684 148.785 124.884 146.788 129.924 141.925C134.965 137.062 142.45 130.366 139.136 131.893C135.823 133.42 127.527 142.653 123.368 145.543C119.209 148.433 120.231 146.318 121.465 145.073C122.698 143.828 122.134 143.158 115.766 147.646C109.398 152.133 107.541 155.951 107.541 155.951L107.553 155.998Z" fill="#F7B268"/>
<path fill-rule="evenodd" clip-rule="evenodd" d="M188.65 120.393C186.465 122.108 174.879 132.903 171.084 135.57C167.289 138.236 176.501 125.832 188.65 120.393ZM159.593 92.7056C159.593 92.7056 153.33 106.074 148.395 112.276C143.461 118.478 140.981 123.06 141.933 122.108C142.885 121.157 158.935 103.689 159.558 92.7408L159.593 92.7056ZM164.528 93.2812C164.528 93.2812 164.528 99.6715 154.376 111.9C144.224 124.128 143.249 128.522 144.26 125.996C145.27 123.471 154.94 115.424 159.781 107.847C162.626 103.488 164.249 98.4458 164.481 93.2459L164.528 93.2812ZM172.753 98.2384C171.895 98.4381 168.288 104.828 160.78 112.182C153.272 119.535 148.066 124.551 148.066 124.551C148.066 124.551 163.153 112.182 166.102 108.834C169.052 105.486 174.327 103.877 174.738 103.301C175.15 102.726 170.661 104.253 172.753 98.2384ZM179.203 105.286C171.895 110.056 166.196 113.509 159.546 119.888C152.896 126.266 149.582 128.581 150.146 128.768C150.71 128.956 160.122 120.851 164.246 118.079C168.37 115.307 179.92 108.047 179.156 105.286H179.203ZM183.48 109.01C182.247 109.574 167.43 117.785 161.825 123.036C156.221 128.287 155.751 133.068 155.845 132.434C155.939 131.799 162.107 123.365 167.43 120.593C172.753 117.82 181.859 112.1 184.232 111.042C186.606 109.985 183.48 109.046 183.48 109.046V109.01ZM186.711 113.404C185.948 113.967 166.666 126.325 163.635 130.871C160.603 135.417 162.201 134.395 166.478 131.153C170.755 127.911 184.338 118.572 188.791 117.621C193.244 116.669 186.23 116.763 186.512 115.906C186.711 115.095 186.81 114.262 186.805 113.427L186.711 113.404Z" fill="#CC3D26"/>
<path fill-rule="evenodd" clip-rule="evenodd" d="M74.4071 181.829C76.7571 178.963 102.16 172.056 101.573 163.128C100.985 154.2 87.4729 135.159 81.2338 128.146C74.9946 121.133 74.1839 120.933 68.6968 108.576C63.2096 96.2179 56.947 79.5961 53.6336 81.3582C50.3201 83.1202 51.5186 85.2581 49.5799 85.0819C47.6412 84.9057 46.1372 81.2877 44.5275 83.4139C42.9178 85.54 43.7168 85.5518 42.4008 87.3608C41.73 88.1651 40.8394 88.7567 39.8379 89.0633C38.8363 89.37 37.7672 89.3784 36.7609 89.0875C35.3509 88.4767 33.33 85.9041 33.988 89.0875C34.6459 92.271 34.1407 96.1357 32.2725 94.3502C30.4043 92.5647 26.3976 90.0508 26.6444 93.3047C26.8911 96.5586 27.3376 100.47 25.1756 99.0372C23.0137 97.6041 21.8505 95.5131 19.8412 96.2884C17.832 97.0637 15.9286 97.5218 17.7615 100.047C19.5945 102.573 17.2328 101.892 16.5866 103.9C15.9403 105.909 20.981 108.599 25.4106 114.473C29.8403 120.346 35.8444 125.197 43.6933 135.194C51.5421 145.191 56.618 153.625 58.8505 163.633C61.0829 173.642 67.5805 182.687 74.3484 181.876L74.4071 181.829Z" fill="#DB5128"/>
<path fill-rule="evenodd" clip-rule="evenodd" d="M67.2868 174.981C67.1928 175.65 68.8378 179.515 73.7022 178.505C78.5666 177.495 93.7708 168.966 96.2853 165.724C98.7997 162.482 99.3167 161.742 96.7317 156.327C94.1468 150.911 87.9664 142.536 84.653 138.283C81.3395 134.031 78.3081 129.462 74.9124 124.786C71.5168 120.111 66.9343 110.326 67.0166 112.44C67.0988 114.555 69.6603 122.766 76.4164 132.41C83.1725 142.054 87.1674 147.188 86.9324 148.703C86.6974 150.218 80.1763 140.269 75.0887 134.607C70.001 128.945 67.2281 123.153 67.2633 124.034C67.2986 124.915 71.1525 135.523 75.8172 140.95C80.4818 146.377 80.7286 148.515 80.0706 148.468C79.4126 148.421 78.1554 147.904 72.9032 141.103C68.8694 135.833 65.5177 130.074 62.9277 123.964C62.1169 121.615 57.0528 114.003 62.9277 127.653C68.8026 141.302 73.1382 148.433 74.8302 150.418C76.5221 152.403 77.0039 154.541 74.1957 153.319C71.3875 152.098 69.3665 149.795 66.5348 144.909C63.7032 140.022 57.2525 123.764 56.9235 127.887C56.5946 132.011 60.9537 139.94 64.9251 146.682C68.8966 153.425 72.3627 160.285 68.7673 158.347C65.1719 156.409 63.3154 155.657 60.0725 149.431C56.8295 143.205 52.5409 134.16 53.0226 137.743C53.5044 141.326 60.0725 151.957 61.6587 156.773C63.2449 161.589 61.5177 160.015 60.6717 158.476C59.8257 156.937 59.0385 157.302 61.5412 164.69C64.0439 172.079 67.1693 174.992 67.1693 174.992L67.2868 174.981Z" fill="#F7B268"/>
<path fill-rule="evenodd" clip-rule="evenodd" d="M55.9242 86.7499C56.9582 89.3342 64.0315 103.536 65.5238 107.894C67.016 112.252 57.7337 99.9534 55.9242 86.7499ZM21.3682 107.06C21.3682 107.06 32.3777 116.845 36.9366 123.341C41.4955 129.837 45.1614 133.514 44.5152 132.328C43.869 131.141 31.6727 110.772 21.3682 107.06ZM23.2951 102.455C23.2951 102.455 29.405 104.241 38.2408 117.468C47.0766 130.695 51.0128 132.845 48.9096 131.177C46.8064 129.508 41.8597 117.926 35.9144 111.125C32.5647 107.152 28.2051 104.157 23.2951 102.455ZM30.345 95.8655C30.2862 96.7465 35.3856 102.021 40.3088 111.313C45.2319 120.604 48.5336 127.042 48.5336 127.042C48.5336 127.042 40.9433 109.022 38.5698 105.239C36.1964 101.457 36.1376 95.842 35.7029 95.3603C35.2681 94.8787 35.4679 99.5657 30.3097 95.8655H30.345ZM38.8988 91.6013C41.4133 100 43.1052 106.461 47.3586 114.66C51.612 122.86 52.8693 126.713 53.2335 126.219C53.5978 125.726 48.4514 114.379 46.9709 109.574C45.4904 104.77 41.7775 91.6483 38.9223 91.6013H38.8988ZM43.5987 88.5237C43.7985 89.8745 47.4996 106.473 50.9541 113.345C54.4085 120.217 58.8264 122.014 58.2154 121.732C57.6044 121.45 51.3183 113.145 50.1433 107.236C48.9684 101.328 46.0662 90.9318 45.7254 88.3475C45.3847 85.7632 43.5987 88.5237 43.5987 88.5237ZM48.6981 86.6324C49.0271 87.5252 55.5012 109.598 58.9322 113.791C62.3631 117.985 61.9048 116.141 60.0014 111.113C58.0979 106.085 52.9515 90.4032 53.2688 85.8806C53.586 81.3581 51.7295 88.1125 50.9893 87.5957C50.2495 87.1773 49.46 86.8537 48.6394 86.6324H48.6981Z" fill="#CC3D26"/>
<path fill-rule="evenodd" clip-rule="evenodd" d="M184.549 118.067C184.549 114.296 199.048 92.3414 192.774 86.0099C186.499 79.6783 163.881 74.263 154.563 73.0883C145.246 71.9136 144.564 72.2778 132.321 66.6275C120.078 60.9773 104.486 52.6017 103.17 56.0553C101.854 59.5089 104.122 60.3782 102.559 61.5294C100.996 62.6806 97.4712 60.9655 97.6592 63.6086C97.8472 66.2516 98.4464 65.77 98.6344 68.002C98.6562 69.0525 98.3725 70.0868 97.8177 70.9792C97.2629 71.8717 96.4609 72.584 95.509 73.0296C94.052 73.4994 90.8091 72.9003 93.4175 74.8503C96.026 76.8003 98.1174 80.0307 95.5677 79.9603C93.018 79.8898 88.3299 80.5946 90.6446 82.8852C92.9593 85.1759 95.8497 87.8189 93.3 88.1713C90.7503 88.5237 88.4591 87.6897 87.4251 89.6279C86.3912 91.5661 85.2867 93.152 88.3299 93.8451C91.3731 94.5381 89.1288 95.5718 90.0101 97.4748C90.8913 99.3778 96.355 98.0857 103.546 99.5776C110.737 101.069 118.421 100.752 130.864 103.102C143.307 105.451 152.66 108.435 160.896 114.484C169.133 120.534 179.931 123.071 184.502 118.008L184.549 118.067Z" fill="#DB5128"/>
<path fill-rule="evenodd" clip-rule="evenodd" d="M174.691 117.609C175.055 118.173 178.827 119.958 181.741 115.976C184.655 111.994 190.612 95.5132 190.389 91.4135C190.165 87.3138 190.071 86.4093 184.572 84.0247C179.074 81.6401 168.945 79.42 163.658 78.4215C158.37 77.423 153.083 75.9781 147.502 74.6977C141.921 73.4172 132.027 69.0827 133.461 70.6215C134.894 72.1604 142.215 76.6359 153.647 79.4082C165.08 82.1804 171.424 83.4256 172.235 84.7295C173.046 86.0334 161.66 82.8383 154.082 81.9455C146.503 81.0528 140.675 78.5154 141.298 79.1732C141.921 79.831 151.744 85.2463 158.805 86.2213C165.867 87.1963 167.453 88.6647 166.924 89.0641C166.396 89.4635 165.115 89.8982 156.702 88.2536C150.219 86.9534 143.929 84.8295 137.985 81.9338C135.846 80.7591 127.081 78.2922 140.405 84.706C153.729 91.1198 161.696 93.6102 164.281 93.9743C166.866 94.3385 168.604 95.6423 165.691 96.5821C162.777 97.5218 159.816 97.1342 154.423 95.3135C149.029 93.4927 133.543 85.4813 136.046 88.8409C138.549 92.2005 146.961 95.2548 154.399 97.7451C161.837 100.235 168.898 103.078 164.974 103.994C161.049 104.911 159.099 105.569 152.59 103.031C146.08 100.494 136.892 96.4764 139.665 98.861C142.438 101.246 154.258 104.911 158.629 107.483C163 110.056 160.638 110.021 158.993 109.41C157.348 108.799 156.996 109.609 163.693 113.521C170.39 117.433 174.667 117.562 174.667 117.562L174.691 117.609Z" fill="#F7B268"/>
<path fill-rule="evenodd" clip-rule="evenodd" d="M108.423 58.6631C110.89 59.9317 125.507 65.9462 129.572 68.2838C133.638 70.6214 118.504 67.4497 108.423 58.6631ZM95.6858 96.8287C95.6858 96.8287 110.385 96.9109 118.01 98.8021C125.636 100.693 130.865 101.011 129.607 100.552C128.35 100.094 105.826 92.8112 95.6388 96.8287H95.6858ZM94.123 92.1299C94.123 92.1299 99.8922 89.4399 115.19 93.5513C130.489 97.6627 134.871 96.6877 132.204 96.8287C129.537 96.9696 118.222 91.5073 109.292 90.3092C104.164 89.5391 98.923 90.1682 94.123 92.1299ZM95.1218 82.5092C95.6505 83.2023 102.947 83.8014 112.746 87.5486C122.546 91.2959 129.196 93.9389 129.196 93.9389C129.196 93.9389 111.689 85.3872 107.436 84.1068C103.182 82.8264 99.4692 78.668 98.7995 78.5623C98.1297 78.4566 101.373 81.8749 95.0748 82.5092H95.1218ZM98.776 73.6404C106.155 78.3391 111.701 82.0511 120.231 85.3872C128.761 88.7233 132.263 90.826 132.204 90.2269C132.145 89.6278 120.854 84.4709 116.589 81.8279C112.323 79.1848 100.95 71.7608 98.776 73.6051V73.6404ZM100.327 68.178C101.373 69.059 115.014 79.1144 122.111 82.0041C129.208 84.8938 133.72 83.3315 133.074 83.5194C132.427 83.7074 122.252 81.6282 117.517 77.9514C112.782 74.2747 103.77 68.366 101.819 66.6392C99.8687 64.9124 100.327 68.178 100.327 68.178ZM102.935 63.3854C103.77 63.8317 123.086 76.1894 128.409 77.0704C133.732 77.9514 132.204 76.8825 127.469 74.3451C122.734 71.8078 108.599 63.4088 105.885 59.7907C103.17 56.1727 106.19 62.4925 105.297 62.5983C104.485 62.7656 103.696 63.0299 102.947 63.3854H102.935Z" fill="#CC3D26"/>
<path fill-rule="evenodd" clip-rule="evenodd" d="M70.3883 113.122C70.3883 113.122 55.2899 125.209 55.1136 124.868L53.8799 123.435L69.0723 108.928L70.447 113.075L70.3883 113.122Z" fill="#D9B685"/>
<path fill-rule="evenodd" clip-rule="evenodd" d="M33.6939 64.6775C33.6939 64.6775 70.3414 106.872 69.0136 108.975C67.6859 111.078 53.8212 123.482 53.8212 123.482C53.8212 123.482 47.3588 120.428 49.2623 116.998C51.1658 113.568 49.0743 110.69 45.4671 108.399C41.8599 106.109 38.6288 106.05 36.9133 102.526C35.1978 99.0018 32.7421 97.5687 30.4627 93.9389C29.0709 91.5 27.5 89.1677 25.7628 86.9613C24.0533 84.6555 22.5587 82.1979 21.2979 79.6195C21.2979 79.6195 27.819 67.9196 33.6939 64.6775Z" fill="#FFECD1"/>
<path fill-rule="evenodd" clip-rule="evenodd" d="M162.554 65.1121C161.167 61.5881 166.983 35.8859 158.876 32.2209C150.769 28.5559 127.704 31.5749 118.61 33.8655C109.515 36.1561 108.975 36.7082 95.533 35.8154C82.0913 34.9227 64.5489 32.6908 64.5606 36.4263C64.5724 40.1618 66.9928 40.1266 65.9353 41.7711C64.8779 43.4157 60.9887 43.0516 62.0932 45.4714C63.1976 47.8913 63.5971 47.1982 64.5606 49.2069C64.9613 50.1934 65.0636 51.2758 64.8547 52.3199C64.6459 53.3639 64.135 54.3238 63.3856 55.0803C62.2107 56.0436 58.9795 56.6309 62.0814 57.5354C65.1834 58.4399 68.297 60.6836 65.9001 61.5294C63.5031 62.3751 59.3555 64.7245 62.3752 66.0284C65.3949 67.3323 69.002 68.7772 66.7343 70.0223C64.4666 71.2675 62.0344 71.3027 61.8112 73.4642C61.5879 75.6256 61.0592 77.5286 64.1611 77.0822C67.2631 76.6358 65.5123 78.4096 67.0163 79.878C68.5203 81.3463 73.1732 78.1747 80.411 76.9882C87.6489 75.8018 94.7222 72.7594 107.177 70.4805C119.632 68.2016 129.431 67.6612 139.277 70.3513C149.124 73.0413 160.11 71.5259 162.565 65.1591L162.554 65.1121Z" fill="#DB5128"/>
<path fill-rule="evenodd" clip-rule="evenodd" d="M153.201 68.1781C153.741 68.5657 157.901 68.9182 159.252 64.102C160.603 59.2857 160.286 41.7829 158.629 38.0474C156.973 34.3119 156.55 33.4896 150.569 33.2311C144.588 32.9727 134.331 34.5468 129.043 35.4983C123.756 36.4498 118.316 37.0019 112.594 37.8477C106.872 38.6934 96.1441 38.1413 98.0476 39.0223C99.951 39.9034 108.352 41.5127 120.02 39.9974C131.687 38.482 138.044 37.3896 139.266 38.3176C140.488 39.2456 128.691 40.3498 121.324 42.2058C113.957 44.0618 107.577 43.8269 108.399 44.2145C109.222 44.6022 120.313 46.141 127.281 44.5551C134.249 42.9693 136.223 43.7446 135.87 44.2967C135.518 44.8489 134.472 45.7416 126.035 47.21C119.521 48.3211 112.891 48.5935 106.308 48.0205C103.887 47.6563 94.8281 48.5256 109.551 49.7355C124.273 50.9454 132.592 50.4286 135.142 49.853C137.691 49.2774 139.771 49.853 137.386 51.7795C135.001 53.706 132.051 54.4108 126.411 54.634C120.772 54.8572 103.417 52.9306 106.942 55.1743C110.467 57.4179 119.467 57.2653 127.257 56.8894C135.048 56.5135 142.697 56.6779 139.313 58.9451C135.929 61.2122 134.39 62.5279 127.398 62.4691C120.407 62.4104 110.408 61.964 113.851 63.1974C117.294 64.4309 129.631 63.6203 134.613 64.4544C139.595 65.2884 137.398 66.1107 135.647 66.1341C133.896 66.1576 133.849 67.0387 141.522 68.2838C149.194 69.529 153.201 68.1194 153.201 68.1194V68.1781Z" fill="#F7B268"/>
<path fill-rule="evenodd" clip-rule="evenodd" d="M70.365 36.9197C73.1262 37.2251 88.9179 37.6127 93.4885 38.3528C98.0592 39.0928 82.9138 41.5362 70.365 36.9197ZM71.9982 77.141C71.9982 77.141 85.7689 71.9488 93.606 70.9621C101.443 69.9754 106.402 68.4131 105.05 68.4366C103.699 68.4601 80.0938 69.7287 71.9982 77.141ZM68.861 73.2645C68.861 73.2645 73.2907 68.6832 89.0589 67.0387C104.827 65.3941 108.552 62.9155 106.108 63.9962C103.664 65.0769 91.1621 63.9962 82.3967 66.1224C77.3243 67.2422 72.648 69.7097 68.861 73.2645ZM66.3818 63.867C67.1221 64.3369 74.1484 62.2812 84.6175 62.2695C95.0865 62.2577 102.313 62.2695 102.313 62.2695C102.313 62.2695 82.9255 60.5544 78.4958 60.8833C74.0662 61.2122 69.096 58.6514 68.4615 58.8041C67.827 58.9568 71.9865 60.9773 66.3818 63.8201V63.867ZM66.6521 54.2816C75.2059 55.9849 81.6683 57.512 90.8683 57.5825C100.068 57.6529 104.04 58.346 103.793 57.8057C103.546 57.2653 91.1503 56.5017 86.2272 55.562C81.304 54.6222 68.0503 51.7678 66.6756 54.2816H66.6521ZM66.1703 48.6196C67.4511 49.066 83.795 53.565 91.4206 53.7295C99.0462 53.8939 102.724 50.8045 102.195 51.2156C101.666 51.6267 91.4206 53.3183 85.6867 51.5798C79.9528 49.8412 69.4485 47.5506 67.0163 46.6461C64.5841 45.7416 66.1703 48.6196 66.1703 48.6196ZM66.8988 43.2042C67.8388 43.3217 90.2691 47.903 95.5565 46.8458C100.844 45.7886 99.0227 45.3187 93.7118 44.6491C88.4009 43.9796 72.198 41.1956 68.3793 38.7757C64.5606 36.3558 69.6248 41.125 68.8258 41.5949C68.1237 42.0464 67.4769 42.5787 66.8988 43.1808V43.2042Z" fill="#CC3D26"/>
<path fill-rule="evenodd" clip-rule="evenodd" d="M87.9539 96.2767C87.9539 96.2767 75.4757 107.871 74.571 107.636C73.6662 107.401 72.1035 105.287 72.1035 105.287L86.8612 93.5397L87.9539 96.265V96.2767Z" fill="#D9B685"/>
<path fill-rule="evenodd" clip-rule="evenodd" d="M92.4428 93.6924L89.6816 90.9553C93.6171 89.3584 97.3709 87.3462 100.879 84.9527C103.272 83.2178 105.341 81.0744 106.989 78.6211L108.164 82.5328C108.164 82.5328 103.887 90.0391 92.4428 93.6806V93.6924Z" fill="#D9B685"/>
<path fill-rule="evenodd" clip-rule="evenodd" d="M57.9688 40.1853C57.9688 40.1853 75.1822 27.9685 78.1666 27.3929C81.151 26.8173 105.732 74.0984 106.965 77.787C108.199 81.4755 92.607 91.3781 90.0926 91.1197C87.5781 90.8613 95.286 85.2463 89.5521 74.8268C83.8182 64.4073 83.5245 77.1761 80.3873 62.9154C77.2501 48.6547 77.4146 44.05 75.1469 42.793C72.8792 41.5361 72.0097 42.2409 67.5096 43.0045C63.0094 43.768 57.9688 40.1853 57.9688 40.1853Z" fill="#FFECD1"/>
<path fill-rule="evenodd" clip-rule="evenodd" d="M53.7622 43.2278C53.7622 43.2278 62.6332 55.8557 64.2312 58.6279C65.8292 61.4002 65.9232 62.8451 67.5799 63.8788C69.2366 64.9125 68.3554 65.4176 71.3045 69.0827C74.2537 72.7477 74.4065 74.451 77.0502 77.6344C79.6939 80.8178 83.1366 86.1391 84.5465 88.2065C85.5763 89.8819 86.3672 91.6928 86.8965 93.5866C86.8965 93.5866 73.9718 105.334 72.4913 105.334C71.0108 105.334 69.7653 102.69 67.1099 98.2854C64.4544 93.8803 66.7221 93.7159 65.3592 89.0759C63.9962 84.4359 60.342 81.922 58.8733 81.7223C57.4046 81.5226 54.5846 81.1232 53.7857 77.8576C52.9867 74.5919 52.9397 71.1384 51.8469 69.3528C50.7542 67.5673 50.7777 65.4411 48.8978 65.0065C47.2341 64.6619 45.7046 63.8464 44.4916 62.6571C43.3989 61.4824 40.2147 57.6177 40.3087 56.7837C40.4027 55.9496 53.7974 43.1104 53.7974 43.1104L53.7622 43.2278Z" fill="#FFECD1"/>
<path fill-rule="evenodd" clip-rule="evenodd" d="M144.624 85.3286C144.624 85.3286 133.238 96.0183 132.662 98.6848C132.087 101.351 144.823 145.473 146.762 145.672C148.701 145.872 156.832 136.886 157.396 130.014C157.96 123.142 144.671 85.3756 144.671 85.3756L144.624 85.3286Z" fill="#358541"/>
<path fill-rule="evenodd" clip-rule="evenodd" d="M135.917 94.1504C134.19 96.0886 132.851 97.8154 132.663 98.6847C132.475 99.554 134.19 106.908 136.528 115.283C139.03 108.415 138.811 100.851 135.917 94.1387V94.1504Z" fill="#26632F"/>
<path fill-rule="evenodd" clip-rule="evenodd" d="M144.624 85.3286C144.624 85.3286 142.896 86.9496 140.746 89.0993L153.354 139.364C155.375 136.486 157.102 133.044 157.349 129.967C157.924 123.095 144.624 85.3286 144.624 85.3286Z" fill="#26632F"/>
<path fill-rule="evenodd" clip-rule="evenodd" d="M174.151 105.392C180.954 105.392 186.464 110.091 186.464 115.964C186.464 121.838 180.954 126.537 174.151 126.537C167.348 126.537 161.825 121.838 161.825 115.964C161.825 110.091 167.336 105.392 174.151 105.392ZM174.151 108.634C178.851 108.634 182.669 111.888 182.669 115.906C182.669 119.923 178.851 123.177 174.151 123.177C169.451 123.177 165.62 119.923 165.62 115.906C165.62 111.888 169.439 108.634 174.151 108.634Z" fill="#358541"/>
<path fill-rule="evenodd" clip-rule="evenodd" d="M25.8213 128.71C25.8213 128.71 24.1999 130.237 26.0093 137.391C27.8188 144.545 29.3345 146.471 29.8985 151.052C30.4625 155.634 35.6911 157.924 38.4523 161.836C41.2135 165.748 42.3415 165.654 44.809 169.377C47.2764 173.101 50.8953 172.526 47.5701 169.096C44.245 165.665 42.4355 161.836 39.6861 159.263C36.9366 156.691 34.5514 155.822 32.7537 151.816C30.956 147.81 32.5187 146.847 30.1688 142.642C27.8188 138.436 27.5016 139.211 27.2196 134.818C26.9376 130.425 27.5016 126.701 25.7978 128.71H25.8213Z" fill="#FFCCB5"/>
<path fill-rule="evenodd" clip-rule="evenodd" d="M16.7036 111.136C16.7036 111.136 16.8211 113.368 19.5588 116.141C22.2965 118.913 22.2965 118.69 21.9087 120.593C21.521 122.496 20.3813 123.212 21.9087 124.845C23.4362 126.478 20.5105 126.466 19.7703 126.02C19.03 125.573 17.4203 122.919 17.1501 119.629C16.8798 116.34 16.2101 116.329 15.7753 114.567C15.3406 112.804 15.7753 109.703 16.6801 111.125L16.7036 111.136ZM22.6842 84.6472C22.6842 84.6472 27.7601 88.1713 26.9964 90.4149C26.2326 92.6586 25.7157 92.7643 25.8214 95.8185C25.9271 98.8727 21.6502 97.6746 22.4962 94.4324C23.3422 91.1903 26.2091 88.6412 23.3304 87.4548C20.4518 86.2683 21.6502 84.4006 22.696 84.6472H22.6842ZM78.3428 62.4927C78.3428 62.4927 76.5451 65.3119 78.9656 69.6113C81.386 73.9106 81.7503 71.6787 82.3965 74.6271C83.0427 77.5756 81.7738 81.3934 80.1993 77.6696C78.4205 73.6231 76.3755 69.6989 74.0777 65.9227C72.4209 63.2444 68.661 63.3032 69.0253 61.8231C69.3895 60.343 72.9967 63.7495 75.0059 62.8098C77.0151 61.87 78.6366 59.4267 78.3428 62.4809V62.4927Z" fill="#FFCCB5"/>
<path fill-rule="evenodd" clip-rule="evenodd" d="M196.792 95.4308C196.792 96.0064 197.967 96.488 198.026 102.69C198.085 108.893 198.602 109.28 197.556 111.183C196.51 113.086 196.886 114.144 196.228 117.491C195.57 120.839 194.478 121.38 194.501 123.729C194.525 126.078 195.089 125.315 193.326 129.332C191.564 133.35 191.047 135.535 190.201 136.58C189.355 137.626 188.673 137.637 186.876 138.683C185.078 139.728 183.268 138.965 185.83 136.486C187.672 134.879 189.119 132.869 190.06 130.613C191.047 128.416 190.577 128.416 192.187 124.316C193.796 120.217 194.948 117.726 195.136 115.53C195.324 113.333 195.899 109.139 194.466 109.656C193.033 110.173 192.668 115.295 191.529 113.286C190.389 111.277 192.187 109.186 192.856 105.463C193.526 101.739 194.948 102.115 195.136 99.0606C195.324 96.0064 195.512 92.9522 196.839 95.5365L196.792 95.4308ZM131.652 125.456C129.983 126.795 132.122 129.943 122.193 132.328C112.265 134.712 106.531 135.241 108.622 137.391C110.714 139.54 114.168 135.382 121.3 135.863C128.432 136.345 142.45 121.579 131.652 125.456ZM169.075 58.8627C169.545 59.826 174.48 64.2193 176.665 69.0825C178.851 73.9457 173.728 77.3053 172.494 74.0514C171.26 70.7976 170.402 66.416 167.265 68.413C164.128 70.4099 162.718 56.6661 169.075 58.8627ZM134.742 22.0128C133.226 21.9188 134.072 23.07 122.875 20.2038C111.677 17.3376 116.694 17.5255 105.015 18.5827C93.3358 19.64 99.1402 19.2523 91.0563 20.5797C86.4544 21.3089 81.9279 22.4529 77.5323 23.998C74.2071 24.9495 77.5323 26.3474 82.2322 24.9495C86.9321 23.5516 90.5863 22.283 97.7067 21.8954C104.827 21.5077 102.501 19.1348 110.913 20.4152C119.326 21.6957 122.581 23.3285 126.576 23.4224C130.571 23.5164 133.132 23.6103 132.932 24.4796C132.733 25.3489 126.67 25.3371 122.299 26.829C117.928 28.3208 119.162 29.7892 123.721 28.8377C128.28 27.8862 134.46 25.6778 138.925 26.3474C143.39 27.017 146.609 29.3076 148.325 28.0625C150.04 26.8173 141.005 26.3474 139.301 24.2447C138.126 22.9226 136.501 22.0851 134.742 21.8954V22.0128ZM144.518 184.989C140.911 187.949 138.067 188.713 140.629 188.901C143.19 189.089 143.672 186.798 146.797 185.94C149.923 185.083 144.518 184.989 144.518 184.989ZM135.917 183.756C135.247 184.237 133.825 187.103 130.042 187.961C126.259 188.818 122.863 191.309 126.165 192.119C129.466 192.93 127.481 192.824 133.931 191.203C140.382 189.582 140.1 181.653 135.929 183.756H135.917ZM171.53 142.136C171.53 142.136 171.19 142.454 170.59 143.1C166.786 147.286 163.309 151.759 160.192 156.479C153.859 165.877 151.321 168.778 152.731 169.965C154.141 171.151 157.56 165.043 160.321 160.849C163.082 156.655 164.492 154.071 166.584 152.826C168.675 151.581 170.767 147.187 170.955 149.584C171.143 151.98 172.764 156.068 174.092 153.777C175.42 151.487 173.998 147.904 176.935 146.424C179.873 144.944 184.819 144.227 185.489 143.464C186.159 142.7 184.631 140.703 180.073 142.23C175.514 143.757 173.293 149.96 173.457 145.754C173.622 141.549 179.603 133.714 171.53 142.125V142.136Z" fill="#FFCCB5"/>
<path fill-rule="evenodd" clip-rule="evenodd" d="M77.2852 142.136C77.2852 142.136 84.1588 156.233 86.544 157.525C88.9292 158.817 134.6 159.404 135.329 157.631C136.057 155.857 129.889 145.39 123.509 142.853C117.129 140.316 77.2852 142.136 77.2852 142.136Z" fill="#358541"/>
<path fill-rule="evenodd" clip-rule="evenodd" d="M77.2852 142.136C77.2852 142.136 77.9431 143.464 78.9066 145.343C88.0009 145.214 119.96 144.862 127.997 145.848C126.691 144.592 125.171 143.577 123.509 142.853C117.129 140.316 77.2852 142.136 77.2852 142.136Z" fill="#26632F"/>
<path fill-rule="evenodd" clip-rule="evenodd" d="M60.2838 134.63C60.6245 140.057 57.1818 144.685 52.5994 144.967C48.017 145.249 44.0339 141.091 43.6931 135.664C43.3524 130.237 46.8068 125.597 51.3892 125.315C55.9716 125.033 59.9548 129.203 60.2838 134.63ZM57.7341 134.783C57.9573 138.542 55.5839 141.749 52.4114 141.937C49.239 142.125 46.5366 139.258 46.2546 135.499C45.9726 131.74 48.4048 128.545 51.5772 128.346C54.7496 128.146 57.4521 131.036 57.7341 134.783Z" fill="#358541"/>
<path fill-rule="evenodd" clip-rule="evenodd" d="M74.007 89.6632C74.336 95.0902 70.8933 99.7302 66.3109 100.012C61.7285 100.294 57.7453 96.124 57.4163 90.6969C57.0874 85.2698 60.5183 80.6415 65.1007 80.3596C69.6831 80.0777 73.6663 84.2361 74.007 89.6632ZM71.4456 89.8276C71.6806 93.5748 69.2953 96.7818 66.1229 96.9815C62.9505 97.1811 60.248 94.2914 59.966 90.5442C59.684 86.7969 62.1162 83.5783 65.2887 83.3903C68.4611 83.2024 71.1636 86.0686 71.4456 89.8276Z" fill="#358541"/>
<path fill-rule="evenodd" clip-rule="evenodd" d="M51.0362 57.5824C51.0362 57.5824 54.9723 56.6191 53.7856 58.0523C52.5989 59.4854 51.4356 59.3797 51.0362 57.5824ZM85.04 48.1849C85.04 48.1849 88.9879 47.2216 87.7894 48.6665C86.5909 50.1114 85.4394 49.9822 85.04 48.1849ZM79.9758 78.3743C79.9758 78.3743 79.9758 82.4505 78.8831 80.9587C77.7904 79.4668 78.1546 78.3156 79.9758 78.3743ZM82.2318 95.4308C80.3988 95.8067 80.7278 94.2561 81.186 94.0094C81.6443 93.7627 84.2762 91.5074 82.2318 95.4308ZM77.2381 61.8465C75.0644 61.6703 74.4299 63.2209 75.5932 63.4911C76.7564 63.7612 79.4706 62.4926 77.2381 61.8465ZM81.233 65.1004C81.233 65.1004 78.8831 64.8302 79.9406 65.9109C80.998 66.9916 83.2423 66.3455 81.233 65.1004ZM88.7646 67.5202C88.4474 67.4145 85.9799 67.3558 86.2972 68.2368C86.6144 69.1178 88.1066 69.3058 88.1066 69.3058L88.7646 67.5202ZM84.5112 83.4138C84.5112 83.4138 83.2423 82.5328 83.066 83.543C82.8898 84.5532 84.241 86.0921 84.5112 83.4138ZM80.0816 90.9553C80.0816 90.9553 79.3178 89.6044 78.4131 90.227C77.5084 90.8495 79.0593 91.8833 80.0816 90.9553ZM74.8177 93.8333C73.8072 93.6688 71.9272 94.7613 72.3385 95.2311C72.7497 95.701 74.1244 96.5115 74.5592 95.7245C74.8232 95.1314 74.9129 94.4754 74.8177 93.8333ZM68.9428 88.6059C68.6725 89.252 66.9101 91.8011 66.9571 90.0273C67.0041 88.2535 67.7678 86.6324 68.9428 88.6059ZM74.7472 66.9682C74.4887 66.51 73.5722 66.4865 73.1375 67.3088C72.7027 68.1311 74.2419 74.2512 74.7472 66.9682ZM84.7227 74.3217C83.348 74.1808 80.998 75.285 82.126 75.7078C83.254 76.1307 84.7815 75.7078 84.7227 74.3217ZM80.2226 70.175C80.2226 70.175 78.1781 69.0004 78.1898 69.8462C78.2016 70.6919 79.1298 71.7021 80.2226 70.175ZM71.3632 72.8063C71.3632 72.8063 70.6465 72.7006 70.435 73.2645C70.2235 73.8283 69.9063 74.4392 70.623 74.5449C71.3397 74.6506 71.5042 74.5449 71.5512 74.3569C71.5982 74.169 72.1152 72.7711 71.3632 72.8063ZM68.8253 79.2437C68.8253 79.2437 67.8853 78.3979 67.5563 79.6548C67.2273 80.9117 66.3813 81.4403 67.5563 81.5225C68.0492 81.5422 68.54 81.5971 69.025 81.687L68.8605 79.2437H68.8253ZM77.9313 86.2212L77.6964 84.3182L76.6036 84.8351C76.4788 84.9004 76.3843 85.0118 76.3404 85.1456C76.2965 85.2795 76.3067 85.4252 76.3686 85.5517C76.6036 86.0099 77.9313 86.2212 77.9313 86.2212ZM73.8424 85.7279C73.6309 85.5869 72.973 83.9424 72.2797 85.4812C71.5865 87.0201 71.7627 87.1493 72.3855 87.1375C73.0082 87.1258 73.8424 85.7279 73.8424 85.7279ZM76.1924 78.6798C76.1924 78.903 75.4169 80.3126 75.2289 80.0776C74.9499 79.5803 74.7103 79.0618 74.5122 78.527L76.0984 76.5889L76.1924 78.6798ZM101.043 42.0765C101.819 43.7916 100.244 43.815 99.8682 43.4274C99.4922 43.0397 96.731 40.9723 101.043 42.0765ZM69.6595 54.6222C69.9885 56.7836 71.6335 57.0538 71.6335 55.7969C71.6335 54.54 69.777 52.2728 69.6595 54.6222ZM71.9037 49.9234C71.9037 49.9234 72.174 52.2728 72.9729 51.0041C73.7719 49.7355 72.644 47.6798 71.9037 49.9234ZM72.5265 42.0061C72.5265 42.335 73.0082 44.7665 73.7837 44.2497C74.5592 43.7328 74.4064 42.241 74.4064 42.241L72.5265 42.0061ZM88.8939 42.5464C88.8939 42.5464 88.3299 43.9795 89.3404 43.9208C90.3509 43.8621 91.5493 42.2057 88.8939 42.5464ZM97.2245 45.1542C97.2245 45.1542 96.0495 46.1996 96.8955 46.9514C97.7414 47.7032 98.3642 45.9295 97.2245 45.1542ZM101.196 49.712C101.255 50.734 102.747 52.3315 103.111 51.8147C103.475 51.2978 103.945 49.7825 103.111 49.5358C102.48 49.4169 101.829 49.478 101.231 49.712H101.196ZM97.4947 56.5957C98.1762 56.7131 101.02 57.8526 99.3159 58.2167C97.6122 58.5809 95.791 58.2167 97.4947 56.5957ZM75.1702 55.8438C74.7824 56.1962 74.9587 57.0773 75.8517 57.3475C76.7446 57.6176 82.3375 54.6691 75.1702 55.8438ZM80.0111 44.4024C80.1873 45.7885 81.797 47.8208 81.9498 46.6226C82.1025 45.4244 81.3858 44.0147 80.0111 44.4024ZM77.0619 49.8412C77.0619 49.8412 76.3804 52.1201 77.2146 51.9087C78.0488 51.6972 78.8008 50.5578 77.0619 49.8412ZM81.6325 57.9113C81.6325 57.9113 81.6325 58.6396 82.2905 58.7336C82.9485 58.8276 83.5477 58.9685 83.4655 58.2519C83.3832 57.5354 83.3127 57.3709 83.0777 57.3709C82.8428 57.3709 81.4093 57.1947 81.609 57.9113H81.6325ZM88.4474 58.9333C88.4474 58.9333 87.8481 60.0492 89.1289 60.108C90.4096 60.1667 91.1263 60.8481 90.9501 59.7086C90.8618 59.2231 90.803 58.7328 90.7738 58.2402L88.4239 58.9568L88.4474 58.9333ZM93.1473 48.4316L91.3496 49.0894L92.1016 50.0526C92.1925 50.1577 92.3211 50.2228 92.4596 50.2338C92.5982 50.2448 92.7354 50.2008 92.8418 50.1114C93.2295 49.7824 93.1473 48.4316 93.1473 48.4316ZM93.5938 52.543C93.4998 52.7779 92.0663 53.7999 93.7113 54.1288C95.3563 54.4578 95.4502 54.258 95.2975 53.6589C95.1447 53.0598 93.5938 52.4842 93.5938 52.4842V52.543ZM86.2149 51.8499C86.4499 51.8499 87.9774 52.2376 87.8012 52.4842C87.3755 52.8636 86.924 53.213 86.4499 53.5297L84.2175 52.4255L86.2149 51.8499ZM45.9838 87.7953C45.9838 87.7953 45.9838 91.8715 44.891 90.3679C43.7983 88.8643 44.1625 87.7249 45.9838 87.7953ZM48.2397 104.852C46.4067 105.216 46.7357 103.677 47.194 103.43C47.6522 103.184 50.2842 100.928 48.2397 104.852ZM43.2461 71.2675C41.0723 71.0913 40.4379 72.6419 41.6011 72.9121C42.7643 73.1823 45.4785 71.9136 43.2461 71.2675ZM47.241 74.5214C47.241 74.5214 44.891 74.2512 45.9485 75.3202C47.006 76.3891 49.2502 75.7666 47.241 74.5214ZM54.7726 76.9412C54.4553 76.8355 51.9879 76.7768 52.3051 77.6578C52.6224 78.5388 54.1146 78.7268 54.1146 78.7268L54.7726 76.9412ZM50.5192 92.8347C50.5192 92.8347 49.2502 91.9538 49.0739 92.964C48.8977 93.9742 50.2489 95.513 50.5192 92.8347ZM46.0778 100.353C46.0778 100.353 45.314 99.0019 44.4093 99.6127C43.5046 100.224 45.0555 101.281 46.0778 100.353ZM40.7434 103.219C39.7329 103.043 37.8529 104.147 38.2642 104.617C38.6754 105.087 40.0501 105.897 40.4849 105.098C40.7486 104.509 40.8383 103.857 40.7434 103.219ZM34.8685 98.0269C34.5865 98.673 32.8358 101.222 32.8828 99.4365C32.9298 97.6509 33.6465 96.0182 34.8685 98.0269ZM40.7434 76.3891C40.4849 75.931 39.5684 75.9075 39.1336 76.7181C38.6989 77.5286 40.2381 83.6722 40.7434 76.3891ZM50.7189 83.7309C49.3442 83.5899 46.9942 84.7059 48.1222 85.1288C49.2502 85.5517 50.7777 85.1288 50.7189 83.7309ZM46.2188 79.5961C46.2188 79.5961 44.1743 78.4213 44.186 79.2671C44.1978 80.1129 45.126 81.1231 46.2188 79.5961ZM37.3594 82.2273C37.3594 82.2273 36.6427 82.1216 36.4194 82.6855C36.1962 83.2493 35.9025 83.8601 36.6192 83.9659C37.3359 84.0716 37.5004 83.9659 37.5474 83.7779C37.5944 83.59 38.0997 82.1804 37.3594 82.2273ZM34.8685 88.6059C34.8685 88.6059 33.9285 87.7718 33.5995 89.017C33.2705 90.2622 32.4245 90.8026 33.5995 90.8965C34.0916 90.9192 34.582 90.9702 35.0682 91.0493L34.8685 88.6059ZM43.9745 95.654L43.7396 93.751L42.6468 94.2561C42.522 94.3214 42.4275 94.4328 42.3836 94.5666C42.3397 94.7005 42.3498 94.8462 42.4118 94.9727C42.6468 95.4308 43.9745 95.654 43.9745 95.654ZM39.8856 95.1489C39.6741 95.0079 39.0161 93.3751 38.3229 94.914C37.6297 96.4528 37.8059 96.582 38.4287 96.5703C39.0514 96.5586 39.8856 95.1489 39.8856 95.1489ZM42.2356 88.1008C42.2356 88.3357 41.4601 89.7336 41.2604 89.5104C40.991 89.0058 40.7555 88.4839 40.5554 87.9481L42.1416 86.0098L42.2356 88.1008ZM67.0863 51.5092C67.8618 53.2125 66.2873 53.2478 65.9113 52.8602C65.5354 52.4725 62.7742 50.3933 67.0863 51.5092ZM35.7027 64.0549C36.0317 66.2163 37.6767 66.4865 37.6767 65.2296C37.6767 63.9727 35.8202 61.7055 35.7027 64.0549ZM37.9469 59.3561C37.9469 59.3561 38.2172 61.7056 39.0161 60.4369C39.8151 59.1682 38.6872 57.1007 37.9469 59.3561ZM38.5697 51.427C38.5697 51.7559 39.0514 54.1876 39.8269 53.6825C40.6024 53.1773 40.4496 51.6737 40.4496 51.6737L38.5697 51.427ZM54.9371 51.9674C54.9371 51.9674 54.3731 53.4122 55.3836 53.3535C56.394 53.2948 57.5925 51.6385 54.9371 51.9674ZM63.2677 54.5869C63.2677 54.5869 62.0927 55.6324 62.9387 56.3842C63.7846 57.136 64.4074 55.3622 63.2677 54.5869ZM67.2391 59.1447C67.2978 60.1667 68.79 61.7526 69.1543 61.2474C69.5185 60.7423 69.9885 59.2035 69.1543 58.9685C68.5238 58.8431 67.8705 58.9043 67.2743 59.1447H67.2391ZM63.5379 66.0167C64.2194 66.1459 67.0628 67.2853 65.3591 67.6377C63.6554 67.9902 61.8342 67.6377 63.5379 66.0167ZM41.2134 65.2649C40.8256 65.629 41.0019 66.4982 41.8948 66.7684C42.7878 67.0386 48.3807 64.1019 41.2134 65.2649ZM46.0542 53.8352C46.2305 55.2096 47.8402 57.2535 47.993 56.0553C48.1457 54.8571 47.4172 53.4358 46.0542 53.8352ZM43.0933 59.2387C43.0933 59.2387 42.4118 61.5176 43.2461 61.3062C44.0803 61.0947 44.8323 59.9553 43.0933 59.2387ZM47.664 67.3088C47.664 67.3088 47.664 68.0371 48.322 68.1193C48.9799 68.2016 49.5792 68.3661 49.4969 67.6377C49.4147 66.9094 49.3442 66.7684 49.1092 66.7684C48.8742 66.7684 47.429 66.5922 47.6405 67.3088H47.664ZM54.4788 68.3308C54.4788 68.3308 53.8796 69.4467 55.1603 69.5055C56.441 69.5642 57.1578 70.2572 56.9815 69.1178C56.8933 68.6323 56.8344 68.142 56.8053 67.6494L54.4553 68.366L54.4788 68.3308ZM59.1787 57.8291L57.381 58.4869L58.133 59.4501C58.2239 59.5552 58.3525 59.6203 58.4911 59.6313C58.6296 59.6423 58.7669 59.5983 58.8732 59.5089C59.261 59.1682 59.1787 57.8291 59.1787 57.8291ZM59.6252 61.9405C59.5312 62.1754 58.0978 63.1974 59.7427 63.5263C61.3877 63.8553 61.4699 63.6438 61.3289 63.0447C61.1879 62.4456 59.6252 61.9405 59.6252 61.9405ZM52.2464 61.2474C52.4814 61.2474 54.0088 61.6351 53.8326 61.8817C53.407 62.2611 52.9555 62.6105 52.4814 62.9272L50.2489 61.7525L52.2464 61.1887V61.2474Z" fill="#DB5128"/>
<path fill-rule="evenodd" clip-rule="evenodd" d="M132.122 143.992C132.122 143.992 136.058 143.029 134.859 144.474C133.661 145.919 132.509 145.79 132.122 143.992ZM166.125 134.595C166.125 134.595 170.062 133.643 168.875 135.076C167.688 136.51 166.525 136.404 166.125 134.595ZM161.061 164.784C161.061 164.784 161.061 168.872 159.968 167.369C158.876 165.865 159.24 164.726 161.061 164.784ZM163.317 181.853C161.484 182.217 161.813 180.678 162.26 180.431C162.706 180.184 165.362 177.917 163.317 181.853ZM158.312 148.268C156.15 148.092 155.515 149.643 156.679 149.913C157.842 150.183 160.556 148.914 158.312 148.268ZM162.307 151.522C162.307 151.522 159.957 151.24 161.026 152.321C162.095 153.402 164.328 152.756 162.307 151.522ZM169.85 153.942C169.533 153.836 167.065 153.777 167.383 154.647C167.7 155.516 169.18 155.728 169.18 155.728L169.85 153.942ZM165.597 169.836C165.597 169.836 164.328 168.954 164.151 169.953C163.975 170.951 165.326 172.514 165.597 169.836ZM161.167 177.389C161.167 177.389 160.403 176.05 159.487 176.66C158.57 177.271 160.145 178.328 161.167 177.389ZM155.891 180.231C154.893 180.055 153.013 181.159 153.424 181.618C153.835 182.076 155.21 182.91 155.645 182.111C155.901 181.52 155.987 180.869 155.891 180.231ZM150.016 175.063C149.734 175.709 147.984 178.246 148.031 176.472C148.078 174.699 148.794 173.042 150.016 175.063ZM155.891 153.425C155.633 152.967 154.716 152.944 154.282 153.754C153.847 154.565 155.386 160.708 155.891 153.425ZM165.867 160.767C164.48 160.626 162.142 161.742 163.27 162.165C164.398 162.588 165.926 162.165 165.867 160.767ZM161.367 156.632C161.367 156.632 159.311 155.457 159.322 156.303C159.334 157.149 160.274 158.159 161.367 156.632ZM152.507 159.263C152.507 159.263 151.791 159.158 151.567 159.721C151.344 160.285 151.05 160.896 151.767 160.99C152.484 161.084 152.637 160.99 152.695 160.814C152.754 160.638 153.248 159.216 152.507 159.263ZM149.969 165.689C149.969 165.689 149.029 164.855 148.7 166.1C148.371 167.345 147.525 167.886 148.7 167.979C149.192 168.003 149.683 168.054 150.169 168.132L150.005 165.689H149.969ZM159.076 172.737L158.841 170.834L157.736 171.339C157.613 171.406 157.521 171.519 157.48 171.652C157.438 171.786 157.45 171.931 157.513 172.056C157.748 172.514 159.076 172.737 159.076 172.737ZM154.987 172.232C154.775 172.091 154.117 170.458 153.412 171.985C152.707 173.512 152.907 173.653 153.518 173.653C154.129 173.653 154.987 172.232 154.987 172.232ZM157.337 165.184C157.278 165.419 156.561 166.817 156.361 166.593C156.092 166.089 155.856 165.567 155.656 165.031L157.243 163.093L157.337 165.184ZM182.129 128.545C182.904 130.249 181.318 130.284 180.954 129.896C180.589 129.508 177.828 127.429 182.129 128.545ZM150.745 141.091C151.074 143.252 152.719 143.522 152.719 142.324C152.719 141.126 150.862 138.8 150.745 141.091ZM152.977 136.392C152.977 136.392 153.248 138.741 154.058 137.473C154.869 136.204 153.729 134.137 152.977 136.392ZM153.612 128.463C153.612 128.792 154.082 131.223 154.869 130.718C155.656 130.213 155.492 128.698 155.492 128.698L153.612 128.463ZM169.979 129.003C169.979 129.003 169.404 130.448 170.426 130.389C171.448 130.331 172.635 128.674 169.979 129.003ZM178.31 131.611C178.31 131.611 177.135 132.668 177.981 133.42C178.827 134.172 179.438 132.398 178.31 131.611ZM182.281 136.181C182.281 137.203 183.832 138.788 184.185 138.283C184.537 137.778 185.031 136.239 184.185 136.004C183.554 135.879 182.901 135.94 182.305 136.181H182.281ZM178.58 143.053C179.262 143.17 182.105 144.321 180.401 144.674C178.698 145.026 176.876 144.674 178.58 143.053ZM156.256 142.301C155.856 142.665 156.044 143.475 156.937 143.804C157.83 144.133 163.423 141.138 156.256 142.301ZM161.085 130.871C161.273 132.245 162.882 134.289 163.023 133.091C163.164 131.893 162.459 130.472 161.085 130.871ZM158.1 136.204C158.1 136.204 157.419 138.554 158.253 138.283C159.087 138.013 159.839 136.933 158.1 136.204ZM162.671 144.286C162.671 144.286 162.73 145.003 163.329 145.097C163.928 145.191 164.586 145.332 164.504 144.615C164.422 143.898 164.351 143.746 164.116 143.746C163.881 143.746 162.436 143.57 162.647 144.286H162.671ZM169.474 145.308C169.474 145.308 168.887 146.412 170.167 146.483C171.448 146.553 172.165 147.235 171.988 146.095C171.9 145.61 171.841 145.119 171.812 144.627L169.462 145.343L169.474 145.308ZM174.174 134.795L172.388 135.464L173.14 136.416C173.188 136.465 173.246 136.504 173.309 136.531C173.373 136.558 173.441 136.572 173.51 136.572C173.579 136.572 173.647 136.558 173.711 136.531C173.774 136.504 173.832 136.465 173.88 136.416C174.268 136.087 174.174 134.736 174.174 134.736V134.795ZM174.632 138.906C174.538 139.153 173.105 140.175 174.75 140.504C176.395 140.832 176.477 140.621 176.324 140.022C176.171 139.423 174.632 138.906 174.632 138.906ZM167.253 138.225C167.488 138.225 169.016 138.612 168.84 138.847C168.414 139.231 167.963 139.584 167.488 139.904L165.256 138.73L167.253 138.166V138.225ZM127.022 174.158C127.022 174.158 127.022 178.235 125.929 176.743C124.837 175.251 125.189 174.1 127.022 174.158ZM129.278 191.215C127.445 191.591 127.774 190.04 128.221 189.793C128.667 189.547 131.323 187.291 129.278 191.215ZM124.273 157.63C122.111 157.466 121.476 159.005 122.639 159.287C123.803 159.569 126.517 158.288 124.273 157.63ZM128.268 160.884C128.268 160.884 125.918 160.614 126.975 161.695C128.033 162.776 130.289 162.13 128.268 160.884ZM135.811 163.304C135.494 163.199 133.026 163.14 133.344 164.021C133.661 164.902 135.141 165.09 135.141 165.09L135.811 163.304ZM131.546 179.209C131.546 179.209 130.289 178.317 130.112 179.327C129.936 180.337 131.287 181.876 131.546 179.209ZM127.128 186.763C127.128 186.763 126.364 185.412 125.448 186.034C124.531 186.657 126.106 187.702 127.128 186.763ZM121.817 189.629C120.818 189.453 118.938 190.545 119.35 191.015C119.761 191.485 121.136 192.295 121.57 191.508C121.827 190.917 121.912 190.266 121.817 189.629ZM116.001 184.437C115.731 185.071 113.98 187.62 114.015 185.847C114.05 184.073 114.791 182.416 116.001 184.437ZM121.817 162.811C121.547 162.341 120.642 162.318 120.207 163.14C119.773 163.962 121.312 170.094 121.817 162.811ZM131.781 170.153C130.406 170.012 128.068 171.128 129.196 171.539C130.324 171.95 131.851 171.539 131.781 170.153ZM127.292 166.006C127.292 166.006 125.236 164.831 125.248 165.677C125.26 166.523 126.2 167.545 127.292 166.006ZM118.433 168.637C118.433 168.637 117.716 168.532 117.493 169.095C117.27 169.659 116.976 170.27 117.681 170.376C118.386 170.482 118.562 170.376 118.621 170.2C118.68 170.023 119.173 168.602 118.433 168.637ZM115.942 175.075C115.942 175.075 115.002 174.229 114.685 175.486C114.368 176.743 113.51 177.271 114.685 177.353C115.178 177.375 115.668 177.429 116.154 177.518L115.977 175.075H115.942ZM125.06 182.052L124.825 180.149L123.72 180.666C123.598 180.733 123.506 180.846 123.464 180.979C123.422 181.113 123.434 181.258 123.497 181.383C123.72 181.841 125.06 182.052 125.06 182.052ZM120.971 181.559C120.76 181.418 120.09 179.785 119.397 181.312C118.703 182.839 118.891 182.98 119.502 182.969C120.113 182.957 120.971 181.559 120.971 181.559ZM123.321 174.511C123.262 174.746 122.534 176.144 122.346 175.909C122.075 175.409 121.839 174.891 121.641 174.358L123.227 172.42L123.321 174.511ZM148.125 137.943C148.9 139.658 147.314 139.693 146.95 139.294C146.586 138.894 143.813 136.839 148.125 137.943ZM116.741 150.5C117.07 152.662 118.703 152.932 118.703 151.675C118.703 150.418 116.859 148.151 116.741 150.5ZM118.974 145.801C118.974 145.801 119.244 148.151 120.055 146.882C120.865 145.613 119.726 143.558 118.974 145.801ZM119.608 137.884C119.608 138.213 120.078 140.644 120.854 140.128C121.629 139.611 121.488 138.119 121.488 138.119L119.608 137.884ZM135.964 138.424C135.964 138.424 135.4 139.857 136.422 139.799C137.444 139.74 138.631 138.095 135.964 138.424ZM144.306 141.032C144.306 141.032 143.131 142.078 143.977 142.829C144.823 143.581 145.434 141.819 144.306 141.032ZM148.277 145.602C148.277 146.612 149.828 148.209 150.181 147.693C150.533 147.176 151.015 145.66 150.181 145.414C149.549 145.296 148.897 145.361 148.301 145.602H148.277ZM144.565 152.474C145.258 152.591 148.089 153.731 146.386 154.095C144.682 154.459 142.861 154.095 144.565 152.474ZM122.24 151.722C121.852 152.086 122.04 152.897 122.933 153.225C123.826 153.554 129.407 150.547 122.24 151.722ZM127.081 140.28C127.257 141.666 128.879 143.699 129.02 142.501C129.161 141.302 128.456 139.893 127.081 140.28ZM124.167 145.613C124.167 145.613 123.485 147.892 124.32 147.681C125.154 147.469 125.894 146.33 124.167 145.613ZM128.738 153.695C128.738 153.695 128.738 154.412 129.396 154.506C130.054 154.6 130.653 154.741 130.571 154.024C130.488 153.308 130.43 153.155 130.183 153.155C129.936 153.155 128.514 152.967 128.726 153.695H128.738ZM135.541 154.717C135.541 154.717 134.942 155.822 136.234 155.892C137.526 155.962 138.231 156.644 138.055 155.493C137.967 155.007 137.908 154.517 137.879 154.024L135.529 154.752L135.541 154.717ZM140.241 144.204L138.455 144.862L139.195 145.825C139.296 145.923 139.431 145.977 139.571 145.977C139.711 145.977 139.846 145.923 139.947 145.825C140.335 145.496 140.241 144.145 140.241 144.145V144.204ZM140.699 148.315C140.605 148.562 139.171 149.584 140.816 149.913C142.461 150.242 142.544 150.03 142.391 149.431C142.238 148.832 140.699 148.315 140.699 148.315ZM133.32 147.622C133.555 147.622 135.083 148.022 134.895 148.257C134.472 148.639 134.025 148.992 133.555 149.314L131.311 148.198L133.32 147.622Z" fill="#DB5128"/>
<path fill-rule="evenodd" clip-rule="evenodd" d="M64.5367 174.687C64.5367 174.687 63.0797 170.881 64.6542 171.891C66.2286 172.901 66.2639 174.1 64.5367 174.687ZM50.8834 142.007C50.8834 142.007 49.4265 138.201 51.0009 139.2C52.5754 140.198 52.6106 141.408 50.8834 142.007ZM81.3153 143.182C81.3153 143.182 85.3337 142.618 84.006 143.934C82.6783 145.249 81.4916 145.014 81.3153 143.182ZM97.8472 138.73C98.4465 140.515 96.872 140.386 96.59 139.963C96.308 139.54 93.7113 137.191 97.8472 138.73ZM65.4179 148.022C65.5236 150.207 67.1334 150.641 67.2509 149.443C67.3684 148.245 65.7704 145.696 65.4179 148.022ZM68.1086 143.617C68.1086 143.617 68.1086 145.966 69.0721 144.791C70.0355 143.617 69.0721 141.432 68.1086 143.617ZM69.5186 135.793C69.5186 136.11 69.7183 138.589 70.5525 138.142C71.3868 137.696 71.375 136.204 71.375 136.204L69.5186 135.781V135.793ZM85.7097 137.943C85.7097 137.943 84.993 139.317 86.0152 139.364C87.0375 139.411 88.3652 137.884 85.7097 137.943ZM93.7348 141.467C93.7348 141.467 92.5598 142.395 93.2296 143.229C93.8993 144.063 94.7806 142.36 93.7348 141.467ZM97.2598 146.401C97.2598 147.422 98.5405 149.161 98.9517 148.75C99.3629 148.339 99.9857 146.8 99.1397 146.471C98.5262 146.29 97.8733 146.29 97.2598 146.471V146.401ZM92.8888 152.873C93.5586 153.061 96.2963 154.482 94.5338 154.67C92.7713 154.858 91.0089 154.341 92.8888 152.873ZM70.7993 149.878C70.3763 150.195 70.4585 151.052 71.328 151.44C72.1975 151.828 78.0371 149.431 70.7993 149.878ZM76.7447 138.988C76.7447 140.374 78.1899 142.512 78.4601 141.338C78.7304 140.163 78.1546 138.683 76.7447 138.988ZM73.2197 144.004C73.2197 144.004 72.315 146.201 73.2197 146.083C74.1245 145.966 74.9352 144.909 73.2197 144.004ZM76.9562 152.497C76.9562 152.497 76.9562 153.225 77.5319 153.366C78.1076 153.507 78.7069 153.742 78.7656 153.014C78.8244 152.286 78.7069 152.133 78.4719 152.109C78.2369 152.086 76.8269 151.757 76.9562 152.497ZM83.63 154.2C83.63 154.2 82.925 155.246 84.2058 155.375C85.4865 155.504 86.121 156.315 86.0505 155.164C86.0198 154.671 86.0198 154.176 86.0505 153.684L83.7005 154.165L83.63 154.2ZM89.3522 144.216L87.4957 144.697L88.1419 145.731C88.2245 145.844 88.3478 145.921 88.4859 145.945C88.624 145.969 88.7661 145.939 88.8822 145.86C89.3052 145.566 89.3522 144.216 89.3522 144.216ZM89.3522 148.35C89.2347 148.585 87.7072 149.455 89.3522 149.948C90.9971 150.441 91.0676 150.242 90.9736 149.631C90.8796 149.02 89.3992 148.35 89.3992 148.35H89.3522ZM82.079 146.929C82.314 146.929 83.7945 147.493 83.583 147.716C83.1253 148.048 82.6465 148.351 82.1496 148.621L80.0346 147.293L82.079 146.929ZM42.7761 126.877C44.3623 125.879 44.5973 127.453 44.2448 127.84C43.8923 128.228 42.2239 131.282 42.7761 126.877ZM59.2258 156.55C61.3172 155.939 61.376 154.271 60.1893 154.424C59.0025 154.576 56.8993 156.773 59.2258 156.55ZM54.3496 154.917C54.3496 154.917 56.6291 154.341 55.2779 153.742C53.9266 153.143 52.0349 154.494 54.3496 154.917ZM46.4538 155.316C46.7828 155.316 49.1092 154.482 48.51 153.778C47.9107 153.073 46.442 153.413 46.442 153.413V155.316H46.4538ZM44.8676 138.871C44.8676 138.871 46.3598 139.247 46.1718 138.248C45.9838 137.25 44.1978 136.263 44.8676 138.871ZM46.3715 130.225C46.3715 130.225 47.5465 131.224 48.1927 130.319C48.839 129.415 47.0178 128.992 46.3715 130.225ZM50.3547 125.679C51.3534 125.491 52.7047 123.788 52.1759 123.506C51.6472 123.224 50.061 122.93 49.9317 123.823C49.8997 124.469 50.0461 125.111 50.3547 125.679ZM57.6161 128.487C57.6161 127.782 58.4033 124.774 58.979 126.454C59.5548 128.134 59.4608 129.978 57.6161 128.487ZM59.7545 150.806C60.154 151.146 61 150.806 61.141 149.925C61.282 149.044 57.6161 143.804 59.7545 150.806ZM47.852 147.458C49.1797 147.094 50.9892 145.226 49.7907 145.238C48.5922 145.249 47.288 146.13 47.852 147.458ZM53.5036 149.737C53.5036 149.737 55.8536 150.136 55.5246 149.325C55.1956 148.515 53.9854 147.916 53.5036 149.737ZM60.8825 144.145C60.8825 144.145 61.5875 143.992 61.5875 143.382C61.5875 142.771 61.6697 142.101 60.9647 142.207C60.2597 142.313 60.1305 142.465 60.154 142.712C60.1775 142.959 60.154 144.392 60.8825 144.098V144.145ZM61 137.226C61 137.226 62.175 137.673 62.0457 136.392C61.9165 135.112 62.5274 134.301 61.423 134.63C60.9521 134.777 60.4736 134.899 59.9895 134.994L61 137.226ZM50.0375 133.902L50.9187 135.605L51.7647 134.736C51.8623 134.635 51.9169 134.5 51.9169 134.36C51.9169 134.22 51.8623 134.085 51.7647 133.984C51.3887 133.643 50.0727 133.902 50.0727 133.902H50.0375ZM54.0324 132.927C54.2791 132.927 55.4776 134.289 55.5833 132.598C55.6891 130.906 55.4776 130.859 54.9136 131.083C54.3496 131.306 54.0324 132.927 54.0324 132.927ZM54.3026 140.374C54.3026 140.128 54.4671 138.565 54.7256 138.706C55.1421 139.072 55.5345 139.465 55.9006 139.881L55.0899 142.23L54.2674 140.316L54.3026 140.374ZM94.9568 175.838C94.9568 175.838 98.9635 175.274 97.6357 176.59C96.308 177.906 95.133 177.659 94.9568 175.838ZM111.489 171.386C112.088 173.16 110.513 173.031 110.22 172.561C109.926 172.091 107.353 169.788 111.489 171.386ZM79.0006 180.701C79.1181 182.886 80.7278 183.321 80.8453 182.134C80.9628 180.948 79.3531 178.387 79.0006 180.701ZM81.7031 176.308C81.7031 176.308 81.7031 178.657 82.6548 177.483C83.6065 176.308 82.6548 174.135 81.7031 176.308ZM83.113 168.485C83.113 168.802 83.3128 171.28 84.1353 170.834C84.9577 170.388 84.9578 168.896 84.9578 168.896L83.113 168.473V168.485ZM99.3394 170.67C99.3394 170.67 98.6345 172.044 99.645 172.091C100.655 172.138 101.995 170.611 99.3394 170.67ZM107.365 174.111C107.365 174.111 106.131 175.039 106.859 175.862C107.588 176.684 108.422 174.992 107.365 174.111ZM110.889 179.045C110.889 180.067 112.17 181.806 112.581 181.394C112.993 180.983 113.615 179.444 112.781 179.116C112.164 178.934 111.507 178.934 110.889 179.116V179.045ZM106.542 185.518C107.212 185.706 109.949 187.127 108.199 187.315C106.448 187.503 104.674 186.986 106.542 185.518ZM84.4173 182.581C83.9943 182.898 84.0883 183.756 84.946 184.143C85.8037 184.531 91.6669 182.134 84.4173 182.581ZM90.3744 171.691C90.3744 173.078 91.8079 175.274 92.0781 174.041C92.3483 172.807 91.7726 171.386 90.3744 171.691ZM86.8495 176.707C86.8495 176.707 85.933 178.904 86.8495 178.775C87.7659 178.646 88.5532 177.6 86.8495 176.707ZM90.5859 185.2C90.5859 185.2 90.5859 185.917 91.1616 186.07C91.7374 186.222 92.3366 186.434 92.3366 185.717C92.3366 185.001 92.3366 184.836 92.0311 184.813C91.7256 184.789 90.3861 184.46 90.5271 185.2H90.5859ZM97.2598 186.904C97.2598 186.904 96.5548 187.949 97.8237 188.078C99.0927 188.208 99.7389 189.03 99.6802 187.879C99.6475 187.386 99.6475 186.891 99.6802 186.399L97.3302 186.88L97.2598 186.904ZM102.97 176.919L101.125 177.401L101.772 178.423C101.852 178.538 101.975 178.617 102.113 178.643C102.251 178.67 102.394 178.641 102.512 178.563C102.923 178.27 102.97 176.919 102.97 176.919ZM102.97 181.054C102.853 181.289 101.325 182.158 102.97 182.651C104.615 183.145 104.674 182.945 104.592 182.334C104.509 181.723 103.005 181.054 103.005 181.054H102.97ZM95.697 179.621C95.9438 179.621 97.4125 180.196 97.2127 180.408C96.7539 180.748 96.2709 181.054 95.7675 181.324L93.6526 179.997L95.697 179.621ZM56.3941 159.58C57.9803 158.582 58.2153 160.156 57.8745 160.532C57.5338 160.908 55.8536 163.986 56.3941 159.58ZM72.8438 189.253C74.9352 188.642 74.9822 186.974 73.7955 187.127C72.6088 187.28 70.5173 189.476 72.8438 189.253ZM67.9558 187.62C67.9558 187.62 70.2353 187.045 68.8841 186.446C67.5328 185.846 65.6411 187.197 67.9558 187.62ZM60.06 188.02C60.389 188.02 62.7272 187.186 62.1162 186.469C61.5052 185.753 60.06 186.105 60.06 186.105V188.02ZM58.4855 171.574C58.4855 171.574 59.9778 171.95 59.7898 170.951C59.6018 169.953 57.8158 168.966 58.4855 171.574ZM59.9778 162.928C59.9778 162.928 61.1527 163.927 61.799 163.022C62.4452 162.118 60.624 161.695 59.9778 162.928ZM63.9727 158.382C64.9714 158.183 66.3226 156.491 65.7939 156.197C65.2651 155.904 63.6672 155.634 63.5497 156.526C63.5108 157.173 63.6575 157.817 63.9727 158.382ZM71.2223 161.178C71.2223 160.485 72.0095 157.478 72.597 159.158C73.1845 160.837 73.067 162.682 71.2223 161.178ZM73.3607 183.497C73.772 183.838 74.6062 183.497 74.7589 182.616C74.9117 181.735 71.234 176.508 73.3607 183.497ZM61.4582 180.161C62.7977 179.797 64.6072 177.929 63.3969 177.929C62.1867 177.929 60.8942 178.834 61.4582 180.161ZM67.1099 182.44C67.1099 182.44 69.4598 182.828 69.1426 182.029C68.8253 181.23 67.6034 180.619 67.1099 182.44ZM74.4887 176.848C74.4887 176.848 75.1937 176.696 75.2054 176.085C75.2172 175.474 75.2759 174.804 74.5827 174.91C73.8895 175.016 73.7367 175.169 73.772 175.404C73.8072 175.638 73.772 177.095 74.4887 176.801V176.848ZM74.618 169.929C74.618 169.929 75.7929 170.376 75.6519 169.095C75.5109 167.815 76.1337 167.005 75.0292 167.322C74.5632 167.475 74.0884 167.601 73.6075 167.698L74.618 169.929ZM63.6437 166.605L64.5249 168.308L65.3826 167.439C65.4803 167.338 65.5349 167.204 65.5349 167.063C65.5349 166.923 65.4803 166.788 65.3826 166.687C65.0067 166.347 63.6789 166.605 63.6789 166.605H63.6437ZM67.6503 165.63C67.8971 165.689 69.0838 166.981 69.2013 165.301C69.3188 163.621 69.0956 163.563 68.5198 163.786C67.9441 164.009 67.6503 165.63 67.6503 165.63ZM67.9206 173.078C67.9206 172.831 68.0733 171.269 68.3318 171.41C68.7483 171.776 69.1408 172.168 69.5068 172.584L68.7078 174.934L67.8854 173.019L67.9206 173.078Z" fill="#DB5128"/>
<path fill-rule="evenodd" clip-rule="evenodd" d="M130.606 76.5184C130.606 76.5184 129.149 72.7125 130.723 73.7227C132.298 74.7329 132.333 75.9311 130.606 76.5184ZM116.952 43.8269C116.952 43.8269 115.495 40.0209 117.07 41.0311C118.644 42.0413 118.691 43.2395 116.952 43.8269ZM147.384 45.0016C147.384 45.0016 151.403 44.4377 150.075 45.7534C148.747 47.069 147.561 46.8223 147.384 45.0016ZM163.916 40.5495C164.527 42.3233 162.941 42.1941 162.659 41.7242C162.377 41.2543 159.78 38.9637 163.916 40.5495ZM131.44 49.8413C131.546 52.0262 133.155 52.4608 133.285 51.2744C133.414 50.0879 131.792 47.5271 131.44 49.8413ZM134.131 45.4362C134.131 45.4362 134.131 47.7856 135.094 46.6109C136.058 45.4362 135.094 43.263 134.131 45.4362ZM135.552 37.6128C135.482 37.9417 135.752 40.4203 136.575 39.9622C137.397 39.5041 137.397 38.0239 137.397 38.0239L135.552 37.5893V37.6128ZM151.779 39.8095C151.779 39.8095 151.074 41.1838 152.084 41.2308C153.095 41.2778 154.434 39.7507 151.779 39.8095ZM159.804 43.2395C159.804 43.2395 158.57 44.1793 159.299 45.0016C160.027 45.8238 160.861 44.1323 159.804 43.2395ZM163.329 48.185C163.329 49.207 164.609 50.9455 165.021 50.4639C165.432 49.9823 166.055 48.5256 165.22 48.1967C164.603 48.0149 163.946 48.0149 163.329 48.1967V48.185ZM158.958 54.6575C159.628 54.8454 162.365 56.2668 160.603 56.4548C158.84 56.6427 157.078 56.1258 158.958 54.6575ZM136.868 51.662C136.445 51.9792 136.539 52.8367 137.397 53.2244C138.255 53.612 144.118 51.2156 136.868 51.662ZM142.825 40.7727C142.825 42.1588 144.259 44.3555 144.529 43.1221C144.799 41.8887 144.224 40.4673 142.825 40.7727ZM139.3 45.7886C139.3 45.7886 138.396 47.9853 139.242 47.856C140.088 47.7268 140.957 46.6813 139.3 45.7886ZM143.049 54.2816C143.049 54.2816 143.049 54.9982 143.613 55.1509C144.177 55.3036 144.846 55.515 144.858 54.7984C144.87 54.0819 144.788 53.9174 144.553 53.894C144.318 53.8705 142.908 53.5416 143.049 54.2816ZM149.711 55.9849C149.711 55.9849 149.006 57.0303 150.286 57.1595C151.567 57.2888 152.202 58.1111 152.143 56.9599C152.11 56.467 152.11 55.9726 152.143 55.4798L149.793 55.9614L149.711 55.9849ZM155.433 46L153.576 46.4699L154.223 47.5037C154.303 47.6189 154.426 47.698 154.564 47.7243C154.702 47.7507 154.845 47.7221 154.963 47.6446C155.386 47.3509 155.433 46 155.433 46ZM155.433 50.1349C155.315 50.3699 153.788 51.2391 155.433 51.7325C157.078 52.2259 157.148 52.0262 157.054 51.4154C156.96 50.8045 155.48 50.1349 155.48 50.1349H155.433ZM148.183 48.6666C148.418 48.6666 149.899 49.2422 149.699 49.4536C149.238 49.791 148.755 50.0972 148.254 50.3699L146.139 49.0307L148.183 48.6666ZM108.892 28.6969C110.478 27.6984 110.713 29.2725 110.373 29.6484C110.032 30.0243 108.34 33.0902 108.892 28.6969ZM125.342 58.3578C127.433 57.7587 127.492 56.0789 126.305 56.2433C125.119 56.4078 123.015 58.5927 125.342 58.3578ZM120.466 56.7367C120.466 56.7367 122.745 56.1611 121.394 55.562C120.043 54.9629 118.151 56.3255 120.466 56.7367ZM112.57 57.1361C112.899 57.1361 115.225 56.3021 114.626 55.5855C114.027 54.8689 112.558 55.2214 112.558 55.2214V57.1361H112.57ZM110.984 40.7492C110.984 40.7492 112.476 41.1251 112.288 40.1148C112.1 39.1046 110.314 38.1414 110.984 40.7492ZM112.488 32.1035C112.488 32.1035 113.662 33.102 114.309 32.1974C114.955 31.2929 113.134 30.8701 112.488 32.1035ZM116.471 27.5575C117.469 27.3578 118.821 25.6662 118.304 25.3725C117.787 25.0788 116.177 24.8087 116.048 25.7015C116.016 26.3472 116.162 26.9893 116.471 27.5575ZM123.732 30.3532C123.732 29.6601 124.519 26.6529 125.095 28.3327C125.671 30.0125 125.577 31.8568 123.732 30.3532ZM125.87 52.6722C126.282 53.0129 127.116 52.6722 127.269 51.7912C127.421 50.9102 123.744 45.6828 125.87 52.6722ZM113.968 49.3244C115.307 48.972 117.105 47.1042 115.907 47.1042C114.708 47.1042 113.404 48.0088 113.968 49.3244ZM119.62 51.6738C119.62 51.6738 121.97 52.0615 121.641 51.2627C121.312 50.4639 120.113 49.853 119.62 51.6738ZM126.998 46.0705C126.998 46.0705 127.703 45.9178 127.715 45.3188C127.727 44.7197 127.786 44.0383 127.081 44.1441C126.376 44.2498 126.246 44.4025 126.27 44.6374C126.293 44.8724 126.27 46.329 126.998 46.0235V46.0705ZM127.128 39.1516C127.128 39.1516 128.303 39.6098 128.162 38.3293C128.021 37.0489 128.643 36.2384 127.539 36.5556C127.072 36.7071 126.598 36.8326 126.117 36.9315L127.128 39.1516ZM116.118 35.745L116.999 37.4483L117.857 36.5791C117.952 36.4769 118.005 36.3426 118.005 36.2032C118.005 36.0637 117.952 35.9294 117.857 35.8273C117.481 35.4866 116.165 35.745 116.165 35.745H116.118ZM120.113 34.77C120.36 34.8287 121.558 36.1209 121.676 34.4411C121.793 32.7613 121.57 32.7026 120.994 32.9257C120.419 33.1489 120.113 34.77 120.113 34.77ZM120.383 42.2058C120.383 41.9709 120.548 40.4086 120.806 40.5495C121.223 40.9155 121.615 41.3079 121.981 41.7242L121.171 44.0736L120.348 42.1471L120.383 42.2058ZM161.038 77.6696C161.038 77.6696 165.056 77.1175 163.716 78.4332C162.377 79.7488 161.214 79.5021 161.038 77.6696ZM177.569 73.2293C178.169 75.003 176.594 74.8738 176.3 74.404C176.007 73.9341 173.434 71.6434 177.569 73.2293ZM145.093 82.5446C145.199 84.7295 146.809 85.1641 146.926 83.9659C147.044 82.7677 145.446 80.2305 145.093 82.5446ZM147.784 78.1395C147.784 78.1395 147.784 80.4889 148.747 79.3142C149.711 78.1395 148.747 75.9664 147.784 78.1395ZM149.194 70.3161C149.135 70.645 149.394 73.1118 150.216 72.6654C151.038 72.2191 151.038 70.7272 151.038 70.7272L149.194 70.2925V70.3161ZM165.42 72.501C165.42 72.501 164.715 73.8871 165.737 73.9224C166.76 73.9576 168.087 72.4422 165.42 72.501ZM173.457 75.9428C173.457 75.9428 172.282 76.8708 172.952 77.7048C173.622 78.5389 174.503 76.8356 173.457 75.9428ZM176.982 80.8883C176.982 81.9102 178.274 83.637 178.674 83.1671C179.073 82.6973 179.708 81.2289 178.874 80.9C178.256 80.7182 177.599 80.7182 176.982 80.9V80.8883ZM172.611 87.349C173.281 87.5487 176.03 88.9701 174.268 89.1463C172.505 89.3225 170.743 88.8291 172.611 87.349ZM150.521 84.3654C150.098 84.6825 150.193 85.54 151.062 85.9276C151.931 86.3153 157.771 83.919 150.521 84.3654ZM156.479 73.4642C156.479 74.8621 157.924 77.0588 158.182 75.8136C158.441 74.5684 157.889 73.1588 156.479 73.4642ZM152.954 78.4802C152.954 78.4802 152.037 80.6886 152.895 80.5594C153.753 80.4302 154.599 79.3847 152.954 78.4802ZM156.69 86.9849C156.69 86.9849 156.69 87.7014 157.266 87.8541C157.842 88.0068 158.441 88.2183 158.5 87.49C158.558 86.7617 158.441 86.609 158.206 86.5855C157.971 86.562 156.561 86.2448 156.69 86.9849ZM163.364 88.6764C163.364 88.6764 162.659 89.7219 163.928 89.8511C165.197 89.9803 165.855 90.8026 165.784 89.6514C165.714 88.5003 165.784 88.1596 165.784 88.1596L163.434 88.6412L163.364 88.6764ZM169.074 78.7033L167.23 79.1732L167.876 80.2069C167.957 80.3221 168.079 80.4013 168.217 80.4277C168.356 80.454 168.499 80.4253 168.616 80.3479C169.027 80.0542 169.074 78.7033 169.074 78.7033ZM169.074 82.8383C168.969 83.0615 167.441 83.9425 169.074 84.4358C170.708 84.9292 170.79 84.7295 170.696 84.1186C170.602 83.5078 169.11 82.8383 169.11 82.8383H169.074ZM161.801 81.4051C162.048 81.4051 163.517 81.9689 163.317 82.1921C162.858 82.5323 162.375 82.8385 161.872 83.1084L159.757 81.7693L161.801 81.4051ZM122.522 61.3532C124.108 60.3547 124.343 61.9288 124.002 62.3047C123.662 62.6806 121.981 65.7465 122.522 61.3532ZM138.971 91.0141C141.063 90.415 141.11 88.7352 139.923 88.8879C138.736 89.0406 136.645 91.2372 138.971 91.0141ZM134.095 89.3812C134.095 89.3812 136.363 88.8174 135.024 88.2065C133.684 87.5957 131.769 88.9701 134.095 89.3812ZM126.188 89.7806C126.517 89.7806 128.855 88.9466 128.256 88.2418C127.656 87.537 126.188 87.8777 126.188 87.8777V89.7806ZM124.613 73.335C124.613 73.335 126.105 73.7226 125.918 72.7124C125.73 71.7022 123.944 70.739 124.613 73.335ZM126.105 64.7011C126.105 64.7011 127.28 65.6878 127.927 64.795C128.573 63.9023 126.752 63.4677 126.105 64.7011ZM130.1 60.1433C131.099 59.9554 132.45 58.2638 131.922 57.9701C131.393 57.6764 129.807 57.4063 129.677 58.299C129.637 58.9417 129.784 59.5822 130.1 60.1433ZM137.362 62.9508C137.362 62.2459 138.137 59.2505 138.725 60.9303C139.312 62.6101 139.206 64.4544 137.362 62.9508ZM139.5 85.2698C139.9 85.6105 140.734 85.2698 140.887 84.3888C141.039 83.5078 137.421 78.2804 139.5 85.2698ZM127.586 81.922C128.925 81.5696 130.735 79.7018 129.525 79.7018C128.314 79.7018 127.022 80.6063 127.586 81.922ZM133.249 84.2126C133.249 84.2126 135.599 84.6003 135.27 83.7898C134.941 82.9792 133.731 82.3919 133.249 84.2126ZM140.616 78.6094C140.616 78.6094 141.321 78.4566 141.333 77.8575C141.345 77.2584 141.415 76.5654 140.71 76.6829C140.005 76.8003 139.864 76.9531 139.9 77.188C139.935 77.423 139.9 78.8796 140.616 78.5742V78.6094ZM140.746 71.6904C140.746 71.6904 141.921 72.1486 141.78 70.8564C141.639 69.5643 142.261 68.7655 141.169 69.0944C140.7 69.2501 140.221 69.3718 139.735 69.4586L140.746 71.6904ZM129.771 68.3779L130.664 70.0811L131.51 69.2119C131.608 69.1111 131.663 68.9763 131.663 68.8359C131.663 68.6956 131.608 68.5608 131.51 68.46C131.134 68.1076 129.807 68.3779 129.807 68.3779H129.771ZM133.778 67.4029C134.025 67.4029 135.212 68.7537 135.329 67.0739C135.447 65.3941 135.223 65.3354 134.648 65.5586C134.072 65.7818 133.778 67.4029 133.778 67.4029ZM134.048 74.8387C134.048 74.6037 134.201 73.0296 134.471 73.1823C134.888 73.5483 135.28 73.9406 135.646 74.357L134.836 76.7064L134.013 74.7799L134.048 74.8387Z" fill="#DB5128"/>
<path fill-rule="evenodd" clip-rule="evenodd" d="M116.353 48.0909C116.353 48.0909 88.4592 73.5817 85.8038 78.3509C83.1483 83.1201 91.3849 92.7996 92.8536 90.7556C94.3224 88.7116 121.934 61.177 122.992 58.9686C124.049 56.7601 116.388 48.0909 116.388 48.0909H116.353Z" fill="#358541"/>
<path fill-rule="evenodd" clip-rule="evenodd" d="M85.4629 82.3801C86.6379 87.0789 91.702 92.3063 92.8535 90.7557C93.6878 89.6515 102.253 81.0058 109.973 72.9944C108.854 72.8527 107.728 72.7821 106.601 72.783C102.594 72.7796 98.6337 73.6345 94.9856 75.2899C91.3374 76.9454 88.0863 79.3631 85.4512 82.3801H85.4629Z" fill="#26632F"/>
<path fill-rule="evenodd" clip-rule="evenodd" d="M108.599 76.859C114.216 76.8264 119.716 78.4618 124.402 81.5578C129.088 84.6539 132.749 89.0712 134.921 94.2498C137.093 99.4284 137.678 105.135 136.602 110.647C135.527 116.158 132.838 121.226 128.878 125.208C124.918 129.191 119.864 131.908 114.358 133.015C108.851 134.123 103.14 133.571 97.9474 131.43C92.755 129.288 88.3154 125.654 85.1914 120.987C82.0674 116.32 80.3996 110.831 80.3995 105.216C80.3887 101.503 81.1095 97.824 82.5208 94.3894C83.9321 90.9548 86.0063 87.8318 88.6249 85.1986C91.2434 82.5654 94.3551 80.4737 97.7823 79.0428C101.209 77.6118 104.885 76.8698 108.599 76.859Z" fill="#F2B922"/>
<path fill-rule="evenodd" clip-rule="evenodd" d="M108.599 82.8735C113.033 82.8502 117.375 84.1444 121.072 86.5917C124.77 89.039 127.657 92.5292 129.368 96.6196C131.078 100.71 131.535 105.216 130.679 109.566C129.824 113.916 127.696 117.915 124.565 121.054C121.433 124.193 117.439 126.331 113.09 127.197C108.741 128.064 104.233 127.619 100.137 125.92C96.0414 124.221 92.5427 121.343 90.085 117.653C87.6274 113.963 86.3215 109.626 86.3331 105.193C86.3331 99.2833 88.677 93.6153 92.851 89.4313C97.025 85.2474 102.688 82.889 108.599 82.8735Z" fill="#F3CD2E"/>
<path fill-rule="evenodd" clip-rule="evenodd" d="M120.889 89.4634C122.993 91.1795 124.724 93.3065 125.978 95.7142C127.232 98.1218 127.981 100.76 128.181 103.467C128.381 106.174 128.026 108.893 127.139 111.459C126.252 114.024 124.852 116.382 123.023 118.388C121.194 120.394 118.975 122.006 116.502 123.126C114.028 124.246 111.353 124.85 108.638 124.901C105.924 124.953 103.227 124.45 100.713 123.425C98.1994 122.399 95.9211 120.872 94.0176 118.936C96.956 121.284 100.499 122.751 104.237 123.168C107.975 123.586 111.755 122.937 115.139 121.296C118.523 119.656 121.374 117.09 123.36 113.897C125.347 110.704 126.389 107.014 126.365 103.254C126.379 98.1248 124.418 93.1867 120.889 89.4634Z" fill="#FAF19B"/>
<path fill-rule="evenodd" clip-rule="evenodd" d="M84.2181 112.241C91.0212 112.241 96.5318 116.939 96.5318 122.813C96.5318 128.686 91.0682 133.244 84.2181 133.244C77.368 133.244 71.8926 128.545 71.8926 122.731C71.8926 116.916 77.4032 112.158 84.2181 112.158V112.241ZM84.2181 115.483C88.918 115.483 92.7367 118.737 92.7367 122.754C92.7367 126.772 88.918 130.025 84.2181 130.025C79.5182 130.025 75.6878 126.772 75.6878 122.754C75.6878 118.737 79.5064 115.483 84.2181 115.483Z" fill="#358541"/>
<path fill-rule="evenodd" clip-rule="evenodd" d="M138.901 50.9103C138.901 50.9103 173.352 65.124 174.35 83.4609C175.349 101.798 105.273 39.9034 138.901 50.9103Z" fill="#F3FFD9"/>
<path fill-rule="evenodd" clip-rule="evenodd" d="M171.812 80.5711C171.812 80.5711 155.809 62.3752 141.075 54.8102C126.341 47.2452 139.594 61.2827 153.412 72.9709C167.23 84.659 171.93 84.0716 171.812 80.5711ZM132.944 52.2611C133.038 52.7897 130.982 55.0804 141.604 65.8523C152.225 76.6241 161.003 82.4271 165.303 83.4726C169.603 84.518 171.307 83.8719 171.307 83.8719C171.307 83.8719 164.833 83.3786 157.478 77.6931C150.122 72.0076 138.044 63.0095 132.944 52.2846V52.2611ZM171.718 78.6211C167.722 73.4491 163.271 68.6451 158.418 64.2665C153.905 60.28 148.884 56.9104 143.484 54.2463C140.563 52.6441 137.38 51.5741 134.084 51.0864C133.978 51.1804 142.802 54.4225 146.926 57.0186C151.051 59.6146 156.22 62.4574 171.718 78.6211ZM148.137 63.2797C148.736 63.914 158.194 70.9974 160.486 73.7696C162.777 76.5419 150.639 67.5203 148.137 63.2797ZM168.816 79.5374C167.312 78.3627 148.536 61.0596 142.826 57.8057C137.115 54.5518 140.476 58.5692 151.133 68.8947C161.79 79.2202 171.448 82.8383 168.816 79.5374Z" fill="#D1E3AA"/>
<path fill-rule="evenodd" clip-rule="evenodd" d="M63.9495 161.284C63.9495 161.284 94.4989 160.485 101.549 174.205C108.599 187.926 35.0333 164.303 63.9495 161.284Z" fill="#F3FFD9"/>
<path fill-rule="evenodd" clip-rule="evenodd" d="M98.7049 172.808C98.7049 172.808 80.5045 164.315 66.91 163.528C53.3156 162.74 68.0262 168.978 82.361 173.23C96.6957 177.483 99.9856 175.439 98.7049 172.808ZM59.9307 164.326C60.1892 164.702 59.4372 167.146 71.0577 171.786C82.6782 176.426 91.2673 177.882 94.7922 177.201C98.3171 176.52 99.4921 175.533 99.4921 175.533C99.4921 175.533 94.4985 177.354 87.0491 175.533C79.5998 173.712 67.4975 170.893 60.0247 164.42L59.9307 164.326ZM97.9411 171.374C93.1947 168.779 88.224 166.617 83.0894 164.914C78.3651 163.39 73.4561 162.513 68.4962 162.306C65.7699 162.074 63.0241 162.333 60.3889 163.069C60.3889 163.187 68.0497 162.67 72.0212 163.257C75.9926 163.845 80.8217 164.268 97.9411 171.374ZM75.0761 167.639C75.7341 167.921 85.2279 170.117 87.8951 171.468C90.5623 172.819 78.4013 170.024 75.0761 167.639ZM96.0729 173.066C94.5337 172.643 74.5944 165.806 69.213 165.254C63.8316 164.702 67.756 166.617 79.212 170.916C90.668 175.216 99.1866 174.687 96.0729 173.066Z" fill="#D1E3AA"/>
</g>
<defs>
<clipPath id="clip0_76_15169">
<rect width="185" height="186" fill="white" transform="translate(15 15)"/>
</clipPath>
</defs>
</svg>
