<svg width="215" height="215" viewBox="0 0 215 215" fill="none" xmlns="http://www.w3.org/2000/svg">
<g clip-path="url(#clip0_246_1706)">
<path d="M11.3307 115.474C13.2439 119.117 13.8481 123.282 15.3153 127.084C26.3197 155.66 66.1081 148.853 83.8014 147.663C115.448 145.443 180.021 151.596 195.125 139.609C208.446 129.029 210.445 91.8472 190.292 82.0946C152.23 63.6634 108.932 65.8839 67.3884 68.264C50.889 69.2073 52.7734 75.7816 43.7685 77.7553C40.8915 78.3939 37.6549 77.8714 34.965 79.2066C31.0667 81.0788 29.5707 86.0711 25.9169 88.3642C23.1407 90.1057 19.3862 90.1492 17.1422 92.5148C13.5028 96.3897 19.1129 99.9599 17.3436 103.327C15.2003 107.39 6.08029 105.489 11.3307 115.474Z" fill="#F76A23" stroke="#F76A23" stroke-linecap="round" stroke-linejoin="round"/>
<path d="M16.0781 119.857C22.9828 135.531 41.0646 145.298 57.7941 142.41C42.0859 138.274 26.651 130.03 23.1411 114.023C26.5324 120.723 31.6824 126.356 38.0294 130.306C35.964 128.174 34.4053 125.597 33.4709 122.769C32.5365 119.94 32.2507 116.935 32.635 113.979C34.8935 119.784 37.2526 125.822 41.6831 130.205C48.5447 136.997 70.0643 143.919 79.4576 143.397C65.7345 137.417 64.4974 120.394 43.5963 109.263C57.4201 109.263 62.1814 129.697 77.1704 138.898C83.5141 142.802 91.8573 144.209 98.388 140.639C83.2264 133.775 67.0579 126.025 58.9305 111.41C72.2077 125.807 91.1669 133.18 109.421 140.088C89.6852 113.674 68.3094 118.812 62.052 107.492C67.0435 111.846 73.8619 113.21 80.1337 115.285C105.379 123.674 109.925 139.435 122.828 138.912C120.972 132.004 90.4764 118.87 82.5503 108.522C90.1455 110.728 95.1514 119.654 103.049 119.813C99.5149 115.934 97.4429 110.926 97.1941 105.663C102.243 122.774 128.208 135.211 131.042 135.981C125.834 125.009 109.723 120.495 108.889 107.608C117.782 120.071 129.54 130.171 143.154 137.04C129.733 121.831 122.626 115.764 126.108 111.033C132.092 121.903 139.658 134.486 152.964 134.776C146.533 130.729 141.787 124.454 139.615 117.129C144.276 124.124 149.828 131.728 158.071 133.093C153.108 127.984 147.843 122.281 147.224 115.14C152.13 122.73 158.229 131.482 167.924 131.235C162.86 128.076 159.03 123.253 157.078 117.578C163.479 124.225 171.261 131.438 180.381 130.422C175.708 127.371 172.167 122.845 170.312 117.549C172.36 120.324 174.979 122.618 177.988 124.277C180.997 125.935 184.326 126.917 187.746 127.157C183.873 123.983 180.826 119.903 178.871 115.271C188.207 122.223 200.031 116.853 200.448 110.598C200.693 106.795 196.133 104.546 192.422 104.343C184.769 103.922 177.404 107.434 169.751 107.608C164.199 107.724 158.761 106.157 153.266 105.315C148.217 104.604 143.11 104.604 138.047 104.009C122.454 102.18 107.58 94.7643 91.8861 95.3013C83.6292 95.577 75.4442 98.0732 67.2161 97.3621C57.2618 96.4913 49.379 91.3538 35.9867 94.7643C45.5238 90.5266 56.1254 91.8618 75.3292 92.8922L62.0951 84.0974C70.2801 84.4022 77.3143 95.4464 97.1797 92.8051C91.1237 81.6012 94.6624 93.7484 130.811 97.8265C113.55 86.8258 109.45 87.4499 145.513 96.8251C141.694 92.4434 136.957 88.9733 131.646 86.6662C142.319 86.6662 151.281 94.8224 161.696 97.2025C158.094 92.2934 153.455 88.2534 148.116 85.3745C158.373 82.6026 165.896 94.2419 175.735 95.5335C170.758 84.9682 157.783 77.8134 185.301 96.6945C182.002 92.5729 178.703 88.4464 175.404 84.3151C189.89 90.3524 203.282 112.601 186.61 85.5052C198.751 91.9924 200.88 106.229 197.456 93.8935C204.303 98.378 204.375 119.059 200.88 126.33C195.27 138.027 181.129 140.175 169.78 141.162C169.665 141.162 95.8563 145.516 92.5766 145.516C69.0862 146.996 19.9189 153.918 16.0781 119.857Z" fill="#FCC22D"/>
<path d="M124.079 78.4665C124.18 76.9144 124.784 75.4387 125.797 74.2666C126.811 73.0945 128.178 72.2909 129.689 71.9793C124.467 69.6863 118.699 73.4306 114.182 76.8991C114.445 75.7762 114.932 74.7187 115.611 73.7908C116.291 72.8628 117.151 72.0837 118.138 71.5004C110.87 71.2073 103.664 72.9557 97.3229 76.5508C98.1227 74.8886 99.3406 73.4671 100.855 72.4281C102.37 71.3891 104.128 70.769 105.954 70.6296C98.7598 70.797 91.7299 72.8313 85.5417 76.5363C85.938 75.1541 86.7169 73.9146 87.7871 72.9634C88.8573 72.0122 90.1742 71.3889 91.5834 71.1666C85.5031 70.6471 79.4036 71.9121 74.0195 74.8093C74.6623 73.5573 75.6287 72.5038 76.8163 71.7604C78.0039 71.0169 79.3686 70.6112 80.766 70.5861L62.8281 75.6946C66.4675 70.7893 73.3722 70.0636 79.457 69.8024C147.583 66.8998 170.081 75.3463 158.919 76.2025C152.762 76.6669 139.758 66.2613 124.079 78.4665Z" fill="#FCC22D"/>
<path d="M16.8535 104.038C21.845 96.7815 30.0588 103.704 30.7492 104.038C39.2651 107.623 46.2273 95.8818 59.3031 99.2923C63.8343 100.468 67.934 103.283 72.6522 103.385C77.3704 103.486 81.7146 100.773 86.2746 99.3503C100.573 94.9965 107.65 103.98 113.361 104.633C118.123 105.184 123.085 101.513 127.487 103.457C129.976 104.575 131.457 107.231 133.788 108.668C140.851 113.021 150.532 104.227 157.897 108.029C160.601 109.48 162.529 112.383 165.535 112.905C170.469 113.747 183.358 102.035 196.764 109.596" stroke="#F76A23" stroke-linecap="round" stroke-linejoin="round"/>
<path d="M29.3691 84.9247C57.9661 80.179 68.4671 75.0125 84.1034 79.642C89.6415 81.282 95.3091 77.7264 101.063 77.2765C109.795 76.5798 118.569 83.0816 126.841 80.179C129.718 79.1631 132.307 77.0152 135.356 76.4782C140.161 75.6365 144.678 78.9309 149.497 79.6711C161.781 81.5722 162.99 71.2391 187.674 85.9696" stroke="#F76A23" stroke-linecap="round" stroke-linejoin="round"/>
<path d="M87.7847 110.206C88.012 110.039 88.2726 109.923 88.5486 109.867C88.8245 109.812 89.1091 109.817 89.3828 109.883C89.6564 109.95 89.9125 110.075 90.1333 110.251C90.3541 110.427 90.5344 110.649 90.6616 110.903C90.9493 111.454 91.7693 112.354 91.7117 113.268C91.7117 114.487 83.9295 128.565 82.3184 130.306C79.9306 132.875 77.1543 132.178 78.1181 128.057C79.2689 122.934 83.2103 113.471 87.7847 110.206Z" fill="#90C010" stroke="#F76A23" stroke-linecap="round" stroke-linejoin="round"/>
<path d="M166.427 82.8493C166.085 82.4371 165.908 81.9101 165.932 81.3726C165.956 80.8351 166.179 80.3263 166.557 79.9468C167.132 79.1195 169.103 76.5943 170.096 76.6088C171.088 76.6233 185.099 86.6807 181.014 90.1928C177.274 93.5017 168.168 85.5777 166.427 82.8493Z" fill="#90C010" stroke="#F76A23" stroke-linecap="round" stroke-linejoin="round"/>
<path d="M29.8152 118.638C29.432 118.018 29.2822 117.28 29.3931 116.558C29.504 115.836 29.8682 115.179 30.4193 114.705C31.0523 113.979 34.4183 110.453 35.2814 110.612C36.1445 110.772 42.1142 125.401 37.9282 128.028C33.1956 130.945 30.8365 121.236 29.8152 118.638Z" fill="#90C010" stroke="#F76A23" stroke-linecap="round" stroke-linejoin="round"/>
<path d="M167.895 103.211C170.24 106.36 167.392 119.044 163.062 116.345C159.322 114.023 162.975 108.334 163.608 105.286C164.213 102.471 166.514 101.368 167.895 103.211Z" fill="#90C010" stroke="#F76A23" stroke-linecap="round" stroke-linejoin="round"/>
<path d="M132.048 79.1486C131.206 78.5779 130.562 77.7558 130.206 76.7976C129.617 74.4465 132.94 70.7167 137.715 76.0574C139.441 78.0021 144.908 81.7029 140.909 83.3138C137.672 84.649 134.177 80.9337 132.048 79.1486Z" fill="#90C010" stroke="#F76A23" stroke-linecap="round" stroke-linejoin="round"/>
<path d="M127.617 112.499C130.063 109.277 131.026 117.201 129.171 121.453C127.833 124.501 126.092 124.69 124.942 121.453C123.661 118.028 125.589 115.184 127.617 112.499Z" fill="#90C010" stroke="#F76A23" stroke-linecap="round" stroke-linejoin="round"/>
<path d="M81.0828 82.7332C80.2485 77.4215 83.557 74.0255 84.5208 74.3448C85.0818 74.5625 90.4905 89.9606 87.9156 91.9488C84.7222 94.416 81.3849 84.6344 81.0828 82.7332Z" fill="#90C010" stroke="#F76A23" stroke-linecap="round" stroke-linejoin="round"/>
<path d="M191.63 117.114C192.954 121.947 191.976 123.166 190.062 124.777C188.149 126.388 182.453 131.264 183.158 125.14C183.417 122.948 191.63 117.143 191.63 117.114Z" fill="#90C010" stroke="#F76A23" stroke-linecap="round" stroke-linejoin="round"/>
<path d="M46.0838 86.8985C45.3214 83.6331 40.3299 85.5778 41.4663 89.3656C41.941 92.9068 46.5873 90.6863 46.0838 86.8985Z" fill="#BF2704"/>
<path d="M64.0793 87.9868C63.1874 84.8231 58.1527 86.1582 58.2534 88.6689C58.6994 92.0504 64.6835 92.3987 64.0793 87.9868Z" fill="#BF2704"/>
<path d="M50.3855 123.514C49.7957 120.844 47.0914 119.973 45.7104 121.787C44.1569 123.238 44.4877 126.344 46.516 127.012C47.0177 127.223 47.5685 127.287 48.1047 127.196C48.6408 127.104 49.1404 126.862 49.5454 126.496C49.9504 126.13 50.2442 125.655 50.3929 125.127C50.5416 124.6 50.539 124.04 50.3855 123.514Z" fill="#BF2704"/>
<path d="M72.9398 117.927C70.1779 115.779 65.6323 118.943 68.6243 121.265C72.4363 123.5 74.8817 119.741 72.9398 117.927Z" fill="#BF2704"/>
<path d="M53.1765 104.691C52.551 104.739 51.9666 105.024 51.5402 105.488C51.1138 105.952 50.877 106.562 50.877 107.194C50.877 107.827 51.1138 108.437 51.5402 108.901C51.9666 109.365 52.551 109.65 53.1765 109.698C53.8019 109.65 54.3863 109.365 54.8127 108.901C55.2391 108.437 55.476 107.827 55.476 107.194C55.476 106.562 55.2391 105.952 54.8127 105.488C54.3863 105.024 53.8019 104.739 53.1765 104.691Z" fill="#BF2704"/>
<path d="M105.191 106.708C104.415 103.907 100.444 105.417 100.977 107.811C100.977 110.235 105.666 110.235 105.191 106.708Z" fill="#BF2704"/>
<path d="M101.106 125.227C99.0349 120.278 95.0503 125.778 97.6396 127.534C98.9198 128.942 101.466 127.912 101.106 125.227Z" fill="#BF2704"/>
<path d="M128.465 90.9911C128.108 90.7793 127.702 90.665 127.288 90.6594C126.873 90.6538 126.465 90.7571 126.102 90.9592C125.739 91.1612 125.435 91.4551 125.218 91.8118C125.002 92.1686 124.882 92.5759 124.869 92.9938C125.689 99.1182 132.68 93.197 128.465 90.9911Z" fill="#BF2704"/>
<path d="M97.883 86.521C96.1424 87.6676 97.7967 90.8749 99.1488 91.1506C103.939 92.6599 100.645 83.7781 97.883 86.521Z" fill="#BF2704"/>
<path d="M122.496 72.3131C122.416 71.8022 122.168 71.3334 121.792 70.9819C121.416 70.6303 120.933 70.4165 120.422 70.3746C119.911 70.3328 119.401 70.4654 118.974 70.7511C118.546 71.0368 118.227 71.4592 118.066 71.9503C117.03 75.3027 123.388 75.6801 122.496 72.3131Z" fill="#BF2704"/>
<path d="M160.803 85.7809C160.483 85.2883 159.982 84.9442 159.41 84.8244C158.838 84.7047 158.242 84.8191 157.754 85.1424C157.265 85.4657 156.924 85.9715 156.806 86.5485C156.687 87.1255 156.8 87.7264 157.121 88.2191C157.998 90.9185 162.501 88.7125 160.803 85.7809Z" fill="#BF2704"/>
<path d="M145.569 125.111C145.698 121.7 140.534 121.845 140.52 125.111C141.081 129.377 145.684 128.086 145.569 125.111Z" fill="#BF2704"/>
<path d="M167.203 124.922C166.412 122.498 162.14 123.471 162.787 126.141C162.787 126.533 163.262 128.042 164.226 128.318C166.182 129.348 168.066 126.576 167.203 124.922Z" fill="#BF2704"/>
<path d="M148.59 98.3636C147.684 94.4886 143.196 98.1459 145.181 100.134C146.404 101.498 149.31 100.526 148.59 98.3636Z" fill="#BF2704"/>
<path opacity="0.2" d="M36.3316 118.783C35.7275 113.921 33.2101 114.676 32.8074 116.069C31.6853 119.813 37.468 127.854 36.3316 118.783Z" fill="white"/>
<path opacity="0.2" d="M82.1909 123.267C82.0614 124.443 83.7013 124.428 84.0753 123.514C84.7226 121.932 86.0891 120.771 86.6214 119.16C87.2687 117.187 82.9964 115.866 82.1909 123.267Z" fill="white"/>
<path opacity="0.2" d="M85.9726 81.6157C85.7281 79.0615 83.5848 77.8569 82.9374 80.774C82.1894 84.228 86.5912 87.7691 85.9726 81.6157Z" fill="white"/>
<path opacity="0.2" d="M174.368 82.3124C172.542 79.6421 169.708 80.2661 169.952 81.4126C171.046 86.4921 175.821 84.4313 174.368 82.3124Z" fill="white"/>
<path opacity="0.2" d="M133.875 75.2302C132.954 75.2302 132.436 76.6815 133.371 77.1459C133.881 77.4017 134.336 77.7568 134.709 78.1908C138.823 82.5446 140.161 74.8528 133.875 75.2302Z" fill="white"/>
<path opacity="0.2" d="M33.6702 91.1652C28.9664 88.3933 23.5001 92.5294 20.9828 96.3753C20.812 96.6917 20.7472 97.0554 20.7982 97.412C20.8492 97.7687 21.0132 98.099 21.2658 98.3538C21.5183 98.6086 21.8458 98.7741 22.1993 98.8255C22.5527 98.877 22.9132 98.8117 23.2268 98.6393C27.1683 96.027 38.0863 93.734 33.6702 91.1652Z" fill="white"/>
<path opacity="0.2" d="M15.9184 111.135C15.8868 111.475 15.9751 111.815 16.1676 112.096C16.3601 112.376 16.6445 112.58 16.9709 112.67C17.2972 112.76 17.6447 112.731 17.952 112.588C18.2594 112.446 18.5071 112.198 18.6515 111.889C21.7586 106.273 29.3538 113.428 34.7481 110.438C42.8036 106.113 16.1629 99.0021 15.9184 111.135Z" fill="white"/>
<path opacity="0.2" d="M94.3598 102.558C90.8499 98.0297 78.6372 102.558 79.975 107.434C80.2627 108.537 85.3692 106.621 86.0741 106.462C88.4764 105.954 91.2239 106.868 93.4823 106.084C93.8271 105.975 94.1384 105.778 94.3864 105.513C94.6344 105.247 94.8108 104.922 94.8988 104.569C94.9868 104.215 94.9835 103.844 94.8891 103.492C94.7947 103.14 94.6125 102.818 94.3598 102.558Z" fill="white"/>
<path opacity="0.2" d="M115.95 82.6897C110.887 77.6247 96.7036 80.7159 109.319 85.7228C116.986 88.7705 117.475 84.2135 115.95 82.6897Z" fill="white"/>
<path opacity="0.2" d="M166.025 108.015C163.062 106.81 163.249 115.59 165.291 112.644C166.212 111.251 167.507 108.581 166.025 108.015Z" fill="white"/>
</g>
<defs>
<clipPath id="clip0_246_1706">
<rect width="197" height="84" fill="white" transform="translate(9 66)"/>
</clipPath>
</defs>
</svg>
