<svg width="215" height="215" viewBox="0 0 215 215" fill="none" xmlns="http://www.w3.org/2000/svg">
<g clip-path="url(#clip0_76_15163)">
<path fill-rule="evenodd" clip-rule="evenodd" d="M43.0504 55.9583L63.0201 54.7205L58.4591 61.8724L38.3799 62.9589C38.3799 62.9589 42.9956 56.0821 43.0504 55.9583Z" fill="#00C36C"/>
<path fill-rule="evenodd" clip-rule="evenodd" d="M131.544 24.6825L139.447 32.2195L143.953 53.015L134.79 44.1026L131.544 24.6825Z" fill="#006B43"/>
<path fill-rule="evenodd" clip-rule="evenodd" d="M39.2562 144.903L59.13 164.681L47.5975 166.565L27.71 146.512C27.71 146.512 39.1466 144.889 39.2562 144.903Z" fill="#00C36C"/>
<path fill-rule="evenodd" clip-rule="evenodd" d="M104.918 194.87L117.519 187.869L136.489 191.968L121.779 200L104.918 194.87Z" fill="#006B43"/>
<path fill-rule="evenodd" clip-rule="evenodd" d="M178.113 122.842L193.988 110.464L194.166 118.977L178.113 131.204C178.113 131.204 178.113 122.856 178.113 122.773V122.842Z" fill="#00C36C"/>
<path fill-rule="evenodd" clip-rule="evenodd" d="M115.136 24.5175C115.136 24.5175 125.724 35.2178 130.38 43.3324C135.037 51.4471 138.475 62.8351 127.86 70.9497C117.245 79.0643 117.889 87.9217 102.207 82.0489C86.5239 76.1761 84.579 76.2173 80.47 70.991C76.361 65.7646 115.136 24.5175 115.136 24.5175Z" fill="#C5C6C9"/>
<path fill-rule="evenodd" clip-rule="evenodd" d="M116.602 27.1857C116.602 27.1857 124.477 36.5932 126.189 44.144C127.901 51.6947 124.107 59.4242 120.464 62.2712C116.821 65.1182 118.464 69.6019 103.028 73.2741C87.5921 76.9464 89.811 76.7951 81.7848 73.2741C77.7084 71.3481 74.1366 68.4922 71.3544 64.9342C68.5721 61.3762 66.6562 57.2146 65.7597 52.7812C64.1435 44.144 86.6197 -4.75017 116.615 27.1857H116.602Z" fill="#FFC250"/>
<path fill-rule="evenodd" clip-rule="evenodd" d="M93.8788 22.0143C93.8788 22.0143 101.604 19.016 106.206 22.0143C110.808 25.0126 109.685 34.3926 112.369 31.6419C115.054 28.8911 117.56 35.988 119.218 39.5915C120.875 43.1949 123.08 43.8276 120.039 47.0872C116.999 50.3468 114.561 47.8436 111.575 50.9932C108.589 54.1428 109.493 54.7342 106.973 56.8385C104.453 58.9428 102.59 61.4047 98.8781 62.4637C95.1664 63.5228 92.9338 66.136 89.6055 66.356C86.2772 66.5761 84.1269 63.9629 79.6481 60.8546C75.1693 57.7463 74.8954 59.8781 75.1967 57.7875C75.498 55.697 78.1004 53.5789 76.5664 53.5789C75.0323 53.5789 72.7861 57.8563 71.5945 55.3806C70.4029 52.905 70.5535 52.1623 71.074 46.7571C71.5945 41.3519 73.4435 38.5049 76.0459 38.1473C78.6482 37.7897 79.3194 40.2654 78.4291 36.0155C77.5388 31.7657 79.3194 29.8126 80.7301 29.4413C82.1409 29.0699 84.5104 25.3977 87.2634 24.6413C90.0165 23.8848 89.5645 25.2464 92.3038 25.9204C95.0431 26.5943 92.3038 22.5095 93.9337 22.0281L93.8788 22.0143Z" fill="#FFD177"/>
<path fill-rule="evenodd" clip-rule="evenodd" d="M126.353 50.952C125.765 55.3025 123.676 59.3081 120.45 62.2713C116.821 65.1183 118.451 69.6019 103.014 73.2742C87.5783 76.9464 89.7972 76.7951 81.7709 73.2742C76.1111 70.6385 71.4715 66.2068 68.5674 60.6621C71.9504 63.0277 76.6347 66.1635 80.2917 68.3366C86.7565 72.0776 88.5097 71.3349 94.1801 68.3366C99.8505 65.3383 110.616 58.5165 119.793 55.1469C122.263 54.2894 124.507 52.8784 126.353 51.0208V50.952Z" fill="#FFC250"/>
<path fill-rule="evenodd" clip-rule="evenodd" d="M109.699 61.0747C109.616 59.8644 110.137 54.7893 110.205 47.321C110.274 39.8528 111.465 33.0998 109.685 37.4459C107.904 41.7921 107.836 48.6276 104.946 50.1956C102.056 51.7635 101.44 52.1623 98.7824 49.7417C96.1252 47.321 90.5644 41.9709 87.9347 39.0276C85.3049 36.0843 83.9353 37.2947 86.387 40.0729C88.8387 42.8511 98.4126 51.7635 99.0016 55.2019C99.5905 58.6403 102.302 61.1985 96.1252 61.1985C89.9481 61.1985 80.47 60.3732 85.1679 62.5738C89.8659 64.7744 98.7002 65.3245 102.111 63.9492C105.521 62.5738 109.685 61.1022 109.767 61.1985L109.699 61.0747ZM97.2621 29.8952C97.2621 29.8952 101.604 36.4144 100.864 38.2987C100.125 40.1829 98.5222 34.2826 97.2621 32.3296C96.002 30.3766 95.4541 29.2625 97.2621 29.8952Z" fill="#FFC250"/>
<path d="M68.019 35.3004C69.9973 31.3018 72.7492 27.739 76.1138 24.8201C79.4812 21.7696 83.3329 19.3059 87.5094 17.5307C94.2344 14.6699 100.713 14.1611 106.507 16.3616C111.985 18.4384 116.779 22.8946 120.518 29.9915L121.066 31.0092C128.503 45.1067 131.339 50.4706 121.778 55.7658C118.19 57.7738 114.93 59.3417 111.752 60.8821C107.27 62.9642 102.908 65.2968 98.6858 67.869C97.59 68.5429 96.5902 69.2443 95.6999 69.7945C89.5912 73.8243 88.112 74.787 80.1953 70.1383C76.386 68.0736 72.8128 65.597 69.5394 62.7526C66.609 60.2721 64.7125 56.7774 64.2251 52.96C63.7046 48.2013 65.5948 42.1772 66.9644 38.505H66.8685L68.0464 35.2316L68.019 35.3004ZM78.3463 27.3508C75.4372 29.851 73.0293 32.8851 71.2515 36.2906C71.1023 36.9297 70.9007 37.5554 70.6488 38.1611C69.5257 41.2144 67.0466 47.8987 67.5671 52.6437C67.9847 55.6456 69.5038 58.3827 71.8267 60.3182C74.9276 62.9592 78.2974 65.2642 81.8801 67.195C88.0025 70.7985 89.1529 70.042 93.8782 66.9337C94.7411 66.3698 95.7273 65.7234 96.9189 64.967C101.248 62.3348 105.72 59.9471 110.314 57.8151C113.478 56.2884 116.711 54.7205 120.162 52.7812C126.819 49.0678 124.422 44.5291 118.108 32.5496L117.56 31.5319C114.231 25.1915 110.04 21.2717 105.329 19.4837C100.371 17.5995 94.7412 18.1083 88.8106 20.5978C84.9735 22.2261 81.4362 24.4903 78.3463 27.2958V27.3508Z" fill="#FFE7B8"/>
<path fill-rule="evenodd" clip-rule="evenodd" d="M54.816 72.724C54.816 72.724 66.6225 82.0077 72.2518 89.4897C77.8811 96.9716 85.2636 112.541 75.7171 121.907C66.1706 131.273 65.2939 135.289 49.0223 131.424C32.7507 127.56 30.8606 127.794 26.0257 123.172C21.1908 118.551 54.7886 72.779 54.7886 72.779L54.816 72.724Z" fill="#C5C6C9"/>
<path fill-rule="evenodd" clip-rule="evenodd" d="M56.5831 72.9027C56.5831 72.9027 67.2527 78.8718 71.485 85.281C75.7173 91.6902 74.8954 100.314 72.4985 104.275C70.1016 108.236 73.1834 111.853 60.0346 120.779C46.8859 129.705 48.913 128.797 40.1745 128.371C35.6894 128.028 31.3469 126.634 27.4957 124.301C23.6446 121.967 20.3921 118.759 17.9997 114.934C13.4661 107.424 17.3422 53.6614 56.5831 72.8202V72.9027Z" fill="#FFC250"/>
<path fill-rule="evenodd" clip-rule="evenodd" d="M33.5312 76.1761C33.5312 76.1761 39.6947 70.6746 44.9816 71.8024C50.2685 72.9302 52.5832 82.1177 54.1035 78.5692C55.6238 75.0208 60.4999 80.7835 63.2803 83.5618C66.0607 86.34 68.3754 86.1475 66.677 90.2735C64.9786 94.3996 61.8011 92.9555 60.1301 96.9578C58.4591 100.96 59.5 101.194 57.8701 104.068C56.2402 106.943 55.3773 109.914 52.2681 112.211C49.159 114.507 48.0085 117.781 44.9542 119.184C41.8998 120.587 39.0509 118.867 33.7366 117.616C28.4224 116.364 28.9565 118.4 28.4908 116.337C28.0251 114.274 29.7509 111.372 28.3402 111.908C26.9294 112.444 26.2994 117.258 24.3271 115.36C22.3548 113.462 22.2178 112.719 20.8207 107.479C19.4237 102.239 20.1496 98.9246 22.4506 97.6455C24.7517 96.3664 26.2446 98.457 23.9162 94.8122C21.5878 91.1675 22.5465 88.6919 23.7655 87.8392C24.9845 86.9864 25.8885 82.6953 28.2032 80.9623C30.518 79.2294 30.559 80.701 33.3668 80.3434C36.1746 79.9858 32.1752 77.1526 33.5312 76.1211V76.1761Z" fill="#FFD177"/>
<path fill-rule="evenodd" clip-rule="evenodd" d="M74.4702 88.637C75.4974 93.602 76.4973 99.7912 74.8263 102.542C72.5253 106.31 73.1416 112.94 59.2533 123.324C45.3649 133.708 47.5427 128.825 40.1739 128.454C33.9063 128.246 27.9339 125.73 23.3955 121.384C27.3949 122.388 32.901 123.695 37.0921 124.369C44.4335 125.552 45.7758 124.245 50.0765 119.404C54.3772 114.563 64.5401 102.157 69.4024 97.9069C74.2647 93.657 73.6484 90.6587 74.4976 88.637H74.4702Z" fill="#FFC250"/>
<path fill-rule="evenodd" clip-rule="evenodd" d="M62.0066 107.039C61.5136 105.953 60.2261 101.015 57.6511 93.9321C55.0761 86.849 53.8297 80.1785 53.6928 84.8959C53.5558 89.6134 58.103 96.2427 55.9527 98.7459C53.8023 101.249 51.1315 101.607 47.7347 100.286C44.3379 98.9659 44.516 91.6215 37.5444 91.6215C30.5728 91.6215 35.9419 92.3092 39.2154 94.0146C42.4889 95.7201 46.9266 102.528 49.8303 105.251C52.734 107.975 55.0213 109.68 49.2414 111.894C43.4614 114.109 34.3121 116.722 39.4209 117.176C44.5298 117.63 53.0353 114.851 55.761 112.376C58.4866 109.9 61.8422 106.998 61.9381 107.039H62.0066ZM27.1487 106.833C27.1487 106.833 33.1067 104.467 37.2979 105.196C41.489 105.925 45.2145 105.705 45.105 106.269C44.9954 106.833 41.1878 107.411 38.1197 106.833C35.1864 106.184 32.1397 106.265 29.2442 107.067C27.1487 107.892 25.8338 107.438 27.1487 106.833ZM39.4757 82.3378C39.4757 82.3378 45.8309 86.8765 45.7898 88.8983C45.7487 90.92 42.2013 85.9825 40.3111 84.6071C38.421 83.2318 37.5718 82.379 39.4482 82.3378H39.4757Z" fill="#FFC250"/>
<path d="M14 97.8518C14.4453 93.4013 15.7726 89.0851 17.9036 85.1572C19.9789 81.0989 22.7147 77.4173 25.9983 74.2644C31.2852 69.1755 37.1611 66.3973 43.3519 66.3835C49.2004 66.3835 55.2543 68.8179 61.2397 74.1131L62.1026 74.8833C74.005 85.3911 78.5385 89.4071 71.4711 97.8106C68.8139 100.974 66.3212 103.601 63.8832 106.187C60.4167 109.736 57.1517 113.478 54.1038 117.396C53.323 118.414 52.6246 119.39 51.9945 120.256C47.6801 126.198 46.6391 127.642 37.6131 126.129C33.3298 125.544 29.1198 124.507 25.0532 123.035C21.4474 121.75 18.4488 119.16 16.6435 115.773C14.5068 111.495 14.1781 105.183 14.1233 101.276H14.0411V97.7968L14 97.8518ZM20.8483 86.7251C19.0137 90.1109 17.8202 93.809 17.3284 97.6318C17.4153 98.2789 17.4519 98.9319 17.4379 99.5848C17.4379 102.844 17.4379 109.983 19.6157 114.232C21.0642 116.887 23.4479 118.903 26.2996 119.885C30.1287 121.275 34.0965 122.243 38.1335 122.773C45.1325 123.956 45.9269 122.842 49.2552 118.248C49.8715 117.409 50.5563 116.447 51.4192 115.319C54.5388 111.309 57.8815 107.479 61.4314 103.848C63.8694 101.276 66.3348 98.6633 68.8824 95.5962C73.8132 89.7234 69.9645 86.3263 59.8701 77.4002L59.0072 76.63C53.6655 71.9125 48.3786 69.7532 43.3382 69.7532C38.0513 69.7532 32.9425 72.2288 28.2719 76.63C25.2587 79.5317 22.7455 82.9152 20.8347 86.6426L20.8483 86.7251Z" fill="#FFE7B8"/>
<path fill-rule="evenodd" clip-rule="evenodd" d="M51.8985 176.124C51.8985 176.124 66.4854 193.577 79.2917 195.489C92.0981 197.401 98.8231 197.827 107.835 189.217C116.848 180.607 116.505 176.839 115.451 167.982C114.63 162.291 112.648 156.831 109.63 151.945C91.3589 162.182 71.9855 170.294 51.8848 176.124H51.8985Z" fill="#C5C6C9"/>
<path fill-rule="evenodd" clip-rule="evenodd" d="M104.945 144.174C104.945 144.174 118.943 156.25 114.163 171.076C109.383 185.903 97.1107 189.987 86.1808 192.312C75.2509 194.636 53.035 188.502 51.7749 170.567C50.5148 152.633 50.9532 151.628 61.075 142.083C64.7298 138.487 69.2478 135.9 74.191 134.572C79.1343 133.244 84.3352 133.221 89.29 134.505C96.467 136.142 104.945 144.215 104.945 144.215V144.174Z" fill="#FFC250"/>
<path fill-rule="evenodd" clip-rule="evenodd" d="M80.8669 138.301C78.7049 138.862 76.614 139.67 74.6349 140.708C70.3479 142.757 72.101 142.565 68.1016 143.459C64.1022 144.353 63.3626 145.247 61.5547 149.909C59.7467 154.572 56.8293 151.807 55.6925 155.191C54.5557 158.574 60.1028 160.555 61.5547 164.268C63.0065 167.982 57.4457 170.746 58.8153 175.697C60.185 180.649 65.3349 182.368 72.2654 182.285C79.1959 182.203 88.8931 182.643 85.4279 181.226C81.9626 179.81 77.7304 178.572 79.7712 178.077C81.812 177.582 84.4828 179.356 87.9207 177.004C91.3585 174.652 93.1665 175.794 90.66 173.057C88.1535 170.32 84.4143 168.023 86.8112 167.954C89.2082 167.885 89.7149 167.734 89.5506 166.139C89.3862 164.543 89.7971 164.488 90.9202 163.498C92.0434 162.508 89.8519 158.89 91.5229 158.643C93.1939 158.395 93.1665 170.939 95.8921 170.746C98.6177 170.554 99.1519 160.458 100.494 162.728C101.836 164.997 99.1245 170.98 100.796 171.324C102.467 171.668 107.11 158.684 107.397 162.026C107.685 165.368 103.836 172.328 105.329 173.029C106.822 173.731 112.177 162.714 110.808 159.001C109.438 155.287 106.699 156.607 103.302 152.495C99.9052 148.383 99.7956 146.237 97.6727 143.761C95.5497 141.286 90.975 136.39 80.9765 138.26L80.8669 138.301ZM91.3859 144.532C91.3859 144.532 92.7555 149.015 91.9885 151.945C91.2215 154.874 90.1533 151.78 90.5231 149.469C90.8929 147.159 89.5505 144.986 90.1943 144.573C90.3723 144.459 90.579 144.399 90.7901 144.399C91.0011 144.399 91.2078 144.459 91.3859 144.573V144.532ZM76.3196 176.523C72.8319 175.324 69.2204 174.526 65.5541 174.143C63.8009 174.226 68.5399 175.519 70.8546 176.069C73.1694 176.619 77.2236 178.421 77.3058 177.513C77.388 176.605 76.3196 176.523 76.3196 176.523ZM81.7982 166.648C77.4838 164.172 71.1149 159.564 70.8409 160.885C70.567 162.205 76.0183 164.543 78.3467 166.152C80.6752 167.762 84.1404 167.885 81.8531 166.648H81.7982Z" fill="#FFD177"/>
<path d="M69.8276 139.195C69.0743 139.484 56.5419 144.38 54.3916 153.513C53.2629 158.145 52.9706 162.943 53.5287 167.679C53.9442 171.673 55.3112 175.509 57.5143 178.861C60.5139 183.111 66.5815 184.073 71.6767 184.885C73.3066 185.132 74.868 185.38 76.1691 185.696C79.0728 186.384 87.1265 183.963 94.6323 180.03C100.412 176.976 105.59 173.07 107.521 169.096C109.397 164.886 109.646 160.125 108.219 155.741C106.919 151.691 104.976 147.878 102.467 144.449C100.222 140.902 96.8399 138.229 92.879 136.871C87.8935 135.289 80.6891 135.399 69.8687 139.195H69.8276ZM50.7893 152.66C53.4602 141.313 68.595 135.716 68.595 135.702C80.2782 131.576 88.2496 131.576 93.9063 133.336C98.6594 134.919 102.729 138.088 105.439 142.317C108.192 146.072 110.315 150.253 111.726 154.696C113.433 159.948 113.11 165.653 110.822 170.677C108.589 175.477 102.7 179.947 96.3032 183.331C88.0852 187.622 78.9222 190.207 75.3062 189.327C73.9366 189.011 72.567 188.791 71.074 188.557C65.2804 187.636 58.3773 186.549 54.4874 181.02C51.9278 177.168 50.3347 172.751 49.8443 168.147C49.2275 162.971 49.5383 157.726 50.7619 152.66H50.7893Z" fill="#FFE7B8"/>
<path fill-rule="evenodd" clip-rule="evenodd" d="M133.215 89.1595C133.215 89.1595 142.707 97.4117 145.405 108.58C148.103 119.748 150.117 121.934 142.104 127.491C134.092 133.047 131.558 135.564 124.819 140.433C118.08 145.302 111.698 147.777 102.124 138.329C92.5497 128.88 89.7967 124.726 88.0162 118.702C86.2356 112.678 133.215 89.1595 133.215 89.1595Z" fill="#C5C6C9"/>
<path fill-rule="evenodd" clip-rule="evenodd" d="M134.489 89.8885C134.489 89.8885 140.105 91.2639 142.707 104.632C145.309 118.001 144.748 120.738 130.887 128.467C117.026 136.197 120.34 140.007 110.342 138.893C100.343 137.779 89.5913 127.959 85.3317 117.973C81.072 107.988 78.1683 100.094 83.1676 91.3051C88.1669 82.5166 96.7684 77.0564 104.11 77.3177C111.451 77.579 123.614 82.5028 125.805 84.1945C127.997 85.8862 134.53 89.916 134.53 89.916L134.489 89.8885Z" fill="#FFC250"/>
<path fill-rule="evenodd" clip-rule="evenodd" d="M96.8093 84.5521C99.9166 83.626 103.162 83.2582 106.397 83.4656C111.876 83.8094 110.506 84.9647 115.601 84.841C117.489 84.7969 119.364 85.1596 121.101 85.9045C122.837 86.6495 124.395 87.7594 125.668 89.1596C127.531 91.0851 127.75 92.0341 130.421 94.9774C133.092 97.9207 134.27 95.8439 134.667 102.033C135.064 108.222 136.872 111.385 134.27 113.531C131.667 115.677 130.352 115.36 125.956 117.973C121.559 120.587 117.888 122.32 118.423 121.192C118.957 120.064 124.216 115.512 122.655 115.044C121.093 114.576 116.368 118.84 115.697 118.29C115.026 117.74 114.053 117.492 115.574 114.164C117.094 110.835 118.957 107.507 118.409 105.678C117.861 103.848 115.875 103.642 114.793 107.191C113.711 110.739 112.054 108.992 111.355 113.132C110.657 117.272 110.246 119.335 109.177 117.795C108.109 116.254 108.602 115.278 106.986 112.417C105.37 109.556 103.603 110.767 104.507 107.947C105.411 105.128 105.876 105.279 104.671 103.463C103.466 101.648 101.521 99.4198 101.754 101.799C101.987 104.179 102.959 103.876 102.151 106.627C101.343 109.377 102.452 110.684 104.411 113.6C106.37 116.516 108.794 119.101 107.356 119.871C105.918 120.642 102.48 117.657 99.9458 112.5C97.4119 107.342 98.7816 107.906 96.0286 105.994C93.2756 104.082 92.9194 101.359 91.221 101.992C89.5227 102.624 93.2345 106.214 94.3165 109.983C94.9708 112.742 96.1932 115.332 97.905 117.588C99.8773 120.504 102.219 123.97 100.644 124.025C99.0692 124.08 88.6872 115.924 87.8928 113.022C87.0984 110.12 84.1126 105.155 84.8659 102.899C85.6192 100.644 87.4956 98.347 89.3036 95.6513C91.1115 92.9556 89.3036 92.433 91.9744 89.9436C94.6453 87.4542 92.9879 85.1023 96.7819 84.6072L96.8093 84.5521Z" fill="#FFD177"/>
<path d="M97.6588 76.5612C97.6588 76.5612 107.972 74.4569 117.135 78.4868C125.518 82.1727 126.12 82.6129 130.531 85.3636L131.202 85.8037C134.011 87.4501 136.365 89.7764 138.05 92.5705C140.095 96.4251 141.145 100.733 141.105 105.1C141.324 110.808 140.899 114.521 138.461 117.616C136.023 120.71 132.051 122.718 124.929 125.263C121.725 126.388 118.615 127.768 115.629 129.389C110.438 132.14 108.37 133.24 100.563 129.664C96.3285 127.926 92.4265 125.465 89.03 122.388C86.3147 119.592 84.0669 116.373 82.3734 112.857C80.2094 108.813 77.3879 103.312 78.4151 96.8754C79.4423 90.4387 84.2224 83.4656 97.2068 76.6438L97.426 76.52H97.6863L97.6588 76.5612ZM115.711 81.7739C108.37 78.5418 100.111 79.7658 98.5902 80.0409C86.9892 86.1888 82.7432 92.1991 81.894 97.508C81.0448 102.817 83.5651 107.658 85.4689 111.262C87.0011 114.441 89.026 117.357 91.468 119.899C94.5742 122.689 98.1376 124.918 102.001 126.487C108.205 129.334 109.835 128.481 113.917 126.308C117.054 124.59 120.319 123.119 123.682 121.907C130.147 119.61 133.777 117.781 135.626 115.429C137.475 113.077 137.68 110.106 137.502 105.265C137.554 101.495 136.674 97.7717 134.941 94.4272C133.541 92.1537 131.603 90.2636 129.298 88.9258L128.627 88.4856C124.395 85.7349 123.792 85.3911 115.711 81.8289V81.7739Z" fill="#FFE7B8"/>
<path fill-rule="evenodd" clip-rule="evenodd" d="M168.539 128.646C170.073 128.11 186.974 147.764 186.769 161.517C186.564 175.271 175.647 188.309 161.43 189.836C147.213 191.363 137.42 181.68 132.982 174.363C128.545 167.046 165.964 129.141 168.594 128.646H168.539Z" fill="#C5C6C9"/>
<path fill-rule="evenodd" clip-rule="evenodd" d="M180.263 146.677C180.263 146.677 185.564 151.106 182.934 163.333C180.304 175.56 169.059 178.049 162.731 180.8C156.404 183.551 146.569 186.865 140.283 183.702C133.996 180.539 126.928 171.42 124.052 162.604C121.176 153.788 123.847 144.147 130.133 136.472C136.42 128.797 142.46 124.094 150.87 122.718C159.28 121.343 164.43 125.978 169.073 129.87C173.716 133.763 180.263 146.718 180.263 146.718V146.677Z" fill="#FFC250"/>
<path fill-rule="evenodd" clip-rule="evenodd" d="M182.906 151.381C183.926 155.299 183.926 159.415 182.906 163.333C180.263 175.546 169.032 178.049 162.704 180.8C156.376 183.551 146.542 186.865 140.255 183.702C136.604 181.62 133.434 178.784 130.955 175.381C134.347 177.607 138.187 179.053 142.2 179.617C152.062 180.387 165.32 174.556 171.826 169.66C178.332 164.763 182.359 159.523 182.879 151.381H182.906Z" fill="#FFC250"/>
<path fill-rule="evenodd" clip-rule="evenodd" d="M149.761 130.008C149.761 130.008 154.034 128.853 160.417 131.273C166.799 133.694 166.224 134.382 167.964 139.842C169.703 145.302 171.182 143.431 172.744 146.457C174.305 149.483 169.511 163.264 167.731 161.71C165.95 160.156 168.511 143.129 166.361 145.948C164.211 148.768 163.937 159.427 161.732 158.615C159.526 157.804 154.212 145.948 154.157 148.479C154.103 151.01 158.924 156.731 157.129 157.969C155.335 159.207 154.746 159.097 157.869 162.962C160.992 166.826 162.54 167.088 160.376 168.243C158.212 169.398 145.035 169.756 145.063 170.746C145.09 171.736 145.775 173.648 150.13 173.923C154.486 174.198 153.664 175.615 153.664 175.615C153.664 175.615 143.132 177.994 141.159 176.275C139.187 174.556 142.351 172.025 140.022 171.351C137.694 170.677 134.845 170.485 134.64 168.601C134.434 166.716 136.009 161.627 134.475 161.545C132.941 161.462 131.024 166.799 129.887 162.92C128.75 159.042 127.832 153.953 130.585 151.601C133.338 149.249 131.955 148.589 132.818 144.518C133.681 140.447 135.735 138.012 139.831 134.533C143.926 131.053 146.021 131.535 145.487 133.488C144.953 135.441 146.857 133.941 147.419 132.401C147.884 131.377 148.687 130.547 149.692 130.049L149.761 130.008ZM153.733 157.9C152.24 156.896 145.734 151.56 145.213 153.637C144.693 155.713 154.171 159.661 153.733 157.9Z" fill="#FFD177"/>
<path d="M140.091 181.625C135.503 180.525 130.901 176.605 127.394 171.805C123.71 166.758 121.19 160.637 121.162 155.741C120.974 151.23 121.822 146.735 123.642 142.606C125.614 138.343 129.038 134.01 134.886 129.141C140.735 124.273 145.077 121.907 149.062 120.999C153.048 120.091 156.705 120.683 161.033 121.714L161.773 121.921C166.265 123.434 172.004 129.485 176.442 136.39C180.88 143.294 184.14 151.243 183.646 156.525C183.646 156.818 183.605 157.107 183.523 157.391C182.373 163.883 175.785 169.687 167.936 174.019C157.76 179.631 145.214 182.836 140.091 181.625ZM130.188 169.467C133.12 173.511 136.872 176.77 140.461 177.623C144.94 178.696 156.418 175.601 165.991 170.306C173.045 166.414 178.948 161.407 179.88 156.167C179.88 156.016 179.88 155.851 179.88 155.658C180.263 151.436 177.373 144.655 173.429 138.494C169.484 132.332 164.594 127.037 161.006 125.84C160.872 125.789 160.735 125.748 160.595 125.717C156.719 124.795 153.555 124.259 150.117 125.029C146.679 125.799 142.68 128 137.256 132.511C131.832 137.022 128.682 140.969 126.929 144.779C125.365 148.363 124.639 152.258 124.806 156.167C124.806 160.101 126.983 165.176 130.12 169.467H130.188Z" fill="#FFE7B8"/>
<path fill-rule="evenodd" clip-rule="evenodd" d="M191.317 63.0277C191.317 63.0277 200.685 76.9051 200.987 88.3344C201.288 99.7636 196.987 104.715 187.071 108.759C177.155 112.802 167.635 117.863 158.829 113.82C150.022 109.776 142.488 97.9206 140.886 93.1894C139.283 88.4582 191.317 63.0277 191.317 63.0277Z" fill="#C5C6C9"/>
<path fill-rule="evenodd" clip-rule="evenodd" d="M197.151 74.0305C197.151 74.0305 201.986 78.0604 198.069 89.1595C194.152 100.259 182.66 102.556 176.058 105.059C169.457 107.562 159.253 110.56 153.295 107.686C147.337 104.811 141.228 96.5315 139.269 88.4994C137.311 80.4672 140.995 71.7062 148.076 64.7056C155.157 57.705 161.65 53.4139 170.265 52.1898C178.88 50.9657 183.482 55.1468 187.714 58.6953C191.947 62.2437 197.151 74.0305 197.151 74.0305Z" fill="#FFC250"/>
<path fill-rule="evenodd" clip-rule="evenodd" d="M199.302 78.2942C199.908 81.9605 199.481 85.7242 198.069 89.1596C194.165 100.286 182.66 102.556 176.058 105.059C169.457 107.562 159.253 110.56 153.295 107.686C149.931 105.875 147.037 103.299 144.844 100.162C148.123 102.225 151.811 103.544 155.65 104.027C165.43 104.729 179.304 99.4198 186.317 94.9636C193.33 90.5074 197.918 85.7487 199.288 78.3354L199.302 78.2942Z" fill="#FFC250"/>
<path fill-rule="evenodd" clip-rule="evenodd" d="M168.389 58.9016C171.933 58.3289 175.566 58.7232 178.908 60.0431C185.03 62.2575 184.386 62.8764 185.564 67.8414C186.742 72.8065 188.399 71.101 189.673 73.8518C190.947 76.6025 184.688 89.1458 183.071 87.7292C181.455 86.3126 185.811 70.8397 183.427 73.3841C181.044 75.9286 179.592 85.6661 177.469 84.9234C175.347 84.1807 171.265 73.3841 170.95 75.6948C170.635 78.0054 174.84 83.2317 172.936 84.3183C171.032 85.4048 170.416 85.3635 173.141 88.8707C175.867 92.3779 177.387 92.6117 175.1 93.6845C172.813 94.7573 159.609 95.0599 159.527 95.9538C159.445 96.8478 159.938 98.5945 164.252 98.8421C168.567 99.0897 167.622 100.383 167.622 100.383C167.622 100.383 156.829 102.542 155.034 100.974C153.24 99.406 156.692 97.1229 154.432 96.504C152.172 95.8851 149.337 95.7063 149.337 93.9733C149.337 92.2404 151.364 87.6329 149.898 87.5504C148.433 87.4679 145.912 92.3366 145.173 88.7882C144.433 85.2398 144.063 80.6323 147.049 78.5005C150.035 76.3687 148.775 75.7498 150.035 72.0638C151.295 68.3778 153.624 66.136 158.089 62.9726C162.554 59.8093 164.581 60.2219 163.841 62.0236C163.102 63.8254 165.211 62.4363 165.882 61.0334C166.488 60.0778 167.373 59.3333 168.416 58.9016H168.389ZM169.443 84.2633C168.074 83.3555 162.102 78.5005 161.376 80.3847C160.65 82.269 169.69 85.8862 169.443 84.2633Z" fill="#FFD177"/>
<path d="M153.322 105.801C148.857 104.811 144.652 101.235 141.653 96.8616C138.653 92.4879 136.626 86.7114 137.092 82.2827C137.416 78.0515 138.74 73.9589 140.954 70.3446C143.365 66.4661 147.241 62.5188 153.596 58.0901C159.952 53.6614 164.554 51.5159 168.663 50.6907C172.629 50.0198 176.694 50.2406 180.565 51.3371C180.798 51.3371 181.031 51.4471 181.277 51.5296C185.619 52.905 190.728 58.4064 194.44 64.6918C198.151 70.9773 200.589 78.1979 199.535 83.0117C199.48 83.2684 199.412 83.5297 199.329 83.7956C197.508 89.6959 190.303 94.9773 182.003 98.9246C171.238 104.027 158.363 106.957 153.363 105.801H153.322ZM144.68 94.7985C147.2 98.457 150.61 101.428 154.117 102.212C158.472 103.174 170.265 100.355 180.401 95.555C187.865 92.0203 194.289 87.4541 195.768 82.6953C195.768 82.5578 195.85 82.4065 195.892 82.2277C196.727 78.3905 194.522 72.1876 191.235 66.6174C187.947 61.0471 183.592 56.1921 180.14 55.1056L179.743 54.9955C176.361 54.0251 172.807 53.8138 169.334 54.3766C165.745 55.0918 161.581 57.0586 155.637 61.1709C149.693 65.2833 146.173 68.8729 144.022 72.3389C142.119 75.4798 140.983 79.0288 140.708 82.6953C140.324 86.2575 141.941 90.8788 144.625 94.7985H144.68Z" fill="#FFE7B8"/>
</g>
<defs>
<clipPath id="clip0_76_15163">
<rect width="187" height="185" fill="white" transform="translate(14 15)"/>
</clipPath>
</defs>
</svg>
