<svg width="215" height="215" viewBox="0 0 215 215" fill="none" xmlns="http://www.w3.org/2000/svg">
<g clip-path="url(#clip0_246_1592)">
<path d="M107.731 194C155.376 194 194 155.273 194 107.5C194 59.7274 155.376 21 107.731 21C60.0852 21 21.4609 59.7274 21.4609 107.5C21.4609 155.273 60.0852 194 107.731 194Z" fill="#BA491F"/>
<path d="M71.2039 151.937C72.0207 154.877 64.0619 178.922 60.4804 175.898C59.8184 175.383 59.1182 174.92 58.386 174.512C53.9039 171.74 45.987 168.212 43.9554 163.907C41.9238 159.602 37.1904 151.307 40.709 148.451C45.6066 145.12 51.0624 142.702 56.8152 141.31C57.7934 141.056 58.8142 141.013 59.8102 141.184C63.3288 142.171 70.3452 148.976 71.2039 151.937Z" fill="#5B381A"/>
<path d="M71.2032 151.937C72.02 154.877 64.0612 178.922 60.4797 175.898C59.8177 175.383 59.1175 174.92 58.3853 174.512C57.7587 173.514 57.3687 172.386 57.2453 171.214C57.1218 170.041 57.2682 168.856 57.6732 167.75C59.6001 163.886 65.8833 151.643 64.3335 149.794C62.7836 147.946 57.5056 144.901 56.8145 141.394C57.7927 141.14 58.8135 141.097 59.8095 141.268C63.3281 142.171 70.3445 148.976 71.2032 151.937Z" fill="#542C15"/>
<path d="M92.1891 132.574C95.0795 132.154 116.82 143.326 113.469 146.476C112.899 147.043 112.368 147.646 111.877 148.282C108.63 152.356 104.253 159.749 99.8338 161.177C95.4146 162.605 87.0159 166.175 84.7539 162.29C82.245 156.953 80.6856 151.217 80.1462 145.342C80.0349 144.33 80.142 143.306 80.4603 142.339C81.8426 139.042 89.2779 133.015 92.1891 132.574Z" fill="#663E1A"/>
<path d="M92.1891 132.574C95.0795 132.154 116.82 143.326 113.469 146.476C112.899 147.043 112.368 147.646 111.877 148.282C110.852 148.766 109.727 149 108.595 148.963C107.462 148.927 106.355 148.621 105.363 148.072C101.97 145.615 91.1838 137.719 89.236 139.021C87.2882 140.323 83.6439 145.111 80.1462 145.321C80.0349 144.309 80.142 143.285 80.4603 142.318C81.8426 139.042 89.2779 133.015 92.1891 132.574Z" fill="#532915"/>
<path d="M126.999 132.343C128.821 129.991 152.133 122.788 151.818 127.429C151.768 128.241 151.768 129.054 151.818 129.865C152.216 135.115 153.913 143.557 151.818 147.695C149.724 151.832 145.891 160.295 141.618 159.14C136.236 157.006 131.273 153.934 126.957 150.068C126.192 149.409 125.578 148.592 125.156 147.674C123.858 144.314 125.177 134.716 126.999 132.343Z" fill="#663E1A"/>
<path d="M127 132.343C128.822 129.991 152.133 122.788 151.819 127.429C151.768 128.241 151.768 129.054 151.819 129.865C151.419 130.938 150.769 131.9 149.924 132.67C149.079 133.441 148.063 133.998 146.96 134.296C142.771 134.926 129.702 136.774 129.157 139.105C128.612 141.436 129.157 147.506 126.811 150.068C126.046 149.409 125.432 148.592 125.01 147.674C123.858 144.314 125.178 134.716 127 132.343Z" fill="#532915"/>
<path d="M177.788 112.603C180.658 113.191 197.581 131.062 193.413 132.91C192.686 133.249 191.986 133.642 191.318 134.086C186.941 136.837 180.427 142.339 175.798 142.192C171.17 142.045 162.08 142.591 161.137 138.139C160.491 132.267 160.866 126.327 162.248 120.583C162.475 119.596 162.903 118.667 163.504 117.853C165.829 115.291 174.793 112.099 177.788 112.603Z" fill="#9B5032"/>
<path d="M177.788 112.603C180.658 113.191 197.581 131.062 193.413 132.91C192.686 133.249 191.986 133.642 191.318 134.086C190.187 134.197 189.046 134.036 187.99 133.616C186.933 133.196 185.992 132.529 185.245 131.671C182.815 128.227 175.191 117.139 172.929 117.685C170.667 118.231 165.683 121.57 162.311 120.583C162.538 119.596 162.966 118.667 163.567 117.853C165.829 115.291 174.793 112.099 177.788 112.603Z" fill="#62341F"/>
<path d="M52.123 57.8554C54.9924 58.4224 71.9154 76.3147 67.7475 78.1627C67.0251 78.5019 66.3255 78.8877 65.6531 79.3177C61.2757 82.0897 54.762 87.5708 50.1333 87.4238C45.5046 87.2768 36.4148 87.8228 35.4723 83.3917C34.8242 77.5194 35.1999 71.5788 36.5823 65.8356C36.8007 64.8456 37.2294 63.9144 37.839 63.1055C40.3523 60.4805 49.3165 57.2674 52.123 57.8554Z" fill="#9B5032"/>
<path d="M52.1224 57.8554C54.9917 58.4224 71.9148 76.3147 67.7468 78.1627C67.0245 78.5019 66.3249 78.8877 65.6524 79.3177C64.5234 79.4278 63.3844 79.2683 62.3287 78.8522C61.273 78.436 60.3306 77.7752 59.5785 76.9237C57.149 73.4587 49.5253 62.3705 47.2633 62.9375C45.0013 63.5045 40.0166 66.8226 36.6445 65.8356C36.8629 64.8456 37.2915 63.9144 37.9012 63.1055C40.3517 60.4805 49.3158 57.2674 52.1224 57.8554Z" fill="#62341F"/>
<path d="M111.604 50.0644C110.096 47.5024 111.604 22.6591 115.793 24.5911C116.522 24.9062 117.27 25.1727 118.034 25.3891C122.977 26.8381 131.334 28.0772 134.35 31.6892C137.366 35.3012 143.858 41.8113 141.24 45.4654C137.444 49.886 132.89 53.5912 127.794 56.4065C126.929 56.9117 125.964 57.22 124.967 57.3095C121.469 57.2675 113.133 52.6475 111.604 50.0644Z" fill="#9B5032"/>
<path d="M111.604 50.0644C110.096 47.5024 111.604 22.6591 115.793 24.5911C116.522 24.9062 117.27 25.1727 118.034 25.3891C118.892 26.1805 119.554 27.1628 119.965 28.2569C120.376 29.3511 120.525 30.5267 120.401 31.6892C119.521 35.8893 116.631 49.0774 118.558 50.4214C120.484 51.7655 126.223 53.2774 127.794 56.4905C126.929 56.9957 125.964 57.304 124.967 57.3935C121.469 57.2675 113.133 52.6474 111.604 50.0644Z" fill="#62341F"/>
<path d="M135.041 80.4097C135.962 73.6268 137.362 66.9178 139.23 60.3334C145.744 60.2074 153.891 59.0525 156.425 58.7375C161.452 58.1285 161.64 61.4465 164.803 62.9375C166.408 63.6263 168.187 63.7951 169.892 63.4205C170.06 67.4105 170.144 71.1066 168.678 72.6186C166.206 75.1386 164.489 84.9668 163.379 86.0798C162.269 87.1928 143.796 85.5758 142.309 86.0798C140.822 86.5838 135.481 81.1027 135.041 80.4097Z" fill="#9B5032"/>
<path d="M139.23 60.3334C139.602 58.5424 140.2 56.8063 141.011 55.1673C142.644 53.0673 170.333 49.2243 169.788 55.3984C169.59 58.0407 169.59 60.6942 169.788 63.3365C168.083 63.7111 166.304 63.5422 164.699 62.8534C161.599 61.4464 161.411 58.1284 156.321 58.6534C153.808 59.0524 145.744 60.2074 139.23 60.3334Z" fill="#62341F"/>
<path d="M52.122 77.4697C51.7841 71.1697 51.8961 64.8535 52.4571 58.5695C58.3634 57.2885 65.4845 54.7894 67.8093 54.0334C72.2705 52.5844 73.0245 55.5454 76.187 56.2805C77.7624 56.6222 79.4053 56.4531 80.8785 55.7975C81.7163 59.4095 82.4284 62.7486 81.3603 64.3866C79.5381 67.0956 79.6638 76.3567 78.8469 77.5537C78.0301 78.7507 60.9815 80.6198 59.7248 81.3128C58.4681 82.0058 52.6247 78.0367 52.122 77.4697Z" fill="#663E1A"/>
<path d="M52.4375 58.4645C52.4735 56.7729 52.7269 55.093 53.1915 53.4664C54.3225 51.3664 78.8692 42.7773 79.3509 48.5104C79.6445 50.9353 80.1135 53.3356 80.7542 55.6924C79.281 56.348 77.638 56.5171 76.0627 56.1754C73.0048 55.4404 72.2508 52.4794 67.6849 53.9284C65.4648 54.6844 58.4066 57.1834 52.4375 58.4645Z" fill="#532915"/>
<path d="M99.4354 134.128C99.0921 127.793 99.2111 121.441 99.7914 115.123C105.677 113.842 112.798 111.343 115.123 110.587C119.605 109.138 120.338 112.099 123.396 112.834C124.971 113.177 126.614 113.008 128.087 112.351C128.925 115.963 129.658 119.302 128.569 120.94C126.747 123.649 126.872 132.91 126.056 134.107C125.239 135.304 108.19 137.173 106.933 137.866C105.677 138.559 99.959 134.695 99.4354 134.128Z" fill="#663E1A"/>
<path d="M99.793 115.123C99.8169 113.432 100.063 111.751 100.526 110.125C101.657 108.025 126.204 99.4359 126.685 105.169C126.979 107.594 127.448 109.994 128.089 112.351C126.616 113.008 124.973 113.177 123.397 112.834C120.339 112.099 119.606 109.138 115.124 110.587C112.862 111.343 105.678 113.842 99.793 115.123Z" fill="#532915"/>
<path d="M139.963 122.221C139.642 115.885 139.761 109.535 140.319 103.216C146.225 101.935 153.325 99.4359 155.671 98.6799C160.132 97.2309 160.865 100.192 163.923 100.927C165.498 101.272 167.142 101.102 168.614 100.444C169.473 104.056 170.185 107.395 169.096 109.033C167.274 111.742 167.421 121.003 166.604 122.221C165.787 123.439 148.738 125.266 147.461 125.959C146.183 126.652 140.486 122.788 139.963 122.221Z" fill="#663E1A"/>
<path d="M140.32 103.216C140.355 101.526 140.602 99.8466 141.053 98.2179C142.205 96.1178 166.752 87.5288 167.213 93.2618C167.506 95.6868 167.975 98.0871 168.616 100.444C167.144 101.102 165.5 101.272 163.925 100.927C160.867 100.192 160.134 97.2308 155.672 98.6799C153.327 99.4359 146.227 101.935 140.32 103.216Z" fill="#532915"/>
<path d="M60.3742 129.277C59.6611 122.569 59.4232 115.818 59.6621 109.075C65.0179 108.041 70.3169 106.73 75.5378 105.148C80.1665 103.888 81.109 107.08 84.3763 108.046C85.9925 108.497 87.7105 108.416 89.2773 107.815C90.3874 111.7 91.3717 115.312 90.2826 116.971C88.5233 119.764 89.1935 129.571 88.3977 130.873C87.6018 132.175 69.7782 132.973 68.4796 133.729C67.1811 134.485 60.9606 129.928 60.3742 129.277Z" fill="#663E1A"/>
<path d="M59.6638 109.075C59.5951 107.298 59.7571 105.519 60.1455 103.783C61.2346 101.578 86.5772 93.9338 87.3731 100.066C87.8294 102.688 88.4591 105.277 89.2581 107.815C87.6913 108.416 85.9733 108.497 84.3571 108.046C81.0898 107.08 80.1683 103.846 75.5186 105.148C70.3046 106.73 65.0126 108.04 59.6638 109.075Z" fill="#532915"/>
<path d="M111.773 122.221C111.452 115.885 111.571 109.535 112.129 103.216C118.035 101.935 125.136 99.4359 127.481 98.6799C131.943 97.2309 132.676 100.192 135.733 100.927C137.309 101.272 138.952 101.102 140.425 100.444C141.284 104.056 141.996 107.395 140.907 109.033C139.085 111.742 139.231 121.003 138.414 122.221C137.597 123.439 120.549 125.266 119.271 125.959C117.994 126.652 112.297 122.788 111.773 122.221Z" fill="#835028"/>
<path d="M112.129 103.216C112.164 101.526 112.41 99.8466 112.862 98.2179C114.014 96.1178 138.561 87.5288 139.021 93.2618C139.315 95.6868 139.784 98.0871 140.425 100.444C138.952 101.102 137.308 101.272 135.733 100.927C132.675 100.192 131.942 97.2308 127.481 98.6799C125.135 99.4359 118.035 101.935 112.129 103.216Z" fill="#62341F"/>
<path d="M113.175 126.106C112.892 125.776 112.633 125.425 112.4 125.056C112.4 125.056 126.915 115.123 129.826 112.456C132.318 110.188 148.487 113.065 153.556 115.165C154.132 115.332 154.653 115.651 155.064 116.089C156.048 118.063 154.561 129.004 145.576 136.648C137.136 143.83 118.013 131.776 113.175 126.106Z" fill="#DA782B"/>
<path d="M113.175 126.106C112.892 125.776 112.633 125.425 112.4 125.056C112.4 125.056 126.915 115.123 129.826 112.456C132.318 110.188 148.487 113.065 153.556 115.165C152.509 118.924 150.687 125.917 146.037 124.846C140.57 123.628 134.559 124.72 131.753 124.846C128.946 124.972 117.218 125.014 115.228 125.623C114.553 125.821 113.868 125.983 113.175 126.106Z" fill="#E3602F"/>
<path d="M48.5424 149.626C48.5119 149.186 48.5119 148.744 48.5424 148.303C48.5424 148.303 65.989 149.143 69.8847 148.765C73.2148 148.471 84.5457 160.61 87.3732 165.398C87.7596 165.87 87.9934 166.448 88.0434 167.057C87.7083 169.157 80.1474 177.137 68.4605 177.809C57.4857 178.439 49.1289 157.124 48.5424 149.626Z" fill="#C17737"/>
<path d="M48.5424 149.626C48.5119 149.186 48.5119 148.744 48.5424 148.303C48.5424 148.303 65.989 149.143 69.8847 148.765C73.2148 148.471 84.5457 160.61 87.3732 165.398C84.3572 167.792 80.6291 165.692 77.5084 162.017C74.2698 158.678 70.549 155.846 66.4708 153.617C64.125 152 52.4381 151.139 50.4903 150.425C50.0295 150.404 49.3593 150.025 48.5424 149.626Z" fill="#CC8C30"/>
<path d="M61.7359 149.689C59.3692 151.58 34.5083 153.049 35.9744 148.534C36.205 147.736 36.3799 146.922 36.498 146.098C37.3149 140.806 37.5034 131.986 40.6869 128.416C43.8704 124.846 49.5254 117.307 53.4839 119.575C58.3819 122.998 62.6364 127.264 66.0505 132.175C66.6556 133.015 67.0768 133.974 67.2862 134.989C67.6213 138.58 64.0817 147.778 61.7359 149.689Z" fill="#C17737"/>
<path d="M61.7359 149.69C59.3692 151.58 34.5083 153.05 35.9744 148.534C36.205 147.736 36.3799 146.922 36.498 146.099C37.1529 145.136 38.0257 144.344 39.0451 143.785C40.0644 143.227 41.2013 142.918 42.3624 142.885C46.5513 143.284 60.0394 144.628 61.2123 142.465C62.3852 140.302 63.0973 134.065 66.0714 132.133C66.6766 132.973 67.0977 133.933 67.3071 134.947C67.6213 138.58 64.0817 147.779 61.7359 149.69Z" fill="#BB5F28"/>
<path d="M82.7219 93.0519C83.7901 90.1958 104.295 75.8947 105.384 80.4517C105.594 81.2438 105.853 82.0223 106.159 82.7827C108.106 87.7808 112.442 95.3829 111.437 100.171C110.431 104.959 109.447 114.346 104.944 114.472C99.048 114.115 93.2652 112.692 87.8742 110.272C86.9289 109.877 86.0843 109.274 85.4028 108.508C83.2455 105.673 81.6538 95.9289 82.7219 93.0519Z" fill="#835028"/>
<path d="M82.7219 93.0519C83.7901 90.1958 104.295 75.8947 105.384 80.4517C105.594 81.2438 105.853 82.0223 106.159 82.7827C106.084 83.9585 105.737 85.1006 105.144 86.1179C104.551 87.1352 103.73 87.9995 102.745 88.6418C98.9328 90.5108 86.7223 96.4329 86.8689 98.8689C87.0155 101.305 89.4241 106.975 87.8742 110.272C86.9289 109.877 86.0843 109.274 85.4028 108.508C83.2455 105.673 81.6538 95.9289 82.7219 93.0519Z" fill="#62341F"/>
<path d="M131.02 102.502C129.429 99.919 130.56 74.5507 134.811 76.4407C135.56 76.7488 136.33 77.0015 137.115 77.1967C142.205 78.6037 150.729 79.6957 153.871 83.3077C157.012 86.9198 163.777 93.4509 161.159 97.2309C157.368 101.813 152.794 105.681 147.65 108.655C146.777 109.188 145.797 109.518 144.781 109.621C141.22 109.642 132.633 105.106 131.02 102.502Z" fill="#C17737"/>
<path d="M131.02 102.502C129.429 99.919 130.56 74.5507 134.811 76.4407C135.56 76.7488 136.33 77.0015 137.115 77.1967C137.992 77.9809 138.677 78.9572 139.116 80.0498C139.556 81.1425 139.738 82.322 139.649 83.4968C138.833 87.6969 136.131 101.305 138.12 102.649C140.11 103.993 145.996 105.4 147.65 108.655C146.777 109.188 145.797 109.518 144.781 109.621C141.22 109.642 132.633 105.106 131.02 102.502Z" fill="#BB5F28"/>
<path d="M124.57 105.358C122.204 107.248 97.3427 108.718 98.8297 104.182C99.0447 103.388 99.2125 102.581 99.3324 101.767C100.17 96.4539 100.338 87.6548 103.521 84.0848C106.705 80.5148 112.339 72.9757 116.297 75.2227C121.199 78.641 125.455 82.9078 128.864 87.8228C129.478 88.658 129.9 89.619 130.1 90.6369C130.456 94.2489 126.916 103.447 124.57 105.358Z" fill="#DF4A27"/>
<path d="M124.57 105.358C122.204 107.248 97.3427 108.718 98.8297 104.182C99.0447 103.388 99.2125 102.581 99.3324 101.767C99.9872 100.805 100.86 100.012 101.879 99.4536C102.899 98.8951 104.036 98.5868 105.197 98.5539C109.386 98.9319 122.874 100.297 124.047 98.1338C125.22 95.9708 125.932 89.7338 128.906 87.8018C129.52 88.6369 129.942 89.5979 130.141 90.6158C130.456 94.2488 126.916 103.447 124.57 105.358Z" fill="#AA2C23"/>
<path d="M126.183 150.025C129.136 149.269 152.635 157.943 149.473 161.471C148.933 162.089 148.443 162.749 148.007 163.445C145.054 167.897 141.242 175.772 136.822 177.704C132.403 179.636 124.067 184.151 121.366 180.539C118.306 175.494 116.178 169.939 115.082 164.138C114.866 163.134 114.866 162.096 115.082 161.093C116.15 157.67 123.334 150.781 126.183 150.025Z" fill="#DF4A27"/>
<path d="M126.183 150.025C129.136 149.269 152.635 157.943 149.473 161.471C148.933 162.089 148.442 162.749 148.006 163.445C147.001 164.053 145.867 164.417 144.696 164.508C143.526 164.599 142.35 164.415 141.262 163.97C137.534 161.87 125.659 155.276 123.753 156.788C121.847 158.3 118.58 163.508 114.998 164.138C114.782 163.134 114.782 162.096 114.998 161.093C116.15 157.67 123.334 150.781 126.183 150.025Z" fill="#AA2C23"/>
<path d="M63.6002 68.3135C61.2754 69.3845 40.3939 65.4785 42.4464 62.0134C42.7911 61.4057 43.092 60.7741 43.347 60.1234C45.0854 55.9234 46.9913 48.5943 50.3424 46.2843C53.6935 43.9742 59.893 38.8921 62.7205 41.5802C66.0956 45.4327 68.7747 49.8459 70.6375 54.6214C70.9683 55.4483 71.1252 56.3348 71.0982 57.2254C70.7212 60.2914 65.9459 67.2005 63.6002 68.3135Z" fill="#DA782B"/>
<path d="M63.6002 68.3136C61.2754 69.3846 40.3939 65.4786 42.4464 62.0135C42.7911 61.4058 43.092 60.7742 43.347 60.1235C44.0846 59.4605 44.9681 58.9816 45.9254 58.7261C46.8827 58.4707 47.8867 58.4458 48.8554 58.6535C52.2903 59.8505 63.2022 63.7565 64.5427 62.2025C65.8831 60.6485 67.7471 55.6715 70.6375 54.6215C70.9683 55.4484 71.1252 56.3349 71.0982 57.2255C70.7212 60.2915 65.9459 67.2006 63.6002 68.3136Z" fill="#AA2C23"/>
<path d="M129.304 76.6507C126.602 75.4747 113.574 54.4535 118.036 53.5505C118.807 53.3802 119.563 53.1484 120.298 52.8574C125.157 51.0514 132.613 47.0193 137.053 48.1324C141.493 49.2454 150.583 50.5894 150.562 55.1045C150.033 60.9857 148.481 66.7285 145.975 72.0727C145.575 72.9986 144.974 73.8235 144.216 74.4877C141.43 76.5247 132.026 77.8057 129.304 76.6507Z" fill="#E3602F"/>
<path d="M129.304 76.6506C126.602 75.4746 113.574 54.4534 118.036 53.5503C118.807 53.3801 119.563 53.1483 120.298 52.8573C121.432 52.9806 122.521 53.3724 123.475 54.0004C124.429 54.6283 125.221 55.4745 125.785 56.4693C127.481 60.3544 132.759 72.7866 135.084 72.7236C137.409 72.6606 142.938 70.4136 146.038 72.0726C145.638 72.9984 145.037 73.8234 144.279 74.4876C141.43 76.5246 132.026 77.8056 129.304 76.6506Z" fill="#AA2C23"/>
<path d="M47.9341 101.83C46.6774 104.308 26.0054 117.181 25.3771 113.296C25.248 112.625 25.0659 111.965 24.8325 111.322C23.4083 107.122 20.0363 100.822 21.3348 96.622C22.6334 92.4219 24.4346 84.4838 28.7282 84.2108C34.1252 84.2943 39.4674 85.3102 44.5202 87.2138C45.355 87.4995 46.1092 87.982 46.7193 88.6208C48.4786 91.0778 49.1489 99.352 47.9341 101.83Z" fill="#DF5227"/>
<path d="M47.9336 101.83C46.6769 104.308 26.0049 117.181 25.3766 113.296C25.2475 112.625 25.0654 111.965 24.832 111.322C25.0553 110.252 25.5056 109.242 26.1525 108.361C26.7994 107.481 27.6277 106.75 28.5811 106.219C32.351 104.476 44.4359 99.0158 44.4987 96.9578C44.5616 94.8998 42.7813 90.1328 44.4987 87.2767C45.3336 87.5624 46.0878 88.0449 46.6979 88.6837C48.4782 91.0777 49.1484 99.3519 47.9336 101.83Z" fill="#C72B1C"/>
<path d="M58.0291 73.9206C64.0401 69.2585 78.8478 66.5285 81.7171 62.8745C83.9582 60.0395 89.3199 58.9685 91.5819 58.6745C92.2521 58.5695 92.6501 58.5485 92.6501 58.5485C92.6501 58.5485 101.028 71.0226 97.8861 76.5666C94.7445 82.1107 95.7917 92.3798 94.179 94.1649C92.5663 95.9499 81.8637 111.805 78.7849 108.529C76.2507 105.883 70.0931 98.9319 67.9777 96.5379C67.5169 96.0339 67.2655 95.7189 67.2655 95.7189L67.6216 89.7338V88.7468L62.0714 83.6858L61.1289 82.8247C61.1289 82.8247 52.1228 78.5826 58.0291 73.9206Z" fill="#BB5F28"/>
<path d="M58.0293 73.9206C64.0403 69.2585 78.848 66.5285 81.7174 62.8745C83.9584 60.0395 89.3201 58.9684 91.5821 58.6744C91.5821 62.4545 90.849 69.3005 88.5033 70.9805C85.6758 73.0806 76.6907 80.6407 74.0727 80.4937C70.0305 81.306 66.0432 82.3721 62.1344 83.6857L61.1919 82.8247C61.1919 82.8247 52.123 78.5826 58.0293 73.9206Z" fill="#EAB24B"/>
<path d="M67.2656 95.6558L67.6217 89.6708C73.5699 90.8678 86.7648 83.8537 89.0477 82.3627C91.3307 80.8717 85.948 88.0118 82.555 90.1118C79.7275 91.8548 71.9362 94.6059 67.894 96.4119C67.517 95.9709 67.2656 95.6558 67.2656 95.6558Z" fill="#CC8C30"/>
<path d="M179.381 94.3328C183.067 98.5328 185.831 109.6 188.638 111.553C190.732 113.086 191.863 117.055 192.24 118.756L192.408 119.554C192.408 119.554 183.863 126.505 179.716 124.489C175.569 122.473 168.217 123.796 166.835 122.662C165.453 121.528 153.472 114.262 155.651 111.868C157.431 109.768 162.081 104.791 163.693 103.069L164.238 102.481H168.573H169.285L172.616 98.0078L173.181 97.2729C173.181 97.2729 175.694 90.0697 179.381 94.3328Z" fill="#DE3627"/>
<path d="M179.38 94.3328C183.066 98.5328 185.831 109.6 188.638 111.553C190.732 113.086 191.863 117.055 192.24 118.756C189.517 118.903 184.553 118.756 183.213 117.118C181.621 115.018 175.61 108.718 175.568 106.765C174.758 103.769 173.772 100.824 172.615 97.9448L173.181 97.2099C173.181 97.2099 175.694 90.0697 179.38 94.3328Z" fill="#E94E3B"/>
<path d="M164.238 102.481H168.573C168.05 107.038 173.809 116.572 175.024 118.21C176.239 119.848 170.835 116.11 169.076 113.758C167.652 111.658 165.264 106.009 163.693 103.132L164.238 102.481Z" fill="#E94E3B"/>
<path d="M177.14 151.054C179.234 158.426 169.977 164.516 168.762 167.141C167.945 169.556 163.337 170.186 161.39 170.291H160.468C160.07 169.283 153.263 167.141 154.352 165.482C154.876 162.626 150.645 161.009 149.954 160.043C150.98 157.838 137.387 152.923 137.806 151.642C138.895 149.542 144.906 145.195 147.943 144.355L148.886 143.998C151.212 144.271 153.506 144.77 155.735 145.489L156.824 145.846C159.201 145.356 161.623 145.124 164.05 145.153H165.39C164.908 145.069 174.668 143.599 177.14 151.054Z" fill="#AA2C23"/>
<path d="M177.14 151.055C179.234 158.426 169.977 164.516 168.762 167.141C167.945 169.556 163.337 170.186 161.39 170.291C161.243 168.464 160.342 165.44 161.117 163.991C162.981 162.437 162.563 154.499 163.044 153.155C164.007 150.671 164.352 147.99 164.05 145.342H165.39C164.908 145.069 174.668 143.599 177.14 151.055Z" fill="#DA782B"/>
<path d="M148.886 144.103C151.212 144.376 153.506 144.875 155.735 145.594C154.478 148.66 157.285 158.195 156.216 159.707C156.216 161.429 154.708 156.41 153.2 154.016C152.075 150.522 150.29 147.278 147.943 144.46L148.886 144.103Z" fill="#DA782B"/>
<path d="M77.3609 115.606C77.3609 116.257 68.9831 125.455 63.6633 130.642C58.0083 127.324 50.5312 124.069 48.1226 122.977C43.4939 120.877 45.0019 117.895 43.0541 115.06C42.0196 113.612 40.5527 112.531 38.8652 111.973C40.7293 108.466 42.5095 105.232 44.5411 104.707C47.9132 103.867 54.3431 96.3068 55.8511 95.9498C57.3591 95.5928 72.3971 106.681 73.9051 107.059C75.413 107.437 77.2562 114.703 77.3609 115.606Z" fill="#E3602F"/>
<path d="M63.6637 130.642C62.4314 131.989 61.0223 133.162 59.4748 134.128C57.0662 134.989 31.2628 123.775 34.9281 118.798C36.4094 116.625 37.7256 114.344 38.8656 111.973C40.553 112.531 42.02 113.612 43.0545 115.06C45.0023 117.895 43.4943 120.835 48.123 122.977C50.5316 124.069 58.0087 127.303 63.6637 130.642Z" fill="#AA2C23"/>
<path d="M110.767 24.843C111.374 24.969 118.495 35.1751 122.37 41.6432C118.034 46.6412 113.406 53.4664 111.898 55.6714C108.924 59.8715 106.41 57.7714 103.311 59.1364C101.714 59.8711 100.387 61.0906 99.5196 62.6225C96.5246 60.0394 93.8018 57.6034 93.7181 55.4823C93.5924 51.9123 87.6861 43.9532 87.6233 42.3572C87.5604 40.7612 101.258 27.972 101.928 26.544C102.598 25.116 109.971 24.696 110.767 24.843Z" fill="#CC8C30"/>
<path d="M122.39 41.6012C123.428 43.1026 124.266 44.7334 124.883 46.4522C125.218 49.0353 109.237 72.5976 105.216 67.9145C103.445 65.9959 101.534 64.2129 99.498 62.5804C100.366 61.0486 101.692 59.829 103.289 59.0944C106.389 57.7084 108.902 59.8084 111.876 55.6293C113.426 53.4243 118.055 46.5993 122.39 41.6012Z" fill="#AA5326"/>
<path d="M152.655 51.0514C150.451 50.8349 148.275 50.3915 146.162 49.7284C144.968 46.5153 143.209 42.5883 142.664 41.3283C141.596 38.8712 142.518 38.6612 142.371 37.1282C142.27 36.257 142.014 35.4107 141.617 34.6292C142.727 34.3772 143.712 34.2092 144.466 34.8812C145.618 36.0152 148.654 36.4982 149.262 36.9812C149.869 37.4642 152.571 46.6413 152.969 47.3553C153.14 48.5954 153.033 49.8583 152.655 51.0514Z" fill="#D81F26"/>
<path d="M146.099 49.7284C145.469 49.5851 144.862 49.3517 144.298 49.0354C143.439 48.3004 137.407 34.7552 139.292 34.8392C140.056 34.8332 140.815 34.7344 141.554 34.5452C141.952 35.3267 142.207 36.1729 142.308 37.0442C142.455 38.6402 141.534 38.8502 142.602 41.2442C143.146 42.5883 144.906 46.5153 146.099 49.7284Z" fill="#8E191B"/>
<path d="M67.5175 124.426C67.7809 125.985 67.7313 127.582 67.3716 129.121C67.012 130.661 66.3496 132.114 65.4231 133.393C63.7685 135.955 61.2342 136.816 58.3439 137.929C55.5105 137.748 52.7641 136.875 50.3432 135.388C48.0016 133.285 46.5111 130.393 46.1543 127.261C46.1543 126.4 48.7095 128.269 51.7464 126.526C54.93 126.085 58.9303 125.812 62.0929 125.161C65.2555 124.51 67.4966 124.279 67.5175 124.426Z" fill="#FFCC40"/>
<g style="mix-blend-mode:multiply">
<path d="M65.3793 133.393C64.351 134.909 62.8914 136.08 61.1905 136.753C61.549 136.401 61.8717 136.014 62.1539 135.598C64.2243 132.83 65.1744 129.379 64.8138 125.938C64.8138 125.791 62.4053 126.106 59.1798 126.19C56.6398 126.448 54.0882 126.574 51.5352 126.568C54.7187 126.127 58.7191 125.854 61.8817 125.203C65.0442 124.552 67.4319 124.321 67.4528 124.468C67.7135 126.019 67.6644 127.607 67.3084 129.139C66.9525 130.671 66.2968 132.117 65.3793 133.393Z" fill="#FFCD03"/>
<path d="M46.0273 127.303C46.0273 126.967 46.4672 127.093 47.2212 127.303C46.8249 127.354 46.4237 127.354 46.0273 127.303Z" fill="#FFCD03"/>
</g>
<path d="M133.199 148.724C130.301 154.323 127.004 159.706 123.334 164.831C117.637 162.836 110.286 161.24 107.898 160.631C103.332 159.518 104.191 156.578 101.929 154.331C100.791 153.203 99.3234 152.467 97.7402 152.231C98.8293 148.703 99.8347 145.447 101.636 144.607C104.568 143.242 109.092 135.22 110.412 134.632C111.731 134.044 127.167 141.394 128.696 141.457C130.225 141.52 133.031 147.968 133.199 148.724Z" fill="#E16636"/>
<path d="M123.333 164.831C122.462 166.266 121.405 167.579 120.191 168.737C118.097 169.976 92.796 164.39 95.2674 159.245C96.2275 157 97.0323 154.691 97.676 152.336C99.2592 152.572 100.726 153.308 101.865 154.436C104.127 156.662 103.268 159.602 107.834 160.736C110.284 161.24 117.636 162.836 123.333 164.831Z" fill="#DF5227"/>
<path d="M87.1409 172.433C86.9105 169.619 96.3354 145.468 98.6812 148.135C99.0849 148.58 99.5342 148.982 100.022 149.332C103.1 151.705 108.672 154.478 109.635 158.573C110.599 162.668 113.091 170.312 109.991 173.42C106.029 176.896 101.521 179.691 96.6496 181.694C95.9182 182.011 95.1157 182.127 94.3248 182.03C91.9162 181.358 87.3922 175.247 87.1409 172.433Z" fill="#DF5227"/>
<path d="M87.1409 172.433C86.9105 169.619 96.3354 145.468 98.6812 148.135C99.0849 148.58 99.5342 148.982 100.022 149.332C100.695 151.497 100.561 153.833 99.6446 155.906C97.5502 159.833 91.1203 172.307 92.0418 173.987C92.9634 175.667 96.6077 178.187 96.6496 181.694C95.9182 182.011 95.1157 182.127 94.3248 182.03C91.9162 181.358 87.3922 175.247 87.1409 172.433Z" fill="#C72B1C"/>
<path d="M80.1461 103.72L79.7063 102.019L74.8682 108.319C74.8682 108.319 74.2608 111.343 75.4337 112.288C77.1811 109.533 78.755 106.672 80.1461 103.72Z" fill="#FAAF64"/>
<path d="M60.27 109.012C60.2517 109.382 60.3461 109.749 60.5406 110.064C60.7351 110.379 61.0205 110.627 61.3591 110.776C65.8412 112.519 75.4336 112.372 75.4336 112.372C75.1242 111.069 74.9349 109.741 74.8681 108.403C73.779 108.151 60.2071 103.363 60.2071 103.363C60.1252 105.246 60.1462 107.132 60.27 109.012Z" fill="#DFA761"/>
<path d="M67.8315 93.7029C63.4332 96.3699 60.3125 103.426 60.3125 103.426L74.9735 108.466C74.9735 108.466 79.309 102.67 79.8116 102.166C75.628 99.6259 71.6251 96.7981 67.8315 93.7029Z" fill="#FECF8C"/>
<path d="M83.5395 121.843C81.0053 117.769 82.9321 78.0787 89.7181 81.0397C90.9151 81.5364 92.1473 81.9435 93.4043 82.2577C101.489 84.4627 115.124 86.2268 120.129 91.8968C125.135 97.5669 135.879 107.815 131.711 113.716C125.57 120.887 118.21 126.909 109.971 131.503C108.575 132.326 107.017 132.835 105.405 132.994C99.7086 133.078 86.011 125.917 83.5395 121.843Z" fill="#B05F22"/>
<path d="M83.5395 121.843C81.0053 117.769 82.9321 78.0787 89.7181 81.0397C90.9151 81.5364 92.1473 81.9435 93.4043 82.2577C96.3365 85.4707 98.033 88.8308 97.4047 92.1278C96.0852 98.7849 91.6869 119.995 94.8704 122.095C97.656 123.943 107.437 126.463 110.055 131.545C108.659 132.368 107.101 132.877 105.489 133.036C99.7085 133.078 86.011 125.917 83.5395 121.843Z" fill="#7E3116"/>
<path d="M88.2514 80.0737C88.4884 79.4426 88.7756 78.8317 89.1101 78.2467C89.1101 78.2467 112.149 91.2038 117.636 93.3458C122.349 95.1728 129.47 119.554 130.203 128.059C130.386 128.978 130.314 129.93 129.993 130.81C128.066 133.582 112.526 139.336 96.273 132.343C80.9418 125.812 83.9787 90.8048 88.2514 80.0737Z" fill="#DA782B"/>
<path d="M88.252 80.0737C88.489 79.4426 88.7761 78.8317 89.1107 78.2467C89.1107 78.2467 112.149 91.2038 117.637 93.3458C122.349 95.1728 129.47 119.554 130.203 128.059C124.507 129.298 120.883 123.859 119.124 116.719C117.029 108.319 111.898 101.557 109.825 97.8189C107.751 94.0808 92.5036 84.9038 90.3673 82.6147C89.619 81.8048 88.913 80.9567 88.252 80.0737Z" fill="#7E3116"/>
<path d="M120.631 93.3038C122.027 95.3669 122.991 97.6921 123.466 100.139C123.942 102.586 123.917 105.105 123.395 107.542C122.683 112.288 119.458 115.249 116.044 118.756C111.82 120.392 107.267 120.989 102.765 120.499C97.9622 119.142 93.8386 116.033 91.2041 111.784C90.471 110.608 95.5605 111.49 98.8278 106.996C103.184 104.224 108.839 101.158 113.007 98.0919C117.405 95.4248 120.505 93.1148 120.631 93.3038Z" fill="#FFCC40"/>
<g style="mix-blend-mode:multiply">
<path d="M123.333 107.542C122.806 110.419 121.435 113.074 119.396 115.165C119.693 114.42 119.911 113.646 120.045 112.855C121.236 107.551 120.36 101.991 117.594 97.3149C117.469 97.0839 114.201 99.142 109.573 101.515C106.389 103.489 102.389 105.379 98.6816 107.185V107.08C103.038 104.308 108.693 101.242 112.861 98.176C117.259 95.5089 120.359 93.1989 120.485 93.3879C121.884 95.4342 122.857 97.7422 123.346 100.174C123.836 102.606 123.831 105.112 123.333 107.542Z" fill="#FFCD03"/>
<path d="M91.1839 111.742C90.9535 111.28 91.7076 111.154 92.9014 110.818C92.3631 111.186 91.7874 111.496 91.1839 111.742Z" fill="#FFCD03"/>
</g>
<path d="M115.123 88.1168L111.939 87.8438L117.406 101.095C117.406 101.095 121.595 104.245 124.422 102.691C124.422 102.691 117.909 90.9518 115.123 88.1168Z" fill="#FCB555"/>
<path d="M103.666 128.731C104.336 128.983 105.063 129.04 105.764 128.895C106.464 128.75 107.109 128.409 107.625 127.912C114.955 120.667 124.38 102.712 124.38 102.712C121.993 102.424 119.641 101.889 117.364 101.116C115.856 102.985 94.5137 124.93 94.5137 124.93C97.4682 126.419 100.527 127.689 103.666 128.731Z" fill="#F7901E"/>
<path d="M86.3671 104.392C86.2205 114.409 94.5563 124.909 94.5563 124.909L117.407 101.095C117.407 101.095 112.38 89.1878 111.94 87.8438C111.94 87.8438 92.3363 101.893 86.3671 104.392Z" fill="#D9671D"/>
<path d="M126.621 105.946C122.537 106.093 107.436 103.552 100.043 93.5558C104.378 89.1667 106.619 86.5627 106.619 86.5627L113.091 84.9457L118.683 88.0748L128.59 104.35L126.621 105.946Z" fill="#A83924"/>
<path d="M93.6982 113.779C92.5672 111.994 93.0489 109.39 94.7663 106.702C101.432 105.504 107.365 101.734 111.291 96.2018C114.454 95.7608 117.009 96.4118 118.14 98.3019C120.235 101.704 116.611 107.983 109.762 112.288C102.914 116.593 95.8764 117.202 93.6982 113.779Z" fill="#BF6B2B"/>
<path d="M95.9804 121.003C99.5409 122.788 103.437 122.977 112.966 117.013C122.496 111.049 123.857 107.227 123.732 103.258C123.646 101.858 123.244 100.495 122.556 99.2738C121.867 98.0525 120.911 97.0044 119.758 96.209C118.605 95.4136 117.287 94.8918 115.904 94.6831C114.52 94.4745 113.107 94.5845 111.772 95.0048C109.678 95.5928 108.547 96.3488 108.191 97.1048C107.946 97.4713 107.815 97.9026 107.815 98.3438C107.815 98.785 107.946 99.2163 108.191 99.5828C108.361 99.8369 108.58 100.055 108.835 100.223C109.09 100.392 109.376 100.507 109.677 100.564C109.977 100.621 110.285 100.617 110.584 100.553C110.882 100.489 111.165 100.366 111.416 100.192C111.702 100.017 111.946 99.7803 112.128 99.4989C114.223 100.213 115.082 103.405 111.123 108.004C109.029 104.371 106.934 99.9818 106.934 97.5038C106.934 92.7788 103.478 89.8807 98.2633 93.1988L98.012 93.4087L97.7188 93.5768C92.5036 96.8948 93.6975 101.221 97.9492 103.258C100.044 104.308 103.227 108.067 105.657 111.448C99.8341 113.128 97.2789 110.965 97.5302 108.781C97.8672 108.734 98.1894 108.612 98.4728 108.424C98.9988 108.105 99.3791 107.592 99.5319 106.995C99.6847 106.398 99.5977 105.765 99.2896 105.232C99.0449 104.864 98.699 104.575 98.2939 104.399C97.8887 104.224 97.4416 104.171 97.0066 104.245C96.1689 104.245 95.0588 104.875 93.6137 106.639C92.6664 107.672 91.9662 108.907 91.5662 110.252C91.1661 111.597 91.0768 113.015 91.3049 114.399C91.533 115.784 92.0725 117.098 92.8826 118.242C93.6928 119.386 94.7521 120.331 95.9804 121.003Z" fill="#D58C51"/>
<path d="M99.1217 95.8029C99.2128 95.7414 99.3113 95.692 99.415 95.6558L99.6872 95.4458C102.619 93.5558 104.986 93.6608 106.494 94.9629C105.468 91.8548 102.431 90.4688 98.1164 93.1568L97.8651 93.3668L97.5719 93.5349C93.383 96.2229 93.383 99.5619 95.7078 101.809C95.268 100.003 96.1058 97.7769 99.1217 95.8029Z" fill="#BF6B2B"/>
<path d="M171.506 66.8645C169.684 65.1005 167.904 60.3334 166.626 56.1754C165.433 52.3324 164.658 48.9933 164.658 48.9933L161.579 49.7493L158.5 50.5053C158.5 50.5053 159.359 53.8233 160.092 57.7924C160.867 61.9924 161.495 67.1165 160.72 69.5315C159.17 74.2146 161.579 78.2256 167.841 76.6926L168.155 76.5666H168.511C174.711 74.9706 174.983 70.3086 171.506 66.8645Z" fill="#A15417"/>
<path d="M179.988 56.3644C181.14 61.0265 174.836 64.7645 166.374 66.8645L165.788 67.0116C157.012 69.1116 149.388 68.8595 148.215 64.0925C147.042 59.3254 151.65 47.2923 160.426 45.1923L161.012 45.0663C169.62 43.5123 178.836 51.7024 179.988 56.3644Z" fill="#FAAA5C"/>
<path d="M179.987 56.3644C181.139 61.0265 174.835 64.7645 166.374 66.8645L165.787 67.0116C157.011 69.1116 149.388 68.8595 148.215 64.0925C148.068 63.4739 148.012 62.8373 148.047 62.2025C150.309 65.5625 157.179 65.5835 164.949 63.6725L165.536 63.5255C173.034 61.5935 178.815 58.4224 179.275 54.4954C179.596 55.0831 179.836 55.7119 179.987 56.3644Z" fill="#D17530"/>
<path d="M128.234 115.459L128.549 111.931L113.888 117.958C113.888 117.958 110.39 122.662 112.107 125.707C112.17 125.707 125.114 118.546 128.234 115.459Z" fill="#FCB555"/>
<path d="M83.5396 102.712C83.2612 103.454 83.198 104.26 83.3574 105.037C83.5168 105.814 83.8922 106.529 84.4402 107.101C92.3991 115.228 112.191 125.707 112.191 125.707C112.51 123.068 113.107 120.471 113.972 117.958C111.877 116.278 87.7704 92.6318 87.7704 92.6318C86.1197 95.8852 84.7058 99.2541 83.5396 102.712Z" fill="#F7901E"/>
<path d="M110.328 83.6018C99.3113 83.4338 87.75 92.6318 87.75 92.6318L113.951 117.958C113.951 117.958 127.062 112.414 128.612 111.931C128.55 111.931 113.093 90.2168 110.328 83.6018Z" fill="#D9671D"/>
<path d="M108.673 128.143C108.505 123.649 111.333 106.912 122.35 98.7429C133.366 90.5738 130.036 106.03 130.036 106.03L131.795 113.191L128.361 119.491L110.432 130.453L108.673 128.143Z" fill="#A83924"/>
<path d="M161.515 92.4848C160.531 90.8468 161.054 88.5368 162.667 86.1847C165.637 85.7883 168.491 84.7725 171.045 83.2027C173.664 81.6964 175.939 79.6578 177.726 77.2176C180.554 76.9236 182.836 77.5746 183.8 79.3176C185.643 82.4257 182.145 87.9487 175.967 91.6028C169.788 95.2568 163.358 95.6138 161.515 92.4848Z" fill="#D17530"/>
<path d="M163.338 99.0578C166.48 100.759 169.956 101.032 178.69 95.9708C187.424 90.9097 188.722 87.5707 188.743 83.9797C188.71 82.7218 188.391 81.4882 187.811 80.3725C187.231 79.2568 186.404 78.2885 185.394 77.5414C184.385 76.7942 183.218 76.2878 181.984 76.0606C180.75 75.8335 179.48 75.8916 178.271 76.2306C176.282 76.6716 175.339 77.3226 175.004 77.9736C174.773 78.2934 174.637 78.6718 174.611 79.0655C174.586 79.4592 174.671 79.8523 174.857 80.1997C175.154 80.6645 175.622 80.9935 176.159 81.1153C176.696 81.2372 177.259 81.1421 177.727 80.8507C177.987 80.6932 178.215 80.4863 178.397 80.2416C180.24 80.9346 180.931 83.8327 177.245 87.8437C175.508 84.9204 174.342 81.6917 173.81 78.3306C173.915 74.1306 170.962 71.3795 166.186 74.1306L165.935 74.2986L165.663 74.4456C160.888 77.2806 161.83 81.1866 165.663 83.1187C167.611 84.1267 170.25 87.6127 172.344 90.7207C167.066 92.0228 164.867 90.0278 165.139 88.0748C165.443 88.0377 165.735 87.9375 165.998 87.7807C166.479 87.5108 166.834 87.062 166.987 86.5313C167.14 86.0007 167.078 85.431 166.815 84.9457C166.595 84.6007 166.28 84.3276 165.908 84.1597C165.536 83.9918 165.123 83.9365 164.72 84.0007C163.987 84.0007 162.982 84.5047 161.641 86.1007C160.78 87.0083 160.132 88.0976 159.744 89.2889C159.357 90.4802 159.241 91.7432 159.403 92.9855C159.566 94.2278 160.004 95.4179 160.685 96.4686C161.365 97.5193 162.272 98.404 163.338 99.0578Z" fill="#E7A563"/>
<path d="M166.898 76.6086L167.17 76.4826L167.421 76.2936C170.102 74.6976 172.238 74.8656 173.537 76.0836C172.72 73.2485 170.039 71.8836 166.185 74.2146L165.934 74.3826L165.662 74.5296C161.808 76.8186 161.682 79.8007 163.756 81.9007C163.337 80.1577 164.196 78.2046 166.898 76.6086Z" fill="#D17530"/>
<path d="M113.259 101.053C111.541 102.502 107.227 103.678 103.457 104.434C100.001 105.169 97.0059 105.568 97.0059 105.568L97.4038 108.34L97.8227 111.133C97.8227 111.133 100.797 110.65 104.315 110.335C108.148 110.02 112.693 109.894 114.662 110.797C118.641 112.54 122.348 110.797 121.532 105.127V104.833C121.532 104.728 121.532 104.623 121.532 104.518C120.631 98.8689 116.547 98.2389 113.259 101.053Z" fill="#A15417"/>
<path d="M104.777 92.6318C108.966 92.0228 111.71 97.8819 112.904 105.547C112.904 105.715 112.904 105.883 112.904 106.072C114.035 113.989 113.134 120.667 108.84 121.297C104.547 121.927 94.4936 116.845 93.3416 108.928V108.382C92.6295 100.675 100.588 93.2408 104.777 92.6318Z" fill="#FAAA5C"/>
<path d="M104.777 92.6318C108.966 92.0228 111.709 97.8819 112.903 105.547C112.903 105.715 112.903 105.883 112.903 106.072C114.034 113.968 113.134 120.667 108.84 121.297C108.291 121.37 107.734 121.37 107.185 121.297C110.306 119.596 110.913 113.548 109.908 106.597C109.898 106.415 109.898 106.233 109.908 106.051C108.84 99.2889 106.578 93.9338 103.164 93.1988C103.676 92.9436 104.218 92.7531 104.777 92.6318Z" fill="#D17530"/>
<path d="M174.752 115.48C174.626 121.78 169.558 130.831 162.919 139.294C160.824 141.94 158.604 144.544 156.321 146.959C155.881 147.421 155.441 147.883 154.981 148.325C154.52 148.766 153.766 149.564 153.138 150.152L151.672 151.558L150.017 153.05C149.389 153.617 148.76 154.142 148.153 154.646L146.75 155.759C145.66 156.62 144.655 157.376 143.566 158.069L142.121 158.972L140.676 159.791C140.215 160.043 139.754 160.253 139.293 160.463C138.87 160.661 138.437 160.836 137.995 160.988C137.22 161.261 136.424 161.513 135.586 161.765C132.801 162.605 129.68 163.382 126.245 164.117C124.758 163.928 122.873 163.592 120.862 163.214C115.249 162.122 108.568 160.526 105.992 159.665C101.803 158.258 102.557 153.995 102.159 148.513C102.069 147.493 102.069 146.468 102.159 145.447C102.159 144.733 102.348 143.956 102.494 143.137C107.395 138.538 114.516 123.691 113.846 104.896C113.406 92.2958 134.79 81.2497 153.64 89.1668C155.278 89.8441 156.879 90.6082 158.437 91.4558L160.049 92.3798C161.39 93.1721 162.684 94.0415 163.924 94.9838L164.196 95.1938L165.62 96.3699L165.956 96.6639C168.747 98.9277 170.989 101.798 172.513 105.057C174.037 108.317 174.802 111.881 174.752 115.48Z" fill="#C1671D"/>
<path d="M169.411 100.192C167.08 98.2639 164.577 96.5556 161.934 95.0889C143.733 84.9877 118.851 92.9888 117.427 106.366C115.165 127.366 107.939 141.919 102.18 145.468C102.18 144.754 102.368 143.977 102.515 143.158C107.416 138.559 114.537 123.712 113.867 104.917C113.427 92.3168 134.811 81.2707 153.661 89.1878C155.299 89.8651 156.9 90.6292 158.457 91.4768L160.07 92.4008C161.407 93.198 162.701 94.0673 163.944 95.0048L164.217 95.2148L165.641 96.3909L165.976 96.6849C167.217 97.7557 168.366 98.9288 169.411 100.192Z" fill="#642915"/>
<path d="M162.897 139.315C160.802 141.961 158.582 144.565 156.299 146.981C155.859 147.443 155.419 147.905 154.959 148.346C154.498 148.787 153.744 149.585 153.116 150.173L151.649 151.58L149.995 153.071C149.367 153.638 148.738 154.163 148.131 154.667L146.728 155.78C145.638 156.641 144.633 157.397 143.544 158.09L142.099 158.993L140.654 159.812C140.193 160.064 139.732 160.274 139.271 160.484L137.994 160.904L135.585 161.702C132.8 162.542 129.679 163.319 126.244 164.054C124.757 163.865 122.872 163.529 120.861 163.151C126.272 162.497 131.609 161.33 136.8 159.665C142.162 157.208 148.194 154.415 150.812 150.95C154.422 146.657 158.472 142.758 162.897 139.315Z" fill="#642915"/>
<path d="M174.752 115.48C174.94 106.387 170.228 99.7299 163.986 94.9839C165.174 96.834 166.581 98.5334 168.175 100.045C172.804 104.476 173.055 112.393 173.6 114.913C174.144 117.433 170.081 127.345 169.055 129.046C167.884 131.011 166.862 133.061 165.997 135.178C171.045 127.975 174.647 120.73 174.752 115.48Z" fill="#713C09"/>
<path d="M144.111 94.0809C151.295 92.4008 165.055 101.935 165.809 107.437C166.563 112.939 162.835 128.689 155.086 136.396C147.336 144.103 129.617 158.489 120.8 157.712C111.982 156.935 104.924 155.759 107.647 152.756C113.533 147.334 120.103 142.709 127.188 139C132.026 137.026 147.378 127.555 146.666 117.811C145.954 108.067 134.602 96.2859 144.111 94.0809Z" fill="#D8872D"/>
<path d="M39.556 129.508C37.4616 123.754 37.4616 113.443 38.823 103.111C39.2419 99.8769 39.8074 96.6219 40.4567 93.5349C40.5823 92.9259 40.708 92.3378 40.8546 91.7498C41.0012 91.1618 41.2106 90.1538 41.4201 89.3558C41.6295 88.5578 41.7343 88.1168 41.9018 87.5077C42.0694 86.8987 42.2788 86.1427 42.4673 85.4077C42.6558 84.6727 42.9071 83.9167 43.1375 83.3077C43.3679 82.6987 43.4936 82.2577 43.6611 81.7537C44.08 80.5357 44.5199 79.4227 44.9597 78.3937C45.1901 77.9106 45.3995 77.4276 45.609 77.0076C45.8184 76.5876 46.0488 76.1047 46.2792 75.6847C46.5096 75.2647 46.719 74.9076 46.9494 74.5296C47.1798 74.1516 47.4102 73.8366 47.6406 73.5426C47.8709 73.2486 48.4993 72.4506 48.96 71.9046C50.5378 70.0426 52.3391 68.1105 54.3637 66.1085C55.4318 65.6885 56.8142 65.2685 58.3012 64.8275C61.9927 63.7368 65.7492 62.8811 69.5483 62.2655C72.8994 61.9085 73.9047 66.1085 76.1667 70.9806C76.5718 71.9014 76.9147 72.8486 77.193 73.8156C77.4024 74.5086 77.6119 75.2646 77.8213 76.0627C76.2086 82.1737 76.816 98.5329 84.1046 115.459C89.0056 126.883 78.6172 145.279 63.1603 145.405C61.809 145.432 60.4576 145.355 59.118 145.174C58.6573 145.174 58.1965 145.048 57.7148 144.964C56.5307 144.758 55.3621 144.47 54.2171 144.103C54.1276 144.082 54.0343 144.082 53.9448 144.103L52.5625 143.578L52.2483 143.431C49.2698 142.145 46.598 140.238 44.4098 137.838C42.2217 135.437 40.5673 132.598 39.556 129.508Z" fill="#C1671D"/>
<path d="M48.709 141.415C50.9168 142.261 53.2152 142.846 55.5578 143.158C71.4126 145.258 85.173 128.269 81.2774 115.48C75.1616 95.3829 74.7428 79.2757 77.298 73.7737C77.5074 74.4667 77.7169 75.2226 77.9263 76.0207C76.3136 82.1317 76.921 98.4909 84.2096 115.417C89.1106 126.841 78.7222 145.237 63.2653 145.363C61.914 145.39 60.5626 145.313 59.223 145.132C58.7622 145.132 58.3015 145.007 57.8198 144.923C56.6013 144.734 55.3976 144.461 54.2173 144.103C54.1278 144.082 54.0346 144.082 53.9451 144.103L52.5627 143.578L52.2486 143.431C51.0046 142.879 49.8189 142.204 48.709 141.415Z" fill="#642915"/>
<path d="M38.8867 103.09C39.3056 99.8559 39.8711 96.6009 40.5204 93.5139C40.646 92.9049 40.7717 92.3169 40.9183 91.7288C41.0649 91.1408 41.2744 90.1329 41.4838 89.3349C41.6933 88.5368 41.798 88.0958 41.9655 87.4868C42.1331 86.8778 42.3425 86.1218 42.531 85.3868C42.7195 84.6518 42.9709 83.8958 43.2012 83.2868C43.4316 82.6778 43.5573 82.2367 43.7248 81.7327C44.1437 80.5147 44.5836 79.4017 45.0234 78.3727C45.2538 77.8897 45.4632 77.4067 45.6727 76.9867C45.8821 76.5667 46.1125 76.0837 46.3429 75.6637C46.5733 75.2437 46.7827 74.8866 47.0131 74.5086C47.2435 74.1306 47.4739 73.8366 47.7043 73.5426L49.0238 71.8836C50.6016 70.0216 52.4028 68.0896 54.4274 66.0876C55.4956 65.6676 56.8779 65.2475 58.3649 64.8065C54.8958 67.5945 51.736 70.7487 48.94 74.2147C46.2382 78.5617 43.2222 83.4547 42.6567 87.6548C41.8536 92.9007 40.5921 98.0656 38.8867 103.09Z" fill="#642915"/>
<path d="M39.556 129.508C40.6829 132.921 42.5984 136.018 45.1463 138.547C47.6942 141.077 50.8023 142.966 54.217 144.061C52.8101 142.864 51.2542 141.855 49.5883 141.058C44.8759 138.811 41.839 131.671 40.5614 129.571C39.2838 127.471 38.4669 116.845 38.4669 114.871C38.4669 113.443 38.4669 110.671 38.2784 108.046C37.4616 116.635 37.7548 124.678 39.556 129.508Z" fill="#713C09"/>
<path d="M67.8943 137.131C63.7054 141.478 50.9503 138.139 48.4998 133.372C46.0493 128.605 42.782 112.792 45.1697 102.712C47.5573 92.6318 54.2176 72.7026 60.5009 69.8466C66.7842 66.9906 71.8527 65.4365 71.1197 69.2376C69.234 76.2793 66.5127 83.0689 63.0142 89.4608C60.48 93.1359 53.6521 107.794 57.6734 116.425C61.6947 125.056 73.4445 131.503 67.8943 137.131Z" fill="#D8872D"/>
<path d="M115.333 91.8128C117.218 97.6509 116.61 107.962 114.725 118.21C114.139 121.423 113.427 124.636 112.631 127.702C112.484 128.29 112.317 128.878 112.149 129.445C111.982 130.012 111.71 131.041 111.458 131.818C111.207 132.595 111.081 133.036 110.893 133.645C110.704 134.254 110.453 134.968 110.222 135.619C109.992 136.27 109.72 137.089 109.448 137.719C109.175 138.349 109.05 138.769 108.84 139.273C108.365 140.449 107.884 141.541 107.395 142.549C107.144 143.032 106.913 143.494 106.683 143.914L105.95 145.195C105.698 145.594 105.447 145.951 105.196 146.308C104.979 146.638 104.741 146.954 104.484 147.253C104.023 147.778 103.562 148.303 103.06 148.828C101.405 150.614 99.5199 152.441 97.3836 154.352C96.2945 154.709 94.8912 155.066 93.3832 155.423C89.64 156.337 85.8409 157.003 82.0105 157.418C78.6384 157.628 77.8216 153.365 75.8529 148.408C75.4765 147.468 75.1753 146.499 74.9522 145.51C74.7707 144.824 74.6032 144.068 74.4496 143.242C76.3555 137.215 76.544 120.856 70.1141 103.573C65.7996 91.9179 77.0676 74.0676 92.5874 74.7186C93.9357 74.7671 95.2793 74.9075 96.6087 75.1386L98.0119 75.4326C99.2024 75.6853 100.372 76.0293 101.51 76.4617C101.583 76.5174 101.67 76.5535 101.761 76.5666L103.101 77.1546L103.437 77.3017C106.323 78.7501 108.873 80.7903 110.922 83.2901C112.972 85.7899 114.474 88.6935 115.333 91.8128Z" fill="#C1671D"/>
<path d="M106.809 79.4647C104.64 78.5133 102.371 77.8088 100.044 77.3647C84.3152 74.4456 69.717 90.7628 72.9843 103.72C78.0948 124.111 77.7387 140.218 74.9112 145.573C74.7297 144.887 74.5621 144.131 74.4085 143.305C76.3145 137.278 76.503 120.919 70.0731 103.636C65.7586 91.9808 77.0266 74.1306 92.5463 74.7816C93.8947 74.8301 95.2382 74.9705 96.5676 75.2016L97.9709 75.4956C99.1581 75.7609 100.327 76.1047 101.469 76.5247C101.542 76.5804 101.629 76.6165 101.72 76.6296L103.06 77.2176L103.395 77.3647C104.592 77.9647 105.734 78.6673 106.809 79.4647Z" fill="#642915"/>
<path d="M114.725 118.231C114.139 121.444 113.427 124.657 112.631 127.723C112.484 128.311 112.316 128.899 112.149 129.466C111.981 130.033 111.709 131.062 111.458 131.839C111.206 132.616 111.081 133.057 110.892 133.666C110.704 134.275 110.452 134.989 110.222 135.64C109.992 136.291 109.719 137.11 109.447 137.74C109.175 138.37 109.049 138.79 108.84 139.294C108.365 140.47 107.883 141.562 107.395 142.57C107.143 143.053 106.913 143.515 106.682 143.935L105.949 145.216C105.698 145.615 105.447 145.972 105.195 146.329C104.973 146.654 104.728 146.963 104.462 147.253C104.023 147.778 103.562 148.303 103.059 148.849C101.405 150.634 99.5195 152.462 97.3832 154.373C96.2941 154.73 94.8908 155.087 93.3828 155.444C96.9764 152.826 100.283 149.835 103.248 146.518C106.159 142.318 109.531 137.572 110.117 133.414C111.202 128.226 112.744 123.145 114.725 118.231Z" fill="#642915"/>
<path d="M115.333 91.8129C114.369 88.3539 112.608 85.1703 110.193 82.5185C107.777 79.8667 104.774 77.8208 101.426 76.5457C102.767 77.8132 104.266 78.9003 105.887 79.7797C110.474 82.2367 113.176 89.5449 114.265 91.6869C115.354 93.8289 115.794 104.518 115.626 106.387C115.448 108.65 115.399 110.922 115.479 113.191C116.736 104.77 116.904 96.7269 115.333 91.8129Z" fill="#713C09"/>
<path d="M87.4358 82.7827C91.8551 78.5827 104.401 82.6147 106.621 87.5078C108.841 92.4009 111.312 108.34 108.422 118.294C105.532 128.248 97.9499 147.905 91.6666 150.362C85.3833 152.819 80.1053 154.205 81.0269 150.362C83.263 143.429 86.3145 136.788 90.1167 130.579C92.8185 127.03 100.379 112.729 96.7979 103.888C93.2164 95.0469 81.5923 88.2428 87.4358 82.7827Z" fill="#D8872D"/>
<path d="M87.3724 169.304C87.4319 169.378 87.4643 169.471 87.4643 169.566C87.4643 169.662 87.4319 169.754 87.3724 169.829C87.1 170.135 86.9107 170.506 86.8226 170.907C86.7346 171.308 86.7508 171.725 86.8698 172.118C86.8883 172.175 86.8945 172.235 86.8878 172.295C86.8811 172.354 86.8617 172.412 86.831 172.463C86.8002 172.515 86.7589 172.559 86.7096 172.593C86.6604 172.627 86.6044 172.651 86.5455 172.661C86.4866 172.672 86.4261 172.67 86.3681 172.655C86.3101 172.64 86.2559 172.613 86.2093 172.575C86.1626 172.538 86.1245 172.491 86.0975 172.437C86.0706 172.383 86.0554 172.325 86.0529 172.265C85.9114 171.743 85.9045 171.194 86.0327 170.668C86.1609 170.143 86.4201 169.659 86.786 169.262C86.8643 169.185 86.9696 169.142 87.0792 169.142C87.1889 169.142 87.2941 169.185 87.3724 169.262V169.304Z" fill="#5BA841"/>
<path d="M87.8539 169.01C87.901 169.108 87.9099 169.221 87.879 169.326C87.848 169.43 87.7794 169.52 87.6864 169.577C86.8787 170.097 86.2216 170.822 85.7805 171.677C85.7944 171.738 85.7944 171.802 85.7804 171.864C85.7664 171.925 85.7387 171.983 85.6995 172.032C85.6602 172.081 85.6104 172.121 85.5537 172.148C85.497 172.176 85.4349 172.19 85.372 172.19C85.3091 172.19 85.247 172.176 85.1903 172.148C85.1336 172.121 85.0838 172.081 85.0446 172.032C85.0053 171.983 84.9777 171.925 84.9637 171.864C84.9496 171.802 84.9496 171.738 84.9636 171.677C84.9636 170.858 86.6182 169.325 87.3094 168.989C87.3877 168.926 87.4857 168.894 87.5855 168.898C87.6854 168.902 87.7806 168.942 87.8539 169.01Z" fill="#5BA841"/>
<path d="M88.3154 169.073C88.3615 169.137 88.3862 169.214 88.3862 169.293C88.3862 169.372 88.3615 169.449 88.3154 169.514C88.2587 169.607 88.1694 169.676 88.065 169.707C87.9605 169.738 87.8482 169.729 87.7499 169.682C87.1216 169.367 85.5299 170.522 84.8178 171.257C84.7806 171.295 84.7363 171.326 84.6872 171.348C84.6382 171.369 84.5854 171.381 84.5319 171.382C84.4785 171.383 84.4253 171.373 84.3755 171.353C84.3257 171.334 84.2803 171.304 84.2418 171.267C84.2033 171.23 84.1725 171.186 84.1511 171.136C84.1297 171.087 84.1182 171.034 84.1173 170.981C84.1163 170.927 84.1259 170.874 84.1454 170.824C84.165 170.774 84.1942 170.728 84.2313 170.69C84.2313 170.69 86.6818 168.191 88.1479 168.947L88.3154 169.073Z" fill="#5BA841"/>
<path d="M87.3508 168.107C87.3909 168.215 87.3909 168.334 87.3508 168.443C87.3385 168.496 87.3157 168.547 87.2837 168.592C87.2518 168.637 87.2113 168.675 87.1646 168.705C87.1179 168.734 87.066 168.754 87.0117 168.763C86.9574 168.772 86.9018 168.77 86.8482 168.758C86.4463 168.679 86.031 168.705 85.6422 168.834C85.2534 168.963 84.9042 169.19 84.6281 169.493C84.5498 169.57 84.4445 169.613 84.3348 169.613C84.2252 169.613 84.1199 169.57 84.0416 169.493C83.9649 169.414 83.9219 169.309 83.9219 169.199C83.9219 169.089 83.9649 168.983 84.0416 168.905C84.409 168.51 84.8731 168.219 85.3876 168.061C85.9021 167.903 86.449 167.882 86.9738 168.002C87.0405 167.993 87.1082 167.998 87.1729 168.016C87.2377 168.034 87.2982 168.065 87.3508 168.107Z" fill="#5BA841"/>
<path d="M87.8742 168.338C87.9284 168.415 87.9547 168.509 87.949 168.604C87.9433 168.698 87.9059 168.788 87.8428 168.859C87.7797 168.929 87.6947 168.976 87.6015 168.992C87.5084 169.008 87.4125 168.992 87.3297 168.947C86.487 168.521 85.5496 168.319 84.6069 168.359C84.5562 168.383 84.5011 168.397 84.4449 168.4C84.3886 168.402 84.3324 168.394 84.2797 168.374C84.2269 168.355 84.1786 168.325 84.1376 168.286C84.0967 168.247 84.064 168.2 84.0414 168.149C83.9987 168.048 83.9966 167.935 84.0357 167.833C84.0748 167.731 84.152 167.649 84.2508 167.603C85.4605 167.442 86.6901 167.662 87.7695 168.233C87.7695 168.233 87.8533 168.296 87.8742 168.338Z" fill="#5BA841"/>
<path d="M87.8758 168.254C88.0423 168.473 88.1439 168.735 88.169 169.01C88.1695 169.12 88.129 169.226 88.0554 169.308C87.9817 169.389 87.8803 169.44 87.7711 169.451C87.6613 169.451 87.5554 169.411 87.474 169.337C87.3926 169.263 87.3417 169.161 87.3312 169.052C87.3312 168.338 85.4881 167.561 84.4828 167.33C84.43 167.32 84.3797 167.299 84.335 167.269C84.2903 167.239 84.2522 167.201 84.2228 167.156C84.1935 167.11 84.1735 167.06 84.1642 167.007C84.1549 166.954 84.1564 166.899 84.1687 166.847C84.181 166.793 84.2038 166.742 84.2357 166.697C84.2677 166.652 84.3082 166.614 84.3548 166.585C84.4015 166.555 84.4535 166.536 84.5078 166.527C84.5621 166.518 84.6177 166.519 84.6713 166.532C85.8743 166.807 86.9813 167.402 87.8758 168.254Z" fill="#5BA841"/>
<path d="M91.9172 166.154C91.9263 166.195 91.9263 166.238 91.9172 166.28C91.9511 166.383 91.9439 166.495 91.897 166.593C91.8502 166.691 91.7674 166.767 91.6659 166.805C91.1615 166.907 90.6912 167.136 90.2992 167.47C89.9072 167.804 89.6063 168.233 89.4249 168.716C89.4133 168.769 89.3905 168.819 89.3579 168.863C89.3253 168.906 89.2837 168.942 89.236 168.968C89.1883 168.994 89.1355 169.009 89.0814 169.013C89.0272 169.016 88.9729 169.008 88.9222 168.989C88.8684 168.975 88.8181 168.949 88.7747 168.915C88.7312 168.88 88.6955 168.836 88.6699 168.787C88.6442 168.737 88.6292 168.683 88.6258 168.627C88.6223 168.572 88.6306 168.516 88.6499 168.464C88.8563 167.851 89.2176 167.303 89.6985 166.872C90.1794 166.442 90.7634 166.143 91.3936 166.007C91.4855 165.976 91.5847 165.973 91.6781 165.999C91.7715 166.025 91.8549 166.079 91.9172 166.154Z" fill="#5BA841"/>
<path d="M90.8704 165.104C90.9018 165.147 90.9241 165.197 90.9358 165.25C90.9476 165.302 90.9486 165.357 90.9388 165.41C90.929 165.463 90.9086 165.513 90.8789 165.558C90.8491 165.603 90.8106 165.641 90.7656 165.671C90.1021 166.658 89.7052 167.801 89.6137 168.989C89.6165 169.043 89.6084 169.097 89.5896 169.148C89.5709 169.199 89.5421 169.245 89.5048 169.285C89.4676 169.324 89.4228 169.355 89.3731 169.376C89.3234 169.398 89.2699 169.409 89.2158 169.409C89.1618 169.412 89.1078 169.403 89.057 169.385C89.0063 169.366 88.9599 169.337 88.9207 169.3C88.8815 169.262 88.8504 169.217 88.8291 169.167C88.8078 169.118 88.7968 169.064 88.7969 169.01C88.8641 167.547 89.3921 166.142 90.3049 164.999C90.3947 164.941 90.5033 164.919 90.6084 164.939C90.7136 164.958 90.8073 165.017 90.8704 165.104Z" fill="#5BA841"/>
<path d="M89.6126 164.789C89.6387 164.844 89.6523 164.905 89.6523 164.967C89.6523 165.029 89.6387 165.09 89.6126 165.146V165.251C89.3479 165.925 89.2297 166.649 89.2658 167.373C89.3019 168.097 89.4915 168.806 89.822 169.451C89.8471 169.5 89.8622 169.554 89.8663 169.61C89.8704 169.665 89.8635 169.721 89.8459 169.774C89.8284 169.826 89.8006 169.875 89.7641 169.917C89.7277 169.959 89.6833 169.993 89.6336 170.018C89.5359 170.062 89.425 170.067 89.3237 170.032C89.2224 169.997 89.1384 169.924 89.089 169.829C88.7073 169.08 88.486 168.261 88.4391 167.422C88.3922 166.582 88.5208 165.743 88.8167 164.957V164.852C88.8504 164.746 88.9244 164.658 89.0224 164.607C89.1205 164.556 89.2348 164.546 89.3403 164.579C89.4521 164.616 89.548 164.69 89.6126 164.789Z" fill="#5BA841"/>
<path d="M88.7129 169.304C89.1988 170.036 89.606 170.817 89.9277 171.635V171.761C89.9513 171.811 89.964 171.867 89.9651 171.922C89.9661 171.978 89.9554 172.034 89.9337 172.085C89.912 172.137 89.8797 172.183 89.839 172.221C89.7983 172.259 89.75 172.289 89.6973 172.307C89.6492 172.328 89.5975 172.339 89.5451 172.339C89.4927 172.34 89.4407 172.33 89.392 172.311C89.3434 172.291 89.299 172.262 89.2616 172.226C89.2241 172.189 89.1942 172.145 89.1737 172.097V171.95C88.9674 171.132 88.5715 170.376 88.0183 169.741C87.4651 169.106 86.7702 168.611 85.9902 168.296C85.9361 168.281 85.8855 168.256 85.8414 168.222C85.7972 168.187 85.7604 168.144 85.7331 168.095C85.7058 168.046 85.6885 167.992 85.6823 167.937C85.6761 167.881 85.6811 167.825 85.6969 167.771C85.7306 167.665 85.8046 167.577 85.9027 167.526C86.0007 167.475 86.115 167.465 86.2206 167.498C87.2308 167.8 88.1093 168.437 88.7129 169.304Z" fill="#5BA841"/>
<path d="M89.6973 167.414C89.7277 167.509 89.7277 167.612 89.6973 167.708C89.5922 168.472 89.6348 169.249 89.8229 169.997C89.9609 170.598 89.9609 171.223 89.8229 171.824C89.8025 171.932 89.7406 172.028 89.6505 172.09C89.5604 172.153 89.4494 172.178 89.3412 172.16C89.2875 172.147 89.2369 172.124 89.192 172.092C89.1472 172.06 89.1091 172.02 89.0799 171.973C89.0507 171.926 89.031 171.874 89.022 171.82C89.0129 171.765 89.0146 171.709 89.027 171.656C89.1398 171.165 89.1398 170.655 89.027 170.165C88.8269 169.326 88.7773 168.459 88.8804 167.603C88.8881 167.547 88.9067 167.494 88.9352 167.446C88.9637 167.398 89.0015 167.356 89.0464 167.322C89.0912 167.289 89.1423 167.265 89.1965 167.252C89.2508 167.239 89.307 167.237 89.3621 167.246C89.4266 167.248 89.4898 167.265 89.5475 167.294C89.6052 167.323 89.6562 167.364 89.6973 167.414Z" fill="#5BA841"/>
<path d="M130.308 150.866C129.177 150.593 129.156 149.606 129.345 148.598C129.345 148.178 129.009 147.757 128.653 147.883L117.05 151.937C116.862 151.937 117.05 155.129 118.16 154.73C117.679 154.898 131.711 152.084 130.308 150.866Z" fill="#9BA730"/>
<path d="M117.406 110.818C116.904 109.999 117.406 109.201 118.244 108.487C118.558 108.193 118.558 107.626 118.244 107.542L108.673 104.581C108.526 104.581 106.704 107.143 107.604 107.437C107.311 107.311 117.49 112.603 117.406 110.818Z" fill="#AECA36"/>
<path d="M111.961 44.6673C111.575 43.8954 111.442 43.0203 111.584 42.1682C111.584 41.7902 111.438 41.2442 111.312 41.2652L107.123 41.8322C107.123 41.8322 107.123 44.9613 107.563 44.8983C107.333 44.9193 112.485 46.2633 111.961 44.6673Z" fill="#9BA730"/>
<path d="M166.625 58.6115C166.625 59.4305 165.62 59.8925 164.657 60.2495C164.259 60.3965 163.924 60.8585 164.07 61.0265L169.223 66.4445C169.223 66.4445 172.155 64.9745 171.673 64.4495C171.883 64.6595 167.589 57.1625 166.625 58.6115Z" fill="#9BA730"/>
<path d="M92.3992 126.001C92.0778 125.728 91.8263 125.381 91.666 124.99C91.5057 124.599 91.4411 124.175 91.4777 123.754C91.4777 123.355 91.1216 122.893 90.9331 122.956L85.0268 125.056C84.9221 125.056 85.5714 128.059 86.1369 127.87C85.9065 127.912 93.4045 127.303 92.3992 126.001Z" fill="#719C3A"/>
<path d="M172.344 105.736C171.82 104.917 172.344 104.119 173.161 103.405C173.475 103.111 173.475 102.544 173.161 102.46L163.673 99.4989C163.526 99.4989 161.578 102.061 162.584 102.355C162.249 102.229 172.428 107.458 172.344 105.736Z" fill="#719C3A"/>
<path d="M87.7281 71.7366C86.8275 71.4426 86.5762 70.4975 86.4505 69.5315C86.4505 69.1115 85.9897 68.6915 85.7593 68.8175L78.2403 72.4086C78.1147 72.4086 79.0153 75.4956 79.7483 75.1596C79.497 75.3066 89.1104 72.9756 87.7281 71.7366Z" fill="#719C3A"/>
<path d="M61.1506 68.9856C60.772 68.2111 60.6404 67.3386 60.7736 66.4865C60.7736 66.1085 60.627 65.5625 60.5014 65.5835L56.3125 66.1505C56.3125 66.1505 56.3125 69.2795 56.7523 69.2165C56.5219 69.2375 61.6742 70.6026 61.1506 68.9856Z" fill="#B2BE27"/>
<path d="M41.4627 121.591C41.1067 120.709 41.6303 119.911 42.2795 119.197C42.5518 118.903 42.5937 118.315 42.2795 118.21L34.8653 114.703C34.7605 114.703 33.1059 117.307 33.818 117.622C33.5248 117.58 41.4418 123.397 41.4627 121.591Z" fill="#9BA730"/>
<path d="M177.977 134.485C178.522 133.687 179.485 133.939 180.427 134.338C180.825 134.527 181.349 134.338 181.307 134.002L180.323 124.09C180.323 123.922 177.181 123.25 177.286 124.09C177.244 123.817 176.406 135.241 177.977 134.485Z" fill="#AECA36"/>
<path d="M126.81 93.8289C127.354 93.1847 128.087 92.7291 128.904 92.5269C129.281 92.4008 129.721 92.0228 129.637 91.9178L127.543 88.2008C127.543 88.2008 124.694 89.4608 124.904 89.8178C124.778 89.6708 125.553 94.9629 126.81 93.8289Z" fill="#9BA730"/>
<path d="M171.065 148.534C170.248 148.765 169.473 148.114 168.782 147.358C168.489 147.043 167.923 146.918 167.839 147.128L164.865 153.974C164.865 154.1 167.379 156.074 167.651 155.486C167.546 155.738 172.761 148.871 171.065 148.534Z" fill="#9BA730"/>
<path d="M146.184 51.8284C147.357 55.2094 145.074 60.7115 142.205 61.6145C139.336 62.5175 135.733 60.2915 133.953 57.9394C132.173 55.5874 133.471 51.1144 137.032 48.5104C140.592 45.9063 144.823 48.5103 146.184 51.8284ZM146.561 51.6394C144.97 48.0483 140.278 45.0453 136.613 47.6703C132.759 50.6943 131.607 55.6924 133.576 58.1704C135.545 60.6484 139.357 63.3995 142.394 62.6435C145.43 61.8875 147.86 55.5244 146.582 51.6813L146.561 51.6394Z" fill="#61AB55"/>
<path d="M146.184 51.8283C144.823 48.5943 140.487 46.2213 137.032 48.5103C133.576 50.7993 132.235 55.6924 133.953 57.9394C135.67 60.1864 139.294 62.4754 142.205 61.6144C145.116 60.7534 147.357 55.2093 146.184 51.8283ZM134.937 57.7504C133.639 55.7554 134.749 52.2903 137.618 50.4003C138.24 50.0095 138.939 49.7604 139.667 49.6707C140.396 49.5811 141.134 49.653 141.832 49.8814C142.529 50.1098 143.168 50.4891 143.703 50.9925C144.238 51.4958 144.656 52.111 144.928 52.7943C145.331 54.2487 145.23 55.7975 144.64 57.1865C144.05 58.5754 143.007 59.7221 141.681 60.4384C140.418 60.7448 139.091 60.6508 137.883 60.1694C136.675 59.688 135.646 58.8428 134.937 57.7504Z" fill="#92BF85"/>
<path d="M134.581 38.2201C136.172 42.9452 132.486 50.8203 128.13 52.1854C123.773 53.5504 118.474 50.6523 115.919 47.4393C113.364 44.2262 115.563 37.8631 121.009 34.0201C122.155 33.3172 123.437 32.8669 124.77 32.6992C126.103 32.5315 127.457 32.6503 128.74 33.0476C130.024 33.4449 131.209 34.1116 132.216 35.0035C133.223 35.8953 134.029 36.9918 134.581 38.2201ZM135.146 37.9472C133.052 32.9491 126.119 28.9801 120.485 32.8651C114.558 37.2962 112.568 44.3942 115.416 47.7333C118.265 51.0723 123.794 54.7894 128.423 53.5923C133.052 52.3953 136.968 43.3023 135.209 37.9472H135.146Z" fill="#8AB44C"/>
<path d="M134.581 38.2201C134.029 36.9918 133.223 35.8953 132.216 35.0035C131.209 34.1116 130.024 33.4449 128.741 33.0476C127.457 32.6503 126.103 32.5315 124.77 32.6992C123.437 32.8669 122.155 33.3172 121.009 34.0201C115.563 37.8631 113.448 44.3522 115.919 47.4393C118.391 50.5263 123.711 53.5504 128.13 52.1854C132.549 50.8203 136.172 42.9452 134.581 38.2201ZM117.427 47.1033C115.563 44.3732 117.427 39.4382 121.826 36.6031C122.711 36.0048 123.715 35.6058 124.768 35.4335C125.822 35.2613 126.9 35.3198 127.929 35.6052C128.958 35.8905 129.913 36.3959 130.729 37.0866C131.544 37.7772 132.201 38.6368 132.654 39.6062C133.129 41.7539 132.869 43.9997 131.915 45.981C130.962 47.9623 129.37 49.5636 127.397 50.5263C125.586 51.0617 123.654 51.0198 121.868 50.4066C120.082 49.7934 118.531 48.6391 117.427 47.1033Z" fill="#C2CD76"/>
<path d="M116.758 35.7842C121.429 37.4853 125.429 44.1843 123.984 47.7124C122.539 51.2404 117.093 52.8154 113.051 52.5844C109.009 52.3534 105.281 47.3763 105.469 41.8323C105.658 36.2882 112.129 34.3982 116.758 35.7842ZM116.884 35.2802C111.648 33.8102 104.485 35.8052 104.191 41.5803C104.191 47.7543 108.632 53.0044 112.946 53.1514C117.261 53.2984 123.418 51.9334 125.219 48.4053C127.021 44.8773 122.141 37.2543 116.842 35.3222L116.884 35.2802Z" fill="#8AB44C"/>
<path d="M116.757 35.7842C112.128 34.3982 105.886 36.6241 105.468 41.8322C105.279 47.3763 109.154 52.3324 113.049 52.5844C116.945 52.8364 122.453 51.2194 123.982 47.7123C125.511 44.2053 121.427 37.4852 116.757 35.7842ZM113.678 51.4714C110.41 51.0724 107.604 47.1243 108.002 42.7983C108.167 41.8476 108.541 40.9454 109.094 40.1561C109.648 39.3668 110.369 38.71 111.206 38.2325C112.042 37.755 112.973 37.4686 113.933 37.3939C114.892 37.3191 115.857 37.4579 116.757 37.8002C120.547 39.1862 123.396 44.1003 122.286 47.2503C121.176 50.4003 117.05 51.8494 113.678 51.4714Z" fill="#C2CD76"/>
<path d="M98.2002 75.6006C103.248 71.4005 109.468 72.5555 110.536 75.3276C111.605 78.0996 110.788 82.2366 109.908 85.0297C109.028 87.8227 105.175 88.7887 100.043 87.4657C94.9119 86.1427 93.1316 79.8846 98.2002 75.6006ZM97.8441 75.3276C91.9169 80.3046 94.0323 87.4237 99.7501 88.4947C105.468 89.5657 109.301 88.2427 110.222 85.3237C111.144 82.4047 112.442 77.8056 111.458 74.8236C110.474 71.8416 103.729 70.4765 97.8022 75.2646L97.8441 75.3276Z" fill="#24573C"/>
<path d="M98.201 75.6007C93.1325 79.8007 94.9337 86.2058 100.044 87.4658C105.154 88.7258 108.945 87.6338 109.909 85.0298C110.872 82.4257 111.668 78.0997 110.537 75.3277C109.406 72.5556 103.165 71.4636 98.201 75.6007ZM109.218 84.1268C108.212 86.2268 105.029 86.9828 101.175 85.5338C100.263 85.2232 99.4555 84.6646 98.8421 83.9204C98.2286 83.1762 97.8335 82.2756 97.701 81.3193C97.5684 80.3629 97.7036 79.3884 98.0915 78.5047C98.4794 77.6209 99.1047 76.8627 99.8975 76.3147C103.542 73.2696 108.275 73.8787 109.427 76.2097C109.93 77.4772 110.164 78.836 110.113 80.1992C110.063 81.5625 109.729 82.9001 109.134 84.1268H109.218Z" fill="#61AB55"/>
<path d="M76.2934 67.9985C81.1734 66.9065 85.069 69.8045 84.8386 72.0935C84.2736 74.5744 82.9567 76.8191 81.0687 78.5196C79.5188 79.9686 76.5238 79.4436 73.4659 76.7556C70.408 74.0676 71.3714 69.1536 76.2934 67.9985ZM76.1468 67.6625C70.3661 69.0275 69.3818 74.6346 72.9004 77.3646C76.419 80.0947 79.5397 80.5147 81.2781 78.8347C83.0165 77.1547 85.467 74.4666 85.7393 72.1146C86.0115 69.7625 81.9483 66.4655 76.2305 67.6625H76.1468Z" fill="#24573C"/>
<path d="M76.2934 67.9986C71.3506 69.1536 70.4081 74.1306 73.466 76.7557C76.5238 79.3807 79.5189 79.9687 81.0688 78.5197C82.9568 76.8191 84.2737 74.5744 84.8387 72.0936C85.0691 69.8046 81.1735 66.9066 76.2934 67.9986ZM80.9012 77.6586C79.477 78.7717 77.0265 78.1627 74.9111 75.8316C74.3902 75.3039 74.0264 74.6408 73.8608 73.9171C73.6952 73.1933 73.7343 72.4376 73.9737 71.735C74.2131 71.0323 74.6433 70.4105 75.216 69.9396C75.7886 69.4687 76.4809 69.1674 77.215 69.0696C80.7546 68.2505 83.7496 70.3086 83.7706 72.3036C83.6879 73.3467 83.3903 74.3613 82.8963 75.283C82.4024 76.2048 81.7231 77.0138 80.9012 77.6586Z" fill="#61AB55"/>
<path d="M78.0521 57.3094C76.3556 53.6344 78.0521 50.0433 79.7904 49.8333C81.8424 49.854 83.8384 50.5065 85.5082 51.7023C86.9324 52.6683 87.0372 55.1253 85.5082 58.0024C83.9793 60.8794 79.8952 61.0054 78.1149 57.3094H78.0521ZM77.8426 57.4774C79.937 61.8034 84.4819 61.6774 86.0109 58.3594C87.5398 55.0414 87.3304 52.5633 85.7386 51.5343C83.9543 50.245 81.8705 49.4353 79.6857 49.1823C77.8007 49.1823 75.8948 53.1723 77.8426 57.4774Z" fill="#24573C"/>
<path d="M78.0527 57.3094C79.833 61.0054 83.8962 60.9004 85.4461 58.0024C86.996 55.1043 86.9331 52.6683 85.4461 51.7023C83.7762 50.5065 81.7802 49.854 79.7283 49.8333C77.9689 50.0433 76.3563 53.6344 78.0527 57.3094ZM84.8596 51.9753C85.9906 52.8993 85.9278 54.9574 84.4617 57.0364C84.134 57.5357 83.6747 57.9342 83.1349 58.1876C82.595 58.441 81.9956 58.5395 81.4033 58.4721C80.811 58.4046 80.2489 58.1739 79.7795 57.8056C79.31 57.4372 78.9516 56.9456 78.7439 56.3854C77.4872 53.7394 78.5763 51.0093 80.1472 50.6313C80.9826 50.5175 81.8325 50.5781 82.6435 50.8094C83.4544 51.0407 84.209 51.4377 84.8596 51.9753Z" fill="#61AB55"/>
<path d="M86.3036 48.6784C89.2149 51.8914 89.6338 58.6955 87.1205 60.7746C84.6071 62.8536 79.769 61.8456 76.6483 59.9976C73.5276 58.1495 72.7317 52.8155 75.0775 48.6364C77.4861 44.8144 83.1829 45.6964 86.2198 48.6364L86.3036 48.6784ZM86.5968 48.3424C83.141 45.0663 76.8158 43.6173 74.3025 47.8804C71.8311 52.6264 73.1715 58.3805 76.3969 60.3545C79.6224 62.3285 85.0051 63.7565 87.7697 61.7825C90.5344 59.8085 89.8641 51.9964 86.5549 48.3424H86.5968Z" fill="#24573C"/>
<path d="M86.3036 48.6783C83.2666 45.6963 77.5698 44.8143 75.1612 48.6783C72.8154 52.8784 73.8207 58.2544 76.732 60.0394C79.6432 61.8245 84.5442 62.8535 87.2041 60.8164C89.8641 58.7794 89.2148 51.8913 86.3036 48.6783ZM77.6535 59.3884C76.4368 58.2674 75.6712 56.7386 75.5015 55.0905C75.3317 53.4424 75.7694 51.789 76.732 50.4423C77.2473 49.7811 77.9021 49.2423 78.6495 48.8645C79.3969 48.4868 80.2184 48.2795 81.055 48.2574C81.8917 48.2353 82.7229 48.3991 83.4891 48.7369C84.2552 49.0747 84.9374 49.5782 85.4867 50.2114C87.8534 52.8364 88.0838 57.8134 85.9894 59.7245C83.8949 61.6355 80.0621 61.0685 77.6535 59.3884Z" fill="#61AB55"/>
<path d="M74.3444 65.4995C78.9103 64.5125 85.5077 67.9566 86.1361 71.5476C86.7644 75.1387 83.2039 79.2127 79.8528 81.0817C76.5017 82.9507 71.0143 80.7877 68.3543 76.1676C66.0505 71.6946 69.9252 66.7386 74.3444 65.4995ZM74.1769 65.0375C69.2549 66.4865 64.5215 71.7576 67.2024 76.5666C70.344 81.6067 76.5226 83.6227 80.0413 81.5437C83.5599 79.4647 87.8116 75.2436 87.4346 71.4426C87.0576 67.6415 79.3501 63.9245 74.1769 65.1425V65.0375Z" fill="#61AB55"/>
<path d="M74.344 65.4996C69.9248 66.7386 65.9663 71.6946 68.3539 76.1677C71.0139 80.7877 76.7317 82.8667 79.8524 81.0817C82.9731 79.2967 86.6802 75.1807 86.1357 71.5477C85.5911 67.9146 78.9099 64.5126 74.344 65.4996ZM79.7896 79.8427C76.983 81.1867 72.7523 79.3807 70.8882 75.6427C70.5398 74.7924 70.3812 73.876 70.4234 72.9577C70.4657 72.0394 70.708 71.1416 71.1331 70.3271C71.5582 69.5126 72.1558 68.8014 72.8842 68.2431C73.6126 67.6848 74.454 67.2932 75.3493 67.0955C79.0774 66.2975 83.8527 68.9016 84.523 71.9886C85.1932 75.0757 82.638 78.4777 79.7896 79.8427Z" fill="#92BF85"/>
<path d="M99.6879 42.5253C102.85 39.0813 110.16 38.0732 112.799 40.6563C115.438 43.2393 114.893 48.6154 113.134 52.0804C111.375 55.5454 105.741 56.9315 100.924 54.6845C96.4834 52.3744 96.7347 46.0744 99.6879 42.5253ZM99.2899 42.2313C96.0854 46.2633 95.2477 53.2984 100.211 55.6924C105.657 58.0025 111.877 56.0915 113.553 52.3534C115.229 48.6154 116.297 42.6933 113.804 39.7533C111.312 36.8132 102.892 38.2832 99.2899 42.1683V42.2313Z" fill="#61AB55"/>
<path d="M99.6874 42.5252C96.7762 46.0743 96.483 52.3744 100.923 54.6844C105.74 56.9314 111.542 55.3983 113.134 52.0803C114.725 48.7623 115.333 43.3232 112.799 40.6562C110.264 37.9891 102.85 39.1022 99.6874 42.5252ZM112.38 51.1143C110.851 53.8023 106.348 54.7894 102.703 52.8364C101.932 52.3419 101.278 51.6842 100.786 50.9096C100.295 50.135 99.9781 49.2621 99.8584 48.3519C99.7387 47.4417 99.8188 46.5163 100.093 45.6404C100.368 44.7645 100.83 43.9593 101.447 43.2812C104.044 40.4882 109.447 39.8372 111.772 41.9792C114.097 44.1212 113.93 48.3423 112.38 51.1143Z" fill="#92BF85"/>
<path d="M80.1046 45.8013C82.6389 43.0293 88.4824 42.2103 90.5768 44.2893C92.6712 46.3683 92.1895 50.5894 90.8491 53.4664C89.5086 56.3435 84.9009 57.3725 81.0262 55.5664C77.1515 53.7604 77.696 48.6364 80.0418 45.8013H80.1046ZM79.7695 45.5493C77.2143 48.8044 76.5232 54.4535 80.5026 56.3855C84.9009 58.2335 89.8856 56.7005 91.247 53.6975C92.6084 50.6944 93.3415 45.9273 91.4355 43.6173C89.5296 41.3073 82.6598 42.4413 79.7695 45.5493Z" fill="#61AB55"/>
<path d="M80.1043 45.8013C77.7585 48.6363 77.5072 53.6973 81.0887 55.5664C84.6702 57.4354 89.613 56.1334 90.9116 53.4663C92.2101 50.7993 92.6709 46.4313 90.6393 44.2892C88.6077 42.1472 82.6386 43.0292 80.1043 45.8013ZM90.3042 52.6893C89.401 53.8382 88.1083 54.6142 86.6717 54.8698C85.2352 55.1253 83.7551 54.8426 82.5129 54.0754C81.8893 53.6826 81.3599 53.1566 80.9623 52.5351C80.5648 51.9136 80.3089 51.2118 80.2128 50.4798C80.1168 49.7477 80.1831 49.0035 80.4069 48.3C80.6307 47.5966 81.0065 46.9514 81.5076 46.4103C83.602 44.1632 87.9375 43.6382 89.8853 45.3603C90.7102 46.3848 91.1943 47.6427 91.2694 48.9573C91.3445 50.2719 91.007 51.577 90.3042 52.6893Z" fill="#92BF85"/>
<path d="M144.279 68.3556C143.399 62.0555 147.42 57.4775 150.248 57.9605C153.075 58.4435 156.091 61.2365 157.976 63.3575C159.861 65.4785 158.688 69.1746 155.023 72.7656C151.358 76.3567 145.284 74.6976 144.279 68.3556ZM143.86 68.5026C145.012 75.9157 151.965 77.7427 155.714 73.5426C159.463 69.3426 160.322 65.4786 158.395 63.2105C156.468 60.9425 153.285 57.6035 150.373 56.9105C147.462 56.2174 142.896 61.1105 143.86 68.4815V68.5026Z" fill="#24573C"/>
<path d="M144.277 68.3555C145.282 74.6556 151.419 76.3776 155.022 72.7656C158.624 69.1535 159.629 65.4575 157.975 63.3575C156.32 61.2574 153.137 58.4224 150.246 57.9604C147.356 57.4984 143.439 62.0764 144.277 68.3555ZM156.844 63.4834C158.079 65.3735 157.074 68.3975 153.953 70.8756C153.237 71.4752 152.369 71.8641 151.446 71.999C150.522 72.1338 149.58 72.0094 148.723 71.6396C147.866 71.2697 147.128 70.6688 146.591 69.9037C146.053 69.1387 145.738 68.2393 145.68 67.3055C144.989 62.7485 147.775 59.1574 150.393 59.3254C151.696 59.5364 152.941 60.0145 154.051 60.73C155.161 61.4454 156.112 62.3828 156.844 63.4834Z" fill="#61AB55"/>
<path d="M122.286 58.5905C124.276 53.8654 128.967 52.2904 130.664 53.8865C132.397 55.8214 133.481 58.2525 133.764 60.8375C134.057 62.9376 131.858 65.0375 127.836 66.1086C123.815 67.1796 120.276 63.3996 122.223 58.5905H122.286ZM121.93 58.5905C119.647 64.2186 123.71 68.3556 128.067 66.9906C132.423 65.6256 134.58 63.3156 134.183 60.9635C133.785 58.6115 132.968 54.9575 131.229 53.2774C129.491 51.5974 124.297 53.1094 121.93 58.5695V58.5905Z" fill="#24573C"/>
<path d="M122.287 58.5905C120.339 63.3995 123.9 67.1165 127.9 66.1085C131.9 65.1005 134.183 62.9585 133.827 60.8375C133.545 58.2524 132.46 55.8213 130.728 53.8864C128.968 52.3534 124.277 53.8024 122.287 58.5905ZM133.031 60.4385C133.031 62.2865 131.146 63.9665 127.963 64.3655C127.224 64.472 126.471 64.3724 125.785 64.0778C125.099 63.7832 124.507 63.3049 124.074 62.6953C123.642 62.0858 123.385 61.3685 123.332 60.6222C123.279 59.8758 123.432 59.1293 123.774 58.4645C125.198 55.0204 128.675 53.7394 130.351 54.8944C131.152 55.5856 131.803 56.4342 132.264 57.3878C132.725 58.3414 132.986 59.3797 133.031 60.4385Z" fill="#61AB55"/>
<path d="M121.05 53.8024C125.365 50.4213 133.931 50.5473 136.319 53.9284C138.706 57.3094 136.947 63.3155 134.329 66.9695C131.711 70.6236 124.925 71.1696 119.919 67.8305C115.353 64.4285 117.029 57.3304 121.05 53.8024ZM120.652 53.3824C116.191 57.4354 113.782 65.2685 118.893 68.8596C124.611 72.4086 132.067 71.3166 134.748 67.3476C137.429 63.3785 139.858 56.8474 137.638 53.1514C135.418 49.4553 125.553 49.6023 120.652 53.3824Z" fill="#24573C"/>
<path d="M121.051 53.8023C117.03 57.3304 115.354 64.4285 119.92 67.8305C124.926 71.2115 131.817 70.4555 134.33 66.9695C136.843 63.4834 138.624 57.3934 136.32 53.9283C134.016 50.4633 125.429 50.4843 121.051 53.8023ZM133.618 65.7305C131.335 68.5445 126.036 68.8805 122.287 66.0245C121.511 65.3078 120.902 64.4285 120.503 63.4491C120.104 62.4698 119.926 61.4143 119.98 60.3579C120.034 59.3014 120.319 58.2698 120.815 57.3364C121.312 56.403 122.008 55.5908 122.853 54.9573C126.371 52.2273 132.654 52.4163 134.833 55.2514C137.011 58.0864 136.006 62.9164 133.66 65.7935L133.618 65.7305Z" fill="#61AB55"/>
<path d="M145.975 74.2356C150.625 76.3357 152.007 81.1027 150.437 82.8247C148.46 84.5098 146.006 85.5307 143.42 85.7437C141.326 85.9747 139.231 83.6437 138.31 79.6537C137.388 75.6636 141.221 72.1566 145.975 74.2356ZM145.975 73.8786C140.446 71.4426 136.215 75.4116 137.43 79.8007C138.645 84.1897 140.907 86.4368 143.274 86.1008C145.64 85.7648 149.306 85.0508 151.023 83.3497C152.74 81.6487 151.379 76.3986 145.975 73.8786Z" fill="#24573C"/>
<path d="M145.975 74.2356C141.22 72.1356 137.43 75.6216 138.309 79.6536C139.189 83.6857 141.283 85.9537 143.42 85.7437C146.005 85.5307 148.459 84.5098 150.436 82.8247C152.007 81.1027 150.562 76.3566 145.975 74.2356ZM143.88 84.9667C142.058 84.9667 140.425 82.9717 140.11 79.7796C140.011 79.0299 140.121 78.2672 140.429 77.5768C140.737 76.8863 141.23 76.2954 141.854 75.8704C142.478 75.4453 143.208 75.2028 143.962 75.1699C144.715 75.1371 145.463 75.3154 146.121 75.6846C149.514 77.1756 150.708 80.7037 149.493 82.3417C148.78 83.1494 147.907 83.7998 146.93 84.2517C145.953 84.7035 144.893 84.947 143.818 84.9667H143.88Z" fill="#61AB55"/>
<path d="M150.707 73.1226C153.954 77.5537 153.598 86.1427 150.163 88.4317C146.728 90.7208 140.801 88.8098 137.219 86.0797C133.638 83.3497 133.24 76.5457 136.737 71.6106C140.256 67.1375 147.21 68.9856 150.707 73.1226ZM151.126 72.7446C147.21 68.1665 139.46 65.5415 135.753 70.6445C132.046 76.2726 132.947 83.7697 136.821 86.5628C140.696 89.3558 147.168 91.9808 150.917 89.8598C154.666 87.7388 154.771 77.8476 151.126 72.8286V72.7446Z" fill="#24573C"/>
<path d="M150.709 73.1226C147.295 68.9225 140.237 67.1375 136.739 71.6106C133.241 76.5456 133.807 83.4757 137.221 86.0797C140.635 88.6837 146.666 90.6577 150.164 88.4317C153.662 86.2057 153.955 77.5536 150.709 73.1226ZM138.477 85.4497C135.734 83.0767 135.524 77.7636 138.477 74.0675C139.214 73.3103 140.108 72.725 141.095 72.3532C142.083 71.9814 143.14 71.8323 144.192 71.9165C145.244 72.0007 146.264 72.3161 147.18 72.8403C148.097 73.3645 148.887 74.0847 149.494 74.9496C152.133 78.5616 151.777 84.8197 148.887 86.9407C145.996 89.0617 141.284 87.8647 138.477 85.4497Z" fill="#61AB55"/>
<path d="M141.01 70.6026C140.214 64.7436 145.199 56.7425 149.744 56.3015C154.289 55.8605 159.085 60.7325 161.096 65.1426C163.106 69.5526 159.881 76.2727 153.807 79.1917C147.985 81.6488 142.12 76.2937 141.01 70.6026ZM140.403 70.7497C141.764 77.0497 147.901 83.5808 154.205 80.6827C160.845 77.2177 163.986 69.5946 161.703 64.9746C159.42 60.3545 154.519 54.4744 149.744 54.6424C144.969 54.8104 139.523 64.1136 140.403 70.7497Z" fill="#61AB55"/>
<path d="M141.011 70.6026C142.121 76.2936 147.985 81.6487 153.808 79.1917C159.882 76.2726 163.044 69.3846 161.097 65.1425C159.149 60.9005 154.353 55.9654 149.745 56.3014C145.137 56.6374 140.215 64.7225 141.011 70.6026ZM159.547 65.1215C160.95 68.7756 158.29 73.9626 153.452 75.9576C152.351 76.3192 151.184 76.4336 150.034 76.2924C148.884 76.1512 147.779 75.758 146.798 75.1408C145.816 74.5235 144.983 73.6972 144.355 72.7205C143.728 71.7439 143.323 70.6408 143.168 69.4896C142.54 64.7015 146.247 58.9895 150.185 58.3595C154.122 57.7295 158.102 61.3625 159.547 65.1005V65.1215Z" fill="#92BF85"/>
<path d="M115.92 55.4195C111.186 54.9364 105.887 49.5394 106.432 45.8644C106.977 42.1893 111.626 39.3963 115.459 38.6403C119.292 37.8843 123.837 41.7063 125.01 47.0404C126.183 52.3744 120.549 55.6505 115.92 55.4405V55.4195ZM115.92 55.9235C121.135 56.0495 127.334 52.4584 126.266 46.9774C124.8 41.1183 119.459 37.2333 115.438 38.1363C111.417 39.0393 105.929 41.7903 105.133 45.5703C104.338 49.3504 110.579 55.3565 115.92 55.9235Z" fill="#61AB55"/>
<path d="M115.92 55.4194C120.549 55.6084 125.848 52.0173 125.01 47.0193C124.172 42.0212 119.125 37.9472 115.459 38.6192C111.794 39.2912 107.082 42.1892 106.432 45.8433C105.783 49.4973 111.187 54.9364 115.92 55.4194ZM115.124 39.8582C118.245 39.4592 121.784 42.5042 122.434 46.6833C122.518 47.6152 122.393 48.5543 122.07 49.4321C121.747 50.3099 121.232 51.1044 120.564 51.758C119.897 52.4116 119.092 52.9078 118.209 53.2106C117.326 53.5133 116.386 53.6151 115.459 53.5083C111.605 53.1093 107.794 49.0983 108.108 45.9063C108.422 42.7142 111.941 40.2782 115.124 39.8582Z" fill="#92BF85"/>
<path d="M141.659 92.3379C137.47 91.8969 132.611 86.8988 133.093 83.4968C133.575 80.0947 137.805 77.4907 141.261 76.7977C144.717 76.1047 148.864 79.6327 149.89 84.5258C150.916 89.4188 145.848 92.5059 141.659 92.3379ZM141.659 92.7999C146.372 92.9259 151.964 89.5868 151 84.5048C149.702 79.0867 144.885 75.4747 141.24 76.3147C137.596 77.1547 132.653 79.7167 131.92 83.2238C131.187 86.7308 136.842 92.2749 141.659 92.7999Z" fill="#61AB55"/>
<path d="M141.66 92.3378C145.849 92.5268 150.624 89.1878 149.891 84.5257C149.158 79.8637 144.571 76.1256 141.262 76.7977C137.953 77.4697 133.659 80.0947 133.094 83.4967C132.528 86.8988 137.388 91.8968 141.66 92.3378ZM140.969 77.9107C143.776 77.5327 146.959 80.3677 147.545 84.2107C147.619 85.0566 147.507 85.9084 147.217 86.7062C146.927 87.504 146.467 88.2286 145.868 88.829C145.269 89.4294 144.547 89.891 143.751 90.1816C142.955 90.4721 142.106 90.5845 141.262 90.5108C137.785 90.1328 134.351 86.4158 134.644 83.4757C135.001 82.0091 135.799 80.6882 136.931 79.6925C138.062 78.6968 139.472 78.0747 140.969 77.9107Z" fill="#92BF85"/>
<path d="M108.966 66.7175C107.291 72.8285 101.762 75.4536 99.353 73.8575C96.9444 72.2615 95.3107 68.5235 94.4311 65.8355C93.5514 63.1475 96.0857 60.2074 100.882 58.3804C105.678 56.5534 110.6 60.4804 108.966 66.7805V66.7175ZM109.406 66.7175C111.312 59.4514 105.678 55.0204 100.547 57.3514C95.4154 59.6824 93.1325 62.9164 93.9912 65.7515C94.85 68.5865 96.4417 72.9335 98.8503 74.7186C101.259 76.5036 107.396 73.8156 109.322 66.7175H109.406Z" fill="#24573C"/>
<path d="M108.965 66.7175C110.599 60.4174 105.635 56.5114 100.881 58.3174C96.1264 60.1234 93.7387 63.1895 94.4299 65.7725C95.1211 68.3555 96.9013 72.2405 99.3518 73.7945C101.802 75.3486 107.29 72.8285 108.965 66.7175ZM95.4771 66.1715C95.1001 63.9245 97.2364 61.5514 101.069 60.5434C101.964 60.2748 102.916 60.2615 103.817 60.5048C104.719 60.7481 105.536 61.2386 106.175 61.9211C106.814 62.6036 107.251 63.4512 107.437 64.3689C107.623 65.2866 107.55 66.238 107.227 67.1165C106.054 71.5685 101.991 73.7106 99.7498 72.5346C98.6378 71.8275 97.684 70.897 96.9486 69.8018C96.2133 68.7066 95.7122 67.4705 95.4771 66.1715Z" fill="#61AB55"/>
<path d="M119.816 75.0336C124.926 75.2856 127.942 79.2336 127.105 81.3337C125.867 83.6132 123.958 85.4541 121.638 86.6047C119.732 87.6128 116.926 86.2897 114.664 82.8037C112.402 79.3177 114.664 74.7606 119.816 74.9706V75.0336ZM119.816 74.6766C113.763 74.4246 111.25 79.6537 113.993 83.3077C116.737 86.9617 119.648 88.2008 121.743 87.0248C123.837 85.8488 126.958 83.8537 128.026 81.6487C129.094 79.4437 125.827 75.0546 119.9 74.6766H119.816Z" fill="#24573C"/>
<path d="M119.815 75.0336C114.642 74.8236 112.359 79.4437 114.662 82.8668C116.966 86.2898 119.731 87.6758 121.637 86.6678C123.957 85.5172 125.866 83.6763 127.103 81.3968C127.941 79.2128 124.925 75.2856 119.815 75.0336ZM121.721 85.7858C120.024 86.4788 117.783 85.2188 116.317 82.3418C115.946 81.6739 115.77 80.9149 115.809 80.1514C115.848 79.3879 116.1 78.6507 116.537 78.0242C116.974 77.3977 117.578 76.9071 118.28 76.6085C118.981 76.3099 119.753 76.2154 120.506 76.3357C124.213 76.5037 126.601 79.3387 126.077 81.3128C125.701 82.3208 125.119 83.2392 124.369 84.0094C123.619 84.7795 122.717 85.3845 121.721 85.7858Z" fill="#61AB55"/>
<path d="M124.548 89.3348C119.249 90.6998 111.436 87.2348 110.599 83.0347C109.761 78.8347 113.761 74.1726 117.615 71.8835C121.469 69.5945 127.92 71.7366 131.166 76.8396C133.993 81.7957 129.637 87.6338 124.548 89.2718V89.3348ZM124.736 89.8598C130.433 87.9488 135.774 81.7327 132.506 76.3776C128.695 70.8336 121.427 68.8596 117.385 71.4216C113.342 73.9836 108.504 79.0237 109.007 83.2867C109.51 87.5498 118.683 91.3718 124.673 89.8598H124.736Z" fill="#24573C"/>
<path d="M124.548 89.3348C129.637 87.7178 133.993 81.8587 131.166 76.9026C127.92 71.7995 121.301 69.7416 117.615 71.9466C113.929 74.1516 109.845 79.0027 110.599 83.0977C111.353 87.1928 119.249 90.6998 124.548 89.3348ZM117.72 73.3325C120.945 71.6735 125.951 73.4795 128.192 77.5326C128.616 78.5026 128.823 79.5543 128.797 80.6132C128.771 81.6721 128.513 82.7123 128.041 83.6601C127.569 84.6079 126.896 85.4401 126.067 86.0977C125.239 86.7554 124.277 87.2224 123.249 87.4657C118.934 88.5577 113.259 85.8697 112.379 82.4047C111.499 78.9396 114.431 75.0546 117.72 73.3325Z" fill="#61AB55"/>
<path d="M112.861 66.0035C111.269 71.7156 103.52 77.0707 99.1635 75.6217C94.8071 74.1727 92.3566 67.8306 92.2728 63.0215C92.189 58.2125 97.823 53.2984 104.525 53.0674C110.809 53.0674 114.097 60.3964 112.903 66.0455L112.861 66.0035ZM113.468 66.1085C114.767 59.8084 111.709 51.4083 104.756 51.4083C97.2994 51.9543 91.3931 57.7084 91.6445 62.8325C91.8958 67.9565 94.074 75.2856 98.5142 77.0916C102.954 78.8977 111.646 72.4926 113.468 66.0455V66.1085Z" fill="#61AB55"/>
<path d="M112.862 66.0035C114.098 60.3545 110.768 53.0884 104.484 53.0254C97.7822 53.2564 92.1272 58.3174 92.2319 62.9795C92.3366 67.6415 94.7662 74.0886 99.1226 75.5796C103.479 77.0706 111.312 71.7156 112.862 66.0035ZM93.6771 63.6305C93.8446 59.7034 98.3477 56.0284 103.584 56.1334C104.737 56.2398 105.853 56.6002 106.852 57.1887C107.851 57.7771 108.708 58.5793 109.362 59.538C110.016 60.4967 110.451 61.5882 110.636 62.7349C110.821 63.8815 110.752 65.055 110.433 66.1716C109.113 70.8126 103.395 74.5716 99.5624 73.5636C95.7296 72.5556 93.5514 67.6415 93.719 63.6305H93.6771Z" fill="#92BF85"/>
<path d="M131.418 84.1057C132.989 88.5997 130.392 95.6978 126.852 96.7058C123.313 97.7138 118.789 94.7318 116.38 91.5818C113.971 88.4317 115.542 82.6147 119.836 79.3597C124.025 76.4616 129.512 79.7377 131.313 84.0217L131.418 84.1057ZM131.879 83.8957C129.784 79.1076 123.899 75.0126 119.312 78.3097C114.663 82.1107 113.406 88.6208 115.94 91.8968C118.474 95.1729 123.292 98.9529 127.041 98.0919C130.79 97.2308 133.554 88.9777 131.795 83.8957H131.879Z" fill="#61AB55"/>
<path d="M131.419 84.1058C129.618 79.9058 124.13 76.5457 119.941 79.4437C115.752 82.6988 114.286 88.6419 116.485 91.6659C118.685 94.6899 123.271 97.798 126.958 96.79C130.644 95.782 132.99 88.5999 131.419 84.1058ZM117.721 91.4349C116.025 88.7889 117.281 84.2739 120.758 81.9218C121.563 81.4441 122.464 81.1524 123.396 81.0684C124.327 80.9843 125.266 81.1099 126.143 81.4359C127.02 81.7618 127.813 82.2801 128.465 82.9527C129.117 83.6254 129.611 84.4355 129.911 85.3239C131.167 88.9989 129.178 94.165 126.162 95.236C123.146 96.307 119.46 94.144 117.721 91.4349Z" fill="#92BF85"/>
<path d="M149.493 48.8043C151.462 54.3904 148.215 63.2105 143.817 64.5545C139.419 65.8985 133.785 62.1184 130.915 58.2544C128.046 54.3904 129.889 47.1033 135.23 43.0502C140.445 39.4382 147.273 43.5122 149.493 48.8673V48.8043ZM150.058 48.5313C147.461 42.5672 140.152 37.4642 134.539 41.5802C128.737 46.3263 127.187 54.4114 130.35 58.4854C133.513 62.5595 139.503 67.2635 144.152 66.1925C148.802 65.1215 152.258 54.8523 150.058 48.5313Z" fill="#8AB44C"/>
<path d="M149.494 48.8043C147.274 43.4492 140.446 39.3752 135.231 42.9872C129.89 47.0403 128.172 54.4324 130.916 58.1914C133.66 61.9504 139.294 65.8145 143.818 64.4915C148.342 63.1685 151.462 54.3904 149.494 48.8043ZM132.445 58.0024C130.351 54.7054 131.9 49.0773 136.236 46.1582C137.237 45.5766 138.354 45.2233 139.507 45.1235C140.659 45.0238 141.82 45.1799 142.906 45.5809C143.992 45.9819 144.976 46.6179 145.789 47.4436C146.602 48.2693 147.223 49.2644 147.609 50.3583C149.2 54.9153 146.708 61.3415 142.959 62.6855C139.21 64.0295 134.602 61.2784 132.445 58.0024Z" fill="#C2CD76"/>
</g>
<defs>
<clipPath id="clip0_246_1592">
<rect width="173" height="173" fill="white" transform="translate(21 21)"/>
</clipPath>
</defs>
</svg>
