<svg width="215" height="215" viewBox="0 0 215 215" fill="none" xmlns="http://www.w3.org/2000/svg">
<g clip-path="url(#clip0_76_15173)">
<path d="M169.442 171.064C204.077 136.485 204.077 80.4207 169.442 45.8415C134.806 11.2622 78.6511 11.2622 44.0157 45.8414C9.38028 80.4206 9.38028 136.485 44.0157 171.064C78.6511 205.643 134.806 205.643 169.442 171.064Z" fill="#942900"/>
<path d="M118.987 187.754C101.042 187.755 83.5188 182.322 68.7319 172.172C53.945 162.022 42.5899 147.632 36.1666 130.903C29.7432 114.175 28.5538 95.8941 32.7553 78.4764C36.9569 61.0587 46.3518 45.3232 59.6991 33.3483C49.2699 39.852 40.3092 48.4498 33.3859 58.5956C26.4627 68.7415 21.7282 80.2137 19.4831 92.2839C17.238 104.354 17.5313 116.759 20.3444 128.71C23.1575 140.661 28.4289 151.897 35.8239 161.705C43.219 171.514 52.5761 179.68 63.301 185.685C74.026 191.69 85.8845 195.403 98.1236 196.589C110.363 197.774 122.715 196.405 134.396 192.57C146.077 188.735 156.832 182.516 165.977 174.309C151.893 183.117 135.605 187.777 118.987 187.754Z" fill="#822103"/>
<path d="M95.0277 82.4883C90.7737 74.4431 92.5829 63.1223 84.8033 57.1324C77.4394 51.4646 69.3274 55.5262 62.3987 59.915C54.0177 65.2263 41.8179 69.0341 37.8035 79.032C35.6813 84.3043 35.5004 91.1388 34.1362 96.6064C32.6155 102.674 32.6253 108.606 37.4514 113.243C46.1844 121.635 62.4574 116.631 73.2098 115.64C82.3536 114.801 105.027 116.558 107.858 104.822C109.746 96.9969 98.6461 89.3374 95.0277 82.4883Z" fill="#822103"/>
<path d="M68.2959 41.0664L73.6599 69.5857L104.064 64.6942L96.9056 35.1643L68.2959 41.0664Z" fill="#F2E0C9"/>
<path d="M131.153 70.7036L125.432 103.206L93.4141 97.5485L98.3673 66.7592L131.153 70.7036Z" fill="#DCC194"/>
<path d="M35.994 66.9642L29.8672 95.4103L58.9512 100.717L63.9631 70.7134L35.994 66.9642Z" fill="#F2E0C9"/>
<path d="M29.8672 95.4103L42.4435 102.43L67.0387 105.203L59.137 99.6037L29.8672 95.4103Z" fill="#DCC194"/>
<path d="M63.9629 70.7134L72.7643 77.7431L67.0385 105.203L59.1367 99.6037L63.9629 70.7134Z" fill="#B59B76"/>
<path d="M103.081 100.941H69.2734V67.262H99.7314L103.081 100.941Z" fill="#FFF4E9"/>
<path d="M69.2734 100.941L77.3757 107.473H99.174L103.081 100.941H69.2734Z" fill="#B59B76"/>
<path d="M98.1279 46.0507L106.025 73.9793L135.872 66.393L126.102 37.6199L98.1279 46.0507Z" fill="#FFF4E9"/>
<path d="M126.102 37.6199L132.81 45.3868L138.629 62.7317L135.871 66.393L126.102 37.6199Z" fill="#DCC194"/>
<path d="M131.124 37.3367C131.124 37.3367 179.204 61.7553 187.556 108.713C190.616 108.646 193.574 107.6 195.995 105.73C195.995 105.73 188.793 68.5752 130.346 26.0989C130.346 26.0989 119.936 30.3997 131.124 37.3367Z" fill="url(#paint0_linear_76_15173)"/>
<path d="M139.636 32.3133C139.636 32.3133 177.878 70.2789 171.419 117.5C174.354 118.374 177.491 118.287 180.372 117.251C180.372 117.251 184.924 79.691 142.325 21.3538C142.311 21.3684 131.099 22.3057 139.636 32.3133Z" fill="url(#paint1_linear_76_15173)"/>
<path d="M141.186 43.8734C141.186 43.8734 178.612 82.6591 171.111 129.749C174.025 130.686 177.163 130.665 180.064 129.69C180.064 129.69 185.443 92.2371 144.12 32.9919C144.12 32.9919 132.893 33.6559 141.186 43.8734Z" fill="url(#paint2_linear_76_15173)"/>
<path d="M150.883 41.9012C150.883 41.9012 174.584 90.2796 152.976 132.8C155.461 134.584 158.453 135.526 161.513 135.49C161.513 135.49 178.138 101.488 157.02 32.4452C157 32.4452 146.106 29.6284 150.883 41.9012Z" fill="url(#paint3_linear_76_15173)"/>
<path d="M112.743 35.6378C112.743 35.6378 164.295 51.5231 180.538 96.3622C183.55 95.7725 186.293 94.2323 188.362 91.9686C188.362 91.9686 174.91 56.6099 110.048 24.6978C110.048 24.6978 100.543 30.7023 112.743 35.6378Z" fill="url(#paint4_linear_76_15173)"/>
<path d="M120.263 29.2427C120.263 29.2427 164.442 60.1443 166.124 107.795C169.164 108.155 172.239 107.534 174.901 106.023C174.901 106.023 172.979 68.2383 121.055 18C121.055 18 110.161 20.8021 120.263 29.2427Z" fill="url(#paint5_linear_76_15173)"/>
<path d="M76.8816 39.4945C86.0058 36.7558 93.4528 34.4077 102.797 34.9886C94.4845 22.5401 74.9599 31.5274 65.1463 35.6525C52.922 40.7881 40.6978 45.9677 47.6705 61.3697C55.6945 63.5519 55.9488 54.3107 59.1173 49.7462C63.3567 43.6391 69.8257 41.6083 76.8816 39.4945Z" fill="#D84D00"/>
<path d="M93.0175 179.172C101.237 183.785 110.88 184.957 120.15 184.478C130.13 183.961 138.634 181.154 147.308 175.872C155.239 171.039 169.238 166.665 173.082 157.516C173.733 157.555 174.386 157.555 175.037 157.516C176.876 167.148 152.349 172.918 145.993 176.423C133.328 183.404 124.062 189.165 109.902 192.68C97.9267 195.662 88.4358 192.768 77.7958 187.944C73.4244 185.962 63.1267 184.4 59.9973 180.656C53.7776 173.245 65.6253 172.689 70.3977 172.464C81.0279 171.981 83.9373 174.07 93.0175 179.172Z" fill="#D84D00"/>
<path opacity="0.48" d="M149.641 103.929C161.337 98.4126 166.217 87.4042 164.911 74.9167C163.826 64.5819 158.672 45.3966 144.599 48.1499C137.133 49.6144 139.856 52.8315 137.338 58.6555C133.069 68.5313 120.332 74.0965 110.611 76.8742C102.729 79.1247 102.993 81.3167 102.543 89.9769C102.245 95.7813 100.734 104.622 108.372 105.428C113.784 105.989 117.246 101.034 123.828 102.606C126.762 103.309 128.879 105.447 132.067 106.121C138.399 107.463 143.91 106.634 149.641 103.929Z" fill="#942900"/>
<path d="M159.777 127.347C161.213 127.65 162.697 127.65 164.134 127.347C171.136 125.882 177.717 120.771 180.108 113.712C182.71 106.033 180.074 97.8219 176.309 91.6709C170.73 82.5419 153.401 82.4541 146.35 92.6912C140.702 100.893 143.905 113.888 149.597 120.385C152.281 123.456 155.772 126.493 159.777 127.347Z" fill="#281D1B"/>
<path d="M159.787 127.264C161.13 127.551 162.517 127.574 163.869 127.332C162.35 126.145 160.948 124.814 159.684 123.358C153.973 116.861 150.785 103.866 156.432 95.6641C160.119 90.3186 166.603 87.7898 172.759 87.8924C165.371 82.7421 152.261 84.0699 146.355 92.6423C140.707 100.844 143.91 113.839 149.606 120.337C152.296 123.358 155.772 126.414 159.787 127.264Z" fill="#070605"/>
<path d="M167.458 102.904C168.754 102.987 172.201 97.1238 172.206 95.835C169.854 95.0393 166.27 98.9203 164.759 100.585C162.803 97.8024 158.012 91.7978 154.926 91.3096C154.895 91.305 154.864 91.3084 154.835 91.3195C154.806 91.3306 154.78 91.3491 154.76 91.3731C154.739 91.3954 154.724 91.423 154.717 91.4531C154.71 91.4832 154.711 91.5146 154.721 91.5439C155.757 94.639 157.84 97.2019 159.86 99.6819C160.681 100.692 161.517 101.722 162.28 102.787C161.219 102.855 160.051 103.001 158.833 103.158C155.943 103.524 152.965 103.9 150.985 103.319C150.964 103.309 150.942 103.304 150.919 103.304C150.896 103.304 150.874 103.309 150.853 103.319C150.813 103.34 150.782 103.374 150.765 103.416C150.756 103.437 150.752 103.458 150.752 103.48C150.752 103.502 150.756 103.524 150.765 103.544C150.774 103.564 150.787 103.582 150.803 103.597C150.818 103.612 150.837 103.624 150.858 103.631C154.101 104.617 157.421 105.328 160.784 105.755C159.356 107.883 158.09 110.017 157.039 111.789L156.29 113.048C156.268 113.081 156.258 113.121 156.263 113.161C156.269 113.201 156.289 113.237 156.32 113.263C156.35 113.288 156.388 113.301 156.427 113.301C156.466 113.301 156.504 113.288 156.535 113.263C156.613 113.195 160.447 109.895 164.329 106.092H164.363L164.481 106.287C166.617 109.943 169.277 114.498 172.407 116.329C172.44 116.345 172.478 116.35 172.515 116.344C172.552 116.338 172.586 116.321 172.612 116.295C172.64 116.269 172.66 116.237 172.671 116.202C172.681 116.221 172.694 116.238 172.711 116.252C172.727 116.265 172.746 116.275 172.767 116.281C172.788 116.287 172.809 116.289 172.831 116.286C172.852 116.283 172.873 116.276 172.891 116.265C172.933 116.246 172.965 116.211 172.982 116.168C172.998 116.126 172.997 116.078 172.979 116.036C171.571 112.931 170.045 109.563 168.236 106.272C169.37 106.272 170.475 106.272 171.556 106.189C172.477 106.07 173.384 105.862 174.265 105.569C175.478 105.213 176.71 104.847 177.751 104.969C178.054 105.071 178.382 105.179 178.729 105.286C178.77 105.296 178.813 105.292 178.852 105.274C178.89 105.256 178.921 105.226 178.94 105.188C178.96 105.153 178.965 105.11 178.955 105.07C178.945 105.03 178.92 104.996 178.886 104.974C178.565 104.791 178.211 104.675 177.844 104.632C177.443 104.495 177.077 104.359 176.729 104.232C175.22 103.593 173.605 103.238 171.967 103.187C170.832 103.138 169.678 103.06 168.544 102.987L167.458 102.904Z" fill="#D3C7AB"/>
<path opacity="0.48" d="M90.6948 52.9388C85.2281 57.1567 79.3311 60.2615 75.6345 60.7106C70.0211 61.3648 64.3099 60.0223 58.7357 61.5747C56.5206 62.1947 53.2983 65.2067 51.0539 64.9919C36.4435 63.4542 58.3885 42.9312 62.9408 39.7092C70.8475 34.0952 82.7295 28.0369 92.6702 27.5683C97.2372 27.3584 103.046 27.9393 103.951 33.5484C104.88 39.3089 98.1956 47.1539 90.6948 52.9388Z" fill="#942900"/>
<path d="M160.78 138.199C159.476 145.129 158.679 152.145 158.394 159.191C152.673 160.724 150.678 153.821 149.103 150.032C146.893 144.702 141.769 141.733 139.744 136.217C137.72 130.701 140.463 121.782 145.123 118.12C148.575 115.396 155.768 114.933 158.971 118.36C163.42 123.114 161.909 132.439 160.78 138.199Z" fill="#ECA965"/>
<path d="M157.581 138.98C159.151 134.958 160.246 132.722 157.444 129.368C155.489 127.02 150.237 124.486 147.611 127.093C146.389 128.299 146.144 134.577 145.655 136.432C144.834 139.507 144.374 142.988 142.687 145.756C140.37 149.544 136.888 152.073 132.781 153.762C125.065 156.935 118.684 151.385 110.723 151.321C108.352 151.321 99.5993 150.037 98.3817 152.405C96.8757 155.334 105.178 160.831 107.149 162.657C115.95 170.79 128.532 170.565 138.096 164.151C143.372 160.611 147.416 160.274 153.523 160.206C159.391 160.138 168.011 158.141 159.909 152.395C157.386 150.609 154.53 150.794 154.041 147.372C153.616 144.765 156.662 141.358 157.581 138.98Z" fill="#AD3A00"/>
<path d="M145.885 114.269C143.127 107.327 133.876 104.202 126.889 105.433C120.136 106.624 116.933 112.169 115.569 118.433C113.853 126.312 113.716 134.513 111.193 142.217C109.633 146.967 106.792 151.15 112.083 152.991C116.835 154.641 119.334 152.991 123.578 156.467C134.248 165.151 139.714 151.931 142.404 142.427C144.496 134.992 148.966 122.011 145.885 114.269Z" fill="#ECA965"/>
<path d="M122.885 112.389C124.352 116.089 118.939 123.915 119.731 128.836C124.479 124.408 121.687 109.045 130.747 110.773C131.402 113.487 129.584 115.504 128.63 117.769C130.928 116.583 133.089 109.226 136.053 112.033C139.016 114.84 134.703 120.732 134.894 123.549C137.593 123.358 137.436 115.279 140.649 116.573C143.094 117.549 140.962 125.121 140.649 126.825C139.461 133.063 140.947 141.113 138.004 146.679C141.915 145.766 142.047 136.817 142.967 133.4C144.243 128.66 147.191 122.787 146.878 117.818C146.521 111.847 140.6 108.181 135.417 106.658C130.874 105.325 125.183 105.232 120.787 107.146C117.853 108.43 113.834 112.916 114.978 116.192C117.281 115.831 121.105 107.839 122.885 112.389Z" fill="#EB6C1D"/>
<path d="M120.209 143.208C120.126 145.136 120.557 149.334 123.691 149.027C125.984 148.802 126.136 145.121 127.158 143.686C127.358 146.791 126.18 151.8 129.114 153.777C133.387 156.642 134.947 151.429 137.866 150.389C138.389 155.661 134.189 157.873 129.916 158.336C124.327 158.942 122.058 154.87 116.537 154.338C109.604 153.669 105.985 156.432 108.631 147.655C110.039 142.983 108.694 136.827 113.618 135.27C115.955 134.528 116.454 136.349 118.968 134.401C121.036 132.795 120.86 129.719 123.647 129.085C125.544 133.264 120.405 138.697 120.209 143.208Z" fill="#EB6C1D"/>
<path d="M107.164 119.639C105.159 119.805 101.477 114.337 101.423 112.423C101.35 109.787 104.074 107.439 105.858 105.891C113.824 98.9789 125.231 95.9375 135.373 94.1313C142.155 92.9255 145.015 95.4445 149.988 99.5012C153.504 102.362 158.579 103.787 160.691 108.025C162.589 111.823 160.911 117.3 156.701 119.189C151.533 121.513 147.098 119.165 144.169 115.25C141.915 112.233 140.649 109.787 136.957 108.601C132.556 107.2 125.662 107.659 121.217 108.601C118.063 109.255 114.141 110.646 111.75 112.843C109.775 114.625 109.457 119.453 107.164 119.639Z" fill="#D84D00"/>
<path d="M156.706 114.273C151.537 116.602 147.102 114.273 144.174 110.339C141.919 107.322 140.653 104.871 136.961 103.69C132.56 102.289 125.666 102.748 121.221 103.69C118.067 104.344 114.146 105.735 111.755 107.932C109.774 109.743 109.462 114.576 107.168 114.766C105.701 114.884 103.423 112.101 102.22 109.811C101.708 110.596 101.433 111.511 101.428 112.448C101.482 114.361 105.159 119.829 107.168 119.663C109.462 119.477 109.774 114.649 111.755 112.828C114.146 110.632 118.067 109.24 121.221 108.586C125.666 107.663 132.58 107.205 136.961 108.586C140.653 109.772 141.919 112.218 144.174 115.235C147.107 119.141 151.537 121.498 156.706 119.175C160.554 117.442 162.27 112.736 161.107 109.035C160.796 110.174 160.241 111.232 159.482 112.136C158.722 113.04 157.775 113.77 156.706 114.273Z" fill="#AD3A00"/>
<path d="M104.611 126.61C106.812 121.279 111.653 116.651 112.518 110.949C113.203 106.463 110.621 98.891 104.959 103.026C99.7705 106.809 97.5506 114.483 93.8002 119.502C88.5927 126.453 82.5539 132.683 84.9987 141.87C86.3483 146.967 88.8029 160.421 96.4895 158.009C101.922 156.32 101.966 148.812 101.731 144.096C101.389 137.301 101.986 133.015 104.611 126.61Z" fill="#822103"/>
<path d="M113.966 124.14C114.846 120.19 119.08 112.384 114.851 109.68C111.53 107.556 99.2035 109.397 95.5802 110.602C92.5144 111.623 92.6024 110.661 92.0156 114.244C91.5951 116.792 92.4313 119.751 92.4606 122.392C92.5682 131.433 90.0158 145.917 94.7588 153.816C98.0887 154.001 105.198 155.9 108.069 154.792C111.526 153.455 111.941 146.337 112.083 142.861C112.332 136.661 112.621 130.193 113.966 124.14Z" fill="#EB6C1D"/>
<path d="M114.723 109.689C114.388 109.479 114.027 109.315 113.648 109.201C112.968 111.593 111.985 113.985 111.609 115.67C110.259 121.733 109.976 128.191 109.726 134.391C109.584 137.867 109.169 144.99 105.712 146.322C102.841 147.43 95.7318 145.531 92.4019 145.346C92.2601 145.112 92.1281 144.858 92.001 144.628C92.353 148.094 93.1207 151.287 94.6316 153.806C97.9615 153.992 105.071 155.891 107.941 154.782C111.398 153.445 111.814 146.327 111.956 142.851C112.205 136.652 112.489 130.193 113.838 124.13C114.699 120.19 118.953 112.384 114.723 109.689Z" fill="#D84D00"/>
<path d="M106.176 126.366C106.993 122.797 111.384 115.328 108.342 112.379C106.386 110.485 97.8148 110.944 95.9078 112.833C92.974 115.723 95.4188 121.206 95.9078 124.506C96.7489 130.232 94.0253 147.767 103.966 145.356C106.284 139.859 104.822 132.277 106.176 126.366Z" fill="#ECA965"/>
<path d="M150.432 103.905C152.564 104.993 157.219 106.136 156.266 109.367C155.371 112.379 150.291 112.355 148.193 111.271C142.144 108.161 142.135 100.463 134.38 99.5549C128.333 98.9039 122.22 99.8046 116.62 102.172C118.063 97.1189 128.39 97.4997 132.341 97.0701C140.697 96.1718 143.406 100.316 150.432 103.905Z" fill="#ECA965"/>
<path d="M165.639 129.778C165.879 130.125 166.128 130.471 166.348 130.813C169.062 134.762 174.084 140.738 172.597 145.751C164.886 141.118 163.444 130.715 156.769 124.916C153.899 122.421 149.885 121.035 147.22 118.316C142.795 113.785 148.521 113.761 151.581 115.313C157.527 118.325 161.899 124.335 165.639 129.778Z" fill="#1D3A0A"/>
<path d="M169.987 133.122C171.087 135.231 171.703 138.799 170.075 140.611C168.447 142.422 165.581 141.353 163.821 142.895C156.051 149.72 167.997 150.164 169.953 152.649C174.261 158.087 166.305 166.977 164.3 161.246C171.449 166.069 151.333 178.103 152.663 162.544C152.976 158.932 159.616 156.94 157.376 153.645C155.293 150.579 149.132 152.732 151.303 146.073C153.196 140.259 166.515 140.982 162.027 134.411C159.582 130.813 155.43 133.176 153.225 130.393C150.335 126.771 154.692 124.369 158.164 124.691C162.3 125.057 168.173 129.636 169.987 133.122Z" fill="#822103"/>
<path d="M114.699 160.645C119.217 162.076 122.743 163.784 127.715 164.107C134.136 164.521 138.473 160.87 144.565 159.752C149.699 158.81 161.899 154.655 160.349 164.849C158.921 174.246 145.367 170.931 139.299 173.011C135.113 174.446 133.984 178.493 129.96 179.694C125.486 181.032 119.662 178.264 115.677 176.482C110.249 174.041 109.443 171.156 105.741 167.333C103.296 164.78 99.7071 163.862 96.5093 162.222C92.4997 160.167 89.9571 158.024 89.9424 153.435C89.9424 147.626 96.6462 139.278 101.678 147.089C103.335 149.642 101.868 152.693 104.123 155.446C106.675 158.551 111.041 159.484 114.699 160.645Z" fill="#AD3A00"/>
<path d="M144.585 159.308C138.497 160.426 134.155 164.077 127.735 163.662C122.762 163.335 119.236 161.627 114.718 160.196C111.075 159.044 106.709 158.107 104.161 154.987C101.912 152.239 103.379 149.188 101.717 146.635C98.4991 141.68 94.6118 143.252 92.211 146.542C92.211 146.752 92.1865 146.962 92.1865 147.162C92.1865 151.756 94.7438 153.904 98.7534 155.949C101.951 157.589 105.521 158.507 107.985 161.06C111.687 164.883 112.493 167.778 117.921 170.209C121.906 171.991 127.73 174.754 132.204 173.421C136.228 172.215 137.358 168.173 141.548 166.738C146.438 165.068 156.129 166.87 160.496 162.769C160.525 154.685 149.416 158.419 144.585 159.308Z" fill="#D84D00"/>
<path d="M169.038 125.472C170.133 127.586 170.754 131.155 169.121 132.966C167.488 134.777 164.628 133.708 162.867 135.25C155.098 142.061 167.058 142.515 169.014 144.98C173.317 150.418 165.361 159.313 163.361 153.582C170.505 158.405 150.389 170.438 151.724 154.88C152.032 151.268 158.677 149.276 156.437 145.981C154.349 142.91 148.193 145.068 150.359 138.409C152.257 132.595 165.571 133.317 161.083 126.746C158.638 123.149 154.491 125.511 152.281 122.729C149.391 119.106 153.724 116.705 157.225 117.027C161.347 117.408 167.224 121.987 169.038 125.472Z" fill="#8E2B00"/>
<path d="M115.701 148.548C116.19 154.118 119.867 156.677 124.606 159.122C131.515 162.691 139.343 162.876 146.771 161.993C144.717 163.848 146.022 166.24 143.348 167.148C141.568 167.748 135.382 166.035 133.197 165.913C127.549 165.596 122.014 165.322 117.031 162.252C110.508 158.239 110.489 152.59 111.814 145.824C112.239 143.647 110.9 132.448 116.039 133.776C118.391 134.381 115.447 145.815 115.701 148.548Z" fill="#374412"/>
<path d="M144.478 144.76C144.326 145.156 144.174 145.541 144.023 145.927C142.277 150.389 140.16 157.897 135.172 159.493C134.683 150.521 142.468 143.476 143.509 134.704C143.959 130.93 142.844 126.834 143.597 123.11C144.854 116.905 148.096 121.616 148.536 125.013C149.416 131.618 146.864 138.614 144.478 144.76Z" fill="#865D01"/>
<path d="M132.659 111.901C133.358 107.244 126.371 108.777 123.804 109.743C119.09 111.515 116.596 114.762 114.327 119.092C112.161 123.241 108.509 126.873 107.321 131.506C106.475 134.806 107.878 138.516 110.978 136.417C112.934 135.089 114.645 128.562 115.922 126.366C117.877 122.948 120.009 119.531 122.88 116.788C123.647 116.06 132.791 111.154 132.659 111.901Z" fill="#865D01"/>
<path d="M160.173 94.102C161.478 93.4308 162.629 92.4947 163.552 91.3536C168.035 85.7981 169.859 77.6602 167.219 70.6939C164.344 63.1125 157.082 58.4407 150.261 56.0779C140.144 52.5679 126.703 63.4835 127.769 75.8637C128.619 85.7786 139.352 93.7945 147.895 95.1955C151.909 95.8497 156.52 96.0206 160.173 94.102Z" fill="#281D1B"/>
<path d="M160.134 94.0336C161.355 93.4073 162.441 92.5463 163.327 91.5C161.396 91.5428 159.466 91.399 157.562 91.0704C149.02 89.6693 138.287 81.6535 137.436 71.7386C136.879 65.2751 140.282 59.2071 145.098 55.3895C136.116 56.0876 126.835 65.4265 127.725 75.7953C128.581 85.7102 139.309 93.7261 147.856 95.1272C151.861 95.7813 156.482 95.9278 160.134 94.0336Z" fill="#070605"/>
<path d="M150.555 70.3522C151.611 69.5906 150.555 62.8782 149.729 61.8823C147.406 62.7562 147.103 68.0285 146.995 70.2692C143.709 69.3661 136.213 67.7795 133.495 69.3368C133.461 69.3542 133.435 69.3839 133.421 69.4198C133.417 69.4423 133.417 69.4656 133.421 69.4881C133.419 69.5194 133.425 69.5508 133.439 69.579C133.453 69.6073 133.474 69.6315 133.5 69.6492C136.267 71.3774 139.514 72.0364 142.648 72.6759C143.925 72.9347 145.225 73.1983 146.492 73.5351C145.719 74.2625 144.907 75.1168 144.047 76.0102C142.047 78.124 139.979 80.311 138.086 81.1067C138.044 81.1261 138.011 81.1611 137.993 81.2044C137.978 81.2471 137.978 81.2935 137.993 81.3362C138 81.357 138.011 81.3763 138.025 81.3929C138.039 81.4094 138.057 81.4229 138.076 81.4325C138.096 81.4421 138.117 81.4476 138.139 81.4487C138.161 81.4497 138.183 81.4463 138.204 81.4387C141.336 80.1462 144.352 78.5898 147.22 76.7864C147.47 79.3347 147.851 81.7902 148.169 83.8259L148.389 85.2904C148.395 85.3277 148.415 85.3615 148.444 85.3859C148.473 85.4102 148.51 85.4236 148.548 85.4236C148.586 85.4236 148.622 85.4102 148.651 85.3859C148.681 85.3615 148.7 85.3277 148.707 85.2904C148.707 85.1879 149.592 80.2036 150.174 74.8093L150.389 74.8874C154.369 76.3519 159.317 78.1874 162.901 77.6163C162.938 77.6088 162.972 77.5895 162.996 77.5613C163.021 77.5331 163.036 77.4975 163.038 77.4601C163.046 77.4247 163.046 77.388 163.038 77.3527C163.058 77.362 163.08 77.367 163.101 77.3674C163.123 77.3677 163.145 77.3633 163.165 77.3545C163.185 77.3456 163.203 77.3326 163.217 77.3163C163.232 77.3 163.242 77.2808 163.249 77.2599C163.268 77.2182 163.27 77.1708 163.256 77.1273C163.241 77.0838 163.211 77.0474 163.17 77.0256C160.105 75.5269 156.775 73.8915 153.293 72.4855C154.178 71.7826 155.024 71.0649 155.797 70.318C156.435 69.6422 157.006 68.9065 157.503 68.1212C158.212 67.0765 158.941 66.0025 159.811 65.446C160.114 65.3337 160.432 65.2068 160.789 65.0652C160.827 65.045 160.857 65.013 160.874 64.9743C160.892 64.9355 160.896 64.892 160.887 64.8504C160.88 64.8107 160.857 64.7752 160.825 64.7515C160.792 64.7279 160.751 64.7178 160.711 64.7235C160.347 64.7857 160 64.9202 159.689 65.1189C159.293 65.2654 158.926 65.3923 158.574 65.5144C157.002 65.9803 155.529 66.7298 154.227 67.7258C153.323 68.4092 152.379 69.0829 151.474 69.7322L150.555 70.3522Z" fill="#D3C7AB"/>
<path d="M66.7802 125.902C74.6624 129.319 93.5318 138.067 96.0059 124.496C99.5216 105.203 56.8003 101.957 45.3486 100.233C36.3369 98.8763 15.5703 103.338 24.8118 116.543C32.2491 127.166 55.5974 121.044 66.7802 125.902Z" fill="#CCAE89"/>
<path opacity="0.48" d="M77.615 130.291C89.4138 132.243 93.0713 120.713 85.6927 112.804C80.0794 106.795 70.2755 104.232 62.9801 101.537C57.7285 99.5843 51.103 100.277 45.3429 100.273C37.7638 100.273 35.0403 99.8186 32.3216 107.039C30.2679 112.492 29.8767 117.466 35.7737 120.791C38.2186 122.182 41.7245 122.367 44.6094 122.255C50.3646 121.992 48.8782 119.785 52.0907 117.862C59.9142 113.175 56.4914 117.984 61.2589 123.183C64.6915 126.903 72.9257 129.519 77.615 130.291Z" fill="#942900"/>
<path opacity="0.48" d="M46.7902 108.347C44.6681 118.955 61.1513 119.897 65.64 112.741C73.5418 100.194 49.1764 96.3574 46.7902 108.347Z" fill="#942900"/>
<path d="M72.1043 144.14C80.4706 146.093 100.606 151.326 100.606 137.535C100.606 117.92 57.9877 122.367 46.4138 122.724C37.3043 122.997 17.6721 131.101 29.1385 142.441C38.3605 151.56 60.237 141.362 72.1043 144.14Z" fill="#CCAE89"/>
<path opacity="0.48" d="M83.5558 146.522C95.5161 146.327 97.0417 134.318 88.3624 127.874C81.7613 122.963 71.6592 122.197 64.0019 120.849C58.4814 119.873 52.0857 121.733 46.399 122.758C38.9422 124.105 36.1844 124.154 34.8055 131.75C33.764 137.477 34.2725 142.441 40.6731 144.658C43.3478 145.585 46.8097 145.146 49.6262 144.501C55.2396 143.213 53.3815 141.309 56.1979 138.843C63.0435 132.834 60.5351 138.18 66.1729 142.441C70.2314 145.497 78.8031 146.601 83.5558 146.522Z" fill="#942900"/>
<path opacity="0.48" d="M49.2945 130.447C49.1087 141.26 65.499 139.234 68.6333 131.423C74.1489 117.642 49.5097 118.223 49.2945 130.447Z" fill="#942900"/>
<path d="M81.3167 158.454C87.8885 157.345 103.844 155.036 99.6971 145.195C93.8295 131.179 64.6868 147.118 56.521 150.838C50.0959 153.767 38.4975 165.434 50.1008 170.101C59.445 173.856 72.0018 160.016 81.3167 158.454Z" fill="#CCAE89"/>
<path opacity="0.48" d="M90.2164 156.725C98.7049 153.001 96.1916 143.969 88.0502 141.958C81.8599 140.425 74.408 142.9 68.5257 144.233C64.2912 145.209 60.2816 148.431 56.5361 150.862C51.6122 154.06 49.6563 154.919 50.952 160.758C51.93 165.151 53.7881 168.569 59.0201 168.227C61.2106 168.09 63.5577 166.738 65.3767 165.435C69 162.833 67.1027 162.017 68.3741 159.425C71.4741 153.079 71.2737 157.648 76.5839 159.005C80.3881 159.972 86.8278 158.2 90.2164 156.725Z" fill="#942900"/>
<path opacity="0.48" d="M60.9123 155.495C64.027 163.277 75.1315 156.926 75.0191 150.394C74.8137 138.897 57.3819 146.693 60.9123 155.495Z" fill="#942900"/>
<path d="M81.3362 97.0798C79.1429 98.0977 76.6965 98.4431 74.3066 98.0724C71.9166 97.7017 69.6906 96.6315 67.91 94.9973C66.1295 93.3631 64.8745 91.2382 64.304 88.8917C63.7334 86.5452 63.8729 84.0824 64.7048 81.815C65.5367 79.5476 67.0235 77.5776 68.9773 76.1542C70.931 74.7307 73.2637 73.9179 75.6803 73.8186C78.0969 73.7192 80.4886 74.3378 82.553 75.596C84.6173 76.8542 86.2614 78.6956 87.2771 80.887C88.6373 83.8212 88.7756 87.1744 87.6617 90.2103C86.5478 93.2463 84.2728 95.7169 81.3362 97.0798ZM72.6716 78.4461C71.1667 79.1422 69.9023 80.2682 69.0384 81.6818C68.1745 83.0953 67.7499 84.7329 67.8182 86.3874C67.8865 88.0419 68.4447 89.639 69.4222 90.9768C70.3997 92.3145 71.7525 93.3329 73.3097 93.903C74.8669 94.4731 76.5585 94.5694 78.1705 94.1797C79.7825 93.79 81.2425 92.9318 82.366 91.7136C83.4895 90.4954 84.2259 88.972 84.4821 87.336C84.7383 85.6999 84.5028 84.0248 83.8055 82.5224C82.8684 80.5097 81.1699 78.9502 79.0827 78.186C76.9955 77.4218 74.6898 77.5154 72.6716 78.4461Z" fill="#8EC15D"/>
<path d="M118.684 92.0223C116.837 92.8766 114.778 93.165 112.766 92.8512C110.755 92.5374 108.882 91.6354 107.384 90.2592C105.886 88.883 104.83 87.0943 104.349 85.1192C103.869 83.1441 103.986 81.0712 104.685 79.1623C105.384 77.2535 106.635 75.5944 108.278 74.3946C109.921 73.1949 111.884 72.5084 113.918 72.4218C115.952 72.3352 117.966 72.8525 119.705 73.9083C121.445 74.964 122.832 76.5109 123.691 78.3534C124.262 79.5791 124.585 80.905 124.642 82.2553C124.699 83.6057 124.489 84.954 124.024 86.2233C123.559 87.4926 122.848 88.658 121.932 89.653C121.016 90.648 119.912 91.4531 118.684 92.0223ZM111.379 76.2933C110.11 76.8813 109.044 77.832 108.317 79.025C107.589 80.218 107.232 81.5998 107.292 82.9954C107.351 84.3909 107.823 85.7375 108.65 86.8648C109.476 87.9921 110.618 88.8493 111.933 89.328C113.247 89.8066 114.674 89.8852 116.033 89.5538C117.392 89.2224 118.623 88.4959 119.568 87.4662C120.513 86.4365 121.131 85.1499 121.344 83.7693C121.557 82.3888 121.354 80.9762 120.763 79.7105C119.97 78.0174 118.537 76.7071 116.778 76.0666C115.019 75.4261 113.078 75.5076 111.379 76.2933Z" fill="#8EC15D"/>
<path d="M94.9736 126.454C92.78 127.471 90.3334 127.816 87.9434 127.445C85.5533 127.073 83.3274 126.003 81.5472 124.368C79.7669 122.733 78.5125 120.607 77.9427 118.261C77.3729 115.914 77.5132 113.451 78.346 111.184C79.1787 108.916 80.6665 106.947 82.6209 105.524C84.5753 104.101 86.9086 103.289 89.3254 103.191C91.7422 103.093 94.1339 103.712 96.1977 104.972C98.2616 106.231 99.9048 108.073 100.92 110.266C102.278 113.2 102.415 116.552 101.3 119.587C100.185 122.622 97.91 125.091 94.9736 126.454ZM86.3384 107.8C84.8346 108.496 83.5714 109.622 82.7084 111.035C81.8454 112.448 81.4215 114.085 81.4902 115.738C81.5589 117.392 82.1172 118.988 83.0944 120.324C84.0717 121.661 85.424 122.678 86.9804 123.248C88.5368 123.817 90.2273 123.913 91.8383 123.523C93.4492 123.133 94.9082 122.275 96.0307 121.058C97.1532 119.84 97.8888 118.317 98.1446 116.682C98.4003 115.047 98.1646 113.373 97.4674 111.872C96.5304 109.86 94.8325 108.302 92.7461 107.539C90.6598 106.775 88.3554 106.869 86.3384 107.8Z" fill="#8EC15D"/>
<path d="M114.454 86.7451L113.232 92.2078C112.934 93.5503 114.557 94.5511 116.19 94.9074C117.823 95.2638 119.711 95.0441 120.009 93.7016L121.232 88.2096L114.454 86.7451Z" fill="url(#paint6_linear_76_15173)"/>
<path d="M120.86 88.3317C120.689 89.103 119.178 89.4301 117.491 89.059C115.804 88.688 114.557 87.7556 114.743 86.9843C114.929 86.213 116.425 85.8859 118.112 86.2569C119.799 86.6279 121.056 87.5555 120.86 88.3317Z" fill="#2A561D"/>
<path d="M117.423 89.3618C115.809 89.0103 114.23 88.0339 114.489 86.9209C114.748 85.8078 116.582 85.593 118.195 85.9445C119.809 86.296 121.388 87.2772 121.129 88.3854C120.87 89.4936 119.041 89.7181 117.423 89.3618ZM118.044 86.5596C116.318 86.1837 115.11 86.584 115.017 87.0478C114.924 87.5116 115.834 88.3757 117.56 88.7564C119.286 89.1372 120.494 88.732 120.586 88.2683C120.679 87.8045 119.77 86.9404 118.044 86.5596Z" fill="#3B7217"/>
<path d="M105.227 110.456L108.714 107.742C109.569 107.078 109.09 105.662 108.283 104.627C107.477 103.592 106.215 102.782 105.35 103.446L101.858 106.16L105.227 110.456Z" fill="url(#paint7_linear_76_15173)"/>
<path d="M102.156 106.272C102.645 105.891 103.721 106.448 104.557 107.517C105.393 108.586 105.672 109.768 105.178 110.148C104.684 110.529 103.609 109.973 102.777 108.903C101.946 107.834 101.662 106.658 102.156 106.272Z" fill="#668211"/>
<path d="M104.753 107.371C105.55 108.396 106.019 109.777 105.31 110.324C104.601 110.871 103.354 110.085 102.582 109.06C101.809 108.035 101.315 106.653 102.02 106.101C102.724 105.55 103.941 106.345 104.753 107.371ZM102.963 108.757C103.819 109.851 104.748 110.222 105.041 109.982C105.335 109.743 105.213 108.767 104.357 107.673C103.501 106.58 102.572 106.209 102.284 106.448C101.995 106.687 102.117 107.664 102.963 108.757Z" fill="#F4FFE6"/>
<path d="M101.873 90.6213C102.1 91.1777 102.156 91.7888 102.035 92.3771C101.914 92.9655 101.621 93.5047 101.192 93.9267C100.764 94.3486 100.22 94.6343 99.6294 94.7475C99.0385 94.8607 98.4273 94.7965 97.873 94.5628C97.3188 94.3292 96.8463 93.9366 96.5156 93.4349C96.1848 92.9332 96.0105 92.3447 96.0147 91.7441C96.019 91.1434 96.2015 90.5575 96.5394 90.0605C96.8772 89.5634 97.3551 89.1776 97.9126 88.9518C98.6596 88.6492 99.4964 88.6551 100.239 88.9681C100.982 89.2812 101.57 89.8758 101.873 90.6213Z" fill="#D6A15B"/>
<path d="M100.543 95.4201C99.8191 95.714 99.0242 95.787 98.2589 95.6299C97.4935 95.4728 96.7919 95.0927 96.243 94.5376C95.694 93.9824 95.3222 93.2773 95.1746 92.5112C95.027 91.7451 95.1103 90.9525 95.4139 90.2337C95.7175 89.5149 96.2278 88.9021 96.8802 88.4728C97.5326 88.0435 98.2979 87.8169 99.0793 87.8219C99.8606 87.8268 100.623 88.0629 101.27 88.5003C101.917 88.9378 102.419 89.557 102.714 90.2796C103.108 91.2488 103.1 92.3343 102.693 93.298C102.286 94.2617 101.513 95.0248 100.543 95.4201ZM98.2545 89.7963C97.8649 89.9547 97.5311 90.2248 97.2953 90.5726C97.0595 90.9203 96.9323 91.3301 96.9297 91.7501C96.9271 92.17 97.0493 92.5813 97.2809 92.9319C97.5124 93.2825 97.8429 93.5568 98.2305 93.7199C98.6181 93.883 99.0455 93.9277 99.4585 93.8484C99.8716 93.769 100.252 93.5692 100.551 93.2741C100.85 92.979 101.055 92.602 101.14 92.1906C101.225 91.7792 101.185 91.352 101.027 90.963C100.922 90.7046 100.766 90.4695 100.57 90.271C100.374 90.0725 100.14 89.9146 99.8828 89.8062C99.6254 89.6979 99.3491 89.6412 99.0697 89.6395C98.7903 89.6378 98.5133 89.6911 98.2545 89.7963Z" fill="#3B7217"/>
<path d="M91.9273 104.715L85.9228 106.321C84.4558 106.712 84.2945 108.806 84.7737 110.588C85.2529 112.37 86.4313 114.103 87.8982 113.712L93.9077 112.13L91.9273 104.715Z" fill="url(#paint8_linear_76_15173)"/>
<path d="M93.605 111.803C92.7591 112.028 91.6491 110.72 91.1601 108.874C90.6712 107.029 90.9548 105.354 91.8007 105.13C92.6466 104.905 93.7321 106.214 94.2455 108.059C94.759 109.904 94.4509 111.579 93.605 111.803Z" fill="#2A561D"/>
<path d="M90.8418 108.967C90.3528 107.21 90.5239 105.164 91.7366 104.837C92.9492 104.51 94.1081 106.209 94.5824 107.971C95.0567 109.733 94.8953 111.779 93.6827 112.101C92.47 112.423 91.3112 110.729 90.8418 108.967ZM93.9076 108.152C93.4186 106.267 92.3967 105.296 91.8979 105.433C91.3992 105.569 91.008 106.897 91.5117 108.786C92.0153 110.676 93.0226 111.642 93.5213 111.505C94.0201 111.369 94.4112 110.031 93.9076 108.152Z" fill="#3B7217"/>
<path d="M91.7173 88.9713L93.0815 84.2555C93.414 83.1034 92.0546 82.1417 90.6366 81.7365C89.2186 81.3313 87.5757 81.4241 87.2383 82.5762L85.8496 87.2968L91.7173 88.9713Z" fill="url(#paint9_linear_76_15173)"/>
<path d="M86.2018 87.2333C86.3925 86.5645 87.7274 86.3644 89.1796 86.7842C90.6319 87.204 91.6489 88.0779 91.4582 88.7369C91.2675 89.3959 89.9375 89.6059 88.4804 89.186C87.0233 88.7662 86.0111 87.8826 86.2018 87.2333Z" fill="#2A561D"/>
<path d="M89.2721 86.506C90.6607 86.9014 91.9859 87.8436 91.7169 88.7955C91.448 89.7475 89.8197 89.8402 88.431 89.4399C87.0424 89.0396 85.7172 88.1023 85.9862 87.1504C86.2551 86.1984 87.8687 86.1008 89.2721 86.506ZM88.5777 88.9127C90.0446 89.3423 91.1302 89.0543 91.2426 88.6637C91.3551 88.2732 90.607 87.4579 89.1205 87.0332C87.634 86.6085 86.5681 86.8868 86.4556 87.2822C86.3431 87.6776 87.0766 88.488 88.5582 88.9127H88.5777Z" fill="#3B7217"/>
<path d="M112.508 84.3042C112.734 84.8597 112.789 85.4694 112.667 86.0562C112.546 86.6431 112.253 87.1808 111.825 87.6014C111.397 88.022 110.855 88.3067 110.265 88.4194C109.675 88.5322 109.066 88.4679 108.513 88.2348C107.96 88.0017 107.488 87.6102 107.158 87.1097C106.828 86.6093 106.654 86.0223 106.657 85.4231C106.661 84.8238 106.843 84.2391 107.179 83.7428C107.515 83.2465 107.992 82.8608 108.548 82.6346C108.917 82.4841 109.313 82.408 109.713 82.4105C110.112 82.4129 110.507 82.494 110.875 82.6491C111.243 82.8042 111.576 83.0302 111.857 83.3142C112.137 83.5982 112.358 83.9346 112.508 84.3042Z" fill="#D6A15B"/>
<path d="M111.183 89.0738C110.459 89.3681 109.664 89.4415 108.899 89.2846C108.133 89.1276 107.431 88.7475 106.882 88.1922C106.333 87.6369 105.961 86.9314 105.813 86.1651C105.666 85.3987 105.749 84.6059 106.053 83.8869C106.357 83.1679 106.868 82.5551 107.521 82.126C108.174 81.6969 108.939 81.4708 109.721 81.4763C110.502 81.4818 111.265 81.7186 111.912 82.1568C112.558 82.5951 113.061 83.215 113.354 83.9382C113.748 84.9067 113.74 85.9915 113.333 86.9544C112.926 87.9173 112.153 88.6796 111.183 89.0738ZM108.895 83.4549C108.505 83.6133 108.172 83.8834 107.936 84.2312C107.7 84.5789 107.573 84.9887 107.57 85.4087C107.567 85.8286 107.69 86.2399 107.921 86.5905C108.153 86.9412 108.483 87.2154 108.871 87.3785C109.258 87.5416 109.686 87.5863 110.099 87.507C110.512 87.4276 110.892 87.2278 111.192 86.9327C111.491 86.6376 111.696 86.2606 111.781 85.8492C111.865 85.4378 111.826 85.0106 111.667 84.6216C111.562 84.3632 111.407 84.1281 111.211 83.9296C111.014 83.7311 110.781 83.5732 110.523 83.4648C110.266 83.3565 109.989 83.2998 109.71 83.2981C109.431 83.2964 109.154 83.3497 108.895 83.4549Z" fill="#3B7217"/>
<path d="M90.0303 101.635L94.964 101.991C96.1669 102.079 96.8319 100.526 96.9199 99.0619C97.0079 97.5974 96.5923 95.9912 95.3845 95.9034L90.4557 95.5421L90.0303 101.635Z" fill="url(#paint10_linear_76_15173)"/>
<path d="M90.6223 95.874C91.3167 95.9228 91.791 97.1921 91.6834 98.7006C91.5758 100.209 90.9206 101.4 90.2165 101.346C89.5124 101.293 89.0479 100.033 89.1603 98.5199C89.2728 97.0066 89.9231 95.8252 90.6223 95.874Z" fill="#668211"/>
<path d="M91.9568 98.725C91.8492 100.165 91.2037 101.654 90.2062 101.591C89.2087 101.527 88.7833 99.9455 88.886 98.5004C88.9887 97.0554 89.6439 95.5714 90.6365 95.63C91.6291 95.6886 92.0643 97.28 91.9568 98.725ZM89.4386 98.5395C89.3261 100.082 89.8297 101.073 90.2405 101.107C90.6512 101.141 91.2918 100.229 91.4042 98.6664C91.5167 97.1043 91.013 96.1328 90.6023 96.1035C90.1916 96.0742 89.551 96.9969 89.4386 98.5395Z" fill="#F4FFE6"/>
<path d="M100.421 120.693L99.2966 115.186C99.0277 113.839 97.1354 113.585 95.4973 113.917C93.8593 114.249 92.2212 115.221 92.4999 116.568L93.6197 122.075L100.421 120.693Z" fill="url(#paint11_linear_76_15173)"/>
<path d="M93.9174 121.816C93.756 121.04 95.0029 120.132 96.6996 119.79C98.3963 119.448 99.8926 119.79 100.049 120.571C100.206 121.352 98.9636 122.255 97.2717 122.602C95.5799 122.948 94.0738 122.592 93.9174 121.816Z" fill="#2A561D"/>
<path d="M96.6359 119.482C98.2495 119.15 100.093 119.404 100.323 120.512C100.553 121.621 98.9536 122.577 97.3351 122.909C95.7166 123.241 93.8683 122.987 93.6434 121.874C93.4184 120.761 95.0125 119.809 96.6359 119.482ZM97.208 122.294C98.9389 121.938 99.868 121.084 99.7751 120.625C99.6822 120.166 98.4891 119.741 96.7581 120.097C95.0272 120.454 94.0932 121.303 94.191 121.762C94.2888 122.221 95.477 122.646 97.208 122.294Z" fill="#3B7217"/>
<path d="M99.1982 95.2589L97.1152 99.1643C96.6262 100.141 97.6042 101.22 98.7777 101.835C99.9512 102.45 101.418 102.689 101.927 101.732L104.015 97.8267L99.1982 95.2589Z" fill="url(#paint12_linear_76_15173)"/>
<path d="M103.707 97.8365C103.408 98.3833 102.201 98.3247 101.003 97.6705C99.8047 97.0164 99.0468 96.0693 99.3695 95.5177C99.6922 94.966 100.871 95.0295 102.069 95.6837C103.267 96.3378 104 97.2849 103.707 97.8365Z" fill="#668211"/>
<path d="M100.885 97.8902C99.7412 97.28 98.7535 96.2011 99.174 95.4151C99.5945 94.6292 101.037 94.8537 102.186 95.4639C103.335 96.0742 104.323 97.153 103.897 97.939C103.472 98.725 102.034 98.5004 100.885 97.8902ZM101.951 95.8984C100.729 95.2443 99.7314 95.298 99.5603 95.6202C99.3892 95.9423 99.8977 96.8015 101.12 97.4508C102.343 98.1001 103.34 98.0562 103.511 97.7291C103.682 97.402 103.179 96.5526 101.951 95.8984Z" fill="#F4FFE6"/>
<path d="M110.332 112.028C109.899 111.612 109.598 111.076 109.469 110.49C109.34 109.903 109.388 109.291 109.608 108.732C109.827 108.172 110.208 107.69 110.701 107.347C111.195 107.004 111.779 106.814 112.381 106.803C112.983 106.791 113.574 106.958 114.081 107.282C114.587 107.606 114.986 108.073 115.227 108.623C115.468 109.174 115.54 109.783 115.433 110.374C115.327 110.966 115.048 111.512 114.63 111.945C114.071 112.524 113.305 112.859 112.499 112.874C111.693 112.89 110.914 112.585 110.332 112.028Z" fill="#D6A15B"/>
<path d="M109.594 107.102C110.136 106.54 110.833 106.152 111.596 105.985C112.359 105.818 113.155 105.881 113.882 106.166C114.61 106.451 115.236 106.945 115.682 107.585C116.129 108.225 116.375 108.983 116.39 109.762C116.405 110.542 116.188 111.309 115.767 111.966C115.345 112.623 114.739 113.14 114.023 113.453C113.307 113.765 112.514 113.859 111.745 113.721C110.976 113.584 110.265 113.223 109.702 112.682C108.95 111.955 108.516 110.96 108.496 109.914C108.476 108.869 108.871 107.858 109.594 107.102ZM113.995 111.315C114.286 111.013 114.482 110.631 114.556 110.218C114.63 109.804 114.58 109.379 114.412 108.994C114.244 108.609 113.965 108.283 113.611 108.056C113.258 107.829 112.845 107.712 112.424 107.72C112.004 107.727 111.595 107.859 111.25 108.098C110.904 108.337 110.638 108.673 110.483 109.064C110.329 109.454 110.294 109.882 110.383 110.292C110.472 110.702 110.681 111.077 110.983 111.369C111.389 111.754 111.93 111.964 112.49 111.954C113.05 111.944 113.584 111.715 113.975 111.315H113.995Z" fill="#3B7217"/>
<path d="M113.686 95.1125L118.522 91.207C119.706 90.2551 119.011 88.278 117.838 86.8427C116.664 85.4075 114.904 84.2993 113.706 85.2562L108.87 89.1616L113.686 95.1125Z" fill="url(#paint13_linear_76_15173)"/>
<path d="M109.272 89.3178C109.956 88.7661 111.482 89.5228 112.694 91.0069C113.907 92.4909 114.313 94.1361 113.633 94.6877C112.954 95.2394 111.423 94.4778 110.21 92.9986C108.998 91.5194 108.592 89.8645 109.272 89.3178Z" fill="#2A561D"/>
<path d="M112.949 90.7872C114.098 92.2029 114.787 94.1361 113.809 94.927C112.831 95.7178 111.086 94.6341 109.942 93.2135C108.797 91.7929 108.103 89.8646 109.081 89.0786C110.059 88.2926 111.805 89.3715 112.949 90.7872ZM110.479 92.779C111.707 94.2972 113.022 94.7707 113.413 94.4485C113.804 94.1264 113.624 92.7399 112.401 91.2266C111.179 89.7132 109.863 89.2299 109.467 89.557C109.071 89.8841 109.257 91.2656 110.479 92.779Z" fill="#3B7217"/>
<path d="M120.303 109.406L120.978 114.288C121.139 115.479 122.772 115.806 124.219 115.606C125.667 115.406 127.153 114.63 126.982 113.458L126.307 108.576L120.303 109.406Z" fill="url(#paint14_linear_76_15173)"/>
<path d="M126.038 108.782C126.136 109.47 124.997 110.192 123.501 110.397C122.004 110.602 120.713 110.217 120.621 109.533C120.528 108.85 121.662 108.122 123.158 107.917C124.655 107.712 125.945 108.098 126.038 108.782Z" fill="#2A561D"/>
<path d="M123.539 110.666C122.107 110.861 120.513 110.544 120.381 109.563C120.248 108.581 121.686 107.839 123.119 107.639C124.551 107.439 126.141 107.761 126.278 108.747C126.414 109.733 124.967 110.475 123.539 110.666ZM123.192 108.181C121.667 108.391 120.806 109.089 120.86 109.494C120.914 109.899 121.935 110.334 123.461 110.124C124.987 109.914 125.852 109.221 125.798 108.811C125.745 108.401 124.723 107.976 123.192 108.186V108.181Z" fill="#3B7217"/>
<path d="M105.267 100.155L105.941 105.037C106.108 106.233 107.741 106.555 109.183 106.355C110.626 106.155 112.117 105.403 111.946 104.212L111.276 99.3303L105.267 100.155Z" fill="url(#paint15_linear_76_15173)"/>
<path d="M111.002 99.5354C111.1 100.219 109.961 100.941 108.469 101.151C106.978 101.361 105.677 100.966 105.584 100.282C105.492 99.5989 106.626 98.8715 108.122 98.6664C109.618 98.4614 110.909 98.8471 111.002 99.5354Z" fill="#2A561D"/>
<path d="M108.504 101.42C107.076 101.62 105.482 101.298 105.345 100.316C105.208 99.3352 106.655 98.5932 108.083 98.3931C109.511 98.1929 111.11 98.52 111.247 99.5012C111.384 100.482 109.936 101.224 108.504 101.42ZM108.161 98.9398C106.631 99.1497 105.77 99.843 105.824 100.248C105.878 100.653 106.9 101.093 108.43 100.878C109.961 100.663 110.821 99.9748 110.763 99.5696C110.704 99.1644 109.692 98.7299 108.161 98.9496V98.9398Z" fill="#3B7217"/>
<path d="M96.9689 96.1719L94.079 100.141C93.37 101.117 94.3235 102.479 95.5019 103.333C96.6804 104.188 98.2744 104.671 98.9834 103.7L101.873 99.7258L96.9689 96.1719Z" fill="url(#paint16_linear_76_15173)"/>
<path d="M101.535 99.6916C101.13 100.253 99.8094 99.9845 98.6016 99.1009C97.3939 98.2173 96.7191 97.0408 97.1347 96.4794C97.5503 95.918 98.8608 96.1816 100.069 97.0701C101.276 97.9586 101.941 99.1302 101.535 99.6916Z" fill="#2A561D"/>
<path d="M98.4214 99.3206C97.2577 98.4712 96.3286 97.1434 96.9154 96.3379C97.5022 95.5324 99.0522 96.001 100.221 96.8505C101.389 97.6999 102.319 99.0277 101.732 99.8332C101.145 100.639 99.5901 100.17 98.4214 99.3206ZM99.8883 97.2898C98.6415 96.3867 97.5364 96.3135 97.2968 96.621C97.0572 96.9286 97.4875 97.9733 98.7344 98.8764C99.9812 99.7795 101.086 99.8527 101.331 99.5452C101.575 99.2376 101.15 98.1978 99.8981 97.2898H99.8883Z" fill="#3B7217"/>
<path d="M103.193 122.133C102.761 121.717 102.463 121.182 102.336 120.596C102.208 120.01 102.258 119.4 102.478 118.843C102.698 118.285 103.078 117.805 103.571 117.463C104.064 117.121 104.648 116.933 105.248 116.922C105.848 116.911 106.438 117.078 106.943 117.402C107.448 117.725 107.846 118.191 108.086 118.741C108.326 119.29 108.398 119.898 108.292 120.488C108.186 121.078 107.907 121.623 107.491 122.055C107.214 122.342 106.883 122.572 106.517 122.732C106.151 122.891 105.758 122.977 105.358 122.984C104.959 122.991 104.562 122.92 104.191 122.774C103.819 122.628 103.48 122.41 103.193 122.133Z" fill="#D6A15B"/>
<path d="M102.474 117.212C103.016 116.651 103.713 116.262 104.476 116.095C105.239 115.929 106.035 115.992 106.762 116.276C107.489 116.561 108.116 117.055 108.562 117.695C109.009 118.335 109.255 119.093 109.27 119.873C109.285 120.653 109.068 121.419 108.647 122.076C108.225 122.733 107.618 123.25 106.903 123.563C106.187 123.875 105.394 123.969 104.625 123.832C103.856 123.694 103.145 123.333 102.582 122.792C101.828 122.065 101.394 121.07 101.374 120.024C101.354 118.979 101.749 117.968 102.474 117.212ZM106.875 121.425C107.167 121.123 107.363 120.741 107.438 120.328C107.512 119.914 107.463 119.488 107.295 119.103C107.127 118.718 106.848 118.391 106.494 118.164C106.141 117.937 105.727 117.82 105.306 117.827C104.886 117.835 104.477 117.967 104.131 118.206C103.786 118.446 103.519 118.782 103.365 119.173C103.211 119.564 103.177 119.992 103.266 120.402C103.356 120.813 103.565 121.187 103.868 121.479C104.275 121.853 104.811 122.054 105.364 122.041C105.917 122.027 106.443 121.799 106.831 121.406L106.875 121.425Z" fill="#3B7217"/>
<path d="M116.655 97.1628L112.005 98.8324C110.865 99.2425 110.885 100.912 111.379 102.294C111.873 103.675 112.929 104.969 114.068 104.559L118.718 102.889L116.655 97.1628Z" fill="url(#paint17_linear_76_15173)"/>
<path d="M118.478 102.665C117.823 102.899 116.874 101.932 116.361 100.507C115.847 99.0813 115.96 97.734 116.615 97.4996C117.27 97.2653 118.219 98.227 118.732 99.6525C119.246 101.078 119.133 102.425 118.478 102.665Z" fill="#668211"/>
<path d="M116.098 100.605C115.609 99.2376 115.609 97.6071 116.533 97.2702C117.457 96.9334 118.489 98.1978 118.978 99.5598C119.467 100.922 119.467 102.557 118.547 102.894C117.628 103.231 116.591 101.967 116.098 100.605ZM118.474 99.7453C117.951 98.2808 117.085 97.5876 116.699 97.7291C116.313 97.8707 116.093 98.9593 116.621 100.414C117.149 101.869 118.009 102.572 118.396 102.43C118.782 102.289 119.002 101.205 118.474 99.7453Z" fill="#F4FFE6"/>
</g>
<defs>
<linearGradient id="paint0_linear_76_15173" x1="87.1502" y1="28.1714" x2="193.804" y2="89.3503" gradientUnits="userSpaceOnUse">
<stop stop-color="#579C33"/>
<stop offset="1" stop-color="#336220"/>
</linearGradient>
<linearGradient id="paint1_linear_76_15173" x1="102.788" y1="7.08385" x2="186.21" y2="98.6547" gradientUnits="userSpaceOnUse">
<stop stop-color="#FFE05D"/>
<stop offset="0.11" stop-color="#F1DA59"/>
<stop offset="0.32" stop-color="#CBCB50"/>
<stop offset="0.61" stop-color="#8FB341"/>
<stop offset="0.85" stop-color="#579C33"/>
<stop offset="1" stop-color="#579C33"/>
</linearGradient>
<linearGradient id="paint2_linear_76_15173" x1="105.055" y1="21.4531" x2="185.42" y2="114.694" gradientUnits="userSpaceOnUse">
<stop stop-color="#579C33"/>
<stop offset="1" stop-color="#336220"/>
</linearGradient>
<linearGradient id="paint3_linear_76_15173" x1="122.747" y1="6.73918" x2="171.413" y2="120.081" gradientUnits="userSpaceOnUse">
<stop stop-color="#FFE05D"/>
<stop offset="0.11" stop-color="#F1DA59"/>
<stop offset="0.32" stop-color="#CBCB50"/>
<stop offset="0.61" stop-color="#8FB341"/>
<stop offset="0.85" stop-color="#579C33"/>
<stop offset="1" stop-color="#579C33"/>
</linearGradient>
<linearGradient id="paint4_linear_76_15173" x1="67.6553" y1="31.489" x2="183.835" y2="73.5972" gradientUnits="userSpaceOnUse">
<stop stop-color="#579C33"/>
<stop offset="1" stop-color="#336220"/>
</linearGradient>
<linearGradient id="paint5_linear_76_15173" x1="76.4975" y1="12.7965" x2="173.829" y2="87.9309" gradientUnits="userSpaceOnUse">
<stop stop-color="#FFE05D"/>
<stop offset="0.11" stop-color="#F1DA59"/>
<stop offset="0.32" stop-color="#CBCB50"/>
<stop offset="0.61" stop-color="#8FB341"/>
<stop offset="0.85" stop-color="#579C33"/>
<stop offset="1" stop-color="#579C33"/>
</linearGradient>
<linearGradient id="paint6_linear_76_15173" x1="122.761" y1="92.7947" x2="114.754" y2="91.4228" gradientUnits="userSpaceOnUse">
<stop stop-color="#3B7217"/>
<stop offset="0.52" stop-color="#60A034"/>
<stop offset="1" stop-color="#3B7217"/>
</linearGradient>
<linearGradient id="paint7_linear_76_15173" x1="102.876" y1="103.085" x2="107.03" y2="107.893" gradientUnits="userSpaceOnUse">
<stop stop-color="white"/>
<stop offset="0.8" stop-color="#E1EA8D"/>
</linearGradient>
<linearGradient id="paint8_linear_76_15173" x1="90.8799" y1="115.509" x2="88.1415" y2="107.023" gradientUnits="userSpaceOnUse">
<stop stop-color="#3B7217"/>
<stop offset="0.52" stop-color="#60A034"/>
<stop offset="1" stop-color="#3B7217"/>
</linearGradient>
<linearGradient id="paint9_linear_76_15173" x1="84.8211" y1="83.8438" x2="91.7057" y2="85.4506" gradientUnits="userSpaceOnUse">
<stop stop-color="#3B7217"/>
<stop offset="0.52" stop-color="#60A034"/>
<stop offset="1" stop-color="#3B7217"/>
</linearGradient>
<linearGradient id="paint10_linear_76_15173" x1="93.6732" y1="93.7934" x2="93.526" y2="100.885" gradientUnits="userSpaceOnUse">
<stop stop-color="white"/>
<stop offset="0.8" stop-color="#E1EA8D"/>
</linearGradient>
<linearGradient id="paint11_linear_76_15173" x1="90.7417" y1="119.183" x2="98.5722" y2="117.16" gradientUnits="userSpaceOnUse">
<stop stop-color="#3B7217"/>
<stop offset="0.52" stop-color="#60A034"/>
<stop offset="1" stop-color="#3B7217"/>
</linearGradient>
<linearGradient id="paint12_linear_76_15173" x1="105.177" y1="100.338" x2="99.435" y2="97.6425" gradientUnits="userSpaceOnUse">
<stop stop-color="white"/>
<stop offset="0.8" stop-color="#E1EA8D"/>
</linearGradient>
<linearGradient id="paint13_linear_76_15173" x1="109.846" y1="84.0035" x2="115.817" y2="90.6664" gradientUnits="userSpaceOnUse">
<stop stop-color="#3B7217"/>
<stop offset="0.52" stop-color="#60A034"/>
<stop offset="1" stop-color="#3B7217"/>
</linearGradient>
<linearGradient id="paint14_linear_76_15173" x1="128.684" y1="111.274" x2="121.745" y2="112.6" gradientUnits="userSpaceOnUse">
<stop stop-color="#3B7217"/>
<stop offset="0.52" stop-color="#60A034"/>
<stop offset="1" stop-color="#3B7217"/>
</linearGradient>
<linearGradient id="paint15_linear_76_15173" x1="113.65" y1="102.023" x2="106.712" y2="103.355" gradientUnits="userSpaceOnUse">
<stop stop-color="#3B7217"/>
<stop offset="0.52" stop-color="#60A034"/>
<stop offset="1" stop-color="#3B7217"/>
</linearGradient>
<linearGradient id="paint16_linear_76_15173" x1="100.409" y1="102.921" x2="94.483" y2="99.0524" gradientUnits="userSpaceOnUse">
<stop stop-color="#3B7217"/>
<stop offset="0.52" stop-color="#60A034"/>
<stop offset="1" stop-color="#3B7217"/>
</linearGradient>
<linearGradient id="paint17_linear_76_15173" x1="116.56" y1="105.776" x2="113.818" y2="99.2326" gradientUnits="userSpaceOnUse">
<stop stop-color="white"/>
<stop offset="0.8" stop-color="#E1EA8D"/>
</linearGradient>
<clipPath id="clip0_76_15173">
<rect width="178" height="179" fill="white" transform="translate(18 18)"/>
</clipPath>
</defs>
</svg>
