<svg width="215" height="215" viewBox="0 0 215 215" fill="none" xmlns="http://www.w3.org/2000/svg">
<g clip-path="url(#clip0_76_15162)">
<g clip-path="url(#clip1_76_15162)">
<path fill-rule="evenodd" clip-rule="evenodd" d="M163.081 152.317C163.081 152.317 158.903 148.287 149.211 145.773C139.519 143.259 141.406 143.764 134.611 141.71C132.731 141.104 130.709 141.086 128.819 141.66C126.928 142.233 125.257 143.371 124.032 144.92C124.032 144.92 116.013 153.473 126.121 157.67C136.228 161.868 137.554 167.536 144.191 169.422C150.828 171.307 156.96 172.261 157.522 166.807C158.083 161.352 163.047 152.317 163.047 152.317H163.081Z" fill="#99441D"/>
<path fill-rule="evenodd" clip-rule="evenodd" d="M115.767 137.804C115.475 136.368 107.68 125.694 99.4708 120.452C94.5056 117.274 89.7075 113.843 85.0955 110.171C85.4095 116.001 85.2969 121.845 84.7585 127.658C83.8488 134.909 80.0192 136.076 82.1979 139.432C84.3767 142.788 82.2765 145.695 85.9827 147.288C89.4979 150.498 98.6621 155.145 106.838 153.675C115.014 152.204 115.823 137.827 115.823 137.827L115.767 137.804Z" fill="#6B2605"/>
<path fill-rule="evenodd" clip-rule="evenodd" d="M136.408 154.281C136.476 158.58 136.667 165.089 135.903 169.141C135.24 172.654 134.656 176.773 131.804 174.237C128.951 171.7 130.815 172.34 127.615 173.193C124.414 174.046 123.437 176.19 120.539 174.091C117.642 171.992 112.24 166.795 112.453 163.395C112.667 159.994 108.141 156.368 110.084 151.946C112.026 147.524 109.331 146.334 113.026 143.607C116.721 140.88 113.767 135.178 122.19 139.802C130.613 144.426 136.408 154.281 136.408 154.281Z" fill="#AD5025"/>
<path fill-rule="evenodd" clip-rule="evenodd" d="M119.461 166.47C119.461 166.47 115.351 173.047 111.51 172.935C107.669 172.823 107.759 171.812 104.075 173.047C100.392 174.282 94.5517 168.917 93.058 166.223C91.5644 163.529 86.6565 162.115 87.4988 155.482C88.3411 148.849 85.8704 143.977 89.745 144.078C93.6196 144.179 97.9995 141.834 105.333 146.918C112.667 152.002 119.484 166.47 119.484 166.47H119.461Z" fill="#C75925"/>
<path fill-rule="evenodd" clip-rule="evenodd" d="M95.0226 160.162C92.6867 159.769 81.748 153.686 75.4475 154.214C69.1471 154.741 64.4976 153.955 62.2627 156.851C60.0278 159.747 53.0311 161.397 58.7699 164.708C67.4033 169.483 76.833 172.651 86.5996 174.057C98.0212 175.561 102.12 171.812 101.795 170.69C101.469 169.568 95.0563 160.129 95.0563 160.129L95.0226 160.162Z" fill="#99441D"/>
<path fill-rule="evenodd" clip-rule="evenodd" d="M95.0231 160.162C92.6871 159.769 81.7484 153.686 75.4592 154.214C69.8439 154.685 65.5875 154.124 63.1055 155.998C63.6558 157.121 66.3736 158.939 75.3919 161.43C89.3291 165.28 94.9445 164.528 97.1906 163.316C96.0676 161.543 95.068 160.162 95.068 160.162H95.0231Z" fill="#6B2605"/>
<path fill-rule="evenodd" clip-rule="evenodd" d="M92.6982 138.13C90.351 137.883 91.4067 144.034 82.0066 135.627C72.6065 127.22 68.7768 122.63 62.1507 123.572C55.5246 124.515 47.9664 127.153 47.2588 128.264C46.5513 129.375 38.8695 130.374 44.3501 137.658C49.8307 144.943 48.4043 146.054 59.2195 150.274C70.0347 154.494 69.3271 159.085 76.5485 160.6C83.7698 162.115 97.0557 163.215 98.0777 159.141C99.0997 155.067 92.6982 138.13 92.6982 138.13Z" fill="#AD5025"/>
<path fill-rule="evenodd" clip-rule="evenodd" d="M62.8244 123.494L62.173 123.572C55.5469 124.515 47.9887 127.153 47.2811 128.264C46.5736 129.375 41.0706 130.071 42.7215 134.751C48.7524 133.539 62.9929 132.664 62.8244 123.528V123.494Z" fill="#99441D"/>
<path fill-rule="evenodd" clip-rule="evenodd" d="M192.988 141.71C192.988 141.71 180.41 142.776 172.56 142.541C164.709 142.305 157.162 139.275 155.074 143.663C152.985 148.052 144.966 152.732 151.805 159.275C158.645 165.819 163.339 165.415 174.716 161.7C186.093 157.985 199.042 152.025 199.424 149.825C199.805 147.625 193 141.688 193 141.688L192.988 141.71Z" fill="#B5582D"/>
<path fill-rule="evenodd" clip-rule="evenodd" d="M184.082 104.211C184.43 105.143 191.124 119.274 186.789 125.234C182.454 131.193 181.622 136.323 176.142 136.199C170.661 136.076 166.63 140.565 161.98 142.462C157.331 144.359 148.571 150.005 146.448 144.707C144.325 139.409 138.104 136.514 148.121 128.769C158.139 121.025 171.492 115.301 173.952 111.204C176.411 107.107 184.06 104.211 184.06 104.211H184.082Z" fill="#99441D"/>
<path fill-rule="evenodd" clip-rule="evenodd" d="M91.1375 105.592C91.1375 105.592 70.7651 108.667 62.6453 113.931C54.5255 119.195 45.4398 118.084 55.1993 124.179C64.9588 130.273 62.0837 133.562 73.9883 130.486C85.8928 127.411 89.9022 125.907 91.0365 124.975C92.1708 124.044 91.1375 105.592 91.1375 105.592Z" fill="#99441D"/>
<path fill-rule="evenodd" clip-rule="evenodd" d="M140.361 111.226C140.361 111.226 127.098 104.604 118.596 105.053C110.095 105.502 100.627 107.635 108.118 112.91C115.609 118.185 112.419 117.242 121.876 124.807C131.332 132.372 127.491 130.621 131.467 135.369C135.442 140.116 133.499 147.513 138.205 139.948C142.911 132.383 147.616 118.567 140.361 111.238V111.226Z" fill="#99441D"/>
<path fill-rule="evenodd" clip-rule="evenodd" d="M161.082 114.751C159.026 114.537 154.141 118.645 141.989 121.687C129.838 124.729 117.9 120.643 113.317 126.12C108.735 131.598 101.199 135.593 110.251 138.467C119.303 141.34 126.278 144.179 137.205 144.887C148.133 145.594 156.522 146.177 159.431 136.783C162.339 127.389 161.138 114.728 161.138 114.728L161.082 114.751Z" fill="#C75925"/>
<path fill-rule="evenodd" clip-rule="evenodd" d="M36.5443 125.941C36.5443 125.941 32.7484 118.23 25.7741 118.241C18.7998 118.252 16.0371 111.99 10.534 114.874C5.03098 117.759 -4.20063 116.76 2.16718 123.988C8.53498 131.216 16.2729 132.495 26.8747 137.198C37.4765 141.901 46.2139 150.341 47.0226 141.508C47.8312 132.675 36.5443 125.941 36.5443 125.941Z" fill="#6B2605"/>
<path fill-rule="evenodd" clip-rule="evenodd" d="M27.8182 131.283C23.6628 132.641 9.65814 131.766 11.5 138.22C13.3418 144.673 7.36708 147.928 18.5192 149.253C29.6712 150.577 30.4462 150.218 34.2421 153.304C38.0381 156.391 38.1504 158.49 43.7657 161.621C49.3811 164.753 50.3806 169.332 54.6371 166.941C58.8935 164.551 63.6216 168.647 62.1055 160.869C60.5894 153.091 64.6548 146.368 61.2744 144.673C57.894 142.978 27.7845 131.283 27.7845 131.283H27.8182Z" fill="#C75925"/>
<path fill-rule="evenodd" clip-rule="evenodd" d="M209.902 126.435C209.902 126.435 205.724 122.405 196.032 119.902C186.34 117.399 188.17 117.882 181.432 115.828C179.552 115.221 177.53 115.204 175.639 115.778C173.749 116.351 172.078 117.489 170.853 119.038C170.853 119.038 162.834 127.591 172.93 131.788C183.027 135.986 184.374 141.654 191.012 143.54C197.649 145.425 203.781 146.379 204.343 140.925C204.904 135.47 209.868 126.435 209.868 126.435H209.902Z" fill="#6B2605"/>
<path fill-rule="evenodd" clip-rule="evenodd" d="M211.845 104.503C212.193 105.435 218.887 119.577 214.552 125.537C210.217 131.496 209.385 136.626 203.905 136.491C198.424 136.356 194.392 140.868 189.743 142.765C185.093 144.662 176.334 150.296 174.211 145.01C172.088 139.724 165.867 136.817 175.873 129.072C185.88 121.328 199.255 115.604 201.76 111.507C204.264 107.41 211.867 104.514 211.867 104.514L211.845 104.503Z" fill="#C75925"/>
<path fill-rule="evenodd" clip-rule="evenodd" d="M126.019 113.437C126.019 113.437 121.898 109.386 112.149 106.894C102.401 104.402 104.344 104.885 97.5496 102.831C95.669 102.224 93.6479 102.207 91.757 102.78C89.8662 103.354 88.1959 104.492 86.9703 106.041C86.9703 106.041 78.9516 114.593 89.0592 118.791C99.1668 122.989 100.492 128.657 107.129 130.542C113.767 132.428 119.899 133.382 120.471 127.927C121.044 122.473 125.986 113.437 125.986 113.437H126.019Z" fill="#C75925"/>
<path fill-rule="evenodd" clip-rule="evenodd" d="M197.66 96.3884C197.66 96.3884 184.385 89.7664 175.884 90.2153C167.382 90.6643 157.914 92.7968 165.417 98.072C172.919 103.347 169.707 102.404 179.163 109.969C188.619 117.534 184.778 115.783 188.754 120.531C192.73 125.278 190.787 132.675 195.492 125.11C200.198 117.545 204.904 103.729 197.66 96.3996V96.3884Z" fill="#AD5025"/>
<path fill-rule="evenodd" clip-rule="evenodd" d="M55.5243 116.973C55.2323 115.649 47.4382 105.749 39.2286 100.957C34.2771 98.0439 29.4789 94.8783 24.8533 91.4724C25.1672 96.8528 25.0546 102.25 24.5163 107.612C23.6067 114.347 19.777 115.379 21.9557 118.477C24.1345 121.575 22.0343 124.257 25.7292 125.705C29.2557 128.668 38.42 133.001 46.5959 131.598C54.7718 130.195 55.5243 117.007 55.5243 117.007V116.973Z" fill="#AD5025"/>
<path fill-rule="evenodd" clip-rule="evenodd" d="M74.8639 109.184C74.8639 109.184 70.7647 115.772 66.9126 115.66C63.0605 115.547 63.1728 114.537 59.4779 115.772C55.783 117.007 50.0216 111.63 48.4605 108.937C46.8995 106.243 42.0591 104.829 42.9014 98.2067C43.7437 91.5846 41.2841 86.6911 45.1475 86.8033C49.0109 86.9155 53.4021 84.5585 60.7357 89.6429C68.0694 94.7273 74.8752 109.184 74.8752 109.184H74.8639Z" fill="#C75925"/>
<path fill-rule="evenodd" clip-rule="evenodd" d="M27.1558 101.731C27.212 106.03 27.4029 112.54 26.6392 116.591C25.9766 120.104 25.3926 124.224 22.54 121.676C19.6874 119.128 21.5517 119.79 18.3509 120.643C15.1502 121.496 14.1731 123.629 11.2756 121.541C8.37809 119.453 2.97611 114.246 3.1895 110.834C3.40288 107.421 -1.12307 103.819 0.819836 99.3965C2.76275 94.9743 0.0673844 93.7845 3.77351 91.0572C7.47964 88.3298 4.5035 82.6281 12.9265 87.2411C21.3495 91.854 27.1558 101.731 27.1558 101.731Z" fill="#C75925"/>
<path fill-rule="evenodd" clip-rule="evenodd" d="M211.53 92.5499C211.238 91.1133 204.387 78.4865 195.234 75.1867C182.633 70.6971 189.237 66.4433 180.522 82.4036C177.018 88.8124 175.783 90.8214 177.961 94.1774C180.14 97.5333 178.04 100.44 181.735 102.034C185.261 105.244 194.425 109.891 202.601 108.409C210.777 106.928 211.53 92.5499 211.53 92.5499Z" fill="#C75925"/>
<path fill-rule="evenodd" clip-rule="evenodd" d="M113.789 130.318C113.789 130.318 114.373 126.232 121.471 125.828C128.569 125.424 131.949 125.166 136.374 125.009C140.799 124.852 148.413 125.379 151.738 123.673C155.062 121.967 154.893 122.248 156.825 121.26C158.757 120.273 160.935 119.588 157.948 122.08C154.961 124.571 149.402 125.537 148.593 126.053C147.082 126.648 145.486 127 143.865 127.097C143.438 126.996 142.236 129.465 145.639 129.341C149.235 128.967 152.808 128.397 156.342 127.635C158.184 127.332 158.925 129.88 155.601 130.228C152.277 130.576 146.774 129.746 146.021 130.475C145.269 131.205 146.527 129.936 143.775 133.786C141.023 137.636 135.431 135.503 135.352 133.573C135.273 131.642 136.891 130.273 133.656 129.992C130.422 129.712 128.939 128.971 125.986 129.263C123.408 129.427 120.842 129.749 118.304 130.228C116.808 131.109 115.398 132.127 114.092 133.27C113.295 133.887 116.675 136.39 120.662 135.425C124.649 134.46 123.29 131.384 130.5 134.112C137.71 136.839 146.65 137.131 147.021 137.479C147.391 137.827 151.816 140.969 141.484 138.893C131.152 136.817 130.186 134.662 125.615 135.526C121.044 136.39 117.495 137.771 114.463 136.267C111.431 134.763 110.656 131.452 113.8 130.329L113.789 130.318Z" fill="#99441D"/>
<path fill-rule="evenodd" clip-rule="evenodd" d="M91.676 105.278C95.5607 105.147 99.4457 105.524 103.232 106.4C110.027 107.837 114.34 109.958 117.181 110.665C120.022 111.372 123.796 111.552 123.313 112.259C122.83 112.966 121.134 112.001 117.63 111.664C114.512 111.403 111.456 110.645 108.578 109.419C106.381 108.23 103.952 107.533 101.458 107.377C97.7631 107.006 95.4046 106.636 94.4051 106.973C93.4056 107.309 91.0359 109.217 93.4842 109.217C95.9325 109.217 96.2132 107.702 101.604 109.621C106.995 111.541 105.669 113.303 111.465 113.965C117.26 114.627 121.572 114.414 121.651 114.672C121.729 114.93 120.91 115.446 115.26 114.964C109.611 114.481 112.756 116.457 107.107 113.595C101.458 110.732 101.492 109.891 98.7963 109.891C96.1009 109.891 91.7547 109.812 90.6765 109.812C89.5984 109.812 87.9474 109.588 88.9807 110.216C90.0139 110.845 92.1589 115.121 95.034 116.861C97.9091 118.6 102.637 117.893 104.591 118.084C106.703 118.328 108.784 118.787 110.802 119.453C114.34 120.419 115.485 121.384 115.227 121.833C114.969 122.282 108.623 119.341 106.04 119.498C103.457 119.655 101.11 118.679 101.492 120.419C101.668 121.822 102.304 123.128 103.3 124.134C104.299 125.02 102.177 125.986 98.8749 122.091C95.5731 118.196 92.8216 117.972 90.8225 115.862C88.8234 113.752 88.655 112.405 87.6555 111.036C86.6559 109.666 87.3634 108.51 88.61 108.555C89.8566 108.6 89.385 104.436 91.676 105.289V105.278Z" fill="#99441D"/>
<path fill-rule="evenodd" clip-rule="evenodd" d="M83.1075 121.137C83.1075 121.137 83.6915 128.567 101.268 136.727C118.844 144.887 123.021 144.954 123.021 144.954L120.517 148.321C120.517 148.321 101.425 143.831 92.0472 136.648C82.6695 129.465 79.5586 122.181 79.5586 122.181L83.1075 121.137Z" fill="#ED4605"/>
<path fill-rule="evenodd" clip-rule="evenodd" d="M57.3217 99.2841C57.3217 99.2841 51.931 104.391 56.5693 123.269C61.2075 142.148 63.7345 145.436 63.7345 145.436L59.5679 145.571C59.5679 145.571 51.1224 127.736 50.8528 115.94C50.5833 104.144 54.3007 97.1516 54.3007 97.1516L57.3217 99.2841Z" fill="#ED4605"/>
<path fill-rule="evenodd" clip-rule="evenodd" d="M184.026 91.2704C184.026 91.2704 178.635 96.3772 183.274 115.256C187.912 134.134 190.405 137.445 190.405 137.445L186.239 137.58C186.239 137.58 177.782 119.745 177.524 107.938C177.265 96.1303 181.005 89.1827 181.005 89.1827L184.026 91.3153V91.2704Z" fill="#ED4605"/>
<path fill-rule="evenodd" clip-rule="evenodd" d="M19.9122 108.387C19.9122 108.387 35.1186 113.875 38.6675 117.736C42.2164 121.597 43.9796 122.226 43.9796 122.226L45.0128 128.309C41.2552 125.723 37.2969 123.441 33.1756 121.485C26.3361 118.252 16.6777 113.134 16.6777 113.134L19.9234 108.387H19.9122Z" fill="#519A48"/>
<path fill-rule="evenodd" clip-rule="evenodd" d="M73.2134 138.96C73.2134 138.96 86.5105 140.296 89.015 141.923C91.5194 143.551 97.4268 147.064 97.4268 147.064V153.114C97.4268 153.114 88.8802 147.187 85.2414 146.918C81.9658 146.508 78.7233 145.866 75.5381 144.999L73.1797 138.96H73.2134Z" fill="#519A48"/>
<path fill-rule="evenodd" clip-rule="evenodd" d="M119.506 153.944C119.506 153.944 122.459 153.428 123.605 154.797C124.75 156.166 124.863 160.735 121.684 159.848C118.506 158.961 116.777 156.481 119.506 153.944ZM120.876 155.28C120.876 155.28 122.987 155.28 123.032 156.514C123.077 157.749 120.988 158.176 120.134 157.323C119.281 156.47 120.876 155.28 120.876 155.28Z" fill="#519A48"/>
<path fill-rule="evenodd" clip-rule="evenodd" d="M144.641 158.422C144.641 158.422 153.03 144.539 157.489 141.822C161.947 139.106 162.891 137.445 162.891 137.445L169.034 137.636C165.769 140.834 162.765 144.287 160.049 147.962C155.557 154.056 148.628 162.553 148.628 162.553L144.641 158.4V158.422Z" fill="#358541"/>
<path fill-rule="evenodd" clip-rule="evenodd" d="M185.733 120.733C185.733 120.733 194.123 106.849 198.581 104.122C203.04 101.394 203.983 99.7781 203.983 99.7781L210.126 99.9689C206.864 103.165 203.859 106.614 201.142 110.284C196.65 116.378 189.72 124.875 189.72 124.875L185.733 120.733Z" fill="#358541"/>
<path fill-rule="evenodd" clip-rule="evenodd" d="M175.468 113.437C172.057 117.392 168.189 120.93 163.946 123.977C157.78 128.174 152.771 128.949 150.828 130.251C148.885 131.553 149.772 135.863 149.772 135.863C149.772 135.863 150.334 132.608 157.466 129.656C164.597 126.704 175.805 119.128 175.805 117.444C175.805 115.761 175.513 113.437 175.513 113.437H175.468Z" fill="#FBD5B0"/>
<path fill-rule="evenodd" clip-rule="evenodd" d="M18.2834 91.0796C18.2834 91.0796 12.668 92.8081 11.6123 103.819C10.5567 114.829 14.712 129.499 14.712 129.499C14.712 129.499 11.0171 129.499 11.0171 127.568C11.0171 125.638 7.46823 113.516 8.51269 104.413C9.31319 98.6522 11.6222 93.2045 15.2062 88.6216L18.3395 91.0796H18.2834Z" fill="#FBD5B0"/>
<path d="M16.8688 90.0134C13.2036 93.6169 10.9692 98.4257 10.5796 103.549C9.77096 112.416 13.4434 127.77 13.4546 127.815L13.0166 127.916C13.0166 127.916 9.32174 112.45 10.1303 103.504C10.5413 98.2716 12.826 93.3623 16.5655 89.6766L16.8688 90.0134Z" fill="#E8BC90"/>
<path fill-rule="evenodd" clip-rule="evenodd" d="M17.4522 137.019C17.4522 137.019 17.1602 142.9 27.1106 147.659C37.061 152.418 52.2674 153.428 52.2674 153.428C52.2674 153.428 51.0095 156.918 49.2126 156.256C47.4157 155.594 34.8598 154.853 26.6839 150.79C21.5303 148.088 17.1832 144.073 14.083 139.151L17.4522 137.019Z" fill="#FBD5B0"/>
<path d="M16.0151 138.006C18.1351 142.675 21.8783 146.416 26.5495 148.534C34.5795 152.305 50.134 154.045 50.2463 154.045L50.1901 154.494C50.1901 154.494 34.4672 152.743 26.3586 148.938C21.588 146.769 17.7658 142.945 15.5996 138.175L16.0151 138.006Z" fill="#E8BC90"/>
<path fill-rule="evenodd" clip-rule="evenodd" d="M151.289 90.0021C151.289 90.0021 138.026 83.38 129.524 83.829C121.022 84.2779 111.555 86.4104 119.046 91.6856C126.537 96.9608 123.347 96.018 132.803 103.583C142.26 111.148 138.419 109.397 142.394 114.144C146.37 118.892 144.427 126.289 149.133 118.735C153.838 111.181 158.544 97.3424 151.289 90.0133V90.0021Z" fill="#7A3312"/>
<path fill-rule="evenodd" clip-rule="evenodd" d="M149.975 123.606C149.975 123.606 155.725 122.966 163.867 117.108C172.009 111.249 170.415 112.394 176.322 108.499C177.993 107.433 179.302 105.887 180.077 104.064C180.853 102.242 181.059 100.227 180.668 98.2852C180.668 98.2852 179.287 86.6124 169.595 91.708C159.903 96.8037 154.737 94.1885 149.031 98.0832C143.326 101.978 138.665 106.097 142.473 110.048C146.28 113.999 149.975 123.606 149.975 123.606Z" fill="#C75925"/>
<path fill-rule="evenodd" clip-rule="evenodd" d="M22.2146 96.063C22.2146 96.063 26.7069 95.2661 28.4589 97.365C30.2109 99.4638 30.3794 106.411 25.5389 105.053C20.6985 103.695 18.0481 100.025 22.1697 96.0742L22.2146 96.063ZM24.2923 98.0945C24.2923 98.0945 27.5268 98.0945 27.5941 99.9801C27.6615 101.866 24.4608 102.517 23.1692 101.215C21.8777 99.9128 24.2923 98.0945 24.2923 98.0945Z" fill="#519A48"/>
<path fill-rule="evenodd" clip-rule="evenodd" d="M91.6314 110.89C91.8672 110.833 94.5176 110.89 95.6295 110.665C96.5706 110.537 97.5284 110.613 98.4371 110.89C99.6613 111.103 99.3132 111.159 100.47 111.776C101.627 112.394 104.008 112.596 103.278 113.033C102.548 113.471 99.5827 114.156 100.391 113.359C99.6838 112.382 97.0221 112.113 95.3599 112.236C93.6978 112.36 91.3057 112.831 91.6314 110.934V110.89ZM86.3529 110.014C86.162 110.755 85.3309 111.238 87.2177 113.527C89.1045 115.817 90.8227 115.974 89.5986 116.49C88.3745 117.007 85.7352 115.368 85.1063 113.606C84.4774 111.844 85.3197 109.745 86.3979 110.014H86.3529Z" fill="#FA7D44"/>
<path fill-rule="evenodd" clip-rule="evenodd" d="M120.775 123.876C119.72 123.926 118.686 124.189 117.735 124.648C116.783 125.107 115.934 125.753 115.238 126.547C112.487 129.364 110.207 131.979 109.455 132.159C108.702 132.338 112.161 121.395 120.775 123.842V123.876ZM133.556 139.14C136.768 139.858 133.735 140.779 140.171 140.678C146.606 140.577 145.528 140.678 148.032 140.509C150.537 140.341 149.492 139.387 153.176 138.882C156.859 138.377 157.118 137.142 156.792 138.231C156.336 139.142 155.645 139.915 154.79 140.469C153.935 141.024 152.947 141.34 151.929 141.385C149.279 141.542 149.065 142.631 144.461 142.956C141.638 143.142 138.804 142.866 136.071 142.137C136.071 142.137 133.646 140.453 131.815 140.509C129.984 140.565 128.783 138.388 133.522 139.14H133.556Z" fill="#FA7D44"/>
<path fill-rule="evenodd" clip-rule="evenodd" d="M98.6621 147.075C102.333 149.043 105.614 151.664 108.343 154.808C113.419 160.42 114.61 162.081 115.474 163.664C116.339 165.247 118.024 166.436 116.508 165.999C114.992 165.561 116.014 165.022 113.532 162.362C111.05 159.702 107.793 158.277 105.468 155.459C104.151 153.82 102.559 152.422 100.762 151.329C100.762 151.329 99.7403 153.069 99.9537 153.495C100.167 153.922 97.7974 156.166 100.717 157.525C103.637 158.883 105.524 159.477 107.748 160.622C109.971 161.767 113.363 164.158 113.363 166.167C113.275 167.095 112.963 167.988 112.455 168.77C111.946 169.552 111.256 170.199 110.443 170.656C109.578 170.87 109.477 170.982 110.555 168.479C111.634 165.976 112.802 165.112 109.208 163.103C105.614 161.094 101.739 160.106 101.2 159.736C100.661 159.365 98.8194 158.928 100.493 160.858C102.082 162.602 103.216 164.711 103.795 166.997C104.176 168.906 104.12 171.487 103.682 171.128C103.244 170.769 104.805 171.24 103.087 167.66C101.369 164.079 99.8414 162.441 99.3023 161.24C98.7632 160.039 100.425 159.343 99.5269 157.929C98.6284 156.514 97.6851 156.458 98.3364 154.393C98.9878 152.328 100.066 152.148 99.6841 150.049C99.3023 147.951 97.438 147.143 98.6621 147.154V147.075Z" fill="#99441D"/>
<path fill-rule="evenodd" clip-rule="evenodd" d="M95.9777 166.919C95.9777 166.919 103.255 169.164 89.3516 167.11C75.448 165.056 70.9669 162.957 69.8326 162.362C68.6983 161.767 63.8804 160.117 63.8804 160.117C63.8804 160.117 62.7573 160.678 63.9365 161.116C66.826 162.326 69.7761 163.386 72.7751 164.292C77.5144 165.707 80.7264 167.042 83.6801 167.211C86.6338 167.379 91.5416 167.907 91.4629 168.187C91.3843 168.468 87.7007 168.647 82.6805 168.456C78.6966 168.268 74.7438 167.658 70.8883 166.638C67.6651 165.875 65.0483 165.033 64.9922 165.415C64.936 165.796 64.1274 167.312 77.2674 168.782C90.4073 170.252 91.3282 169.321 93.462 169.107C95.5958 168.894 98.6618 169.702 99.0774 168.939C99.4929 168.176 98.8078 166.088 95.9889 166.896L95.9777 166.919Z" fill="#7A3312"/>
<path fill-rule="evenodd" clip-rule="evenodd" d="M59.3989 147.3C59.3989 147.3 59.3989 147.794 59.8257 154.371C60.2524 160.948 61.937 162.519 59.8257 163.451C57.7143 164.382 55.8724 165.841 53.8734 165.022C51.8743 164.203 50.0886 161.386 47.0563 159.859C44.0241 158.333 42.8448 158.535 42.2496 158.063C41.6544 157.592 45.7311 157.121 46.8879 157.614C48.0446 158.108 53.2782 162.037 55.0638 162.362C56.8495 162.688 58.6914 162.283 58.2309 160.016C57.7704 157.749 56.8495 156.268 56.8495 154.64C56.8495 153.013 58.1972 151.812 55.12 151.273C52.0428 150.734 57.1191 153.518 43.9791 149.971C30.8392 146.424 27.0545 144.696 24.9431 143.663C22.8318 142.631 25.1677 141.508 28.9974 143.315C32.8271 145.122 44.4059 148.927 48.6287 149.365C52.8514 149.803 52.683 149.365 54.7382 149.477C56.7934 149.589 57.1191 150.072 57.1191 148.826C57.1191 147.58 61.0161 147.03 55.6591 146.054C50.302 145.077 39.9361 144.64 33.1078 142.036L25.0554 138.983C25.0554 138.983 19.6984 136.211 17.3736 136.166C15.0489 136.121 14.0044 135.459 15.3633 135.29C18.0496 134.585 20.8913 134.758 23.4719 135.784C28.1326 137.412 32.0297 140.453 40.565 142.036C49.1003 143.618 54.6371 144.707 56.288 144.673C57.9389 144.64 59.4887 145.571 59.3203 147.356L59.3989 147.3Z" fill="#99441D"/>
<path fill-rule="evenodd" clip-rule="evenodd" d="M31.0531 97.7352C31.0531 97.7352 39.813 102.842 44.3615 108.712C48.9099 114.582 49.9768 114.795 50.2014 117.949C50.4261 121.103 50.8528 126.861 50.2014 126.536C49.5501 126.21 49.9881 123.168 49.4378 120.778C49.069 118.527 48.3089 116.358 47.1916 114.369C45.9001 112.192 41.3517 108.824 39.3301 106.972C37.1018 105.216 34.7525 103.618 32.2997 102.191C32.2997 102.191 31.0082 104.369 33.6025 106.681C36.1968 108.993 39.2178 110.811 41.9244 113.853C43.5168 115.622 44.8652 117.596 45.9338 119.723C45.9338 119.723 44.0919 119.285 41.1719 116.569C38.252 113.853 36.5224 111.024 34.3549 110.16C32.1874 109.296 30.9857 108.207 31.1093 109.397C31.2328 110.586 28.3016 108.274 29.5931 106.03C30.4166 104.275 30.824 102.355 30.7836 100.418L31.1093 97.8138L31.0531 97.7352Z" fill="#6B2605"/>
<path fill-rule="evenodd" clip-rule="evenodd" d="M65.6661 134.583C67.9895 138.691 70.8234 142.488 74.1003 145.885C79.4012 151.329 79.5135 150.016 84.2753 151.329C89.0372 152.642 89.2506 151.43 93.1364 153.821C97.0222 156.211 95.6296 157.412 93.1364 156.065C90.6432 154.719 92.0133 154.864 85.0278 153.237C78.0423 151.61 76.7171 151.396 72.674 146.671C70.5612 144.24 68.6067 141.676 66.8228 138.994C66.8228 138.994 62.7236 142.204 66.7218 146.413C70.7199 150.622 70.3942 154.539 76.4475 156.166C82.5009 157.794 90.6207 157.042 91.4855 157.693C92.3502 158.344 89.2393 157.929 84.6684 158.557C80.0975 159.186 74.9314 160.622 71.1916 155.358C67.4518 150.094 65.7335 149.017 64.4532 145.638C63.1729 142.26 63.2627 140.52 64.2398 138.781C65.2169 137.041 64.4532 135.952 63.375 134.213C62.2969 132.473 63.0493 132.585 64.8911 132.686C66.733 132.787 68.6759 133.674 70.2931 133.012C71.9103 132.349 70.4054 131.609 76.6722 134.538C82.9389 137.468 84.4213 140.868 82.1752 139.387C79.9291 137.905 73.9768 134.897 71.9216 134.65C69.8664 134.403 69.215 135.301 65.6436 134.538L65.6661 134.583Z" fill="#6B2605"/>
<path fill-rule="evenodd" clip-rule="evenodd" d="M194.707 149.253C194.707 149.253 188.755 155.134 175.132 157.738C161.509 160.342 158.364 160.128 157.163 159.152C155.961 158.176 151.862 156.975 158.679 157.199C165.496 157.424 175.761 159.264 181.601 154.696C187.441 150.128 189.822 149.253 189.822 149.253C189.822 149.253 194.089 145.167 189.822 146.637C185.554 148.108 175.682 151.868 172.324 151.868C168.966 151.868 166.63 150.263 163.093 152.317C159.555 154.371 160.431 149.803 161.722 149.69C164.309 149.173 166.951 148.992 169.584 149.152C173.795 149.477 174.02 149.758 179.096 148.029C184.173 146.301 190.069 143.663 192.405 145.122C193.085 145.575 193.645 146.187 194.037 146.905C194.428 147.622 194.639 148.424 194.651 149.241L194.707 149.253Z" fill="#6B2605"/>
<path fill-rule="evenodd" clip-rule="evenodd" d="M210.621 110.239C211.427 111.889 212.132 113.587 212.732 115.323C213.518 117.658 214.147 120.295 213.754 122.057C212.889 125.974 212.631 126.468 208.509 129.162C205.719 131.098 202.77 132.795 199.693 134.235C196.01 135.975 194.347 138.871 190.821 140.318C187.294 141.766 179.59 144.348 178.815 144.236C178.04 144.123 173.627 141.082 176.109 141.082C179.862 141.309 183.621 140.755 187.148 139.454C191.899 137.602 195.908 134.123 198.93 131.732C201.951 129.342 204.23 127.49 204.455 126.738C204.68 125.986 204.455 121.339 203.332 122.405C202.209 123.471 197.312 124.347 199.963 121.081C202.613 117.815 201.367 118.252 203.747 115.211C206.128 112.169 208.071 112.495 206.881 114.234C205.69 115.974 202.557 119.229 204.826 120.755C207.094 122.282 202.793 127.961 208.026 125.009C213.26 122.057 208.397 109.127 210.565 110.216L210.621 110.239Z" fill="#99441D"/>
<path fill-rule="evenodd" clip-rule="evenodd" d="M204.758 89.0368C204.758 89.0368 207.464 88.2736 205.735 92.4039C204.005 96.5343 202.062 99.576 200.221 100.126C198.379 100.676 191.348 104.47 191.023 103.168C190.697 101.866 187.777 100.014 188.428 98.3862C189.08 96.7588 190.315 93.257 190.315 93.257C190.315 93.257 186.485 95.5017 191.887 97.4098C197.289 99.3178 201.411 94.3232 202.062 93.3804C202.714 92.4376 204.758 89.0368 204.758 89.0368ZM197.413 78.9354C197.413 78.9354 188.327 78.1721 186.485 81.6515C184.644 85.1309 187.676 85.5686 186.272 91.753C184.868 97.9373 184.756 100.564 185.722 98.925C186.688 97.2863 190.057 90.1255 188.642 87.5104C187.227 84.8952 186.912 82.7627 189.765 82.0444C192.617 81.326 194.718 76.4998 196.245 80.2598C197.772 84.0198 196.795 82.729 195.93 85.8717C195.066 89.0144 192.247 94.3457 194.953 91.203C197.66 88.0603 201.119 83.2678 197.447 78.8568L197.413 78.9354Z" fill="#99441D"/>
<path fill-rule="evenodd" clip-rule="evenodd" d="M177.76 104.952C174.704 107.359 171.348 109.359 167.776 110.901C161.43 113.729 156.702 114.571 153.984 115.671C151.266 116.771 148.111 118.847 148.088 117.994C148.066 117.141 150.009 116.872 153.041 115.121C155.699 113.481 158.603 112.279 161.644 111.563C164.122 111.228 166.498 110.359 168.607 109.015C171.807 107.141 173.941 106.041 174.548 105.188C175.154 104.335 175.996 101.383 173.997 102.842C171.998 104.301 172.672 105.682 167.18 107.332C161.689 108.982 161.745 106.748 156.668 109.632C151.592 112.517 148.212 115.244 148.01 115.065C147.807 114.885 148.144 113.999 153.007 111.058C157.87 108.117 154.13 108.375 160.408 107.365C166.686 106.355 167.091 107.073 169.303 105.468C171.515 103.863 175.053 101.372 175.918 100.743C176.783 100.115 178.265 99.3066 177.041 99.4076C175.817 99.5086 171.605 97.3087 168.259 97.6006C164.912 97.8924 161.52 101.237 159.802 102.247C157.949 103.29 155.997 104.143 153.973 104.795C150.548 106.097 149.054 105.996 149.009 105.48C148.964 104.963 155.748 103.594 157.814 101.955C159.88 100.317 162.306 99.7106 160.947 98.5209C159.99 97.4882 158.712 96.8081 157.32 96.5904C155.995 96.4557 157.129 94.4355 162.093 95.6252C167.057 96.8149 169.404 95.3895 172.2 95.9282C174.997 96.4669 175.985 97.4434 177.591 97.9597C179.197 98.476 179.298 99.8341 178.265 100.541C177.232 101.248 180.04 104.335 177.692 105.031L177.76 104.952Z" fill="#99441D"/>
<path fill-rule="evenodd" clip-rule="evenodd" d="M154.961 104.043C155.208 103.987 157.859 104.043 158.959 103.83C159.904 103.703 160.864 103.776 161.778 104.043C162.991 104.256 162.643 104.312 163.8 104.941C164.957 105.57 167.349 105.76 166.619 106.187C165.889 106.613 162.913 107.309 163.721 106.524C163.025 105.547 160.352 105.266 158.69 105.401C157.028 105.536 154.636 105.996 154.961 104.088V104.043ZM149.694 103.179C149.503 103.908 148.661 104.402 150.559 106.681C152.457 108.959 154.153 109.127 152.929 109.644C151.704 110.16 149.065 108.589 148.436 106.759C147.807 104.93 148.65 102.909 149.739 103.179H149.694Z" fill="#FA7D44"/>
<path fill-rule="evenodd" clip-rule="evenodd" d="M166.372 152.541C166.619 152.541 169.269 152.541 170.37 152.317C171.315 152.189 172.276 152.265 173.189 152.541C174.402 152.754 174.053 152.81 175.21 153.439C176.367 154.068 178.759 154.247 178.029 154.685C177.299 155.123 174.323 155.807 175.132 155.01C174.435 154.034 171.762 153.765 170.1 153.888C168.438 154.011 166.046 154.494 166.372 152.586V152.541ZM161.093 151.677C160.913 152.406 160.071 152.9 161.969 155.179C163.867 157.457 165.563 157.626 164.339 158.142C163.115 158.658 160.475 157.076 159.847 155.257C159.218 153.439 160.06 151.396 161.138 151.677H161.093Z" fill="#FA7D44"/>
<path fill-rule="evenodd" clip-rule="evenodd" d="M75.1107 117.433C74.0556 117.484 73.0215 117.746 72.0702 118.205C71.1189 118.664 70.2699 119.31 69.574 120.104C66.8224 122.933 64.5538 125.537 63.7902 125.716C63.0265 125.896 66.4967 114.964 75.1107 117.399V117.433ZM71.8875 151.834C75.0995 152.552 72.0671 153.473 78.5023 153.36C84.9375 153.248 83.8594 153.36 86.3638 153.203C88.8683 153.046 87.8238 152.081 91.5075 151.576C95.1912 151.071 95.4495 149.836 95.1238 150.925C94.6676 151.835 93.9761 152.606 93.121 153.159C92.2659 153.711 91.2783 154.025 90.2609 154.068C87.6104 154.236 87.3971 155.325 82.7925 155.65C79.9663 155.836 77.1288 155.559 74.3919 154.831C74.3919 154.831 71.9773 153.147 70.1355 153.203C68.2937 153.259 67.1144 151.082 71.8538 151.834H71.8875Z" fill="#FA7D44"/>
<path fill-rule="evenodd" clip-rule="evenodd" d="M129.591 150.914C130.94 154.991 131.866 159.196 132.354 163.462C133.162 170.589 133.376 175.146 131.916 171.453C130.456 167.761 130.624 166.56 128.075 168.524C125.526 170.488 122.078 174.394 123.583 169.938C125.088 165.482 130.186 170.421 129.052 162.16C127.918 153.899 126.132 147.277 129.591 150.936V150.914Z" fill="#99441D"/>
<path fill-rule="evenodd" clip-rule="evenodd" d="M137.7 147.85C139.387 150.784 140.906 153.812 142.248 156.918C143.866 160.948 141.002 164.102 146.628 165.46C152.255 166.818 151.705 163.013 153.064 164.102C154.423 165.19 156.04 169.04 153.816 168.883C151.592 168.726 146.089 169.534 143.113 165.886C140.137 162.239 140.946 159.803 139.811 157.468C138.677 155.134 139.003 150.992 136.442 149.208C133.882 147.423 129.569 145.19 135.139 145.942C139.461 146.415 143.808 146.629 148.156 146.581C149.279 146.649 147.954 151.217 146.875 151.43C145.797 151.643 142.013 148.063 137.678 147.85H137.7Z" fill="#6B2605"/>
<path fill-rule="evenodd" clip-rule="evenodd" d="M52.6387 91.4275C53.2788 91.4275 53.9302 89.8001 63.4538 100.339C72.9775 110.878 73.6176 113.168 71.1244 111.866C68.6312 110.564 62.3645 106.759 62.3645 106.759C62.3645 106.759 63.9929 109.262 61.612 110.34C59.2311 111.417 53.8291 106.535 57.0636 104.582C60.298 102.629 61.32 98.0271 52.6387 91.4275Z" fill="#99441D"/>
<path fill-rule="evenodd" clip-rule="evenodd" d="M127.592 110.396C127.592 110.396 139.597 113.224 139.597 116.378C139.597 119.532 136.228 120.868 133.757 120.722C131.287 120.576 127.917 122.136 127.805 120.609C127.693 119.083 130.186 119.42 132.241 118.443C134.297 117.467 134.723 115.076 127.592 110.396Z" fill="#7A3312"/>
<path fill-rule="evenodd" clip-rule="evenodd" d="M80.9171 113.224C80.5914 113.606 84.1627 120.665 80.1646 121.316C76.1665 121.967 75.2343 122.742 73.6733 124.796C72.1122 126.85 72.4267 127.041 69.1249 127.736C65.823 128.432 61.8249 127.736 65.1829 126.76C68.5408 125.784 70.7982 124.313 74.4819 121.485C78.1656 118.656 80.2657 118.499 79.5132 116.995C78.7608 115.491 73.2353 112.506 72.2694 113.785C71.3036 115.065 70.933 112.506 72.786 111.922C74.6391 111.338 80.9171 113.19 80.9171 113.19V113.224Z" fill="#6B2605"/>
<path fill-rule="evenodd" clip-rule="evenodd" d="M24.3255 104.683C23.2716 104.726 22.2376 104.984 21.2874 105.442C20.3371 105.899 19.4906 106.546 18.8 107.343C16.0373 110.171 13.7687 112.775 13.005 112.955C12.2413 113.134 15.7116 102.191 24.3255 104.638V104.683ZM21.1023 139.073C24.3143 139.791 21.282 140.723 27.7172 140.61C34.1524 140.498 33.0743 140.61 35.5787 140.442C38.0832 140.274 37.0387 139.32 40.7224 138.814C44.406 138.309 44.6643 137.075 44.3386 138.164C43.8849 139.076 43.1943 139.85 42.3389 140.405C41.4835 140.96 40.4946 141.275 39.4757 141.317C36.8253 141.475 36.6119 142.563 32.0186 142.889C29.1924 143.076 26.3547 142.799 23.618 142.069C23.618 142.069 21.1922 140.386 19.3616 140.442C17.531 140.498 16.3293 138.321 21.0686 139.073H21.1023Z" fill="#FA7D44"/>
<path fill-rule="evenodd" clip-rule="evenodd" d="M8.61436 88.6553C8.61436 88.6553 10.4 92.2918 7.49129 94.5253C4.58254 96.7588 3.44824 99.2954 3.3584 101.125C3.40553 103.504 3.8145 105.861 4.5713 108.117C5.43606 111.26 5.98635 113.494 6.03128 111.316C6.0762 109.139 1.977 105.76 5.0879 100.878C8.1988 95.9956 13.0617 91.9663 11.8263 90.0133C11.5039 89.4677 11.0138 89.0407 10.429 88.796C9.84415 88.5513 9.19586 88.5019 8.58067 88.6553H8.61436Z" fill="#99441D"/>
<path fill-rule="evenodd" clip-rule="evenodd" d="M180.421 127.411C180.421 127.411 183.353 131.665 182.757 134.583C182.162 137.501 181.455 135.997 178.748 136.592C176.041 137.187 173.133 141.598 173.391 138.5C173.649 135.402 174.806 134.852 177.558 132.888C180.309 130.924 176.906 127.894 180.421 127.456V127.411Z" fill="#FA7D44"/>
<path fill-rule="evenodd" clip-rule="evenodd" d="M185.351 101.215C185.351 101.215 193.089 104.391 195.841 104.256C198.593 104.122 194.055 105.94 191.731 105.94C189.406 105.94 183.993 103.168 185.351 101.215Z" fill="#FA7D44"/>
<path fill-rule="evenodd" clip-rule="evenodd" d="M200.703 125.29C199.086 128.881 191.943 130.509 191.517 133.438C191.09 136.368 203.533 127.905 200.703 125.29Z" fill="#FA7D44"/>
<path fill-rule="evenodd" clip-rule="evenodd" d="M125.267 148.388C125.267 148.388 115.586 148.175 115.586 149.634C115.586 151.093 118.135 148.444 122.324 150.757C126.513 153.069 126.48 151.194 125.289 148.366L125.267 148.388Z" fill="#FA7D44"/>
<path fill-rule="evenodd" clip-rule="evenodd" d="M156.803 89.9684C156.803 89.9684 152.625 85.939 142.933 83.4361C133.241 80.9332 135.072 81.4158 128.333 79.3619C126.453 78.7553 124.432 78.7377 122.541 79.3114C120.65 79.8852 118.98 81.0228 117.754 82.5719C117.754 82.5719 109.735 91.1244 119.832 95.3221C129.928 99.5198 131.276 105.188 137.913 107.073C144.551 108.959 150.683 109.913 151.244 104.458C151.806 99.0036 156.77 89.9684 156.77 89.9684H156.803Z" fill="#99441D"/>
<path fill-rule="evenodd" clip-rule="evenodd" d="M109.544 75.4672C109.252 74.0194 101.458 63.3455 93.2486 58.104C88.2811 54.9293 83.4829 51.4976 78.8733 47.823C79.1874 53.6523 79.0748 59.4968 78.5364 65.3097C77.6267 72.5715 73.7971 73.7276 75.9646 77.0835C78.1321 80.4394 76.0544 83.3464 79.7493 84.9401C83.2758 88.1502 92.44 92.7968 100.616 91.3265C108.792 89.8562 109.544 75.4672 109.544 75.4672Z" fill="#6B2605"/>
<path fill-rule="evenodd" clip-rule="evenodd" d="M130.13 91.9101C130.186 96.2088 130.388 102.719 129.625 106.77C128.962 110.284 128.378 114.403 125.525 111.866C122.673 109.329 124.537 109.969 121.325 110.822C118.113 111.675 117.159 113.819 114.261 111.72C111.364 109.621 105.962 104.425 106.175 101.024C106.388 97.6231 101.851 93.9978 103.805 89.5756C105.759 85.1534 103.053 83.9637 106.748 81.2363C110.443 78.5089 107.478 72.8072 115.912 77.4314C124.346 82.0556 130.13 91.9101 130.13 91.9101Z" fill="#AD5025"/>
<path fill-rule="evenodd" clip-rule="evenodd" d="M113.171 104.122C113.171 104.122 109.072 110.699 105.22 110.586C101.368 110.474 101.48 109.464 97.7852 110.699C94.0903 111.933 88.2728 106.568 86.7791 103.875C85.2854 101.181 80.3776 99.7667 81.1638 93.1335C81.9499 86.5002 79.5353 81.6291 83.4099 81.7301C87.2845 81.8311 91.6645 79.4853 98.9981 84.5697C106.332 89.6541 113.138 104.122 113.138 104.122H113.171Z" fill="#C75925"/>
<path fill-rule="evenodd" clip-rule="evenodd" d="M88.7453 97.8139C86.4093 97.4211 75.4594 91.3378 69.1702 91.8653C62.881 92.3928 58.2202 91.6071 55.9853 94.5029C53.7504 97.3986 46.7537 98.9924 52.4926 102.36C61.1328 107.135 70.5706 110.3 80.3447 111.698C91.7663 113.202 95.8655 109.453 95.5286 108.331C95.1917 107.208 88.7902 97.769 88.7902 97.769L88.7453 97.8139Z" fill="#99441D"/>
<path fill-rule="evenodd" clip-rule="evenodd" d="M88.7453 97.8139C86.4093 97.4211 75.4594 91.3378 69.1702 91.8653C63.5548 92.3367 59.2984 91.7755 56.8164 93.6499C57.3667 94.7722 60.0845 96.5905 69.1028 99.0822C82.9952 102.932 88.5993 102.18 90.8454 100.968C89.6662 99.1944 88.7228 97.8139 88.7228 97.8139H88.7453Z" fill="#6B2605"/>
<path fill-rule="evenodd" clip-rule="evenodd" d="M86.4424 75.7815C84.0951 75.5346 85.1396 81.6852 75.7507 73.2786C66.3619 64.872 62.521 60.2814 55.8949 61.2242C49.2688 62.167 41.7105 64.8046 41.003 65.9158C40.2954 67.0269 32.6136 68.0259 38.0942 75.3101C43.5748 82.5944 42.1485 83.7055 52.9524 87.9257C63.7563 92.1458 63.06 96.7364 70.2926 98.2516C77.5252 99.7668 90.7999 100.867 91.8219 96.7925C92.8439 92.7182 86.4424 75.7815 86.4424 75.7815Z" fill="#AD5025"/>
<path fill-rule="evenodd" clip-rule="evenodd" d="M56.5461 61.1232L55.8947 61.2017C49.2574 62.1445 41.7103 64.7821 41.0028 65.8933C40.2953 67.0044 34.7922 67.7003 36.4432 72.3807C42.474 71.1797 56.6584 70.293 56.5461 61.1568V61.1232Z" fill="#99441D"/>
<path fill-rule="evenodd" clip-rule="evenodd" d="M186.71 79.3619C186.71 79.3619 174.132 80.4843 166.281 80.1925C158.431 79.9007 150.884 76.9264 148.795 81.3149C146.706 85.7034 138.688 90.3837 145.527 96.9272C152.367 103.471 157.061 103.078 168.438 99.3515C179.814 95.6252 192.752 89.6766 193.145 87.4768C193.538 85.2769 186.721 79.3395 186.721 79.3395L186.71 79.3619Z" fill="#B5582D"/>
<path fill-rule="evenodd" clip-rule="evenodd" d="M168.438 47.6547C168.786 48.5862 175.468 62.7282 171.144 68.6881C166.82 74.6479 165.967 79.7772 160.498 79.6425C155.028 79.5078 150.985 84.0198 146.324 85.9166C141.664 87.8135 132.926 93.4478 130.804 88.1614C128.681 82.875 122.448 79.9792 132.466 72.2236C142.484 64.4679 155.848 58.755 158.296 54.6695C160.745 50.5841 168.404 47.6659 168.404 47.6659L168.438 47.6547Z" fill="#99441D"/>
<path fill-rule="evenodd" clip-rule="evenodd" d="M84.837 43.2437C84.837 43.2437 64.4758 46.319 56.356 51.5829C48.2362 56.8469 39.1506 55.7358 48.8988 61.8303C58.647 67.9248 55.7944 71.2134 67.699 68.1381C79.6035 65.0627 83.6129 63.5587 84.7472 62.6272C85.8815 61.6956 84.837 43.2437 84.837 43.2437Z" fill="#99441D"/>
<path fill-rule="evenodd" clip-rule="evenodd" d="M134.083 48.878C134.083 48.878 120.82 42.256 112.318 42.7049C103.816 43.1539 94.3488 45.2864 101.84 50.5616C109.331 55.8368 106.141 54.894 115.597 62.4589C125.054 70.0237 121.213 68.2728 125.188 73.0205C129.164 77.7681 127.221 85.1646 131.927 77.5998C136.632 70.0349 141.338 56.2745 134.083 48.8893V48.878Z" fill="#99441D"/>
<path fill-rule="evenodd" clip-rule="evenodd" d="M154.804 52.4023C152.749 52.189 147.864 56.2969 135.712 59.3386C123.56 62.3802 111.622 58.2948 107.04 63.8281C102.458 69.3614 94.9221 73.301 103.974 76.1743C113.026 79.0476 120 81.8872 130.928 82.5943C141.855 83.3014 150.233 83.8851 153.153 74.4907C156.073 65.0964 154.86 52.4359 154.86 52.4359L154.804 52.4023Z" fill="#C75925"/>
<path fill-rule="evenodd" clip-rule="evenodd" d="M21.5407 68.9799C17.3854 70.3267 3.36944 69.4513 5.2225 75.9049C7.07557 82.3586 1.0896 85.6135 12.2417 86.938C23.3938 88.2624 24.1575 87.9032 27.9647 90.9898C31.7719 94.0763 31.873 96.1752 37.4883 99.3066C43.1037 102.438 44.1032 107.017 48.3596 104.627C52.616 102.236 57.3442 106.333 55.8281 98.5546C54.3119 90.7765 58.3774 84.0534 54.997 82.3586C51.6165 80.6638 21.5407 68.9799 21.5407 68.9799Z" fill="#C75925"/>
<path fill-rule="evenodd" clip-rule="evenodd" d="M195.605 68.789C195.605 68.789 191.416 64.7709 181.735 62.2568C172.054 59.7426 173.93 60.2365 167.135 58.1825C165.254 57.5792 163.234 57.5632 161.344 58.1367C159.454 58.7103 157.784 59.846 156.556 61.3925C156.556 61.3925 148.537 69.9563 158.634 74.154C168.73 78.3517 170.078 84.0085 176.715 85.9054C183.352 87.8022 189.473 88.745 190.046 83.279C190.619 77.813 195.571 68.789 195.571 68.789H195.605Z" fill="#6B2605"/>
<path fill-rule="evenodd" clip-rule="evenodd" d="M193.292 60.3712C193.64 61.3028 200.322 75.4336 195.987 81.3934C191.652 87.3533 190.821 92.4825 185.34 92.3591C179.86 92.2356 175.828 96.7251 171.178 98.622C166.529 100.519 157.769 106.164 155.658 100.867C153.546 95.5691 147.302 92.6733 157.32 84.9177C167.338 77.162 180.702 71.4491 183.15 67.3636C185.599 63.2782 193.258 60.3712 193.258 60.3712H193.292Z" fill="#C75925"/>
<path fill-rule="evenodd" clip-rule="evenodd" d="M119.742 51.0891C119.742 51.0891 115.564 47.0598 105.872 44.5568C96.1797 42.0539 98.0103 42.5366 91.2719 40.4826C89.3913 39.876 87.3702 39.8584 85.4793 40.4322C83.5885 41.0059 81.9183 42.1435 80.6926 43.6926C80.6926 43.6926 72.6739 52.2452 82.7703 56.4429C92.8667 60.6406 94.2144 66.3086 100.852 68.1942C107.489 70.0798 113.621 71.0338 114.183 65.5791C114.744 60.1243 119.708 51.0891 119.708 51.0891H119.742Z" fill="#C75925"/>
<path fill-rule="evenodd" clip-rule="evenodd" d="M107.511 67.9697C107.511 67.9697 108.095 63.8842 115.182 63.4802C122.269 63.0761 125.671 62.818 130.096 62.6608C134.521 62.5037 142.136 63.0424 145.46 61.3252C148.784 59.6079 148.616 59.8998 150.547 58.9121C152.479 57.9244 154.658 57.2397 151.671 59.7314C148.683 62.2231 143.124 63.1883 142.315 63.7046C140.804 64.2996 139.208 64.6519 137.587 64.7485C137.16 64.6474 135.959 67.1167 139.362 66.9932C142.957 66.6178 146.53 66.0482 150.065 65.2872C151.906 64.9842 152.648 67.532 149.323 67.8799C145.999 68.2278 140.496 67.3973 139.744 68.1268C138.991 68.8564 140.238 67.5881 137.441 71.494C134.645 75.3998 129.097 73.2112 129.018 71.2807C128.94 69.3502 130.557 67.9809 127.311 67.7003C124.065 67.4197 122.594 66.6789 119.641 66.9708C117.066 67.1348 114.505 67.4571 111.97 67.936C110.475 68.817 109.065 69.8352 107.759 70.9777C106.95 71.595 110.342 74.0979 114.328 73.1326C118.315 72.1674 116.956 69.0921 124.167 71.8195C131.377 74.5468 140.316 74.8387 140.687 75.1866C141.058 75.5345 145.482 78.6772 135.15 76.6008C124.818 74.5244 123.852 72.3694 119.281 73.2337C114.71 74.0979 111.15 75.4784 108.129 73.9744C105.108 72.4704 104.322 69.1594 107.466 68.037L107.511 67.9697Z" fill="#99441D"/>
<path fill-rule="evenodd" clip-rule="evenodd" d="M85.3981 42.9294C89.2827 42.7984 93.1678 43.1758 96.9545 44.0518C103.693 45.4885 108.062 47.6098 110.903 48.3169C113.744 49.024 117.518 49.2036 117.035 49.9107C116.552 50.6178 114.856 49.6525 111.352 49.3158C108.234 49.0571 105.178 48.2991 102.3 47.071C100.103 45.8819 97.6737 45.1848 95.18 45.0283C91.4851 44.6579 89.1267 44.2875 88.1272 44.6242C87.1276 44.961 84.758 46.869 87.2062 46.869C89.6545 46.869 89.9353 45.3538 95.3261 47.2731C100.717 49.1923 99.3916 50.9545 105.187 51.6167C110.982 52.2789 115.294 52.0656 115.373 52.3238C115.451 52.5819 114.632 53.0982 108.983 52.6156C103.334 52.133 106.478 54.1084 100.829 51.2463C95.18 48.3842 95.2137 47.5424 92.5184 47.5424C89.823 47.5424 85.4767 47.4639 84.3986 47.4639C83.3204 47.4639 81.6695 47.2394 82.7028 47.8679C83.736 48.4965 85.881 52.7727 88.7561 54.5124C91.6311 56.2521 96.3593 55.545 98.3134 55.7358C100.425 55.9796 102.506 56.4384 104.524 57.1051C108.062 58.0704 109.207 59.0356 108.949 59.4846C108.691 59.9335 102.345 56.9929 99.7622 57.15C97.1791 57.3071 94.8319 56.3307 95.2137 58.0704C95.3904 59.474 96.0261 60.78 97.0219 61.7854C98.0214 62.6721 95.8988 63.6374 92.597 59.7427C89.2952 55.848 86.5436 55.6236 84.5446 53.5135C82.5455 51.4034 82.3658 50.0566 81.3775 48.6873C80.3892 47.318 81.0743 46.1619 82.3321 46.2068C83.59 46.2517 83.1071 42.0877 85.3981 42.9407V42.9294Z" fill="#99441D"/>
<path fill-rule="evenodd" clip-rule="evenodd" d="M136.835 45.9598C136.835 45.9598 137.43 53.3788 154.995 61.5385C172.559 69.6982 176.692 69.7655 176.692 69.7655L174.188 73.1327C174.188 73.1327 155.096 68.6432 145.729 61.4599C136.363 54.2767 133.297 47.0149 133.297 47.0149L136.835 45.9823V45.9598Z" fill="#ED4605"/>
<path fill-rule="evenodd" clip-rule="evenodd" d="M47.1469 58.8785C47.1469 58.8785 41.7562 63.9741 46.3945 82.8638C51.0327 101.753 53.5597 105.02 53.5597 105.02L49.4043 105.154C49.4043 105.154 40.9476 87.3309 40.678 75.5234C40.4085 63.716 44.1259 56.746 44.1259 56.746L47.1469 58.8785Z" fill="#ED4605"/>
<path fill-rule="evenodd" clip-rule="evenodd" d="M66.9351 76.6121C66.9351 76.6121 80.221 77.9477 82.7367 79.5751C85.2523 81.2026 91.1484 84.7156 91.1484 84.7156V90.7653C91.1484 90.7653 82.6019 84.8391 78.9631 84.5697C75.6836 84.1601 72.4373 83.5188 69.2486 82.6505L66.9014 76.6121H66.9351Z" fill="#519A48"/>
<path fill-rule="evenodd" clip-rule="evenodd" d="M113.228 91.5959C113.228 91.5959 116.181 91.0796 117.327 92.4489C118.472 93.8182 118.573 98.3863 115.406 97.4996C112.239 96.613 110.498 94.1886 113.228 91.5959ZM114.598 92.9315C114.598 92.9315 116.709 92.9315 116.754 94.1662C116.799 95.4008 114.699 95.8273 113.856 94.9743C113.014 94.1213 114.598 92.9315 114.598 92.9315Z" fill="#519A48"/>
<path fill-rule="evenodd" clip-rule="evenodd" d="M138.362 96.0741C138.362 96.0741 146.74 82.1903 151.21 79.4741C155.68 76.7579 156.612 75.1193 156.612 75.1193L162.744 75.3101C159.481 78.5098 156.477 81.9626 153.759 85.636C149.267 91.7305 142.338 100.227 142.338 100.227L138.351 96.0741H138.362Z" fill="#358541"/>
<path fill-rule="evenodd" clip-rule="evenodd" d="M106.983 124.28C106.983 124.28 115.373 110.396 119.831 107.668C124.29 104.941 125.267 103.325 125.267 103.325L131.41 103.516C128.147 106.711 125.143 110.16 122.426 113.83C117.933 119.936 111.004 128.421 111.004 128.421L107.017 124.28H106.983Z" fill="#358541"/>
<path fill-rule="evenodd" clip-rule="evenodd" d="M143.551 56.3643C140.129 60.3171 136.254 63.8544 132.006 66.9034C125.829 71.0899 120.775 71.8756 118.888 73.1663C117.002 74.457 117.833 78.7782 117.833 78.7782C117.833 78.7782 118.383 75.5233 125.514 72.5827C132.646 69.642 143.899 62.0659 143.809 60.3824C143.719 58.6988 143.517 56.3755 143.517 56.3755L143.551 56.3643Z" fill="#FBD5B0"/>
<path fill-rule="evenodd" clip-rule="evenodd" d="M63.2853 58.2723C63.2853 58.2723 57.67 60.0008 56.603 71.0226C55.5361 82.0444 59.7027 96.6915 59.7027 96.6915C59.7027 96.6915 56.0191 96.6915 56.0191 94.761C56.0191 92.8305 52.4589 80.72 53.5034 71.6062C54.2898 65.8531 56.5748 60.4073 60.1295 55.8143L63.2741 58.2723H63.2853Z" fill="#FBD5B0"/>
<path d="M61.8586 57.2173C58.2139 60.8078 55.9819 65.5879 55.5694 70.6859C54.7608 79.5527 58.4333 94.9069 58.4445 94.9517L58.0065 95.0528C58.0065 95.0528 54.3116 79.5864 55.1314 70.641C55.5361 65.4098 57.822 60.5019 61.5666 56.8245L61.8586 57.1612V57.2173Z" fill="#E8BC90"/>
<path fill-rule="evenodd" clip-rule="evenodd" d="M11.2198 74.6704C11.2198 74.6704 10.9278 80.5517 20.8782 85.3106C30.8286 90.0695 45.9676 91.0796 45.9676 91.0796C45.9676 91.0796 44.7097 94.5702 42.9128 93.908C41.1159 93.2458 28.56 92.505 20.384 88.442C15.2594 85.74 10.9367 81.7374 7.85059 76.8366L11.2198 74.7041V74.6704Z" fill="#FBD5B0"/>
<path d="M9.73684 75.7141C11.8568 80.3825 15.6 84.1234 20.2712 86.242C28.29 90.0132 43.9119 91.7529 43.9568 91.7529V92.2019C43.9568 92.2019 28.2338 90.451 20.1252 86.6461C15.3547 84.4763 11.5324 80.6524 9.36621 75.8825L9.78178 75.7141H9.73684Z" fill="#E8BC90"/>
<path fill-rule="evenodd" clip-rule="evenodd" d="M89.43 79.5415C89.43 79.5415 95.1802 78.9018 103.311 73.0542C111.442 67.2066 109.87 68.3402 115.777 64.4455C117.447 63.3793 118.755 61.833 119.528 60.01C120.302 58.187 120.506 56.1726 120.112 54.2318C120.112 54.2318 118.742 42.5591 109.05 47.6435C99.358 52.7279 94.1806 50.1352 88.4866 54.0298C82.7927 57.9245 78.1207 62.0436 81.9167 65.9944C85.7127 69.9452 89.43 79.5415 89.43 79.5415Z" fill="#C75925"/>
<path fill-rule="evenodd" clip-rule="evenodd" d="M85.353 48.5413C85.5889 48.4852 88.2393 48.5413 89.3512 48.3168C90.2923 48.1883 91.2501 48.2648 92.1588 48.5413C93.383 48.7545 93.0236 48.8107 94.1916 49.428C95.3596 50.0453 97.7293 50.2473 96.9993 50.685C96.2693 51.1228 93.2932 51.8074 94.113 51.0105C93.4055 50.0341 90.7438 49.7647 89.0816 49.8881C87.4195 50.0116 85.0273 50.483 85.353 48.5862V48.5413ZM80.0746 47.6658C79.8837 48.4066 79.0526 48.8892 80.9394 51.1789C82.8261 53.4685 84.5332 53.6257 83.3203 54.142C82.1074 54.6583 79.4569 53.0196 78.828 51.2575C78.1991 49.4953 79.0414 47.3965 80.1195 47.6658H80.0746Z" fill="#FA7D44"/>
<path fill-rule="evenodd" clip-rule="evenodd" d="M114.452 61.5273C113.398 61.5756 112.365 61.8372 111.416 62.2964C110.466 62.7556 109.619 63.4027 108.927 64.1985C106.175 67.0157 103.896 69.6308 103.143 69.8104C102.391 69.99 105.85 59.0468 114.452 61.4936V61.5273ZM127.244 76.8365C130.456 77.5549 127.424 78.4752 133.859 78.3742C140.294 78.2732 139.216 78.3742 141.721 78.2058C144.225 78.0375 143.181 77.0834 146.864 76.5784C150.548 76.0733 150.806 74.8387 150.481 75.9274C150.025 76.8386 149.334 77.6116 148.479 78.1661C147.624 78.7206 146.636 79.0366 145.618 79.0813C142.967 79.2384 142.754 80.3271 138.149 80.6526C135.323 80.8384 132.486 80.5617 129.749 79.8333C129.749 79.8333 127.334 78.1497 125.492 78.2058C123.65 78.262 122.471 76.0845 127.211 76.8365H127.244Z" fill="#FA7D44"/>
<path fill-rule="evenodd" clip-rule="evenodd" d="M92.3721 84.6932C96.0449 86.6579 99.3261 89.279 102.053 92.4264C107.14 98.0383 108.331 99.6995 109.196 101.282C110.06 102.865 111.734 104.054 110.229 103.617C108.724 103.179 109.735 102.64 107.253 99.9801C104.771 97.32 101.514 95.9058 99.1891 93.0774C97.8726 91.4379 96.2802 90.0402 94.4835 88.9471C94.4835 88.9471 93.4615 90.6868 93.6749 91.1133C93.8882 91.5398 91.5074 93.7845 94.4273 95.1426C97.3473 96.5007 99.2453 97.0956 101.458 98.2404C103.67 99.3852 107.073 101.776 107.073 103.785C106.985 104.713 106.673 105.606 106.165 106.388C105.656 107.17 104.966 107.817 104.153 108.274C103.288 108.488 103.187 108.6 104.265 106.097C105.344 103.594 106.512 102.73 102.906 100.721C99.3014 98.7118 95.4493 97.7241 94.9102 97.3537C94.3712 96.9833 92.5293 96.5456 94.2027 98.4761C95.7879 100.223 96.9214 102.331 97.5045 104.616C97.8864 106.524 97.8302 109.105 97.3922 108.757C96.9542 108.409 98.5153 108.858 96.797 105.278C95.0787 101.697 93.5513 100.059 93.0123 98.8577C92.4732 97.6567 94.1353 96.9609 93.2256 95.4905C92.316 94.0202 91.3951 94.0202 92.0464 91.955C92.6978 89.8899 93.7759 89.7103 93.3941 87.6114C93.0123 85.5126 91.148 84.7045 92.3609 84.7157L92.3721 84.6932Z" fill="#99441D"/>
<path fill-rule="evenodd" clip-rule="evenodd" d="M89.6994 104.571C89.6994 104.571 96.9769 106.815 83.0733 104.761C69.1697 102.707 64.6886 100.609 63.5543 100.014C62.42 99.4188 57.6021 97.7689 57.6021 97.7689C57.6021 97.7689 56.479 98.3301 57.6582 98.7678C60.5469 99.9801 63.4971 101.04 66.4968 101.944C71.2361 103.358 74.4481 104.694 77.4018 104.862C80.3555 105.031 85.2071 105.569 85.1847 105.839C85.1622 106.108 81.4224 106.299 76.391 106.108C72.4162 105.933 68.4711 105.338 64.6212 104.335C61.398 103.572 58.7813 102.73 58.7251 103.111C58.669 103.493 57.8604 105.008 71.0003 106.479C84.1402 107.949 85.0611 107.017 87.195 106.804C89.3288 106.591 92.3835 107.399 92.8103 106.636C93.2371 105.873 92.5295 103.785 89.7219 104.593L89.6994 104.571Z" fill="#7A3312"/>
<path fill-rule="evenodd" clip-rule="evenodd" d="M53.1098 84.9513C53.1098 84.9513 53.166 85.4452 53.5478 92.0223C53.9297 98.5995 55.6592 100.171 53.604 101.102C51.5488 102.034 49.6508 103.493 47.6517 102.674C45.6527 101.854 43.867 99.0372 40.8347 97.5108C37.8024 95.9843 36.6232 96.1864 36.028 95.715C35.4327 95.2436 39.5095 94.7722 40.6662 95.266C41.823 95.7598 47.0565 99.6882 48.8422 100.014C50.6279 100.339 52.4697 99.9351 52.0092 97.6679C51.5488 95.4007 50.6279 93.9191 50.6279 92.2917C50.6279 90.6642 51.9755 89.4633 48.8983 88.8684C45.8211 88.2736 50.8974 91.1132 37.7575 87.5665C24.6175 84.0197 20.8328 82.2913 18.7214 81.2587C16.6101 80.2261 18.9348 79.1037 22.7757 80.922C26.6166 82.7402 38.1842 86.5339 42.407 86.9604C46.6297 87.3869 46.4613 86.9604 48.5165 87.0726C50.5717 87.1849 50.8974 87.6675 50.8974 86.4216C50.8974 85.1758 54.7945 84.6258 49.4374 83.6494C44.0804 82.6729 33.7144 82.2352 26.8862 79.6312C20.0579 77.0273 18.8225 76.5784 18.8225 76.5784C18.8225 76.5784 13.4767 73.8061 11.152 73.7612C8.82721 73.7163 7.78275 73.0541 9.14166 72.8857C11.8241 72.1801 14.6623 72.3532 17.239 73.3796C21.911 75.007 25.808 78.0487 34.3433 79.6312C42.8787 81.2138 48.4154 82.3025 50.0663 82.2688C51.7172 82.2352 53.2671 83.1667 53.0874 84.9513H53.1098Z" fill="#99441D"/>
<path fill-rule="evenodd" clip-rule="evenodd" d="M59.3881 72.2348C61.7091 76.3543 64.5431 80.1633 67.8224 83.5708C73.1233 89.0144 73.2356 87.7012 77.93 89.0144C82.6244 90.3275 82.9052 89.1154 86.8022 91.5061C90.6993 93.8967 89.2954 95.0977 86.8022 93.7508C84.309 92.404 85.6792 92.5499 78.6937 90.9224C71.7082 89.295 70.3717 89.0929 66.3399 84.3565C64.2323 81.9238 62.2817 79.3596 60.4999 76.6794C60.4999 76.6794 56.4007 79.8894 60.3989 84.0983C64.397 88.3073 64.0713 92.2244 70.1246 93.8518C76.178 95.4793 84.2978 94.7273 85.1626 95.3783C86.0273 96.0292 82.9164 95.614 78.3455 96.2537C73.7746 96.8935 68.6085 98.3077 64.8687 93.0437C61.1289 87.7797 59.3993 86.7023 58.1303 83.3239C56.8612 79.9455 56.9398 78.2058 57.9169 76.4661C58.894 74.7265 58.1303 73.6377 57.0521 71.898C55.974 70.1584 56.7264 70.2706 58.557 70.3716C60.3876 70.4726 62.353 71.3593 63.9702 70.6971C65.5875 70.0349 64.0825 69.2941 70.3493 72.2235C76.616 75.153 78.0984 78.5538 75.8411 77.0722C73.5837 75.5907 67.6539 72.5827 65.5987 72.3358C63.5435 72.0889 62.8921 72.9868 59.3207 72.2235L59.3881 72.2348Z" fill="#6B2605"/>
<path fill-rule="evenodd" clip-rule="evenodd" d="M188.429 86.938C188.429 86.938 182.476 92.8193 168.842 95.4232C155.208 98.0272 152.086 97.8139 150.873 96.8374C149.66 95.861 145.572 94.66 152.389 94.8845C159.206 95.109 169.471 96.9497 175.311 92.3816C181.151 87.8135 183.555 86.938 183.555 86.938C183.555 86.938 187.822 82.8526 183.555 84.3229C179.287 85.7932 169.426 89.5532 166.068 89.5532C162.71 89.5532 160.363 87.9482 156.837 90.0021C153.31 92.0561 154.175 87.488 155.467 87.3758C158.053 86.858 160.695 86.6769 163.328 86.837C167.551 87.1625 167.764 87.4431 172.852 85.7146C177.939 83.9862 183.824 81.3486 186.149 82.8077C186.83 83.2601 187.391 83.8717 187.782 84.5894C188.173 85.3072 188.384 86.1095 188.395 86.9268L188.429 86.938Z" fill="#99441D"/>
<path fill-rule="evenodd" clip-rule="evenodd" d="M192.045 66.0954C192.856 67.7435 193.561 69.4417 194.156 71.1798C194.953 73.5143 195.582 76.1519 195.178 77.9141C194.313 81.8199 194.055 82.325 189.944 85.0075C187.152 86.9465 184.199 88.6438 181.117 90.0807C177.445 91.8204 175.782 94.7161 172.256 96.1752C168.73 97.6343 161.025 100.193 160.25 100.081C159.476 99.9689 155.051 96.9272 157.544 96.9272C161.293 97.1547 165.049 96.6005 168.572 95.2997C173.334 93.459 177.332 89.9797 180.365 87.5778C183.397 85.1759 185.666 83.3464 185.879 82.5832C186.092 81.82 185.879 77.1845 184.756 78.2508C183.633 79.317 178.736 80.1925 181.387 76.9264C184.037 73.6602 182.802 74.1092 185.171 71.0563C187.541 68.0034 189.506 68.3402 188.316 70.0798C187.126 71.8195 183.981 75.0857 186.261 76.6009C188.541 78.1161 184.217 83.8066 189.461 80.8547C194.706 77.9028 189.832 64.973 191.988 66.0617L192.045 66.0954Z" fill="#99441D"/>
<path fill-rule="evenodd" clip-rule="evenodd" d="M117.237 60.8987C114.181 63.306 110.825 65.3056 107.253 66.8473C100.919 69.6757 96.1796 70.5063 93.473 71.6174C90.7664 72.7286 87.5993 74.7938 87.5768 73.9408C87.5544 73.0878 89.4861 72.8184 92.5296 71.0675C95.1834 69.4276 98.0845 68.2262 101.121 67.5095C103.599 67.1727 105.974 66.3035 108.084 64.9617C111.296 63.0761 113.419 61.9874 114.036 61.1344C114.654 60.2814 115.485 57.3295 113.486 58.7774C111.487 60.2253 112.161 61.6283 106.669 63.2669C101.177 64.9056 101.233 62.6833 96.1571 65.5117C91.0808 68.3401 87.7004 71.1236 87.487 70.9552C87.2736 70.7869 87.633 69.8329 92.4847 66.9483C97.3363 64.0638 93.6077 64.2659 99.8969 63.2445C106.186 62.2231 106.579 62.9639 108.792 61.3589C111.004 59.7539 114.542 57.2622 115.407 56.6224C116.271 55.9827 117.754 55.197 116.53 55.298C115.305 55.399 111.105 53.1992 107.747 53.491C104.389 53.7828 101.009 57.1275 99.3017 58.1377C97.4507 59.1802 95.4976 60.0301 93.473 60.6742C90.0364 61.9874 88.5539 61.8864 88.4978 61.3701C88.4416 60.8538 95.3036 59.4845 97.3026 57.8458C99.3017 56.2072 101.795 55.6011 100.447 54.4113C99.4861 53.3751 98.2048 52.6913 96.8085 52.4696C95.4833 52.3462 96.6288 50.3147 101.593 51.5156C106.557 52.7166 108.893 51.2799 111.7 51.8186C114.508 52.3574 115.474 53.3226 117.091 53.8502C118.708 54.3777 118.798 55.7133 117.765 56.4316C116.732 57.15 119.539 60.2141 117.181 60.9212L117.237 60.8987Z" fill="#99441D"/>
<path fill-rule="evenodd" clip-rule="evenodd" d="M94.4497 60.0008C94.6856 60.0008 97.336 60.0008 98.4478 59.7764C99.389 59.6478 100.347 59.7244 101.256 60.0008C102.48 60.2141 102.12 60.2702 103.288 60.8987C104.456 61.5273 106.826 61.7069 106.096 62.1446C105.366 62.5823 102.401 63.267 103.21 62.4701C102.502 61.4936 99.8405 61.2242 98.1783 61.3477C96.5162 61.4712 94.124 61.9538 94.4497 60.0457V60.0008ZM89.1713 59.1366C88.9804 59.8662 88.1493 60.3488 90.0361 62.6384C91.9228 64.9281 93.6299 65.0852 92.417 65.6015C91.204 66.1178 88.5536 64.4791 87.9247 62.717C87.2958 60.9549 88.1381 58.856 89.2162 59.1366H89.1713Z" fill="#FA7D44"/>
<path fill-rule="evenodd" clip-rule="evenodd" d="M160.083 90.1928C160.318 90.1367 162.969 90.1928 164.081 89.9684C165.026 89.8403 165.987 89.9169 166.9 90.1928C168.112 90.4061 167.764 90.4622 168.921 91.0907C170.078 91.7193 172.47 91.8989 171.74 92.3366C171.01 92.7743 168.034 93.459 168.842 92.6621C168.135 91.6856 165.473 91.4162 163.811 91.5397C162.149 91.6632 159.757 92.1458 160.083 90.2377V90.1928ZM154.804 89.3286C154.613 90.0582 153.782 90.552 155.669 92.8304C157.556 95.1089 159.274 95.2772 158.05 95.7935C156.826 96.3098 154.186 94.7273 153.557 92.909C152.929 91.0908 153.771 89.048 154.849 89.3286H154.804Z" fill="#FA7D44"/>
<path fill-rule="evenodd" clip-rule="evenodd" d="M68.8333 55.0848C67.7782 55.1355 66.7441 55.3981 65.7928 55.8571C64.8416 56.3161 63.9926 56.9619 63.2966 57.7561C60.5451 60.5845 58.2765 63.1884 57.5128 63.368C56.7491 63.5476 60.2194 52.6156 68.8333 55.0511V55.0848ZM65.6101 89.4858C68.8221 90.2041 65.7898 91.1245 72.225 91.0235C78.6602 90.9225 77.582 91.0235 80.0865 90.8551C82.5909 90.6868 81.5465 89.7327 85.2189 89.2276C88.8914 88.7226 89.1721 87.488 88.8464 88.5767C88.3903 89.4866 87.6988 90.2578 86.8437 90.8105C85.9885 91.3631 85.001 91.6769 83.9835 91.7193C81.3331 91.8877 81.1085 92.9764 76.5151 93.3019C73.689 93.4877 70.8514 93.2109 68.1146 92.4826C68.1146 92.4826 65.7 90.799 63.8581 90.8551C62.0163 90.9112 60.8371 88.7338 65.5764 89.4858H65.6101Z" fill="#FA7D44"/>
<path fill-rule="evenodd" clip-rule="evenodd" d="M123.313 88.5991C124.661 92.6757 125.583 96.8808 126.065 101.147C126.884 108.274 127.098 112.831 125.638 109.139C124.178 105.446 124.335 104.245 121.797 106.209C119.259 108.173 115.788 112.079 117.305 107.623C118.821 103.168 123.908 108.106 122.774 99.8453C121.64 91.5846 119.843 84.9626 123.313 88.6215V88.5991Z" fill="#99441D"/>
<path fill-rule="evenodd" clip-rule="evenodd" d="M131.422 85.5013C133.09 88.4368 134.59 91.4647 135.914 94.5701C137.532 98.5995 134.668 101.753 140.294 103.111C145.921 104.47 145.371 100.665 146.729 101.753C148.088 102.842 149.706 106.692 147.482 106.535C145.258 106.378 139.755 107.186 136.779 103.538C133.803 99.8902 134.612 97.4546 133.477 95.1201C132.343 92.7855 132.669 88.6552 130.108 86.8594C127.547 85.0635 123.246 82.8412 128.817 83.6044C133.139 84.0704 137.485 84.2803 141.833 84.233C142.956 84.3003 141.631 88.8684 140.553 89.0817C139.474 89.2949 135.678 85.7145 131.355 85.5013H131.422Z" fill="#6B2605"/>
<path fill-rule="evenodd" clip-rule="evenodd" d="M121.314 48.0475C121.314 48.0475 133.32 50.8759 133.32 54.0298C133.32 57.1837 129.951 58.5193 127.48 58.3734C125.009 58.2275 121.64 59.7876 121.528 58.2612C121.416 56.7347 123.909 57.0714 125.964 56.095C128.019 55.1185 128.446 52.7278 121.314 48.0475Z" fill="#6B2605"/>
<path fill-rule="evenodd" clip-rule="evenodd" d="M74.6388 50.8759C74.3131 51.2575 77.8844 58.3173 73.8751 58.9683C69.8657 59.6193 68.956 60.3937 67.395 62.4477C65.8339 64.5016 66.1484 64.6924 62.8465 65.3883C59.5447 66.0842 55.5466 65.3883 58.9045 64.4118C62.2625 63.4354 64.5199 61.9651 68.2036 59.1367C71.8872 56.3083 73.9874 56.1511 73.2349 54.6471C72.4825 53.1431 66.9569 50.1576 65.9799 51.4371C65.0028 52.7166 64.6547 50.1576 66.5077 49.574C68.3608 48.9903 74.6388 50.8423 74.6388 50.8423V50.8759Z" fill="#6B2605"/>
<path fill-rule="evenodd" clip-rule="evenodd" d="M161.868 83.2678C161.868 83.2678 164.799 87.5216 164.193 90.4398C163.586 93.358 162.901 91.854 160.194 92.4489C157.488 93.0438 154.579 97.4547 154.837 94.3569C155.096 91.2592 156.241 90.7204 159.004 88.745C161.767 86.7696 158.353 83.7504 161.868 83.3127V83.2678Z" fill="#FA7D44"/>
<path fill-rule="evenodd" clip-rule="evenodd" d="M194.426 62.9415C192.809 66.5331 185.666 68.1606 185.228 71.09C184.79 74.0194 197.256 65.5567 194.426 62.9415Z" fill="#FA7D44"/>
<path fill-rule="evenodd" clip-rule="evenodd" d="M119.034 86.04C119.034 86.04 109.354 85.8268 109.354 87.2859C109.354 88.745 111.903 86.0961 116.092 88.4082C120.281 90.7204 120.259 88.846 119.068 86.0176L119.034 86.04Z" fill="#FA7D44"/>
<path fill-rule="evenodd" clip-rule="evenodd" d="M176.839 97.7241C176.839 97.7241 181.331 96.9385 183.083 99.0261C184.835 101.114 185.003 108.084 180.163 106.726C175.323 105.368 172.672 101.686 176.794 97.7466L176.839 97.7241ZM178.916 99.7668C178.916 99.7668 182.14 99.7669 182.218 101.641C182.297 103.516 179.085 104.178 177.793 102.876C176.502 101.574 178.916 99.7668 178.916 99.7668Z" fill="#519A48"/>
<path fill-rule="evenodd" clip-rule="evenodd" d="M154.467 116.356C154.467 116.356 158.959 115.559 160.722 117.658C162.485 119.756 162.631 126.704 157.791 125.346C152.95 123.988 150.3 120.306 154.422 116.367L154.467 116.356ZM156.556 118.387C156.556 118.387 159.779 118.387 159.857 120.273C159.936 122.158 156.713 122.854 155.365 121.496C154.017 120.138 156.488 118.387 156.488 118.387H156.556Z" fill="#519A48"/>
<path fill-rule="evenodd" clip-rule="evenodd" d="M100.144 130.049C100.313 130.621 99.538 131.339 98.4261 131.665C97.3143 131.99 96.2923 131.777 96.1238 131.205C95.9554 130.632 96.7303 129.914 97.8421 129.589C98.954 129.263 99.9872 129.476 100.144 130.049ZM131.321 116.917C131.489 117.489 130.714 118.219 129.614 118.533C128.513 118.847 127.469 118.645 127.3 118.073C127.132 117.5 127.907 116.782 129.019 116.468C130.13 116.154 131.164 116.344 131.321 116.917ZM143.237 97.2415C143.641 96.8038 144.652 97.0956 145.483 97.8925C146.314 98.6894 146.673 99.677 146.269 100.137C145.865 100.597 144.854 100.283 144.023 99.4862C143.192 98.6894 142.832 97.7017 143.237 97.2415ZM118.63 91.0347C119.034 90.597 120.045 90.8888 120.876 91.6857C121.707 92.4826 122.067 93.4703 121.662 93.9305C121.258 94.3906 120.247 94.0764 119.416 93.2795C118.585 92.4826 118.226 91.4949 118.63 91.0347ZM111.813 79.8109C111.97 79.2385 111.207 78.5202 110.095 78.2059C108.983 77.8916 107.95 78.0824 107.793 78.6549C107.635 79.2273 108.421 79.9119 109.545 80.2037C110.668 80.4956 111.69 80.316 111.858 79.7436L111.813 79.8109ZM91.8 77.5661C92.2043 78.0039 93.2151 77.7121 94.0462 76.9152C94.8772 76.1183 95.2478 75.1306 94.8435 74.6704C94.4392 74.2102 93.4285 74.5357 92.5974 75.3214C91.7663 76.1071 91.3957 77.1172 91.8 77.5661ZM102.436 96.7364C103.008 96.5905 103.244 95.614 102.975 94.4916C102.705 93.3693 102.009 92.5724 101.436 92.7071C100.863 92.8418 100.616 93.8295 100.897 95.008C101.178 96.1865 101.863 96.9272 102.436 96.7925V96.7364ZM137.15 131.025C137.307 131.598 136.543 132.316 135.431 132.63C134.319 132.944 133.297 132.754 133.129 132.181C132.961 131.609 133.735 130.89 134.847 130.565C135.959 130.239 136.981 130.453 137.15 131.025ZM107.95 109.487C108.354 109.049 109.365 109.341 110.196 110.138C111.027 110.935 111.398 111.922 110.993 112.382C110.589 112.843 109.578 112.528 108.747 111.731C107.916 110.935 107.545 109.947 107.95 109.487ZM97.5052 111.395C98.078 111.541 98.3251 112.573 98.0443 113.696C97.7635 114.818 97.0785 115.615 96.5057 115.48C95.9329 115.345 95.6858 114.302 95.9666 113.179C96.2474 112.057 96.9324 111.26 97.5052 111.395Z" fill="#FCE38F"/>
<path fill-rule="evenodd" clip-rule="evenodd" d="M73.8647 134.516C74.0219 135.088 73.2582 135.818 72.1464 136.132C71.0345 136.446 70.0013 136.244 69.8441 135.672C69.6868 135.099 70.4505 134.381 71.5624 134.067C72.6742 133.752 73.6962 133.955 73.8647 134.516ZM105.052 121.395C105.21 121.967 104.446 122.686 103.334 123.011C102.222 123.337 101.189 123.124 101.088 122.551C100.987 121.979 101.694 121.26 102.806 120.935C103.918 120.609 104.94 120.823 105.108 121.395H105.052ZM116.979 101.72C117.384 101.282 118.394 101.574 119.225 102.371C120.057 103.168 120.427 104.155 120.023 104.615C119.619 105.076 118.608 104.75 117.777 103.964C116.946 103.179 116.575 102.169 116.979 101.72ZM92.3728 95.513C92.7771 95.0752 93.7879 95.367 94.619 96.1639C95.4501 96.9608 95.8207 97.9485 95.4164 98.4087C95.0121 98.8689 94.0013 98.5434 93.1702 97.7577C92.3392 96.9721 91.9685 95.9619 92.3728 95.513ZM85.5558 84.2891C85.7243 83.7167 84.9493 82.9984 83.8375 82.6729C82.7257 82.3474 81.7037 82.5607 81.5352 83.1331C81.3668 83.7055 82.1417 84.4238 83.2535 84.7493C84.3654 85.0748 85.3986 84.8616 85.5558 84.2891ZM65.5427 82.0444C65.947 82.4821 66.9578 82.1903 67.7889 81.3934C68.6199 80.5965 68.9793 79.6088 68.575 79.1486C68.1707 78.6885 67.1599 79.0027 66.3289 79.7996C65.4978 80.5965 65.1384 81.5842 65.5315 82.0444H65.5427ZM76.1782 101.203C76.751 101.069 76.998 100.081 76.7172 98.9587C76.4365 97.8363 75.7514 97.0282 75.1786 97.1741C74.6059 97.32 74.3701 98.2965 74.6396 99.4188C74.9091 100.541 75.6054 101.349 76.1782 101.203ZM110.892 135.425C111.05 135.997 110.286 136.727 109.174 137.041C108.062 137.355 107.029 137.153 106.872 136.581C106.714 136.008 107.478 135.29 108.579 134.976C109.679 134.662 110.724 134.852 110.892 135.425ZM81.6925 113.898C82.0968 113.46 83.1075 113.752 83.9386 114.549C84.7697 115.345 85.129 116.333 84.7247 116.793C84.3204 117.253 83.3097 116.928 82.4786 116.142C81.6475 115.357 81.2882 114.347 81.6925 113.898ZM71.2479 115.806C71.8207 115.952 72.0565 116.928 71.787 118.106C71.5175 119.285 70.8212 120.026 70.2484 119.88C69.6756 119.734 69.4285 118.757 69.7093 117.635C69.9901 116.513 70.6639 115.705 71.2479 115.85V115.806Z" fill="#FCE38F"/>
<path fill-rule="evenodd" clip-rule="evenodd" d="M132.006 121.429C132.163 122.001 131.399 122.719 130.288 123.045C129.176 123.37 128.154 123.157 127.985 122.585C127.817 122.012 128.592 121.294 129.704 120.969C130.815 120.643 131.837 120.856 132.006 121.429ZM163.182 108.263C163.351 108.836 162.576 109.565 161.464 109.879C160.352 110.194 159.33 109.992 159.162 109.419C158.993 108.847 159.768 108.129 160.88 107.814C161.992 107.5 163.025 107.691 163.182 108.263ZM175.121 88.5878C175.525 88.1501 176.536 88.4419 177.367 89.2388C178.198 90.0357 178.557 91.0234 178.153 91.4836C177.749 91.9438 176.738 91.6295 175.907 90.8326C175.076 90.0357 174.716 89.048 175.121 88.5878ZM150.514 82.4484C150.918 82.0107 151.929 82.3025 152.76 83.0994C153.591 83.8963 153.951 84.884 153.546 85.3442C153.142 85.8043 152.131 85.4901 151.3 84.6932C150.469 83.8963 150.11 82.9086 150.514 82.4484ZM143.686 71.2246C143.854 70.6522 143.079 69.9339 141.979 69.6196C140.878 69.3053 139.834 69.4961 139.665 70.0686C139.497 70.641 140.272 71.3705 141.384 71.6848C142.495 71.9991 143.529 71.797 143.63 71.2246H143.686ZM123.684 68.9798C124.088 69.4176 125.099 69.1258 125.93 68.3289C126.761 67.532 127.121 66.5443 126.716 66.0841C126.312 65.6239 125.301 65.9494 124.47 66.7351C123.639 67.5207 123.28 68.5309 123.684 68.9798ZM134.308 88.0603C134.892 87.9144 135.128 86.9379 134.859 85.8156C134.589 84.6932 133.893 83.8963 133.309 84.031C132.725 84.1657 132.5 85.1534 132.77 86.3319C133.039 87.5104 133.735 88.2511 134.308 88.1164V88.0603ZM169.067 122.338C169.224 122.91 168.461 123.629 167.349 123.943C166.237 124.257 165.204 124.066 165.047 123.494C164.889 122.921 165.653 122.192 166.765 121.878C167.877 121.563 168.899 121.765 169.067 122.338ZM139.867 100.799C140.272 100.362 141.282 100.653 142.114 101.45C142.945 102.247 143.315 103.235 142.911 103.695C142.507 104.155 141.496 103.841 140.665 103.044C139.834 102.247 139.463 101.26 139.867 100.799ZM129.423 102.707C129.996 102.853 130.231 103.83 129.962 104.952C129.692 106.075 128.996 106.871 128.423 106.737C127.851 106.602 127.603 105.558 127.884 104.436C128.165 103.313 128.85 102.517 129.423 102.651V102.707Z" fill="#FCE38F"/>
<path fill-rule="evenodd" clip-rule="evenodd" d="M57.4901 83.0994C57.6586 82.527 56.8837 81.8087 55.7718 81.4832C54.66 81.1577 53.638 81.3709 53.4695 81.9433C53.3011 82.5158 54.076 83.2341 55.1878 83.5596C56.2997 83.8851 57.3329 83.6718 57.434 83.0994H57.4901ZM88.6665 96.2312C88.835 95.6588 88.0601 94.9293 86.9595 94.615C85.8589 94.3008 84.8144 94.5028 84.6459 95.0752C84.4775 95.6476 85.2524 96.3659 86.3642 96.6802C87.4761 96.9945 88.5093 96.8037 88.6665 96.2312ZM100.56 115.907C100.964 116.344 101.975 116.052 102.806 115.256C103.637 114.459 104.008 113.471 103.603 113.011C103.199 112.551 102.188 112.865 101.357 113.662C100.526 114.459 100.167 115.446 100.571 115.907H100.56ZM75.9534 122.113C76.3577 122.551 77.3685 122.259 78.1995 121.462C79.0306 120.665 79.39 119.678 78.9857 119.218C78.5814 118.757 77.5706 119.072 76.7396 119.869C75.9085 120.665 75.5491 121.653 75.9534 122.113ZM69.1363 133.337C69.2936 133.898 68.5299 134.628 67.4181 134.942C66.3062 135.256 65.273 135.054 65.1719 134.493C65.0708 133.932 65.7447 133.236 66.8678 132.956C67.9908 132.675 69.0128 132.843 69.1813 133.416L69.1363 133.337ZM49.1233 135.582C49.5276 135.144 50.5383 135.436 51.3694 136.233C52.2005 137.03 52.5711 138.017 52.1668 138.478C51.7625 138.938 50.7517 138.612 49.9206 137.827C49.0896 137.041 48.719 136.031 49.1233 135.582ZM59.7587 116.412C60.3315 116.558 60.5673 117.59 60.2978 118.713C60.0283 119.835 59.332 120.632 58.7592 120.497C58.1864 120.362 57.9393 119.375 58.2201 118.196C58.5009 117.018 59.186 116.277 59.7587 116.412ZM94.4728 82.1229C94.63 81.5505 93.8663 80.8322 92.7545 80.5179C91.6427 80.2036 90.6207 80.3945 90.5084 80.9669C90.3961 81.5393 91.1148 82.2576 92.2267 82.5831C93.3385 82.9086 94.3717 82.6953 94.529 82.1229H94.4728ZM65.273 103.661C65.6773 104.099 66.6881 103.807 67.5191 103.01C68.3502 102.214 68.7208 101.226 68.3165 100.766C67.9122 100.306 66.9015 100.62 66.0704 101.417C65.2393 102.214 64.8687 103.201 65.273 103.661ZM54.8285 101.753C55.4012 101.607 55.6483 100.631 55.3675 99.5086C55.0868 98.3862 54.4017 97.5893 53.8289 97.724C53.2562 97.8587 53.0091 98.8464 53.2899 99.9688C53.5706 101.091 54.2557 101.888 54.8285 101.753Z" fill="#FCE38F"/>
</g>
</g>
<defs>
<clipPath id="clip0_76_15162">
<rect width="215" height="215" fill="white"/>
</clipPath>
<clipPath id="clip1_76_15162">
<rect width="216" height="135" fill="white" transform="translate(0 40)"/>
</clipPath>
</defs>
</svg>
