<svg width="215" height="215" viewBox="0 0 215 215" fill="none" xmlns="http://www.w3.org/2000/svg">
<g clip-path="url(#clip0_76_13552)">
<path fill-rule="evenodd" clip-rule="evenodd" d="M105.419 15.0236C120.528 14.7356 135.476 18.1345 148.942 24.92C140.955 28.9304 126.674 32.9055 115.874 26.2175C107.529 21.0275 105.538 17.3709 105.419 15.0236Z" fill="#F7C35B"/>
<path fill-rule="evenodd" clip-rule="evenodd" d="M18.0979 108.102C14.7004 93.7937 16.1428 87.4124 17.4661 82.6588C21.3642 82.8711 27.587 83.5317 27.587 83.5317L25.6677 96.141C24.9644 96.0938 18.0979 108.102 18.0979 108.102Z" fill="#BF9A76"/>
<path fill-rule="evenodd" clip-rule="evenodd" d="M103.584 15.0707H103.667C105.893 14.9993 108.086 15.615 109.942 16.8325C111.799 18.0499 113.226 19.8087 114.026 21.8649C114.766 23.705 115.683 25.84 116.804 28.3289C129.297 55.7415 136.366 72.8685 153.02 90.6089C169.673 108.349 184.467 111.357 187.829 121.36C191.191 131.362 188.83 129.121 178.817 147.31C168.803 165.498 96.3358 185.161 96.3358 185.161C96.3358 185.161 86.1672 190.127 75.1761 186.07C64.1849 182.012 62.1465 184.689 55.5065 180.172C48.8665 175.654 42.2981 170.606 44.3485 165.321C46.3989 160.037 79.8848 147.911 78.5855 126.845C77.2861 105.778 51.2865 98.1108 53.3369 75.8056C55.3873 53.5004 64.2326 45.5974 72.0766 30.7233L72.1481 30.6054C74.1902 26.7712 77.1098 23.4625 80.674 20.9435C84.2382 18.4244 88.3483 16.7647 92.676 16.0969C96.2876 15.5347 99.9301 15.1881 103.584 15.059V15.0707Z" fill="#452508"/>
<path fill-rule="evenodd" clip-rule="evenodd" d="M130.477 121.43C130.477 121.43 130.942 140.433 120.821 145.021C110.7 149.61 104.287 137.437 100.829 128.767C97.3724 120.098 113.466 103.832 116.72 103.749C119.975 103.666 130.477 121.442 130.477 121.442V121.43Z" fill="#BF8B24"/>
<path fill-rule="evenodd" clip-rule="evenodd" d="M93.7602 66.6641C93.7602 66.6641 84.5811 78.0467 83.7585 82.7885C82.936 87.5303 80.516 96.1882 85.8805 102.935C91.2449 109.682 94.9761 112.655 98.4332 111.664C101.89 110.673 105.943 109.305 110.831 103.254C115.719 97.2025 117.602 87.3769 119.569 83.3311C121.536 79.2852 133.421 71.5356 133.612 67.5724C133.803 63.6091 132.575 61.0141 129.094 61.1438C125.613 61.2736 93.7602 66.6641 93.7602 66.6641Z" fill="#C44918"/>
<path fill-rule="evenodd" clip-rule="evenodd" d="M42.4879 40.95C50.1823 33.5436 59.1163 27.5133 68.8928 23.1271C73.1129 26.536 72.3857 38.8858 73.2917 42.8491C74.3288 47.4021 72.5287 52.4388 66.461 57.0036C60.3932 61.5685 52.4538 65.8384 47.3874 58.1832C43.9661 52.9696 42.8336 45.4205 42.4521 40.9264L42.4879 40.95Z" fill="#C44918"/>
<path fill-rule="evenodd" clip-rule="evenodd" d="M34.1914 164.956C26.0973 154.827 20.2448 143.129 17.0133 130.619C16.5837 128.923 16.5922 127.147 17.038 125.454C17.4838 123.762 18.3526 122.208 19.5644 120.935C23.8798 116.288 27.9091 117.774 34.9663 119.248C42.0235 120.723 48.1986 122.858 50.4635 132.223C52.7285 141.589 51.0715 145.352 47.6264 149.822C44.1812 154.293 39.6155 155.826 34.704 164.319C34.5648 164.566 34.4011 164.799 34.2153 165.015L34.1914 164.956Z" fill="#C44918"/>
<path fill-rule="evenodd" clip-rule="evenodd" d="M197.414 85.8081C198.856 91.7981 199.698 97.9141 199.929 104.067C200.396 116.391 198.369 128.683 193.968 140.221C191.358 139.041 188.008 132.896 183.24 128.567C176.278 122.244 176.325 122.48 177.422 116.252C178.519 110.024 178.531 89.2878 185.659 86.4097C189.438 84.8881 194.004 85.2301 197.425 85.8081H197.414Z" fill="#E6AC37"/>
<path fill-rule="evenodd" clip-rule="evenodd" d="M183.991 129.322L183.18 128.567C176.218 122.244 176.266 122.48 177.363 116.252C178.459 110.024 178.471 89.2878 185.6 86.4097C188.192 85.476 190.959 85.1176 193.706 85.3599C193.527 86.2681 193.313 87.5067 193.062 89.1816C191.763 97.7216 187.281 109.741 188.83 112.773C190.189 115.415 187.388 124.202 183.991 129.369V129.322Z" fill="#BF8B24"/>
<path fill-rule="evenodd" clip-rule="evenodd" d="M110.485 199.941C95.738 200.501 81.0702 197.552 67.7129 191.342C68.5354 189.596 71.0269 187.509 76.9874 185.291C92.4846 179.499 91.5667 177.978 101.282 166.112C110.998 154.245 127.091 151.179 146.308 151.709C165.524 152.24 165.703 147.227 179.555 144.243C185.242 143.004 146.391 198.573 110.485 199.941Z" fill="#522C0B"/>
<path fill-rule="evenodd" clip-rule="evenodd" d="M126.078 16.9227C136.507 19.0889 146.478 23.0279 155.547 28.5648C157.184 29.7443 158.901 30.971 160.697 32.245C162.39 33.4245 163.927 34.4979 165.334 35.4297C170.746 39.7641 175.648 44.6861 179.949 50.1033C181.305 51.8539 182.217 53.9006 182.609 56.072C183.001 58.2433 182.862 60.476 182.202 62.5829C180.748 67.6078 176.242 73.2578 170.532 80.4176C164.821 87.5775 160.291 73.7886 150.087 68.0442C139.883 62.2998 124.576 70.7925 119.844 70.4033C115.111 70.014 109.961 70.7336 105.765 67.5842C101.569 64.4348 99.8998 58.9499 99.8045 52.1557C99.7091 45.3615 103.56 47.3432 106.587 43.7573C109.615 40.1715 109.127 34.1087 116.851 24.8846C119.49 21.7582 122.593 19.0459 126.054 16.8401L126.078 16.9227Z" fill="#522C0B"/>
<path fill-rule="evenodd" clip-rule="evenodd" d="M132.861 18.6212L134.542 19.1284C134.209 19.5766 134.066 19.7654 133.35 19.4823C133.26 19.4592 133.175 19.4183 133.101 19.3621C133.028 19.3058 132.966 19.2353 132.92 19.1549C132.875 19.0745 132.846 18.9857 132.836 18.894C132.826 18.8023 132.834 18.7095 132.861 18.6212ZM147.834 24.3774C148.824 24.8492 149.801 25.3446 150.755 25.8636L149.479 26.9606C146.428 29.5792 148.359 26.9606 147.369 26.9606C146.38 26.9606 146.404 27.916 145.271 29.3197C144.139 30.7234 142.029 28.9187 140.038 27.8453C138.047 26.7719 141.373 30.4049 142.78 32.1978C144.186 33.9907 142.47 33.2122 141.039 31.5726C140.011 30.1934 138.616 29.1235 137.01 28.4822C135.818 28.1637 135.734 30.4402 134.137 29.6617C132.909 29.4178 131.648 29.378 130.406 29.5438C128.907 29.6331 127.414 29.8064 125.935 30.0628C124.553 30.2162 127.807 32.1152 127.688 33.342C127.569 34.5687 125.113 31.1244 124.564 30.9829C124.016 30.8413 124.159 31.6316 124.827 32.9291C125.732 34.2337 126.784 35.4327 127.962 36.5031C127.783 37.6827 122.776 32.3393 121.56 32.8465C120.344 33.3537 124.326 36.916 125.47 38.9684C126.615 41.0208 122.085 36.916 121.453 36.279C120.821 35.6421 122.001 34.4979 119.26 33.5897C116.518 32.6814 119.653 31.9619 119.462 30.3459C119.272 28.7299 121.525 30.7941 122.013 30.169C122.502 29.5438 122.323 28.7535 123.277 29.1899C124.231 29.6264 125.029 28.4232 125.029 28.4232C125.029 28.4232 125.566 28.034 128.01 28.6592C130.453 29.2843 133.231 28.1991 133.291 27.4796C133.35 26.7601 131.276 26.9842 130.275 27.7037C129.273 28.4233 127.89 27.2673 127.89 27.2673C127.89 27.2673 126.424 25.8046 124.314 23.7286C122.204 21.6526 124.803 21.9947 124.803 21.9947C126.003 22.9567 126.979 24.1638 127.664 25.5333C128.224 27.1965 131.681 25.9934 132.575 24.9672C133.469 23.941 133.66 24.0235 134.292 26.878C134.924 29.7325 139.156 26.359 140.181 26.5832C141.206 26.8073 140.455 24.2241 143.459 26.8073C146.463 29.3905 144.735 26.3708 146.165 25.3682C146.701 24.9983 147.258 24.6596 147.834 24.3538V24.3774ZM126.305 42.5188C130.382 42.6368 129.321 43.0024 132.265 40.8911C135.21 38.7797 136.819 41.0916 139.06 40.3956C141.302 39.6997 141.015 40.8203 143.197 38.6499C145.378 36.4796 143.483 35.9959 147.715 34.8518C151.947 33.7076 155.642 34.7692 154.772 33.6722C153.902 32.5753 152.71 32.9291 150.54 32.6814C145.939 33.3537 143.125 38.237 139.883 38.5791C136.64 38.9212 133.314 37.5883 131.204 39.1335C129.094 40.6787 129.416 42.0116 128.069 41.6813C126.722 41.3511 121.608 42.1178 126.281 42.5306L126.305 42.5188Z" fill="#452508"/>
<path fill-rule="evenodd" clip-rule="evenodd" d="M24.7499 85.4779C21.0632 91.1532 18.8254 97.6299 18.2292 104.351C17.3828 115.179 21.0068 118.635 20.6134 122.869C20.22 127.104 16.3457 128.366 20.0531 132.577C23.7605 136.788 27.9567 139.1 32.7847 138.298C37.6127 137.496 41.1293 133.651 44.8487 130.784C48.568 127.918 55.5775 112.525 66.3064 109.399C77.0353 106.273 87.7641 111.912 88.2767 103.666C88.7893 95.4215 89.0516 88.9339 87.4303 84.8527C85.8091 80.7715 86.8462 71.6654 80.5281 72.6444C74.21 73.6234 73.6855 76.4897 54.9934 80.0402C36.3013 83.5906 24.7619 85.5015 24.7619 85.5015L24.7499 85.4779Z" fill="#522C0B"/>
<path fill-rule="evenodd" clip-rule="evenodd" d="M52.6327 111.994C52.9188 110.095 53.7176 108.455 54.7428 108.904C55.768 109.352 52.7043 113.999 50.63 116.406C48.5558 118.812 47.2326 119.767 45.8616 119.814C44.4907 119.862 42.2019 119.814 42.7145 118.375C43.2271 116.936 43.5728 118.234 46.1358 117.467C48.6988 116.7 52.6924 111.994 52.6924 111.994H52.6327ZM20.8515 106.332C23.5337 102.9 22.5442 103.49 26.1086 102.687C29.673 101.885 29.0531 98.7949 31.0916 97.4974C33.1301 96.1999 32.0929 95.563 35.1805 95.4568C38.268 95.3506 37.3382 97.2615 41.0456 94.6783C44.753 92.0951 46.4815 88.238 46.6842 89.795C46.8868 91.352 45.8378 92.0479 44.5503 94.0296C40.974 97.2851 35.4189 95.8107 32.9989 98.2405C30.579 100.67 29.2677 104.398 26.7047 104.929C24.1417 105.459 23.3668 104.162 22.6992 105.53C22.0316 106.898 17.9308 110.484 20.8515 106.332ZM26.4424 109.623C26.4289 111.425 26.6006 113.223 26.955 114.99C27.4557 116.535 27.9921 117.349 28.2305 116.712C28.469 116.075 27.5868 111.44 28.5643 112.289C29.5419 113.138 28.7551 117.278 29.7564 116.252C30.9562 115.23 32.0984 114.143 33.1777 112.997C34.1322 112.071 34.9364 111.004 35.5619 109.835C36.0626 107.925 37.7792 109.647 38.3753 108.396C38.9968 106.563 39.1484 104.605 38.8164 102.699C38.5779 100.258 39.1501 98.2405 39.5316 100.788C39.9131 103.336 40.3422 108.88 40.8906 106.415C41.439 103.95 41.5463 100.824 43.3463 100.977C45.1464 101.13 45.8259 101.885 46.5173 101.083C47.2087 100.281 43.9543 99.8447 47.9597 99.3611C51.9652 98.8775 51.9056 99.1016 52.6089 96.6246C53.3122 94.1475 52.7996 92.272 53.7414 94.2655C54.6832 96.2589 55.8872 97.8631 57.0912 95.3743C58.2952 92.8854 60.3337 88.0139 59.8092 91.3756C59.2846 94.7373 55.0408 98.7831 54.4567 98.2523C53.8725 97.7216 53.1692 98.2523 52.5135 99.9981C51.8579 101.744 48.6035 102.923 46.8868 103.313C45.1702 103.702 44.0973 99.9745 43.9781 104.433C43.8589 108.892 42.4642 106.261 41.9277 107.288C41.3913 108.314 36.0388 109.175 37.7196 111.9C39.4005 114.624 39.3409 114.837 37.97 114.778C36.5991 114.719 33.3685 116.618 34.2268 118.375C34.7778 120.016 35.0123 121.745 34.9182 123.471C34.9182 123.471 33.3566 125.83 33.2969 122.527C33.2373 119.225 33.1658 116.854 33.1658 116.854C33.1658 116.854 33.1658 114.849 34.4414 114.577C35.7169 114.306 37.2547 112.808 36.6587 112.218C36.0626 111.628 33.3804 113.126 32.1764 115.615C30.9724 118.104 30.3406 118.246 30.3406 118.246C30.3406 118.246 28.8862 117.963 28.5762 119.095C28.2663 120.227 27.8014 119.449 27.0027 119.366C26.204 119.284 26.1921 122.74 25.1311 121.336C24.0701 119.932 21.4237 121.914 22.6039 118.977C23.784 116.04 22.1389 116.099 22.1032 115.096C22.0674 114.094 22.1032 107.193 22.8303 109.729C23.5575 112.265 23.5098 118.269 24.7139 117.679C25.9179 117.09 25.3934 108.856 26.347 109.6L26.4424 109.623Z" fill="#452508"/>
<path fill-rule="evenodd" clip-rule="evenodd" d="M16.751 85.3953C19.0238 76.166 22.7274 67.3407 27.7302 59.233C30.1333 57.672 32.8503 56.6457 35.6934 56.2252C41.5466 55.7534 51.7986 58.4427 55.4941 58.714C59.1896 58.9853 64.6017 58.8792 65.1024 62.3352C65.6031 65.7913 66.2945 78.5422 61.4546 81.5736C56.6147 84.6051 47.7097 80.7126 37.8511 83.8148C29.7567 86.3508 20.3273 86.3508 16.751 85.3953Z" fill="#F7C35B"/>
<path fill-rule="evenodd" clip-rule="evenodd" d="M16.751 85.3953C17.5934 81.961 18.6363 78.5779 19.8743 75.263C22.8353 73.6306 26.2062 72.8694 29.5899 73.0691C39.4604 73.5763 36.2656 74.9328 45.5043 75.2159C54.7431 75.4989 61.0016 77.2447 61.0969 76.8672C61.1923 76.4898 62.6944 72.7742 61.1804 70.8515C59.6664 68.9289 58.6532 61.5803 59.9883 59.4807C60.1314 59.233 60.4532 59.1504 60.8824 59.1976L61.5619 59.3391C62.4314 59.6208 63.2701 59.9883 64.0653 60.4361C64.6563 60.9091 65.0406 61.5892 65.1382 62.3352C65.6388 65.7913 66.3302 78.5422 61.4903 81.5736C56.6504 84.605 47.7455 80.7125 37.8868 83.8147C29.7925 86.3507 20.363 86.3507 16.7867 85.3953H16.751Z" fill="#E6AC37"/>
<path fill-rule="evenodd" clip-rule="evenodd" d="M171.354 174.274C162.094 183.129 151.071 189.978 138.989 194.385C126.925 197.806 121.048 185.633 122.299 178.155C123.551 170.676 127.258 140.409 127.258 140.409C127.258 140.409 129.202 135.691 142.362 137.496C155.523 139.301 165.501 139.501 167.802 147.605C169.907 156.363 171.105 165.311 171.378 174.309L171.354 174.274Z" fill="#E6551C"/>
<path fill-rule="evenodd" clip-rule="evenodd" d="M171.354 174.274C162.094 183.129 151.071 189.978 138.989 194.385C126.925 197.806 121.048 185.633 122.299 178.155C123.551 170.677 127.258 140.409 127.258 140.409C127.258 140.409 128.45 137.461 135.603 137.13C132.17 148.419 127.878 168.506 135.305 172.753C142.458 176.846 160.339 172.092 171.199 169.898C171.306 171.467 171.366 172.953 171.378 174.31L171.354 174.274Z" fill="#C44918"/>
<path fill-rule="evenodd" clip-rule="evenodd" d="M89.0756 71.9249L92.1273 76.6431C92.1273 76.6431 74.4128 79.8986 64.1488 92.1895C53.8849 104.48 52.9908 120.77 52.9908 120.77L48.5801 116.217C48.5801 116.217 49.3549 93.6049 63.9343 83.2721C78.5136 72.9393 89.0756 71.9131 89.0756 71.9131V71.9249Z" fill="#EDD4A1"/>
<path fill-rule="evenodd" clip-rule="evenodd" d="M114.146 32.0445C113.728 30.8649 124.708 27.6801 105.646 24.6605C86.5844 21.6409 76.8927 26.2175 72.0766 30.7352C67.2605 35.2528 69.6924 30.9475 63.9107 42.4599C58.1291 53.9722 58.6298 64.4938 59.9887 67.537C61.3477 70.5802 70.7176 65.7795 80.8862 69.4951C91.0548 73.2106 104.37 74.2132 106.385 71.1582C108.4 68.1032 109.032 68.5868 110.426 59.1033C111.821 49.6197 118.306 39.8295 114.146 32.0445Z" fill="#784212"/>
<path fill-rule="evenodd" clip-rule="evenodd" d="M169.148 167.905C169.41 168.27 170.912 168.376 169.053 170.264C167.193 172.151 160.768 174.015 149.753 174.545C138.738 175.076 134.995 174.852 133.063 172.009C131.132 169.167 130.763 164.024 131.871 164.932C132.98 165.84 132.014 170.393 137.295 171.502C142.576 172.611 152.793 172.41 160.148 170.653C167.503 168.895 167.3 167.716 169.148 167.905Z" fill="#F77745"/>
<path fill-rule="evenodd" clip-rule="evenodd" d="M91.0068 98.8776C91.0068 98.8776 99.2084 104.528 110.772 127.187C122.335 149.846 128.129 151.108 121.131 164.272C114.133 177.435 110.402 171.856 99.6734 172.257C88.9445 172.658 77.2023 178.296 61.6097 174.616C46.0171 170.936 40.7123 169.438 40.3666 160.025C40.0209 150.612 47.09 153.314 43.5137 137.614C39.9374 121.914 38.0658 118.458 45.0396 111.746C52.0134 105.035 65.4006 89.1581 90.9472 98.8894L91.0068 98.8776Z" fill="#784212"/>
<path fill-rule="evenodd" clip-rule="evenodd" d="M114.336 172.387C113.637 172.717 112.888 172.932 112.119 173.024C112.262 172.316 112.93 171.49 112.62 171.042C112.131 170.323 111.559 170.028 108.817 170.252C106.075 170.476 102.106 170.688 100.639 169.756C99.173 168.825 98.5292 170.146 97.1702 170.5C95.8112 170.853 89.1594 171.172 86.2387 171.526C83.3181 171.88 84.3433 172.646 80.2782 174.097C76.2132 175.548 71.6236 174.604 70.3242 174.652C69.0249 174.699 67.9401 173.189 66.4976 172.446C65.0552 171.703 62.3253 172.599 60.6802 172.163C59.0351 171.726 58.7132 169.568 56.0191 169.037C54.2875 168.74 52.5174 168.74 50.7858 169.037C49.4745 169.037 50.3566 167.622 47.9486 166.595C45.5406 165.569 43.5021 166.076 43.0133 164.673C42.187 162.005 42.187 159.154 43.0133 156.487C44.1339 153.031 46.5062 152.877 46.5062 152.877C46.5062 152.877 44.8015 155.673 44.3366 156.616C43.8716 157.56 44.0862 159.978 44.1935 162.833C44.3008 165.687 47.7698 164.932 48.2585 164.909C48.7473 164.885 48.4374 164.72 48.1632 162.243C47.9588 160.879 48.188 159.486 48.8188 158.256C48.8188 158.256 49.3434 162.207 49.391 165.062C49.4387 167.916 51.8944 167.138 52.8958 167.279C53.8972 167.421 57.0324 167.751 57.6642 167.975C58.296 168.199 60.5014 170.476 61.5743 170.688C62.6471 170.901 64.9479 170.936 66.14 171.137C67.3321 171.337 68.7864 171.844 69.1917 172.764C69.5971 173.684 72.9707 173.743 74.4727 173.873C75.9748 174.003 82.5551 171.585 82.5551 171.585C81.5211 171.069 80.3747 170.814 79.2173 170.842C76.7258 170.688 76.4397 169.768 73.4475 169.933C70.4554 170.099 70.2408 169.12 70.2408 169.12L73.1495 168.648C73.7083 168.778 74.2732 168.88 74.8423 168.954C75.4145 168.954 79.11 169.414 79.9206 169.568C80.7312 169.721 82.4836 169.721 84.7486 170.134C87.0136 170.547 88.3249 169.886 90.7806 169.922C92.2223 169.945 93.662 169.806 95.0722 169.509C95.0722 169.509 99.1491 168.553 99.7094 168.471C100.674 168.413 101.635 168.634 102.475 169.108C103.81 169.745 107.959 168.966 110.82 168.742C113.681 168.518 113.609 165.097 113.609 165.097C113.609 165.097 114.003 163.977 113.299 163.434C112.596 162.892 113.55 161.075 113.55 161.075C114.079 161.819 114.482 162.644 114.742 163.517C115.171 164.979 114.193 167.162 114.468 166.961C114.742 166.76 118.688 163.328 118.938 160.745C119.188 158.162 116.291 158.386 116.554 157.206C116.816 156.027 118.378 155.956 118.378 155.956C118.15 156.313 117.943 156.683 117.758 157.065C117.674 157.324 120.047 159.931 120.058 160.308C120.036 161.391 119.888 162.467 119.617 163.517C119.307 164.425 119.105 164.696 117.233 166.737C115.362 168.777 116.041 168.082 114.849 168.494C113.657 168.907 113.657 170.099 113.788 170.96C113.914 171.447 114.115 171.913 114.384 172.34L114.336 172.387Z" fill="#66380F"/>
<path fill-rule="evenodd" clip-rule="evenodd" d="M70.7408 96.1527L71.2653 96.0819C71.4735 96.2944 71.7451 96.435 72.0401 96.483C72.517 96.5656 72.8627 96.2943 73.2322 95.8814C73.9713 95.8343 74.7224 95.8107 75.4853 95.8107C74.4124 96.2471 73.7329 96.8487 73.8998 97.6626C74.5078 100.611 75.9383 99.0662 75.3303 102.687C74.5832 105.48 74.7799 108.438 75.8906 111.109C77.1662 115.037 79.2404 117.432 80.1583 121.867C81.0762 126.302 79.0974 130.218 81.4577 133.108C83.8181 135.998 84.9029 135.467 86.9294 139.607C88.956 143.747 90.3507 144.196 92.0912 147.487C93.464 149.667 95.489 151.369 97.8848 152.358C97.8848 152.358 96.5616 153.715 94.1416 152.252C91.7217 150.789 91.0899 150.872 90.5653 149.091C90.0408 147.31 89.8858 145.764 87.9427 144.101C85.9996 142.438 84.9863 141.424 79.4669 143.913C73.9475 146.401 72.3143 146.048 70.2759 146.555C68.2374 147.062 67.8917 145.835 67.8917 145.835C67.8917 145.835 68.4043 146.13 70.9911 145.281C73.578 144.432 76.439 144.337 78.0722 143.04C79.7053 141.742 79.2642 141.011 81.0524 140.881C82.8405 140.751 83.973 140.881 83.9611 140.339C83.4422 139.258 82.7981 138.241 82.0418 137.307C82.0418 137.307 79.8126 136.128 78.6324 136.446C77.4523 136.764 78.2152 136.953 74.8416 136.765C72.9922 136.717 71.1811 136.232 69.5606 135.349C69.5606 135.349 70.1447 134.394 72.8508 134.983C74.601 135.453 76.4247 135.593 78.2271 135.396C79.4192 135.231 80.4563 135.007 80.4563 135.007C79.4642 134.016 78.8241 132.733 78.6324 131.35C78.1675 128.826 78.704 124.71 78.549 122.362C78.394 120.015 77.0827 118.257 76.7966 117.09C76.5105 115.922 74.4124 114.506 74.4124 113.209C74.4124 111.911 72.9461 112.147 71.4441 112.195C69.2738 112.345 67.118 112.657 64.9949 113.126C64.1962 113.398 59.4874 115.934 59.4874 115.934C59.0821 117.382 58.5966 118.808 58.033 120.204C57.2957 121.774 56.3884 123.262 55.327 124.639C56.3559 122.724 57.1561 120.697 57.7112 118.6C58.0092 116.795 58.2118 115.485 58.2118 115.485C58.2118 115.485 55.4581 116.818 54.7548 116.476C54.0514 116.134 54.2779 113.516 54.2779 113.516C54.2779 113.516 54.3494 115.379 55.2793 115.273C56.4513 114.947 57.5829 114.492 58.6529 113.917C58.6529 113.917 59.7616 115.096 60.3457 114.223C60.9298 113.351 64.0054 111.864 65.6744 111.546C67.0762 111.202 68.5105 111.004 69.954 110.956C72.0044 110.814 73.4707 111.499 73.6256 110.697C73.9423 109.467 73.8716 108.17 73.423 106.981C72.8833 105.454 72.8833 103.79 73.423 102.263C73.8164 101.26 74.0429 100.505 74.0429 100.505L71.7779 98.3585C71.7779 98.3585 71.6229 99.0426 71.1342 97.7569C70.9421 97.2169 70.8024 96.66 70.7169 96.0937L70.7408 96.1527Z" fill="#66380F"/>
<path fill-rule="evenodd" clip-rule="evenodd" d="M50.5467 159.754C50.5467 159.754 50.5467 167.822 69.9183 167.728C89.2898 167.633 116.732 165.876 110.724 162.007C104.716 158.138 85.0579 155.873 73.8283 155.425C62.5988 154.977 46.4101 154.08 50.5467 159.754Z" fill="#BF9A76"/>
<path fill-rule="evenodd" clip-rule="evenodd" d="M55.4939 158.704C59.0702 158.197 73.1131 156.439 81.8154 159.093C90.5177 161.747 102.653 159.565 100.746 161.877C98.8385 164.189 89.874 161.287 85.5705 162.809C81.267 164.331 66.497 165.369 60.6438 163.234C54.7906 161.099 53.6343 159.023 55.4939 158.704Z" fill="#66380F"/>
<path fill-rule="evenodd" clip-rule="evenodd" d="M86.238 144.231C86.238 144.231 86.5837 144.833 87.7162 146.968C88.8487 149.103 91.5547 149.551 88.3957 150.046C85.2366 150.542 80.3848 149.162 76.1052 149.94C71.8255 150.719 67.5936 152.299 63.8385 152.134C60.0834 151.969 57.1151 149.032 54.6355 149.244C52.1559 149.456 53.6103 146.885 57.1389 148.065C60.6675 149.244 62.849 150.53 65.6982 150.046C68.5473 149.563 85.1889 142.485 86.238 144.266V144.231Z" fill="#995B25"/>
<path fill-rule="evenodd" clip-rule="evenodd" d="M92.3653 116.087C92.3653 116.087 94.3322 128.673 96.9429 131.669C99.2036 134.374 101.998 136.593 105.156 138.192C108.602 140.055 113.608 143.96 112.643 144.868C111.677 145.776 110.259 149.421 104.298 143.688C98.3377 137.956 96.5257 139.253 93.7004 133.898C90.8751 128.543 92.401 129.109 91.5666 123.565C90.7321 118.022 91.0301 115.639 89.2777 112.348C87.5254 109.057 91.8765 111.64 92.4129 116.087H92.3653Z" fill="#995B25"/>
<path fill-rule="evenodd" clip-rule="evenodd" d="M51.5125 127.269C51.5125 127.269 52.2397 129.97 58.2002 129.51C64.1606 129.05 69.5131 128.59 69.5131 128.59C69.5131 128.59 68.321 130.749 63.7553 131.291C59.1896 131.834 55.9829 130.336 55.3034 132.094C54.6239 133.851 51.3575 133.356 52.5854 135.915C53.8132 138.475 62.2175 140.28 60.5128 141.211C58.8081 142.143 53.5748 139.112 51.2026 139.065C48.8303 139.017 47.9839 143.04 47.2686 140.586C46.5534 138.133 46.2911 137.885 48.6515 134.323C51.0118 130.761 48.4131 124.403 51.5125 127.246V127.269Z" fill="#995B25"/>
<path fill-rule="evenodd" clip-rule="evenodd" d="M114.848 75.2394C114.848 75.2394 122.609 69.0114 147.702 64.3522C172.796 59.693 175.669 54.5265 186.386 64.9066C197.103 75.2866 190.701 77.2564 188.067 87.5892C185.432 97.9221 187.554 110.744 179.651 124.603C171.747 138.463 168.802 143.134 159.623 140.775C150.444 138.416 155.058 132.459 138.857 131.445C122.656 130.43 118.854 131.256 114.348 122.693C109.841 114.129 98.3019 96.8959 114.884 75.2394H114.848Z" fill="#784212"/>
<path fill-rule="evenodd" clip-rule="evenodd" d="M192.335 73.7179C192.46 74.4756 192.46 75.2485 192.335 76.0062C191.691 75.6759 191.143 74.8266 190.571 74.98C189.736 75.2395 189.295 75.7113 188.747 78.3771C188.198 81.0428 187.269 84.9117 185.945 86.0559C184.622 87.2001 185.731 88.1791 185.695 89.5945C185.659 91.01 184.086 97.4385 183.597 100.328C183.108 103.218 184.157 102.452 184.408 106.733C184.658 111.015 182.464 115.132 182.143 116.394C181.821 117.656 180.068 118.234 178.924 119.425C177.779 120.617 177.899 123.448 177.017 124.887C176.134 126.326 173.965 126.066 172.701 128.425C171.929 130.002 171.433 131.697 171.235 133.438C170.913 134.7 169.745 133.438 168.076 135.455C166.407 137.472 166.323 139.548 164.833 139.619C162.021 139.646 159.268 138.823 156.942 137.26C153.926 135.219 154.438 132.919 154.438 132.919C154.438 132.919 156.656 135.337 157.442 136.045C158.229 136.753 160.613 137.225 163.403 137.932C166.192 138.64 166.443 135.054 166.55 134.63C166.657 134.205 166.419 134.405 163.951 133.981C162.578 133.782 161.3 133.168 160.291 132.223C160.291 132.223 164.249 132.837 167.015 133.592C169.781 134.347 169.721 131.787 170.15 130.867C170.579 129.947 171.759 127.057 172.177 126.455C172.594 125.854 175.383 124.45 175.884 123.495C176.385 122.539 177.076 120.334 177.613 119.26C178.149 118.187 179.043 116.901 179.997 116.807C180.95 116.712 182.011 113.469 182.56 112.088C183.108 110.708 182.631 103.726 182.631 103.726C181.837 104.564 181.268 105.586 180.974 106.698C180.116 109.057 179.15 109.057 178.471 111.947C177.791 114.837 176.838 114.825 176.838 114.825L177.195 111.912C177.195 111.912 177.768 110.897 177.97 110.378C178.173 109.859 179.615 106.438 179.997 105.66C180.378 104.881 180.867 103.301 181.904 101.213C182.941 99.1253 182.655 97.757 183.382 95.3861C183.819 94.0183 184.095 92.6054 184.205 91.1752C184.205 91.1752 184.431 87.0114 184.503 86.457C184.722 85.5183 185.211 84.6622 185.91 83.9917C186.887 82.9065 187.316 78.7191 187.9 75.9236C188.485 73.1281 185.17 72.2316 185.17 72.2316C185.17 72.2316 184.193 71.5357 183.49 72.0665C182.786 72.5973 181.272 71.1583 181.272 71.1583C182.137 70.8731 183.043 70.7335 183.955 70.7454C185.492 70.7454 187.316 72.2906 187.197 71.9839C187.078 71.6772 184.896 66.9237 182.429 65.9565C179.961 64.9892 179.437 67.8201 178.352 67.2893C177.267 66.7586 177.66 65.2015 177.66 65.2015C177.944 65.5182 178.246 65.8176 178.566 66.098C178.781 66.2513 181.964 64.7179 182.333 64.8123C183.369 65.1424 184.365 65.5855 185.302 66.1334C186.088 66.6878 186.339 66.9709 187.686 69.3417C189.033 71.7126 188.639 70.8633 188.711 72.1255C188.783 73.3876 189.903 73.6825 190.785 73.8358C191.292 73.8543 191.799 73.7946 192.287 73.6589L192.335 73.7179Z" fill="#66380F"/>
<path fill-rule="evenodd" clip-rule="evenodd" d="M106.504 93.8173L106.575 93.2865C106.755 93.2104 106.913 93.0918 107.035 92.9412C107.158 92.7905 107.241 92.6124 107.277 92.4225C107.314 92.2326 107.303 92.0367 107.245 91.8521C107.187 91.6675 107.084 91.4998 106.945 91.3638C107.1 90.6443 107.291 89.913 107.505 89.1817C107.624 90.3612 108.018 91.1633 108.84 91.2341C111.856 91.4818 110.784 89.6771 114.098 91.2341C116.575 92.733 119.484 93.3761 122.371 93.0624C126.519 92.9562 129.416 91.647 133.946 92.0244C138.476 92.4019 141.706 95.3861 145.152 93.9588C148.597 92.5316 148.394 91.3167 152.972 90.55C157.549 89.7833 158.348 88.5919 162.008 87.8488C164.502 87.1483 166.714 85.6972 168.338 83.6968C168.338 83.6968 169.28 85.3363 167.146 87.2354C165.012 89.1345 164.964 89.7597 163.105 89.7361C161.245 89.7125 159.707 89.453 157.549 90.8212C155.392 92.1895 154.128 92.9091 154.986 98.8776C155.845 104.846 154.986 106.309 154.986 108.396C154.986 110.484 153.639 110.425 153.639 110.425C153.639 110.425 154.057 110.012 153.973 107.311C153.89 104.61 154.605 101.838 153.806 99.9155C153.008 97.9929 152.185 98.217 152.614 96.4595C153.043 94.702 153.449 93.664 152.912 93.5342C151.72 93.7209 150.555 94.0496 149.443 94.5132C149.443 94.5132 147.703 96.3062 147.655 97.5093C147.607 98.7124 148.025 98.0519 146.904 101.225C146.34 102.978 145.359 104.572 144.043 105.872C144.043 105.872 143.292 105.047 144.615 102.629C145.561 101.088 146.212 99.389 146.534 97.6154C146.701 96.4359 146.785 95.3743 146.785 95.3743C145.55 96.0361 144.133 96.2843 142.744 96.082C140.181 95.8225 136.366 94.1476 134.053 93.6286C131.741 93.1096 129.678 93.8763 128.474 93.8173C127.27 93.7583 125.327 95.3271 124.052 94.9968C122.776 94.6666 122.621 96.1056 122.252 97.5447C121.78 99.6576 121.469 101.803 121.322 103.961C121.322 104.811 122.514 110.012 122.514 110.012C123.799 110.811 125.037 111.681 126.221 112.619C127.528 113.765 128.707 115.046 129.738 116.441C128.188 114.914 126.459 113.575 124.588 112.454C122.931 111.652 121.727 111.098 121.727 111.098C121.727 111.098 122.24 114.105 121.727 114.636C121.214 115.167 118.735 114.271 118.735 114.271C118.735 114.271 120.547 114.719 120.714 113.811C120.725 112.598 120.601 111.387 120.344 110.201C120.344 110.201 121.81 109.482 121.119 108.668C120.428 107.854 119.927 104.528 120.046 102.829C120.109 101.392 120.32 99.9651 120.678 98.5709C121.119 96.5774 122.204 95.3743 121.465 95.0322C120.368 94.3806 119.093 94.0838 117.817 94.183C116.218 94.2718 114.636 93.8274 113.323 92.9208C112.464 92.2485 111.797 91.8239 111.797 91.8239L109.091 93.3809C109.091 93.3809 109.711 93.7347 108.328 93.8291C107.755 93.8579 107.18 93.8342 106.611 93.7583L106.504 93.8173Z" fill="#66380F"/>
<path fill-rule="evenodd" clip-rule="evenodd" d="M162.175 131.067C162.175 131.067 169.971 133.285 175.288 114.813C180.605 96.3415 186.684 69.5894 181.249 74.2368C175.813 78.8842 168.135 97.0139 164.559 107.618C160.983 118.222 155.547 133.356 162.175 131.067Z" fill="#BF9A76"/>
<path fill-rule="evenodd" clip-rule="evenodd" d="M162.532 126.042C163.057 122.504 165.31 108.585 170.329 101.024C175.347 93.4634 176.659 81.2551 178.339 83.7322C180.02 86.2092 174.704 93.9353 174.966 98.4765C175.228 103.018 172.057 117.444 168.35 122.398C164.642 127.352 162.318 127.906 162.532 126.042Z" fill="#66380F"/>
<path fill-rule="evenodd" clip-rule="evenodd" d="M157.239 92.6613L160.303 92.0244C162.687 91.5408 163.879 89.0873 163.462 92.2485C163.045 95.4096 160.351 99.6442 159.886 103.95C159.421 108.255 159.755 112.749 158.539 116.276C157.323 119.803 153.651 121.82 153.162 124.25C152.673 126.679 150.635 124.58 152.697 121.513C154.76 118.446 156.679 116.795 157.025 113.905C157.37 111.015 155.225 93.1685 157.227 92.6731L157.239 92.6613Z" fill="#995B25"/>
<path fill-rule="evenodd" clip-rule="evenodd" d="M131.848 78.8252C131.848 78.8252 144.532 80.5002 148.168 78.8252C151.418 77.4168 154.347 75.3703 156.775 72.8095C159.528 70.0494 164.714 66.3692 165.31 67.5488C165.906 68.7283 169.041 71.0874 161.805 75.2276C154.569 79.3678 155.38 81.4438 149.419 82.6234C143.459 83.8029 144.425 82.5172 138.846 81.7387C133.267 80.9602 131.049 80.0283 127.389 80.7715C123.73 81.5146 127.389 78.0939 131.872 78.8252H131.848Z" fill="#995B25"/>
<path fill-rule="evenodd" clip-rule="evenodd" d="M131.121 120.994C131.121 120.994 133.934 121.065 135.162 115.226C136.39 109.387 137.499 104.209 137.499 104.209C137.499 104.209 139.251 105.931 138.476 110.461C137.701 114.99 135.377 117.609 136.879 118.718C138.381 119.826 136.986 122.834 139.8 122.398C142.613 121.961 146.714 114.412 147.131 116.311C147.548 118.21 143.149 122.339 142.446 124.568C141.743 126.797 145.367 128.767 142.804 128.755C140.241 128.744 139.931 128.921 137.153 125.665C134.376 122.41 127.521 123.105 131.193 120.947L131.121 120.994Z" fill="#995B25"/>
<path fill-rule="evenodd" clip-rule="evenodd" d="M132.253 73.0454C133.087 72.4438 137.975 70.356 140.597 70.8397C143.22 71.3233 144.603 70.9694 145.366 69.9904C146.129 69.0114 145.151 69.3299 146.749 68.4216C148.346 67.5134 148.215 66.7467 150.79 66.6523C153.365 66.5579 153.901 68.2447 157.001 66.9944C160.1 65.744 160.303 65.8148 162.747 64.6942C164.747 63.9137 166.851 63.4212 168.993 63.2316C170.698 62.8777 174.012 62.1818 173.666 63.0546C173.32 63.9275 169.887 66.8056 172.474 69.6483C175.061 72.4911 176.599 75.3927 175.49 76.2892C174.381 77.1856 169.22 80.335 168.779 82.0336C168.338 83.7321 163.188 80.394 163.188 80.394C163.188 80.394 160.505 79.2144 158.944 80.9838L154.736 85.7963C154.736 85.7963 155.928 80.2407 157.931 79.2144C159.933 78.1882 160.446 77.7046 162.854 78.0349C165.262 78.3652 166.096 80.394 166.847 80.0755C168.405 79.125 169.839 77.988 171.115 76.6902C172.772 75.1096 174.215 75.3338 173.297 73.8475C172.379 72.3613 170.15 71.4059 170.102 70.3089C170.054 69.2119 169.84 65.6615 169.84 65.6615L164.869 65.4727C164.869 65.4727 160.648 67.7139 159.993 67.9262C159.337 68.1385 155.058 68.8698 155.058 68.8698L150.683 71.8895C149.657 72.5854 146.963 75.5225 149.169 72.2197C151.374 68.917 151.553 66.9236 150.027 68.1149C148.501 69.3063 147.762 70.3797 146.367 71.3823C144.972 72.3849 142.874 72.3613 141.599 72.4085L138.833 72.5146C137.866 72.3347 136.866 72.4713 135.984 72.9039C135.054 73.5998 133.755 74.7911 133.755 74.7911C132.441 75.0632 131.103 75.2055 129.761 75.2158C128.903 75.0625 127.687 73.3993 128.14 72.6208C128.503 71.8786 129.016 71.2182 129.648 70.6805C130.279 70.1428 131.016 69.7393 131.812 69.495C134.022 68.9312 136.281 68.5758 138.559 68.4334C138.559 68.4334 132.086 71.0756 131.144 71.9721C130.202 72.8685 132.169 73.0572 132.169 73.0572L132.253 73.0454Z" fill="#66380F"/>
<path fill-rule="evenodd" clip-rule="evenodd" d="M107.374 71.63C107.374 71.63 119.414 80.2407 140.824 75.723C162.234 71.2054 167.265 65.8148 167.42 66.5579C167.575 67.3011 170.09 68.0678 166.502 72.0429C162.914 76.0179 150.468 83.685 132.98 82.8357C115.492 81.9864 106.349 74.1424 106.349 74.1424L107.374 71.63Z" fill="#EDD4A1"/>
<path fill-rule="evenodd" clip-rule="evenodd" d="M76.2248 88.3442C78.9666 88.2499 119.057 103.395 136.008 103.266C152.96 103.136 156.608 103.737 155.082 105.625C153.556 107.512 154.772 110.85 136.867 108.904C118.961 106.957 97.3488 102.546 86.9894 98.7124C76.6301 94.8789 73.5068 91.6352 73.5068 91.6352L76.2486 88.3088L76.2248 88.3442Z" fill="#ED4605"/>
<path fill-rule="evenodd" clip-rule="evenodd" d="M84.307 73.7061C86.2501 74.8856 101.7 98.2878 121.548 110.036C141.396 121.784 146.022 120.959 145.39 122.339C144.758 123.719 143.435 126.632 142.434 126.396C129.62 121.922 117.712 115.228 107.267 106.627C96.8992 97.8322 87.9117 87.5599 80.5996 76.1477L84.2474 73.7061H84.307Z" fill="#FF4F0C"/>
<path fill-rule="evenodd" clip-rule="evenodd" d="M172.069 117.019C172.069 117.019 159.802 132.495 156.023 134.712C152.244 136.93 158.205 139.595 159.6 138.18C160.994 136.765 171.366 129.428 175.657 120.841C179.949 112.254 178.518 113.763 178.518 113.763L173.523 113.693L172.069 117.019Z" fill="#EDD4A1"/>
<path fill-rule="evenodd" clip-rule="evenodd" d="M56.6739 60.153C54.9811 60.153 43.2032 58.5959 39.3885 58.3011C35.5738 58.0062 29.4703 59.7283 29.4703 59.7283C29.4703 59.7283 24.8688 68.3272 25.0357 69.5657C25.2026 70.8043 28.2305 64.8476 30.9962 62.4885C33.7618 60.1294 46.4934 59.7401 52.4539 61.132C58.4144 62.5239 59.6065 60.436 56.662 60.1176L56.6739 60.153Z" fill="#FAD58C"/>
<path fill-rule="evenodd" clip-rule="evenodd" d="M112.739 188.299C113.049 187.237 113.931 186.329 114.896 186.541C115.862 186.754 112.775 189.42 110.665 190.8C109.264 191.907 107.572 192.595 105.789 192.781C104.346 192.781 102.117 192.852 102.666 192.026C103.214 191.201 103.524 191.932 106.099 191.46C108.674 190.988 112.739 188.299 112.739 188.299ZM81.0767 185.669C83.8066 183.699 82.8052 184.053 86.3815 183.545C89.9578 183.038 89.3975 181.328 91.4479 180.561C93.4983 179.794 92.485 179.476 95.5726 179.382C98.6601 179.287 97.6945 180.361 101.45 178.851C105.205 177.341 106.993 175.171 107.16 176.043C107.327 176.916 106.278 177.306 104.954 178.403C101.295 180.278 95.7991 179.582 93.3434 180.939C90.8876 182.295 89.5167 184.477 86.9418 184.772C84.3669 185.067 83.6158 184.406 82.9244 185.173C82.233 185.94 78.156 188.016 81.0767 185.657V185.669ZM86.608 187.402C86.5667 188.415 86.7121 189.426 87.0372 190.387C87.5021 191.248 88.0266 191.661 88.2293 191.33C88.4319 191 87.6809 188.405 88.6465 188.853C89.6121 189.302 88.7538 191.637 89.8386 191.047C91.0263 190.481 92.1841 189.855 93.3076 189.172C94.2314 188.707 95.0761 188.102 95.811 187.379C96.3474 186.306 98.0283 187.226 98.6482 186.53C98.9578 186.065 99.1647 185.542 99.2551 184.993C99.3455 184.444 99.3174 183.882 99.1727 183.345C98.982 181.988 99.5899 180.844 99.9237 182.26C100.257 183.675 100.603 186.766 101.199 185.374C101.795 183.982 101.938 182.248 103.738 182.307C105.538 182.366 106.206 182.767 106.897 182.307C107.589 181.847 104.358 181.658 108.376 181.328C112.393 180.998 112.322 181.115 113.061 179.724C113.8 178.332 113.335 177.294 114.253 178.379C115.171 179.464 116.339 180.349 117.579 178.945C118.818 177.541 120.952 174.781 120.368 176.669C119.784 178.556 115.504 180.88 114.908 180.585C114.312 180.29 113.621 180.585 112.941 181.587C112.262 182.59 108.972 183.286 107.255 183.545C105.538 183.805 104.537 181.717 104.334 184.206C104.132 186.695 102.797 185.256 102.236 185.834C101.676 186.412 96.2759 187.013 97.9568 188.476C99.6376 189.939 99.5303 190.092 98.1594 190.08C96.7885 190.068 93.5341 191.177 94.3566 192.144C94.8735 192.994 95.0876 193.991 94.9646 194.975C94.9646 194.975 93.3672 196.343 93.3672 194.48C93.3672 192.616 93.3672 191.319 93.3672 191.319C93.4075 190.988 93.5586 190.681 93.7963 190.446C94.034 190.21 94.3447 190.061 94.6785 190.021C95.8706 189.856 97.5157 188.995 96.9316 188.7C96.3474 188.405 93.6533 189.254 92.4016 190.67C91.1499 192.085 90.5181 192.168 90.5181 192.168C90.5181 192.168 89.0756 192.026 88.7419 192.663C88.4081 193.3 87.9551 192.876 87.1683 192.84C86.3815 192.805 86.31 194.739 85.2729 194.02C84.2357 193.3 81.4701 194.362 82.6622 192.675C83.8543 190.988 82.2449 191.071 82.2211 190.517C82.1973 189.962 82.3403 186.105 83.0436 187.509C83.747 188.912 83.5801 192.227 84.7841 191.908C85.9881 191.59 85.6066 186.978 86.5603 187.379L86.608 187.402Z" fill="#452508"/>
<path fill-rule="evenodd" clip-rule="evenodd" d="M149.896 55.2933C150.218 54.2317 151.088 53.3353 152.065 53.5476C153.043 53.7599 149.943 56.4139 147.833 57.7939C146.43 58.904 144.733 59.5918 142.946 59.7756C141.515 59.7756 139.286 59.8464 139.834 59.0207C140.383 58.195 140.693 58.9263 143.268 58.4545C145.843 57.9827 149.896 55.2933 149.896 55.2933ZM118.246 52.6629C120.976 50.6931 119.974 51.0469 123.55 50.5397C127.127 50.0325 126.555 48.3222 128.617 47.5673C130.679 46.8124 129.654 46.4703 132.741 46.3878C135.829 46.3052 134.863 47.3668 138.619 45.8569C142.374 44.3471 144.162 42.1886 144.329 43.0496C144.496 43.9107 143.447 44.3235 142.123 45.4087C138.464 47.2842 132.968 46.5882 130.5 47.9447C128.033 49.3012 126.686 51.4834 124.111 51.7783C121.536 52.0731 120.785 51.4126 120.093 52.1793C119.402 52.946 115.325 55.022 118.246 52.6629ZM123.777 54.3968C123.737 55.4121 123.878 56.4263 124.194 57.3929C124.671 58.2422 125.196 58.6668 125.386 58.3248C125.577 57.9827 124.838 55.3995 125.804 55.8477C126.769 56.2959 125.911 58.6314 126.996 58.0534C128.08 57.4755 129.38 56.8739 130.465 56.178C131.381 55.7026 132.221 55.0943 132.956 54.3733C133.493 53.2999 135.185 54.2317 135.805 53.524C136.115 53.0599 136.322 52.5361 136.412 51.9872C136.503 51.4383 136.474 50.8766 136.33 50.3392C136.139 48.9827 136.747 47.8386 137.081 49.254C137.415 50.6695 137.76 53.7599 138.356 52.368C138.952 50.9762 139.095 49.2423 140.895 49.3012C142.696 49.3602 143.351 49.7731 144.054 49.3012C144.758 48.8294 141.515 48.6407 145.533 48.3104C149.55 47.9801 149.479 48.0981 150.218 46.7062C150.957 45.3144 150.48 44.2881 151.41 45.3615C152.34 46.4349 153.496 47.3314 154.736 45.9277C155.975 44.5241 158.109 41.7639 157.525 43.6512C156.941 45.5385 152.65 47.8622 152.065 47.5791C151.481 47.296 150.778 47.5791 150.098 48.5817C149.419 49.5843 146.129 50.2802 144.412 50.5279C142.696 50.7756 141.682 48.6996 141.491 51.1885C141.301 53.6773 139.954 52.2383 139.393 52.8163C138.833 53.3942 133.433 53.9958 135.114 55.4585C136.795 56.9211 136.687 57.0744 135.316 57.0626C133.946 57.0508 130.679 58.1714 131.514 59.1268C132.031 59.9767 132.245 60.9734 132.122 61.9577C132.122 61.9577 130.512 63.326 130.524 61.4624C130.536 59.5987 130.524 58.3011 130.524 58.3011C130.564 57.9709 130.716 57.6635 130.953 57.4283C131.191 57.193 131.502 57.0435 131.836 57.0037C133.028 56.8385 134.673 55.9774 134.089 55.6825C133.504 55.3877 130.798 56.237 129.559 57.6524C128.319 59.0679 127.675 59.1504 127.675 59.1504C127.675 59.1504 126.233 59.0207 125.899 59.6458C125.565 60.271 125.112 59.8582 124.325 59.8346C123.539 59.811 123.455 61.7218 122.43 60.9551C121.405 60.1884 118.699 61.3444 119.938 59.6812C121.178 58.0181 119.509 58.0889 119.497 57.5227C119.485 56.9565 119.617 53.1229 120.32 54.5148C121.023 55.9067 120.856 59.233 122.06 58.9263C123.264 58.6196 122.883 53.9958 123.837 54.3851L123.777 54.3968Z" fill="#452508"/>
<path fill-rule="evenodd" clip-rule="evenodd" d="M79.6104 31.3956L81.2913 31.8911C80.9456 32.3393 80.8145 32.528 80.0992 32.2567C80.008 32.2352 79.9223 32.1952 79.8475 32.1393C79.7727 32.0834 79.7104 32.0129 79.6645 31.932C79.6185 31.8511 79.5901 31.7617 79.5808 31.6694C79.5715 31.5771 79.5816 31.4839 79.6104 31.3956ZM94.5832 37.14C95.5607 37.6237 96.5382 38.119 97.5038 38.6263L96.2163 39.735C93.1646 42.3536 95.1077 39.735 94.1063 39.735C93.105 39.735 93.1407 40.6905 92.0082 42.0941C90.8757 43.4978 88.7657 41.6931 86.7749 40.6197C84.7841 39.5463 88.122 43.1793 89.5287 44.984C90.9353 46.7887 89.2068 45.9866 87.7763 44.3471C86.7546 42.9665 85.3631 41.896 83.7589 41.2567C82.5668 40.9382 82.4834 43.2147 80.886 42.4362C79.6527 42.1984 78.3888 42.1585 77.1428 42.3182C75.6438 42.4126 74.1514 42.5898 72.6724 42.849C71.3015 42.9906 74.556 44.8896 74.4368 46.1164C74.3175 47.3431 71.8618 43.8988 71.3134 43.7573C70.7651 43.6157 70.8962 44.4178 71.5638 45.7035C72.4719 47.0202 73.5321 48.2276 74.7228 49.3012C74.556 50.4807 69.5372 45.1374 68.3213 45.6446C67.1054 46.1518 71.087 49.714 72.2314 51.7664C73.3758 53.8188 68.8458 49.714 68.2259 49.0888C67.606 48.4637 68.7624 47.2959 66.0325 46.3995C63.3026 45.503 66.4139 44.7599 66.2232 43.1439C66.0325 41.528 68.2975 43.5921 68.7862 42.967C69.275 42.3418 69.0842 41.5515 69.9783 41.9998C70.8724 42.448 71.7426 41.2213 71.7426 41.2213C71.7426 41.2213 72.2671 40.832 74.7228 41.4572C77.1786 42.0823 79.9442 40.9971 80.0038 40.2776C80.0634 39.5581 77.9773 39.7822 76.9759 40.5017C75.9745 41.2212 74.5917 40.0653 74.5917 40.0653C74.5917 40.0653 73.1254 38.6027 71.0154 36.5267C68.9054 34.4507 71.5042 34.781 71.5042 34.781C72.7023 35.7419 73.6745 36.9494 74.3533 38.3196C74.9136 39.9828 78.3707 38.7796 79.2647 37.7534C80.1588 36.7272 80.3615 36.8098 80.9813 39.6643C81.6012 42.5188 85.8451 39.1453 86.9418 39.3694C88.0386 39.5935 87.216 37.0103 90.2082 39.5935C93.2003 42.1767 91.4956 39.1571 92.9262 38.1544C93.4586 37.7793 94.0162 37.4404 94.5951 37.14H94.5832ZM73.042 55.2814C77.1309 55.4112 76.0699 55.7651 79.0025 53.6537C81.935 51.5423 83.5682 53.8542 85.8093 53.1583C88.0505 52.4623 87.7525 53.5829 89.9459 51.4125C92.1394 49.2422 90.232 48.7586 94.464 47.6262C98.6959 46.4938 102.391 47.5318 101.509 46.4466C100.627 45.3615 99.4588 45.7035 97.2773 45.4558C92.6758 46.1282 89.8625 51.0115 86.62 51.3536C83.3775 51.6956 80.0515 50.3627 77.9415 51.908C75.8315 53.4532 76.1653 54.786 74.8182 54.4558C73.4711 54.1255 68.3571 54.8922 73.0182 55.3051L73.042 55.2814Z" fill="#995B25"/>
<path fill-rule="evenodd" clip-rule="evenodd" d="M109.031 31.9854C109.031 31.9854 113.346 30.452 112.452 40.1715C111.558 49.8909 108.459 53.347 107.374 61.073C106.289 68.7991 101.95 72.8685 100.71 62.807C99.4705 52.7454 99.8877 47.4729 103.011 41.009C106.134 34.5451 109.031 31.9854 109.031 31.9854Z" fill="#BF9A76"/>
<path fill-rule="evenodd" clip-rule="evenodd" d="M109.973 37.1519C110.271 38.3904 111.856 40.8085 109.484 47.355C107.112 53.9014 107.1 66.2985 105.133 61.1557C103.166 56.0128 104.441 49.2776 106.039 45.1256C107.636 40.9736 108.804 35.6893 109.973 37.1519Z" fill="#522C0B"/>
<path fill-rule="evenodd" clip-rule="evenodd" d="M97.1463 62.2644C97.1463 62.2644 96.9079 62.6418 92.6402 61.8043C90.2223 61.2622 87.7162 61.2301 85.285 61.71C83.7602 62.0634 82.1705 62.035 80.6597 61.6274C78.8357 60.9551 78.192 60.4479 76.69 60.4479C75.1879 60.4479 74.1985 60.5422 73.2686 60.5186C72.1415 60.2764 71.0541 59.8793 70.0381 59.3391C69.2933 59.0248 68.5723 58.6582 67.8804 58.2421C67.8804 58.2421 63.2312 55.6235 64.3041 54.0311C64.6119 53.5781 64.8022 53.057 64.8584 52.5139C64.9145 51.9709 64.8347 51.4225 64.626 50.9171L63.7319 48.6524C63.5888 48.2867 62.5398 48.5698 62.8378 49.8319C63.0209 50.8514 63.081 51.8888 63.0166 52.9223L61.2881 55.0337C61.6418 55.057 61.9859 55.1579 62.2952 55.3294C62.6046 55.5008 62.8714 55.7382 63.0762 56.0246C63.6008 56.9328 62.5636 58.1242 64.6379 58.2775C66.7121 58.4308 66.9148 58.6196 66.9386 59.3627C66.9625 60.1058 64.3518 61.8751 63.7557 62.6418C63.1597 63.4085 62.3848 65.9209 62.6471 66.3456C62.9093 66.7702 63.5531 65.5671 64.0657 64.246C64.5783 62.9249 65.6988 62.9367 66.4499 61.8869C67.2009 60.8371 67.1413 63.5973 67.1532 64.0337C67.1651 64.4701 67.1532 64.5291 67.2724 65.5789C67.3916 66.6287 68.536 66.0861 68.4645 64.7296C68.393 63.3731 67.1055 61.7926 67.7016 61.0966C68.2976 60.4007 67.6062 60.0468 68.8221 60.8607C70.0381 61.6746 69.3467 61.7808 71.5997 61.9459C73.0727 62.0983 74.5534 62.1653 76.0343 62.1464C77.286 62.1464 79.1576 62.1464 80.1232 62.9957C81.0888 63.845 81.1484 65.3548 81.6968 66.723C82.2806 67.6984 83.161 68.4662 84.2121 68.917C83.4296 68.1466 82.8733 67.1804 82.6028 66.1215C82.4955 64.824 82.3524 64.2106 82.6981 63.7624C83.0438 63.3142 82.9246 63.0665 83.7352 63.1608C84.2953 63.2443 84.8628 63.268 85.428 63.2316C86.2755 63.2132 87.1137 63.0537 87.9076 62.7598C88.9447 62.4177 91.913 63.4203 91.913 63.4203C91.913 63.4203 94.7383 62.0167 94.4164 63.5147C94.0946 65.0127 92.1753 66.1451 92.4256 67.0533C92.676 67.9616 91.9488 70.9104 93.2601 70.934C94.5714 70.9576 95.4893 70.592 94.333 69.5893C93.9917 69.2737 93.7266 68.8861 93.5573 68.4553C93.3881 68.0244 93.3191 67.5614 93.3555 67.1005L95.4059 65.1425C96.3516 65.721 97.2171 66.4189 97.9808 67.2185C99.0895 68.398 99.459 70.1437 100.663 70.474C101.867 70.8043 102.308 71.2171 103.536 70.6155C104.204 70.3277 104.755 69.8247 105.098 69.1883C104.247 69.4084 103.377 69.5428 102.499 69.5893C101.307 69.5893 99.2444 67.5487 98.5769 66.3928C97.9093 65.2368 95.5012 64.3286 95.8589 63.8803C96.2165 63.4321 99.3398 63.4439 97.1106 62.229L97.1463 62.2644Z" fill="#66380F"/>
<path fill-rule="evenodd" clip-rule="evenodd" d="M57.6278 102.593C59.8332 102.971 82.6618 119.449 105.371 123.448C128.081 127.446 132.158 125.028 132.11 126.526C132.062 128.024 131.812 131.244 130.799 131.362C117.226 131.698 103.702 129.633 90.8635 125.264C78.0472 120.698 65.993 114.261 55.1006 106.167L57.6517 102.629L57.6278 102.593Z" fill="#FF4F0C"/>
<path fill-rule="evenodd" clip-rule="evenodd" d="M88.4078 74.6261C88.5508 74.0599 87.7521 73.3639 86.6196 73.0926C85.4871 72.8213 84.4738 73.0926 84.3308 73.6352C84.1877 74.1778 84.9864 74.8973 86.107 75.1686C87.2276 75.4399 88.2647 75.1686 88.4078 74.6261ZM120.165 86.5159C120.308 85.9497 119.51 85.2656 118.377 84.9825C117.245 84.6994 116.231 84.9825 116.088 85.525C115.945 86.0676 116.744 86.7871 117.864 87.0584C118.985 87.3297 120.022 87.0585 120.165 86.5159ZM132.861 105.625C133.278 106.037 134.292 105.707 135.102 104.893C135.913 104.079 136.235 103.077 135.817 102.652C135.4 102.227 134.387 102.569 133.576 103.383C132.766 104.197 132.384 105.212 132.861 105.625ZM108.411 112.702C108.828 113.115 109.83 112.784 110.652 111.97C111.475 111.157 111.844 110.142 111.368 109.729C110.891 109.316 109.937 109.647 109.126 110.461C108.316 111.275 107.934 112.277 108.411 112.702ZM101.986 124.143C102.165 124.698 101.425 125.441 100.329 125.807C99.232 126.172 98.1829 125.995 97.9445 125.429C97.7061 124.863 98.5048 124.132 99.6135 123.766C100.722 123.4 101.759 123.577 101.998 124.143H101.986ZM81.9943 127.128C82.3877 126.691 83.4129 126.939 84.2831 127.694C85.1533 128.449 85.5587 129.428 85.1653 129.876C84.7719 130.324 83.7466 130.065 82.8764 129.31C82.0062 128.555 81.6128 127.576 81.9943 127.128ZM91.9602 107.748C92.5324 107.866 92.8185 108.927 92.5801 110.001C92.3417 111.074 91.686 111.947 91.1019 111.829C90.5178 111.711 90.2436 110.649 90.482 109.564C90.7204 108.479 91.3761 107.618 91.9602 107.748ZM125.506 72.3613C125.649 71.7833 124.85 71.0992 123.73 70.8161C122.609 70.533 121.572 70.8161 121.429 71.3587C121.286 71.9013 122.084 72.6208 123.217 72.8921C124.349 73.1634 125.363 72.8921 125.506 72.3613ZM96.967 94.8316C97.3962 95.2445 98.3975 94.9142 99.2081 94.1003C100.019 93.2865 100.4 92.272 99.9234 91.8592C99.4466 91.4464 98.5048 91.7766 97.6823 92.5905C96.8597 93.4044 96.5498 94.407 96.967 94.8316ZM86.4289 93.3101C87.0011 93.1567 87.2037 92.1305 86.8819 91.0099C86.56 89.8894 85.8447 89.1344 85.2725 89.2996C84.7003 89.4647 84.4977 90.4791 84.8195 91.5997C85.1414 92.7203 85.8567 93.4752 86.4289 93.3101Z" fill="#FFF3DA"/>
<path fill-rule="evenodd" clip-rule="evenodd" d="M108.531 88.1437C108.674 87.5775 107.875 86.8816 106.755 86.6103C105.634 86.339 104.597 86.6103 104.454 87.1529C104.311 87.6955 105.109 88.415 106.242 88.6863C107.374 88.9576 108.388 88.6863 108.531 88.1437ZM140.288 100.034C140.431 99.4555 139.633 98.7714 138.512 98.4883C137.391 98.2052 136.354 98.4883 136.211 99.0309C136.068 99.5735 136.867 100.293 137.999 100.564C139.132 100.836 140.145 100.564 140.288 100.034ZM152.996 119.13C153.413 119.543 154.415 119.213 155.225 118.399C156.036 117.585 156.417 116.583 155.94 116.17C155.464 115.757 154.522 116.075 153.699 116.889C152.877 117.703 152.507 118.718 152.996 119.13ZM128.534 126.208C128.963 126.62 129.965 126.29 130.775 125.476C131.586 124.662 131.908 123.66 131.491 123.235C131.073 122.811 130.072 123.153 129.249 123.967C128.427 124.78 128.057 125.783 128.534 126.208ZM122.121 137.649C122.3 138.204 121.56 138.947 120.452 139.312C119.343 139.678 118.306 139.501 118.127 138.947C117.948 138.392 118.687 137.637 119.784 137.272C120.881 136.906 121.93 137.083 122.168 137.649H122.121ZM102.129 140.645C102.523 140.197 103.548 140.445 104.418 141.2C105.288 141.955 105.682 142.934 105.3 143.382C104.919 143.83 103.882 143.571 103.011 142.816C102.141 142.061 101.736 141.082 102.129 140.645ZM112.083 121.218C112.667 121.336 112.942 122.398 112.715 123.471C112.489 124.544 111.809 125.417 111.237 125.299C110.665 125.181 110.367 124.12 110.605 123.046C110.843 121.973 111.499 121.1 112.083 121.218ZM145.641 85.8318C145.784 85.2538 144.985 84.5697 143.853 84.2866C142.72 84.0035 141.707 84.2866 141.564 84.8292C141.421 85.3718 142.219 86.0913 143.34 86.3626C144.461 86.6339 145.498 86.3626 145.641 85.8318ZM117.102 108.302C117.519 108.715 118.521 108.385 119.343 107.571C120.166 106.757 120.476 105.743 120.058 105.33C119.641 104.917 118.628 105.247 117.817 106.061C117.007 106.875 116.625 107.878 117.102 108.302ZM106.504 106.84C107.076 106.674 107.279 105.66 106.957 104.48C106.635 103.301 105.92 102.605 105.348 102.77C104.776 102.935 104.573 103.95 104.895 105.07C105.217 106.191 105.932 106.946 106.504 106.792V106.84Z" fill="#FFF3DA"/>
<path fill-rule="evenodd" clip-rule="evenodd" d="M62.9447 70.9341C63.0877 70.3562 62.289 69.672 61.1684 69.3889C60.0479 69.1058 59.0108 69.3889 58.8796 69.9315C58.7485 70.4741 59.5234 71.1936 60.6558 71.4649C61.7883 71.7362 62.8016 71.4649 62.9447 70.9341ZM94.7021 82.8121C94.8452 82.2342 94.0584 81.55 92.9259 81.2787C91.7934 81.0074 90.7801 81.2788 90.6371 81.8095C90.494 82.3403 91.2927 83.0717 92.4133 83.3548C93.5338 83.6378 94.571 83.3547 94.7021 82.8121ZM107.41 101.909C107.827 102.334 108.828 102.003 109.651 101.178C110.474 100.352 110.843 99.3612 110.366 98.9484C109.889 98.5355 108.936 98.854 108.125 99.6797C107.314 100.505 106.933 101.496 107.41 101.909ZM82.96 108.986C83.3772 109.399 84.3785 109.081 85.1892 108.255C85.9998 107.429 86.3813 106.438 85.9044 106.026C85.4276 105.613 84.4858 105.931 83.6633 106.757C82.8407 107.583 82.4712 108.573 82.96 108.986ZM76.5346 120.428C76.7134 120.994 75.9743 121.737 74.8656 122.091C73.757 122.445 72.7318 122.292 72.4814 121.725C72.2311 121.159 73.0417 120.416 74.1385 120.062C75.2352 119.708 76.2842 119.862 76.5226 120.428H76.5346ZM56.5431 123.424C56.9365 122.976 57.9617 123.235 58.8319 123.99C59.7022 124.745 60.1075 125.712 59.7141 126.16C59.3207 126.609 58.2955 126.361 57.4253 125.606C56.555 124.851 56.1616 123.872 56.5431 123.424ZM66.4971 103.997C67.0812 104.115 67.3673 105.176 67.1289 106.262C66.8905 107.347 66.2349 108.208 65.6507 108.09C65.0666 107.972 64.7924 106.91 65.0189 105.825C65.2454 104.74 65.9249 103.879 66.4971 103.997ZM100.055 68.6104C100.198 68.0324 99.399 67.3483 98.2784 67.077C97.1578 66.8057 96.1207 67.077 95.9776 67.6078C95.8346 68.1386 96.6333 68.8699 97.7539 69.153C98.8744 69.4361 99.9116 69.153 100.055 68.6104ZM71.5158 91.0808C71.945 91.4936 72.9463 91.1751 73.757 90.3495C74.5676 89.5238 74.8895 88.5329 74.4722 88.1201C74.055 87.7073 73.0536 88.0257 72.2311 88.8396C71.4085 89.6535 71.0986 90.6679 71.5158 91.0808ZM60.9658 89.5709C61.538 89.4058 61.7407 88.3914 61.4307 87.2709C61.1208 86.1503 60.3817 85.3954 59.8214 85.5605C59.2611 85.7256 59.0465 86.7401 59.3565 87.8606C59.6664 88.9812 60.4055 89.7361 60.9658 89.5709Z" fill="#FFF3DA"/>
<path fill-rule="evenodd" clip-rule="evenodd" d="M80.6351 102.522C80.7782 101.944 79.9794 101.26 78.8589 100.977C77.7383 100.694 76.7131 100.977 76.5701 101.52C76.427 102.062 77.2138 102.782 78.3463 103.053C79.4788 103.324 80.4921 103.053 80.6351 102.522ZM112.393 114.4C112.536 113.822 111.749 113.138 110.616 112.855C109.484 112.572 108.471 112.855 108.327 113.398C108.184 113.94 108.983 114.66 110.104 114.931C111.224 115.202 112.261 114.931 112.393 114.4ZM125.1 133.497C125.518 133.91 126.519 133.592 127.341 132.766C128.164 131.94 128.534 130.949 128.057 130.537C127.58 130.124 126.626 130.442 125.816 131.268C125.005 132.094 124.623 133.084 125.1 133.497ZM100.65 140.574C101.068 140.987 102.069 140.657 102.88 139.843C103.69 139.029 104.072 138.027 103.595 137.614C103.118 137.201 102.176 137.519 101.354 138.333C100.531 139.147 100.162 140.162 100.65 140.574ZM94.225 152.016C94.4038 152.57 93.6647 153.325 92.5561 153.679C91.4474 154.033 90.4222 153.868 90.1719 153.314C89.9215 152.759 90.7322 152.004 91.8289 151.65C92.9256 151.297 93.9747 151.45 94.2131 152.016H94.225ZM74.2335 155.012C74.6269 154.564 75.6521 154.812 76.5224 155.566C77.3926 156.321 77.7979 157.3 77.4045 157.749C77.0111 158.197 75.9859 157.937 75.1157 157.182C74.2455 156.428 73.8521 155.46 74.2335 155.012ZM84.1875 135.585C84.7717 135.703 85.0578 136.765 84.8194 137.85C84.5809 138.935 83.9253 139.796 83.3412 139.666C82.757 139.536 82.4828 138.487 82.7093 137.413C82.9358 136.34 83.6153 135.467 84.1875 135.585ZM117.745 100.199C117.888 99.6206 117.089 98.9365 115.969 98.6534C114.848 98.3703 113.811 98.6534 113.668 99.196C113.525 99.7386 114.324 100.458 115.444 100.741C116.565 101.024 117.602 100.741 117.745 100.199ZM89.2063 122.669C89.6354 123.082 90.6368 122.752 91.4474 121.938C92.258 121.124 92.5799 120.121 92.1627 119.696C91.7454 119.272 90.7441 119.614 89.9215 120.428C89.099 121.242 88.7294 122.256 89.2063 122.669ZM78.6562 121.159C79.2284 120.994 79.4311 119.98 79.1211 118.8C78.8112 117.62 78.0721 116.925 77.5118 117.078C76.9515 117.231 76.7369 118.257 77.0469 119.437C77.3568 120.617 78.0959 121.312 78.6562 121.147V121.159Z" fill="#FFF3DA"/>
<path fill-rule="evenodd" clip-rule="evenodd" d="M100.591 83.3311L108.554 75.7231L123.05 75.0389L113.716 83.803L100.591 83.3311Z" fill="#358541"/>
<path fill-rule="evenodd" clip-rule="evenodd" d="M123.432 105.023L129.511 84.6639L134.947 91.8002L128.653 112.206C128.653 112.206 123.455 105.129 123.432 105.023Z" fill="#00C36C"/>
<path fill-rule="evenodd" clip-rule="evenodd" d="M67.3193 127.246L73.4109 106.887L78.835 114.023L72.5407 134.429C72.5407 134.429 67.3551 127.352 67.3193 127.246Z" fill="#00C36C"/>
<path fill-rule="evenodd" clip-rule="evenodd" d="M85.3916 138.711L93.3548 131.115L107.863 130.419L98.5166 139.183L85.3916 138.711Z" fill="#358541"/>
<path fill-rule="evenodd" clip-rule="evenodd" d="M147.262 90.9509L164.237 98.7359L157.347 102.522L140.348 94.5603C140.348 94.5603 147.19 91.0217 147.262 90.9509Z" fill="#00C36C"/>
<path fill-rule="evenodd" clip-rule="evenodd" d="M82.7929 95.9523L99.7683 103.737L92.878 107.524L75.8906 99.5617L82.7929 95.9523Z" fill="#00C36C"/>
<path fill-rule="evenodd" clip-rule="evenodd" d="M163.724 39.334C163.724 39.334 170.209 41.5633 170.877 42.7665C171.545 43.9696 171.104 46.0928 172.963 47.3549C174.823 48.617 173.13 49.2422 175.777 51.1413C178.423 53.0403 178.411 52.7572 179.615 54.326C180.819 55.8948 181.427 56.6851 180.807 56.7559C178.789 56.8614 176.766 56.7427 174.775 56.402C174 56.0482 169.327 53.5711 169.28 52.3326C169.232 51.094 167.289 50.2212 166.967 49.2775C166.645 48.3339 163.915 46.6354 163.391 46.8477C162.866 47.06 165.155 42.79 166.562 44.7363C167.968 46.6825 169.506 49.3837 169.506 49.3837C169.506 49.3837 170.782 45.3379 169.113 43.887C167.444 42.4362 161.96 43.3916 160.911 41.811C159.862 40.2304 163.724 39.334 163.724 39.334Z" fill="#66380F"/>
<path fill-rule="evenodd" clip-rule="evenodd" d="M52.1325 87.2826C52.1325 87.2826 51.8464 91.2341 48.9138 93.0977C45.9813 94.9614 43.7044 96.9549 42.5719 97.3323C41.4394 97.7098 39.6989 97.1436 38.4472 97.9575C37.1955 98.7714 36.4445 99.4083 36.4207 99.9745C36.3968 100.541 36.9452 100.328 39.2221 99.6089C41.499 98.8893 45.7071 99.255 46.6608 98.1226C47.6144 96.9903 50.1417 94.006 52.4544 90.8802C54.767 87.7544 52.1325 87.2826 52.1325 87.2826Z" fill="#66380F"/>
<path fill-rule="evenodd" clip-rule="evenodd" d="M110.783 27.7627C109.106 28.2291 107.544 29.0321 106.194 30.1218C103.81 31.9737 102.856 32.7168 102.427 34.0143C101.95 35.1158 101.275 36.1229 100.436 36.9867C100.922 36.0248 101.321 35.0222 101.628 33.9907C101.878 33.0353 101.497 32.009 102.617 31.0654C103.647 30.2136 104.752 29.4556 105.92 28.8007C106.529 28.4582 107.09 28.0378 107.588 27.5504C107.588 27.5504 106.396 27.5504 106.063 27.5504C105.729 27.5504 102.689 26.8191 102.689 26.8191C102.689 26.8191 100.96 27.7863 100.209 28.2345C99.6186 28.7297 98.8735 29.0088 98.0994 29.0248C96.9073 29.1192 96.0609 29.3905 95.7152 30.452C95.3695 31.5136 95.2145 32.4101 94.3204 32.8701C93.6197 33.2244 92.8993 33.5395 92.1627 33.8138C93.1307 33.2641 93.8732 32.3959 94.2608 31.3603C94.4635 30.6526 94.535 30.0746 94.6304 29.6146C94.2966 29.8269 93.9509 30.0746 93.6052 30.3341C91.221 32.186 90.2673 32.9291 89.8382 34.2266C89.3612 35.3282 88.6868 36.3352 87.8474 37.1991C88.3315 36.2404 88.7303 35.2419 89.0395 34.2148C89.2898 33.2476 88.9202 32.2214 90.0289 31.2777C91.0584 30.4259 92.1636 29.6679 93.331 29.013C93.9403 28.6705 94.5015 28.2501 94.9999 27.7627C94.9999 27.7627 93.8078 27.7627 93.4741 27.7627C93.1403 27.7627 90.1004 27.0314 90.1004 27.0314C90.1004 27.0314 88.3719 27.9986 87.6328 28.4586C87.0308 28.9428 86.2861 29.2202 85.5109 29.2489C84.3188 29.3315 83.4724 29.6028 83.1267 30.6644C82.781 31.7259 82.626 32.6342 81.7319 33.0942C81.0294 33.4415 80.3092 33.7526 79.5742 34.0261C80.5467 33.4785 81.2936 32.6101 81.6842 31.5726C82.1014 30.0392 81.9703 29.1428 82.6737 28.7299C83.2934 28.2774 84.0197 27.9891 84.7837 27.8924C85.7373 27.8098 86.4169 28.0222 86.9175 27.338C87.4182 26.6539 87.1202 26.3354 87.4897 26.1585C88.8023 25.8035 90.1844 25.7833 91.5071 26.0995C93.4485 26.4917 95.3572 27.028 97.2172 27.7037H97.3364C98.2901 27.6212 98.9696 27.8335 99.4703 27.1493C99.971 26.4652 99.673 26.1467 100.043 25.9698C101.354 25.608 102.738 25.5877 104.06 25.9108C106.322 26.3956 108.545 27.0421 110.712 27.8453L110.783 27.7627Z" fill="#995B25"/>
<path fill-rule="evenodd" clip-rule="evenodd" d="M87.4303 180.762C87.4303 180.762 69.5489 177.294 67.5462 177.648C65.5435 178.002 65.6746 178.827 63.7196 181.505C61.7645 184.182 61.4307 185.15 62.2652 186.022C63.0997 186.895 68.9767 189.726 68.9767 189.726C71.538 187.707 74.4341 186.142 77.5359 185.102C82.2328 183.663 87.6926 181.375 87.4303 180.762Z" fill="#BF9A76"/>
<path fill-rule="evenodd" clip-rule="evenodd" d="M195.505 99.9391C195.505 99.9391 196.4 100.576 196.912 106.733C197.425 112.891 196.018 113.61 195.839 119.036C195.819 122.968 195.456 126.891 194.754 130.761C194.099 133.922 193.813 136.304 192.895 134.913C191.977 133.521 186.219 132.306 188.317 129.947C190.415 127.588 188.651 131.657 191.107 129.381C193.562 127.104 193.014 122.457 193.956 117.196C194.898 111.935 196.09 107.901 194.909 104.15C193.729 100.399 194.361 97.4149 195.505 99.9391Z" fill="#FAD58C"/>
<path fill-rule="evenodd" clip-rule="evenodd" d="M120.046 120.227C120.189 119.649 119.391 118.965 118.258 118.682C117.126 118.399 116.112 118.682 115.969 119.225C115.826 119.767 116.625 120.487 117.745 120.758C118.866 121.029 119.903 120.758 120.046 120.227ZM151.804 132.105C151.947 131.527 151.148 130.843 150.027 130.56C148.907 130.277 147.87 130.56 147.727 131.103C147.584 131.645 148.382 132.365 149.503 132.648C150.623 132.931 151.661 132.648 151.804 132.105ZM164.499 151.202C164.917 151.615 165.93 151.297 166.741 150.471C167.551 149.645 167.873 148.654 167.456 148.242C167.039 147.829 166.025 148.147 165.215 148.973C164.404 149.799 164.082 150.789 164.499 151.202ZM140.05 158.279C140.467 158.692 141.468 158.374 142.291 157.548C143.113 156.722 143.423 155.732 143.006 155.319C142.589 154.906 141.575 155.224 140.765 156.038C139.954 156.852 139.573 157.867 140.05 158.279ZM133.624 169.721C133.815 170.287 133.064 171.03 131.967 171.384C130.87 171.738 129.821 171.585 129.583 171.019C129.345 170.452 130.143 169.709 131.252 169.355C132.361 169.002 133.398 169.155 133.576 169.721H133.624ZM113.657 172.717C114.038 172.269 115.063 172.517 115.933 173.283C116.804 174.05 117.209 175.005 116.816 175.454C116.422 175.902 115.409 175.654 114.527 174.887C113.645 174.121 113.263 173.165 113.657 172.717ZM123.611 153.29C124.183 153.408 124.469 154.47 124.23 155.555C123.992 156.64 123.336 157.501 122.752 157.383C122.168 157.265 121.894 156.203 122.132 155.118C122.371 154.033 123.026 153.172 123.611 153.29ZM157.156 117.904C157.299 117.326 156.5 116.642 155.38 116.37C154.259 116.099 153.222 116.37 153.079 116.901C152.936 117.432 153.735 118.163 154.867 118.446C156 118.729 157.013 118.446 157.156 117.904ZM128.617 140.421C129.035 140.834 130.036 140.504 130.847 139.69C131.657 138.876 132.039 137.873 131.562 137.46C131.085 137.048 130.143 137.366 129.321 138.18C128.498 138.994 128.188 140.008 128.617 140.421ZM118.067 138.911C118.64 138.746 118.842 137.732 118.52 136.611C118.198 135.491 117.483 134.736 116.911 134.901C116.339 135.066 116.136 136.08 116.458 137.26C116.78 138.44 117.495 139.135 118.067 138.97V138.911Z" fill="#FFF3DA"/>
<path fill-rule="evenodd" clip-rule="evenodd" d="M25.3101 142.768C26.8561 144.577 29.0281 145.751 31.4017 146.059C35.3357 146.578 38.6497 140.846 40.5093 139.265C42.369 137.685 45.6592 141.73 40.5093 151.332C35.3595 160.933 35.3595 160.603 32.0097 158.869C28.6599 157.135 19.8384 139.383 25.3936 142.768H25.3101Z" fill="#E6551C"/>
<path fill-rule="evenodd" clip-rule="evenodd" d="M68.6077 26.1821C68.6077 26.1821 62.1703 33.9789 53.9806 37.0811C45.7909 40.1833 43.4902 41.5633 44.6585 41.9408C45.8267 42.3182 47.3287 52.25 48.5208 53.347C49.7129 54.444 49.5222 46.9421 48.6639 44.5004C47.8056 42.0588 51.4653 42.7901 59.1067 37.7534C66.748 32.7168 73.4118 23.1624 68.6434 26.1821H68.6077Z" fill="#F77745"/>
<path fill-rule="evenodd" clip-rule="evenodd" d="M150.611 146.85C150.611 146.85 150.147 154.835 152.686 156.357C155.225 157.878 155.642 152.075 158.241 155.708C160.84 159.341 161.221 160.426 163.009 160.12C164.797 159.813 167.205 164.956 163.367 165.522C159.528 166.088 158.599 156.628 156.024 158.044C153.449 159.459 153.151 165.416 150.778 160.969C148.406 156.522 152.209 154.753 148.692 150.86C145.176 146.968 148.907 140.633 150.564 146.85H150.611Z" fill="#F77745"/>
<path fill-rule="evenodd" clip-rule="evenodd" d="M115.23 104.964C119.617 106.25 122.919 114.294 122.609 122.94C122.299 131.586 118.472 137.567 114.074 136.293C109.675 135.019 106.373 126.963 106.695 118.305C107.016 109.647 110.831 103.69 115.23 104.964ZM115.051 110.567C117.626 111.322 119.545 115.651 119.307 121.985C119.068 128.319 117.006 131.775 114.431 131.02C111.856 130.265 109.758 125.606 109.997 119.225C110.235 112.843 112.488 109.788 115.051 110.52V110.567Z" fill="#00C36C"/>
</g>
<defs>
<clipPath id="clip0_76_13552">
<rect width="184" height="185" fill="white" transform="translate(16 15)"/>
</clipPath>
</defs>
</svg>
