<svg width="215" height="215" viewBox="0 0 215 215" fill="none" xmlns="http://www.w3.org/2000/svg">
<g clip-path="url(#clip0_76_15166)">
<path d="M147.848 80.634C147.848 71.415 146.968 65.269 148.3 64.3652C149.689 63.2312 151.372 62.5179 153.153 62.3091C155.049 62.3091 156.313 63.1225 158.164 62.8513C159.225 62.6706 160.263 62.5576 161.347 62.4446C163.604 62.1961 165.748 62.0379 168.118 61.7442C170.195 61.4956 172.43 61.1567 174.89 60.637C176.177 60.3659 177.508 60.0496 178.93 59.6428C181.407 58.8156 183.995 58.3661 186.605 58.3096C187.8 58.2353 188.991 58.0996 190.172 57.9029C192.564 57.5188 191.977 66.9412 191.436 79.2783C189.652 91.5024 190.104 106.551 188.163 118.866C186.221 131.18 184.325 140.241 183.445 139.721L172.746 136.174C170.669 135.922 168.611 135.537 166.583 135.021C165.116 134.682 163.446 134.253 161.617 133.756C159.789 133.259 157.103 132.445 154.53 131.496L153.333 131.09C151.934 130.615 149.541 129.598 147.261 128.604C143.537 126.955 140.106 125.35 141.844 125.915C138.458 124.808 142.882 118.82 145.41 110.234C145.907 101.173 148.525 89.8981 147.848 80.634Z" fill="#D47930"/>
<path d="M174.281 77.4255C174.71 70.805 175.206 64.7269 174.98 60.6597C176.267 60.3885 177.599 60.0722 179.021 59.6655C181.498 58.8382 184.085 58.3888 186.696 58.3323C187.508 61.5408 187.17 69.2685 186.696 78.5326C184.98 90.9827 185.409 106.325 183.377 118.866C182.464 125.465 181.137 132 179.405 138.433L172.633 136.174C170.556 135.922 168.498 135.537 166.471 135.021C168.404 129.396 169.876 123.623 170.872 117.758C172.836 105.512 175.793 89.9433 174.281 77.4255Z" fill="#F5A655"/>
<g opacity="0.66">
<path d="M147.848 80.634C147.848 71.415 146.968 65.269 148.3 64.3652C149.689 63.2312 151.372 62.5179 153.153 62.3091C153.401 65.9921 153.401 71.1439 153.311 76.9509C152.182 88.6779 152.363 103.094 150.196 114.821C149.203 120.425 148.164 125.26 147.261 128.74C143.537 127.09 140.106 125.486 141.844 126.051C138.458 124.944 142.882 118.956 145.41 110.37C145.907 101.173 148.525 89.8981 147.848 80.634Z" fill="#F5A655"/>
</g>
<g opacity="0.48">
<path d="M161.482 75.5725C161.482 70.7145 161.482 66.1502 161.347 62.4446C163.604 62.196 165.748 62.0379 168.118 61.7441C168.389 65.6306 168.502 70.8953 168.479 76.8153C167.78 89.4009 167.486 104.901 165.139 117.487C163.92 124.266 162.588 130.005 161.55 133.801C159.292 133.214 157.035 132.491 154.462 131.542C155.568 127.904 156.832 123.091 157.983 117.352C160.421 104.743 162.678 88.5423 161.482 75.5725Z" fill="#F5A655"/>
</g>
<path d="M119.159 185.613C113.155 194.854 109.137 201.045 107.579 200.977H106.654C105.217 200.952 103.826 200.469 102.681 199.599C101.281 198.402 101.011 196.775 99.4983 195.78L98.144 194.877L96.9476 194.018L92.9071 191.081L91.4851 190.064C90.221 189.16 88.8441 188.256 87.3092 187.33L85.8871 186.516C85.1648 186.11 84.4425 185.703 83.6299 185.296L82.3207 184.641C80.0244 183.641 77.8873 182.309 75.9778 180.687C75.3683 180.212 74.646 179.67 73.5851 178.969L73.1337 178.676C71.1473 177.388 77.0613 171.423 83.5847 162.565C91.1465 154.386 97.1282 142.094 102.997 132.626C108.866 123.159 112.703 115.838 113.448 116.538L122.613 122.481C123.501 122.81 124.368 123.195 125.208 123.633L128.007 125.034C129.294 125.689 130.761 126.48 132.364 127.294L134.057 128.288C135.456 129.101 136.946 130.005 138.571 130.999L139.587 131.632C140.783 132.4 142.747 133.891 144.598 135.451C147.623 137.936 150.354 140.376 148.864 139.405C149.587 139.879 149.699 140.602 149.338 141.664C148.3 144.511 143.311 149.369 138.413 155.606C133.538 165.548 124.689 176.122 119.159 185.613Z" fill="#D47930"/>
<path d="M92.0713 174.744C89.1143 178.676 86.1799 182.246 83.742 185.296L82.4328 184.641C80.1365 183.641 77.9994 182.309 76.0899 180.687C75.4805 180.212 74.7582 179.67 73.6973 178.969C76.1125 175.716 79.4307 171.536 82.9294 166.655C91.7778 156.51 99.4073 141.8 106.495 130.321C109.723 125.147 112.432 120.56 114.531 117.148L122.725 122.481C123.613 122.81 124.48 123.195 125.32 123.633C123.063 126.864 120.535 130.909 117.533 135.518C110.129 147.878 98.9785 162.068 92.0713 174.744Z" fill="#F6AE65"/>
<g opacity="0.66">
<path d="M116.743 186.539C113.711 191.561 110.34 196.37 106.653 200.932C105.217 200.906 103.825 200.424 102.681 199.554C101.281 198.356 101.01 196.729 99.4979 195.735L98.1436 194.832C100.401 191.939 103.177 188.595 105.931 184.867C116.472 173.818 124.576 156.871 132.499 143.924C135.275 139.405 137.713 135.247 139.745 131.813C140.941 132.581 142.905 134.072 144.756 135.631C147.78 138.117 150.512 140.557 149.022 139.586C149.744 140.06 149.857 140.783 149.496 141.845C146.923 144.828 142.544 148.624 138.458 153.143C133.537 164.486 122.612 175.693 116.743 186.539Z" fill="#F5A655"/>
</g>
<path d="M99.6783 181.929C97.4211 185.206 95.1638 188.301 93.1097 190.968L91.6876 189.951C90.4236 189.047 89.0466 188.143 87.5117 187.217C89.769 184.144 92.2745 180.438 95.0284 176.484C103.764 165.005 112.703 149.55 120.468 137.281C123.47 132.558 126.088 128.243 128.232 124.921C129.519 125.576 130.986 126.367 132.589 127.181L134.282 128.175C132.183 131.361 129.767 135.112 127.036 139.314C118.82 152.781 107.488 168.553 99.6783 181.929Z" fill="#F9BD81"/>
<path d="M73.0204 104.54C82.5459 105.105 88.9339 105.489 89.5434 106.8C90.378 108.347 90.7243 110.112 90.5366 111.861C90.2206 113.714 89.092 114.776 88.9791 116.629C88.9791 117.691 88.8211 118.73 88.7082 119.769C88.5051 122.029 88.2116 124.13 88.0084 126.548C87.8053 128.966 87.6924 130.819 87.6699 133.327C87.6699 134.615 87.6699 135.97 87.6699 137.416C87.8658 139.967 87.7522 142.531 87.3313 145.054C87.2184 145.912 87.1056 146.997 86.9927 148.601C86.8573 150.996 79.8598 148.827 70.4019 147.607C61.0118 145.122 49.1387 146.071 39.5228 145.799C29.907 145.528 22.7063 145.799 22.9095 144.805L23.5867 133.666C23.3535 131.603 23.233 129.528 23.2255 127.452C23.2255 125.983 23.2255 124.289 23.2255 122.391C23.2255 120.493 23.2255 117.736 23.4287 115.092V113.872C23.4287 112.403 23.8575 109.873 24.2187 107.455C24.8056 103.523 25.5279 99.8628 25.415 101.67C25.6182 98.1907 32.9316 101.128 42.0283 102.642C51.7345 102.281 63.5625 104.54 73.0204 104.54Z" fill="#D47930"/>
<path d="M73.5625 130.841C79.2056 131.722 84.2392 133.101 87.6703 133.417C87.6703 134.705 87.6703 136.061 87.6703 137.507C87.8662 140.057 87.7526 142.621 87.3317 145.144C84.6907 145.438 78.7542 144.014 71.3955 143.088C61.5765 140.557 49.1391 141.484 39.0718 141.167C31.668 140.941 25.7992 141.032 23.1582 140.738L23.5871 133.756C23.3539 131.693 23.2334 129.618 23.2259 127.542C26.4764 128.062 31.8034 128.378 38.53 128.785C49.41 128.875 62.7503 131.338 73.5625 130.841Z" fill="#F5A655"/>
<g opacity="0.66">
<path d="M73.0207 104.54C82.5463 105.105 88.9343 105.489 89.5438 106.8C90.3784 108.347 90.7247 110.112 90.537 111.861C86.9254 111.477 81.9142 110.709 76.1808 110.121C64.6463 107.862 50.1774 108.359 38.4397 107.862C32.7966 107.636 27.9209 107.545 24.3545 107.41C24.9414 103.478 25.6637 99.8176 25.5508 101.625C25.754 98.1456 33.0674 101.083 42.1641 102.597C51.7348 102.281 63.5628 104.54 73.0207 104.54Z" fill="#FAC691"/>
</g>
<g opacity="0.48">
<path d="M76.564 118.391C81.0785 118.865 85.277 119.453 88.708 119.882C88.5048 122.142 88.2113 124.243 88.0082 126.661C84.5772 126.322 79.9273 125.734 74.6453 125.26C63.3591 123.498 49.5222 123.61 38.1682 123.113C32.0059 122.82 26.882 122.662 23.293 122.503C23.293 120.244 23.293 117.849 23.4961 115.205C27.04 115.499 31.7125 115.77 37.175 116.086C49.319 116.47 64.3974 118.301 76.564 118.391Z" fill="#F5A655"/>
</g>
<path d="M137.488 78.9619C135.411 88.1131 134.666 94.3946 133.312 95.0499C131.893 95.9089 130.249 96.3185 128.594 96.2249C126.924 95.9763 126.021 94.8239 124.35 94.7787C123.38 94.7787 122.432 94.7787 121.461 94.6205C119.497 94.4624 117.511 94.2138 115.299 94.0783C113.241 93.9262 111.177 93.881 109.114 93.9427C107.94 93.9427 106.699 94.0557 105.389 94.2138C103.073 94.5969 100.709 94.5969 98.392 94.2138C97.3216 94.0699 96.244 93.987 95.1642 93.9653C92.9069 93.9653 94.9385 84.7464 97.3086 72.816C100.807 61.1342 102.636 46.1759 106.134 34.2229C109.633 22.2699 112.613 13.4125 113.448 14.1129L123.741 19.6036C125.791 20.2198 127.797 20.9747 129.745 21.8631C131.16 22.4657 132.762 23.2189 134.553 24.1227C136.63 25.1169 138.932 26.2693 141.325 27.5799L142.453 28.1674C143.808 28.913 146.042 30.4268 148.209 31.76C151.686 34.0195 154.981 36.279 153.198 35.4204C156.426 37.1603 150.76 42.1991 146.426 50.1979C144.056 58.9876 139 69.6526 137.488 78.9619Z" fill="#D47930"/>
<path d="M112.726 77.5837C111.146 84.0234 109.633 89.9208 109.114 93.9428C107.941 93.9428 106.699 94.0557 105.39 94.2139C103.073 94.597 100.709 94.597 98.3924 94.2139C98.1892 90.9375 99.7016 83.4358 101.507 74.3976C105.074 62.4446 107.06 47.2831 110.785 35.059C112.594 28.6374 114.765 22.3233 117.286 16.1466L123.741 19.6036C125.791 20.2199 127.798 20.9748 129.746 21.8632C127.02 27.1568 124.696 32.648 122.793 38.2901C119.024 50.1076 113.561 64.9754 112.726 77.5837Z" fill="#F5A655"/>
<g opacity="0.66">
<path d="M137.487 78.9619C135.411 88.1131 134.666 94.3946 133.311 95.0499C131.893 95.9089 130.249 96.3186 128.594 96.2249C129.181 92.4966 130.309 87.39 131.686 81.6508C135.32 70.3531 138.3 56.005 142.679 44.8202C144.756 39.4651 146.697 34.9007 148.254 31.6018C151.73 33.8614 155.026 36.121 153.243 35.2624C156.471 37.0022 150.805 42.041 146.471 50.0398C144.056 58.9876 139 69.6526 137.487 78.9619Z" fill="#FCD5AD"/>
</g>
<g opacity="0.48">
<path d="M123.989 81.6055C122.973 86.3957 122.048 90.8922 121.461 94.6205C119.497 94.4623 117.511 94.2138 115.299 94.0782C115.795 90.2144 116.698 85.0401 117.827 79.1427C120.874 66.8507 124.034 51.6214 128.391 39.5554C130.648 33.0253 132.905 27.5799 134.553 23.9646C136.63 24.9588 138.932 26.1111 141.325 27.4216C139.609 30.811 137.533 35.3752 135.366 40.8433C130.829 52.9771 125.524 68.5905 123.989 81.6055Z" fill="#F5A655"/>
</g>
<path d="M43.9928 71.2343C36.9502 63.3485 32.2099 58.0612 32.7065 56.5925L33 55.7339C33.3833 54.3909 34.1717 53.1993 35.2572 52.3219C36.7696 51.2825 38.3722 51.4406 39.7717 50.243L40.9907 49.2037L42.1193 48.2772L45.8889 45.2495L47.2207 44.1424C48.3944 43.1708 49.6134 42.1088 50.9 40.8886C51.2612 40.5045 51.6674 40.1204 52.0511 39.7362L53.7893 37.9286C54.0827 37.5671 54.4213 37.2281 54.7373 36.8439C56.2941 34.9211 58.1185 33.2319 60.1547 31.8278C60.7415 31.3759 61.4639 30.811 62.4119 29.975L62.7957 29.636C64.5337 28.0769 68.529 35.1042 75.0976 43.3967C80.7407 52.4349 90.65 61.2019 97.9635 68.9748C105.277 76.7476 111.101 82.193 110.266 82.7353L102.23 89.9433C101.677 90.7286 101.082 91.483 100.447 92.2028L98.3924 94.4624C97.4444 95.5243 96.2932 96.7219 95.0291 98.0099C94.5777 98.4392 94.1262 98.9138 93.6296 99.3657C92.501 100.495 91.3724 101.625 89.9277 102.868L89.0474 103.681C88.0091 104.63 86.0452 106.099 84.1266 107.5C81.0116 109.76 77.9869 111.725 79.2961 110.55C78.9959 110.848 78.5903 111.016 78.1675 111.016C77.7447 111.016 77.339 110.848 77.0389 110.55C74.6462 108.878 71.4184 102.981 66.9039 96.8575C59.0486 89.6721 51.4191 78.7586 43.9928 71.2343Z" fill="#D47930"/>
<path d="M61.4186 48.3451C58.5294 44.5942 55.9561 40.9564 53.7666 37.9286C54.06 37.5671 54.3986 37.2281 54.7146 36.8439C56.2714 34.9211 58.0959 33.2319 60.1321 31.8278C60.7189 31.3759 61.4413 30.811 62.3893 29.975C64.782 33.048 67.8067 37.2055 71.4183 41.6794C78.5512 52.5026 90.334 63.258 99.1824 72.7255C103.178 77.0187 106.722 80.7018 109.363 83.481L102.184 89.9433C101.632 90.7286 101.037 91.483 100.401 92.2028C97.9635 89.3558 94.8936 85.8988 91.3723 81.9671C81.779 71.8896 71.4634 57.9256 61.4186 48.3451Z" fill="#F7B16B"/>
<g opacity="0.66">
<path d="M43.7672 68.7487C39.8753 64.6645 36.2701 60.3159 32.9775 55.7339C33.3609 54.3909 34.1492 53.1993 35.2348 52.3219C36.7471 51.2825 38.3498 51.4406 39.7493 50.243L40.9681 49.2037C43.0674 52.096 45.4826 55.4401 48.2365 58.9424C55.7757 71.5732 69.4997 83.3228 79.4993 93.9427C83.0206 97.671 86.2711 100.97 88.9121 103.704C87.8738 104.653 85.9099 106.122 83.9912 107.523C80.8762 109.782 77.8516 111.748 79.1608 110.573C78.8606 110.871 78.4549 111.038 78.0321 111.038C77.6094 111.038 77.2037 110.871 76.9035 110.573C74.7817 107.41 72.389 102.393 69.2514 97.4224C59.9516 89.8981 52.277 76.9057 43.7672 68.7487Z" fill="#F5A655"/>
</g>
<g opacity="0.48">
<path d="M52.6829 53.655C50.2225 50.695 47.9201 47.8255 45.9111 45.2496L47.2429 44.1424C48.4167 43.1708 49.6356 42.1088 50.9222 40.8887C53.1795 43.6905 55.9333 47.012 58.9806 50.5821C67.4001 61.5861 79.499 73.765 88.9117 84.0686C92.5459 88.0454 95.7963 91.5477 98.4147 94.3947C97.4666 95.4567 96.3155 96.6543 95.0514 97.9422C94.6 98.3715 94.1485 98.846 93.6519 99.2979C91.2366 96.5412 88.3925 93.3553 85.1647 89.7627C74.8491 78.9168 63.0888 64.3879 52.6829 53.655Z" fill="#F5A655"/>
</g>
<path d="M128.91 115.634C137.15 115.634 143.83 108.907 143.83 100.608C143.83 92.3098 137.15 85.5824 128.91 85.5824C120.669 85.5824 113.989 92.3098 113.989 100.608C113.989 108.907 120.669 115.634 128.91 115.634Z" fill="#FDFBE4"/>
<path d="M141.866 100.586C141.853 103.148 141.082 105.649 139.65 107.773C138.218 109.897 136.19 111.549 133.821 112.52C131.452 113.491 128.849 113.738 126.341 113.23C123.832 112.722 121.529 111.482 119.724 109.665C117.919 107.849 116.692 105.538 116.197 103.024C115.703 100.51 115.963 97.9052 116.946 95.5392C117.928 93.1733 119.589 91.1516 121.718 89.7294C123.848 88.3073 126.35 87.5483 128.91 87.5482C132.354 87.5602 135.653 88.9399 138.082 91.3842C140.511 93.8286 141.872 97.138 141.866 100.586Z" fill="#F8DFAE"/>
<path d="M140.083 100.586C140.061 102.793 139.387 104.944 138.146 106.769C136.905 108.593 135.152 110.009 133.108 110.838C131.065 111.668 128.822 111.873 126.662 111.429C124.502 110.984 122.522 109.91 120.97 108.342C119.419 106.773 118.366 104.78 117.944 102.614C117.522 100.447 117.75 98.2042 118.599 96.167C119.447 94.1298 120.88 92.3896 122.714 91.1655C124.549 89.9414 126.705 89.2882 128.91 89.2881C131.884 89.3179 134.726 90.5213 136.818 92.6369C138.91 94.7524 140.084 97.6089 140.083 100.586Z" fill="#FDFBE4"/>
<path d="M138.526 100.586C138.53 102.495 137.967 104.363 136.908 105.951C135.849 107.54 134.342 108.777 132.579 109.505C130.815 110.234 128.876 110.421 127.006 110.043C125.136 109.665 123.421 108.738 122.078 107.382C120.736 106.025 119.827 104.3 119.467 102.424C119.107 100.549 119.312 98.6091 120.056 96.851C120.801 95.0929 122.051 93.5963 123.648 92.5513C125.244 91.5064 127.115 90.9603 129.023 90.9827C131.546 91.024 133.953 92.0517 135.728 93.8463C137.504 95.6409 138.508 98.0598 138.526 100.586Z" fill="#FAE6C1"/>
<path d="M139.383 182.042C133.898 184.121 128.097 182.042 126.269 177.343C124.441 172.643 127.556 167.242 133.041 165.164C138.526 163.085 144.327 165.164 146.155 169.863C147.984 174.563 144.823 179.986 139.383 182.042Z" fill="#FDFBE4"/>
<path d="M138.978 180.935C134.215 182.743 129.091 180.935 127.579 176.868C126.066 172.801 128.685 168.078 133.47 166.271C138.255 164.463 143.334 166.271 144.756 170.36C146.178 174.45 143.74 179.105 138.978 180.935Z" fill="#F8DFAE"/>
<path d="M138.594 179.918C137.326 180.159 136.017 180.033 134.819 179.553C133.621 179.074 132.584 178.262 131.832 177.214C131.079 176.165 130.641 174.923 130.57 173.633C130.499 172.344 130.797 171.061 131.429 169.935C132.062 168.81 133.002 167.889 134.14 167.28C135.278 166.671 136.566 166.401 137.852 166.5C139.138 166.599 140.369 167.064 141.4 167.84C142.432 168.616 143.22 169.671 143.673 170.88C144.169 172.752 143.916 174.744 142.967 176.432C142.019 178.12 140.45 179.371 138.594 179.918Z" fill="#FDFBE4"/>
<path d="M138.255 179.105C137.155 179.331 136.013 179.237 134.964 178.834C133.915 178.432 133.003 177.738 132.336 176.833C131.668 175.929 131.272 174.853 131.195 173.731C131.119 172.61 131.364 171.489 131.902 170.502C132.44 169.516 133.248 168.703 134.232 168.161C135.216 167.619 136.335 167.37 137.455 167.442C138.576 167.515 139.653 167.908 140.558 168.573C141.464 169.238 142.161 170.148 142.566 171.197C143.036 172.818 142.846 174.558 142.038 176.04C141.231 177.521 139.871 178.623 138.255 179.105Z" fill="#FAE6C1"/>
<path d="M66.384 151.2C64.3525 146.342 65.6617 141.167 69.2959 139.631C72.9301 138.094 77.5348 140.828 79.5663 145.664C81.5979 150.499 80.2886 155.696 76.6545 157.233C73.0203 158.769 68.4156 156.058 66.384 151.2Z" fill="#FDFBE4"/>
<path d="M67.2419 150.838C65.4812 146.613 66.6098 142.116 69.77 140.783C72.9301 139.45 76.9255 141.822 78.6861 146.025C80.4468 150.228 79.3181 154.747 76.158 156.08C72.9978 157.413 69.0025 155.041 67.2419 150.838Z" fill="#F8DFAE"/>
<path d="M68.0768 150.499C66.5644 146.861 67.535 142.997 70.334 141.845C73.133 140.693 76.4963 142.726 78.0087 146.364C79.521 150.002 78.5504 153.866 75.7514 155.018C72.9524 156.171 69.544 154.25 68.0768 150.499Z" fill="#FDFBE4"/>
<path d="M68.7321 150.206C67.4229 147.087 68.258 143.743 70.6056 142.772C72.9531 141.8 75.9101 143.517 77.2193 146.658C78.5285 149.799 77.6708 153.12 75.3458 154.092C73.0208 155.063 70.0413 153.346 68.7321 150.206Z" fill="#FAE6C1"/>
<path d="M90.8758 29.1616C85.165 29.1616 80.199 33.274 77.6709 39.307L79.5896 40.0751L81.3502 40.7982L82.9077 41.4083L84.4652 42.0411C85.091 40.8678 86.0112 39.8778 87.1352 39.1686C88.2593 38.4595 89.5484 38.0554 90.8758 37.9964C92.772 38.1695 94.5577 38.9661 95.9542 40.2619C97.3507 41.5576 98.2794 43.2795 98.5955 45.1591H105.661C104.464 36.0757 98.3021 29.1616 90.8758 29.1616Z" fill="#FDFBE4"/>
<path d="M90.8751 31.6923C88.3836 31.8407 85.9893 32.7127 83.9849 34.2014C81.9806 35.6902 80.453 37.7312 79.5889 40.0751L81.3495 40.7982L82.907 41.4083L84.4645 42.041C85.0903 40.8677 86.0105 39.8778 87.1345 39.1686C88.2586 38.4594 89.5477 38.0554 90.8751 37.9963C92.7713 38.1695 94.557 38.9661 95.9535 40.2618C97.35 41.5575 98.2787 43.2795 98.5948 45.1591H103.674C102.477 37.4766 97.218 31.6923 90.8751 31.6923Z" fill="#FAE6C1"/>
<path d="M90.8752 33.9971C88.8099 34.1108 86.819 34.8077 85.1332 36.0074C83.4473 37.2071 82.1355 38.8604 81.3496 40.7757L82.9071 41.3857L84.4646 42.0184C85.0904 40.8452 86.0106 39.8552 87.1346 39.146C88.2587 38.4368 89.5478 38.0328 90.8752 37.9738C92.7714 38.1469 94.5571 38.9435 95.9536 40.2392C97.3501 41.535 98.2788 43.257 98.5949 45.1366H101.936C100.672 38.7647 96.2023 33.9971 90.8752 33.9971Z" fill="#FDFBE4"/>
<path d="M90.8753 36.0305C89.1839 36.1157 87.5478 36.6616 86.1435 37.6093C84.7393 38.557 83.6203 39.8706 82.9072 41.4082L84.4647 42.041C85.0905 40.8677 86.0107 39.8777 87.1347 39.1686C88.2588 38.4594 89.5479 38.0553 90.8753 37.9963C92.7715 38.1694 94.5572 38.9661 95.9537 40.2618C97.3502 41.5575 98.2789 43.2794 98.595 45.159H100.198C99.0917 39.8943 95.3446 36.0305 90.8753 36.0305Z" fill="#F8DFAE"/>
<path d="M104.013 113.578C104.557 110.779 104.299 107.882 103.268 105.223C102.238 102.565 100.477 100.252 98.1889 98.5521L97.128 100.315L96.1123 101.941L95.2545 103.365L94.3741 104.788C95.2661 105.72 95.9191 106.854 96.2768 108.094C96.6346 109.334 96.6865 110.642 96.4282 111.906C95.9757 113.66 94.9681 115.219 93.5561 116.352C92.1442 117.484 90.4038 118.128 88.5956 118.188L87.0381 125.215C90.7894 125.624 94.5631 124.675 97.6765 122.541C100.79 120.407 103.038 117.227 104.013 113.578Z" fill="#FDFBE4"/>
<path d="M101.936 113.013C102.4 110.653 102.205 108.211 101.373 105.955C100.541 103.699 99.1034 101.716 97.2186 100.224L96.2028 101.851L95.3451 103.275L94.4648 104.698C95.3568 105.63 96.0097 106.764 96.3675 108.004C96.7252 109.244 96.7772 110.551 96.5189 111.816C96.0663 113.569 95.0587 115.129 93.6467 116.261C92.2347 117.393 90.4945 118.038 88.6862 118.097L87.5576 123.136C90.7605 123.409 93.957 122.544 96.5863 120.693C99.2156 118.842 101.11 116.123 101.936 113.013Z" fill="#FAE6C1"/>
<path d="M99.859 112.584C100.252 110.623 100.112 108.592 99.4529 106.704C98.7938 104.816 97.6399 103.14 96.112 101.851L95.2543 103.275L94.3739 104.698C95.2659 105.63 95.9188 106.764 96.2766 108.004C96.6344 109.243 96.6863 110.551 96.428 111.816C95.9755 113.569 94.9679 115.129 93.5559 116.261C92.144 117.393 90.4036 118.038 88.5954 118.097L87.873 121.306C90.5672 121.449 93.2286 120.66 95.4109 119.072C97.5932 117.484 99.1637 115.193 99.859 112.584Z" fill="#FDFBE4"/>
<path d="M98.1211 112.2C98.4473 110.591 98.3549 108.925 97.8529 107.362C97.3509 105.799 96.4562 104.392 95.2544 103.275L94.3741 104.698C95.2661 105.63 95.919 106.764 96.2768 108.004C96.6345 109.243 96.6865 110.551 96.4282 111.816C95.9756 113.569 94.968 115.129 93.5561 116.261C92.1441 117.393 90.4038 118.038 88.5955 118.097L88.2344 119.702C90.4835 119.74 92.6803 119.021 94.4729 117.661C96.2656 116.301 97.5502 114.378 98.1211 112.2Z" fill="#F8DFAE"/>
<path d="M147.623 161.955C150.151 158.882 156.855 150.657 164.507 147.042C166.764 146.726 162.249 141.167 161.459 142.749C157.825 145.008 147.126 153.663 144.124 159.311C143.695 160.102 147.239 162.565 147.623 161.955Z" fill="url(#paint0_linear_76_15166)"/>
<path d="M110.965 70.1271C120.777 77.6315 129.847 86.0604 138.052 95.2984C139.564 97.6935 144.169 95.1176 142.002 93.6037C137.352 88.6327 123.357 71.6635 114.486 65.8113C112.951 64.8849 109.791 69.4493 110.965 70.1271Z" fill="#547B3B"/>
<path d="M50.019 154.25C58.7875 155.349 67.3674 157.629 75.5259 161.029C77.2414 162.226 79.5664 157.639 77.7831 157.526C73.2686 155.832 58.8223 149.03 51.1703 148.827C49.7933 148.804 49.0033 154.25 50.019 154.25Z" fill="#547B3B"/>
<path d="M43.9018 63.8681C42.886 67.3026 40.2451 76.386 35.3017 82.6223C33.6313 83.8651 39.0938 85.8987 39.2067 84.3622C41.4639 80.9729 47.0845 69.743 47.6037 64.2071C47.7617 63.3937 43.9921 63.2354 43.9018 63.8681Z" fill="url(#paint1_linear_76_15166)"/>
<path d="M67.7609 72.7256C67.0391 74.1256 66.1688 75.4437 65.165 76.6572C64.375 73.652 63.3141 70.2175 62.9078 69.0877C62.5153 67.4144 62.3258 65.6998 62.3435 63.9811C62.2542 63.1279 62.0726 62.287 61.8018 61.4731C62.1855 60.2077 62.5692 59.078 62.9078 59.2135C63.2464 59.3491 64.691 57.564 64.9393 57.7674C65.1876 57.9707 67.1966 67.0767 67.4223 67.619C67.6601 69.3105 67.7733 71.0174 67.7609 72.7256Z" fill="#48A548"/>
<path d="M65.1648 76.6572C64.8037 77.1091 64.5103 77.3577 64.42 77.3351C64.3297 77.3125 60.3118 65.3143 61.0341 63.7779C61.3593 63.0428 61.6382 62.2882 61.8693 61.5183C62.1401 62.3322 62.3217 63.1732 62.411 64.0264C62.3933 65.7451 62.5828 67.4597 62.9753 69.133C63.3139 70.2175 64.3748 73.652 65.1648 76.6572Z" fill="#00753D"/>
</g>
<defs>
<linearGradient id="paint0_linear_76_15166" x1="167.1" y1="143.578" x2="152.318" y2="159.112" gradientUnits="userSpaceOnUse">
<stop stop-color="#CEE6BD"/>
<stop offset="0.49" stop-color="#7FA437"/>
</linearGradient>
<linearGradient id="paint1_linear_76_15166" x1="39.3552" y1="86.5657" x2="43.8144" y2="67.7408" gradientUnits="userSpaceOnUse">
<stop stop-color="#CEE6BD"/>
<stop offset="0.49" stop-color="#7FA437"/>
</linearGradient>
<clipPath id="clip0_76_15166">
<rect width="169" height="187" fill="white" transform="translate(23 14)"/>
</clipPath>
</defs>
</svg>
