<svg width="215" height="215" viewBox="0 0 215 215" fill="none" xmlns="http://www.w3.org/2000/svg">
<g clip-path="url(#clip0_246_1701)">
<path d="M202.54 110.282C202.032 109.551 201.416 108.901 200.713 108.355C201.119 107.48 201.329 106.526 201.329 105.561C201.329 104.597 201.119 103.643 200.713 102.768C200.718 102.726 200.718 102.684 200.713 102.642C202.247 99.7654 199.793 96.1341 196.822 95.4218C196.66 94.9659 196.529 94.4992 196.432 94.0251C198.245 89.1089 197.575 83.257 196.766 77.9078C196.703 76.7117 196.28 75.5627 195.553 74.6117C194.985 74.0602 194.291 73.6572 193.531 73.4385C193.488 73.2579 193.432 73.0805 193.363 72.9078V72.824C193.426 72.6375 193.473 72.4459 193.503 72.2514C193.569 71.6666 193.489 71.0744 193.27 70.5283C193.051 69.9821 192.7 69.4992 192.248 69.1229C191.442 68.4619 190.482 68.0151 189.458 67.824C189.994 66.5182 190.059 65.0659 189.64 63.7178C189.378 63.2166 189 62.7855 188.538 62.4609C188.82 61.3295 188.91 60.1585 188.803 58.9972C188.51 56.0363 186.013 53.1034 183.113 53.4106C182.23 53.5582 181.362 53.7825 180.518 54.081C180.156 53.4665 179.821 52.838 179.486 52.1955C179.361 50.1285 178.998 48.243 177.311 47.2374C176.49 46.8517 175.636 46.5431 174.758 46.3156C174.727 46.2156 174.69 46.1177 174.647 46.0223C174.854 45.1539 174.91 44.2563 174.814 43.3687C174.66 42.6061 174.348 41.8843 173.899 41.2493C173.45 40.6144 172.873 40.0804 172.206 39.6815C172.228 39.0364 172.122 38.3934 171.894 37.7895C171.667 37.1855 171.323 36.6324 170.881 36.162C169.082 34.5559 166.697 35.6033 164.229 36.8603C163.467 36.5813 162.738 36.2207 162.053 35.7849C161.216 33.9687 160.106 32.2918 158.762 30.8128C159.17 30.4928 159.599 30.1989 160.045 29.933C161.328 28.243 159.431 25.743 157.325 25.4078C156.022 25.2966 154.711 25.4828 153.49 25.9525L150.993 24.0251C150.11 23.2199 149.008 22.6949 147.827 22.5167C147.032 22.5172 146.25 22.719 145.554 23.1033C145.289 22.9026 144.998 22.7382 144.689 22.6145L144.397 22.5167C144.317 22.2007 144.209 21.8923 144.076 21.595C142.876 19.0531 140.073 18.9134 137.033 18.9553C137.001 18.8917 136.963 18.831 136.921 18.7737C135.317 16.6089 132.137 16.4134 129.501 16.9301C128.72 17.0838 127.953 17.2793 127.172 17.4748C126.295 17.244 125.37 17.2731 124.509 17.5586C124.095 17.7073 123.706 17.9143 123.351 18.1732C122.75 18.2128 122.147 18.1894 121.552 18.1034C121.161 17.9916 120.785 17.8519 120.394 17.7262C118.804 16.2598 117.187 15.0587 115.206 15.5614C114.85 15.6563 114.504 15.7874 114.174 15.9525C112.999 14.7101 111.532 13.7832 109.906 13.257C108.629 12.9999 107.305 13.1063 106.085 13.5643C105.238 12.6979 104.087 12.1967 102.877 12.1676C101.19 12.2514 100.199 13.4804 99.4603 15.0866C99.0992 15.2433 98.7497 15.4253 98.4143 15.6313C98.136 15.5908 97.8609 15.5301 97.5914 15.4497C96.1967 15.0307 95.095 14.0531 93.7142 13.6061C92.4606 13.3054 91.1432 13.4231 89.9626 13.9413C89.3283 13.512 88.5803 13.2826 87.8148 13.2826C87.0492 13.2826 86.3012 13.512 85.667 13.9413C84.4523 14.982 83.4972 16.2924 82.8776 17.7681C82.1306 18.241 81.265 18.4921 80.3812 18.4921C79.4974 18.4921 78.6318 18.241 77.8847 17.7681C73.896 17.1676 73.4915 18.7877 73.7007 20.6592L73.4357 20.5195C70.9811 19.6117 68.9867 21.1759 67.0063 23.1313L65.8766 22.8938C65.3199 22.8072 64.7508 22.9267 64.2758 23.2301C63.8009 23.5334 63.4527 23.9998 63.2965 24.5419C63.0036 24.7234 62.7107 24.919 62.4318 25.1285C61.2005 24.7063 59.8527 24.7865 58.6801 25.3519C56.9647 26.3854 56.8671 28.3547 57.146 30.5475C56.9425 30.7939 56.7649 31.0607 56.616 31.3436C56.3568 31.9797 56.1787 32.646 56.086 33.3268C55.8315 33.5862 55.5563 33.8244 55.2632 34.0391C54.0498 34.9329 52.4738 35.5754 51.902 36.972C51.8677 37.0726 51.8397 37.1752 51.8184 37.2793C51.5364 37.3217 51.2524 37.3497 50.9676 37.3631C50.2761 36.2906 49.7802 35.1037 49.5032 33.8575C48.2759 32.1117 45.3192 33.1732 44.3847 35.1005C43.9651 36.0844 43.7561 37.1454 43.7711 38.2151C43.5704 38.3016 43.3749 38.3995 43.1853 38.5084C40.7447 39.9748 39.9915 43.1452 38.6387 45.6732C38.3832 45.8661 38.1494 46.0862 37.9414 46.3296C37.8808 46.4101 37.8249 46.494 37.774 46.581C37.4492 46.5529 37.1226 46.5529 36.7978 46.581C36.0023 46.7169 35.2569 47.0611 34.6372 47.5786C34.0176 48.0962 33.5456 48.7687 33.2693 49.5279C32.7846 49.6539 32.3165 49.8367 31.8746 50.0726C26.8538 52.8659 29.1968 63.2151 23.5066 64.0391C19.4899 66.9581 21.6935 68.4804 23.6739 69.7654C22.9496 70.439 22.5062 71.3619 22.4327 72.3492C22.4142 72.723 22.4376 73.0978 22.5024 73.4665C21.6441 73.9391 20.8317 74.4908 20.0757 75.1145C19.5596 75.4218 19.0436 75.743 18.5555 76.0922C18.0793 76.4238 17.7468 76.9241 17.6251 77.492C17.5034 78.0598 17.6017 78.6528 17.9 79.1508C17.8439 79.5862 17.8159 80.0247 17.8163 80.4637C16.7278 81.0111 15.8967 81.9637 15.5011 83.1173C15.013 84.9469 16.1566 86.3575 17.7326 87.6704C17.5832 88.1965 17.3526 88.696 17.0493 89.1508C16.2264 90.324 14.9154 91.0921 14.1344 92.3072C13.4743 93.4114 13.1903 94.7006 13.3255 95.9804C12.7323 96.4651 12.2982 97.117 12.0794 97.8516C11.8605 98.5862 11.8671 99.3697 12.0981 100.101C12.7243 101.553 13.6793 102.839 14.8875 103.858C15.1121 104.712 15.0884 105.613 14.8191 106.454C14.5498 107.295 14.0461 108.042 13.3673 108.606C12.0842 111.26 12.5026 112.433 13.5347 112.992C13.4223 113.519 13.5172 114.069 13.7996 114.528C13.8809 114.632 13.9695 114.73 14.0646 114.821C13.6643 116.482 13.935 118.234 14.8178 119.696C14.8232 120.139 14.8841 120.58 14.9991 121.008C14.9015 121.204 14.7899 121.385 14.6923 121.567C14.5091 121.938 14.4272 122.351 14.4548 122.764C14.4823 123.176 14.6185 123.575 14.8493 123.918C15.0801 124.261 15.3974 124.537 15.7691 124.718C16.1407 124.898 16.5535 124.977 16.9656 124.947H17.4258C17.6123 125.402 17.7707 125.869 17.9 126.344C18.5276 128.634 18.2347 131.413 19.978 133.047C20.9125 133.913 22.2513 134.235 23.1718 135.115C23.5003 135.437 23.7694 135.816 23.9668 136.232C23.3167 137.95 23.2096 139.827 23.66 141.609C23.0463 143.76 22.2653 145.994 22.7953 148.02C23.7855 152.209 29.5873 153.844 30.3125 158.033C30.5636 159.43 30.1591 160.925 30.438 162.335C31.5677 167.922 42.1672 168.816 41.3025 174.5C42.1951 177.182 43.269 177.796 44.3569 177.559C44.6222 177.87 44.9783 178.089 45.375 178.187C45.546 178.213 45.72 178.213 45.891 178.187C46.4638 179.009 47.2034 179.699 48.0615 180.214C48.9195 180.73 49.8766 181.057 50.87 181.176C50.9955 181.707 51.135 182.237 51.3023 182.768C51.4314 183.159 51.6611 183.51 51.9682 183.784C52.2754 184.058 52.6492 184.246 53.0521 184.33C53.455 184.413 53.8727 184.389 54.2633 184.26C54.6539 184.13 55.0036 183.9 55.2771 183.592C55.9326 182.838 56.5323 182.056 57.1181 181.246H57.4807C57.0142 183.17 56.9856 185.175 57.397 187.112C57.6225 188.069 58.1524 188.927 58.907 189.557C59.6616 190.187 60.6 190.554 61.581 190.603C63.422 190.492 65.2211 188.858 66.9087 189.626C68.0663 190.142 68.4847 191.525 69.2099 192.573C69.9221 193.436 70.9022 194.035 71.9941 194.276C73.086 194.516 74.2268 194.384 75.2349 193.899C76.0233 194.158 76.8669 194.196 77.6755 194.011C78.6195 194.03 79.557 194.171 80.4649 194.43C82.8916 195.422 84.0213 199.458 86.5456 198.802C86.9247 198.706 87.2655 198.497 87.5219 198.201C87.9613 198.401 88.4346 198.514 88.9166 198.536C89.2516 198.537 89.585 198.49 89.9068 198.397C90.8487 199.148 92.0083 199.575 93.2121 199.612C94.2201 199.536 95.2008 199.248 96.09 198.767C96.9792 198.285 97.757 197.621 98.3724 196.818C98.3215 197.394 98.4089 197.973 98.6272 198.507C98.8456 199.042 99.1886 199.516 99.6276 199.891C100.117 200.215 100.68 200.411 101.264 200.462C101.849 200.514 102.437 200.418 102.975 200.184C104.619 199.34 105.938 197.975 106.726 196.302L106.936 196.497C108.54 198.103 109.948 200.101 112.068 200.925C112.547 201.225 113.051 201.482 113.574 201.693C116.364 202.754 120.06 201.916 121.161 199.165C121.286 198.824 121.384 198.474 121.454 198.117C121.974 197.908 122.432 197.571 122.786 197.136C123.14 196.701 123.377 196.183 123.476 195.631C124.424 197.152 125.69 198.448 127.186 199.43C128.023 199.957 129.008 200.196 129.993 200.11C130.977 200.024 131.906 199.619 132.639 198.955C133.881 197.559 134.034 195.17 135.764 194.528C136.949 194.095 138.218 194.793 139.473 195.031C141.942 195.492 144.145 193.522 144.913 191.19C145.4 191.144 145.874 191.001 146.307 190.771C147.353 190.226 148.078 189.179 149.18 188.732C151.607 187.754 155.219 189.849 156.572 187.601C156.665 187.453 156.735 187.293 156.781 187.126C158.194 186.738 159.424 185.862 160.254 184.654C160.812 184.388 161.384 184.123 161.928 183.844C163.051 183.428 164.023 182.684 164.717 181.707C165.139 180.84 165.318 179.874 165.233 178.913C165.595 178.999 165.972 178.999 166.335 178.913C166.683 178.852 167.019 178.729 167.325 178.55C167.784 178.65 168.25 178.706 168.72 178.718C169.703 178.788 170.683 178.534 171.509 177.994C172.335 177.454 172.962 176.659 173.294 175.729C173.427 174.7 173.427 173.658 173.294 172.628C173.682 172.233 173.978 171.756 174.159 171.232C175.325 171.166 176.471 170.902 177.548 170.45C180.337 169.29 182.345 166.064 181.202 163.327C181.129 163.158 181.045 162.995 180.951 162.838C181.185 162.362 181.306 161.839 181.306 161.309C181.306 160.778 181.185 160.255 180.951 159.779C181.732 158.983 182.541 158.187 183.336 157.419L180.56 155.673C181.12 155.153 181.779 154.754 182.499 154.5C182.914 154.463 183.333 154.491 183.74 154.584C184.791 154.863 185.907 154.747 186.879 154.258C187.85 153.769 188.609 152.941 189.012 151.93C189.247 151.342 189.276 150.692 189.094 150.085C188.911 149.478 188.528 148.952 188.008 148.592C188.076 148.238 188.052 147.873 187.938 147.531C187.918 147.112 187.862 146.697 187.771 146.288C188.635 146.086 189.403 145.593 189.946 144.891C190.135 144.485 190.223 144.04 190.204 143.592C190.184 143.145 190.058 142.709 189.835 142.321C191.062 142.517 192.289 143.061 193.531 142.112C193.985 141.739 194.339 141.259 194.563 140.716C194.787 140.173 194.873 139.582 194.814 138.997C194.685 137.882 194.261 136.821 193.587 135.925C194.489 134.81 195.292 133.618 195.985 132.363C196.841 131.904 197.599 131.283 198.217 130.534C198.653 130.171 199.051 129.764 199.402 129.318C200.194 128.353 200.682 127.175 200.806 125.932C200.931 124.69 200.685 123.438 200.1 122.335C200.267 121.68 200.267 120.993 200.1 120.338C199.694 119.246 199.006 118.282 198.105 117.545C199.275 117.137 200.355 116.506 201.285 115.687C202.062 115.052 202.606 114.177 202.834 113.199C203.061 112.221 202.958 111.195 202.54 110.282Z" fill="#ECC788"/>
<path d="M189.89 77.7682C186.291 67.6704 179.681 75.9944 175.497 73.0335C171.313 70.0726 176.891 62.0978 173 58.9693C170.322 56.8603 165.678 59.3324 163.238 56.9162C162.488 55.9571 161.981 54.8312 161.759 53.6341C160.058 47.9497 154.786 42.4609 148.301 45.4078C146.706 46.2069 144.911 46.5177 143.14 46.3017C137.352 45.4078 138.956 40.7151 137.394 37.433C135.456 33.3687 129.724 33.1592 125.372 34.3463C121.021 35.5335 116.377 37.5307 112.234 35.743C110.17 34.8771 108.539 33.1592 106.447 32.3631C102.263 30.757 97.7438 33.1173 93.8945 35.3938C90.8821 37.1815 87.493 39.5838 87.5488 43.1313C87.5488 45.0726 88.7064 47 89.3758 48.8575C87.3536 48.5223 85.2895 47.7961 83.2951 47.2514C79.6271 46.2319 74.7737 46.4134 73.1419 49.8491C71.817 52.6424 73.1419 56.595 68.2745 57.3491C66.777 57.5331 65.2585 57.2708 63.9091 56.595C58.4699 54.109 53.9791 58.7319 52.5426 63.5782C52.3563 64.5974 51.9255 65.556 51.2874 66.3715C49.2651 68.4106 45.3322 66.3715 43.0728 68.1034C39.7396 70.743 44.4675 77.5168 40.9669 79.9888C37.4662 82.4609 31.8457 75.4497 28.8053 83.9972C28.6432 84.4097 28.5903 84.8571 28.6519 85.2961C29.3632 89.6676 35.7648 91.9302 35.0953 96.2598C34.9001 97.5028 34.119 98.5922 34.0214 99.8352C33.8959 101.749 35.4161 103.313 36.4342 104.919C37.4523 106.525 37.9544 109.039 36.3365 110.059C35.3045 110.701 33.9796 110.366 32.7802 110.589C31.6406 110.902 30.6568 111.625 30.0182 112.621C29.3796 113.616 29.1314 114.813 29.3214 115.98C29.5606 117.139 30.0538 118.23 30.7653 119.174C31.4768 120.119 32.3889 120.893 33.4357 121.441C35.2906 122.531 37.7591 123.55 37.8707 125.701C37.8249 126.663 37.5422 127.599 37.0478 128.425C35.0535 132.768 35.7508 139.291 40.3532 140.561C42.5428 141.176 44.8441 140.324 47.0337 139.682C49.8928 138.858 53.1423 138.397 55.6249 140.212C56.4367 140.755 57.0412 141.557 57.3401 142.488C57.6389 143.418 57.6144 144.423 57.2706 145.338C55.6527 149.109 49.4604 146.818 48.3028 150.184C47.6334 152.098 49.6975 154.067 51.8034 154.011C52.9331 154.011 54.2581 153.564 55.0809 154.346C56.4756 155.631 54.5649 157.642 53.9931 159.388C53.7482 160.522 53.9302 161.707 54.5042 162.715C55.0782 163.723 56.0038 164.483 57.1032 164.849C59.3428 165.5 61.7385 165.352 63.8813 164.43C65.2759 163.941 66.9217 163.313 68.2466 164.039C69.0813 164.655 69.7874 165.428 70.3246 166.316C70.9158 166.971 71.6319 167.501 72.4308 167.875C73.2296 168.249 74.0951 168.459 74.9762 168.492C75.8573 168.526 76.7363 168.383 77.5614 168.072C78.3864 167.76 79.1409 167.287 79.7805 166.679C79.5434 170.031 79.4458 173.788 81.7331 176.232C82.6017 177.06 83.6948 177.613 84.8756 177.821C86.0565 178.03 87.2726 177.885 88.3717 177.405C90.1708 180.631 93.3506 183.732 97.0047 183.187C99.3756 182.838 101.189 181.022 103.239 179.71C105.289 178.397 108.106 177.573 109.919 179.151C111.732 180.729 112.374 183.969 114.564 183.494L108.594 174.933L114.898 183.522C116.042 188.592 123.615 190.659 127.171 186.874C129.877 183.983 129.752 179.514 129.473 175.561C130.229 176.275 131.12 176.83 132.092 177.195C133.065 177.561 134.101 177.729 135.139 177.69C136.177 177.651 137.197 177.406 138.14 176.968C139.082 176.531 139.929 175.91 140.63 175.142C141.266 174.094 142.094 173.175 143.071 172.433C144.647 171.581 146.557 172.321 148.245 172.908C150.782 173.991 153.615 174.164 156.264 173.397C158.83 172.433 160.811 169.542 159.946 166.944C159.263 164.863 157.073 162.489 158.649 160.98C159.625 160.045 161.187 160.52 162.526 160.575C164.939 160.645 167.463 158.327 166.71 156.05C165.316 152.056 158.021 154.779 156.111 150.324C155.705 149.239 155.677 148.049 156.031 146.946C156.386 145.843 157.102 144.893 158.063 144.249C160.992 142.098 164.841 142.642 168.216 143.634C170.811 144.388 173.53 145.394 176.124 144.668C181.564 143.159 182.386 135.45 180.029 130.31C179.45 129.329 179.116 128.222 179.053 127.084C179.179 124.542 182.107 123.327 184.297 122.042C185.539 121.396 186.621 120.48 187.463 119.361C188.305 118.242 188.887 116.949 189.164 115.575C189.555 112.782 187.77 109.696 185.078 109.207C183.683 108.955 182.08 109.346 180.894 108.578C178.983 107.377 179.499 104.388 180.782 102.503C182.066 100.617 183.795 98.7458 183.572 96.4972C183.474 95.0167 182.54 93.7039 182.317 92.3072C181.522 87.1815 189.095 84.5 189.945 79.3324C190.047 78.8136 190.028 78.2783 189.89 77.7682Z" fill="#FFDDB3"/>
<path d="M28.9035 79.2346C31.6092 79.2346 31.3163 75.0447 28.6386 75.0447C25.9608 75.0447 26.2258 79.2346 28.9035 79.2346Z" fill="#FFFFF1"/>
<path d="M39.0707 80.6312L42.3761 80.5335C42.9167 80.4689 43.4139 80.205 43.7708 79.7932C44.1222 79.3774 44.3018 78.8428 44.2728 78.2988C44.2108 77.7598 43.9526 77.2626 43.5476 76.9022C43.1228 76.5576 42.5876 76.379 42.0414 76.3994L38.75 76.5111C38.3366 76.5394 37.941 76.69 37.6133 76.9438C37.2855 77.1975 37.0404 77.543 36.9089 77.9364C36.7774 78.3299 36.7656 78.7536 36.8748 79.1537C36.9841 79.5539 37.2096 79.9126 37.5226 80.1843C37.9425 80.5279 38.473 80.7067 39.0149 80.6871L39.0707 80.6312Z" fill="#FFFFF1"/>
<path d="M31.9032 130.408C31.9014 130.375 31.9014 130.343 31.9032 130.31L32.0147 130.841C32.0003 130.748 32.0003 130.654 32.0147 130.561V131.092C32.0002 130.99 32.0002 130.887 32.0147 130.785L31.8474 131.288C31.8889 131.165 31.9451 131.048 32.0147 130.939L31.7218 131.399C31.7935 131.288 31.8777 131.185 31.9729 131.092L31.5545 131.469C31.6557 131.387 31.763 131.312 31.8753 131.246L31.3732 131.497C31.4662 131.452 31.5646 131.419 31.666 131.399L31.1361 131.497C31.2332 131.483 31.3318 131.483 31.429 131.497H30.899H31.164L30.648 131.33C30.7562 131.362 30.8594 131.409 30.9548 131.469L30.4945 131.176C30.5948 131.235 30.6844 131.311 30.7595 131.399L30.3969 130.98C30.487 131.094 30.5664 131.215 30.634 131.344L30.383 130.827C30.4393 130.946 30.4769 131.073 30.4945 131.204L30.3969 130.673C30.4108 130.78 30.4108 130.888 30.3969 130.994V130.464C30.4035 130.561 30.4035 130.659 30.3969 130.757L30.5643 130.24C30.5354 130.328 30.4981 130.412 30.4527 130.492L30.7456 130.031C30.6874 130.119 30.617 130.199 30.5364 130.268L30.9548 129.891C30.8711 129.969 30.7773 130.034 30.6758 130.087L31.1779 129.835L30.8014 129.961L31.3313 129.863C31.2062 129.877 31.0799 129.877 30.9548 129.863H31.4987C31.3702 129.86 31.2431 129.837 31.1221 129.793L31.6382 129.961C31.5393 129.934 31.4452 129.891 31.3592 129.835L31.8055 130.129C31.7295 130.076 31.6594 130.015 31.5963 129.947C31.3959 129.759 31.1512 129.624 30.885 129.556C30.6327 129.456 30.3602 129.417 30.0901 129.444C29.8144 129.447 29.5446 129.524 29.309 129.668C29.0476 129.777 28.8175 129.95 28.6396 130.17C28.2906 130.588 28.1113 131.121 28.1375 131.665L28.2491 132.196C28.3709 132.558 28.5876 132.881 28.8767 133.131L29.0022 133.257L29.602 133.648L29.7554 133.718C29.9741 133.805 30.1977 133.88 30.4248 133.941H30.6061H31.3174C31.6147 133.929 31.9095 133.882 32.196 133.802C32.4893 133.711 32.7704 133.584 33.0328 133.425C33.2888 133.27 33.5232 133.082 33.7302 132.866L33.8557 132.726C34.0018 132.537 34.1324 132.336 34.2462 132.126C34.3849 131.863 34.4836 131.58 34.5391 131.288C34.5529 131.055 34.5529 130.822 34.5391 130.589C34.546 130.52 34.546 130.45 34.5391 130.38C34.5175 130.149 34.4755 129.92 34.4135 129.696C34.4197 129.631 34.4197 129.565 34.4135 129.5C34.3207 129.275 34.2136 129.055 34.0928 128.844C34.0639 128.778 34.0264 128.717 33.9812 128.662C33.9519 128.61 33.9143 128.562 33.8696 128.522C33.7212 128.32 33.553 128.133 33.3675 127.964C33.2523 127.872 33.1312 127.788 33.005 127.712C32.8832 127.62 32.7523 127.541 32.6145 127.475C32.4036 127.38 32.1841 127.305 31.959 127.251H31.7497C31.2841 127.165 30.8041 127.199 30.3551 127.349H30.1598C29.9299 127.447 29.7063 127.559 29.4904 127.684C29.4199 127.723 29.3543 127.77 29.2951 127.824C29.095 127.985 28.904 128.158 28.7233 128.341C28.6178 128.475 28.52 128.615 28.4304 128.76C28.3387 128.894 28.2548 129.034 28.1794 129.179C28.0858 129.406 28.0066 129.64 27.9423 129.877C27.929 129.951 27.929 130.027 27.9423 130.101C27.8631 130.604 27.8964 131.12 28.0399 131.609C28.1223 131.882 28.2764 132.128 28.4862 132.321C28.6504 132.544 28.8722 132.718 29.1278 132.824C29.3623 132.953 29.6274 133.016 29.8948 133.006C30.1626 133.049 30.4369 133.02 30.6898 132.922C30.9551 132.833 31.2002 132.692 31.4108 132.507C31.6215 132.322 31.7936 132.098 31.9171 131.846L32.0845 131.344C32.1748 130.991 32.1748 130.621 32.0845 130.268L31.9032 130.408Z" fill="#FFFFF1"/>
<path d="M49.5455 166.372L49.6292 166.218L49.3363 166.679C49.4278 166.541 49.5355 166.414 49.6571 166.302L49.2386 166.679L49.5455 166.455L49.0434 166.707L49.3223 166.609L48.7923 166.721H49.0155H48.4855H48.6668L48.1508 166.553H48.2763L47.8161 166.26C47.8667 166.286 47.9099 166.324 47.9416 166.372L47.579 165.939L47.6766 166.092L47.4256 165.589C47.4336 165.664 47.4336 165.739 47.4256 165.813L47.328 165.268C47.3344 165.343 47.3344 165.417 47.328 165.492V164.961C47.3347 165.017 47.3347 165.073 47.328 165.129L47.4953 164.612C47.5028 164.649 47.5028 164.687 47.4953 164.723L47.7882 164.277L47.7185 164.36L48.1368 163.983H48.0532L48.5553 163.746H48.4576L48.9876 163.634C48.712 163.637 48.4422 163.714 48.2066 163.858C47.9451 163.967 47.715 164.14 47.5371 164.36C47.194 164.781 47.0156 165.312 47.0351 165.855L47.1327 166.385C47.258 166.746 47.4742 167.069 47.7603 167.321L48.2205 167.615C48.5411 167.77 48.8974 167.838 49.2526 167.81C49.7052 167.785 50.141 167.63 50.5078 167.363C50.8841 167.113 51.1796 166.759 51.3585 166.344C51.4524 166.144 51.5182 165.933 51.5538 165.715C51.5538 165.617 51.5538 165.492 51.5538 165.394C51.5538 165.296 51.5538 165.17 51.5538 165.059C51.5614 165.012 51.5614 164.965 51.5538 164.919C51.5247 164.692 51.478 164.468 51.4143 164.249C51.3319 164.03 51.2292 163.82 51.1075 163.62C51.0922 163.575 51.0629 163.536 51.0238 163.508C50.7573 163.135 50.4028 162.832 49.9918 162.628C49.7764 162.536 49.5521 162.466 49.3223 162.419C49.0767 162.391 48.8288 162.391 48.5832 162.419C48.3378 162.444 48.0951 162.491 47.8579 162.559C47.6153 162.648 47.3817 162.76 47.1606 162.894L46.9514 163.034C46.7352 163.196 46.5345 163.379 46.3517 163.578C46.2893 163.642 46.2333 163.713 46.1843 163.788C46.027 163.995 45.8871 164.214 45.7659 164.444C45.6331 164.683 45.5657 164.953 45.5707 165.226C45.5248 165.495 45.5587 165.772 45.6683 166.022C45.7454 166.295 45.8948 166.541 46.1006 166.735C46.2682 166.958 46.4887 167.135 46.7422 167.251L47.2443 167.419C47.6024 167.487 47.9718 167.463 48.3182 167.349L48.8203 167.098C49.125 166.884 49.3699 166.595 49.5315 166.26L49.5455 166.372Z" fill="#FFFFF1"/>
<path d="M62.4047 177.545C62.6549 177.907 62.945 178.239 63.2694 178.536C63.587 178.832 63.9381 179.09 64.3154 179.304C64.5379 179.448 64.7767 179.566 65.0267 179.654C65.4313 179.821 65.8519 179.948 66.2819 180.031C66.8288 180.123 67.3907 180.009 67.8578 179.709C68.0918 179.56 68.2838 179.353 68.4157 179.109C68.5838 178.894 68.6942 178.639 68.7365 178.369C68.839 177.823 68.7221 177.258 68.4114 176.798C68.1006 176.338 67.621 176.019 67.0768 175.911C66.8741 175.877 66.6737 175.831 66.4771 175.771L66.9792 175.938C66.6707 175.828 66.3759 175.683 66.1006 175.506L66.5608 175.813C66.2726 175.624 66.01 175.399 65.7798 175.142L66.1564 175.561L65.8635 175.198C65.5525 174.744 65.0774 174.428 64.5385 174.318C64.2734 174.249 63.9948 174.249 63.7296 174.318C63.4498 174.345 63.1835 174.452 62.9625 174.626C62.5089 174.937 62.1938 175.413 62.0839 175.952C61.9842 176.5 62.0991 177.066 62.4047 177.531V177.545Z" fill="#FFFFF1"/>
<path d="M83.5891 184.067C86.2947 184.067 86.0019 179.877 83.3241 179.877C80.6463 179.877 80.9113 184.067 83.5891 184.067Z" fill="#FFFFF1"/>
<path d="M170.407 42.5866C170.407 42.3421 170.31 42.1076 170.138 41.9348C169.965 41.7619 169.731 41.6648 169.487 41.6648C169.243 41.6648 169.009 41.7619 168.836 41.9348C168.663 42.1076 168.566 42.3421 168.566 42.5866C168.566 42.8311 168.663 43.0655 168.836 43.2384C169.009 43.4112 169.243 43.5083 169.487 43.5083C169.731 43.5083 169.965 43.4112 170.138 43.2384C170.31 43.0655 170.407 42.8311 170.407 42.5866Z" fill="#415B00"/>
<path d="M176.377 62.7402V62.2793C176.377 61.7941 176.184 61.3287 175.842 60.9856C175.499 60.6425 175.034 60.4497 174.55 60.4497C174.065 60.4497 173.6 60.6425 173.258 60.9856C172.915 61.3287 172.723 61.7941 172.723 62.2793V62.7402C172.723 63.2255 172.915 63.6908 173.258 64.0339C173.6 64.3771 174.065 64.5698 174.55 64.5698C175.034 64.5698 175.499 64.3771 175.842 64.0339C176.184 63.6908 176.377 63.2255 176.377 62.7402Z" fill="#415B00"/>
<path d="M154.856 70.0587C154.829 69.8355 154.721 69.6301 154.552 69.4812C154.384 69.3323 154.167 69.2501 153.943 69.2501C153.718 69.2501 153.501 69.3323 153.333 69.4812C153.165 69.6301 153.057 69.8355 153.029 70.0587C153.057 70.2818 153.165 70.4872 153.333 70.6361C153.501 70.785 153.718 70.8672 153.943 70.8672C154.167 70.8672 154.384 70.785 154.552 70.6361C154.721 70.4872 154.829 70.2818 154.856 70.0587Z" fill="#415B00"/>
<path d="M139.306 53.5783C139.306 53.093 139.114 52.6276 138.771 52.2845C138.429 51.9414 137.964 51.7487 137.479 51.7487C136.995 51.7487 136.53 51.9414 136.187 52.2845C135.845 52.6276 135.652 53.093 135.652 53.5783C135.652 54.0635 135.845 54.5289 136.187 54.872C136.53 55.2151 136.995 55.4079 137.479 55.4079C137.964 55.4079 138.429 55.2151 138.771 54.872C139.114 54.5289 139.306 54.0635 139.306 53.5783Z" fill="#415B00"/>
<path d="M126.504 38.0056C126.504 37.5203 126.311 37.0549 125.969 36.7118C125.626 36.3687 125.161 36.1759 124.677 36.1759C124.192 36.1759 123.727 36.3687 123.385 36.7118C123.042 37.0549 122.85 37.5203 122.85 38.0056C122.85 38.4908 123.042 38.9561 123.385 39.2993C123.727 39.6424 124.192 39.8352 124.677 39.8352C125.161 39.8352 125.626 39.6424 125.969 39.2993C126.311 38.9561 126.504 38.4908 126.504 38.0056Z" fill="#415B00"/>
<path d="M101.818 43.9553C101.818 43.4701 101.626 43.0047 101.283 42.6616C100.94 42.3185 100.476 42.1257 99.9911 42.1257C99.5065 42.1257 99.0418 42.3185 98.6992 42.6616C98.3565 43.0047 98.1641 43.4701 98.1641 43.9553C98.1641 44.4406 98.3565 44.906 98.6992 45.2491C99.0418 45.5922 99.5065 45.7849 99.9911 45.7849C100.476 45.7849 100.94 45.5922 101.283 45.2491C101.626 44.906 101.818 44.4406 101.818 43.9553Z" fill="#415B00"/>
<path d="M119.641 93.8715C119.614 93.6484 119.506 93.443 119.338 93.2941C119.169 93.1452 118.953 93.063 118.728 93.063C118.503 93.063 118.287 93.1452 118.118 93.2941C117.95 93.443 117.842 93.6484 117.814 93.8715C117.842 94.0947 117.95 94.3 118.118 94.4489C118.287 94.5979 118.503 94.68 118.728 94.68C118.953 94.68 119.169 94.5979 119.338 94.4489C119.506 94.3 119.614 94.0947 119.641 93.8715Z" fill="#415B00"/>
<path d="M103.853 78.1173L103.393 77.6564C103.216 77.5076 102.991 77.4305 102.76 77.4403C102.53 77.4501 102.312 77.5462 102.148 77.7094C101.985 77.8727 101.89 78.0913 101.88 78.322C101.87 78.5527 101.947 78.7787 102.095 78.9553L102.556 79.4022C102.64 79.4875 102.74 79.5553 102.851 79.6018C102.961 79.6483 103.08 79.6726 103.199 79.6732C103.319 79.6739 103.438 79.6509 103.549 79.6056C103.66 79.5603 103.761 79.4936 103.846 79.4092C103.931 79.3248 103.999 79.2245 104.045 79.1139C104.092 79.0033 104.116 78.8847 104.116 78.7647C104.117 78.6447 104.094 78.5258 104.049 78.4147C104.004 78.3036 103.937 78.2026 103.853 78.1173Z" fill="#415B00"/>
<path d="M83.9802 79.2206C83.9802 78.7354 83.7877 78.27 83.4451 77.9269C83.1024 77.5838 82.6377 77.391 82.1532 77.391C81.6686 77.391 81.2039 77.5838 80.8613 77.9269C80.5187 78.27 80.3262 78.7354 80.3262 79.2206C80.3262 79.7058 80.5187 80.1712 80.8613 80.5144C81.2039 80.8575 81.6686 81.0502 82.1532 81.0502C82.6377 81.0502 83.1024 80.8575 83.4451 80.5144C83.7877 80.1712 83.9802 79.7058 83.9802 79.2206Z" fill="#415B00"/>
<path d="M72.0965 51.7486C72.069 51.5255 71.9609 51.3201 71.7926 51.1712C71.6244 51.0222 71.4076 50.9401 71.183 50.9401C70.9585 50.9401 70.7417 51.0222 70.5734 51.1712C70.4052 51.3201 70.2971 51.5255 70.2695 51.7486C70.2971 51.9718 70.4052 52.1771 70.5734 52.326C70.7417 52.4749 70.9585 52.5572 71.183 52.5572C71.4076 52.5572 71.6244 52.4749 71.7926 52.326C71.9609 52.1771 72.069 51.9718 72.0965 51.7486Z" fill="#415B00"/>
<path d="M53.3517 81.0503H52.8915C52.4069 81.0503 51.9422 81.2431 51.5996 81.5862C51.257 81.9293 51.0645 82.3947 51.0645 82.8799C51.0645 83.3651 51.257 83.8305 51.5996 84.1737C51.9422 84.5168 52.4069 84.7095 52.8915 84.7095H53.3517C53.8363 84.7095 54.301 84.5168 54.6436 84.1737C54.9862 83.8305 55.1787 83.3651 55.1787 82.8799C55.1787 82.3947 54.9862 81.9293 54.6436 81.5862C54.301 81.2431 53.8363 81.0503 53.3517 81.0503Z" fill="#415B00"/>
<path d="M75.2907 115.394C75.2907 114.909 75.0983 114.443 74.7557 114.1C74.413 113.757 73.9483 113.564 73.4637 113.564C72.9792 113.564 72.5145 113.757 72.1719 114.1C71.8292 114.443 71.6367 114.909 71.6367 115.394C71.6367 115.879 71.8292 116.344 72.1719 116.688C72.5145 117.031 72.9792 117.223 73.4637 117.223C73.9483 117.223 74.413 117.031 74.7557 116.688C75.0983 116.344 75.2907 115.879 75.2907 115.394Z" fill="#415B00"/>
<path d="M101.356 119.053C101.329 118.83 101.221 118.625 101.052 118.476C100.884 118.327 100.667 118.245 100.443 118.245C100.218 118.245 100.001 118.327 99.8332 118.476C99.665 118.625 99.5569 118.83 99.5293 119.053C99.5569 119.276 99.665 119.482 99.8332 119.63C100.001 119.779 100.218 119.862 100.443 119.862C100.667 119.862 100.884 119.779 101.052 119.63C101.221 119.482 101.329 119.276 101.356 119.053Z" fill="#415B00"/>
<path d="M126.043 129.123C126.043 128.638 125.85 128.172 125.508 127.829C125.165 127.486 124.7 127.293 124.216 127.293C123.731 127.293 123.266 127.486 122.924 127.829C122.581 128.172 122.389 128.638 122.389 129.123C122.389 129.608 122.581 130.074 122.924 130.417C123.266 130.76 123.731 130.953 124.216 130.953C124.7 130.953 125.165 130.76 125.508 130.417C125.85 130.074 126.043 129.608 126.043 129.123Z" fill="#415B00"/>
<path d="M131.537 141.944V141.497C131.537 141.012 131.344 140.547 131.002 140.203C130.659 139.86 130.194 139.668 129.71 139.668C129.225 139.668 128.761 139.86 128.418 140.203C128.075 140.547 127.883 141.012 127.883 141.497V141.944C127.883 142.429 128.075 142.895 128.418 143.238C128.761 143.581 129.225 143.774 129.71 143.774C130.194 143.774 130.659 143.581 131.002 143.238C131.344 142.895 131.537 142.429 131.537 141.944Z" fill="#415B00"/>
<path d="M110.047 153.858C110.047 153.372 109.854 152.907 109.511 152.564C109.169 152.221 108.704 152.028 108.22 152.028C107.735 152.028 107.27 152.221 106.928 152.564C106.585 152.907 106.393 153.372 106.393 153.858C106.393 154.343 106.585 154.808 106.928 155.151C107.27 155.494 107.735 155.687 108.22 155.687C108.704 155.687 109.169 155.494 109.511 155.151C109.854 154.808 110.047 154.343 110.047 153.858Z" fill="#415B00"/>
<path d="M86.7274 152.028C86.6998 151.805 86.5917 151.599 86.4235 151.45C86.2552 151.302 86.0384 151.219 85.8139 151.219C85.5894 151.219 85.3726 151.302 85.2043 151.45C85.0361 151.599 84.928 151.805 84.9004 152.028C84.928 152.251 85.0361 152.456 85.2043 152.605C85.3726 152.754 85.5894 152.836 85.8139 152.836C86.0384 152.836 86.2552 152.754 86.4235 152.605C86.5917 152.456 86.6998 152.251 86.7274 152.028Z" fill="#415B00"/>
<path d="M62.488 151.567C62.488 151.082 62.2955 150.616 61.9529 150.273C61.6102 149.93 61.1456 149.737 60.661 149.737C60.1764 149.737 59.7117 149.93 59.3691 150.273C59.0265 150.616 58.834 151.082 58.834 151.567C58.834 152.052 59.0265 152.518 59.3691 152.861C59.7117 153.204 60.1764 153.397 60.661 153.397C61.1456 153.397 61.6102 153.204 61.9529 152.861C62.2955 152.518 62.488 152.052 62.488 151.567Z" fill="#415B00"/>
<path d="M50.1443 131.413C50.1443 130.928 49.9518 130.463 49.6092 130.12C49.2665 129.777 48.8018 129.584 48.3172 129.584C47.8327 129.584 47.368 129.777 47.0254 130.12C46.6827 130.463 46.4902 130.928 46.4902 131.413C46.4902 131.899 46.6827 132.364 47.0254 132.707C47.368 133.05 47.8327 133.243 48.3172 133.243C48.8018 133.243 49.2665 133.05 49.6092 132.707C49.9518 132.364 50.1443 131.899 50.1443 131.413Z" fill="#415B00"/>
<path d="M143.42 128.201C143.42 127.716 143.227 127.25 142.885 126.907C142.542 126.564 142.077 126.371 141.593 126.371C141.108 126.371 140.643 126.564 140.301 126.907C139.958 127.25 139.766 127.716 139.766 128.201C139.766 128.686 139.958 129.152 140.301 129.495C140.643 129.838 141.108 130.031 141.593 130.031C142.077 130.031 142.542 129.838 142.885 129.495C143.227 129.152 143.42 128.686 143.42 128.201Z" fill="#415B00"/>
<path d="M140.688 159.807H140.227C140.004 159.835 139.799 159.943 139.651 160.112C139.502 160.28 139.42 160.497 139.42 160.722C139.42 160.947 139.502 161.164 139.651 161.332C139.799 161.501 140.004 161.609 140.227 161.637H140.688C140.91 161.609 141.115 161.501 141.264 161.332C141.413 161.164 141.495 160.947 141.495 160.722C141.495 160.497 141.413 160.28 141.264 160.112C141.115 159.943 140.91 159.835 140.688 159.807Z" fill="#415B00"/>
<path d="M120.59 171.707C120.59 171.221 120.397 170.756 120.054 170.413C119.712 170.07 119.247 169.877 118.763 169.877C118.278 169.877 117.813 170.07 117.471 170.413C117.128 170.756 116.936 171.221 116.936 171.707C116.936 172.192 117.128 172.657 117.471 173C117.813 173.344 118.278 173.536 118.763 173.536C119.247 173.536 119.712 173.344 120.054 173C120.397 172.657 120.59 172.192 120.59 171.707Z" fill="#415B00"/>
<path d="M87.1875 182.237C87.1474 181.778 86.9369 181.35 86.5974 181.039C86.2578 180.727 85.814 180.554 85.3535 180.554C84.8929 180.554 84.4491 180.727 84.1096 181.039C83.7701 181.35 83.5596 181.778 83.5195 182.237C83.5596 182.697 83.7701 183.125 84.1096 183.436C84.4491 183.748 84.8929 183.921 85.3535 183.921C85.814 183.921 86.2578 183.748 86.5974 183.436C86.9369 183.125 87.1474 182.697 87.1875 182.237Z" fill="#415B00"/>
<path d="M61.1205 168.047H60.2001C59.7155 168.047 59.2508 168.24 58.9081 168.583C58.5655 168.926 58.373 169.392 58.373 169.877C58.373 170.362 58.5655 170.828 58.9081 171.171C59.2508 171.514 59.7155 171.707 60.2001 171.707H61.1205C61.6051 171.707 62.0698 171.514 62.4124 171.171C62.7551 170.828 62.9476 170.362 62.9476 169.877C62.9476 169.392 62.7551 168.926 62.4124 168.583C62.0698 168.24 61.6051 168.047 61.1205 168.047Z" fill="#415B00"/>
<path d="M95.4861 104.458C95.4861 103.973 95.2936 103.508 94.9509 103.164C94.6083 102.821 94.1436 102.629 93.659 102.629C93.1745 102.629 92.7098 102.821 92.3672 103.164C92.0245 103.508 91.832 103.973 91.832 104.458C91.832 104.943 92.0245 105.409 92.3672 105.752C92.7098 106.095 93.1745 106.288 93.659 106.288C94.1436 106.288 94.6083 106.095 94.9509 105.752C95.2936 105.409 95.4861 104.943 95.4861 104.458Z" fill="#415B00"/>
<g style="mix-blend-mode:overlay">
<path d="M43.9793 51.0642C43.7564 51.0918 43.5513 51.2001 43.4026 51.3686C43.2539 51.5371 43.1719 51.7542 43.1719 51.979C43.1719 52.2039 43.2539 52.421 43.4026 52.5895C43.5513 52.758 43.7564 52.8662 43.9793 52.8938C44.2021 52.8662 44.4072 52.758 44.5559 52.5895C44.7046 52.421 44.7867 52.2039 44.7867 51.979C44.7867 51.7542 44.7046 51.5371 44.5559 51.3686C44.4072 51.2001 44.2021 51.0918 43.9793 51.0642Z" fill="#FFFFF1"/>
<path d="M64.0903 45.1006H63.6301C63.1713 45.1407 62.7442 45.3515 62.433 45.6915C62.1218 46.0315 61.9492 46.476 61.9492 46.9372C61.9492 47.3984 62.1218 47.8428 62.433 48.1828C62.7442 48.5228 63.1713 48.7337 63.6301 48.7738H64.0903C64.5491 48.7337 64.9763 48.5228 65.2874 48.1828C65.5986 47.8428 65.7712 47.3984 65.7712 46.9372C65.7712 46.476 65.5986 46.0315 65.2874 45.6915C64.9763 45.3515 64.5491 45.1407 64.0903 45.1006Z" fill="#FFFFF1"/>
<path d="M71.4129 66.6229C71.19 66.6506 70.985 66.7588 70.8363 66.9273C70.6876 67.0958 70.6055 67.3129 70.6055 67.5377C70.6055 67.7626 70.6876 67.9797 70.8363 68.1482C70.985 68.3166 71.19 68.4249 71.4129 68.4525C71.6357 68.4249 71.8408 68.3166 71.9895 68.1482C72.1382 67.9797 72.2203 67.7626 72.2203 67.5377C72.2203 67.3129 72.1382 67.0958 71.9895 66.9273C71.8408 66.7588 71.6357 66.6506 71.4129 66.6229Z" fill="#FFFFF1"/>
<path d="M54.9422 82.1956C54.4577 82.1956 53.993 82.3883 53.6504 82.7314C53.3077 83.0746 53.1152 83.5399 53.1152 84.0252C53.1152 84.5104 53.3077 84.9758 53.6504 85.3189C53.993 85.662 54.4577 85.8548 54.9422 85.8548C55.4268 85.8548 55.8915 85.662 56.2342 85.3189C56.5768 84.9758 56.7693 84.5104 56.7693 84.0252C56.7693 83.5399 56.5768 83.0746 56.2342 82.7314C55.8915 82.3883 55.4268 82.1956 54.9422 82.1956Z" fill="#FFFFF1"/>
<path d="M39.4051 95.0167C38.9206 95.0167 38.4558 95.2095 38.1132 95.5526C37.7706 95.8957 37.5781 96.3611 37.5781 96.8463C37.5781 97.3316 37.7706 97.797 38.1132 98.1401C38.4558 98.4832 38.9206 98.6759 39.4051 98.6759C39.8897 98.6759 40.3544 98.4832 40.697 98.1401C41.0397 97.797 41.2322 97.3316 41.2322 96.8463C41.2322 96.3611 41.0397 95.8957 40.697 95.5526C40.3544 95.2095 39.8897 95.0167 39.4051 95.0167Z" fill="#FFFFF1"/>
<path d="M45.3469 119.737C44.8881 119.778 44.4609 119.988 44.1498 120.328C43.8386 120.668 43.666 121.113 43.666 121.574C43.666 122.035 43.8386 122.48 44.1498 122.82C44.4609 123.16 44.8881 123.371 45.3469 123.411C45.8057 123.371 46.2328 123.16 46.544 122.82C46.8551 122.48 47.0278 122.035 47.0278 121.574C47.0278 121.113 46.8551 120.668 46.544 120.328C46.2328 119.988 45.8057 119.778 45.3469 119.737Z" fill="#FFFFF1"/>
<path d="M95.1785 101.888C94.9557 101.916 94.7506 102.024 94.6019 102.193C94.4532 102.361 94.3711 102.578 94.3711 102.803C94.3711 103.028 94.4532 103.245 94.6019 103.414C94.7506 103.582 94.9557 103.69 95.1785 103.718C95.4013 103.69 95.6064 103.582 95.7551 103.414C95.9038 103.245 95.9859 103.028 95.9859 102.803C95.9859 102.578 95.9038 102.361 95.7551 102.193C95.6064 102.024 95.4013 101.916 95.1785 101.888Z" fill="#FFFFF1"/>
<path d="M79.4464 117.726L78.9862 118.173C78.8376 118.35 78.7606 118.576 78.7704 118.806C78.7802 119.037 78.8761 119.256 79.0391 119.419C79.2022 119.582 79.4205 119.678 79.6508 119.688C79.8812 119.698 80.1069 119.621 80.2832 119.472L80.7434 119.011C81.5384 118.187 80.2832 116.888 79.4464 117.726Z" fill="#FFFFF1"/>
<path d="M80.5477 137.601C80.0632 137.601 79.5984 137.793 79.2558 138.136C78.9132 138.48 78.7207 138.945 78.7207 139.43C78.7207 139.915 78.9132 140.381 79.2558 140.724C79.5984 141.067 80.0632 141.26 80.5477 141.26C81.0323 141.26 81.497 141.067 81.8396 140.724C82.1822 140.381 82.3747 139.915 82.3747 139.43C82.3747 138.945 82.1822 138.48 81.8396 138.136C81.497 137.793 81.0323 137.601 80.5477 137.601Z" fill="#FFFFF1"/>
<path d="M53.114 149.5C52.8912 149.528 52.6861 149.636 52.5374 149.804C52.3887 149.973 52.3066 150.19 52.3066 150.415C52.3066 150.64 52.3887 150.857 52.5374 151.025C52.6861 151.194 52.8912 151.302 53.114 151.33C53.3369 151.302 53.542 151.194 53.6907 151.025C53.8394 150.857 53.9214 150.64 53.9214 150.415C53.9214 150.19 53.8394 149.973 53.6907 149.804C53.542 149.636 53.3369 149.528 53.114 149.5Z" fill="#FFFFF1"/>
<path d="M82.3887 168.285V168.704C82.3887 169.189 82.5812 169.654 82.9239 169.998C83.2665 170.341 83.7312 170.534 84.2158 170.534C84.7003 170.534 85.165 170.341 85.5077 169.998C85.8503 169.654 86.0428 169.189 86.0428 168.704V168.257C86.0391 167.772 85.843 167.308 85.4978 166.967C85.1525 166.627 84.6864 166.438 84.2018 166.441C83.7173 166.445 83.254 166.641 82.914 166.987C82.574 167.333 82.385 167.8 82.3887 168.285Z" fill="#FFFFF1"/>
<path d="M116.671 146.358C116.186 146.358 115.722 146.55 115.379 146.893C115.036 147.237 114.844 147.702 114.844 148.187C114.844 148.672 115.036 149.138 115.379 149.481C115.722 149.824 116.186 150.017 116.671 150.017C117.155 150.017 117.62 149.824 117.963 149.481C118.305 149.138 118.498 148.672 118.498 148.187C118.498 147.702 118.305 147.237 117.963 146.893C117.62 146.55 117.155 146.358 116.671 146.358Z" fill="#FFFFF1"/>
<path d="M120.339 120.198C120.116 120.226 119.911 120.334 119.762 120.503C119.613 120.671 119.531 120.888 119.531 121.113C119.531 121.338 119.613 121.555 119.762 121.724C119.911 121.892 120.116 122 120.339 122.028C120.561 122 120.767 121.892 120.915 121.724C121.064 121.555 121.146 121.338 121.146 121.113C121.146 120.888 121.064 120.671 120.915 120.503C120.767 120.334 120.561 120.226 120.339 120.198Z" fill="#FFFFF1"/>
<path d="M130.352 95.4777C129.868 95.4777 129.403 95.6704 129.061 96.0136C128.718 96.3567 128.525 96.822 128.525 97.3073C128.525 97.7925 128.718 98.2579 129.061 98.601C129.403 98.9441 129.868 99.1369 130.352 99.1369C130.837 99.1369 131.302 98.9441 131.644 98.601C131.987 98.2579 132.179 97.7925 132.179 97.3073C132.179 96.822 131.987 96.3567 131.644 96.0136C131.302 95.6704 130.837 95.4777 130.352 95.4777Z" fill="#FFFFF1"/>
<path d="M143.196 89.9749H142.736C142.277 90.015 141.85 90.2258 141.538 90.5658C141.227 90.9058 141.055 91.3503 141.055 91.8114C141.055 92.2726 141.227 92.7171 141.538 93.0571C141.85 93.3971 142.277 93.6079 142.736 93.648H143.196C143.655 93.6079 144.082 93.3971 144.393 93.0571C144.704 92.7171 144.877 92.2726 144.877 91.8114C144.877 91.3503 144.704 90.9058 144.393 90.5658C144.082 90.2258 143.655 90.015 143.196 89.9749Z" fill="#FFFFF1"/>
<path d="M155.079 111.441C154.594 111.441 154.13 111.634 153.787 111.977C153.444 112.32 153.252 112.786 153.252 113.271C153.252 113.756 153.444 114.222 153.787 114.565C154.13 114.908 154.594 115.101 155.079 115.101C155.564 115.101 156.028 114.908 156.371 114.565C156.713 114.222 156.906 113.756 156.906 113.271C156.906 112.786 156.713 112.32 156.371 111.977C156.028 111.634 155.564 111.441 155.079 111.441Z" fill="#FFFFF1"/>
<path d="M153.253 134.849C153.03 134.877 152.825 134.985 152.676 135.154C152.527 135.322 152.445 135.539 152.445 135.764C152.445 135.989 152.527 136.206 152.676 136.374C152.825 136.543 153.03 136.651 153.253 136.679C153.476 136.651 153.681 136.543 153.829 136.374C153.978 136.206 154.06 135.989 154.06 135.764C154.06 135.539 153.978 135.322 153.829 135.154C153.681 134.985 153.476 134.877 153.253 134.849Z" fill="#FFFFF1"/>
<path d="M152.792 159.123C152.307 159.123 151.843 159.316 151.5 159.659C151.157 160.002 150.965 160.467 150.965 160.953C150.965 161.438 151.157 161.903 151.5 162.246C151.843 162.589 152.307 162.782 152.792 162.782C153.276 162.782 153.741 162.589 154.084 162.246C154.426 161.903 154.619 161.438 154.619 160.953C154.619 160.467 154.426 160.002 154.084 159.659C153.741 159.316 153.276 159.123 152.792 159.123Z" fill="#FFFFF1"/>
<path d="M132.681 171.497C132.196 171.497 131.731 171.69 131.389 172.033C131.046 172.376 130.854 172.842 130.854 173.327C130.854 173.812 131.046 174.277 131.389 174.621C131.731 174.964 132.196 175.156 132.681 175.156C133.165 175.156 133.63 174.964 133.972 174.621C134.315 174.277 134.508 173.812 134.508 173.327C134.508 172.842 134.315 172.376 133.972 172.033C133.63 171.69 133.165 171.497 132.681 171.497Z" fill="#FFFFF1"/>
<path d="M129.473 78.0754C128.989 78.0754 128.524 78.2682 128.182 78.6113C127.839 78.9544 127.646 79.4198 127.646 79.9051C127.646 80.3903 127.839 80.8557 128.182 81.1988C128.524 81.5419 128.989 81.7347 129.473 81.7347C129.958 81.7347 130.423 81.5419 130.765 81.1988C131.108 80.8557 131.301 80.3903 131.301 79.9051C131.301 79.4198 131.108 78.9544 130.765 78.6113C130.423 78.2682 129.958 78.0754 129.473 78.0754Z" fill="#FFFFF1"/>
<path d="M161.035 80.8268V81.2738C161.063 81.4969 161.171 81.7023 161.339 81.8512C161.507 82.0001 161.724 82.0823 161.949 82.0823C162.173 82.0823 162.39 82.0001 162.558 81.8512C162.726 81.7023 162.835 81.4969 162.862 81.2738V80.8268C162.835 80.6037 162.726 80.3983 162.558 80.2494C162.39 80.1005 162.173 80.0183 161.949 80.0183C161.724 80.0183 161.507 80.1005 161.339 80.2494C161.171 80.3983 161.063 80.6037 161.035 80.8268Z" fill="#FFFFF1"/>
<path d="M172.917 100.967C172.432 100.967 171.968 101.159 171.625 101.502C171.282 101.846 171.09 102.311 171.09 102.796C171.09 103.281 171.282 103.747 171.625 104.09C171.968 104.433 172.432 104.626 172.917 104.626C173.401 104.626 173.866 104.433 174.209 104.09C174.551 103.747 174.744 103.281 174.744 102.796C174.744 102.311 174.551 101.846 174.209 101.502C173.866 101.159 173.401 100.967 172.917 100.967Z" fill="#FFFFF1"/>
<path d="M183.433 134.388C182.974 134.428 182.547 134.639 182.236 134.979C181.925 135.319 181.752 135.764 181.752 136.225C181.752 136.686 181.925 137.131 182.236 137.471C182.547 137.811 182.974 138.021 183.433 138.061C183.892 138.021 184.319 137.811 184.63 137.471C184.941 137.131 185.114 136.686 185.114 136.225C185.114 135.764 184.941 135.319 184.63 134.979C184.319 134.639 183.892 134.428 183.433 134.388Z" fill="#FFFFF1"/>
<path d="M169.264 160.492V161.413C169.264 161.899 169.456 162.364 169.799 162.707C170.141 163.05 170.606 163.243 171.091 163.243C171.575 163.243 172.04 163.05 172.383 162.707C172.725 162.364 172.918 161.899 172.918 161.413V160.492C172.918 160.006 172.725 159.541 172.383 159.198C172.04 158.855 171.575 158.662 171.091 158.662C170.606 158.662 170.141 158.855 169.799 159.198C169.456 159.541 169.264 160.006 169.264 160.492Z" fill="#FFFFF1"/>
<path d="M105.708 126.148C105.249 126.188 104.822 126.399 104.511 126.739C104.2 127.079 104.027 127.523 104.027 127.985C104.027 128.446 104.2 128.89 104.511 129.23C104.822 129.57 105.249 129.781 105.708 129.821C106.167 129.781 106.594 129.57 106.905 129.23C107.216 128.89 107.389 128.446 107.389 127.985C107.389 127.523 107.216 127.079 106.905 126.739C106.594 126.399 106.167 126.188 105.708 126.148Z" fill="#FFFFF1"/>
</g>
</g>
<defs>
<clipPath id="clip0_246_1701">
<rect width="191" height="190" fill="white" transform="translate(12 12)"/>
</clipPath>
</defs>
</svg>
