<svg width="215" height="215" viewBox="0 0 215 215" fill="none" xmlns="http://www.w3.org/2000/svg">
<path style="mix-blend-mode:multiply" opacity="0.26" d="M188.654 116.344L188.86 116.218C192.487 115.158 195.989 113.71 199.305 111.899C195.949 106.888 191.931 103.837 187.742 102.022C194.496 95.5199 198.039 87.4709 198.039 87.4709C195.229 86.4129 192.271 85.8003 189.271 85.6553C190.974 83.2362 192.464 80.6741 193.724 77.9976C187.931 75.8677 182.781 75.7996 178.246 76.87C185.737 70.3288 189.676 61.4336 189.676 61.4336C182.642 58.8092 176.565 59.2357 171.404 61.1171C171.522 58.7976 171.47 56.4724 171.248 54.1605C162.625 55.7145 157.181 60.1742 153.739 65.423L39.7297 102.03L28.6409 104.617C27.3876 104.91 26.302 105.689 25.6227 106.782C24.9434 107.875 24.7261 109.193 25.0186 110.446L27.3177 120.313C27.5554 121.301 28.0999 122.188 28.8731 122.847C29.6463 123.506 30.6084 123.903 31.6214 123.981C31.1138 124.675 30.8053 125.495 30.729 126.351L30.085 136.462C30.0079 137.743 30.4419 139.003 31.2919 139.965C32.1418 140.927 33.3383 141.512 34.6194 141.594L39.9056 141.932L39.1648 143.667L36.6921 149.513C36.4373 150.097 36.3002 150.724 36.2886 151.361C36.277 151.997 36.3912 152.63 36.6246 153.222C36.858 153.814 37.2061 154.355 37.6488 154.812C38.0915 155.269 38.6201 155.635 39.2044 155.887L48.57 159.877C48.9218 159.996 49.2874 160.07 49.658 160.096L49.469 160.497L49.3657 160.545L49.4052 160.631L47.0644 165.591L47.1457 165.631L47.1325 165.66L48.7546 166.422L46.5566 167.477L48.0688 170.634L54.8606 167.381L56.1794 168.003L56.9443 166.381L60.6149 164.622L60.7863 165.629L58.4873 169.557L61.5073 171.315L66.3428 163.051L66.4264 163.539L66.6462 163.499C66.6 164.04 66.5165 164.576 66.5187 165.119L62.6678 173.287L65.8351 174.779L67.6396 170.952C68.504 173.312 69.8868 175.449 71.6861 177.203C76.3656 181.722 82.9574 182.938 88.7402 181.05C89.8941 184.327 91.7871 187.294 94.2726 189.721C96.9957 192.353 100.33 194.267 103.975 195.293C107.621 196.319 111.464 196.423 115.16 195.597C118.856 194.771 122.289 193.041 125.151 190.561C128.014 188.081 130.215 184.929 131.559 181.388L136.709 189.246L139.217 187.602L140.472 189.187L140.63 189.037L141.762 190.468L144.635 187.738L143.52 186.329L146.584 184.32L143.49 179.599L143.964 179.289L146.079 182.516L149.376 180.362L146.984 176.711L148.892 175.46L151.31 180.617L155.148 179.447L154.187 177.388L155.697 176.929L155.15 175.755L155.53 175.507L153.803 172.869L151.517 167.974L155.803 174.513L158.361 172.838L158.702 173.357L161.999 171.203L161.03 169.724L163.432 171.757L166.19 168.499L167.892 169.598L168.059 169.341L169.597 170.339L172.644 165.644L171.131 164.662L174.501 160.683L170.191 157.035L170.712 156.419L173.657 158.914L177.273 154.641L173.94 151.821L176.037 149.344L179.589 153.867L183.985 150.41L182.565 148.603L184.295 147.245L183.489 146.216L183.906 145.722L181.502 143.686L178.13 139.394L184.097 144.449L186.911 141.128L187.386 141.53L191.001 137.257L179.952 127.907C184.976 126.856 189.818 125.071 194.322 122.61C192.751 120.254 190.841 118.142 188.654 116.344ZM54.3089 163.763L51.1944 165.255L52.234 163.057L55.3508 161.565L54.3089 163.763Z" fill="url(#paint0_linear_76_13553)"/>
<path d="M53.4203 66.1219L47.7077 61.427L35.6826 48.4062L31.2207 52.5252L32.6933 54.1209L31.2779 55.776L43.4854 65.8076L66.2323 90.4403L69.637 87.2972L71.2063 88.5852L75.1517 83.9805L70.2546 79.956L72.5251 77.8569L37.5157 39.944L33.0516 44.0652L53.4203 66.1219Z" fill="#C63334"/>
<path d="M42.8846 35.8392L38.4229 39.9592L73.4334 77.8733L77.8951 73.7532L42.8846 35.8392Z" fill="#C63334"/>
<path d="M65.0846 25.2793L64.9374 25.3716L61.6887 21.8549L57.2268 25.9739L60.6359 29.6687L65.311 37.7155L54.0508 25.5211L49.5889 29.6423L79.3385 61.8581L85.9698 73.27L91.1043 70.0609L87.8842 64.522L89.0624 63.4362L84.185 58.1545L79.5099 50.1055L92.2362 63.889L96.7003 59.7678L65.4846 25.9651L65.0846 25.2793Z" fill="#C63334"/>
<path d="M47.5047 29.8715L43.043 33.9916L78.0535 71.9056L82.5153 67.7856L47.5047 29.8715Z" fill="#C63334"/>
<path d="M38.2886 43.5576L33.8267 47.6788L41.1438 55.5916L36.8555 52.0748L32.9102 56.6906L72.8386 89.4976L76.795 84.8818L75.3993 83.7345L79.5578 79.8946L44.5353 41.9905L40.3833 45.8259L38.2886 43.5576Z" fill="#F0393B"/>
<path d="M61.1154 23.2261L62.1792 24.3778L60.8099 25.2328L70.8085 42.443L56.8096 27.2813L52.3477 31.4025L84.8338 66.5812L86.8273 70.0166L91.964 66.8054L91.3046 65.6712L91.8212 65.1965L89.6825 62.8798L76.0221 39.368L96.127 61.1412L100.589 57.02L65.5795 19.1049L61.1154 23.2261Z" fill="#F0393B"/>
<path d="M47.6711 36.6668L43.9697 40.0847L78.9791 77.9976L83.441 73.8786L80.4804 70.6717L84.1817 67.2517L49.1701 29.3387L44.7082 33.46L47.6711 36.6668Z" fill="#F0393B"/>
<path d="M58.9067 104.206C58.4166 96.4143 60.0453 89.0511 63.9489 82.2967C58.8738 78.3404 29.8802 55.7298 28.0735 55.2616C28.0735 55.2616 32.8629 61.6006 40.9493 69.3726C32.8343 64.4447 25.4865 60.0971 24.6183 59.974C24.6183 59.974 29.0934 64.7415 36.5269 70.7441C29.6363 66.5856 23.8776 63.2205 23.1193 63.1106C23.1193 63.1106 28.9307 69.3111 38.3403 76.4875C29.6736 72.3113 21.7851 68.6385 20.8993 68.5989C20.8993 68.5989 26.2624 73.3092 34.9092 78.8899C27.2317 75.2192 20.6597 72.1816 19.8575 72.1443C19.8575 72.1443 25.1128 76.76 33.5992 82.255C25.9327 78.9206 19.4289 76.1929 18.6354 76.1863C18.6354 76.1863 26.0711 82.2571 37.494 88.5412C27.6911 84.8683 18.3826 81.4923 17.4265 81.5362C17.4265 81.5362 26.4382 88.1126 39.8217 94.223C28.6472 91.0117 17.0506 87.7895 16 87.9214C15.9934 87.9411 35.3027 99.7597 58.9067 104.206Z" fill="#2C4D27"/>
<path d="M59.7573 106.622C59.2672 98.8322 60.8959 91.4558 64.7995 84.7124C59.7244 80.756 30.7308 58.1454 28.9241 57.6772C28.9241 57.6772 33.7135 64.0162 41.7998 71.7883C33.6849 66.8604 26.3371 62.515 25.4689 62.3897C25.4689 62.3897 29.9439 67.1571 37.3775 73.1598C30.4847 69.0012 24.7259 65.6383 23.9698 65.5284C23.9698 65.5284 29.7791 71.7267 39.1908 78.9053C30.5242 74.7292 22.6357 71.0541 21.7499 71.0146C21.7499 71.0146 27.1108 75.7248 35.7598 81.3055C28.0823 77.6349 21.5103 74.5973 20.708 74.5599C20.708 74.5599 25.9634 79.1757 34.4498 84.6706C26.7833 81.3363 20.2794 78.6086 19.486 78.602C19.486 78.602 26.9217 84.6728 38.3446 90.9568C28.5416 87.284 19.2332 83.9079 18.2771 83.9519C18.2771 83.9519 27.2888 90.5282 40.6723 96.6386C29.4978 93.4296 17.9012 90.2051 16.8506 90.337C16.844 90.3568 36.1532 102.175 59.7573 106.622Z" fill="#3C6836"/>
<path d="M57.2263 98.9929C52.5687 96.9553 41.6932 92.1483 34.3783 88.4426C36.669 88.292 38.9672 88.292 41.2579 88.4426C47.0167 91.0603 53.1732 94.3221 57.4263 97.696C57.5911 96.6168 57.756 95.5398 57.912 94.4628C56.7185 93.5836 54.0985 91.7087 50.7598 89.6448C54.0106 90.2603 56.6042 90.9351 58.3714 91.4384C58.6088 89.9247 58.8857 88.4206 59.2022 86.9259C58.0329 86.0797 56.2745 84.8401 54.0326 83.3828C56.0811 83.7982 57.8637 84.2312 59.3078 84.6137C59.4286 84.7126 59.5276 84.8115 59.6594 84.9104C60.0371 83.4337 60.4973 81.9793 61.0376 80.554C59.858 80.0027 58.6337 79.5527 57.3779 79.2088C50.4257 74.3381 32.9144 63.1328 24.2588 67.2848C24.2588 67.2848 37.9324 72.0654 49.4256 78.2747C48.197 78.2989 46.9859 78.378 45.8056 78.5187C38.361 74.5623 29.8504 71.4236 24.6039 73.9403C24.6039 73.9403 31.2923 76.2746 39.2424 79.8001C37.0136 80.3984 34.8257 81.1399 32.6924 82.0201C30.5692 81.7717 28.613 81.9014 27.0194 82.6641C27.0194 82.6641 31.1582 84.1125 36.596 86.4006C35.1586 86.8007 33.8749 87.2205 32.7716 87.6205C31.5077 86.9611 30.4043 86.3545 29.5208 85.827C30.2878 86.3501 31.2637 87.0139 32.3781 87.7612C30.745 88.3678 29.5845 88.8865 29.0812 89.1239C28.7646 88.9437 28.4716 88.7715 28.202 88.6074L29.0108 89.1591L28.791 89.2668C28.8899 89.2426 28.991 89.2316 29.0877 89.2096C34.7563 93.0671 47.5925 101.558 55.9295 105.349C56.4526 103.242 56.8812 101.12 57.2263 98.9929ZM43.9944 82.0025C45.8385 82.8817 47.6804 83.818 49.4894 84.7851C47.1521 84.6773 44.8099 84.7958 42.4954 85.139C39.6666 83.8202 36.7807 82.7564 34.1233 82.2399C37.3973 81.8299 40.7041 81.7475 43.9944 81.9937V82.0025ZM33.5167 88.5261C38.8226 92.0648 46.7045 97.129 53.2567 100.615C46.5727 97.6675 34.8574 92.3857 29.1801 89.1855C30.6109 88.8778 32.0591 88.6576 33.5167 88.5261Z" fill="#5B8F45"/>
<path d="M29.5172 85.8203C28.2688 84.9652 27.5391 84.4553 27.5391 84.4553C28.1537 84.972 28.8161 85.429 29.5172 85.8203Z" fill="#5B8F45"/>
<path d="M28.1862 88.6005C26.9377 87.7455 26.208 87.2356 26.208 87.2356C26.8222 87.7528 27.4846 88.2099 28.1862 88.6005Z" fill="#5B8F45"/>
<path d="M144.286 145.141L138.09 141.121L124.561 129.67L120.945 133.94L122.603 135.343L121.508 137.029L134.744 145.621L160.337 167.282L163.094 164.024L164.795 165.128L167.841 160.435L162.533 156.988L164.373 154.815L124.983 121.471L121.367 125.744L144.286 145.141Z" fill="#C63334"/>
<path d="M129.475 117.145L125.859 121.416L165.247 154.76L168.863 150.489L129.475 117.145Z" fill="#C63334"/>
<path d="M149.019 105.356L148.891 105.455L145.236 102.362L141.62 106.633L145.458 109.881L151.186 117.174L138.517 106.45L134.903 110.721L168.372 139.051L176.498 149.395L180.898 145.939L176.955 140.919L177.907 139.792L172.421 135.147L166.693 127.854L181.01 139.974L184.626 135.703L149.507 105.976L149.019 105.356Z" fill="#C63334"/>
<path d="M132.946 111.122L129.33 115.393L168.718 148.737L172.333 144.466L132.946 111.122Z" fill="#C63334"/>
<path d="M126.291 124.852L122.676 129.123L130.909 136.092L126.272 133.075L123.225 137.767L166.495 165.866L169.541 161.173L168.029 160.191L171.398 156.21L132.013 122.869L128.648 126.845L126.291 124.852Z" fill="#F0393B"/>
<path d="M144.905 103.712L146.103 104.725L144.929 105.646L157.179 121.243L141.428 107.91L137.814 112.181L174.362 143.117L176.807 146.23L181.209 142.772L180.4 141.746L180.818 141.251L178.413 139.216L161.676 117.909L184.297 137.055L187.913 132.784L148.521 99.4412L144.905 103.712Z" fill="#F0393B"/>
<path d="M134.172 117.557L131.172 121.1L170.562 154.441L174.177 150.17L170.845 147.35L173.845 143.807L134.453 110.466L130.84 114.737L134.172 117.557Z" fill="#F0393B"/>
<path d="M122.926 160.044L118.363 154.276L108.648 139.451L105.357 141.607L106.549 143.423L105.516 144.403L115.268 156.727L133.645 184.769L136.155 183.125L137.408 184.71L140.283 181.98L136.371 177.036L138.044 175.94L109.758 132.776L106.467 134.932L122.926 160.044Z" fill="#E89E45"/>
<path d="M115.359 132.248L112.056 134.411L140.439 177.76L143.742 175.597L115.359 132.248Z" fill="#E89E45"/>
<path d="M130.456 128.692L130.344 128.725L127.719 124.72L124.431 126.876L127.188 131.081L131.071 139.396L121.972 125.514L118.684 127.67L142.721 164.345L148.227 176.14L152.066 174.97L149.392 169.245L150.26 168.677L146.319 162.664L142.437 154.349L152.719 170.038L156.007 167.884L130.788 129.4L130.456 128.692Z" fill="#E89E45"/>
<path d="M117.074 127.246L113.785 129.401L142.073 172.564L145.362 170.408L117.074 127.246Z" fill="#E89E45"/>
<path d="M110.481 136.106L107.184 138.26L113.096 147.271L109.681 142.952L106.806 145.68L138.696 185.989L141.571 183.261L140.457 181.852L143.521 179.843L115.233 136.682L112.173 138.686L110.481 136.106Z" fill="#FFC942"/>
<path d="M127.333 125.72L128.19 127.03L127.168 127.342L135.472 145.126L124.161 127.866L120.873 130.022L147.121 170.073L148.779 173.621L152.616 172.452L152.069 171.278L152.449 171.029L150.722 168.394L139.376 144.095L155.621 168.882L158.909 166.728L130.621 123.564L127.333 125.72Z" fill="#FFC942"/>
<path d="M117.458 133.088L114.73 134.877L143.018 178.039L146.307 175.885L143.913 172.234L146.641 170.445L118.353 127.281L115.065 129.437L117.458 133.088Z" fill="#FFC942"/>
<g style="mix-blend-mode:multiply" opacity="0.32">
<path d="M148.518 99.4324L145.707 102.754L145.232 102.353L141.617 106.624L145.454 109.873L148.826 114.165L141.436 107.91L140.94 108.495L138.522 106.451L134.906 110.721L152.49 125.613C155.233 119.701 156.844 113.327 157.238 106.822L148.518 99.4324Z" fill="#2C4D27"/>
</g>
<path d="M148.636 76.0458C148.465 75.259 162.013 47.7579 186.602 56.941C186.602 56.941 174.322 84.7367 151.826 78.1955L148.636 76.0458Z" fill="#2C4D27"/>
<path d="M152.403 93.0098C152.227 92.2163 165.76 64.3613 190.648 73.5049C190.648 73.5049 178.394 101.639 155.634 95.1638L152.403 93.0098Z" fill="#2C4D27"/>
<path d="M156.717 102.483C156.539 101.692 170.074 73.8369 194.961 82.9805C194.961 82.9805 182.705 111.115 159.948 104.639L156.717 102.483Z" fill="#2C4D27"/>
<path d="M153.826 100.692C154.149 99.9466 181.477 85.374 196.232 107.407C196.232 107.407 169.768 122.966 155.174 104.329L153.826 100.692Z" fill="#2C4D27"/>
<path d="M148.828 111.418C149.151 110.673 176.479 96.1001 191.234 118.133C191.234 118.133 164.77 133.692 150.175 115.055L148.828 111.418Z" fill="#2C4D27"/>
<path d="M145.283 85.4795C144.734 84.8927 142.34 54.3276 168.173 49.67C168.173 49.67 171.804 79.8395 149.123 85.6993L145.283 85.4795Z" fill="#497A2D"/>
<path d="M137.615 89.0094C137.441 88.2247 150.941 60.6973 175.545 69.8409C175.545 69.8409 163.314 97.6563 140.817 91.1612L137.615 89.0094Z" fill="#497A2D"/>
<path d="M144.054 99.1531C144.054 98.3508 163.334 74.5093 185.294 88.8885C185.294 88.8885 167.19 113.286 146.691 101.955L144.054 99.1531Z" fill="#497A2D"/>
<path d="M143.762 107.097C144.043 106.343 170.315 90.5438 186.024 111.574C186.024 111.574 160.658 128.303 145.281 110.631L143.762 107.097Z" fill="#5B8F45"/>
<path d="M137.688 100.799C137.519 100.015 151.122 72.54 175.691 81.7738C175.691 81.7738 163.354 109.545 140.873 102.958L137.688 100.799Z" fill="#5B8F45"/>
<g style="mix-blend-mode:multiply" opacity="0.32">
<path d="M148.954 69.5399C148.142 72.2785 147.605 75.0912 147.351 77.9362C142.329 83.2465 139.735 88.7942 139.812 89.1459L143.006 91.2911C143.875 91.517 144.755 91.6953 145.643 91.8252C141.81 96.4036 139.83 100.637 139.896 100.938L143.081 103.094C146.048 103.975 149.163 104.253 152.24 103.912C148.49 105.439 146.052 107.009 145.969 107.233L147.488 110.767C148.894 112.368 150.508 113.773 152.288 114.944L152.385 115.205C153.783 116.983 155.426 118.555 157.264 119.874C160.333 111.479 161.18 102.433 159.724 93.6145C158.268 84.7957 154.558 76.5028 148.954 69.5399Z" fill="#2C4D27"/>
</g>
<g style="mix-blend-mode:multiply" opacity="0.32">
<path d="M150.361 75.6371L161.387 69.6169C161.757 69.4144 162.032 69.0731 162.151 68.668C162.27 68.2629 162.224 67.8271 162.022 67.4562L156.762 57.8247C158.598 56.0604 160.145 54.0194 161.349 51.7759C152.153 55.9059 147.999 64.0845 146.223 71.3796L148.201 75.0019C148.403 75.3724 148.745 75.6475 149.15 75.7666C149.555 75.8857 149.991 75.8391 150.361 75.6371Z" fill="#2C4D27"/>
</g>
<path d="M105.694 16.2828C111.785 22.1646 109.958 33.9391 101.61 42.5816C93.2626 51.224 81.5605 53.4638 75.4699 47.582C69.3793 41.7002 71.2059 29.9256 79.5538 21.281C87.9017 12.6363 99.6037 10.401 105.694 16.2828Z" fill="#D6C4A4"/>
<path d="M99.7767 40.8101C92.4244 48.426 82.3137 50.6372 77.2452 45.7467C72.1767 40.8562 74.0362 30.6708 81.3906 23.0548C88.745 15.4388 98.8535 13.2254 103.922 18.1203C108.991 23.0152 107.131 33.1941 99.7767 40.8101Z" fill="#FFFBE1"/>
<path d="M89.1533 28.9474L87.551 30.6047C87.4345 30.7278 87.3949 30.8882 87.2894 31.0157L87.2631 30.9036C87.2631 30.9036 76.1215 41.0297 84.3068 48.927C84.3068 48.927 90.2259 48.0742 88.4653 44.8981C87.2213 42.6562 87.6059 41.333 88.0939 40.4648L103.26 55.1143C103.564 55.4075 103.972 55.5682 104.394 55.5612C104.816 55.5542 105.219 55.3801 105.513 55.077L114.239 46.0411C114.532 45.737 114.693 45.3289 114.686 44.9064C114.678 44.4839 114.503 44.0817 114.199 43.7882L99.1409 29.2463C99.9981 28.8485 101.214 28.6485 103.183 29.653C106.418 31.3014 107.065 25.3559 107.065 25.3559C98.8838 17.4586 89.1533 28.9474 89.1533 28.9474Z" fill="#D6C4A4"/>
<g style="mix-blend-mode:multiply">
<path d="M101.147 27.6969C96.7819 35.1107 95.5928 43.2036 97.3621 49.4239L103.264 55.1211C103.568 55.4143 103.976 55.575 104.398 55.568C104.82 55.5609 105.223 55.3868 105.517 55.0837L114.243 46.0478C114.536 45.7438 114.697 45.3356 114.689 44.9131C114.682 44.4907 114.507 44.0884 114.203 43.7949L106.31 36.1723C109.513 30.3081 110.143 24.0834 107.943 19.5028C105.255 21.8538 102.96 24.6202 101.147 27.6969Z" fill="#BBAF90"/>
</g>
<path d="M127.886 18.4282C135.181 22.723 136.163 34.5921 130.055 44.9534C123.947 55.3147 113.1 60.214 105.802 55.9169C98.5051 51.6199 97.5358 39.7442 103.633 29.3917C109.73 19.0392 120.588 14.1289 127.886 18.4282Z" fill="#D6C4A4"/>
<path d="M127.859 43.6585C122.485 52.7823 113.172 57.286 107.101 53.7187C101.03 50.1514 100.461 39.8099 105.835 30.686C111.209 21.5622 120.52 17.0586 126.59 20.6281C132.661 24.1976 133.23 34.5369 127.859 43.6585Z" fill="#FFFBE1"/>
<path d="M114.757 34.603L113.586 36.5812C113.5 36.7263 113.5 36.8933 113.427 37.0428L113.375 36.9395C113.375 36.9395 104.906 49.3866 114.711 55.1607C114.711 55.1607 120.265 52.9495 117.812 50.2724C116.08 48.3821 116.144 47.0062 116.417 46.0479L134.59 56.752C134.77 56.8583 134.969 56.928 135.176 56.9571C135.383 56.9862 135.594 56.9742 135.797 56.9217C135.999 56.8692 136.19 56.7774 136.357 56.6513C136.524 56.5253 136.664 56.3675 136.77 56.1872L143.144 45.3643C143.251 45.1843 143.321 44.985 143.35 44.7779C143.38 44.5707 143.368 44.3598 143.316 44.1572C143.263 43.9547 143.172 43.7644 143.046 43.5974C142.92 43.4303 142.762 43.2898 142.581 43.1839L124.545 32.5611C125.283 31.972 126.42 31.4951 128.569 32.0116C132.099 32.8578 131.341 26.9277 131.341 26.9277C121.536 21.1624 114.757 34.603 114.757 34.603Z" fill="#D6C4A4"/>
<g style="mix-blend-mode:multiply">
<path d="M142.582 43.1928L133.131 37.6232C133.672 35.6518 133.972 33.6223 134.025 31.5787C133.003 32.0183 131.979 32.425 130.972 32.9744C120.582 38.6474 114.764 48.5801 116.556 56.5697C119.525 55.5719 122.49 53.7629 125.128 51.1913L134.579 56.761C134.759 56.8672 134.959 56.9369 135.166 56.966C135.373 56.9951 135.584 56.9831 135.787 56.9306C135.989 56.8782 136.179 56.7863 136.346 56.6602C136.513 56.5342 136.654 56.3765 136.76 56.1961L143.134 45.3733C143.349 45.0109 143.413 44.5777 143.309 44.1689C143.206 43.76 142.944 43.409 142.582 43.1928Z" fill="#BBAF90"/>
</g>
<path d="M158.832 38.1705C162.89 45.6041 157.63 56.295 147.086 62.0537C136.543 67.8124 124.702 66.4497 120.645 59.0227C116.587 51.5958 121.845 40.8982 132.391 35.1395C142.937 29.3808 154.775 30.7392 158.832 38.1705Z" fill="#D6C4A4"/>
<path d="M145.861 59.8139C136.568 64.8868 126.26 63.99 122.884 57.7983C119.507 51.6066 124.321 42.4542 133.614 37.3791C142.907 32.304 153.213 33.2029 156.59 39.3946C159.966 45.5863 155.154 54.7409 145.861 59.8139Z" fill="#FFFBE1"/>
<path d="M139.26 45.3204L137.238 46.4194C137.089 46.5007 137.005 46.6392 136.865 46.7337V46.6194C136.865 46.6194 123.209 52.9584 128.662 62.9438C128.662 62.9438 134.566 63.8955 133.834 60.3414C133.315 57.8291 134.078 56.6818 134.803 55.9982L144.914 74.5096C145.116 74.8801 145.457 75.1551 145.863 75.2742C146.268 75.3933 146.703 75.3468 147.074 75.1448L158.099 69.1245C158.47 68.922 158.745 68.5807 158.864 68.1756C158.983 67.7705 158.937 67.3347 158.735 66.9639L148.703 48.591C149.639 48.4657 150.859 48.6371 152.44 50.1845C155.033 52.7232 157.425 47.2414 157.425 47.2414C151.989 37.2604 139.26 45.3204 139.26 45.3204Z" fill="#D6C4A4"/>
<g style="mix-blend-mode:multiply">
<path d="M119.267 52.4287L119.302 50.4506C113.172 46.7602 100.839 48.1185 100.27 48.1822C101.171 51.5254 103.017 54.2772 105.802 55.9169C109.758 58.249 114.756 57.7962 119.482 55.3081C119.646 56.6051 120.039 57.8628 120.643 59.0227C123.759 64.7374 131.472 66.8167 139.659 64.8825L144.917 74.514C145.12 74.8846 145.461 75.1596 145.866 75.2787C146.271 75.3978 146.707 75.3512 147.078 75.1492L147.612 74.8569C139.42 57.3654 119.267 52.4287 119.267 52.4287Z" fill="#BBAF90"/>
</g>
<path d="M166.032 65.4712C165.962 65.1481 171.516 53.8219 181.638 57.5871C181.638 57.5871 176.604 69.0297 167.351 66.3548L166.032 65.4712Z" fill="#497A2D"/>
<path d="M63.5647 131.776L59.2773 136.215L75.093 151.488L79.3804 147.049L63.5647 131.776Z" fill="#BE2335"/>
<path d="M65.723 136.34L59.6406 137.387L63.3716 159.055L69.454 158.007L65.723 136.34Z" fill="#BE2335"/>
<path d="M64.7975 156.621L63.2861 153.465L43.4564 162.961L44.9678 166.117L64.7975 156.621Z" fill="#F0393A"/>
<path d="M57.468 139.003L54.0195 139.597L57.7505 161.264L61.1989 160.671L57.468 139.003Z" fill="#BE2335"/>
<path d="M62.4913 143.627L59.3262 142.135L49.9509 162.023L53.116 163.515L62.4913 143.627Z" fill="#BE2335"/>
<path d="M72.1583 150.416L68.9932 148.924L59.6179 168.812L62.783 170.304L72.1583 150.416Z" fill="#BE2335"/>
<path d="M56.5411 142.711L53.376 141.219L44.0007 161.106L47.1659 162.598L56.5411 142.711Z" fill="#BE2335"/>
<path d="M56.5789 142.772L53.4141 141.279L44.0354 161.165L47.2002 162.657L56.5789 142.772Z" fill="#BE2335"/>
<path d="M69.5379 147.864L66.5186 146.096L55.4059 165.067L58.4253 166.836L69.5379 147.864Z" fill="#F0393A"/>
<path d="M67.6091 149.682L66.0977 146.526L46.268 156.023L47.7794 159.179L67.6091 149.682Z" fill="#F0393A"/>
<path d="M67.2242 151.084L66.7305 144.912L44.7441 146.671L45.2378 152.842L67.2242 151.084Z" fill="#BE2335"/>
<g style="mix-blend-mode:multiply" opacity="0.27">
<path d="M60.3874 137.262L59.6291 137.391L60.5456 142.715L59.317 142.135L58.3499 144.19L57.4575 139.011L54.0089 139.605L54.3671 141.686L53.3692 141.216L51.0438 146.148L46.4588 146.517L46.9555 152.672L48.0084 152.586L46.3973 156.002L46.2939 156.052C46.2939 156.052 50.5229 157.496 52.8022 155.274C55.0815 153.052 58.9719 145.414 58.9719 145.414L67.4143 140.697L74.3336 146.443L78.0701 148.421L79.4021 147.043L63.5767 131.769L59.2884 136.209L60.3874 137.262ZM54.6419 152.052L51.5273 153.544L52.1362 152.252L54.6441 152.047L54.6419 152.052Z" fill="#302B1B"/>
</g>
<path d="M41.1623 116.847L30.0735 119.434C29.4528 119.579 28.8096 119.6 28.1807 119.496C27.5518 119.392 26.9496 119.166 26.4083 118.829C25.867 118.492 25.3973 118.053 25.026 117.534C24.6548 117.016 24.3892 116.43 24.2445 115.809L21.9454 105.954C21.6529 104.7 21.8701 103.382 22.5494 102.289C23.2287 101.196 24.3144 100.417 25.5677 100.125L36.6565 97.5354C37.2772 97.3906 37.9204 97.3694 38.5493 97.4732C39.1782 97.577 39.7805 97.8036 40.3217 98.1402C40.863 98.4768 41.3327 98.9167 41.704 99.4348C42.0752 99.9529 42.3408 100.539 42.4855 101.16L44.7868 111.016C44.9319 111.636 44.9533 112.28 44.8497 112.909C44.7461 113.538 44.5195 114.141 44.1829 114.682C43.8463 115.224 43.4063 115.694 42.888 116.065C42.3697 116.436 41.7833 116.702 41.1623 116.847Z" fill="#FFDEA9"/>
<path d="M42.6489 114.073C42.4122 114.316 42.111 114.486 41.7807 114.563L28.5071 117.658C28.0499 117.764 27.5695 117.684 27.1706 117.437C26.7716 117.19 26.4865 116.795 26.3773 116.339L23.6276 104.54C23.5207 104.083 23.5995 103.602 23.8468 103.203C24.094 102.804 24.4894 102.519 24.9464 102.411L38.2222 99.3158C38.6793 99.2107 39.1595 99.2903 39.5583 99.5372C39.9571 99.7841 40.2423 100.178 40.352 100.635L43.1017 112.431C43.1705 112.721 43.165 113.023 43.0859 113.31C43.0067 113.597 42.8564 113.86 42.6489 114.073Z" fill="#FFFBE1"/>
<path d="M56.3062 142.313L55.0072 145.348L51.8201 152.821C50.7717 155.239 47.9099 156.426 45.4922 155.375L36.1266 151.393C35.5423 151.14 35.0136 150.775 34.5709 150.317C34.1282 149.86 33.7802 149.319 33.5468 148.727C33.3134 148.135 33.1992 147.503 33.2108 146.866C33.2223 146.23 33.3595 145.602 33.6143 145.019L36.087 139.172L38.0652 134.556C38.5014 133.533 39.2772 132.691 40.2617 132.173C41.2463 131.655 42.3794 131.492 43.47 131.712C43.8133 131.782 44.1506 131.878 44.4789 132L49.4046 134.097L53.7587 135.983C54.3428 136.23 54.8723 136.589 55.3168 137.042C55.7613 137.494 56.112 138.03 56.3488 138.618C56.5855 139.206 56.7036 139.836 56.6963 140.47C56.689 141.104 56.5564 141.73 56.3062 142.313Z" fill="#FFDEA9"/>
<path d="M54.9523 139.501C55.0089 139.836 54.9677 140.179 54.8336 140.491L49.4749 153.019C49.3838 153.233 49.251 153.427 49.0842 153.59C48.9174 153.753 48.72 153.881 48.5034 153.966C48.0691 154.146 47.5815 154.146 47.1473 153.966L36.0123 149.203C35.7969 149.114 35.6015 148.982 35.4375 148.816C35.2734 148.65 35.1441 148.453 35.057 148.237C34.9698 148.02 34.9266 147.789 34.9299 147.555C34.9331 147.322 34.9828 147.092 35.076 146.878L40.4368 134.349C40.6221 133.918 40.9709 133.577 41.4067 133.402C41.8425 133.227 42.3299 133.232 42.7623 133.415L53.8994 138.176C54.1714 138.292 54.4101 138.474 54.5939 138.705C54.7778 138.937 54.9009 139.21 54.9523 139.501Z" fill="#FFFBE1"/>
<g style="mix-blend-mode:multiply" opacity="0.73">
<path d="M56.3098 142.313L55.0108 145.348C53.8721 145.898 52.5633 145.98 51.3648 145.577C50.1663 145.173 49.1735 144.316 48.5993 143.19L43.9484 134.237C43.5382 133.464 43.3705 132.584 43.467 131.714C43.8103 131.784 44.1476 131.88 44.4759 132.002L49.4016 134.099L53.7557 135.985C54.3401 136.231 54.8701 136.59 55.3151 137.042C55.7601 137.494 56.1113 138.03 56.3487 138.618C56.5861 139.206 56.7048 139.835 56.6981 140.469C56.6915 141.103 56.5595 141.73 56.3098 142.313Z" fill="#CDB388"/>
</g>
<g style="mix-blend-mode:multiply" opacity="0.73">
<path d="M49.4018 134.099L49.2897 135.198C49.2508 135.829 49.0875 136.447 48.8091 137.016C48.5307 137.584 48.1426 138.092 47.6673 138.51C47.192 138.928 46.6388 139.248 46.0394 139.451C45.4401 139.654 44.8065 139.737 44.175 139.695L36.0908 139.183L38.069 134.567C38.5855 133.382 39.549 132.448 40.75 131.97C41.9511 131.491 43.2925 131.506 44.4827 132.011L49.4018 134.099Z" fill="#CDB388"/>
</g>
<path d="M42.9092 137.829L31.5457 137.103C30.263 137.022 29.065 136.435 28.2148 135.471C27.3647 134.507 26.9318 133.245 27.0112 131.962L27.6552 121.863C27.6955 121.227 27.8608 120.605 28.1415 120.032C28.4223 119.46 28.8131 118.949 29.2916 118.528C29.77 118.107 30.3268 117.784 30.9301 117.578C31.5333 117.372 32.1712 117.287 32.8073 117.328L44.1709 118.051C45.4554 118.133 46.6547 118.722 47.5051 119.688C48.3554 120.654 48.7872 121.919 48.7053 123.203L48.0613 133.314C47.9738 134.595 47.3826 135.789 46.4171 136.635C45.4516 137.481 44.1904 137.91 42.9092 137.829Z" fill="#FFDEA9"/>
<path d="M45.134 135.602C44.8381 135.768 44.5007 135.844 44.1625 135.822L30.5592 134.943C30.327 134.929 30.0998 134.869 29.8911 134.767C29.6823 134.664 29.4962 134.521 29.3437 134.345C29.1893 134.171 29.071 133.968 28.9955 133.748C28.9201 133.528 28.889 133.296 28.9041 133.064L29.6778 120.975C29.6906 120.742 29.7496 120.514 29.8514 120.304C29.9531 120.094 30.0956 119.907 30.2705 119.753C30.4454 119.598 30.6492 119.481 30.8701 119.406C31.0909 119.331 31.3245 119.301 31.5571 119.317L45.1604 120.197C45.6287 120.229 46.0654 120.444 46.3757 120.797C46.686 121.149 46.8448 121.609 46.8176 122.078L46.0483 134.16C46.0297 134.458 45.9362 134.747 45.7763 134.999C45.6165 135.251 45.3955 135.458 45.134 135.602Z" fill="#FFFBE1"/>
<g style="mix-blend-mode:multiply" opacity="0.73">
<path d="M44.1693 118.04L37.1138 117.601C36.9343 118.774 37.1958 119.972 37.8476 120.964C38.4995 121.956 39.4956 122.672 40.6438 122.973L48.5895 125.001L48.7038 123.201C48.7455 122.564 48.6613 121.926 48.4559 121.322C48.2505 120.717 47.928 120.16 47.5068 119.68C47.0857 119.201 46.5741 118.809 46.0014 118.528C45.4287 118.247 44.8061 118.081 44.1693 118.04Z" fill="#CDB388"/>
</g>
<path d="M65.5662 139.035L55.4555 144.271C54.8895 144.564 54.2713 144.743 53.6363 144.797C53.0012 144.851 52.3617 144.779 51.7543 144.586C51.1469 144.393 50.5834 144.082 50.0962 143.671C49.6089 143.261 49.2073 142.758 48.9144 142.192L44.259 133.204C43.966 132.638 43.7874 132.02 43.7333 131.385C43.6792 130.75 43.7508 130.11 43.9439 129.503C44.137 128.896 44.4478 128.332 44.8586 127.845C45.2695 127.358 45.7723 126.956 46.3383 126.663L56.449 121.428C57.5919 120.836 58.9231 120.722 60.1498 121.111C61.3765 121.501 62.3982 122.362 62.9902 123.505L67.6433 132.494C68.2353 133.637 68.3489 134.968 67.9594 136.195C67.5699 137.422 66.7091 138.443 65.5662 139.035Z" fill="#FFDEA9"/>
<path d="M66.3254 135.98C66.1571 136.274 65.9075 136.513 65.6067 136.668L53.5002 142.932C53.2937 143.04 53.0679 143.105 52.8358 143.125C52.6038 143.145 52.3701 143.118 52.1485 143.047C51.9262 142.976 51.7201 142.861 51.542 142.711C51.364 142.56 51.2175 142.375 51.111 142.167L45.5436 131.411C45.4361 131.204 45.3704 130.978 45.3503 130.746C45.3303 130.514 45.3562 130.28 45.4267 130.059C45.4971 129.837 45.6107 129.631 45.7609 129.453C45.9111 129.275 46.0949 129.128 46.3019 129.021L58.4061 122.757C58.8239 122.543 59.3093 122.503 59.7568 122.645C60.2043 122.787 60.5775 123.1 60.7953 123.515L66.3628 134.272C66.5022 134.537 66.572 134.832 66.5654 135.131C66.5589 135.43 66.4763 135.722 66.3254 135.98Z" fill="#FFFBE1"/>
<path d="M52.4658 124.131L41.4298 121.313C40.8123 121.156 40.2318 120.878 39.7217 120.496C39.2115 120.114 38.7815 119.636 38.4564 119.088C38.1312 118.54 37.9172 117.933 37.8266 117.302C37.736 116.671 37.7706 116.029 37.9284 115.412L40.4341 105.604C40.5915 104.987 40.8691 104.406 41.2509 103.896C41.6328 103.386 42.1114 102.956 42.6594 102.631C43.2075 102.306 43.8142 102.092 44.445 102.001C45.0758 101.91 45.7182 101.945 46.3356 102.103L57.3695 104.921C57.9871 105.078 58.5675 105.356 59.0777 105.738C59.588 106.12 60.0179 106.599 60.343 107.147C60.6682 107.695 60.8821 108.302 60.9727 108.933C61.0633 109.564 61.0287 110.207 60.8709 110.824L58.3652 120.632C58.0467 121.878 57.2463 122.947 56.14 123.603C55.0337 124.259 53.7121 124.449 52.4658 124.131Z" fill="#FFDEA9"/>
<path d="M55.0571 122.357C54.7353 122.464 54.3895 122.475 54.0614 122.39L40.8559 119.014C40.6301 118.957 40.4178 118.856 40.2314 118.716C40.0451 118.577 39.8882 118.402 39.7701 118.201C39.5298 117.798 39.4595 117.315 39.5745 116.86L42.5748 105.125C42.6317 104.899 42.7327 104.687 42.8718 104.5C43.011 104.314 43.1856 104.156 43.3858 104.037C43.5859 103.918 43.8075 103.84 44.038 103.807C44.2684 103.773 44.5032 103.786 44.7288 103.844L57.9342 107.22C58.1602 107.277 58.3726 107.379 58.559 107.518C58.7454 107.658 58.9021 107.834 59.02 108.035C59.2594 108.439 59.3297 108.921 59.2156 109.376L56.2154 121.111C56.1424 121.399 55.9981 121.665 55.7956 121.882C55.5932 122.1 55.3392 122.263 55.0571 122.357Z" fill="#FFFBE1"/>
<path d="M123.288 184.964C132.226 176.026 132.226 161.536 123.288 152.599C114.351 143.662 99.8609 143.662 90.9236 152.599C81.9863 161.536 81.9863 176.026 90.9236 184.964C99.8609 193.901 114.351 193.901 123.288 184.964Z" fill="#363124"/>
<path d="M99.0568 176.377C96.3517 173.752 94.585 170.31 94.0289 166.582C93.4728 162.854 94.1583 159.047 95.9796 155.747C95.5598 156.105 95.1114 156.406 94.7224 156.811C92.9703 158.566 91.6178 160.679 90.7572 163.005C89.8966 165.331 89.5483 167.815 89.7359 170.288C89.9236 172.761 90.6429 175.165 91.8447 177.334C93.0464 179.504 94.7023 181.388 96.6993 182.859C98.6962 184.33 100.987 185.352 103.415 185.856C105.844 186.361 108.352 186.335 110.77 185.781C113.187 185.226 115.456 184.157 117.423 182.645C119.389 181.133 121.005 179.215 122.162 177.021C115.502 182.718 105.497 182.597 99.0568 176.377Z" fill="#6A5D3E"/>
<g style="mix-blend-mode:multiply" opacity="0.55">
<path d="M86.4627 178.509C89.3341 177.58 91.9404 175.976 94.0624 173.83C96.1843 171.684 97.7597 169.06 98.6561 166.178C99.5524 163.297 99.7434 160.242 99.2131 157.271C98.6828 154.3 97.4465 151.5 95.6085 149.107C90.6112 151.906 86.8775 156.516 85.1761 161.985C83.4747 167.455 83.9352 173.369 86.4627 178.509Z" fill="#302B1B"/>
</g>
<path d="M92.2033 148.309C94.6179 150.641 96.2867 153.637 96.9988 156.917C97.7109 160.198 97.4342 163.616 96.2037 166.739C94.9732 169.862 92.8442 172.55 90.0859 174.463C87.3276 176.377 84.0639 177.429 80.7075 177.487C77.3512 177.546 74.0528 176.608 71.2297 174.792C68.4065 172.975 66.1852 170.363 64.8468 167.284C63.5084 164.206 63.113 160.8 63.7105 157.496C64.308 154.193 65.8716 151.141 68.2036 148.726C69.7518 147.123 71.6008 145.84 73.645 144.951C75.6891 144.062 77.8883 143.585 80.1169 143.546C82.3456 143.507 84.5601 143.908 86.6339 144.725C88.7077 145.542 90.6002 146.76 92.2033 148.309Z" fill="#363124"/>
<path d="M74.4415 166.15C72.436 164.203 71.1256 161.652 70.7122 158.888C70.2988 156.123 70.8052 153.3 72.1534 150.852C71.8435 151.118 71.5116 151.342 71.2215 151.641C70.0478 152.846 69.1238 154.272 68.5023 155.835C67.8809 157.398 67.5743 159.069 67.6001 160.751C67.626 162.433 67.9838 164.094 68.6531 165.637C69.3223 167.181 70.2898 168.577 71.5 169.746C72.7101 170.914 74.1392 171.832 75.7051 172.447C77.2711 173.062 78.943 173.362 80.625 173.329C82.3071 173.296 83.966 172.931 85.5067 172.256C87.0475 171.58 88.4396 170.607 89.6032 169.392C90.3849 168.563 91.0504 167.631 91.5814 166.622C89.1787 168.692 86.0901 169.791 82.92 169.704C79.7499 169.616 76.7265 168.349 74.4415 166.15Z" fill="#6A5D3E"/>
<g style="mix-blend-mode:multiply" opacity="0.32">
<path d="M126.292 60.7258C151.855 70.786 164.423 99.663 154.363 125.228C144.303 150.792 115.426 163.358 89.8631 153.298C64.3006 143.238 51.7304 114.361 61.7905 88.7984C71.8507 63.2359 100.728 50.6657 126.292 60.7258Z" fill="#2C4D27"/>
</g>
<g style="mix-blend-mode:multiply" opacity="0.09">
<path d="M136.117 140.67C155.543 121.245 155.543 89.7495 136.117 70.3239C116.692 50.8982 85.1965 50.8982 65.7709 70.3238C46.3452 89.7495 46.3453 121.245 65.7709 140.67C85.1965 160.096 116.692 160.096 136.117 140.67Z" fill="#2C4D27"/>
</g>
<path d="M138.567 137.139C157.992 117.713 157.992 86.2182 138.567 66.7926C119.141 47.367 87.6457 47.367 68.2201 66.7926C48.7945 86.2182 48.7945 117.713 68.2201 137.139C87.6457 156.565 119.141 156.565 138.567 137.139Z" fill="url(#paint1_linear_76_13553)"/>
<path style="mix-blend-mode:multiply" d="M112.366 84.1959C116.162 85.689 119.429 88.274 121.756 91.6241C124.082 94.9742 125.363 98.9388 125.436 103.017C125.51 107.095 124.372 111.103 122.168 114.534C119.963 117.966 116.791 120.667 113.052 122.296C109.312 123.924 105.174 124.408 101.16 123.685C97.146 122.962 93.4365 121.065 90.5005 118.234C87.5645 115.403 85.5339 111.765 84.6654 107.779C83.7969 103.794 84.1295 99.6412 85.6212 95.8452C86.6119 93.3238 88.0897 91.0224 89.9701 89.0723C91.8505 87.1222 94.0967 85.5617 96.5803 84.4799C99.064 83.3981 101.736 82.8162 104.445 82.7675C107.154 82.7188 109.845 83.2041 112.366 84.1959Z" fill="url(#paint2_linear_76_13553)"/>
<path d="M110.939 82.7716C114.735 84.2645 118.003 86.8493 120.33 90.1992C122.657 93.5492 123.938 97.5139 124.011 101.592C124.085 105.67 122.948 109.678 120.744 113.11C118.539 116.542 115.367 119.243 111.627 120.872C107.888 122.501 103.75 122.984 99.7355 122.261C95.7214 121.538 92.0117 119.641 89.0757 116.81C86.1396 113.979 84.1089 110.341 83.2405 106.356C82.372 102.37 82.7048 98.2171 84.1967 94.4209C85.1874 91.8999 86.6651 89.5987 88.5454 87.6488C90.4256 85.6989 92.6716 84.1385 95.155 83.0567C97.6384 81.9749 100.311 81.393 103.019 81.3441C105.727 81.2952 108.419 81.7802 110.939 82.7716Z" fill="url(#paint3_radial_76_13553)"/>
<path d="M109.613 86.1588C105.902 84.6902 101.791 84.5785 98.0057 85.8432C94.2202 87.1079 91.0025 89.6679 88.9194 93.0724C86.8363 96.4768 86.0215 100.507 86.6184 104.453C87.2154 108.4 89.1859 112.009 92.1827 114.645C92.9322 107.642 97.3897 94.988 119.532 96.9223C118.793 94.4985 117.517 92.2723 115.8 90.4089C114.083 88.5456 111.968 87.0929 109.613 86.1588Z" fill="#FFC76F"/>
<path d="M145.979 66.3482L153.17 65.8031L153.394 68.6055L145.979 66.3482Z" fill="#5B8F45"/>
<path d="M145.785 59.6071L147.733 52.6615L150.443 53.4088L145.785 59.6071Z" fill="#5B8F45"/>
<path d="M148.478 64.067L150.423 57.1213L153.133 57.8687L148.478 64.067Z" fill="#5B8F45"/>
<path d="M141.673 63.0603L137.394 57.2532L139.651 55.5762L141.673 63.0603Z" fill="#5B8F45"/>
<path d="M37.9311 117.603C37.9311 117.616 37.9422 117.63 37.9444 117.643H37.791L37.9311 117.603Z" fill="#6A5D3E"/>
<path d="M60.5475 142.715L59.4551 142.201L60.376 141.724L60.5475 142.715Z" fill="#6A5D3E"/>
<path d="M66.9609 143.612L68.1566 144.766L67.1719 144.845L66.9609 143.612Z" fill="#6A5D3E"/>
<path d="M56.2344 156.879L56.7817 155.72L56.9245 156.549L56.2344 156.879Z" fill="#6A5D3E"/>
<defs>
<linearGradient id="paint0_linear_76_13553" x1="24.889" y1="125.16" x2="199.305" y2="125.16" gradientUnits="userSpaceOnUse">
<stop stop-color="#5E5F61"/>
<stop offset="1" stop-color="#0F0F0F"/>
</linearGradient>
<linearGradient id="paint1_linear_76_13553" x1="76.3507" y1="74.9229" x2="115.519" y2="114.091" gradientUnits="userSpaceOnUse">
<stop stop-color="white"/>
<stop offset="1" stop-color="#EBEBEB"/>
</linearGradient>
<linearGradient id="paint2_linear_76_13553" x1="84.1837" y1="103.389" x2="125.444" y2="103.389" gradientUnits="userSpaceOnUse">
<stop stop-color="white"/>
<stop offset="1" stop-color="#EBEBEB"/>
</linearGradient>
<radialGradient id="paint3_radial_76_13553" cx="0" cy="0" r="1" gradientUnits="userSpaceOnUse" gradientTransform="translate(93.9974 90.902) scale(30.0178 30.0178)">
<stop stop-color="#FCB03E"/>
<stop offset="0.59" stop-color="#FCAE3E"/>
<stop offset="0.81" stop-color="#FCA73E"/>
<stop offset="0.96" stop-color="#FB9C3E"/>
<stop offset="1" stop-color="#FB973E"/>
</radialGradient>
</defs>
</svg>
